<?xml version="1.0" standalone="no"?>
 <!DOCTYPE svg PUBLIC "-//W3C//DTD SVG 1.1//EN" 
 "http://www.w3.org/Graphics/SVG/1.1/DTD/svg11.dtd"> 
<svg
  xmlns:svg="http://www.w3.org/2000/svg"
  xmlns="http://www.w3.org/2000/svg"
  xmlns:xlink="http://www.w3.org/1999/xlink"
  version="1.1"
  width="297.0022mm" height="210.0072mm" viewBox="0.0000 0.0000 297.0022 210.0072">
<title>SVG Image created as simple.svg date 2025/12/13 02:28:50 </title>
  <desc>Image generated by Eeschema-SVG </desc>
<g style="fill:#000000; fill-opacity:1.0000;stroke:#000000; stroke-opacity:1.0000;
stroke-linecap:round; stroke-linejoin:round;"
 transform="translate(0 0) scale(1 1)">
</g>
<g style="fill:#F5F4EF; fill-opacity:1.0000; 
stroke:#F5F4EF; stroke-width:0.0001; stroke-opacity:1; 
stroke-linecap:round; stroke-linejoin:round;">
<rect x="0.000000" y="0.000000" width="297.002200" height="210.007200" rx="0.000000" />
</g>
<g style="fill:none; 
stroke:#840000; stroke-width:0.1524; stroke-opacity:1; 
stroke-linecap:round; stroke-linejoin:round;">
<path d="M177.0022 166.0072
L285.0022 166.0072
L285.0022 198.0072
L177.0022 198.0072
L177.0022 166.0072
" />
<path d="M10.0000 10.0000
L287.0022 10.0000
L287.0022 200.0072
L10.0000 200.0072
L10.0000 10.0000
" />
<path d="M12.0000 12.0000
L285.0022 12.0000
L285.0022 198.0072
L12.0000 198.0072
L12.0000 12.0000
" />
<path d="M60.0000 12.0000
L60.0000 10.0000
" />
<path d="M110.0000 12.0000
L110.0000 10.0000
" />
<path d="M160.0000 12.0000
L160.0000 10.0000
" />
<path d="M210.0000 12.0000
L210.0000 10.0000
" />
<path d="M260.0000 12.0000
L260.0000 10.0000
" />
<text x="35.0000" y="11.6500"
textLength="1.4353" font-size="1.7333" lengthAdjust="spacingAndGlyphs"
text-anchor="start" opacity="0" stroke-opacity="0">1</text>
<g class="stroked-text"><desc>1</desc>
<path d="M36.0906 11.5935
L35.3478 11.5935
" />
<path d="M35.7192 11.5935
L35.7192 10.2935
" />
<path d="M35.7192 10.2935
L35.5954 10.4792
" />
<path d="M35.5954 10.4792
L35.4716 10.6030
" />
<path d="M35.4716 10.6030
L35.3478 10.6649
" />
</g><text x="85.0000" y="11.6500"
textLength="1.4353" font-size="1.7333" lengthAdjust="spacingAndGlyphs"
text-anchor="start" opacity="0" stroke-opacity="0">2</text>
<g class="stroked-text"><desc>2</desc>
<path d="M85.3478 10.4173
L85.4097 10.3554
" />
<path d="M85.4097 10.3554
L85.5335 10.2935
" />
<path d="M85.5335 10.2935
L85.8430 10.2935
" />
<path d="M85.8430 10.2935
L85.9668 10.3554
" />
<path d="M85.9668 10.3554
L86.0287 10.4173
" />
<path d="M86.0287 10.4173
L86.0906 10.5411
" />
<path d="M86.0906 10.5411
L86.0906 10.6649
" />
<path d="M86.0906 10.6649
L86.0287 10.8506
" />
<path d="M86.0287 10.8506
L85.2859 11.5935
" />
<path d="M85.2859 11.5935
L86.0906 11.5935
" />
</g><text x="135.0000" y="11.6500"
textLength="1.4353" font-size="1.7333" lengthAdjust="spacingAndGlyphs"
text-anchor="start" opacity="0" stroke-opacity="0">3</text>
<g class="stroked-text"><desc>3</desc>
<path d="M135.2859 10.2935
L136.0906 10.2935
" />
<path d="M136.0906 10.2935
L135.6573 10.7887
" />
<path d="M135.6573 10.7887
L135.8430 10.7887
" />
<path d="M135.8430 10.7887
L135.9668 10.8506
" />
<path d="M135.9668 10.8506
L136.0287 10.9125
" />
<path d="M136.0287 10.9125
L136.0906 11.0363
" />
<path d="M136.0906 11.0363
L136.0906 11.3458
" />
<path d="M136.0906 11.3458
L136.0287 11.4696
" />
<path d="M136.0287 11.4696
L135.9668 11.5316
" />
<path d="M135.9668 11.5316
L135.8430 11.5935
" />
<path d="M135.8430 11.5935
L135.4716 11.5935
" />
<path d="M135.4716 11.5935
L135.3478 11.5316
" />
<path d="M135.3478 11.5316
L135.2859 11.4696
" />
</g><text x="185.0000" y="11.6500"
textLength="1.4353" font-size="1.7333" lengthAdjust="spacingAndGlyphs"
text-anchor="start" opacity="0" stroke-opacity="0">4</text>
<g class="stroked-text"><desc>4</desc>
<path d="M185.9668 10.7268
L185.9668 11.5935
" />
<path d="M185.6573 10.2316
L185.3478 11.1601
" />
<path d="M185.3478 11.1601
L186.1525 11.1601
" />
</g><text x="235.0000" y="11.6500"
textLength="1.4353" font-size="1.7333" lengthAdjust="spacingAndGlyphs"
text-anchor="start" opacity="0" stroke-opacity="0">5</text>
<g class="stroked-text"><desc>5</desc>
<path d="M236.0287 10.2935
L235.4097 10.2935
" />
<path d="M235.4097 10.2935
L235.3478 10.9125
" />
<path d="M235.3478 10.9125
L235.4097 10.8506
" />
<path d="M235.4097 10.8506
L235.5335 10.7887
" />
<path d="M235.5335 10.7887
L235.8430 10.7887
" />
<path d="M235.8430 10.7887
L235.9668 10.8506
" />
<path d="M235.9668 10.8506
L236.0287 10.9125
" />
<path d="M236.0287 10.9125
L236.0906 11.0363
" />
<path d="M236.0906 11.0363
L236.0906 11.3458
" />
<path d="M236.0906 11.3458
L236.0287 11.4696
" />
<path d="M236.0287 11.4696
L235.9668 11.5316
" />
<path d="M235.9668 11.5316
L235.8430 11.5935
" />
<path d="M235.8430 11.5935
L235.5335 11.5935
" />
<path d="M235.5335 11.5935
L235.4097 11.5316
" />
<path d="M235.4097 11.5316
L235.3478 11.4696
" />
</g><text x="285.0000" y="11.6500"
textLength="1.4353" font-size="1.7333" lengthAdjust="spacingAndGlyphs"
text-anchor="start" opacity="0" stroke-opacity="0">6</text>
<g class="stroked-text"><desc>6</desc>
<path d="M285.9668 10.2935
L285.7192 10.2935
" />
<path d="M285.7192 10.2935
L285.5954 10.3554
" />
<path d="M285.5954 10.3554
L285.5335 10.4173
" />
<path d="M285.5335 10.4173
L285.4097 10.6030
" />
<path d="M285.4097 10.6030
L285.3478 10.8506
" />
<path d="M285.3478 10.8506
L285.3478 11.3458
" />
<path d="M285.3478 11.3458
L285.4097 11.4696
" />
<path d="M285.4097 11.4696
L285.4716 11.5316
" />
<path d="M285.4716 11.5316
L285.5954 11.5935
" />
<path d="M285.5954 11.5935
L285.8430 11.5935
" />
<path d="M285.8430 11.5935
L285.9668 11.5316
" />
<path d="M285.9668 11.5316
L286.0287 11.4696
" />
<path d="M286.0287 11.4696
L286.0906 11.3458
" />
<path d="M286.0906 11.3458
L286.0906 11.0363
" />
<path d="M286.0906 11.0363
L286.0287 10.9125
" />
<path d="M286.0287 10.9125
L285.9668 10.8506
" />
<path d="M285.9668 10.8506
L285.8430 10.7887
" />
<path d="M285.8430 10.7887
L285.5954 10.7887
" />
<path d="M285.5954 10.7887
L285.4716 10.8506
" />
<path d="M285.4716 10.8506
L285.4097 10.9125
" />
<path d="M285.4097 10.9125
L285.3478 11.0363
" />
</g><path d="M60.0000 198.0072
L60.0000 200.0072
" />
<path d="M110.0000 198.0072
L110.0000 200.0072
" />
<path d="M160.0000 198.0072
L160.0000 200.0072
" />
<path d="M210.0000 198.0072
L210.0000 200.0072
" />
<path d="M260.0000 198.0072
L260.0000 200.0072
" />
<text x="35.0000" y="199.6572"
textLength="1.4353" font-size="1.7333" lengthAdjust="spacingAndGlyphs"
text-anchor="start" opacity="0" stroke-opacity="0">1</text>
<g class="stroked-text"><desc>1</desc>
<path d="M36.0906 199.6007
L35.3478 199.6007
" />
<path d="M35.7192 199.6007
L35.7192 198.3007
" />
<path d="M35.7192 198.3007
L35.5954 198.4864
" />
<path d="M35.5954 198.4864
L35.4716 198.6102
" />
<path d="M35.4716 198.6102
L35.3478 198.6721
" />
</g><text x="85.0000" y="199.6572"
textLength="1.4353" font-size="1.7333" lengthAdjust="spacingAndGlyphs"
text-anchor="start" opacity="0" stroke-opacity="0">2</text>
<g class="stroked-text"><desc>2</desc>
<path d="M85.3478 198.4245
L85.4097 198.3626
" />
<path d="M85.4097 198.3626
L85.5335 198.3007
" />
<path d="M85.5335 198.3007
L85.8430 198.3007
" />
<path d="M85.8430 198.3007
L85.9668 198.3626
" />
<path d="M85.9668 198.3626
L86.0287 198.4245
" />
<path d="M86.0287 198.4245
L86.0906 198.5483
" />
<path d="M86.0906 198.5483
L86.0906 198.6721
" />
<path d="M86.0906 198.6721
L86.0287 198.8578
" />
<path d="M86.0287 198.8578
L85.2859 199.6007
" />
<path d="M85.2859 199.6007
L86.0906 199.6007
" />
</g><text x="135.0000" y="199.6572"
textLength="1.4353" font-size="1.7333" lengthAdjust="spacingAndGlyphs"
text-anchor="start" opacity="0" stroke-opacity="0">3</text>
<g class="stroked-text"><desc>3</desc>
<path d="M135.2859 198.3007
L136.0906 198.3007
" />
<path d="M136.0906 198.3007
L135.6573 198.7959
" />
<path d="M135.6573 198.7959
L135.8430 198.7959
" />
<path d="M135.8430 198.7959
L135.9668 198.8578
" />
<path d="M135.9668 198.8578
L136.0287 198.9197
" />
<path d="M136.0287 198.9197
L136.0906 199.0435
" />
<path d="M136.0906 199.0435
L136.0906 199.3530
" />
<path d="M136.0906 199.3530
L136.0287 199.4768
" />
<path d="M136.0287 199.4768
L135.9668 199.5388
" />
<path d="M135.9668 199.5388
L135.8430 199.6007
" />
<path d="M135.8430 199.6007
L135.4716 199.6007
" />
<path d="M135.4716 199.6007
L135.3478 199.5388
" />
<path d="M135.3478 199.5388
L135.2859 199.4768
" />
</g><text x="185.0000" y="199.6572"
textLength="1.4353" font-size="1.7333" lengthAdjust="spacingAndGlyphs"
text-anchor="start" opacity="0" stroke-opacity="0">4</text>
<g class="stroked-text"><desc>4</desc>
<path d="M185.9668 198.7340
L185.9668 199.6007
" />
<path d="M185.6573 198.2388
L185.3478 199.1673
" />
<path d="M185.3478 199.1673
L186.1525 199.1673
" />
</g><text x="235.0000" y="199.6572"
textLength="1.4353" font-size="1.7333" lengthAdjust="spacingAndGlyphs"
text-anchor="start" opacity="0" stroke-opacity="0">5</text>
<g class="stroked-text"><desc>5</desc>
<path d="M236.0287 198.3007
L235.4097 198.3007
" />
<path d="M235.4097 198.3007
L235.3478 198.9197
" />
<path d="M235.3478 198.9197
L235.4097 198.8578
" />
<path d="M235.4097 198.8578
L235.5335 198.7959
" />
<path d="M235.5335 198.7959
L235.8430 198.7959
" />
<path d="M235.8430 198.7959
L235.9668 198.8578
" />
<path d="M235.9668 198.8578
L236.0287 198.9197
" />
<path d="M236.0287 198.9197
L236.0906 199.0435
" />
<path d="M236.0906 199.0435
L236.0906 199.3530
" />
<path d="M236.0906 199.3530
L236.0287 199.4768
" />
<path d="M236.0287 199.4768
L235.9668 199.5388
" />
<path d="M235.9668 199.5388
L235.8430 199.6007
" />
<path d="M235.8430 199.6007
L235.5335 199.6007
" />
<path d="M235.5335 199.6007
L235.4097 199.5388
" />
<path d="M235.4097 199.5388
L235.3478 199.4768
" />
</g><text x="285.0000" y="199.6572"
textLength="1.4353" font-size="1.7333" lengthAdjust="spacingAndGlyphs"
text-anchor="start" opacity="0" stroke-opacity="0">6</text>
<g class="stroked-text"><desc>6</desc>
<path d="M285.9668 198.3007
L285.7192 198.3007
" />
<path d="M285.7192 198.3007
L285.5954 198.3626
" />
<path d="M285.5954 198.3626
L285.5335 198.4245
" />
<path d="M285.5335 198.4245
L285.4097 198.6102
" />
<path d="M285.4097 198.6102
L285.3478 198.8578
" />
<path d="M285.3478 198.8578
L285.3478 199.3530
" />
<path d="M285.3478 199.3530
L285.4097 199.4768
" />
<path d="M285.4097 199.4768
L285.4716 199.5388
" />
<path d="M285.4716 199.5388
L285.5954 199.6007
" />
<path d="M285.5954 199.6007
L285.8430 199.6007
" />
<path d="M285.8430 199.6007
L285.9668 199.5388
" />
<path d="M285.9668 199.5388
L286.0287 199.4768
" />
<path d="M286.0287 199.4768
L286.0906 199.3530
" />
<path d="M286.0906 199.3530
L286.0906 199.0435
" />
<path d="M286.0906 199.0435
L286.0287 198.9197
" />
<path d="M286.0287 198.9197
L285.9668 198.8578
" />
<path d="M285.9668 198.8578
L285.8430 198.7959
" />
<path d="M285.8430 198.7959
L285.5954 198.7959
" />
<path d="M285.5954 198.7959
L285.4716 198.8578
" />
<path d="M285.4716 198.8578
L285.4097 198.9197
" />
<path d="M285.4097 198.9197
L285.3478 199.0435
" />
</g><path d="M10.0000 60.0000
L12.0000 60.0000
" />
<path d="M10.0000 110.0000
L12.0000 110.0000
" />
<path d="M10.0000 160.0000
L12.0000 160.0000
" />
<text x="11.0000" y="35.6500"
textLength="1.3115" font-size="1.7333" lengthAdjust="spacingAndGlyphs"
text-anchor="middle" opacity="0" stroke-opacity="0">A</text>
<g class="stroked-text"><desc>A</desc>
<path d="M10.6905 35.2220
L11.3095 35.2220
" />
<path d="M10.5667 35.5935
L11.0000 34.2935
" />
<path d="M11.0000 34.2935
L11.4333 35.5935
" />
</g><text x="11.0000" y="85.6500"
textLength="1.4972" font-size="1.7333" lengthAdjust="spacingAndGlyphs"
text-anchor="middle" opacity="0" stroke-opacity="0">B</text>
<g class="stroked-text"><desc>B</desc>
<path d="M11.0928 84.9125
L11.2785 84.9744
" />
<path d="M11.2785 84.9744
L11.3404 85.0363
" />
<path d="M11.3404 85.0363
L11.4023 85.1601
" />
<path d="M11.4023 85.1601
L11.4023 85.3458
" />
<path d="M11.4023 85.3458
L11.3404 85.4696
" />
<path d="M11.3404 85.4696
L11.2785 85.5316
" />
<path d="M11.2785 85.5316
L11.1547 85.5935
" />
<path d="M11.1547 85.5935
L10.6595 85.5935
" />
<path d="M10.6595 85.5935
L10.6595 84.2935
" />
<path d="M10.6595 84.2935
L11.0928 84.2935
" />
<path d="M11.0928 84.2935
L11.2166 84.3554
" />
<path d="M11.2166 84.3554
L11.2785 84.4173
" />
<path d="M11.2785 84.4173
L11.3404 84.5411
" />
<path d="M11.3404 84.5411
L11.3404 84.6649
" />
<path d="M11.3404 84.6649
L11.2785 84.7887
" />
<path d="M11.2785 84.7887
L11.2166 84.8506
" />
<path d="M11.2166 84.8506
L11.0928 84.9125
" />
<path d="M11.0928 84.9125
L10.6595 84.9125
" />
</g><text x="11.0000" y="135.6500"
textLength="1.4972" font-size="1.7333" lengthAdjust="spacingAndGlyphs"
text-anchor="middle" opacity="0" stroke-opacity="0">C</text>
<g class="stroked-text"><desc>C</desc>
<path d="M11.4023 135.4696
L11.3404 135.5316
" />
<path d="M11.3404 135.5316
L11.1547 135.5935
" />
<path d="M11.1547 135.5935
L11.0309 135.5935
" />
<path d="M11.0309 135.5935
L10.8452 135.5316
" />
<path d="M10.8452 135.5316
L10.7214 135.4077
" />
<path d="M10.7214 135.4077
L10.6595 135.2839
" />
<path d="M10.6595 135.2839
L10.5976 135.0363
" />
<path d="M10.5976 135.0363
L10.5976 134.8506
" />
<path d="M10.5976 134.8506
L10.6595 134.6030
" />
<path d="M10.6595 134.6030
L10.7214 134.4792
" />
<path d="M10.7214 134.4792
L10.8452 134.3554
" />
<path d="M10.8452 134.3554
L11.0309 134.2935
" />
<path d="M11.0309 134.2935
L11.1547 134.2935
" />
<path d="M11.1547 134.2935
L11.3404 134.3554
" />
<path d="M11.3404 134.3554
L11.4023 134.4173
" />
</g><text x="11.0000" y="185.6500"
textLength="1.4972" font-size="1.7333" lengthAdjust="spacingAndGlyphs"
text-anchor="middle" opacity="0" stroke-opacity="0">D</text>
<g class="stroked-text"><desc>D</desc>
<path d="M10.6595 185.5935
L10.6595 184.2935
" />
<path d="M10.6595 184.2935
L10.9690 184.2935
" />
<path d="M10.9690 184.2935
L11.1547 184.3554
" />
<path d="M11.1547 184.3554
L11.2785 184.4792
" />
<path d="M11.2785 184.4792
L11.3404 184.6030
" />
<path d="M11.3404 184.6030
L11.4023 184.8506
" />
<path d="M11.4023 184.8506
L11.4023 185.0363
" />
<path d="M11.4023 185.0363
L11.3404 185.2839
" />
<path d="M11.3404 185.2839
L11.2785 185.4077
" />
<path d="M11.2785 185.4077
L11.1547 185.5316
" />
<path d="M11.1547 185.5316
L10.9690 185.5935
" />
<path d="M10.9690 185.5935
L10.6595 185.5935
" />
</g><path d="M287.0022 60.0000
L285.0022 60.0000
" />
<path d="M287.0022 110.0000
L285.0022 110.0000
" />
<path d="M287.0022 160.0000
L285.0022 160.0000
" />
<text x="286.0022" y="35.6500"
textLength="1.3115" font-size="1.7333" lengthAdjust="spacingAndGlyphs"
text-anchor="middle" opacity="0" stroke-opacity="0">A</text>
<g class="stroked-text"><desc>A</desc>
<path d="M285.6927 35.2220
L286.3117 35.2220
" />
<path d="M285.5689 35.5935
L286.0022 34.2935
" />
<path d="M286.0022 34.2935
L286.4355 35.5935
" />
</g><text x="286.0022" y="85.6500"
textLength="1.4972" font-size="1.7333" lengthAdjust="spacingAndGlyphs"
text-anchor="middle" opacity="0" stroke-opacity="0">B</text>
<g class="stroked-text"><desc>B</desc>
<path d="M286.0950 84.9125
L286.2807 84.9744
" />
<path d="M286.2807 84.9744
L286.3426 85.0363
" />
<path d="M286.3426 85.0363
L286.4045 85.1601
" />
<path d="M286.4045 85.1601
L286.4045 85.3458
" />
<path d="M286.4045 85.3458
L286.3426 85.4696
" />
<path d="M286.3426 85.4696
L286.2807 85.5316
" />
<path d="M286.2807 85.5316
L286.1569 85.5935
" />
<path d="M286.1569 85.5935
L285.6617 85.5935
" />
<path d="M285.6617 85.5935
L285.6617 84.2935
" />
<path d="M285.6617 84.2935
L286.0950 84.2935
" />
<path d="M286.0950 84.2935
L286.2188 84.3554
" />
<path d="M286.2188 84.3554
L286.2807 84.4173
" />
<path d="M286.2807 84.4173
L286.3426 84.5411
" />
<path d="M286.3426 84.5411
L286.3426 84.6649
" />
<path d="M286.3426 84.6649
L286.2807 84.7887
" />
<path d="M286.2807 84.7887
L286.2188 84.8506
" />
<path d="M286.2188 84.8506
L286.0950 84.9125
" />
<path d="M286.0950 84.9125
L285.6617 84.9125
" />
</g><text x="286.0022" y="135.6500"
textLength="1.4972" font-size="1.7333" lengthAdjust="spacingAndGlyphs"
text-anchor="middle" opacity="0" stroke-opacity="0">C</text>
<g class="stroked-text"><desc>C</desc>
<path d="M286.4045 135.4696
L286.3426 135.5316
" />
<path d="M286.3426 135.5316
L286.1569 135.5935
" />
<path d="M286.1569 135.5935
L286.0331 135.5935
" />
<path d="M286.0331 135.5935
L285.8474 135.5316
" />
<path d="M285.8474 135.5316
L285.7236 135.4077
" />
<path d="M285.7236 135.4077
L285.6617 135.2839
" />
<path d="M285.6617 135.2839
L285.5998 135.0363
" />
<path d="M285.5998 135.0363
L285.5998 134.8506
" />
<path d="M285.5998 134.8506
L285.6617 134.6030
" />
<path d="M285.6617 134.6030
L285.7236 134.4792
" />
<path d="M285.7236 134.4792
L285.8474 134.3554
" />
<path d="M285.8474 134.3554
L286.0331 134.2935
" />
<path d="M286.0331 134.2935
L286.1569 134.2935
" />
<path d="M286.1569 134.2935
L286.3426 134.3554
" />
<path d="M286.3426 134.3554
L286.4045 134.4173
" />
</g><text x="286.0022" y="185.6500"
textLength="1.4972" font-size="1.7333" lengthAdjust="spacingAndGlyphs"
text-anchor="middle" opacity="0" stroke-opacity="0">D</text>
<g class="stroked-text"><desc>D</desc>
<path d="M285.6617 185.5935
L285.6617 184.2935
" />
<path d="M285.6617 184.2935
L285.9712 184.2935
" />
<path d="M285.9712 184.2935
L286.1569 184.3554
" />
<path d="M286.1569 184.3554
L286.2807 184.4792
" />
<path d="M286.2807 184.4792
L286.3426 184.6030
" />
<path d="M286.3426 184.6030
L286.4045 184.8506
" />
<path d="M286.4045 184.8506
L286.4045 185.0363
" />
<path d="M286.4045 185.0363
L286.3426 185.2839
" />
<path d="M286.3426 185.2839
L286.2807 185.4077
" />
<path d="M286.2807 185.4077
L286.1569 185.5316
" />
<path d="M286.1569 185.5316
L285.9712 185.5935
" />
<path d="M285.9712 185.5935
L285.6617 185.5935
" />
</g><text x="200.0022" y="193.8572"
textLength="7.0143" font-size="2.0000" lengthAdjust="spacingAndGlyphs"
text-anchor="start" opacity="0" stroke-opacity="0">Date: </text>
<g class="stroked-text"><desc>Date: </desc>
<path d="M200.4595 193.7931
L200.4595 192.2931
" />
<path d="M200.4595 192.2931
L200.8166 192.2931
" />
<path d="M200.8166 192.2931
L201.0309 192.3645
" />
<path d="M201.0309 192.3645
L201.1738 192.5074
" />
<path d="M201.1738 192.5074
L201.2452 192.6502
" />
<path d="M201.2452 192.6502
L201.3166 192.9359
" />
<path d="M201.3166 192.9359
L201.3166 193.1502
" />
<path d="M201.3166 193.1502
L201.2452 193.4359
" />
<path d="M201.2452 193.4359
L201.1738 193.5788
" />
<path d="M201.1738 193.5788
L201.0309 193.7217
" />
<path d="M201.0309 193.7217
L200.8166 193.7931
" />
<path d="M200.8166 193.7931
L200.4595 193.7931
" />
<path d="M202.6024 193.7931
L202.6024 193.0074
" />
<path d="M202.6024 193.0074
L202.5309 192.8645
" />
<path d="M202.5309 192.8645
L202.3881 192.7931
" />
<path d="M202.3881 192.7931
L202.1024 192.7931
" />
<path d="M202.1024 192.7931
L201.9595 192.8645
" />
<path d="M202.6024 193.7217
L202.4595 193.7931
" />
<path d="M202.4595 193.7931
L202.1024 193.7931
" />
<path d="M202.1024 193.7931
L201.9595 193.7217
" />
<path d="M201.9595 193.7217
L201.8881 193.5788
" />
<path d="M201.8881 193.5788
L201.8881 193.4359
" />
<path d="M201.8881 193.4359
L201.9595 193.2931
" />
<path d="M201.9595 193.2931
L202.1024 193.2217
" />
<path d="M202.1024 193.2217
L202.4595 193.2217
" />
<path d="M202.4595 193.2217
L202.6024 193.1502
" />
<path d="M203.1023 192.7931
L203.6737 192.7931
" />
<path d="M203.3166 192.2931
L203.3166 193.5788
" />
<path d="M203.3166 193.5788
L203.3880 193.7217
" />
<path d="M203.3880 193.7217
L203.5309 193.7931
" />
<path d="M203.5309 193.7931
L203.6737 193.7931
" />
<path d="M204.7451 193.7217
L204.6023 193.7931
" />
<path d="M204.6023 193.7931
L204.3166 193.7931
" />
<path d="M204.3166 193.7931
L204.1737 193.7217
" />
<path d="M204.1737 193.7217
L204.1023 193.5788
" />
<path d="M204.1023 193.5788
L204.1023 193.0074
" />
<path d="M204.1023 193.0074
L204.1737 192.8645
" />
<path d="M204.1737 192.8645
L204.3166 192.7931
" />
<path d="M204.3166 192.7931
L204.6023 192.7931
" />
<path d="M204.6023 192.7931
L204.7451 192.8645
" />
<path d="M204.7451 192.8645
L204.8166 193.0074
" />
<path d="M204.8166 193.0074
L204.8166 193.1502
" />
<path d="M204.8166 193.1502
L204.1023 193.2931
" />
<path d="M205.4594 193.6502
L205.5308 193.7217
" />
<path d="M205.5308 193.7217
L205.4594 193.7931
" />
<path d="M205.4594 193.7931
L205.3880 193.7217
" />
<path d="M205.3880 193.7217
L205.4594 193.6502
" />
<path d="M205.4594 193.6502
L205.4594 193.7931
" />
<path d="M205.4594 192.8645
L205.5308 192.9359
" />
<path d="M205.5308 192.9359
L205.4594 193.0074
" />
<path d="M205.4594 193.0074
L205.3880 192.9359
" />
<path d="M205.3880 192.9359
L205.4594 192.8645
" />
<path d="M205.4594 192.8645
L205.4594 193.0074
" />
</g><path d="M177.0022 194.5072
L285.0022 194.5072
" />
<text x="178.0022" y="196.6572"
textLength="20.8716" font-size="2.0000" lengthAdjust="spacingAndGlyphs"
text-anchor="start" opacity="0" stroke-opacity="0">KiCad E.D.A. 9.0.3</text>
<g class="stroked-text"><desc>KiCad E.D.A. 9.0.3</desc>
<path d="M178.4595 196.5931
L178.4595 195.0931
" />
<path d="M179.3166 196.5931
L178.6738 195.7359
" />
<path d="M179.3166 195.0931
L178.4595 195.9502
" />
<path d="M179.9595 196.5931
L179.9595 195.5931
" />
<path d="M179.9595 195.0931
L179.8881 195.1645
" />
<path d="M179.8881 195.1645
L179.9595 195.2359
" />
<path d="M179.9595 195.2359
L180.0309 195.1645
" />
<path d="M180.0309 195.1645
L179.9595 195.0931
" />
<path d="M179.9595 195.0931
L179.9595 195.2359
" />
<path d="M181.5309 196.4502
L181.4595 196.5217
" />
<path d="M181.4595 196.5217
L181.2452 196.5931
" />
<path d="M181.2452 196.5931
L181.1024 196.5931
" />
<path d="M181.1024 196.5931
L180.8881 196.5217
" />
<path d="M180.8881 196.5217
L180.7452 196.3788
" />
<path d="M180.7452 196.3788
L180.6738 196.2359
" />
<path d="M180.6738 196.2359
L180.6024 195.9502
" />
<path d="M180.6024 195.9502
L180.6024 195.7359
" />
<path d="M180.6024 195.7359
L180.6738 195.4502
" />
<path d="M180.6738 195.4502
L180.7452 195.3074
" />
<path d="M180.7452 195.3074
L180.8881 195.1645
" />
<path d="M180.8881 195.1645
L181.1024 195.0931
" />
<path d="M181.1024 195.0931
L181.2452 195.0931
" />
<path d="M181.2452 195.0931
L181.4595 195.1645
" />
<path d="M181.4595 195.1645
L181.5309 195.2359
" />
<path d="M182.8167 196.5931
L182.8167 195.8074
" />
<path d="M182.8167 195.8074
L182.7452 195.6645
" />
<path d="M182.7452 195.6645
L182.6024 195.5931
" />
<path d="M182.6024 195.5931
L182.3167 195.5931
" />
<path d="M182.3167 195.5931
L182.1738 195.6645
" />
<path d="M182.8167 196.5217
L182.6738 196.5931
" />
<path d="M182.6738 196.5931
L182.3167 196.5931
" />
<path d="M182.3167 196.5931
L182.1738 196.5217
" />
<path d="M182.1738 196.5217
L182.1024 196.3788
" />
<path d="M182.1024 196.3788
L182.1024 196.2359
" />
<path d="M182.1024 196.2359
L182.1738 196.0931
" />
<path d="M182.1738 196.0931
L182.3167 196.0217
" />
<path d="M182.3167 196.0217
L182.6738 196.0217
" />
<path d="M182.6738 196.0217
L182.8167 195.9502
" />
<path d="M184.1738 196.5931
L184.1738 195.0931
" />
<path d="M184.1738 196.5217
L184.0309 196.5931
" />
<path d="M184.0309 196.5931
L183.7452 196.5931
" />
<path d="M183.7452 196.5931
L183.6023 196.5217
" />
<path d="M183.6023 196.5217
L183.5309 196.4502
" />
<path d="M183.5309 196.4502
L183.4595 196.3074
" />
<path d="M183.4595 196.3074
L183.4595 195.8788
" />
<path d="M183.4595 195.8788
L183.5309 195.7359
" />
<path d="M183.5309 195.7359
L183.6023 195.6645
" />
<path d="M183.6023 195.6645
L183.7452 195.5931
" />
<path d="M183.7452 195.5931
L184.0309 195.5931
" />
<path d="M184.0309 195.5931
L184.1738 195.6645
" />
<path d="M186.0309 195.8074
L186.5309 195.8074
" />
<path d="M186.7452 196.5931
L186.0309 196.5931
" />
<path d="M186.0309 196.5931
L186.0309 195.0931
" />
<path d="M186.0309 195.0931
L186.7452 195.0931
" />
<path d="M187.3880 196.4502
L187.4594 196.5217
" />
<path d="M187.4594 196.5217
L187.3880 196.5931
" />
<path d="M187.3880 196.5931
L187.3166 196.5217
" />
<path d="M187.3166 196.5217
L187.3880 196.4502
" />
<path d="M187.3880 196.4502
L187.3880 196.5931
" />
<path d="M188.1023 196.5931
L188.1023 195.0931
" />
<path d="M188.1023 195.0931
L188.4594 195.0931
" />
<path d="M188.4594 195.0931
L188.6737 195.1645
" />
<path d="M188.6737 195.1645
L188.8166 195.3074
" />
<path d="M188.8166 195.3074
L188.8880 195.4502
" />
<path d="M188.8880 195.4502
L188.9594 195.7359
" />
<path d="M188.9594 195.7359
L188.9594 195.9502
" />
<path d="M188.9594 195.9502
L188.8880 196.2359
" />
<path d="M188.8880 196.2359
L188.8166 196.3788
" />
<path d="M188.8166 196.3788
L188.6737 196.5217
" />
<path d="M188.6737 196.5217
L188.4594 196.5931
" />
<path d="M188.4594 196.5931
L188.1023 196.5931
" />
<path d="M189.6023 196.4502
L189.6737 196.5217
" />
<path d="M189.6737 196.5217
L189.6023 196.5931
" />
<path d="M189.6023 196.5931
L189.5309 196.5217
" />
<path d="M189.5309 196.5217
L189.6023 196.4502
" />
<path d="M189.6023 196.4502
L189.6023 196.5931
" />
<path d="M190.2452 196.1645
L190.9595 196.1645
" />
<path d="M190.1023 196.5931
L190.6023 195.0931
" />
<path d="M190.6023 195.0931
L191.1023 196.5931
" />
<path d="M191.6023 196.4502
L191.6737 196.5217
" />
<path d="M191.6737 196.5217
L191.6023 196.5931
" />
<path d="M191.6023 196.5931
L191.5309 196.5217
" />
<path d="M191.5309 196.5217
L191.6023 196.4502
" />
<path d="M191.6023 196.4502
L191.6023 196.5931
" />
<path d="M193.5309 196.5931
L193.8166 196.5931
" />
<path d="M193.8166 196.5931
L193.9595 196.5217
" />
<path d="M193.9595 196.5217
L194.0309 196.4502
" />
<path d="M194.0309 196.4502
L194.1738 196.2359
" />
<path d="M194.1738 196.2359
L194.2452 195.9502
" />
<path d="M194.2452 195.9502
L194.2452 195.3788
" />
<path d="M194.2452 195.3788
L194.1738 195.2359
" />
<path d="M194.1738 195.2359
L194.1024 195.1645
" />
<path d="M194.1024 195.1645
L193.9595 195.0931
" />
<path d="M193.9595 195.0931
L193.6738 195.0931
" />
<path d="M193.6738 195.0931
L193.5309 195.1645
" />
<path d="M193.5309 195.1645
L193.4595 195.2359
" />
<path d="M193.4595 195.2359
L193.3881 195.3788
" />
<path d="M193.3881 195.3788
L193.3881 195.7359
" />
<path d="M193.3881 195.7359
L193.4595 195.8788
" />
<path d="M193.4595 195.8788
L193.5309 195.9502
" />
<path d="M193.5309 195.9502
L193.6738 196.0217
" />
<path d="M193.6738 196.0217
L193.9595 196.0217
" />
<path d="M193.9595 196.0217
L194.1024 195.9502
" />
<path d="M194.1024 195.9502
L194.1738 195.8788
" />
<path d="M194.1738 195.8788
L194.2452 195.7359
" />
<path d="M194.8881 196.4502
L194.9595 196.5217
" />
<path d="M194.9595 196.5217
L194.8881 196.5931
" />
<path d="M194.8881 196.5931
L194.8167 196.5217
" />
<path d="M194.8167 196.5217
L194.8881 196.4502
" />
<path d="M194.8881 196.4502
L194.8881 196.5931
" />
<path d="M195.8881 195.0931
L196.0310 195.0931
" />
<path d="M196.0310 195.0931
L196.1738 195.1645
" />
<path d="M196.1738 195.1645
L196.2453 195.2359
" />
<path d="M196.2453 195.2359
L196.3167 195.3788
" />
<path d="M196.3167 195.3788
L196.3881 195.6645
" />
<path d="M196.3881 195.6645
L196.3881 196.0217
" />
<path d="M196.3881 196.0217
L196.3167 196.3074
" />
<path d="M196.3167 196.3074
L196.2453 196.4502
" />
<path d="M196.2453 196.4502
L196.1738 196.5217
" />
<path d="M196.1738 196.5217
L196.0310 196.5931
" />
<path d="M196.0310 196.5931
L195.8881 196.5931
" />
<path d="M195.8881 196.5931
L195.7453 196.5217
" />
<path d="M195.7453 196.5217
L195.6738 196.4502
" />
<path d="M195.6738 196.4502
L195.6024 196.3074
" />
<path d="M195.6024 196.3074
L195.5310 196.0217
" />
<path d="M195.5310 196.0217
L195.5310 195.6645
" />
<path d="M195.5310 195.6645
L195.6024 195.3788
" />
<path d="M195.6024 195.3788
L195.6738 195.2359
" />
<path d="M195.6738 195.2359
L195.7453 195.1645
" />
<path d="M195.7453 195.1645
L195.8881 195.0931
" />
<path d="M197.0310 196.4502
L197.1024 196.5217
" />
<path d="M197.1024 196.5217
L197.0310 196.5931
" />
<path d="M197.0310 196.5931
L196.9596 196.5217
" />
<path d="M196.9596 196.5217
L197.0310 196.4502
" />
<path d="M197.0310 196.4502
L197.0310 196.5931
" />
<path d="M197.6024 195.0931
L198.5310 195.0931
" />
<path d="M198.5310 195.0931
L198.0310 195.6645
" />
<path d="M198.0310 195.6645
L198.2453 195.6645
" />
<path d="M198.2453 195.6645
L198.3882 195.7359
" />
<path d="M198.3882 195.7359
L198.4596 195.8074
" />
<path d="M198.4596 195.8074
L198.5310 195.9502
" />
<path d="M198.5310 195.9502
L198.5310 196.3074
" />
<path d="M198.5310 196.3074
L198.4596 196.4502
" />
<path d="M198.4596 196.4502
L198.3882 196.5217
" />
<path d="M198.3882 196.5217
L198.2453 196.5931
" />
<path d="M198.2453 196.5931
L197.8167 196.5931
" />
<path d="M197.8167 196.5931
L197.6739 196.5217
" />
<path d="M197.6739 196.5217
L197.6024 196.4502
" />
</g><path d="M177.0022 191.5072
L285.0022 191.5072
" />
</g>
<g style="fill:none; 
stroke:#840000; stroke-width:0.3000; stroke-opacity:1; 
stroke-linecap:round; stroke-linejoin:round;">
<text x="263.0022" y="193.8572"
textLength="6.3858" font-size="2.0000" lengthAdjust="spacingAndGlyphs"
text-anchor="start" opacity="0" stroke-opacity="0">Rev: </text>
<g class="stroked-text"><desc>Rev: </desc>
<path d="M264.4137 193.7855
L263.9137 193.0712
" />
<path d="M263.5566 193.7855
L263.5566 192.2855
" />
<path d="M263.5566 192.2855
L264.1280 192.2855
" />
<path d="M264.1280 192.2855
L264.2709 192.3569
" />
<path d="M264.2709 192.3569
L264.3423 192.4283
" />
<path d="M264.3423 192.4283
L264.4137 192.5712
" />
<path d="M264.4137 192.5712
L264.4137 192.7855
" />
<path d="M264.4137 192.7855
L264.3423 192.9283
" />
<path d="M264.3423 192.9283
L264.2709 192.9998
" />
<path d="M264.2709 192.9998
L264.1280 193.0712
" />
<path d="M264.1280 193.0712
L263.5566 193.0712
" />
<path d="M265.6280 193.7141
L265.4852 193.7855
" />
<path d="M265.4852 193.7855
L265.1995 193.7855
" />
<path d="M265.1995 193.7855
L265.0566 193.7141
" />
<path d="M265.0566 193.7141
L264.9852 193.5712
" />
<path d="M264.9852 193.5712
L264.9852 192.9998
" />
<path d="M264.9852 192.9998
L265.0566 192.8569
" />
<path d="M265.0566 192.8569
L265.1995 192.7855
" />
<path d="M265.1995 192.7855
L265.4852 192.7855
" />
<path d="M265.4852 192.7855
L265.6280 192.8569
" />
<path d="M265.6280 192.8569
L265.6995 192.9998
" />
<path d="M265.6995 192.9998
L265.6995 193.1426
" />
<path d="M265.6995 193.1426
L264.9852 193.2855
" />
<path d="M266.1994 192.7855
L266.5566 193.7855
" />
<path d="M266.5566 193.7855
L266.9137 192.7855
" />
<path d="M267.4852 193.6426
L267.5566 193.7141
" />
<path d="M267.5566 193.7141
L267.4852 193.7855
" />
<path d="M267.4852 193.7855
L267.4138 193.7141
" />
<path d="M267.4138 193.7141
L267.4852 193.6426
" />
<path d="M267.4852 193.6426
L267.4852 193.7855
" />
<path d="M267.4852 192.8569
L267.5566 192.9283
" />
<path d="M267.5566 192.9283
L267.4852 192.9998
" />
<path d="M267.4852 192.9998
L267.4138 192.9283
" />
<path d="M267.4138 192.9283
L267.4852 192.8569
" />
<path d="M267.4852 192.8569
L267.4852 192.9998
" />
</g></g>
<g style="fill:none; 
stroke:#840000; stroke-width:0.1524; stroke-opacity:1; 
stroke-linecap:round; stroke-linejoin:round;">
<text x="178.0022" y="193.8572"
textLength="9.3716" font-size="2.0000" lengthAdjust="spacingAndGlyphs"
text-anchor="start" opacity="0" stroke-opacity="0">Size: A4</text>
<g class="stroked-text"><desc>Size: A4</desc>
<path d="M178.3881 193.7217
L178.6024 193.7931
" />
<path d="M178.6024 193.7931
L178.9595 193.7931
" />
<path d="M178.9595 193.7931
L179.1024 193.7217
" />
<path d="M179.1024 193.7217
L179.1738 193.6502
" />
<path d="M179.1738 193.6502
L179.2452 193.5074
" />
<path d="M179.2452 193.5074
L179.2452 193.3645
" />
<path d="M179.2452 193.3645
L179.1738 193.2217
" />
<path d="M179.1738 193.2217
L179.1024 193.1502
" />
<path d="M179.1024 193.1502
L178.9595 193.0788
" />
<path d="M178.9595 193.0788
L178.6738 193.0074
" />
<path d="M178.6738 193.0074
L178.5309 192.9359
" />
<path d="M178.5309 192.9359
L178.4595 192.8645
" />
<path d="M178.4595 192.8645
L178.3881 192.7217
" />
<path d="M178.3881 192.7217
L178.3881 192.5788
" />
<path d="M178.3881 192.5788
L178.4595 192.4359
" />
<path d="M178.4595 192.4359
L178.5309 192.3645
" />
<path d="M178.5309 192.3645
L178.6738 192.2931
" />
<path d="M178.6738 192.2931
L179.0309 192.2931
" />
<path d="M179.0309 192.2931
L179.2452 192.3645
" />
<path d="M179.8881 193.7931
L179.8881 192.7931
" />
<path d="M179.8881 192.2931
L179.8167 192.3645
" />
<path d="M179.8167 192.3645
L179.8881 192.4359
" />
<path d="M179.8881 192.4359
L179.9595 192.3645
" />
<path d="M179.9595 192.3645
L179.8881 192.2931
" />
<path d="M179.8881 192.2931
L179.8881 192.4359
" />
<path d="M180.4595 192.7931
L181.2453 192.7931
" />
<path d="M181.2453 192.7931
L180.4595 193.7931
" />
<path d="M180.4595 193.7931
L181.2453 193.7931
" />
<path d="M182.3881 193.7217
L182.2453 193.7931
" />
<path d="M182.2453 193.7931
L181.9596 193.7931
" />
<path d="M181.9596 193.7931
L181.8167 193.7217
" />
<path d="M181.8167 193.7217
L181.7453 193.5788
" />
<path d="M181.7453 193.5788
L181.7453 193.0074
" />
<path d="M181.7453 193.0074
L181.8167 192.8645
" />
<path d="M181.8167 192.8645
L181.9596 192.7931
" />
<path d="M181.9596 192.7931
L182.2453 192.7931
" />
<path d="M182.2453 192.7931
L182.3881 192.8645
" />
<path d="M182.3881 192.8645
L182.4596 193.0074
" />
<path d="M182.4596 193.0074
L182.4596 193.1502
" />
<path d="M182.4596 193.1502
L181.7453 193.2931
" />
<path d="M183.1024 193.6502
L183.1738 193.7217
" />
<path d="M183.1738 193.7217
L183.1024 193.7931
" />
<path d="M183.1024 193.7931
L183.0310 193.7217
" />
<path d="M183.0310 193.7217
L183.1024 193.6502
" />
<path d="M183.1024 193.6502
L183.1024 193.7931
" />
<path d="M183.1024 192.8645
L183.1738 192.9359
" />
<path d="M183.1738 192.9359
L183.1024 193.0074
" />
<path d="M183.1024 193.0074
L183.0310 192.9359
" />
<path d="M183.0310 192.9359
L183.1024 192.8645
" />
<path d="M183.1024 192.8645
L183.1024 193.0074
" />
<path d="M184.8882 193.3645
L185.6025 193.3645
" />
<path d="M184.7453 193.7931
L185.2453 192.2931
" />
<path d="M185.2453 192.2931
L185.7453 193.7931
" />
<path d="M186.8882 192.7931
L186.8882 193.7931
" />
<path d="M186.5310 192.2217
L186.1739 193.2931
" />
<path d="M186.1739 193.2931
L187.1024 193.2931
" />
</g><text x="263.0022" y="196.6572"
textLength="8.5144" font-size="2.0000" lengthAdjust="spacingAndGlyphs"
text-anchor="start" opacity="0" stroke-opacity="0">Id: 1/1</text>
<g class="stroked-text"><desc>Id: 1/1</desc>
<path d="M263.4595 196.5931
L263.4595 195.0931
" />
<path d="M264.8167 196.5931
L264.8167 195.0931
" />
<path d="M264.8167 196.5217
L264.6738 196.5931
" />
<path d="M264.6738 196.5931
L264.3881 196.5931
" />
<path d="M264.3881 196.5931
L264.2452 196.5217
" />
<path d="M264.2452 196.5217
L264.1738 196.4502
" />
<path d="M264.1738 196.4502
L264.1024 196.3074
" />
<path d="M264.1024 196.3074
L264.1024 195.8788
" />
<path d="M264.1024 195.8788
L264.1738 195.7359
" />
<path d="M264.1738 195.7359
L264.2452 195.6645
" />
<path d="M264.2452 195.6645
L264.3881 195.5931
" />
<path d="M264.3881 195.5931
L264.6738 195.5931
" />
<path d="M264.6738 195.5931
L264.8167 195.6645
" />
<path d="M265.5309 196.4502
L265.6023 196.5217
" />
<path d="M265.6023 196.5217
L265.5309 196.5931
" />
<path d="M265.5309 196.5931
L265.4595 196.5217
" />
<path d="M265.4595 196.5217
L265.5309 196.4502
" />
<path d="M265.5309 196.4502
L265.5309 196.5931
" />
<path d="M265.5309 195.6645
L265.6023 195.7359
" />
<path d="M265.6023 195.7359
L265.5309 195.8074
" />
<path d="M265.5309 195.8074
L265.4595 195.7359
" />
<path d="M265.4595 195.7359
L265.5309 195.6645
" />
<path d="M265.5309 195.6645
L265.5309 195.8074
" />
<path d="M268.1738 196.5931
L267.3167 196.5931
" />
<path d="M267.7452 196.5931
L267.7452 195.0931
" />
<path d="M267.7452 195.0931
L267.6024 195.3074
" />
<path d="M267.6024 195.3074
L267.4595 195.4502
" />
<path d="M267.4595 195.4502
L267.3167 195.5217
" />
<path d="M269.8881 195.0217
L268.6024 196.9502
" />
<path d="M271.1738 196.5931
L270.3167 196.5931
" />
<path d="M270.7452 196.5931
L270.7452 195.0931
" />
<path d="M270.7452 195.0931
L270.6024 195.3074
" />
<path d="M270.6024 195.3074
L270.4595 195.4502
" />
<path d="M270.4595 195.4502
L270.3167 195.5217
" />
</g><path d="M177.0022 187.5072
L285.0022 187.5072
" />
</g>
<g style="fill:none; 
stroke:#840000; stroke-width:0.4000; stroke-opacity:1; 
stroke-linecap:round; stroke-linejoin:round;">
<text x="178.0022" y="190.3072"
textLength="9.6572" font-size="2.6666" lengthAdjust="spacingAndGlyphs"
text-anchor="start" opacity="0" stroke-opacity="0">Title: </text>
<g class="stroked-text"><desc>Title: </desc>
<path d="M178.6938 188.2116
L179.8367 188.2116
" />
<path d="M179.0153 190.2116
L179.2653 188.2116
" />
<path d="M180.2533 190.2116
L180.4200 188.8783
" />
<path d="M180.5033 188.2116
L180.3962 188.3068
" />
<path d="M180.3962 188.3068
L180.4795 188.4021
" />
<path d="M180.4795 188.4021
L180.5867 188.3068
" />
<path d="M180.5867 188.3068
L180.5033 188.2116
" />
<path d="M180.5033 188.2116
L180.4795 188.4021
" />
<path d="M181.0867 188.8783
L181.8486 188.8783
" />
<path d="M181.4557 188.2116
L181.2415 189.9259
" />
<path d="M181.2415 189.9259
L181.3129 190.1164
" />
<path d="M181.3129 190.1164
L181.4915 190.2116
" />
<path d="M181.4915 190.2116
L181.6819 190.2116
" />
<path d="M182.6344 190.2116
L182.4558 190.1164
" />
<path d="M182.4558 190.1164
L182.3844 189.9259
" />
<path d="M182.3844 189.9259
L182.5986 188.2116
" />
<path d="M184.1700 190.1164
L183.9677 190.2116
" />
<path d="M183.9677 190.2116
L183.5867 190.2116
" />
<path d="M183.5867 190.2116
L183.4081 190.1164
" />
<path d="M183.4081 190.1164
L183.3367 189.9259
" />
<path d="M183.3367 189.9259
L183.4320 189.1640
" />
<path d="M183.4320 189.1640
L183.5510 188.9735
" />
<path d="M183.5510 188.9735
L183.7534 188.8783
" />
<path d="M183.7534 188.8783
L184.1343 188.8783
" />
<path d="M184.1343 188.8783
L184.3129 188.9735
" />
<path d="M184.3129 188.9735
L184.3843 189.1640
" />
<path d="M184.3843 189.1640
L184.3605 189.3544
" />
<path d="M184.3605 189.3544
L183.3843 189.5449
" />
<path d="M185.1343 190.0211
L185.2177 190.1164
" />
<path d="M185.2177 190.1164
L185.1105 190.2116
" />
<path d="M185.1105 190.2116
L185.0272 190.1164
" />
<path d="M185.0272 190.1164
L185.1343 190.0211
" />
<path d="M185.1343 190.0211
L185.1105 190.2116
" />
<path d="M185.2653 188.9735
L185.3486 189.0687
" />
<path d="M185.3486 189.0687
L185.2415 189.1640
" />
<path d="M185.2415 189.1640
L185.1582 189.0687
" />
<path d="M185.1582 189.0687
L185.2653 188.9735
" />
<path d="M185.2653 188.9735
L185.2415 189.1640
" />
</g></g>
<g style="fill:none; 
stroke:#840000; stroke-width:0.1524; stroke-opacity:1; 
stroke-linecap:round; stroke-linejoin:round;">
<text x="178.0022" y="186.4572"
textLength="25.0857" font-size="2.0000" lengthAdjust="spacingAndGlyphs"
text-anchor="start" opacity="0" stroke-opacity="0">File: simple.kicad_sch</text>
<g class="stroked-text"><desc>File: simple.kicad_sch</desc>
<path d="M178.9595 185.6074
L178.4595 185.6074
" />
<path d="M178.4595 186.3931
L178.4595 184.8931
" />
<path d="M178.4595 184.8931
L179.1738 184.8931
" />
<path d="M179.7452 186.3931
L179.7452 185.3931
" />
<path d="M179.7452 184.8931
L179.6738 184.9645
" />
<path d="M179.6738 184.9645
L179.7452 185.0359
" />
<path d="M179.7452 185.0359
L179.8166 184.9645
" />
<path d="M179.8166 184.9645
L179.7452 184.8931
" />
<path d="M179.7452 184.8931
L179.7452 185.0359
" />
<path d="M180.6738 186.3931
L180.5309 186.3217
" />
<path d="M180.5309 186.3217
L180.4595 186.1788
" />
<path d="M180.4595 186.1788
L180.4595 184.8931
" />
<path d="M181.8166 186.3217
L181.6738 186.3931
" />
<path d="M181.6738 186.3931
L181.3881 186.3931
" />
<path d="M181.3881 186.3931
L181.2452 186.3217
" />
<path d="M181.2452 186.3217
L181.1738 186.1788
" />
<path d="M181.1738 186.1788
L181.1738 185.6074
" />
<path d="M181.1738 185.6074
L181.2452 185.4645
" />
<path d="M181.2452 185.4645
L181.3881 185.3931
" />
<path d="M181.3881 185.3931
L181.6738 185.3931
" />
<path d="M181.6738 185.3931
L181.8166 185.4645
" />
<path d="M181.8166 185.4645
L181.8881 185.6074
" />
<path d="M181.8881 185.6074
L181.8881 185.7502
" />
<path d="M181.8881 185.7502
L181.1738 185.8931
" />
<path d="M182.5309 186.2502
L182.6023 186.3217
" />
<path d="M182.6023 186.3217
L182.5309 186.3931
" />
<path d="M182.5309 186.3931
L182.4595 186.3217
" />
<path d="M182.4595 186.3217
L182.5309 186.2502
" />
<path d="M182.5309 186.2502
L182.5309 186.3931
" />
<path d="M182.5309 185.4645
L182.6023 185.5359
" />
<path d="M182.6023 185.5359
L182.5309 185.6074
" />
<path d="M182.5309 185.6074
L182.4595 185.5359
" />
<path d="M182.4595 185.5359
L182.5309 185.4645
" />
<path d="M182.5309 185.4645
L182.5309 185.6074
" />
<path d="M184.3167 186.3217
L184.4595 186.3931
" />
<path d="M184.4595 186.3931
L184.7452 186.3931
" />
<path d="M184.7452 186.3931
L184.8881 186.3217
" />
<path d="M184.8881 186.3217
L184.9595 186.1788
" />
<path d="M184.9595 186.1788
L184.9595 186.1074
" />
<path d="M184.9595 186.1074
L184.8881 185.9645
" />
<path d="M184.8881 185.9645
L184.7452 185.8931
" />
<path d="M184.7452 185.8931
L184.5310 185.8931
" />
<path d="M184.5310 185.8931
L184.3881 185.8217
" />
<path d="M184.3881 185.8217
L184.3167 185.6788
" />
<path d="M184.3167 185.6788
L184.3167 185.6074
" />
<path d="M184.3167 185.6074
L184.3881 185.4645
" />
<path d="M184.3881 185.4645
L184.5310 185.3931
" />
<path d="M184.5310 185.3931
L184.7452 185.3931
" />
<path d="M184.7452 185.3931
L184.8881 185.4645
" />
<path d="M185.6024 186.3931
L185.6024 185.3931
" />
<path d="M185.6024 184.8931
L185.5310 184.9645
" />
<path d="M185.5310 184.9645
L185.6024 185.0359
" />
<path d="M185.6024 185.0359
L185.6738 184.9645
" />
<path d="M185.6738 184.9645
L185.6024 184.8931
" />
<path d="M185.6024 184.8931
L185.6024 185.0359
" />
<path d="M186.3167 186.3931
L186.3167 185.3931
" />
<path d="M186.3167 185.5359
L186.3881 185.4645
" />
<path d="M186.3881 185.4645
L186.5310 185.3931
" />
<path d="M186.5310 185.3931
L186.7453 185.3931
" />
<path d="M186.7453 185.3931
L186.8881 185.4645
" />
<path d="M186.8881 185.4645
L186.9596 185.6074
" />
<path d="M186.9596 185.6074
L186.9596 186.3931
" />
<path d="M186.9596 185.6074
L187.0310 185.4645
" />
<path d="M187.0310 185.4645
L187.1738 185.3931
" />
<path d="M187.1738 185.3931
L187.3881 185.3931
" />
<path d="M187.3881 185.3931
L187.5310 185.4645
" />
<path d="M187.5310 185.4645
L187.6024 185.6074
" />
<path d="M187.6024 185.6074
L187.6024 186.3931
" />
<path d="M188.3167 185.3931
L188.3167 186.8931
" />
<path d="M188.3167 185.4645
L188.4596 185.3931
" />
<path d="M188.4596 185.3931
L188.7453 185.3931
" />
<path d="M188.7453 185.3931
L188.8881 185.4645
" />
<path d="M188.8881 185.4645
L188.9596 185.5359
" />
<path d="M188.9596 185.5359
L189.0310 185.6788
" />
<path d="M189.0310 185.6788
L189.0310 186.1074
" />
<path d="M189.0310 186.1074
L188.9596 186.2502
" />
<path d="M188.9596 186.2502
L188.8881 186.3217
" />
<path d="M188.8881 186.3217
L188.7453 186.3931
" />
<path d="M188.7453 186.3931
L188.4596 186.3931
" />
<path d="M188.4596 186.3931
L188.3167 186.3217
" />
<path d="M189.8881 186.3931
L189.7452 186.3217
" />
<path d="M189.7452 186.3217
L189.6738 186.1788
" />
<path d="M189.6738 186.1788
L189.6738 184.8931
" />
<path d="M191.0309 186.3217
L190.8881 186.3931
" />
<path d="M190.8881 186.3931
L190.6024 186.3931
" />
<path d="M190.6024 186.3931
L190.4595 186.3217
" />
<path d="M190.4595 186.3217
L190.3881 186.1788
" />
<path d="M190.3881 186.1788
L190.3881 185.6074
" />
<path d="M190.3881 185.6074
L190.4595 185.4645
" />
<path d="M190.4595 185.4645
L190.6024 185.3931
" />
<path d="M190.6024 185.3931
L190.8881 185.3931
" />
<path d="M190.8881 185.3931
L191.0309 185.4645
" />
<path d="M191.0309 185.4645
L191.1024 185.6074
" />
<path d="M191.1024 185.6074
L191.1024 185.7502
" />
<path d="M191.1024 185.7502
L190.3881 185.8931
" />
<path d="M191.7452 186.2502
L191.8166 186.3217
" />
<path d="M191.8166 186.3217
L191.7452 186.3931
" />
<path d="M191.7452 186.3931
L191.6738 186.3217
" />
<path d="M191.6738 186.3217
L191.7452 186.2502
" />
<path d="M191.7452 186.2502
L191.7452 186.3931
" />
<path d="M192.4595 186.3931
L192.4595 184.8931
" />
<path d="M192.6024 185.8217
L193.0309 186.3931
" />
<path d="M193.0309 185.3931
L192.4595 185.9645
" />
<path d="M193.6738 186.3931
L193.6738 185.3931
" />
<path d="M193.6738 184.8931
L193.6024 184.9645
" />
<path d="M193.6024 184.9645
L193.6738 185.0359
" />
<path d="M193.6738 185.0359
L193.7452 184.9645
" />
<path d="M193.7452 184.9645
L193.6738 184.8931
" />
<path d="M193.6738 184.8931
L193.6738 185.0359
" />
<path d="M195.0310 186.3217
L194.8881 186.3931
" />
<path d="M194.8881 186.3931
L194.6024 186.3931
" />
<path d="M194.6024 186.3931
L194.4595 186.3217
" />
<path d="M194.4595 186.3217
L194.3881 186.2502
" />
<path d="M194.3881 186.2502
L194.3167 186.1074
" />
<path d="M194.3167 186.1074
L194.3167 185.6788
" />
<path d="M194.3167 185.6788
L194.3881 185.5359
" />
<path d="M194.3881 185.5359
L194.4595 185.4645
" />
<path d="M194.4595 185.4645
L194.6024 185.3931
" />
<path d="M194.6024 185.3931
L194.8881 185.3931
" />
<path d="M194.8881 185.3931
L195.0310 185.4645
" />
<path d="M196.3167 186.3931
L196.3167 185.6074
" />
<path d="M196.3167 185.6074
L196.2452 185.4645
" />
<path d="M196.2452 185.4645
L196.1024 185.3931
" />
<path d="M196.1024 185.3931
L195.8167 185.3931
" />
<path d="M195.8167 185.3931
L195.6738 185.4645
" />
<path d="M196.3167 186.3217
L196.1738 186.3931
" />
<path d="M196.1738 186.3931
L195.8167 186.3931
" />
<path d="M195.8167 186.3931
L195.6738 186.3217
" />
<path d="M195.6738 186.3217
L195.6024 186.1788
" />
<path d="M195.6024 186.1788
L195.6024 186.0359
" />
<path d="M195.6024 186.0359
L195.6738 185.8931
" />
<path d="M195.6738 185.8931
L195.8167 185.8217
" />
<path d="M195.8167 185.8217
L196.1738 185.8217
" />
<path d="M196.1738 185.8217
L196.3167 185.7502
" />
<path d="M197.6738 186.3931
L197.6738 184.8931
" />
<path d="M197.6738 186.3217
L197.5309 186.3931
" />
<path d="M197.5309 186.3931
L197.2452 186.3931
" />
<path d="M197.2452 186.3931
L197.1023 186.3217
" />
<path d="M197.1023 186.3217
L197.0309 186.2502
" />
<path d="M197.0309 186.2502
L196.9595 186.1074
" />
<path d="M196.9595 186.1074
L196.9595 185.6788
" />
<path d="M196.9595 185.6788
L197.0309 185.5359
" />
<path d="M197.0309 185.5359
L197.1023 185.4645
" />
<path d="M197.1023 185.4645
L197.2452 185.3931
" />
<path d="M197.2452 185.3931
L197.5309 185.3931
" />
<path d="M197.5309 185.3931
L197.6738 185.4645
" />
<path d="M198.0309 186.5359
L199.1737 186.5359
" />
<path d="M199.4595 186.3217
L199.6023 186.3931
" />
<path d="M199.6023 186.3931
L199.8880 186.3931
" />
<path d="M199.8880 186.3931
L200.0309 186.3217
" />
<path d="M200.0309 186.3217
L200.1023 186.1788
" />
<path d="M200.1023 186.1788
L200.1023 186.1074
" />
<path d="M200.1023 186.1074
L200.0309 185.9645
" />
<path d="M200.0309 185.9645
L199.8880 185.8931
" />
<path d="M199.8880 185.8931
L199.6738 185.8931
" />
<path d="M199.6738 185.8931
L199.5309 185.8217
" />
<path d="M199.5309 185.8217
L199.4595 185.6788
" />
<path d="M199.4595 185.6788
L199.4595 185.6074
" />
<path d="M199.4595 185.6074
L199.5309 185.4645
" />
<path d="M199.5309 185.4645
L199.6738 185.3931
" />
<path d="M199.6738 185.3931
L199.8880 185.3931
" />
<path d="M199.8880 185.3931
L200.0309 185.4645
" />
<path d="M201.3881 186.3217
L201.2452 186.3931
" />
<path d="M201.2452 186.3931
L200.9595 186.3931
" />
<path d="M200.9595 186.3931
L200.8166 186.3217
" />
<path d="M200.8166 186.3217
L200.7452 186.2502
" />
<path d="M200.7452 186.2502
L200.6738 186.1074
" />
<path d="M200.6738 186.1074
L200.6738 185.6788
" />
<path d="M200.6738 185.6788
L200.7452 185.5359
" />
<path d="M200.7452 185.5359
L200.8166 185.4645
" />
<path d="M200.8166 185.4645
L200.9595 185.3931
" />
<path d="M200.9595 185.3931
L201.2452 185.3931
" />
<path d="M201.2452 185.3931
L201.3881 185.4645
" />
<path d="M202.0309 186.3931
L202.0309 184.8931
" />
<path d="M202.6738 186.3931
L202.6738 185.6074
" />
<path d="M202.6738 185.6074
L202.6023 185.4645
" />
<path d="M202.6023 185.4645
L202.4595 185.3931
" />
<path d="M202.4595 185.3931
L202.2452 185.3931
" />
<path d="M202.2452 185.3931
L202.1023 185.4645
" />
<path d="M202.1023 185.4645
L202.0309 185.5359
" />
</g><path d="M177.0022 181.5072
L285.0022 181.5072
" />
<text x="178.0022" y="183.7572"
textLength="9.8000" font-size="2.0000" lengthAdjust="spacingAndGlyphs"
text-anchor="start" opacity="0" stroke-opacity="0">Sheet: /</text>
<g class="stroked-text"><desc>Sheet: /</desc>
<path d="M178.3881 183.6217
L178.6024 183.6931
" />
<path d="M178.6024 183.6931
L178.9595 183.6931
" />
<path d="M178.9595 183.6931
L179.1024 183.6217
" />
<path d="M179.1024 183.6217
L179.1738 183.5502
" />
<path d="M179.1738 183.5502
L179.2452 183.4074
" />
<path d="M179.2452 183.4074
L179.2452 183.2645
" />
<path d="M179.2452 183.2645
L179.1738 183.1217
" />
<path d="M179.1738 183.1217
L179.1024 183.0502
" />
<path d="M179.1024 183.0502
L178.9595 182.9788
" />
<path d="M178.9595 182.9788
L178.6738 182.9074
" />
<path d="M178.6738 182.9074
L178.5309 182.8359
" />
<path d="M178.5309 182.8359
L178.4595 182.7645
" />
<path d="M178.4595 182.7645
L178.3881 182.6217
" />
<path d="M178.3881 182.6217
L178.3881 182.4788
" />
<path d="M178.3881 182.4788
L178.4595 182.3359
" />
<path d="M178.4595 182.3359
L178.5309 182.2645
" />
<path d="M178.5309 182.2645
L178.6738 182.1931
" />
<path d="M178.6738 182.1931
L179.0309 182.1931
" />
<path d="M179.0309 182.1931
L179.2452 182.2645
" />
<path d="M179.8881 183.6931
L179.8881 182.1931
" />
<path d="M180.5310 183.6931
L180.5310 182.9074
" />
<path d="M180.5310 182.9074
L180.4595 182.7645
" />
<path d="M180.4595 182.7645
L180.3167 182.6931
" />
<path d="M180.3167 182.6931
L180.1024 182.6931
" />
<path d="M180.1024 182.6931
L179.9595 182.7645
" />
<path d="M179.9595 182.7645
L179.8881 182.8359
" />
<path d="M181.8166 183.6217
L181.6738 183.6931
" />
<path d="M181.6738 183.6931
L181.3881 183.6931
" />
<path d="M181.3881 183.6931
L181.2452 183.6217
" />
<path d="M181.2452 183.6217
L181.1738 183.4788
" />
<path d="M181.1738 183.4788
L181.1738 182.9074
" />
<path d="M181.1738 182.9074
L181.2452 182.7645
" />
<path d="M181.2452 182.7645
L181.3881 182.6931
" />
<path d="M181.3881 182.6931
L181.6738 182.6931
" />
<path d="M181.6738 182.6931
L181.8166 182.7645
" />
<path d="M181.8166 182.7645
L181.8881 182.9074
" />
<path d="M181.8881 182.9074
L181.8881 183.0502
" />
<path d="M181.8881 183.0502
L181.1738 183.1931
" />
<path d="M183.1023 183.6217
L182.9595 183.6931
" />
<path d="M182.9595 183.6931
L182.6738 183.6931
" />
<path d="M182.6738 183.6931
L182.5309 183.6217
" />
<path d="M182.5309 183.6217
L182.4595 183.4788
" />
<path d="M182.4595 183.4788
L182.4595 182.9074
" />
<path d="M182.4595 182.9074
L182.5309 182.7645
" />
<path d="M182.5309 182.7645
L182.6738 182.6931
" />
<path d="M182.6738 182.6931
L182.9595 182.6931
" />
<path d="M182.9595 182.6931
L183.1023 182.7645
" />
<path d="M183.1023 182.7645
L183.1738 182.9074
" />
<path d="M183.1738 182.9074
L183.1738 183.0502
" />
<path d="M183.1738 183.0502
L182.4595 183.1931
" />
<path d="M183.6023 182.6931
L184.1737 182.6931
" />
<path d="M183.8166 182.1931
L183.8166 183.4788
" />
<path d="M183.8166 183.4788
L183.8880 183.6217
" />
<path d="M183.8880 183.6217
L184.0309 183.6931
" />
<path d="M184.0309 183.6931
L184.1737 183.6931
" />
<path d="M184.6737 183.5502
L184.7451 183.6217
" />
<path d="M184.7451 183.6217
L184.6737 183.6931
" />
<path d="M184.6737 183.6931
L184.6023 183.6217
" />
<path d="M184.6023 183.6217
L184.6737 183.5502
" />
<path d="M184.6737 183.5502
L184.6737 183.6931
" />
<path d="M184.6737 182.7645
L184.7451 182.8359
" />
<path d="M184.7451 182.8359
L184.6737 182.9074
" />
<path d="M184.6737 182.9074
L184.6023 182.8359
" />
<path d="M184.6023 182.8359
L184.6737 182.7645
" />
<path d="M184.6737 182.7645
L184.6737 182.9074
" />
<path d="M187.6023 182.1217
L186.3166 184.0502
" />
</g></g>
<g style="fill:none; 
stroke:#840000; stroke-width:0.3000; stroke-opacity:1; 
stroke-linecap:round; stroke-linejoin:round;">
<text x="178.0022" y="180.7572"
textLength="0.9000" font-size="2.0000" lengthAdjust="spacingAndGlyphs"
text-anchor="start" opacity="0" stroke-opacity="0"></text>
<g class="stroked-text"><desc></desc>
</g></g>
<g style="fill:none; 
stroke:#840000; stroke-width:0.1524; stroke-opacity:1; 
stroke-linecap:round; stroke-linejoin:round;">
<text x="178.0022" y="177.7572"
textLength="0.4572" font-size="2.0000" lengthAdjust="spacingAndGlyphs"
text-anchor="start" opacity="0" stroke-opacity="0"></text>
<g class="stroked-text"><desc></desc>
</g><text x="178.0022" y="174.7572"
textLength="0.4572" font-size="2.0000" lengthAdjust="spacingAndGlyphs"
text-anchor="start" opacity="0" stroke-opacity="0"></text>
<g class="stroked-text"><desc></desc>
</g><text x="178.0022" y="171.7572"
textLength="0.4572" font-size="2.0000" lengthAdjust="spacingAndGlyphs"
text-anchor="start" opacity="0" stroke-opacity="0"></text>
<g class="stroked-text"><desc></desc>
</g><text x="178.0022" y="168.7572"
textLength="0.4572" font-size="2.0000" lengthAdjust="spacingAndGlyphs"
text-anchor="start" opacity="0" stroke-opacity="0"></text>
<g class="stroked-text"><desc></desc>
</g><path d="M197.0022 191.5072
L197.0022 194.5072
" />
<path d="M261.0022 191.5072
L261.0022 198.0072
" />
</g>
<g style="fill:#FFFFC2; fill-opacity:1.0000; stroke:none;">
<circle cx="33.0200" cy="57.1500" r="2.5400" /> 
<path style="fill:none; 
stroke:#840000; stroke-width:0.1524; stroke-opacity:1; 
stroke-linecap:round; stroke-linejoin:round;fill:none"
d="M 31.7500,56.8960
34.2900,56.8960
" /> 
<path style="fill:none; 
stroke:#840000; stroke-width:0.1524; stroke-opacity:1; 
stroke-linecap:round; stroke-linejoin:round;fill:none"
d="M 32.2580,57.4040
31.7500,57.4040
" /> 
<path style="fill:none; 
stroke:#840000; stroke-width:0.1524; stroke-opacity:1; 
stroke-linecap:round; stroke-linejoin:round;fill:none"
d="M 33.2740,57.4040
32.7660,57.4040
" /> 
<path style="fill:none; 
stroke:#840000; stroke-width:0.1524; stroke-opacity:1; 
stroke-linecap:round; stroke-linejoin:round;fill:none"
d="M 34.2900,57.4040
33.7820,57.4040
" /> 
</g>
<g style="fill:none; 
stroke:#840000; stroke-width:0.2540; stroke-opacity:1; 
stroke-linecap:round; stroke-linejoin:round;">
<circle cx="33.0200" cy="57.1500" r="2.5400" /> 
</g>
<g style="fill:none; 
stroke:#840000; stroke-width:0.1524; stroke-opacity:1; 
stroke-linecap:round; stroke-linejoin:round;">
<text x="33.0200" y="55.8800"
textLength="1.7756" font-size="1.6933" lengthAdjust="spacingAndGlyphs"
text-anchor="middle" opacity="0" stroke-opacity="0">+</text>
<g class="stroked-text"><desc>+</desc>
<path d="M32.5361 55.3407
L33.5038 55.3407
" />
<path d="M33.0199 55.8245
L33.0199 54.8569
" />
</g><path d="M33.0200 54.6100
L33.0200 52.0700
" />
<path d="M33.0200 59.6900
L33.0200 62.2300
" />
</g>
<g style="fill:none; 
stroke:#006464; stroke-width:0.1524; stroke-opacity:1; 
stroke-linecap:round; stroke-linejoin:round;">
<text x="38.0902" y="56.3851"
textLength="2.5013" font-size="1.6933" lengthAdjust="spacingAndGlyphs"
text-anchor="middle" opacity="0" stroke-opacity="0">V1</text>
<g class="stroked-text"><desc>V1</desc>
<path d="M37.0621 55.0596
L37.4854 56.3296
" />
<path d="M37.4854 56.3296
L37.9088 55.0596
" />
<path d="M38.9974 56.3296
L38.2717 56.3296
" />
<path d="M38.6345 56.3296
L38.6345 55.0596
" />
<path d="M38.6345 55.0596
L38.5136 55.2411
" />
<path d="M38.5136 55.2411
L38.3926 55.3620
" />
<path d="M38.3926 55.3620
L38.2717 55.4225
" />
</g><text x="38.0902" y="58.9251"
textLength="2.5013" font-size="1.6933" lengthAdjust="spacingAndGlyphs"
text-anchor="middle" opacity="0" stroke-opacity="0">2V</text>
<g class="stroked-text"><desc>2V</desc>
<path d="M37.1831 57.7206
L37.2435 57.6601
" />
<path d="M37.2435 57.6601
L37.3645 57.5996
" />
<path d="M37.3645 57.5996
L37.6669 57.5996
" />
<path d="M37.6669 57.5996
L37.7878 57.6601
" />
<path d="M37.7878 57.6601
L37.8483 57.7206
" />
<path d="M37.8483 57.7206
L37.9088 57.8415
" />
<path d="M37.9088 57.8415
L37.9088 57.9625
" />
<path d="M37.9088 57.9625
L37.8483 58.1439
" />
<path d="M37.8483 58.1439
L37.1226 58.8696
" />
<path d="M37.1226 58.8696
L37.9088 58.8696
" />
<path d="M38.2716 57.5996
L38.6949 58.8696
" />
<path d="M38.6949 58.8696
L39.1183 57.5996
" />
</g></g>
<g style="fill:#FFFFC2; fill-opacity:1.0000; stroke:none;">
<rect x="60.960000" y="46.990000" width="10.160000" height="15.240000" rx="0.000000" />
</g>
<g style="fill:none; 
stroke:#840000; stroke-width:0.2540; stroke-opacity:1; 
stroke-linecap:round; stroke-linejoin:round;">
<rect x="60.960000" y="46.990000" width="10.160000" height="15.240000" rx="0.000000" />
</g>
<g style="fill:none; 
stroke:#840000; stroke-width:0.1524; stroke-opacity:1; 
stroke-linecap:round; stroke-linejoin:round;">
<path d="M63.5000 46.9900
L63.5000 44.4500
" />
</g>
<g style="fill:none; 
stroke:#006464; stroke-width:0.1524; stroke-opacity:1; 
stroke-linecap:round; stroke-linejoin:round;">
<g transform="rotate(-90.000000 63.5000 47.4980)">
<text x="63.5000" y="48.1330"
textLength="3.8318" font-size="1.6933" lengthAdjust="spacingAndGlyphs"
text-anchor="end" opacity="0" stroke-opacity="0">VCC</text>
</g>
<g class="stroked-text"><desc>VCC</desc>
<path d="M62.8095 51.1058
L64.0795 50.6825
" />
<path d="M64.0795 50.6825
L62.8095 50.2591
" />
<path d="M63.9586 49.1101
L64.0191 49.1705
" />
<path d="M64.0191 49.1705
L64.0795 49.3520
" />
<path d="M64.0795 49.3520
L64.0795 49.4729
" />
<path d="M64.0795 49.4729
L64.0191 49.6543
" />
<path d="M64.0191 49.6543
L63.8981 49.7753
" />
<path d="M63.8981 49.7753
L63.7771 49.8358
" />
<path d="M63.7771 49.8358
L63.5352 49.8962
" />
<path d="M63.5352 49.8962
L63.3538 49.8962
" />
<path d="M63.3538 49.8962
L63.1119 49.8358
" />
<path d="M63.1119 49.8358
L62.9910 49.7753
" />
<path d="M62.9910 49.7753
L62.8700 49.6543
" />
<path d="M62.8700 49.6543
L62.8095 49.4729
" />
<path d="M62.8095 49.4729
L62.8095 49.3520
" />
<path d="M62.8095 49.3520
L62.8700 49.1705
" />
<path d="M62.8700 49.1705
L62.9305 49.1101
" />
<path d="M63.9586 47.8401
L64.0191 47.9005
" />
<path d="M64.0191 47.9005
L64.0795 48.0820
" />
<path d="M64.0795 48.0820
L64.0795 48.2029
" />
<path d="M64.0795 48.2029
L64.0191 48.3843
" />
<path d="M64.0191 48.3843
L63.8981 48.5053
" />
<path d="M63.8981 48.5053
L63.7771 48.5658
" />
<path d="M63.7771 48.5658
L63.5352 48.6262
" />
<path d="M63.5352 48.6262
L63.3538 48.6262
" />
<path d="M63.3538 48.6262
L63.1119 48.5658
" />
<path d="M63.1119 48.5658
L62.9910 48.5053
" />
<path d="M62.9910 48.5053
L62.8700 48.3843
" />
<path d="M62.8700 48.3843
L62.8095 48.2029
" />
<path d="M62.8095 48.2029
L62.8095 48.0820
" />
<path d="M62.8095 48.0820
L62.8700 47.9005
" />
<path d="M62.8700 47.9005
L62.9305 47.8401
" />
</g></g>
<g style="fill:none; 
stroke:#A90000; stroke-width:0.1524; stroke-opacity:1; 
stroke-linecap:round; stroke-linejoin:round;">
<g transform="rotate(-90.000000 63.2460 45.7200)">
<text x="63.2460" y="45.7200"
textLength="1.4127" font-size="1.6933" lengthAdjust="spacingAndGlyphs"
text-anchor="middle" opacity="0" stroke-opacity="0">2</text>
</g>
<g class="stroked-text"><desc>2</desc>
<path d="M61.9335 46.0827
L61.8730 46.0223
" />
<path d="M61.8730 46.0223
L61.8125 45.9013
" />
<path d="M61.8125 45.9013
L61.8125 45.5989
" />
<path d="M61.8125 45.5989
L61.8730 45.4780
" />
<path d="M61.8730 45.4780
L61.9335 45.4175
" />
<path d="M61.9335 45.4175
L62.0544 45.3570
" />
<path d="M62.0544 45.3570
L62.1754 45.3570
" />
<path d="M62.1754 45.3570
L62.3568 45.4175
" />
<path d="M62.3568 45.4175
L63.0825 46.1432
" />
<path d="M63.0825 46.1432
L63.0825 45.3570
" />
</g></g>
<g style="fill:none; 
stroke:#840000; stroke-width:0.1524; stroke-opacity:1; 
stroke-linecap:round; stroke-linejoin:round;">
<path d="M63.5000 62.2300
L63.5000 64.7700
" />
</g>
<g style="fill:none; 
stroke:#006464; stroke-width:0.1524; stroke-opacity:1; 
stroke-linecap:round; stroke-linejoin:round;">
<g transform="rotate(-90.000000 63.5000 61.7220)">
<text x="63.5000" y="62.3570"
textLength="4.0737" font-size="1.6933" lengthAdjust="spacingAndGlyphs"
text-anchor="start" opacity="0" stroke-opacity="0">GND</text>
</g>
<g class="stroked-text"><desc>GND</desc>
<path d="M62.8700 60.6541
L62.8095 60.7751
" />
<path d="M62.8095 60.7751
L62.8095 60.9565
" />
<path d="M62.8095 60.9565
L62.8700 61.1379
" />
<path d="M62.8700 61.1379
L62.9910 61.2589
" />
<path d="M62.9910 61.2589
L63.1119 61.3194
" />
<path d="M63.1119 61.3194
L63.3538 61.3798
" />
<path d="M63.3538 61.3798
L63.5352 61.3798
" />
<path d="M63.5352 61.3798
L63.7771 61.3194
" />
<path d="M63.7771 61.3194
L63.8981 61.2589
" />
<path d="M63.8981 61.2589
L64.0191 61.1379
" />
<path d="M64.0191 61.1379
L64.0795 60.9565
" />
<path d="M64.0795 60.9565
L64.0795 60.8356
" />
<path d="M64.0795 60.8356
L64.0191 60.6541
" />
<path d="M64.0191 60.6541
L63.9586 60.5937
" />
<path d="M63.9586 60.5937
L63.5352 60.5937
" />
<path d="M63.5352 60.5937
L63.5352 60.8356
" />
<path d="M64.0795 60.0494
L62.8095 60.0494
" />
<path d="M62.8095 60.0494
L64.0795 59.3237
" />
<path d="M64.0795 59.3237
L62.8095 59.3237
" />
<path d="M64.0795 58.7189
L62.8095 58.7189
" />
<path d="M62.8095 58.7189
L62.8095 58.4165
" />
<path d="M62.8095 58.4165
L62.8700 58.2351
" />
<path d="M62.8700 58.2351
L62.9910 58.1141
" />
<path d="M62.9910 58.1141
L63.1119 58.0536
" />
<path d="M63.1119 58.0536
L63.3538 57.9932
" />
<path d="M63.3538 57.9932
L63.5352 57.9932
" />
<path d="M63.5352 57.9932
L63.7771 58.0536
" />
<path d="M63.7771 58.0536
L63.8981 58.1141
" />
<path d="M63.8981 58.1141
L64.0191 58.2351
" />
<path d="M64.0191 58.2351
L64.0795 58.4165
" />
<path d="M64.0795 58.4165
L64.0795 58.7189
" />
</g></g>
<g style="fill:none; 
stroke:#A90000; stroke-width:0.1524; stroke-opacity:1; 
stroke-linecap:round; stroke-linejoin:round;">
<g transform="rotate(-90.000000 63.2460 63.5000)">
<text x="63.2460" y="63.5000"
textLength="1.4127" font-size="1.6933" lengthAdjust="spacingAndGlyphs"
text-anchor="middle" opacity="0" stroke-opacity="0">1</text>
</g>
<g class="stroked-text"><desc>1</desc>
<path d="M63.0825 63.1370
L63.0825 63.8627
" />
<path d="M63.0825 63.4999
L61.8125 63.4999
" />
<path d="M61.8125 63.4999
L61.9940 63.6208
" />
<path d="M61.9940 63.6208
L62.1149 63.7418
" />
<path d="M62.1149 63.7418
L62.1754 63.8627
" />
</g></g>
<g style="fill:none; 
stroke:#840000; stroke-width:0.1524; stroke-opacity:1; 
stroke-linecap:round; stroke-linejoin:round;">
<path d="M71.1200 54.6100
L73.6600 54.6100
" />
</g>
<g style="fill:none; 
stroke:#006464; stroke-width:0.1524; stroke-opacity:1; 
stroke-linecap:round; stroke-linejoin:round;">
<text x="70.6120" y="55.2450"
textLength="3.8318" font-size="1.6933" lengthAdjust="spacingAndGlyphs"
text-anchor="end" opacity="0" stroke-opacity="0">OUT</text>
<g class="stroked-text"><desc>OUT</desc>
<path d="M67.4274 53.9195
L67.6693 53.9195
" />
<path d="M67.6693 53.9195
L67.7903 53.9800
" />
<path d="M67.7903 53.9800
L67.9112 54.1010
" />
<path d="M67.9112 54.1010
L67.9717 54.3429
" />
<path d="M67.9717 54.3429
L67.9717 54.7662
" />
<path d="M67.9717 54.7662
L67.9112 55.0081
" />
<path d="M67.9112 55.0081
L67.7903 55.1291
" />
<path d="M67.7903 55.1291
L67.6693 55.1895
" />
<path d="M67.6693 55.1895
L67.4274 55.1895
" />
<path d="M67.4274 55.1895
L67.3065 55.1291
" />
<path d="M67.3065 55.1291
L67.1855 55.0081
" />
<path d="M67.1855 55.0081
L67.1251 54.7662
" />
<path d="M67.1251 54.7662
L67.1251 54.3429
" />
<path d="M67.1251 54.3429
L67.1855 54.1010
" />
<path d="M67.1855 54.1010
L67.3065 53.9800
" />
<path d="M67.3065 53.9800
L67.4274 53.9195
" />
<path d="M68.5160 53.9195
L68.5160 54.9476
" />
<path d="M68.5160 54.9476
L68.5765 55.0686
" />
<path d="M68.5765 55.0686
L68.6370 55.1291
" />
<path d="M68.6370 55.1291
L68.7579 55.1895
" />
<path d="M68.7579 55.1895
L68.9998 55.1895
" />
<path d="M68.9998 55.1895
L69.1208 55.1291
" />
<path d="M69.1208 55.1291
L69.1813 55.0686
" />
<path d="M69.1813 55.0686
L69.2417 54.9476
" />
<path d="M69.2417 54.9476
L69.2417 53.9195
" />
<path d="M69.6651 53.9195
L70.3908 53.9195
" />
<path d="M70.0280 55.1895
L70.0280 53.9195
" />
</g></g>
<g style="fill:none; 
stroke:#A90000; stroke-width:0.1524; stroke-opacity:1; 
stroke-linecap:round; stroke-linejoin:round;">
<text x="72.3900" y="54.3560"
textLength="1.4127" font-size="1.6933" lengthAdjust="spacingAndGlyphs"
text-anchor="middle" opacity="0" stroke-opacity="0">3</text>
<g class="stroked-text"><desc>3</desc>
<path d="M71.9667 52.9225
L72.7529 52.9225
" />
<path d="M72.7529 52.9225
L72.3295 53.4063
" />
<path d="M72.3295 53.4063
L72.5110 53.4063
" />
<path d="M72.5110 53.4063
L72.6319 53.4668
" />
<path d="M72.6319 53.4668
L72.6924 53.5273
" />
<path d="M72.6924 53.5273
L72.7529 53.6482
" />
<path d="M72.7529 53.6482
L72.7529 53.9506
" />
<path d="M72.7529 53.9506
L72.6924 54.0716
" />
<path d="M72.6924 54.0716
L72.6319 54.1321
" />
<path d="M72.6319 54.1321
L72.5110 54.1925
" />
<path d="M72.5110 54.1925
L72.1481 54.1925
" />
<path d="M72.1481 54.1925
L72.0272 54.1321
" />
<path d="M72.0272 54.1321
L71.9667 54.0716
" />
</g></g>
<g style="fill:none; 
stroke:#006464; stroke-width:0.1524; stroke-opacity:1; 
stroke-linecap:round; stroke-linejoin:round;">
<text x="58.3088" y="53.9749"
textLength="2.7432" font-size="1.6933" lengthAdjust="spacingAndGlyphs"
text-anchor="middle" opacity="0" stroke-opacity="0">U1</text>
<g class="stroked-text"><desc>U1</desc>
<path d="M57.3411 52.6494
L57.3411 53.6775
" />
<path d="M57.3411 53.6775
L57.4016 53.7985
" />
<path d="M57.4016 53.7985
L57.4621 53.8590
" />
<path d="M57.4621 53.8590
L57.5830 53.9194
" />
<path d="M57.5830 53.9194
L57.8249 53.9194
" />
<path d="M57.8249 53.9194
L57.9459 53.8590
" />
<path d="M57.9459 53.8590
L58.0064 53.7985
" />
<path d="M58.0064 53.7985
L58.0668 53.6775
" />
<path d="M58.0668 53.6775
L58.0668 52.6494
" />
<path d="M59.3369 53.9194
L58.6112 53.9194
" />
<path d="M58.9740 53.9194
L58.9740 52.6494
" />
<path d="M58.9740 52.6494
L58.8531 52.8309
" />
<path d="M58.8531 52.8309
L58.7321 52.9518
" />
<path d="M58.7321 52.9518
L58.6112 53.0123
" />
</g><text x="56.4945" y="56.5149"
textLength="6.3717" font-size="1.6933" lengthAdjust="spacingAndGlyphs"
text-anchor="middle" opacity="0" stroke-opacity="0">UM66T</text>
<g class="stroked-text"><desc>UM66T</desc>
<path d="M53.7126 55.1894
L53.7126 56.2175
" />
<path d="M53.7126 56.2175
L53.7731 56.3385
" />
<path d="M53.7731 56.3385
L53.8336 56.3990
" />
<path d="M53.8336 56.3990
L53.9545 56.4594
" />
<path d="M53.9545 56.4594
L54.1964 56.4594
" />
<path d="M54.1964 56.4594
L54.3174 56.3990
" />
<path d="M54.3174 56.3990
L54.3779 56.3385
" />
<path d="M54.3779 56.3385
L54.4383 56.2175
" />
<path d="M54.4383 56.2175
L54.4383 55.1894
" />
<path d="M55.0431 56.4594
L55.0431 55.1894
" />
<path d="M55.0431 55.1894
L55.4665 56.0966
" />
<path d="M55.4665 56.0966
L55.8898 55.1894
" />
<path d="M55.8898 55.1894
L55.8898 56.4594
" />
<path d="M57.0388 55.1894
L56.7969 55.1894
" />
<path d="M56.7969 55.1894
L56.6760 55.2499
" />
<path d="M56.6760 55.2499
L56.6155 55.3104
" />
<path d="M56.6155 55.3104
L56.4945 55.4918
" />
<path d="M56.4945 55.4918
L56.4341 55.7337
" />
<path d="M56.4341 55.7337
L56.4341 56.2175
" />
<path d="M56.4341 56.2175
L56.4945 56.3385
" />
<path d="M56.4945 56.3385
L56.5550 56.3990
" />
<path d="M56.5550 56.3990
L56.6760 56.4594
" />
<path d="M56.6760 56.4594
L56.9179 56.4594
" />
<path d="M56.9179 56.4594
L57.0388 56.3990
" />
<path d="M57.0388 56.3990
L57.0993 56.3385
" />
<path d="M57.0993 56.3385
L57.1598 56.2175
" />
<path d="M57.1598 56.2175
L57.1598 55.9151
" />
<path d="M57.1598 55.9151
L57.0993 55.7942
" />
<path d="M57.0993 55.7942
L57.0388 55.7337
" />
<path d="M57.0388 55.7337
L56.9179 55.6732
" />
<path d="M56.9179 55.6732
L56.6760 55.6732
" />
<path d="M56.6760 55.6732
L56.5550 55.7337
" />
<path d="M56.5550 55.7337
L56.4945 55.7942
" />
<path d="M56.4945 55.7942
L56.4341 55.9151
" />
<path d="M58.2483 55.1894
L58.0064 55.1894
" />
<path d="M58.0064 55.1894
L57.8855 55.2499
" />
<path d="M57.8855 55.2499
L57.8250 55.3104
" />
<path d="M57.8250 55.3104
L57.7040 55.4918
" />
<path d="M57.7040 55.4918
L57.6436 55.7337
" />
<path d="M57.6436 55.7337
L57.6436 56.2175
" />
<path d="M57.6436 56.2175
L57.7040 56.3385
" />
<path d="M57.7040 56.3385
L57.7645 56.3990
" />
<path d="M57.7645 56.3990
L57.8855 56.4594
" />
<path d="M57.8855 56.4594
L58.1274 56.4594
" />
<path d="M58.1274 56.4594
L58.2483 56.3990
" />
<path d="M58.2483 56.3990
L58.3088 56.3385
" />
<path d="M58.3088 56.3385
L58.3693 56.2175
" />
<path d="M58.3693 56.2175
L58.3693 55.9151
" />
<path d="M58.3693 55.9151
L58.3088 55.7942
" />
<path d="M58.3088 55.7942
L58.2483 55.7337
" />
<path d="M58.2483 55.7337
L58.1274 55.6732
" />
<path d="M58.1274 55.6732
L57.8855 55.6732
" />
<path d="M57.8855 55.6732
L57.7645 55.7337
" />
<path d="M57.7645 55.7337
L57.7040 55.7942
" />
<path d="M57.7040 55.7942
L57.6436 55.9151
" />
<path d="M58.7321 55.1894
L59.4578 55.1894
" />
<path d="M59.0950 56.4594
L59.0950 55.1894
" />
</g></g>
<g style="fill:none; 
stroke:#840000; stroke-width:0.2540; stroke-opacity:1; 
stroke-linecap:round; stroke-linejoin:round;">
<rect x="91.440000" y="53.340000" width="3.556000" height="5.080000" rx="0.000000" />
<path style="fill:none; 
stroke:#840000; stroke-width:0.2540; stroke-opacity:1; 
stroke-linecap:round; stroke-linejoin:round;fill:none"
d="M 94.9960,53.3400
97.5360,50.8000
97.5360,60.9600
94.9960,58.4200
" /> 
</g>
<g style="fill:none; 
stroke:#840000; stroke-width:0.1524; stroke-opacity:1; 
stroke-linecap:round; stroke-linejoin:round;">
<path d="M91.4400 54.6100
L88.9000 54.6100
" />
</g>
<g style="fill:none; 
stroke:#A90000; stroke-width:0.1524; stroke-opacity:1; 
stroke-linecap:round; stroke-linejoin:round;">
<text x="90.1700" y="54.3560"
textLength="1.4127" font-size="1.6933" lengthAdjust="spacingAndGlyphs"
text-anchor="middle" opacity="0" stroke-opacity="0">1</text>
<g class="stroked-text"><desc>1</desc>
<path d="M90.5329 54.1925
L89.8072 54.1925
" />
<path d="M90.1700 54.1925
L90.1700 52.9225
" />
<path d="M90.1700 52.9225
L90.0491 53.1040
" />
<path d="M90.0491 53.1040
L89.9281 53.2249
" />
<path d="M89.9281 53.2249
L89.8072 53.2854
" />
</g></g>
<g style="fill:none; 
stroke:#840000; stroke-width:0.1524; stroke-opacity:1; 
stroke-linecap:round; stroke-linejoin:round;">
<path d="M91.4400 57.1500
L88.9000 57.1500
" />
</g>
<g style="fill:none; 
stroke:#A90000; stroke-width:0.1524; stroke-opacity:1; 
stroke-linecap:round; stroke-linejoin:round;">
<text x="90.1700" y="56.8960"
textLength="1.4127" font-size="1.6933" lengthAdjust="spacingAndGlyphs"
text-anchor="middle" opacity="0" stroke-opacity="0">2</text>
<g class="stroked-text"><desc>2</desc>
<path d="M89.8072 55.5835
L89.8676 55.5230
" />
<path d="M89.8676 55.5230
L89.9886 55.4625
" />
<path d="M89.9886 55.4625
L90.2910 55.4625
" />
<path d="M90.2910 55.4625
L90.4119 55.5230
" />
<path d="M90.4119 55.5230
L90.4724 55.5835
" />
<path d="M90.4724 55.5835
L90.5329 55.7044
" />
<path d="M90.5329 55.7044
L90.5329 55.8254
" />
<path d="M90.5329 55.8254
L90.4724 56.0068
" />
<path d="M90.4724 56.0068
L89.7467 56.7325
" />
<path d="M89.7467 56.7325
L90.5329 56.7325
" />
</g></g>
<g style="fill:none; 
stroke:#006464; stroke-width:0.1524; stroke-opacity:1; 
stroke-linecap:round; stroke-linejoin:round;">
<text x="100.8947" y="55.2449"
textLength="3.6503" font-size="1.6933" lengthAdjust="spacingAndGlyphs"
text-anchor="middle" opacity="0" stroke-opacity="0">LS1</text>
<g class="stroked-text"><desc>LS1</desc>
<path d="M100.0783 55.1894
L99.4735 55.1894
" />
<path d="M99.4735 55.1894
L99.4735 53.9194
" />
<path d="M100.4412 55.1290
L100.6226 55.1894
" />
<path d="M100.6226 55.1894
L100.9250 55.1894
" />
<path d="M100.9250 55.1894
L101.0459 55.1290
" />
<path d="M101.0459 55.1290
L101.1064 55.0685
" />
<path d="M101.1064 55.0685
L101.1669 54.9475
" />
<path d="M101.1669 54.9475
L101.1669 54.8266
" />
<path d="M101.1669 54.8266
L101.1064 54.7056
" />
<path d="M101.1064 54.7056
L101.0459 54.6451
" />
<path d="M101.0459 54.6451
L100.9250 54.5847
" />
<path d="M100.9250 54.5847
L100.6831 54.5242
" />
<path d="M100.6831 54.5242
L100.5621 54.4637
" />
<path d="M100.5621 54.4637
L100.5016 54.4032
" />
<path d="M100.5016 54.4032
L100.4412 54.2823
" />
<path d="M100.4412 54.2823
L100.4412 54.1613
" />
<path d="M100.4412 54.1613
L100.5016 54.0404
" />
<path d="M100.5016 54.0404
L100.5621 53.9799
" />
<path d="M100.5621 53.9799
L100.6831 53.9194
" />
<path d="M100.6831 53.9194
L100.9854 53.9194
" />
<path d="M100.9854 53.9194
L101.1669 53.9799
" />
<path d="M102.3764 55.1894
L101.6507 55.1894
" />
<path d="M102.0135 55.1894
L102.0135 53.9194
" />
<path d="M102.0135 53.9194
L101.8926 54.1009
" />
<path d="M101.8926 54.1009
L101.7716 54.2218
" />
<path d="M101.7716 54.2218
L101.6507 54.2823
" />
</g><text x="102.9207" y="57.7849"
textLength="7.7022" font-size="1.6933" lengthAdjust="spacingAndGlyphs"
text-anchor="middle" opacity="0" stroke-opacity="0">Speaker</text>
<g class="stroked-text"><desc>Speaker</desc>
<path d="M99.4131 57.6690
L99.5945 57.7294
" />
<path d="M99.5945 57.7294
L99.8969 57.7294
" />
<path d="M99.8969 57.7294
L100.0178 57.6690
" />
<path d="M100.0178 57.6690
L100.0783 57.6085
" />
<path d="M100.0783 57.6085
L100.1388 57.4875
" />
<path d="M100.1388 57.4875
L100.1388 57.3666
" />
<path d="M100.1388 57.3666
L100.0783 57.2456
" />
<path d="M100.0783 57.2456
L100.0178 57.1851
" />
<path d="M100.0178 57.1851
L99.8969 57.1247
" />
<path d="M99.8969 57.1247
L99.6550 57.0642
" />
<path d="M99.6550 57.0642
L99.5340 57.0037
" />
<path d="M99.5340 57.0037
L99.4735 56.9432
" />
<path d="M99.4735 56.9432
L99.4131 56.8223
" />
<path d="M99.4131 56.8223
L99.4131 56.7013
" />
<path d="M99.4131 56.7013
L99.4735 56.5804
" />
<path d="M99.4735 56.5804
L99.5340 56.5199
" />
<path d="M99.5340 56.5199
L99.6550 56.4594
" />
<path d="M99.6550 56.4594
L99.9573 56.4594
" />
<path d="M99.9573 56.4594
L100.1388 56.5199
" />
<path d="M100.6830 56.8828
L100.6830 58.1528
" />
<path d="M100.6830 56.9432
L100.8040 56.8828
" />
<path d="M100.8040 56.8828
L101.0459 56.8828
" />
<path d="M101.0459 56.8828
L101.1668 56.9432
" />
<path d="M101.1668 56.9432
L101.2273 57.0037
" />
<path d="M101.2273 57.0037
L101.2878 57.1247
" />
<path d="M101.2878 57.1247
L101.2878 57.4875
" />
<path d="M101.2878 57.4875
L101.2273 57.6085
" />
<path d="M101.2273 57.6085
L101.1668 57.6690
" />
<path d="M101.1668 57.6690
L101.0459 57.7294
" />
<path d="M101.0459 57.7294
L100.8040 57.7294
" />
<path d="M100.8040 57.7294
L100.6830 57.6690
" />
<path d="M102.3158 57.6690
L102.1949 57.7294
" />
<path d="M102.1949 57.7294
L101.9530 57.7294
" />
<path d="M101.9530 57.7294
L101.8320 57.6690
" />
<path d="M101.8320 57.6690
L101.7716 57.5480
" />
<path d="M101.7716 57.5480
L101.7716 57.0642
" />
<path d="M101.7716 57.0642
L101.8320 56.9432
" />
<path d="M101.8320 56.9432
L101.9530 56.8828
" />
<path d="M101.9530 56.8828
L102.1949 56.8828
" />
<path d="M102.1949 56.8828
L102.3158 56.9432
" />
<path d="M102.3158 56.9432
L102.3763 57.0642
" />
<path d="M102.3763 57.0642
L102.3763 57.1851
" />
<path d="M102.3763 57.1851
L101.7716 57.3061
" />
<path d="M103.4649 57.7294
L103.4649 57.0642
" />
<path d="M103.4649 57.0642
L103.4044 56.9432
" />
<path d="M103.4044 56.9432
L103.2835 56.8828
" />
<path d="M103.2835 56.8828
L103.0416 56.8828
" />
<path d="M103.0416 56.8828
L102.9206 56.9432
" />
<path d="M103.4649 57.6690
L103.3440 57.7294
" />
<path d="M103.3440 57.7294
L103.0416 57.7294
" />
<path d="M103.0416 57.7294
L102.9206 57.6690
" />
<path d="M102.9206 57.6690
L102.8602 57.5480
" />
<path d="M102.8602 57.5480
L102.8602 57.4270
" />
<path d="M102.8602 57.4270
L102.9206 57.3061
" />
<path d="M102.9206 57.3061
L103.0416 57.2456
" />
<path d="M103.0416 57.2456
L103.3440 57.2456
" />
<path d="M103.3440 57.2456
L103.4649 57.1851
" />
<path d="M104.0696 57.7294
L104.0696 56.4594
" />
<path d="M104.1906 57.2456
L104.5534 57.7294
" />
<path d="M104.5534 56.8828
L104.0696 57.3666
" />
<path d="M105.5815 57.6690
L105.4606 57.7294
" />
<path d="M105.4606 57.7294
L105.2187 57.7294
" />
<path d="M105.2187 57.7294
L105.0977 57.6690
" />
<path d="M105.0977 57.6690
L105.0373 57.5480
" />
<path d="M105.0373 57.5480
L105.0373 57.0642
" />
<path d="M105.0373 57.0642
L105.0977 56.9432
" />
<path d="M105.0977 56.9432
L105.2187 56.8828
" />
<path d="M105.2187 56.8828
L105.4606 56.8828
" />
<path d="M105.4606 56.8828
L105.5815 56.9432
" />
<path d="M105.5815 56.9432
L105.6420 57.0642
" />
<path d="M105.6420 57.0642
L105.6420 57.1851
" />
<path d="M105.6420 57.1851
L105.0373 57.3061
" />
<path d="M106.1863 57.7294
L106.1863 56.8828
" />
<path d="M106.1863 57.1247
L106.2468 57.0037
" />
<path d="M106.2468 57.0037
L106.3073 56.9432
" />
<path d="M106.3073 56.9432
L106.4282 56.8828
" />
<path d="M106.4282 56.8828
L106.5492 56.8828
" />
</g></g>
<g style="fill:none; 
stroke:#009600; stroke-width:0.1524; stroke-opacity:1; 
stroke-linecap:round; stroke-linejoin:round;">
<path d="M33.0200 38.1000
L33.0200 52.0700
" />
<path d="M63.5000 38.1000
L33.0200 38.1000
" />
<path d="M63.5000 72.3900
L33.0200 72.3900
" />
<path d="M33.0200 72.3900
L33.0200 62.2300
" />
<path d="M63.5000 64.7700
L63.5000 72.3900
" />
<path d="M63.5000 44.4500
L63.5000 38.1000
" />
<path d="M63.5000 72.3900
L88.9000 72.3900
" />
<path d="M73.6600 54.6100
L88.9000 54.6100
" />
<path d="M88.9000 57.1500
L88.9000 72.3900
" />
</g>
<g style="fill:#009600; fill-opacity:1.0000; 
stroke:#009600; stroke-width:0.1524; stroke-opacity:1; 
stroke-linecap:round; stroke-linejoin:round;">
<circle cx="63.5000" cy="72.3900" r="0.4572" /> 
</g> 
</svg>
