<?xml version="1.0" standalone="no"?>
 <!DOCTYPE svg PUBLIC "-//W3C//DTD SVG 1.1//EN" 
 "http://www.w3.org/Graphics/SVG/1.1/DTD/svg11.dtd"> 
<svg
  xmlns:svg="http://www.w3.org/2000/svg"
  xmlns="http://www.w3.org/2000/svg"
  xmlns:xlink="http://www.w3.org/1999/xlink"
  version="1.1"
  width="210.0072mm" height="148.0058mm" viewBox="0.0000 0.0000 210.0072 148.0058">
<title>SVG Image created as schematics.svg date 2025/12/10 23:20:17 </title>
  <desc>Image generated by Eeschema-SVG </desc>
<g style="fill:#000000; fill-opacity:1.0000;stroke:#000000; stroke-opacity:1.0000;
stroke-linecap:round; stroke-linejoin:round;"
 transform="translate(0 0) scale(1 1)">
</g>
<g style="fill:#F5F4EF; fill-opacity:1.0000; 
stroke:#F5F4EF; stroke-width:0.0001; stroke-opacity:1; 
stroke-linecap:round; stroke-linejoin:round;">
<rect x="0.000000" y="0.000000" width="210.007200" height="148.005800" rx="0.000000" />
</g>
<g style="fill:none; 
stroke:#840000; stroke-width:0.1524; stroke-opacity:1; 
stroke-linecap:round; stroke-linejoin:round;">
<path d="M90.0072 104.0058
L198.0072 104.0058
L198.0072 136.0058
L90.0072 136.0058
L90.0072 104.0058
" />
<path d="M10.0000 10.0000
L200.0072 10.0000
L200.0072 138.0058
L10.0000 138.0058
L10.0000 10.0000
" />
<path d="M12.0000 12.0000
L198.0072 12.0000
L198.0072 136.0058
L12.0000 136.0058
L12.0000 12.0000
" />
<path d="M60.0000 12.0000
L60.0000 10.0000
" />
<path d="M110.0000 12.0000
L110.0000 10.0000
" />
<path d="M160.0000 12.0000
L160.0000 10.0000
" />
<text x="35.0000" y="11.6500"
textLength="1.4353" font-size="1.7333" lengthAdjust="spacingAndGlyphs"
text-anchor="start" opacity="0" stroke-opacity="0">1</text>
<g class="stroked-text"><desc>1</desc>
<path d="M36.0906 11.5935
L35.3478 11.5935
" />
<path d="M35.7192 11.5935
L35.7192 10.2935
" />
<path d="M35.7192 10.2935
L35.5954 10.4792
" />
<path d="M35.5954 10.4792
L35.4716 10.6030
" />
<path d="M35.4716 10.6030
L35.3478 10.6649
" />
</g><text x="85.0000" y="11.6500"
textLength="1.4353" font-size="1.7333" lengthAdjust="spacingAndGlyphs"
text-anchor="start" opacity="0" stroke-opacity="0">2</text>
<g class="stroked-text"><desc>2</desc>
<path d="M85.3478 10.4173
L85.4097 10.3554
" />
<path d="M85.4097 10.3554
L85.5335 10.2935
" />
<path d="M85.5335 10.2935
L85.8430 10.2935
" />
<path d="M85.8430 10.2935
L85.9668 10.3554
" />
<path d="M85.9668 10.3554
L86.0287 10.4173
" />
<path d="M86.0287 10.4173
L86.0906 10.5411
" />
<path d="M86.0906 10.5411
L86.0906 10.6649
" />
<path d="M86.0906 10.6649
L86.0287 10.8506
" />
<path d="M86.0287 10.8506
L85.2859 11.5935
" />
<path d="M85.2859 11.5935
L86.0906 11.5935
" />
</g><text x="135.0000" y="11.6500"
textLength="1.4353" font-size="1.7333" lengthAdjust="spacingAndGlyphs"
text-anchor="start" opacity="0" stroke-opacity="0">3</text>
<g class="stroked-text"><desc>3</desc>
<path d="M135.2859 10.2935
L136.0906 10.2935
" />
<path d="M136.0906 10.2935
L135.6573 10.7887
" />
<path d="M135.6573 10.7887
L135.8430 10.7887
" />
<path d="M135.8430 10.7887
L135.9668 10.8506
" />
<path d="M135.9668 10.8506
L136.0287 10.9125
" />
<path d="M136.0287 10.9125
L136.0906 11.0363
" />
<path d="M136.0906 11.0363
L136.0906 11.3458
" />
<path d="M136.0906 11.3458
L136.0287 11.4696
" />
<path d="M136.0287 11.4696
L135.9668 11.5316
" />
<path d="M135.9668 11.5316
L135.8430 11.5935
" />
<path d="M135.8430 11.5935
L135.4716 11.5935
" />
<path d="M135.4716 11.5935
L135.3478 11.5316
" />
<path d="M135.3478 11.5316
L135.2859 11.4696
" />
</g><text x="185.0000" y="11.6500"
textLength="1.4353" font-size="1.7333" lengthAdjust="spacingAndGlyphs"
text-anchor="start" opacity="0" stroke-opacity="0">4</text>
<g class="stroked-text"><desc>4</desc>
<path d="M185.9668 10.7268
L185.9668 11.5935
" />
<path d="M185.6573 10.2316
L185.3478 11.1601
" />
<path d="M185.3478 11.1601
L186.1525 11.1601
" />
</g><path d="M60.0000 136.0058
L60.0000 138.0058
" />
<path d="M110.0000 136.0058
L110.0000 138.0058
" />
<path d="M160.0000 136.0058
L160.0000 138.0058
" />
<text x="35.0000" y="137.6558"
textLength="1.4353" font-size="1.7333" lengthAdjust="spacingAndGlyphs"
text-anchor="start" opacity="0" stroke-opacity="0">1</text>
<g class="stroked-text"><desc>1</desc>
<path d="M36.0906 137.5993
L35.3478 137.5993
" />
<path d="M35.7192 137.5993
L35.7192 136.2993
" />
<path d="M35.7192 136.2993
L35.5954 136.4850
" />
<path d="M35.5954 136.4850
L35.4716 136.6088
" />
<path d="M35.4716 136.6088
L35.3478 136.6707
" />
</g><text x="85.0000" y="137.6558"
textLength="1.4353" font-size="1.7333" lengthAdjust="spacingAndGlyphs"
text-anchor="start" opacity="0" stroke-opacity="0">2</text>
<g class="stroked-text"><desc>2</desc>
<path d="M85.3478 136.4231
L85.4097 136.3612
" />
<path d="M85.4097 136.3612
L85.5335 136.2993
" />
<path d="M85.5335 136.2993
L85.8430 136.2993
" />
<path d="M85.8430 136.2993
L85.9668 136.3612
" />
<path d="M85.9668 136.3612
L86.0287 136.4231
" />
<path d="M86.0287 136.4231
L86.0906 136.5469
" />
<path d="M86.0906 136.5469
L86.0906 136.6707
" />
<path d="M86.0906 136.6707
L86.0287 136.8564
" />
<path d="M86.0287 136.8564
L85.2859 137.5993
" />
<path d="M85.2859 137.5993
L86.0906 137.5993
" />
</g><text x="135.0000" y="137.6558"
textLength="1.4353" font-size="1.7333" lengthAdjust="spacingAndGlyphs"
text-anchor="start" opacity="0" stroke-opacity="0">3</text>
<g class="stroked-text"><desc>3</desc>
<path d="M135.2859 136.2993
L136.0906 136.2993
" />
<path d="M136.0906 136.2993
L135.6573 136.7945
" />
<path d="M135.6573 136.7945
L135.8430 136.7945
" />
<path d="M135.8430 136.7945
L135.9668 136.8564
" />
<path d="M135.9668 136.8564
L136.0287 136.9183
" />
<path d="M136.0287 136.9183
L136.0906 137.0421
" />
<path d="M136.0906 137.0421
L136.0906 137.3516
" />
<path d="M136.0906 137.3516
L136.0287 137.4754
" />
<path d="M136.0287 137.4754
L135.9668 137.5374
" />
<path d="M135.9668 137.5374
L135.8430 137.5993
" />
<path d="M135.8430 137.5993
L135.4716 137.5993
" />
<path d="M135.4716 137.5993
L135.3478 137.5374
" />
<path d="M135.3478 137.5374
L135.2859 137.4754
" />
</g><text x="185.0000" y="137.6558"
textLength="1.4353" font-size="1.7333" lengthAdjust="spacingAndGlyphs"
text-anchor="start" opacity="0" stroke-opacity="0">4</text>
<g class="stroked-text"><desc>4</desc>
<path d="M185.9668 136.7326
L185.9668 137.5993
" />
<path d="M185.6573 136.2374
L185.3478 137.1659
" />
<path d="M185.3478 137.1659
L186.1525 137.1659
" />
</g><path d="M10.0000 60.0000
L12.0000 60.0000
" />
<path d="M10.0000 110.0000
L12.0000 110.0000
" />
<text x="11.0000" y="35.6500"
textLength="1.3115" font-size="1.7333" lengthAdjust="spacingAndGlyphs"
text-anchor="middle" opacity="0" stroke-opacity="0">A</text>
<g class="stroked-text"><desc>A</desc>
<path d="M10.6905 35.2220
L11.3095 35.2220
" />
<path d="M10.5667 35.5935
L11.0000 34.2935
" />
<path d="M11.0000 34.2935
L11.4333 35.5935
" />
</g><text x="11.0000" y="85.6500"
textLength="1.4972" font-size="1.7333" lengthAdjust="spacingAndGlyphs"
text-anchor="middle" opacity="0" stroke-opacity="0">B</text>
<g class="stroked-text"><desc>B</desc>
<path d="M11.0928 84.9125
L11.2785 84.9744
" />
<path d="M11.2785 84.9744
L11.3404 85.0363
" />
<path d="M11.3404 85.0363
L11.4023 85.1601
" />
<path d="M11.4023 85.1601
L11.4023 85.3458
" />
<path d="M11.4023 85.3458
L11.3404 85.4696
" />
<path d="M11.3404 85.4696
L11.2785 85.5316
" />
<path d="M11.2785 85.5316
L11.1547 85.5935
" />
<path d="M11.1547 85.5935
L10.6595 85.5935
" />
<path d="M10.6595 85.5935
L10.6595 84.2935
" />
<path d="M10.6595 84.2935
L11.0928 84.2935
" />
<path d="M11.0928 84.2935
L11.2166 84.3554
" />
<path d="M11.2166 84.3554
L11.2785 84.4173
" />
<path d="M11.2785 84.4173
L11.3404 84.5411
" />
<path d="M11.3404 84.5411
L11.3404 84.6649
" />
<path d="M11.3404 84.6649
L11.2785 84.7887
" />
<path d="M11.2785 84.7887
L11.2166 84.8506
" />
<path d="M11.2166 84.8506
L11.0928 84.9125
" />
<path d="M11.0928 84.9125
L10.6595 84.9125
" />
</g><text x="11.0000" y="135.6500"
textLength="1.4972" font-size="1.7333" lengthAdjust="spacingAndGlyphs"
text-anchor="middle" opacity="0" stroke-opacity="0">C</text>
<g class="stroked-text"><desc>C</desc>
<path d="M11.4023 135.4696
L11.3404 135.5316
" />
<path d="M11.3404 135.5316
L11.1547 135.5935
" />
<path d="M11.1547 135.5935
L11.0309 135.5935
" />
<path d="M11.0309 135.5935
L10.8452 135.5316
" />
<path d="M10.8452 135.5316
L10.7214 135.4077
" />
<path d="M10.7214 135.4077
L10.6595 135.2839
" />
<path d="M10.6595 135.2839
L10.5976 135.0363
" />
<path d="M10.5976 135.0363
L10.5976 134.8506
" />
<path d="M10.5976 134.8506
L10.6595 134.6030
" />
<path d="M10.6595 134.6030
L10.7214 134.4792
" />
<path d="M10.7214 134.4792
L10.8452 134.3554
" />
<path d="M10.8452 134.3554
L11.0309 134.2935
" />
<path d="M11.0309 134.2935
L11.1547 134.2935
" />
<path d="M11.1547 134.2935
L11.3404 134.3554
" />
<path d="M11.3404 134.3554
L11.4023 134.4173
" />
</g><path d="M200.0072 60.0000
L198.0072 60.0000
" />
<path d="M200.0072 110.0000
L198.0072 110.0000
" />
<text x="199.0072" y="35.6500"
textLength="1.3115" font-size="1.7333" lengthAdjust="spacingAndGlyphs"
text-anchor="middle" opacity="0" stroke-opacity="0">A</text>
<g class="stroked-text"><desc>A</desc>
<path d="M198.6977 35.2220
L199.3167 35.2220
" />
<path d="M198.5739 35.5935
L199.0072 34.2935
" />
<path d="M199.0072 34.2935
L199.4405 35.5935
" />
</g><text x="199.0072" y="85.6500"
textLength="1.4972" font-size="1.7333" lengthAdjust="spacingAndGlyphs"
text-anchor="middle" opacity="0" stroke-opacity="0">B</text>
<g class="stroked-text"><desc>B</desc>
<path d="M199.1000 84.9125
L199.2857 84.9744
" />
<path d="M199.2857 84.9744
L199.3476 85.0363
" />
<path d="M199.3476 85.0363
L199.4095 85.1601
" />
<path d="M199.4095 85.1601
L199.4095 85.3458
" />
<path d="M199.4095 85.3458
L199.3476 85.4696
" />
<path d="M199.3476 85.4696
L199.2857 85.5316
" />
<path d="M199.2857 85.5316
L199.1619 85.5935
" />
<path d="M199.1619 85.5935
L198.6667 85.5935
" />
<path d="M198.6667 85.5935
L198.6667 84.2935
" />
<path d="M198.6667 84.2935
L199.1000 84.2935
" />
<path d="M199.1000 84.2935
L199.2238 84.3554
" />
<path d="M199.2238 84.3554
L199.2857 84.4173
" />
<path d="M199.2857 84.4173
L199.3476 84.5411
" />
<path d="M199.3476 84.5411
L199.3476 84.6649
" />
<path d="M199.3476 84.6649
L199.2857 84.7887
" />
<path d="M199.2857 84.7887
L199.2238 84.8506
" />
<path d="M199.2238 84.8506
L199.1000 84.9125
" />
<path d="M199.1000 84.9125
L198.6667 84.9125
" />
</g><text x="199.0072" y="135.6500"
textLength="1.4972" font-size="1.7333" lengthAdjust="spacingAndGlyphs"
text-anchor="middle" opacity="0" stroke-opacity="0">C</text>
<g class="stroked-text"><desc>C</desc>
<path d="M199.4095 135.4696
L199.3476 135.5316
" />
<path d="M199.3476 135.5316
L199.1619 135.5935
" />
<path d="M199.1619 135.5935
L199.0381 135.5935
" />
<path d="M199.0381 135.5935
L198.8524 135.5316
" />
<path d="M198.8524 135.5316
L198.7286 135.4077
" />
<path d="M198.7286 135.4077
L198.6667 135.2839
" />
<path d="M198.6667 135.2839
L198.6048 135.0363
" />
<path d="M198.6048 135.0363
L198.6048 134.8506
" />
<path d="M198.6048 134.8506
L198.6667 134.6030
" />
<path d="M198.6667 134.6030
L198.7286 134.4792
" />
<path d="M198.7286 134.4792
L198.8524 134.3554
" />
<path d="M198.8524 134.3554
L199.0381 134.2935
" />
<path d="M199.0381 134.2935
L199.1619 134.2935
" />
<path d="M199.1619 134.2935
L199.3476 134.3554
" />
<path d="M199.3476 134.3554
L199.4095 134.4173
" />
</g><text x="113.0072" y="131.8558"
textLength="7.0143" font-size="2.0000" lengthAdjust="spacingAndGlyphs"
text-anchor="start" opacity="0" stroke-opacity="0">Date: </text>
<g class="stroked-text"><desc>Date: </desc>
<path d="M113.4645 131.7917
L113.4645 130.2917
" />
<path d="M113.4645 130.2917
L113.8216 130.2917
" />
<path d="M113.8216 130.2917
L114.0359 130.3631
" />
<path d="M114.0359 130.3631
L114.1788 130.5060
" />
<path d="M114.1788 130.5060
L114.2502 130.6488
" />
<path d="M114.2502 130.6488
L114.3216 130.9345
" />
<path d="M114.3216 130.9345
L114.3216 131.1488
" />
<path d="M114.3216 131.1488
L114.2502 131.4345
" />
<path d="M114.2502 131.4345
L114.1788 131.5774
" />
<path d="M114.1788 131.5774
L114.0359 131.7203
" />
<path d="M114.0359 131.7203
L113.8216 131.7917
" />
<path d="M113.8216 131.7917
L113.4645 131.7917
" />
<path d="M115.6074 131.7917
L115.6074 131.0060
" />
<path d="M115.6074 131.0060
L115.5359 130.8631
" />
<path d="M115.5359 130.8631
L115.3931 130.7917
" />
<path d="M115.3931 130.7917
L115.1074 130.7917
" />
<path d="M115.1074 130.7917
L114.9645 130.8631
" />
<path d="M115.6074 131.7203
L115.4645 131.7917
" />
<path d="M115.4645 131.7917
L115.1074 131.7917
" />
<path d="M115.1074 131.7917
L114.9645 131.7203
" />
<path d="M114.9645 131.7203
L114.8931 131.5774
" />
<path d="M114.8931 131.5774
L114.8931 131.4345
" />
<path d="M114.8931 131.4345
L114.9645 131.2917
" />
<path d="M114.9645 131.2917
L115.1074 131.2203
" />
<path d="M115.1074 131.2203
L115.4645 131.2203
" />
<path d="M115.4645 131.2203
L115.6074 131.1488
" />
<path d="M116.1073 130.7917
L116.6787 130.7917
" />
<path d="M116.3216 130.2917
L116.3216 131.5774
" />
<path d="M116.3216 131.5774
L116.3930 131.7203
" />
<path d="M116.3930 131.7203
L116.5359 131.7917
" />
<path d="M116.5359 131.7917
L116.6787 131.7917
" />
<path d="M117.7501 131.7203
L117.6073 131.7917
" />
<path d="M117.6073 131.7917
L117.3216 131.7917
" />
<path d="M117.3216 131.7917
L117.1787 131.7203
" />
<path d="M117.1787 131.7203
L117.1073 131.5774
" />
<path d="M117.1073 131.5774
L117.1073 131.0060
" />
<path d="M117.1073 131.0060
L117.1787 130.8631
" />
<path d="M117.1787 130.8631
L117.3216 130.7917
" />
<path d="M117.3216 130.7917
L117.6073 130.7917
" />
<path d="M117.6073 130.7917
L117.7501 130.8631
" />
<path d="M117.7501 130.8631
L117.8216 131.0060
" />
<path d="M117.8216 131.0060
L117.8216 131.1488
" />
<path d="M117.8216 131.1488
L117.1073 131.2917
" />
<path d="M118.4644 131.6488
L118.5358 131.7203
" />
<path d="M118.5358 131.7203
L118.4644 131.7917
" />
<path d="M118.4644 131.7917
L118.3930 131.7203
" />
<path d="M118.3930 131.7203
L118.4644 131.6488
" />
<path d="M118.4644 131.6488
L118.4644 131.7917
" />
<path d="M118.4644 130.8631
L118.5358 130.9345
" />
<path d="M118.5358 130.9345
L118.4644 131.0060
" />
<path d="M118.4644 131.0060
L118.3930 130.9345
" />
<path d="M118.3930 130.9345
L118.4644 130.8631
" />
<path d="M118.4644 130.8631
L118.4644 131.0060
" />
</g><path d="M90.0072 132.5058
L198.0072 132.5058
" />
<text x="91.0072" y="134.6558"
textLength="20.8716" font-size="2.0000" lengthAdjust="spacingAndGlyphs"
text-anchor="start" opacity="0" stroke-opacity="0">KiCad E.D.A. 9.0.3</text>
<g class="stroked-text"><desc>KiCad E.D.A. 9.0.3</desc>
<path d="M91.4645 134.5917
L91.4645 133.0917
" />
<path d="M92.3216 134.5917
L91.6788 133.7345
" />
<path d="M92.3216 133.0917
L91.4645 133.9488
" />
<path d="M92.9645 134.5917
L92.9645 133.5917
" />
<path d="M92.9645 133.0917
L92.8931 133.1631
" />
<path d="M92.8931 133.1631
L92.9645 133.2345
" />
<path d="M92.9645 133.2345
L93.0359 133.1631
" />
<path d="M93.0359 133.1631
L92.9645 133.0917
" />
<path d="M92.9645 133.0917
L92.9645 133.2345
" />
<path d="M94.5359 134.4488
L94.4645 134.5203
" />
<path d="M94.4645 134.5203
L94.2502 134.5917
" />
<path d="M94.2502 134.5917
L94.1074 134.5917
" />
<path d="M94.1074 134.5917
L93.8931 134.5203
" />
<path d="M93.8931 134.5203
L93.7502 134.3774
" />
<path d="M93.7502 134.3774
L93.6788 134.2345
" />
<path d="M93.6788 134.2345
L93.6074 133.9488
" />
<path d="M93.6074 133.9488
L93.6074 133.7345
" />
<path d="M93.6074 133.7345
L93.6788 133.4488
" />
<path d="M93.6788 133.4488
L93.7502 133.3060
" />
<path d="M93.7502 133.3060
L93.8931 133.1631
" />
<path d="M93.8931 133.1631
L94.1074 133.0917
" />
<path d="M94.1074 133.0917
L94.2502 133.0917
" />
<path d="M94.2502 133.0917
L94.4645 133.1631
" />
<path d="M94.4645 133.1631
L94.5359 133.2345
" />
<path d="M95.8217 134.5917
L95.8217 133.8060
" />
<path d="M95.8217 133.8060
L95.7502 133.6631
" />
<path d="M95.7502 133.6631
L95.6074 133.5917
" />
<path d="M95.6074 133.5917
L95.3217 133.5917
" />
<path d="M95.3217 133.5917
L95.1788 133.6631
" />
<path d="M95.8217 134.5203
L95.6788 134.5917
" />
<path d="M95.6788 134.5917
L95.3217 134.5917
" />
<path d="M95.3217 134.5917
L95.1788 134.5203
" />
<path d="M95.1788 134.5203
L95.1074 134.3774
" />
<path d="M95.1074 134.3774
L95.1074 134.2345
" />
<path d="M95.1074 134.2345
L95.1788 134.0917
" />
<path d="M95.1788 134.0917
L95.3217 134.0203
" />
<path d="M95.3217 134.0203
L95.6788 134.0203
" />
<path d="M95.6788 134.0203
L95.8217 133.9488
" />
<path d="M97.1788 134.5917
L97.1788 133.0917
" />
<path d="M97.1788 134.5203
L97.0359 134.5917
" />
<path d="M97.0359 134.5917
L96.7502 134.5917
" />
<path d="M96.7502 134.5917
L96.6073 134.5203
" />
<path d="M96.6073 134.5203
L96.5359 134.4488
" />
<path d="M96.5359 134.4488
L96.4645 134.3060
" />
<path d="M96.4645 134.3060
L96.4645 133.8774
" />
<path d="M96.4645 133.8774
L96.5359 133.7345
" />
<path d="M96.5359 133.7345
L96.6073 133.6631
" />
<path d="M96.6073 133.6631
L96.7502 133.5917
" />
<path d="M96.7502 133.5917
L97.0359 133.5917
" />
<path d="M97.0359 133.5917
L97.1788 133.6631
" />
<path d="M99.0359 133.8060
L99.5359 133.8060
" />
<path d="M99.7502 134.5917
L99.0359 134.5917
" />
<path d="M99.0359 134.5917
L99.0359 133.0917
" />
<path d="M99.0359 133.0917
L99.7502 133.0917
" />
<path d="M100.3930 134.4488
L100.4644 134.5203
" />
<path d="M100.4644 134.5203
L100.3930 134.5917
" />
<path d="M100.3930 134.5917
L100.3216 134.5203
" />
<path d="M100.3216 134.5203
L100.3930 134.4488
" />
<path d="M100.3930 134.4488
L100.3930 134.5917
" />
<path d="M101.1073 134.5917
L101.1073 133.0917
" />
<path d="M101.1073 133.0917
L101.4644 133.0917
" />
<path d="M101.4644 133.0917
L101.6787 133.1631
" />
<path d="M101.6787 133.1631
L101.8216 133.3060
" />
<path d="M101.8216 133.3060
L101.8930 133.4488
" />
<path d="M101.8930 133.4488
L101.9644 133.7345
" />
<path d="M101.9644 133.7345
L101.9644 133.9488
" />
<path d="M101.9644 133.9488
L101.8930 134.2345
" />
<path d="M101.8930 134.2345
L101.8216 134.3774
" />
<path d="M101.8216 134.3774
L101.6787 134.5203
" />
<path d="M101.6787 134.5203
L101.4644 134.5917
" />
<path d="M101.4644 134.5917
L101.1073 134.5917
" />
<path d="M102.6073 134.4488
L102.6787 134.5203
" />
<path d="M102.6787 134.5203
L102.6073 134.5917
" />
<path d="M102.6073 134.5917
L102.5359 134.5203
" />
<path d="M102.5359 134.5203
L102.6073 134.4488
" />
<path d="M102.6073 134.4488
L102.6073 134.5917
" />
<path d="M103.2502 134.1631
L103.9645 134.1631
" />
<path d="M103.1073 134.5917
L103.6073 133.0917
" />
<path d="M103.6073 133.0917
L104.1073 134.5917
" />
<path d="M104.6073 134.4488
L104.6787 134.5203
" />
<path d="M104.6787 134.5203
L104.6073 134.5917
" />
<path d="M104.6073 134.5917
L104.5359 134.5203
" />
<path d="M104.5359 134.5203
L104.6073 134.4488
" />
<path d="M104.6073 134.4488
L104.6073 134.5917
" />
<path d="M106.5359 134.5917
L106.8216 134.5917
" />
<path d="M106.8216 134.5917
L106.9645 134.5203
" />
<path d="M106.9645 134.5203
L107.0359 134.4488
" />
<path d="M107.0359 134.4488
L107.1788 134.2345
" />
<path d="M107.1788 134.2345
L107.2502 133.9488
" />
<path d="M107.2502 133.9488
L107.2502 133.3774
" />
<path d="M107.2502 133.3774
L107.1788 133.2345
" />
<path d="M107.1788 133.2345
L107.1074 133.1631
" />
<path d="M107.1074 133.1631
L106.9645 133.0917
" />
<path d="M106.9645 133.0917
L106.6788 133.0917
" />
<path d="M106.6788 133.0917
L106.5359 133.1631
" />
<path d="M106.5359 133.1631
L106.4645 133.2345
" />
<path d="M106.4645 133.2345
L106.3931 133.3774
" />
<path d="M106.3931 133.3774
L106.3931 133.7345
" />
<path d="M106.3931 133.7345
L106.4645 133.8774
" />
<path d="M106.4645 133.8774
L106.5359 133.9488
" />
<path d="M106.5359 133.9488
L106.6788 134.0203
" />
<path d="M106.6788 134.0203
L106.9645 134.0203
" />
<path d="M106.9645 134.0203
L107.1074 133.9488
" />
<path d="M107.1074 133.9488
L107.1788 133.8774
" />
<path d="M107.1788 133.8774
L107.2502 133.7345
" />
<path d="M107.8931 134.4488
L107.9645 134.5203
" />
<path d="M107.9645 134.5203
L107.8931 134.5917
" />
<path d="M107.8931 134.5917
L107.8217 134.5203
" />
<path d="M107.8217 134.5203
L107.8931 134.4488
" />
<path d="M107.8931 134.4488
L107.8931 134.5917
" />
<path d="M108.8931 133.0917
L109.0360 133.0917
" />
<path d="M109.0360 133.0917
L109.1788 133.1631
" />
<path d="M109.1788 133.1631
L109.2503 133.2345
" />
<path d="M109.2503 133.2345
L109.3217 133.3774
" />
<path d="M109.3217 133.3774
L109.3931 133.6631
" />
<path d="M109.3931 133.6631
L109.3931 134.0203
" />
<path d="M109.3931 134.0203
L109.3217 134.3060
" />
<path d="M109.3217 134.3060
L109.2503 134.4488
" />
<path d="M109.2503 134.4488
L109.1788 134.5203
" />
<path d="M109.1788 134.5203
L109.0360 134.5917
" />
<path d="M109.0360 134.5917
L108.8931 134.5917
" />
<path d="M108.8931 134.5917
L108.7503 134.5203
" />
<path d="M108.7503 134.5203
L108.6788 134.4488
" />
<path d="M108.6788 134.4488
L108.6074 134.3060
" />
<path d="M108.6074 134.3060
L108.5360 134.0203
" />
<path d="M108.5360 134.0203
L108.5360 133.6631
" />
<path d="M108.5360 133.6631
L108.6074 133.3774
" />
<path d="M108.6074 133.3774
L108.6788 133.2345
" />
<path d="M108.6788 133.2345
L108.7503 133.1631
" />
<path d="M108.7503 133.1631
L108.8931 133.0917
" />
<path d="M110.0360 134.4488
L110.1074 134.5203
" />
<path d="M110.1074 134.5203
L110.0360 134.5917
" />
<path d="M110.0360 134.5917
L109.9646 134.5203
" />
<path d="M109.9646 134.5203
L110.0360 134.4488
" />
<path d="M110.0360 134.4488
L110.0360 134.5917
" />
<path d="M110.6074 133.0917
L111.5360 133.0917
" />
<path d="M111.5360 133.0917
L111.0360 133.6631
" />
<path d="M111.0360 133.6631
L111.2503 133.6631
" />
<path d="M111.2503 133.6631
L111.3932 133.7345
" />
<path d="M111.3932 133.7345
L111.4646 133.8060
" />
<path d="M111.4646 133.8060
L111.5360 133.9488
" />
<path d="M111.5360 133.9488
L111.5360 134.3060
" />
<path d="M111.5360 134.3060
L111.4646 134.4488
" />
<path d="M111.4646 134.4488
L111.3932 134.5203
" />
<path d="M111.3932 134.5203
L111.2503 134.5917
" />
<path d="M111.2503 134.5917
L110.8217 134.5917
" />
<path d="M110.8217 134.5917
L110.6789 134.5203
" />
<path d="M110.6789 134.5203
L110.6074 134.4488
" />
</g><path d="M90.0072 129.5058
L198.0072 129.5058
" />
</g>
<g style="fill:none; 
stroke:#840000; stroke-width:0.3000; stroke-opacity:1; 
stroke-linecap:round; stroke-linejoin:round;">
<text x="176.0072" y="131.8558"
textLength="6.3858" font-size="2.0000" lengthAdjust="spacingAndGlyphs"
text-anchor="start" opacity="0" stroke-opacity="0">Rev: </text>
<g class="stroked-text"><desc>Rev: </desc>
<path d="M177.4187 131.7841
L176.9187 131.0698
" />
<path d="M176.5616 131.7841
L176.5616 130.2841
" />
<path d="M176.5616 130.2841
L177.1330 130.2841
" />
<path d="M177.1330 130.2841
L177.2759 130.3555
" />
<path d="M177.2759 130.3555
L177.3473 130.4269
" />
<path d="M177.3473 130.4269
L177.4187 130.5698
" />
<path d="M177.4187 130.5698
L177.4187 130.7841
" />
<path d="M177.4187 130.7841
L177.3473 130.9269
" />
<path d="M177.3473 130.9269
L177.2759 130.9984
" />
<path d="M177.2759 130.9984
L177.1330 131.0698
" />
<path d="M177.1330 131.0698
L176.5616 131.0698
" />
<path d="M178.6330 131.7127
L178.4902 131.7841
" />
<path d="M178.4902 131.7841
L178.2045 131.7841
" />
<path d="M178.2045 131.7841
L178.0616 131.7127
" />
<path d="M178.0616 131.7127
L177.9902 131.5698
" />
<path d="M177.9902 131.5698
L177.9902 130.9984
" />
<path d="M177.9902 130.9984
L178.0616 130.8555
" />
<path d="M178.0616 130.8555
L178.2045 130.7841
" />
<path d="M178.2045 130.7841
L178.4902 130.7841
" />
<path d="M178.4902 130.7841
L178.6330 130.8555
" />
<path d="M178.6330 130.8555
L178.7045 130.9984
" />
<path d="M178.7045 130.9984
L178.7045 131.1412
" />
<path d="M178.7045 131.1412
L177.9902 131.2841
" />
<path d="M179.2044 130.7841
L179.5616 131.7841
" />
<path d="M179.5616 131.7841
L179.9187 130.7841
" />
<path d="M180.4902 131.6412
L180.5616 131.7127
" />
<path d="M180.5616 131.7127
L180.4902 131.7841
" />
<path d="M180.4902 131.7841
L180.4188 131.7127
" />
<path d="M180.4188 131.7127
L180.4902 131.6412
" />
<path d="M180.4902 131.6412
L180.4902 131.7841
" />
<path d="M180.4902 130.8555
L180.5616 130.9269
" />
<path d="M180.5616 130.9269
L180.4902 130.9984
" />
<path d="M180.4902 130.9984
L180.4188 130.9269
" />
<path d="M180.4188 130.9269
L180.4902 130.8555
" />
<path d="M180.4902 130.8555
L180.4902 130.9984
" />
</g></g>
<g style="fill:none; 
stroke:#840000; stroke-width:0.1524; stroke-opacity:1; 
stroke-linecap:round; stroke-linejoin:round;">
<text x="91.0072" y="131.8558"
textLength="9.3716" font-size="2.0000" lengthAdjust="spacingAndGlyphs"
text-anchor="start" opacity="0" stroke-opacity="0">Size: A5</text>
<g class="stroked-text"><desc>Size: A5</desc>
<path d="M91.3931 131.7203
L91.6074 131.7917
" />
<path d="M91.6074 131.7917
L91.9645 131.7917
" />
<path d="M91.9645 131.7917
L92.1074 131.7203
" />
<path d="M92.1074 131.7203
L92.1788 131.6488
" />
<path d="M92.1788 131.6488
L92.2502 131.5060
" />
<path d="M92.2502 131.5060
L92.2502 131.3631
" />
<path d="M92.2502 131.3631
L92.1788 131.2203
" />
<path d="M92.1788 131.2203
L92.1074 131.1488
" />
<path d="M92.1074 131.1488
L91.9645 131.0774
" />
<path d="M91.9645 131.0774
L91.6788 131.0060
" />
<path d="M91.6788 131.0060
L91.5359 130.9345
" />
<path d="M91.5359 130.9345
L91.4645 130.8631
" />
<path d="M91.4645 130.8631
L91.3931 130.7203
" />
<path d="M91.3931 130.7203
L91.3931 130.5774
" />
<path d="M91.3931 130.5774
L91.4645 130.4345
" />
<path d="M91.4645 130.4345
L91.5359 130.3631
" />
<path d="M91.5359 130.3631
L91.6788 130.2917
" />
<path d="M91.6788 130.2917
L92.0359 130.2917
" />
<path d="M92.0359 130.2917
L92.2502 130.3631
" />
<path d="M92.8931 131.7917
L92.8931 130.7917
" />
<path d="M92.8931 130.2917
L92.8217 130.3631
" />
<path d="M92.8217 130.3631
L92.8931 130.4345
" />
<path d="M92.8931 130.4345
L92.9645 130.3631
" />
<path d="M92.9645 130.3631
L92.8931 130.2917
" />
<path d="M92.8931 130.2917
L92.8931 130.4345
" />
<path d="M93.4645 130.7917
L94.2503 130.7917
" />
<path d="M94.2503 130.7917
L93.4645 131.7917
" />
<path d="M93.4645 131.7917
L94.2503 131.7917
" />
<path d="M95.3931 131.7203
L95.2503 131.7917
" />
<path d="M95.2503 131.7917
L94.9646 131.7917
" />
<path d="M94.9646 131.7917
L94.8217 131.7203
" />
<path d="M94.8217 131.7203
L94.7503 131.5774
" />
<path d="M94.7503 131.5774
L94.7503 131.0060
" />
<path d="M94.7503 131.0060
L94.8217 130.8631
" />
<path d="M94.8217 130.8631
L94.9646 130.7917
" />
<path d="M94.9646 130.7917
L95.2503 130.7917
" />
<path d="M95.2503 130.7917
L95.3931 130.8631
" />
<path d="M95.3931 130.8631
L95.4646 131.0060
" />
<path d="M95.4646 131.0060
L95.4646 131.1488
" />
<path d="M95.4646 131.1488
L94.7503 131.2917
" />
<path d="M96.1074 131.6488
L96.1788 131.7203
" />
<path d="M96.1788 131.7203
L96.1074 131.7917
" />
<path d="M96.1074 131.7917
L96.0360 131.7203
" />
<path d="M96.0360 131.7203
L96.1074 131.6488
" />
<path d="M96.1074 131.6488
L96.1074 131.7917
" />
<path d="M96.1074 130.8631
L96.1788 130.9345
" />
<path d="M96.1788 130.9345
L96.1074 131.0060
" />
<path d="M96.1074 131.0060
L96.0360 130.9345
" />
<path d="M96.0360 130.9345
L96.1074 130.8631
" />
<path d="M96.1074 130.8631
L96.1074 131.0060
" />
<path d="M97.8932 131.3631
L98.6075 131.3631
" />
<path d="M97.7503 131.7917
L98.2503 130.2917
" />
<path d="M98.2503 130.2917
L98.7503 131.7917
" />
<path d="M99.9646 130.2917
L99.2503 130.2917
" />
<path d="M99.2503 130.2917
L99.1789 131.0060
" />
<path d="M99.1789 131.0060
L99.2503 130.9345
" />
<path d="M99.2503 130.9345
L99.3932 130.8631
" />
<path d="M99.3932 130.8631
L99.7503 130.8631
" />
<path d="M99.7503 130.8631
L99.8932 130.9345
" />
<path d="M99.8932 130.9345
L99.9646 131.0060
" />
<path d="M99.9646 131.0060
L100.0360 131.1488
" />
<path d="M100.0360 131.1488
L100.0360 131.5060
" />
<path d="M100.0360 131.5060
L99.9646 131.6488
" />
<path d="M99.9646 131.6488
L99.8932 131.7203
" />
<path d="M99.8932 131.7203
L99.7503 131.7917
" />
<path d="M99.7503 131.7917
L99.3932 131.7917
" />
<path d="M99.3932 131.7917
L99.2503 131.7203
" />
<path d="M99.2503 131.7203
L99.1789 131.6488
" />
</g><text x="176.0072" y="134.6558"
textLength="8.5144" font-size="2.0000" lengthAdjust="spacingAndGlyphs"
text-anchor="start" opacity="0" stroke-opacity="0">Id: 1/1</text>
<g class="stroked-text"><desc>Id: 1/1</desc>
<path d="M176.4645 134.5917
L176.4645 133.0917
" />
<path d="M177.8217 134.5917
L177.8217 133.0917
" />
<path d="M177.8217 134.5203
L177.6788 134.5917
" />
<path d="M177.6788 134.5917
L177.3931 134.5917
" />
<path d="M177.3931 134.5917
L177.2502 134.5203
" />
<path d="M177.2502 134.5203
L177.1788 134.4488
" />
<path d="M177.1788 134.4488
L177.1074 134.3060
" />
<path d="M177.1074 134.3060
L177.1074 133.8774
" />
<path d="M177.1074 133.8774
L177.1788 133.7345
" />
<path d="M177.1788 133.7345
L177.2502 133.6631
" />
<path d="M177.2502 133.6631
L177.3931 133.5917
" />
<path d="M177.3931 133.5917
L177.6788 133.5917
" />
<path d="M177.6788 133.5917
L177.8217 133.6631
" />
<path d="M178.5359 134.4488
L178.6073 134.5203
" />
<path d="M178.6073 134.5203
L178.5359 134.5917
" />
<path d="M178.5359 134.5917
L178.4645 134.5203
" />
<path d="M178.4645 134.5203
L178.5359 134.4488
" />
<path d="M178.5359 134.4488
L178.5359 134.5917
" />
<path d="M178.5359 133.6631
L178.6073 133.7345
" />
<path d="M178.6073 133.7345
L178.5359 133.8060
" />
<path d="M178.5359 133.8060
L178.4645 133.7345
" />
<path d="M178.4645 133.7345
L178.5359 133.6631
" />
<path d="M178.5359 133.6631
L178.5359 133.8060
" />
<path d="M181.1788 134.5917
L180.3217 134.5917
" />
<path d="M180.7502 134.5917
L180.7502 133.0917
" />
<path d="M180.7502 133.0917
L180.6074 133.3060
" />
<path d="M180.6074 133.3060
L180.4645 133.4488
" />
<path d="M180.4645 133.4488
L180.3217 133.5203
" />
<path d="M182.8931 133.0203
L181.6074 134.9488
" />
<path d="M184.1788 134.5917
L183.3217 134.5917
" />
<path d="M183.7502 134.5917
L183.7502 133.0917
" />
<path d="M183.7502 133.0917
L183.6074 133.3060
" />
<path d="M183.6074 133.3060
L183.4645 133.4488
" />
<path d="M183.4645 133.4488
L183.3217 133.5203
" />
</g><path d="M90.0072 125.5058
L198.0072 125.5058
" />
</g>
<g style="fill:none; 
stroke:#840000; stroke-width:0.4000; stroke-opacity:1; 
stroke-linecap:round; stroke-linejoin:round;">
<text x="91.0072" y="128.3058"
textLength="9.6572" font-size="2.6666" lengthAdjust="spacingAndGlyphs"
text-anchor="start" opacity="0" stroke-opacity="0">Title: </text>
<g class="stroked-text"><desc>Title: </desc>
<path d="M91.6988 126.2102
L92.8417 126.2102
" />
<path d="M92.0203 128.2102
L92.2703 126.2102
" />
<path d="M93.2583 128.2102
L93.4250 126.8769
" />
<path d="M93.5083 126.2102
L93.4012 126.3054
" />
<path d="M93.4012 126.3054
L93.4845 126.4007
" />
<path d="M93.4845 126.4007
L93.5917 126.3054
" />
<path d="M93.5917 126.3054
L93.5083 126.2102
" />
<path d="M93.5083 126.2102
L93.4845 126.4007
" />
<path d="M94.0917 126.8769
L94.8536 126.8769
" />
<path d="M94.4607 126.2102
L94.2465 127.9245
" />
<path d="M94.2465 127.9245
L94.3179 128.1150
" />
<path d="M94.3179 128.1150
L94.4965 128.2102
" />
<path d="M94.4965 128.2102
L94.6869 128.2102
" />
<path d="M95.6394 128.2102
L95.4608 128.1150
" />
<path d="M95.4608 128.1150
L95.3894 127.9245
" />
<path d="M95.3894 127.9245
L95.6036 126.2102
" />
<path d="M97.1750 128.1150
L96.9727 128.2102
" />
<path d="M96.9727 128.2102
L96.5917 128.2102
" />
<path d="M96.5917 128.2102
L96.4131 128.1150
" />
<path d="M96.4131 128.1150
L96.3417 127.9245
" />
<path d="M96.3417 127.9245
L96.4370 127.1626
" />
<path d="M96.4370 127.1626
L96.5560 126.9721
" />
<path d="M96.5560 126.9721
L96.7584 126.8769
" />
<path d="M96.7584 126.8769
L97.1393 126.8769
" />
<path d="M97.1393 126.8769
L97.3179 126.9721
" />
<path d="M97.3179 126.9721
L97.3893 127.1626
" />
<path d="M97.3893 127.1626
L97.3655 127.3530
" />
<path d="M97.3655 127.3530
L96.3893 127.5435
" />
<path d="M98.1393 128.0197
L98.2227 128.1150
" />
<path d="M98.2227 128.1150
L98.1155 128.2102
" />
<path d="M98.1155 128.2102
L98.0322 128.1150
" />
<path d="M98.0322 128.1150
L98.1393 128.0197
" />
<path d="M98.1393 128.0197
L98.1155 128.2102
" />
<path d="M98.2703 126.9721
L98.3536 127.0673
" />
<path d="M98.3536 127.0673
L98.2465 127.1626
" />
<path d="M98.2465 127.1626
L98.1632 127.0673
" />
<path d="M98.1632 127.0673
L98.2703 126.9721
" />
<path d="M98.2703 126.9721
L98.2465 127.1626
" />
</g></g>
<g style="fill:none; 
stroke:#840000; stroke-width:0.1524; stroke-opacity:1; 
stroke-linecap:round; stroke-linejoin:round;">
<text x="91.0072" y="124.4558"
textLength="30.2999" font-size="2.0000" lengthAdjust="spacingAndGlyphs"
text-anchor="start" opacity="0" stroke-opacity="0">File: schematics.kicad_sch</text>
<g class="stroked-text"><desc>File: schematics.kicad_sch</desc>
<path d="M91.9645 123.6060
L91.4645 123.6060
" />
<path d="M91.4645 124.3917
L91.4645 122.8917
" />
<path d="M91.4645 122.8917
L92.1788 122.8917
" />
<path d="M92.7502 124.3917
L92.7502 123.3917
" />
<path d="M92.7502 122.8917
L92.6788 122.9631
" />
<path d="M92.6788 122.9631
L92.7502 123.0345
" />
<path d="M92.7502 123.0345
L92.8216 122.9631
" />
<path d="M92.8216 122.9631
L92.7502 122.8917
" />
<path d="M92.7502 122.8917
L92.7502 123.0345
" />
<path d="M93.6788 124.3917
L93.5359 124.3203
" />
<path d="M93.5359 124.3203
L93.4645 124.1774
" />
<path d="M93.4645 124.1774
L93.4645 122.8917
" />
<path d="M94.8216 124.3203
L94.6788 124.3917
" />
<path d="M94.6788 124.3917
L94.3931 124.3917
" />
<path d="M94.3931 124.3917
L94.2502 124.3203
" />
<path d="M94.2502 124.3203
L94.1788 124.1774
" />
<path d="M94.1788 124.1774
L94.1788 123.6060
" />
<path d="M94.1788 123.6060
L94.2502 123.4631
" />
<path d="M94.2502 123.4631
L94.3931 123.3917
" />
<path d="M94.3931 123.3917
L94.6788 123.3917
" />
<path d="M94.6788 123.3917
L94.8216 123.4631
" />
<path d="M94.8216 123.4631
L94.8931 123.6060
" />
<path d="M94.8931 123.6060
L94.8931 123.7488
" />
<path d="M94.8931 123.7488
L94.1788 123.8917
" />
<path d="M95.5359 124.2488
L95.6073 124.3203
" />
<path d="M95.6073 124.3203
L95.5359 124.3917
" />
<path d="M95.5359 124.3917
L95.4645 124.3203
" />
<path d="M95.4645 124.3203
L95.5359 124.2488
" />
<path d="M95.5359 124.2488
L95.5359 124.3917
" />
<path d="M95.5359 123.4631
L95.6073 123.5345
" />
<path d="M95.6073 123.5345
L95.5359 123.6060
" />
<path d="M95.5359 123.6060
L95.4645 123.5345
" />
<path d="M95.4645 123.5345
L95.5359 123.4631
" />
<path d="M95.5359 123.4631
L95.5359 123.6060
" />
<path d="M97.3217 124.3203
L97.4645 124.3917
" />
<path d="M97.4645 124.3917
L97.7502 124.3917
" />
<path d="M97.7502 124.3917
L97.8931 124.3203
" />
<path d="M97.8931 124.3203
L97.9645 124.1774
" />
<path d="M97.9645 124.1774
L97.9645 124.1060
" />
<path d="M97.9645 124.1060
L97.8931 123.9631
" />
<path d="M97.8931 123.9631
L97.7502 123.8917
" />
<path d="M97.7502 123.8917
L97.5360 123.8917
" />
<path d="M97.5360 123.8917
L97.3931 123.8203
" />
<path d="M97.3931 123.8203
L97.3217 123.6774
" />
<path d="M97.3217 123.6774
L97.3217 123.6060
" />
<path d="M97.3217 123.6060
L97.3931 123.4631
" />
<path d="M97.3931 123.4631
L97.5360 123.3917
" />
<path d="M97.5360 123.3917
L97.7502 123.3917
" />
<path d="M97.7502 123.3917
L97.8931 123.4631
" />
<path d="M99.2503 124.3203
L99.1074 124.3917
" />
<path d="M99.1074 124.3917
L98.8217 124.3917
" />
<path d="M98.8217 124.3917
L98.6788 124.3203
" />
<path d="M98.6788 124.3203
L98.6074 124.2488
" />
<path d="M98.6074 124.2488
L98.5360 124.1060
" />
<path d="M98.5360 124.1060
L98.5360 123.6774
" />
<path d="M98.5360 123.6774
L98.6074 123.5345
" />
<path d="M98.6074 123.5345
L98.6788 123.4631
" />
<path d="M98.6788 123.4631
L98.8217 123.3917
" />
<path d="M98.8217 123.3917
L99.1074 123.3917
" />
<path d="M99.1074 123.3917
L99.2503 123.4631
" />
<path d="M99.8931 124.3917
L99.8931 122.8917
" />
<path d="M100.5360 124.3917
L100.5360 123.6060
" />
<path d="M100.5360 123.6060
L100.4645 123.4631
" />
<path d="M100.4645 123.4631
L100.3217 123.3917
" />
<path d="M100.3217 123.3917
L100.1074 123.3917
" />
<path d="M100.1074 123.3917
L99.9645 123.4631
" />
<path d="M99.9645 123.4631
L99.8931 123.5345
" />
<path d="M101.8216 124.3203
L101.6788 124.3917
" />
<path d="M101.6788 124.3917
L101.3931 124.3917
" />
<path d="M101.3931 124.3917
L101.2502 124.3203
" />
<path d="M101.2502 124.3203
L101.1788 124.1774
" />
<path d="M101.1788 124.1774
L101.1788 123.6060
" />
<path d="M101.1788 123.6060
L101.2502 123.4631
" />
<path d="M101.2502 123.4631
L101.3931 123.3917
" />
<path d="M101.3931 123.3917
L101.6788 123.3917
" />
<path d="M101.6788 123.3917
L101.8216 123.4631
" />
<path d="M101.8216 123.4631
L101.8931 123.6060
" />
<path d="M101.8931 123.6060
L101.8931 123.7488
" />
<path d="M101.8931 123.7488
L101.1788 123.8917
" />
<path d="M102.5359 124.3917
L102.5359 123.3917
" />
<path d="M102.5359 123.5345
L102.6073 123.4631
" />
<path d="M102.6073 123.4631
L102.7502 123.3917
" />
<path d="M102.7502 123.3917
L102.9645 123.3917
" />
<path d="M102.9645 123.3917
L103.1073 123.4631
" />
<path d="M103.1073 123.4631
L103.1788 123.6060
" />
<path d="M103.1788 123.6060
L103.1788 124.3917
" />
<path d="M103.1788 123.6060
L103.2502 123.4631
" />
<path d="M103.2502 123.4631
L103.3930 123.3917
" />
<path d="M103.3930 123.3917
L103.6073 123.3917
" />
<path d="M103.6073 123.3917
L103.7502 123.4631
" />
<path d="M103.7502 123.4631
L103.8216 123.6060
" />
<path d="M103.8216 123.6060
L103.8216 124.3917
" />
<path d="M105.1788 124.3917
L105.1788 123.6060
" />
<path d="M105.1788 123.6060
L105.1073 123.4631
" />
<path d="M105.1073 123.4631
L104.9645 123.3917
" />
<path d="M104.9645 123.3917
L104.6788 123.3917
" />
<path d="M104.6788 123.3917
L104.5359 123.4631
" />
<path d="M105.1788 124.3203
L105.0359 124.3917
" />
<path d="M105.0359 124.3917
L104.6788 124.3917
" />
<path d="M104.6788 124.3917
L104.5359 124.3203
" />
<path d="M104.5359 124.3203
L104.4645 124.1774
" />
<path d="M104.4645 124.1774
L104.4645 124.0345
" />
<path d="M104.4645 124.0345
L104.5359 123.8917
" />
<path d="M104.5359 123.8917
L104.6788 123.8203
" />
<path d="M104.6788 123.8203
L105.0359 123.8203
" />
<path d="M105.0359 123.8203
L105.1788 123.7488
" />
<path d="M105.6787 123.3917
L106.2501 123.3917
" />
<path d="M105.8930 122.8917
L105.8930 124.1774
" />
<path d="M105.8930 124.1774
L105.9644 124.3203
" />
<path d="M105.9644 124.3203
L106.1073 124.3917
" />
<path d="M106.1073 124.3917
L106.2501 124.3917
" />
<path d="M106.7501 124.3917
L106.7501 123.3917
" />
<path d="M106.7501 122.8917
L106.6787 122.9631
" />
<path d="M106.6787 122.9631
L106.7501 123.0345
" />
<path d="M106.7501 123.0345
L106.8215 122.9631
" />
<path d="M106.8215 122.9631
L106.7501 122.8917
" />
<path d="M106.7501 122.8917
L106.7501 123.0345
" />
<path d="M108.1073 124.3203
L107.9644 124.3917
" />
<path d="M107.9644 124.3917
L107.6787 124.3917
" />
<path d="M107.6787 124.3917
L107.5358 124.3203
" />
<path d="M107.5358 124.3203
L107.4644 124.2488
" />
<path d="M107.4644 124.2488
L107.3930 124.1060
" />
<path d="M107.3930 124.1060
L107.3930 123.6774
" />
<path d="M107.3930 123.6774
L107.4644 123.5345
" />
<path d="M107.4644 123.5345
L107.5358 123.4631
" />
<path d="M107.5358 123.4631
L107.6787 123.3917
" />
<path d="M107.6787 123.3917
L107.9644 123.3917
" />
<path d="M107.9644 123.3917
L108.1073 123.4631
" />
<path d="M108.6787 124.3203
L108.8215 124.3917
" />
<path d="M108.8215 124.3917
L109.1072 124.3917
" />
<path d="M109.1072 124.3917
L109.2501 124.3203
" />
<path d="M109.2501 124.3203
L109.3215 124.1774
" />
<path d="M109.3215 124.1774
L109.3215 124.1060
" />
<path d="M109.3215 124.1060
L109.2501 123.9631
" />
<path d="M109.2501 123.9631
L109.1072 123.8917
" />
<path d="M109.1072 123.8917
L108.8930 123.8917
" />
<path d="M108.8930 123.8917
L108.7501 123.8203
" />
<path d="M108.7501 123.8203
L108.6787 123.6774
" />
<path d="M108.6787 123.6774
L108.6787 123.6060
" />
<path d="M108.6787 123.6060
L108.7501 123.4631
" />
<path d="M108.7501 123.4631
L108.8930 123.3917
" />
<path d="M108.8930 123.3917
L109.1072 123.3917
" />
<path d="M109.1072 123.3917
L109.2501 123.4631
" />
<path d="M109.9644 124.2488
L110.0358 124.3203
" />
<path d="M110.0358 124.3203
L109.9644 124.3917
" />
<path d="M109.9644 124.3917
L109.8930 124.3203
" />
<path d="M109.8930 124.3203
L109.9644 124.2488
" />
<path d="M109.9644 124.2488
L109.9644 124.3917
" />
<path d="M110.6787 124.3917
L110.6787 122.8917
" />
<path d="M110.8216 123.8203
L111.2501 124.3917
" />
<path d="M111.2501 123.3917
L110.6787 123.9631
" />
<path d="M111.8930 124.3917
L111.8930 123.3917
" />
<path d="M111.8930 122.8917
L111.8216 122.9631
" />
<path d="M111.8216 122.9631
L111.8930 123.0345
" />
<path d="M111.8930 123.0345
L111.9644 122.9631
" />
<path d="M111.9644 122.9631
L111.8930 122.8917
" />
<path d="M111.8930 122.8917
L111.8930 123.0345
" />
<path d="M113.2502 124.3203
L113.1073 124.3917
" />
<path d="M113.1073 124.3917
L112.8216 124.3917
" />
<path d="M112.8216 124.3917
L112.6787 124.3203
" />
<path d="M112.6787 124.3203
L112.6073 124.2488
" />
<path d="M112.6073 124.2488
L112.5359 124.1060
" />
<path d="M112.5359 124.1060
L112.5359 123.6774
" />
<path d="M112.5359 123.6774
L112.6073 123.5345
" />
<path d="M112.6073 123.5345
L112.6787 123.4631
" />
<path d="M112.6787 123.4631
L112.8216 123.3917
" />
<path d="M112.8216 123.3917
L113.1073 123.3917
" />
<path d="M113.1073 123.3917
L113.2502 123.4631
" />
<path d="M114.5359 124.3917
L114.5359 123.6060
" />
<path d="M114.5359 123.6060
L114.4644 123.4631
" />
<path d="M114.4644 123.4631
L114.3216 123.3917
" />
<path d="M114.3216 123.3917
L114.0359 123.3917
" />
<path d="M114.0359 123.3917
L113.8930 123.4631
" />
<path d="M114.5359 124.3203
L114.3930 124.3917
" />
<path d="M114.3930 124.3917
L114.0359 124.3917
" />
<path d="M114.0359 124.3917
L113.8930 124.3203
" />
<path d="M113.8930 124.3203
L113.8216 124.1774
" />
<path d="M113.8216 124.1774
L113.8216 124.0345
" />
<path d="M113.8216 124.0345
L113.8930 123.8917
" />
<path d="M113.8930 123.8917
L114.0359 123.8203
" />
<path d="M114.0359 123.8203
L114.3930 123.8203
" />
<path d="M114.3930 123.8203
L114.5359 123.7488
" />
<path d="M115.8930 124.3917
L115.8930 122.8917
" />
<path d="M115.8930 124.3203
L115.7501 124.3917
" />
<path d="M115.7501 124.3917
L115.4644 124.3917
" />
<path d="M115.4644 124.3917
L115.3215 124.3203
" />
<path d="M115.3215 124.3203
L115.2501 124.2488
" />
<path d="M115.2501 124.2488
L115.1787 124.1060
" />
<path d="M115.1787 124.1060
L115.1787 123.6774
" />
<path d="M115.1787 123.6774
L115.2501 123.5345
" />
<path d="M115.2501 123.5345
L115.3215 123.4631
" />
<path d="M115.3215 123.4631
L115.4644 123.3917
" />
<path d="M115.4644 123.3917
L115.7501 123.3917
" />
<path d="M115.7501 123.3917
L115.8930 123.4631
" />
<path d="M116.2501 124.5345
L117.3929 124.5345
" />
<path d="M117.6787 124.3203
L117.8215 124.3917
" />
<path d="M117.8215 124.3917
L118.1072 124.3917
" />
<path d="M118.1072 124.3917
L118.2501 124.3203
" />
<path d="M118.2501 124.3203
L118.3215 124.1774
" />
<path d="M118.3215 124.1774
L118.3215 124.1060
" />
<path d="M118.3215 124.1060
L118.2501 123.9631
" />
<path d="M118.2501 123.9631
L118.1072 123.8917
" />
<path d="M118.1072 123.8917
L117.8930 123.8917
" />
<path d="M117.8930 123.8917
L117.7501 123.8203
" />
<path d="M117.7501 123.8203
L117.6787 123.6774
" />
<path d="M117.6787 123.6774
L117.6787 123.6060
" />
<path d="M117.6787 123.6060
L117.7501 123.4631
" />
<path d="M117.7501 123.4631
L117.8930 123.3917
" />
<path d="M117.8930 123.3917
L118.1072 123.3917
" />
<path d="M118.1072 123.3917
L118.2501 123.4631
" />
<path d="M119.6073 124.3203
L119.4644 124.3917
" />
<path d="M119.4644 124.3917
L119.1787 124.3917
" />
<path d="M119.1787 124.3917
L119.0358 124.3203
" />
<path d="M119.0358 124.3203
L118.9644 124.2488
" />
<path d="M118.9644 124.2488
L118.8930 124.1060
" />
<path d="M118.8930 124.1060
L118.8930 123.6774
" />
<path d="M118.8930 123.6774
L118.9644 123.5345
" />
<path d="M118.9644 123.5345
L119.0358 123.4631
" />
<path d="M119.0358 123.4631
L119.1787 123.3917
" />
<path d="M119.1787 123.3917
L119.4644 123.3917
" />
<path d="M119.4644 123.3917
L119.6073 123.4631
" />
<path d="M120.2501 124.3917
L120.2501 122.8917
" />
<path d="M120.8930 124.3917
L120.8930 123.6060
" />
<path d="M120.8930 123.6060
L120.8215 123.4631
" />
<path d="M120.8215 123.4631
L120.6787 123.3917
" />
<path d="M120.6787 123.3917
L120.4644 123.3917
" />
<path d="M120.4644 123.3917
L120.3215 123.4631
" />
<path d="M120.3215 123.4631
L120.2501 123.5345
" />
</g><path d="M90.0072 119.5058
L198.0072 119.5058
" />
<text x="91.0072" y="121.7558"
textLength="9.8000" font-size="2.0000" lengthAdjust="spacingAndGlyphs"
text-anchor="start" opacity="0" stroke-opacity="0">Sheet: /</text>
<g class="stroked-text"><desc>Sheet: /</desc>
<path d="M91.3931 121.6203
L91.6074 121.6917
" />
<path d="M91.6074 121.6917
L91.9645 121.6917
" />
<path d="M91.9645 121.6917
L92.1074 121.6203
" />
<path d="M92.1074 121.6203
L92.1788 121.5488
" />
<path d="M92.1788 121.5488
L92.2502 121.4060
" />
<path d="M92.2502 121.4060
L92.2502 121.2631
" />
<path d="M92.2502 121.2631
L92.1788 121.1203
" />
<path d="M92.1788 121.1203
L92.1074 121.0488
" />
<path d="M92.1074 121.0488
L91.9645 120.9774
" />
<path d="M91.9645 120.9774
L91.6788 120.9060
" />
<path d="M91.6788 120.9060
L91.5359 120.8345
" />
<path d="M91.5359 120.8345
L91.4645 120.7631
" />
<path d="M91.4645 120.7631
L91.3931 120.6203
" />
<path d="M91.3931 120.6203
L91.3931 120.4774
" />
<path d="M91.3931 120.4774
L91.4645 120.3345
" />
<path d="M91.4645 120.3345
L91.5359 120.2631
" />
<path d="M91.5359 120.2631
L91.6788 120.1917
" />
<path d="M91.6788 120.1917
L92.0359 120.1917
" />
<path d="M92.0359 120.1917
L92.2502 120.2631
" />
<path d="M92.8931 121.6917
L92.8931 120.1917
" />
<path d="M93.5360 121.6917
L93.5360 120.9060
" />
<path d="M93.5360 120.9060
L93.4645 120.7631
" />
<path d="M93.4645 120.7631
L93.3217 120.6917
" />
<path d="M93.3217 120.6917
L93.1074 120.6917
" />
<path d="M93.1074 120.6917
L92.9645 120.7631
" />
<path d="M92.9645 120.7631
L92.8931 120.8345
" />
<path d="M94.8216 121.6203
L94.6788 121.6917
" />
<path d="M94.6788 121.6917
L94.3931 121.6917
" />
<path d="M94.3931 121.6917
L94.2502 121.6203
" />
<path d="M94.2502 121.6203
L94.1788 121.4774
" />
<path d="M94.1788 121.4774
L94.1788 120.9060
" />
<path d="M94.1788 120.9060
L94.2502 120.7631
" />
<path d="M94.2502 120.7631
L94.3931 120.6917
" />
<path d="M94.3931 120.6917
L94.6788 120.6917
" />
<path d="M94.6788 120.6917
L94.8216 120.7631
" />
<path d="M94.8216 120.7631
L94.8931 120.9060
" />
<path d="M94.8931 120.9060
L94.8931 121.0488
" />
<path d="M94.8931 121.0488
L94.1788 121.1917
" />
<path d="M96.1073 121.6203
L95.9645 121.6917
" />
<path d="M95.9645 121.6917
L95.6788 121.6917
" />
<path d="M95.6788 121.6917
L95.5359 121.6203
" />
<path d="M95.5359 121.6203
L95.4645 121.4774
" />
<path d="M95.4645 121.4774
L95.4645 120.9060
" />
<path d="M95.4645 120.9060
L95.5359 120.7631
" />
<path d="M95.5359 120.7631
L95.6788 120.6917
" />
<path d="M95.6788 120.6917
L95.9645 120.6917
" />
<path d="M95.9645 120.6917
L96.1073 120.7631
" />
<path d="M96.1073 120.7631
L96.1788 120.9060
" />
<path d="M96.1788 120.9060
L96.1788 121.0488
" />
<path d="M96.1788 121.0488
L95.4645 121.1917
" />
<path d="M96.6073 120.6917
L97.1787 120.6917
" />
<path d="M96.8216 120.1917
L96.8216 121.4774
" />
<path d="M96.8216 121.4774
L96.8930 121.6203
" />
<path d="M96.8930 121.6203
L97.0359 121.6917
" />
<path d="M97.0359 121.6917
L97.1787 121.6917
" />
<path d="M97.6787 121.5488
L97.7501 121.6203
" />
<path d="M97.7501 121.6203
L97.6787 121.6917
" />
<path d="M97.6787 121.6917
L97.6073 121.6203
" />
<path d="M97.6073 121.6203
L97.6787 121.5488
" />
<path d="M97.6787 121.5488
L97.6787 121.6917
" />
<path d="M97.6787 120.7631
L97.7501 120.8345
" />
<path d="M97.7501 120.8345
L97.6787 120.9060
" />
<path d="M97.6787 120.9060
L97.6073 120.8345
" />
<path d="M97.6073 120.8345
L97.6787 120.7631
" />
<path d="M97.6787 120.7631
L97.6787 120.9060
" />
<path d="M100.6073 120.1203
L99.3216 122.0488
" />
</g></g>
<g style="fill:none; 
stroke:#840000; stroke-width:0.3000; stroke-opacity:1; 
stroke-linecap:round; stroke-linejoin:round;">
<text x="91.0072" y="118.7558"
textLength="0.9000" font-size="2.0000" lengthAdjust="spacingAndGlyphs"
text-anchor="start" opacity="0" stroke-opacity="0"></text>
<g class="stroked-text"><desc></desc>
</g></g>
<g style="fill:none; 
stroke:#840000; stroke-width:0.1524; stroke-opacity:1; 
stroke-linecap:round; stroke-linejoin:round;">
<text x="91.0072" y="115.7558"
textLength="0.4572" font-size="2.0000" lengthAdjust="spacingAndGlyphs"
text-anchor="start" opacity="0" stroke-opacity="0"></text>
<g class="stroked-text"><desc></desc>
</g><text x="91.0072" y="112.7558"
textLength="0.4572" font-size="2.0000" lengthAdjust="spacingAndGlyphs"
text-anchor="start" opacity="0" stroke-opacity="0"></text>
<g class="stroked-text"><desc></desc>
</g><text x="91.0072" y="109.7558"
textLength="0.4572" font-size="2.0000" lengthAdjust="spacingAndGlyphs"
text-anchor="start" opacity="0" stroke-opacity="0"></text>
<g class="stroked-text"><desc></desc>
</g><text x="91.0072" y="106.7558"
textLength="0.4572" font-size="2.0000" lengthAdjust="spacingAndGlyphs"
text-anchor="start" opacity="0" stroke-opacity="0"></text>
<g class="stroked-text"><desc></desc>
</g><path d="M110.0072 129.5058
L110.0072 132.5058
" />
<path d="M174.0072 129.5058
L174.0072 136.0058
" />
</g>
<g style="fill:#FFFFC2; fill-opacity:1.0000; stroke:none;">
<circle cx="21.5900" cy="38.1000" r="2.5400" /> 
</g>
<g style="fill:none; 
stroke:#840000; stroke-width:0.1524; stroke-opacity:1; 
stroke-linecap:round; stroke-linejoin:round;">
<path d="M21.5900 38.1000 A0.6350 0.6350 0.0 0 0 20.3200 38.1000" />
<path d="M21.5900 38.0999 A0.6350 0.6350 0.0 0 0 22.8600 38.0999" />
</g>
<g style="fill:none; 
stroke:#840000; stroke-width:0.2540; stroke-opacity:1; 
stroke-linecap:round; stroke-linejoin:round;">
<circle cx="21.5900" cy="38.1000" r="2.5400" /> 
</g>
<g style="fill:none; 
stroke:#840000; stroke-width:0.1524; stroke-opacity:1; 
stroke-linecap:round; stroke-linejoin:round;">
<text x="21.5900" y="36.8300"
textLength="1.7756" font-size="1.6933" lengthAdjust="spacingAndGlyphs"
text-anchor="middle" opacity="0" stroke-opacity="0">+</text>
<g class="stroked-text"><desc>+</desc>
<path d="M21.1061 36.2907
L22.0738 36.2907
" />
<path d="M21.5899 36.7745
L21.5899 35.8069
" />
</g><path d="M21.5900 35.5600
L21.5900 33.0200
" />
<path d="M21.5900 40.6400
L21.5900 43.1800
" />
</g>
<g style="fill:none; 
stroke:#006464; stroke-width:0.1524; stroke-opacity:1; 
stroke-linecap:round; stroke-linejoin:round;">
<text x="26.6602" y="36.0651"
textLength="2.5013" font-size="1.6933" lengthAdjust="spacingAndGlyphs"
text-anchor="middle" opacity="0" stroke-opacity="0">V1</text>
<g class="stroked-text"><desc>V1</desc>
<path d="M25.6321 34.7396
L26.0554 36.0096
" />
<path d="M26.0554 36.0096
L26.4788 34.7396
" />
<path d="M27.5674 36.0096
L26.8417 36.0096
" />
<path d="M27.2045 36.0096
L27.2045 34.7396
" />
<path d="M27.2045 34.7396
L27.0836 34.9211
" />
<path d="M27.0836 34.9211
L26.9626 35.0420
" />
<path d="M26.9626 35.0420
L26.8417 35.1025
" />
</g><text x="27.6279" y="38.6051"
textLength="4.4366" font-size="1.6933" lengthAdjust="spacingAndGlyphs"
text-anchor="middle" opacity="0" stroke-opacity="0">VSIN</text>
<g class="stroked-text"><desc>VSIN</desc>
<path d="M25.6321 37.2796
L26.0554 38.5496
" />
<path d="M26.0554 38.5496
L26.4788 37.2796
" />
<path d="M26.8417 38.4892
L27.0231 38.5496
" />
<path d="M27.0231 38.5496
L27.3255 38.5496
" />
<path d="M27.3255 38.5496
L27.4464 38.4892
" />
<path d="M27.4464 38.4892
L27.5069 38.4287
" />
<path d="M27.5069 38.4287
L27.5674 38.3077
" />
<path d="M27.5674 38.3077
L27.5674 38.1868
" />
<path d="M27.5674 38.1868
L27.5069 38.0658
" />
<path d="M27.5069 38.0658
L27.4464 38.0053
" />
<path d="M27.4464 38.0053
L27.3255 37.9449
" />
<path d="M27.3255 37.9449
L27.0836 37.8844
" />
<path d="M27.0836 37.8844
L26.9626 37.8239
" />
<path d="M26.9626 37.8239
L26.9021 37.7634
" />
<path d="M26.9021 37.7634
L26.8417 37.6425
" />
<path d="M26.8417 37.6425
L26.8417 37.5215
" />
<path d="M26.8417 37.5215
L26.9021 37.4006
" />
<path d="M26.9021 37.4006
L26.9626 37.3401
" />
<path d="M26.9626 37.3401
L27.0836 37.2796
" />
<path d="M27.0836 37.2796
L27.3859 37.2796
" />
<path d="M27.3859 37.2796
L27.5674 37.3401
" />
<path d="M28.1116 38.5496
L28.1116 37.2796
" />
<path d="M28.7164 38.5496
L28.7164 37.2796
" />
<path d="M28.7164 37.2796
L29.4421 38.5496
" />
<path d="M29.4421 38.5496
L29.4421 37.2796
" />
</g></g>
<g style="fill:none; 
stroke:#840084; stroke-width:0.1524; stroke-opacity:1; 
stroke-linecap:round; stroke-linejoin:round;">
<text x="38.8763" y="41.1451"
textLength="26.9334" font-size="1.6933" lengthAdjust="spacingAndGlyphs"
text-anchor="middle" opacity="0" stroke-opacity="0">dc=1 ampl=0.5 f=1k ac=1</text>
<g class="stroked-text"><desc>dc=1 ampl=0.5 f=1k ac=1</desc>
<path d="M26.3578 41.0896
L26.3578 39.8196
" />
<path d="M26.3578 41.0292
L26.2369 41.0896
" />
<path d="M26.2369 41.0896
L25.9950 41.0896
" />
<path d="M25.9950 41.0896
L25.8740 41.0292
" />
<path d="M25.8740 41.0292
L25.8135 40.9687
" />
<path d="M25.8135 40.9687
L25.7531 40.8477
" />
<path d="M25.7531 40.8477
L25.7531 40.4849
" />
<path d="M25.7531 40.4849
L25.8135 40.3639
" />
<path d="M25.8135 40.3639
L25.8740 40.3034
" />
<path d="M25.8740 40.3034
L25.9950 40.2430
" />
<path d="M25.9950 40.2430
L26.2369 40.2430
" />
<path d="M26.2369 40.2430
L26.3578 40.3034
" />
<path d="M27.5068 41.0292
L27.3859 41.0896
" />
<path d="M27.3859 41.0896
L27.1440 41.0896
" />
<path d="M27.1440 41.0896
L27.0230 41.0292
" />
<path d="M27.0230 41.0292
L26.9625 40.9687
" />
<path d="M26.9625 40.9687
L26.9021 40.8477
" />
<path d="M26.9021 40.8477
L26.9021 40.4849
" />
<path d="M26.9021 40.4849
L26.9625 40.3639
" />
<path d="M26.9625 40.3639
L27.0230 40.3034
" />
<path d="M27.0230 40.3034
L27.1440 40.2430
" />
<path d="M27.1440 40.2430
L27.3859 40.2430
" />
<path d="M27.3859 40.2430
L27.5068 40.3034
" />
<path d="M28.0511 40.4244
L29.0188 40.4244
" />
<path d="M29.0188 40.7872
L28.0511 40.7872
" />
<path d="M30.2888 41.0896
L29.5631 41.0896
" />
<path d="M29.9259 41.0896
L29.9259 39.8196
" />
<path d="M29.9259 39.8196
L29.8050 40.0011
" />
<path d="M29.8050 40.0011
L29.6840 40.1220
" />
<path d="M29.6840 40.1220
L29.5631 40.1825
" />
<path d="M32.3449 41.0896
L32.3449 40.4244
" />
<path d="M32.3449 40.4244
L32.2844 40.3034
" />
<path d="M32.2844 40.3034
L32.1635 40.2430
" />
<path d="M32.1635 40.2430
L31.9216 40.2430
" />
<path d="M31.9216 40.2430
L31.8006 40.3034
" />
<path d="M32.3449 41.0292
L32.2240 41.0896
" />
<path d="M32.2240 41.0896
L31.9216 41.0896
" />
<path d="M31.9216 41.0896
L31.8006 41.0292
" />
<path d="M31.8006 41.0292
L31.7402 40.9082
" />
<path d="M31.7402 40.9082
L31.7402 40.7872
" />
<path d="M31.7402 40.7872
L31.8006 40.6663
" />
<path d="M31.8006 40.6663
L31.9216 40.6058
" />
<path d="M31.9216 40.6058
L32.2240 40.6058
" />
<path d="M32.2240 40.6058
L32.3449 40.5453
" />
<path d="M32.9496 41.0896
L32.9496 40.2430
" />
<path d="M32.9496 40.3639
L33.0101 40.3034
" />
<path d="M33.0101 40.3034
L33.1311 40.2430
" />
<path d="M33.1311 40.2430
L33.3125 40.2430
" />
<path d="M33.3125 40.2430
L33.4334 40.3034
" />
<path d="M33.4334 40.3034
L33.4939 40.4244
" />
<path d="M33.4939 40.4244
L33.4939 41.0896
" />
<path d="M33.4939 40.4244
L33.5544 40.3034
" />
<path d="M33.5544 40.3034
L33.6753 40.2430
" />
<path d="M33.6753 40.2430
L33.8568 40.2430
" />
<path d="M33.8568 40.2430
L33.9777 40.3034
" />
<path d="M33.9777 40.3034
L34.0382 40.4244
" />
<path d="M34.0382 40.4244
L34.0382 41.0896
" />
<path d="M34.6429 40.2430
L34.6429 41.5130
" />
<path d="M34.6429 40.3034
L34.7639 40.2430
" />
<path d="M34.7639 40.2430
L35.0058 40.2430
" />
<path d="M35.0058 40.2430
L35.1267 40.3034
" />
<path d="M35.1267 40.3034
L35.1872 40.3639
" />
<path d="M35.1872 40.3639
L35.2477 40.4849
" />
<path d="M35.2477 40.4849
L35.2477 40.8477
" />
<path d="M35.2477 40.8477
L35.1872 40.9687
" />
<path d="M35.1872 40.9687
L35.1267 41.0292
" />
<path d="M35.1267 41.0292
L35.0058 41.0896
" />
<path d="M35.0058 41.0896
L34.7639 41.0896
" />
<path d="M34.7639 41.0896
L34.6429 41.0292
" />
<path d="M35.9734 41.0896
L35.8524 41.0292
" />
<path d="M35.8524 41.0292
L35.7919 40.9082
" />
<path d="M35.7919 40.9082
L35.7919 39.8196
" />
<path d="M36.4571 40.4244
L37.4248 40.4244
" />
<path d="M37.4248 40.7872
L36.4571 40.7872
" />
<path d="M38.2714 39.8196
L38.3924 39.8196
" />
<path d="M38.3924 39.8196
L38.5133 39.8801
" />
<path d="M38.5133 39.8801
L38.5738 39.9406
" />
<path d="M38.5738 39.9406
L38.6343 40.0615
" />
<path d="M38.6343 40.0615
L38.6948 40.3034
" />
<path d="M38.6948 40.3034
L38.6948 40.6058
" />
<path d="M38.6948 40.6058
L38.6343 40.8477
" />
<path d="M38.6343 40.8477
L38.5738 40.9687
" />
<path d="M38.5738 40.9687
L38.5133 41.0292
" />
<path d="M38.5133 41.0292
L38.3924 41.0896
" />
<path d="M38.3924 41.0896
L38.2714 41.0896
" />
<path d="M38.2714 41.0896
L38.1505 41.0292
" />
<path d="M38.1505 41.0292
L38.0900 40.9687
" />
<path d="M38.0900 40.9687
L38.0295 40.8477
" />
<path d="M38.0295 40.8477
L37.9691 40.6058
" />
<path d="M37.9691 40.6058
L37.9691 40.3034
" />
<path d="M37.9691 40.3034
L38.0295 40.0615
" />
<path d="M38.0295 40.0615
L38.0900 39.9406
" />
<path d="M38.0900 39.9406
L38.1505 39.8801
" />
<path d="M38.1505 39.8801
L38.2714 39.8196
" />
<path d="M39.2390 40.9687
L39.2995 41.0292
" />
<path d="M39.2995 41.0292
L39.2390 41.0896
" />
<path d="M39.2390 41.0896
L39.1786 41.0292
" />
<path d="M39.1786 41.0292
L39.2390 40.9687
" />
<path d="M39.2390 40.9687
L39.2390 41.0896
" />
<path d="M40.4486 39.8196
L39.8438 39.8196
" />
<path d="M39.8438 39.8196
L39.7834 40.4244
" />
<path d="M39.7834 40.4244
L39.8438 40.3639
" />
<path d="M39.8438 40.3639
L39.9648 40.3034
" />
<path d="M39.9648 40.3034
L40.2672 40.3034
" />
<path d="M40.2672 40.3034
L40.3881 40.3639
" />
<path d="M40.3881 40.3639
L40.4486 40.4244
" />
<path d="M40.4486 40.4244
L40.5091 40.5453
" />
<path d="M40.5091 40.5453
L40.5091 40.8477
" />
<path d="M40.5091 40.8477
L40.4486 40.9687
" />
<path d="M40.4486 40.9687
L40.3881 41.0292
" />
<path d="M40.3881 41.0292
L40.2672 41.0896
" />
<path d="M40.2672 41.0896
L39.9648 41.0896
" />
<path d="M39.9648 41.0896
L39.8438 41.0292
" />
<path d="M39.8438 41.0292
L39.7834 40.9687
" />
<path d="M41.8395 40.2430
L42.3233 40.2430
" />
<path d="M42.0209 41.0896
L42.0209 40.0011
" />
<path d="M42.0209 40.0011
L42.0814 39.8801
" />
<path d="M42.0814 39.8801
L42.2024 39.8196
" />
<path d="M42.2024 39.8196
L42.3233 39.8196
" />
<path d="M42.7466 40.4244
L43.7143 40.4244
" />
<path d="M43.7143 40.7872
L42.7466 40.7872
" />
<path d="M44.9843 41.0896
L44.2586 41.0896
" />
<path d="M44.6214 41.0896
L44.6214 39.8196
" />
<path d="M44.6214 39.8196
L44.5005 40.0011
" />
<path d="M44.5005 40.0011
L44.3795 40.1220
" />
<path d="M44.3795 40.1220
L44.2586 40.1825
" />
<path d="M45.5285 41.0896
L45.5285 39.8196
" />
<path d="M45.6495 40.6058
L46.0123 41.0896
" />
<path d="M46.0123 40.2430
L45.5285 40.7268
" />
<path d="M48.0685 41.0896
L48.0685 40.4244
" />
<path d="M48.0685 40.4244
L48.0080 40.3034
" />
<path d="M48.0080 40.3034
L47.8871 40.2430
" />
<path d="M47.8871 40.2430
L47.6452 40.2430
" />
<path d="M47.6452 40.2430
L47.5242 40.3034
" />
<path d="M48.0685 41.0292
L47.9476 41.0896
" />
<path d="M47.9476 41.0896
L47.6452 41.0896
" />
<path d="M47.6452 41.0896
L47.5242 41.0292
" />
<path d="M47.5242 41.0292
L47.4638 40.9082
" />
<path d="M47.4638 40.9082
L47.4638 40.7872
" />
<path d="M47.4638 40.7872
L47.5242 40.6663
" />
<path d="M47.5242 40.6663
L47.6452 40.6058
" />
<path d="M47.6452 40.6058
L47.9476 40.6058
" />
<path d="M47.9476 40.6058
L48.0685 40.5453
" />
<path d="M49.2175 41.0292
L49.0966 41.0896
" />
<path d="M49.0966 41.0896
L48.8547 41.0896
" />
<path d="M48.8547 41.0896
L48.7337 41.0292
" />
<path d="M48.7337 41.0292
L48.6732 40.9687
" />
<path d="M48.6732 40.9687
L48.6128 40.8477
" />
<path d="M48.6128 40.8477
L48.6128 40.4849
" />
<path d="M48.6128 40.4849
L48.6732 40.3639
" />
<path d="M48.6732 40.3639
L48.7337 40.3034
" />
<path d="M48.7337 40.3034
L48.8547 40.2430
" />
<path d="M48.8547 40.2430
L49.0966 40.2430
" />
<path d="M49.0966 40.2430
L49.2175 40.3034
" />
<path d="M49.7618 40.4244
L50.7295 40.4244
" />
<path d="M50.7295 40.7872
L49.7618 40.7872
" />
<path d="M51.9995 41.0896
L51.2738 41.0896
" />
<path d="M51.6366 41.0896
L51.6366 39.8196
" />
<path d="M51.6366 39.8196
L51.5157 40.0011
" />
<path d="M51.5157 40.0011
L51.3947 40.1220
" />
<path d="M51.3947 40.1220
L51.2738 40.1825
" />
</g></g>
<g style="fill:none; 
stroke:#840000; stroke-width:0.2540; stroke-opacity:1; 
stroke-linecap:round; stroke-linejoin:round;">
<rect x="54.864000" y="35.560000" width="2.032000" height="5.080000" rx="0.000000" />
</g>
<g style="fill:none; 
stroke:#840000; stroke-width:0.1524; stroke-opacity:1; 
stroke-linecap:round; stroke-linejoin:round;">
<path d="M55.8800 35.5600
L55.8800 34.2900
" />
<path d="M55.8800 40.6400
L55.8800 41.9100
" />
</g>
<g style="fill:none; 
stroke:#006464; stroke-width:0.1524; stroke-opacity:1; 
stroke-linecap:round; stroke-linejoin:round;">
<text x="59.7709" y="37.4649"
textLength="2.6827" font-size="1.6933" lengthAdjust="spacingAndGlyphs"
text-anchor="middle" opacity="0" stroke-opacity="0">R1</text>
<g class="stroked-text"><desc>R1</desc>
<path d="M59.5592 37.4094
L59.1359 36.8047
" />
<path d="M58.8335 37.4094
L58.8335 36.1394
" />
<path d="M58.8335 36.1394
L59.3173 36.1394
" />
<path d="M59.3173 36.1394
L59.4383 36.1999
" />
<path d="M59.4383 36.1999
L59.4988 36.2604
" />
<path d="M59.4988 36.2604
L59.5592 36.3813
" />
<path d="M59.5592 36.3813
L59.5592 36.5628
" />
<path d="M59.5592 36.5628
L59.4988 36.6837
" />
<path d="M59.4988 36.6837
L59.4383 36.7442
" />
<path d="M59.4383 36.7442
L59.3173 36.8047
" />
<path d="M59.3173 36.8047
L58.8335 36.8047
" />
<path d="M60.7688 37.4094
L60.0431 37.4094
" />
<path d="M60.4059 37.4094
L60.4059 36.1394
" />
<path d="M60.4059 36.1394
L60.2850 36.3209
" />
<path d="M60.2850 36.3209
L60.1640 36.4418
" />
<path d="M60.1640 36.4418
L60.0431 36.5023
" />
</g><text x="60.2547" y="40.0049"
textLength="3.6503" font-size="1.6933" lengthAdjust="spacingAndGlyphs"
text-anchor="middle" opacity="0" stroke-opacity="0">10k</text>
<g class="stroked-text"><desc>10k</desc>
<path d="M59.4988 39.9494
L58.7731 39.9494
" />
<path d="M59.1359 39.9494
L59.1359 38.6794
" />
<path d="M59.1359 38.6794
L59.0150 38.8609
" />
<path d="M59.0150 38.8609
L58.8940 38.9818
" />
<path d="M58.8940 38.9818
L58.7731 39.0423
" />
<path d="M60.2849 38.6794
L60.4059 38.6794
" />
<path d="M60.4059 38.6794
L60.5268 38.7399
" />
<path d="M60.5268 38.7399
L60.5873 38.8004
" />
<path d="M60.5873 38.8004
L60.6478 38.9213
" />
<path d="M60.6478 38.9213
L60.7083 39.1632
" />
<path d="M60.7083 39.1632
L60.7083 39.4656
" />
<path d="M60.7083 39.4656
L60.6478 39.7075
" />
<path d="M60.6478 39.7075
L60.5873 39.8285
" />
<path d="M60.5873 39.8285
L60.5268 39.8890
" />
<path d="M60.5268 39.8890
L60.4059 39.9494
" />
<path d="M60.4059 39.9494
L60.2849 39.9494
" />
<path d="M60.2849 39.9494
L60.1640 39.8890
" />
<path d="M60.1640 39.8890
L60.1035 39.8285
" />
<path d="M60.1035 39.8285
L60.0430 39.7075
" />
<path d="M60.0430 39.7075
L59.9826 39.4656
" />
<path d="M59.9826 39.4656
L59.9826 39.1632
" />
<path d="M59.9826 39.1632
L60.0430 38.9213
" />
<path d="M60.0430 38.9213
L60.1035 38.8004
" />
<path d="M60.1035 38.8004
L60.1640 38.7399
" />
<path d="M60.1640 38.7399
L60.2849 38.6794
" />
<path d="M61.2525 39.9494
L61.2525 38.6794
" />
<path d="M61.3735 39.4656
L61.7363 39.9494
" />
<path d="M61.7363 39.1028
L61.2525 39.5866
" />
</g><path style="fill:none; 
stroke:#840000; stroke-width:0.5080; stroke-opacity:1; 
stroke-linecap:round; stroke-linejoin:round;fill:none"
d="M 38.6080,29.9720
38.6080,25.9080
" /> 
<path style="fill:none; 
stroke:#840000; stroke-width:0.5080; stroke-opacity:1; 
stroke-linecap:round; stroke-linejoin:round;fill:none"
d="M 40.1320,29.9720
40.1320,25.9080
" /> 
</g>
<g style="fill:none; 
stroke:#840000; stroke-width:0.1524; stroke-opacity:1; 
stroke-linecap:round; stroke-linejoin:round;">
<path d="M38.3540 27.9400
L35.5600 27.9400
" />
<path d="M40.3860 27.9400
L43.1800 27.9400
" />
</g>
<g style="fill:none; 
stroke:#006464; stroke-width:0.1524; stroke-opacity:1; 
stroke-linecap:round; stroke-linejoin:round;">
<text x="39.3699" y="20.9549"
textLength="2.6827" font-size="1.6933" lengthAdjust="spacingAndGlyphs"
text-anchor="middle" opacity="0" stroke-opacity="0">C1</text>
<g class="stroked-text"><desc>C1</desc>
<path d="M39.1582 20.7785
L39.0978 20.8390
" />
<path d="M39.0978 20.8390
L38.9163 20.8994
" />
<path d="M38.9163 20.8994
L38.7954 20.8994
" />
<path d="M38.7954 20.8994
L38.6140 20.8390
" />
<path d="M38.6140 20.8390
L38.4930 20.7180
" />
<path d="M38.4930 20.7180
L38.4325 20.5970
" />
<path d="M38.4325 20.5970
L38.3721 20.3551
" />
<path d="M38.3721 20.3551
L38.3721 20.1737
" />
<path d="M38.3721 20.1737
L38.4325 19.9318
" />
<path d="M38.4325 19.9318
L38.4930 19.8109
" />
<path d="M38.4930 19.8109
L38.6140 19.6899
" />
<path d="M38.6140 19.6899
L38.7954 19.6294
" />
<path d="M38.7954 19.6294
L38.9163 19.6294
" />
<path d="M38.9163 19.6294
L39.0978 19.6899
" />
<path d="M39.0978 19.6899
L39.1582 19.7504
" />
<path d="M40.3678 20.8994
L39.6421 20.8994
" />
<path d="M40.0049 20.8994
L40.0049 19.6294
" />
<path d="M40.0049 19.6294
L39.8840 19.8109
" />
<path d="M39.8840 19.8109
L39.7630 19.9318
" />
<path d="M39.7630 19.9318
L39.6421 19.9923
" />
</g><text x="39.3699" y="23.4949"
textLength="4.9807" font-size="1.6933" lengthAdjust="spacingAndGlyphs"
text-anchor="middle" opacity="0" stroke-opacity="0">318n</text>
<g class="stroked-text"><desc>318n</desc>
<path d="M37.1626 22.1694
L37.9488 22.1694
" />
<path d="M37.9488 22.1694
L37.5254 22.6532
" />
<path d="M37.5254 22.6532
L37.7069 22.6532
" />
<path d="M37.7069 22.6532
L37.8278 22.7137
" />
<path d="M37.8278 22.7137
L37.8883 22.7742
" />
<path d="M37.8883 22.7742
L37.9488 22.8951
" />
<path d="M37.9488 22.8951
L37.9488 23.1975
" />
<path d="M37.9488 23.1975
L37.8883 23.3185
" />
<path d="M37.8883 23.3185
L37.8278 23.3790
" />
<path d="M37.8278 23.3790
L37.7069 23.4394
" />
<path d="M37.7069 23.4394
L37.3440 23.4394
" />
<path d="M37.3440 23.4394
L37.2231 23.3790
" />
<path d="M37.2231 23.3790
L37.1626 23.3185
" />
<path d="M39.1583 23.4394
L38.4326 23.4394
" />
<path d="M38.7954 23.4394
L38.7954 22.1694
" />
<path d="M38.7954 22.1694
L38.6745 22.3509
" />
<path d="M38.6745 22.3509
L38.5535 22.4718
" />
<path d="M38.5535 22.4718
L38.4326 22.5323
" />
<path d="M39.8840 22.7137
L39.7630 22.6532
" />
<path d="M39.7630 22.6532
L39.7025 22.5928
" />
<path d="M39.7025 22.5928
L39.6421 22.4718
" />
<path d="M39.6421 22.4718
L39.6421 22.4113
" />
<path d="M39.6421 22.4113
L39.7025 22.2904
" />
<path d="M39.7025 22.2904
L39.7630 22.2299
" />
<path d="M39.7630 22.2299
L39.8840 22.1694
" />
<path d="M39.8840 22.1694
L40.1259 22.1694
" />
<path d="M40.1259 22.1694
L40.2468 22.2299
" />
<path d="M40.2468 22.2299
L40.3073 22.2904
" />
<path d="M40.3073 22.2904
L40.3678 22.4113
" />
<path d="M40.3678 22.4113
L40.3678 22.4718
" />
<path d="M40.3678 22.4718
L40.3073 22.5928
" />
<path d="M40.3073 22.5928
L40.2468 22.6532
" />
<path d="M40.2468 22.6532
L40.1259 22.7137
" />
<path d="M40.1259 22.7137
L39.8840 22.7137
" />
<path d="M39.8840 22.7137
L39.7630 22.7742
" />
<path d="M39.7630 22.7742
L39.7025 22.8347
" />
<path d="M39.7025 22.8347
L39.6421 22.9556
" />
<path d="M39.6421 22.9556
L39.6421 23.1975
" />
<path d="M39.6421 23.1975
L39.7025 23.3185
" />
<path d="M39.7025 23.3185
L39.7630 23.3790
" />
<path d="M39.7630 23.3790
L39.8840 23.4394
" />
<path d="M39.8840 23.4394
L40.1259 23.4394
" />
<path d="M40.1259 23.4394
L40.2468 23.3790
" />
<path d="M40.2468 23.3790
L40.3073 23.3185
" />
<path d="M40.3073 23.3185
L40.3678 23.1975
" />
<path d="M40.3678 23.1975
L40.3678 22.9556
" />
<path d="M40.3678 22.9556
L40.3073 22.8347
" />
<path d="M40.3073 22.8347
L40.2468 22.7742
" />
<path d="M40.2468 22.7742
L40.1259 22.7137
" />
<path d="M40.9120 22.5928
L40.9120 23.4394
" />
<path d="M40.9120 22.7137
L40.9725 22.6532
" />
<path d="M40.9725 22.6532
L41.0935 22.5928
" />
<path d="M41.0935 22.5928
L41.2749 22.5928
" />
<path d="M41.2749 22.5928
L41.3958 22.6532
" />
<path d="M41.3958 22.6532
L41.4563 22.7742
" />
<path d="M41.4563 22.7742
L41.4563 23.4394
" />
</g></g>
<g style="fill:none; 
stroke:#009600; stroke-width:0.1524; stroke-opacity:1; 
stroke-linecap:round; stroke-linejoin:round;">
<path d="M21.5900 33.0200
L21.5900 27.9400
" />
<path d="M21.5900 43.1800
L21.5900 48.2600
" />
<path d="M55.8800 48.2600
L21.5900 48.2600
" />
<path d="M55.8800 41.9100
L55.8800 48.2600
" />
<path d="M21.5900 27.9400
L35.5600 27.9400
" />
<path d="M43.1800 27.9400
L55.8800 27.9400
" />
<path d="M55.8800 27.9400
L55.8800 34.2900
" />
</g> 
</svg>
