<?xml version="1.0" standalone="no"?>
 <!DOCTYPE svg PUBLIC "-//W3C//DTD SVG 1.1//EN" 
 "http://www.w3.org/Graphics/SVG/1.1/DTD/svg11.dtd"> 
<svg
  xmlns:svg="http://www.w3.org/2000/svg"
  xmlns="http://www.w3.org/2000/svg"
  xmlns:xlink="http://www.w3.org/1999/xlink"
  version="1.1"
  width="297.0022mm" height="210.0072mm" viewBox="0.0000 0.0000 297.0022 210.0072">
<title>SVG Image created as schematics.svg date 2025/12/31 00:16:15 </title>
  <desc>Image generated by Eeschema-SVG </desc>
<g style="fill:#000000; fill-opacity:1.0000;stroke:#000000; stroke-opacity:1.0000;
stroke-linecap:round; stroke-linejoin:round;"
 transform="translate(0 0) scale(1 1)">
</g>
<g style="fill:#F5F4EF; fill-opacity:1.0000; 
stroke:#F5F4EF; stroke-width:0.0001; stroke-opacity:1; 
stroke-linecap:round; stroke-linejoin:round;">
<rect x="0.000000" y="0.000000" width="297.002200" height="210.007200" rx="0.000000" />
</g>
<g style="fill:none; 
stroke:#840000; stroke-width:0.1524; stroke-opacity:1; 
stroke-linecap:round; stroke-linejoin:round;">
<path d="M177.0022 166.0072
L285.0022 166.0072
L285.0022 198.0072
L177.0022 198.0072
L177.0022 166.0072
" />
<path d="M10.0000 10.0000
L287.0022 10.0000
L287.0022 200.0072
L10.0000 200.0072
L10.0000 10.0000
" />
<path d="M12.0000 12.0000
L285.0022 12.0000
L285.0022 198.0072
L12.0000 198.0072
L12.0000 12.0000
" />
<path d="M60.0000 12.0000
L60.0000 10.0000
" />
<path d="M110.0000 12.0000
L110.0000 10.0000
" />
<path d="M160.0000 12.0000
L160.0000 10.0000
" />
<path d="M210.0000 12.0000
L210.0000 10.0000
" />
<path d="M260.0000 12.0000
L260.0000 10.0000
" />
<text x="35.0000" y="11.6500"
textLength="1.4353" font-size="1.7333" lengthAdjust="spacingAndGlyphs"
text-anchor="start" opacity="0" stroke-opacity="0">1</text>
<g class="stroked-text"><desc>1</desc>
<path d="M36.0906 11.5935
L35.3478 11.5935
" />
<path d="M35.7192 11.5935
L35.7192 10.2935
" />
<path d="M35.7192 10.2935
L35.5954 10.4792
" />
<path d="M35.5954 10.4792
L35.4716 10.6030
" />
<path d="M35.4716 10.6030
L35.3478 10.6649
" />
</g><text x="85.0000" y="11.6500"
textLength="1.4353" font-size="1.7333" lengthAdjust="spacingAndGlyphs"
text-anchor="start" opacity="0" stroke-opacity="0">2</text>
<g class="stroked-text"><desc>2</desc>
<path d="M85.3478 10.4173
L85.4097 10.3554
" />
<path d="M85.4097 10.3554
L85.5335 10.2935
" />
<path d="M85.5335 10.2935
L85.8430 10.2935
" />
<path d="M85.8430 10.2935
L85.9668 10.3554
" />
<path d="M85.9668 10.3554
L86.0287 10.4173
" />
<path d="M86.0287 10.4173
L86.0906 10.5411
" />
<path d="M86.0906 10.5411
L86.0906 10.6649
" />
<path d="M86.0906 10.6649
L86.0287 10.8506
" />
<path d="M86.0287 10.8506
L85.2859 11.5935
" />
<path d="M85.2859 11.5935
L86.0906 11.5935
" />
</g><text x="135.0000" y="11.6500"
textLength="1.4353" font-size="1.7333" lengthAdjust="spacingAndGlyphs"
text-anchor="start" opacity="0" stroke-opacity="0">3</text>
<g class="stroked-text"><desc>3</desc>
<path d="M135.2859 10.2935
L136.0906 10.2935
" />
<path d="M136.0906 10.2935
L135.6573 10.7887
" />
<path d="M135.6573 10.7887
L135.8430 10.7887
" />
<path d="M135.8430 10.7887
L135.9668 10.8506
" />
<path d="M135.9668 10.8506
L136.0287 10.9125
" />
<path d="M136.0287 10.9125
L136.0906 11.0363
" />
<path d="M136.0906 11.0363
L136.0906 11.3458
" />
<path d="M136.0906 11.3458
L136.0287 11.4696
" />
<path d="M136.0287 11.4696
L135.9668 11.5316
" />
<path d="M135.9668 11.5316
L135.8430 11.5935
" />
<path d="M135.8430 11.5935
L135.4716 11.5935
" />
<path d="M135.4716 11.5935
L135.3478 11.5316
" />
<path d="M135.3478 11.5316
L135.2859 11.4696
" />
</g><text x="185.0000" y="11.6500"
textLength="1.4353" font-size="1.7333" lengthAdjust="spacingAndGlyphs"
text-anchor="start" opacity="0" stroke-opacity="0">4</text>
<g class="stroked-text"><desc>4</desc>
<path d="M185.9668 10.7268
L185.9668 11.5935
" />
<path d="M185.6573 10.2316
L185.3478 11.1601
" />
<path d="M185.3478 11.1601
L186.1525 11.1601
" />
</g><text x="235.0000" y="11.6500"
textLength="1.4353" font-size="1.7333" lengthAdjust="spacingAndGlyphs"
text-anchor="start" opacity="0" stroke-opacity="0">5</text>
<g class="stroked-text"><desc>5</desc>
<path d="M236.0287 10.2935
L235.4097 10.2935
" />
<path d="M235.4097 10.2935
L235.3478 10.9125
" />
<path d="M235.3478 10.9125
L235.4097 10.8506
" />
<path d="M235.4097 10.8506
L235.5335 10.7887
" />
<path d="M235.5335 10.7887
L235.8430 10.7887
" />
<path d="M235.8430 10.7887
L235.9668 10.8506
" />
<path d="M235.9668 10.8506
L236.0287 10.9125
" />
<path d="M236.0287 10.9125
L236.0906 11.0363
" />
<path d="M236.0906 11.0363
L236.0906 11.3458
" />
<path d="M236.0906 11.3458
L236.0287 11.4696
" />
<path d="M236.0287 11.4696
L235.9668 11.5316
" />
<path d="M235.9668 11.5316
L235.8430 11.5935
" />
<path d="M235.8430 11.5935
L235.5335 11.5935
" />
<path d="M235.5335 11.5935
L235.4097 11.5316
" />
<path d="M235.4097 11.5316
L235.3478 11.4696
" />
</g><text x="285.0000" y="11.6500"
textLength="1.4353" font-size="1.7333" lengthAdjust="spacingAndGlyphs"
text-anchor="start" opacity="0" stroke-opacity="0">6</text>
<g class="stroked-text"><desc>6</desc>
<path d="M285.9668 10.2935
L285.7192 10.2935
" />
<path d="M285.7192 10.2935
L285.5954 10.3554
" />
<path d="M285.5954 10.3554
L285.5335 10.4173
" />
<path d="M285.5335 10.4173
L285.4097 10.6030
" />
<path d="M285.4097 10.6030
L285.3478 10.8506
" />
<path d="M285.3478 10.8506
L285.3478 11.3458
" />
<path d="M285.3478 11.3458
L285.4097 11.4696
" />
<path d="M285.4097 11.4696
L285.4716 11.5316
" />
<path d="M285.4716 11.5316
L285.5954 11.5935
" />
<path d="M285.5954 11.5935
L285.8430 11.5935
" />
<path d="M285.8430 11.5935
L285.9668 11.5316
" />
<path d="M285.9668 11.5316
L286.0287 11.4696
" />
<path d="M286.0287 11.4696
L286.0906 11.3458
" />
<path d="M286.0906 11.3458
L286.0906 11.0363
" />
<path d="M286.0906 11.0363
L286.0287 10.9125
" />
<path d="M286.0287 10.9125
L285.9668 10.8506
" />
<path d="M285.9668 10.8506
L285.8430 10.7887
" />
<path d="M285.8430 10.7887
L285.5954 10.7887
" />
<path d="M285.5954 10.7887
L285.4716 10.8506
" />
<path d="M285.4716 10.8506
L285.4097 10.9125
" />
<path d="M285.4097 10.9125
L285.3478 11.0363
" />
</g><path d="M60.0000 198.0072
L60.0000 200.0072
" />
<path d="M110.0000 198.0072
L110.0000 200.0072
" />
<path d="M160.0000 198.0072
L160.0000 200.0072
" />
<path d="M210.0000 198.0072
L210.0000 200.0072
" />
<path d="M260.0000 198.0072
L260.0000 200.0072
" />
<text x="35.0000" y="199.6572"
textLength="1.4353" font-size="1.7333" lengthAdjust="spacingAndGlyphs"
text-anchor="start" opacity="0" stroke-opacity="0">1</text>
<g class="stroked-text"><desc>1</desc>
<path d="M36.0906 199.6007
L35.3478 199.6007
" />
<path d="M35.7192 199.6007
L35.7192 198.3007
" />
<path d="M35.7192 198.3007
L35.5954 198.4864
" />
<path d="M35.5954 198.4864
L35.4716 198.6102
" />
<path d="M35.4716 198.6102
L35.3478 198.6721
" />
</g><text x="85.0000" y="199.6572"
textLength="1.4353" font-size="1.7333" lengthAdjust="spacingAndGlyphs"
text-anchor="start" opacity="0" stroke-opacity="0">2</text>
<g class="stroked-text"><desc>2</desc>
<path d="M85.3478 198.4245
L85.4097 198.3626
" />
<path d="M85.4097 198.3626
L85.5335 198.3007
" />
<path d="M85.5335 198.3007
L85.8430 198.3007
" />
<path d="M85.8430 198.3007
L85.9668 198.3626
" />
<path d="M85.9668 198.3626
L86.0287 198.4245
" />
<path d="M86.0287 198.4245
L86.0906 198.5483
" />
<path d="M86.0906 198.5483
L86.0906 198.6721
" />
<path d="M86.0906 198.6721
L86.0287 198.8578
" />
<path d="M86.0287 198.8578
L85.2859 199.6007
" />
<path d="M85.2859 199.6007
L86.0906 199.6007
" />
</g><text x="135.0000" y="199.6572"
textLength="1.4353" font-size="1.7333" lengthAdjust="spacingAndGlyphs"
text-anchor="start" opacity="0" stroke-opacity="0">3</text>
<g class="stroked-text"><desc>3</desc>
<path d="M135.2859 198.3007
L136.0906 198.3007
" />
<path d="M136.0906 198.3007
L135.6573 198.7959
" />
<path d="M135.6573 198.7959
L135.8430 198.7959
" />
<path d="M135.8430 198.7959
L135.9668 198.8578
" />
<path d="M135.9668 198.8578
L136.0287 198.9197
" />
<path d="M136.0287 198.9197
L136.0906 199.0435
" />
<path d="M136.0906 199.0435
L136.0906 199.3530
" />
<path d="M136.0906 199.3530
L136.0287 199.4768
" />
<path d="M136.0287 199.4768
L135.9668 199.5388
" />
<path d="M135.9668 199.5388
L135.8430 199.6007
" />
<path d="M135.8430 199.6007
L135.4716 199.6007
" />
<path d="M135.4716 199.6007
L135.3478 199.5388
" />
<path d="M135.3478 199.5388
L135.2859 199.4768
" />
</g><text x="185.0000" y="199.6572"
textLength="1.4353" font-size="1.7333" lengthAdjust="spacingAndGlyphs"
text-anchor="start" opacity="0" stroke-opacity="0">4</text>
<g class="stroked-text"><desc>4</desc>
<path d="M185.9668 198.7340
L185.9668 199.6007
" />
<path d="M185.6573 198.2388
L185.3478 199.1673
" />
<path d="M185.3478 199.1673
L186.1525 199.1673
" />
</g><text x="235.0000" y="199.6572"
textLength="1.4353" font-size="1.7333" lengthAdjust="spacingAndGlyphs"
text-anchor="start" opacity="0" stroke-opacity="0">5</text>
<g class="stroked-text"><desc>5</desc>
<path d="M236.0287 198.3007
L235.4097 198.3007
" />
<path d="M235.4097 198.3007
L235.3478 198.9197
" />
<path d="M235.3478 198.9197
L235.4097 198.8578
" />
<path d="M235.4097 198.8578
L235.5335 198.7959
" />
<path d="M235.5335 198.7959
L235.8430 198.7959
" />
<path d="M235.8430 198.7959
L235.9668 198.8578
" />
<path d="M235.9668 198.8578
L236.0287 198.9197
" />
<path d="M236.0287 198.9197
L236.0906 199.0435
" />
<path d="M236.0906 199.0435
L236.0906 199.3530
" />
<path d="M236.0906 199.3530
L236.0287 199.4768
" />
<path d="M236.0287 199.4768
L235.9668 199.5388
" />
<path d="M235.9668 199.5388
L235.8430 199.6007
" />
<path d="M235.8430 199.6007
L235.5335 199.6007
" />
<path d="M235.5335 199.6007
L235.4097 199.5388
" />
<path d="M235.4097 199.5388
L235.3478 199.4768
" />
</g><text x="285.0000" y="199.6572"
textLength="1.4353" font-size="1.7333" lengthAdjust="spacingAndGlyphs"
text-anchor="start" opacity="0" stroke-opacity="0">6</text>
<g class="stroked-text"><desc>6</desc>
<path d="M285.9668 198.3007
L285.7192 198.3007
" />
<path d="M285.7192 198.3007
L285.5954 198.3626
" />
<path d="M285.5954 198.3626
L285.5335 198.4245
" />
<path d="M285.5335 198.4245
L285.4097 198.6102
" />
<path d="M285.4097 198.6102
L285.3478 198.8578
" />
<path d="M285.3478 198.8578
L285.3478 199.3530
" />
<path d="M285.3478 199.3530
L285.4097 199.4768
" />
<path d="M285.4097 199.4768
L285.4716 199.5388
" />
<path d="M285.4716 199.5388
L285.5954 199.6007
" />
<path d="M285.5954 199.6007
L285.8430 199.6007
" />
<path d="M285.8430 199.6007
L285.9668 199.5388
" />
<path d="M285.9668 199.5388
L286.0287 199.4768
" />
<path d="M286.0287 199.4768
L286.0906 199.3530
" />
<path d="M286.0906 199.3530
L286.0906 199.0435
" />
<path d="M286.0906 199.0435
L286.0287 198.9197
" />
<path d="M286.0287 198.9197
L285.9668 198.8578
" />
<path d="M285.9668 198.8578
L285.8430 198.7959
" />
<path d="M285.8430 198.7959
L285.5954 198.7959
" />
<path d="M285.5954 198.7959
L285.4716 198.8578
" />
<path d="M285.4716 198.8578
L285.4097 198.9197
" />
<path d="M285.4097 198.9197
L285.3478 199.0435
" />
</g><path d="M10.0000 60.0000
L12.0000 60.0000
" />
<path d="M10.0000 110.0000
L12.0000 110.0000
" />
<path d="M10.0000 160.0000
L12.0000 160.0000
" />
<text x="11.0000" y="35.6500"
textLength="1.3115" font-size="1.7333" lengthAdjust="spacingAndGlyphs"
text-anchor="middle" opacity="0" stroke-opacity="0">A</text>
<g class="stroked-text"><desc>A</desc>
<path d="M10.6905 35.2220
L11.3095 35.2220
" />
<path d="M10.5667 35.5935
L11.0000 34.2935
" />
<path d="M11.0000 34.2935
L11.4333 35.5935
" />
</g><text x="11.0000" y="85.6500"
textLength="1.4972" font-size="1.7333" lengthAdjust="spacingAndGlyphs"
text-anchor="middle" opacity="0" stroke-opacity="0">B</text>
<g class="stroked-text"><desc>B</desc>
<path d="M11.0928 84.9125
L11.2785 84.9744
" />
<path d="M11.2785 84.9744
L11.3404 85.0363
" />
<path d="M11.3404 85.0363
L11.4023 85.1601
" />
<path d="M11.4023 85.1601
L11.4023 85.3458
" />
<path d="M11.4023 85.3458
L11.3404 85.4696
" />
<path d="M11.3404 85.4696
L11.2785 85.5316
" />
<path d="M11.2785 85.5316
L11.1547 85.5935
" />
<path d="M11.1547 85.5935
L10.6595 85.5935
" />
<path d="M10.6595 85.5935
L10.6595 84.2935
" />
<path d="M10.6595 84.2935
L11.0928 84.2935
" />
<path d="M11.0928 84.2935
L11.2166 84.3554
" />
<path d="M11.2166 84.3554
L11.2785 84.4173
" />
<path d="M11.2785 84.4173
L11.3404 84.5411
" />
<path d="M11.3404 84.5411
L11.3404 84.6649
" />
<path d="M11.3404 84.6649
L11.2785 84.7887
" />
<path d="M11.2785 84.7887
L11.2166 84.8506
" />
<path d="M11.2166 84.8506
L11.0928 84.9125
" />
<path d="M11.0928 84.9125
L10.6595 84.9125
" />
</g><text x="11.0000" y="135.6500"
textLength="1.4972" font-size="1.7333" lengthAdjust="spacingAndGlyphs"
text-anchor="middle" opacity="0" stroke-opacity="0">C</text>
<g class="stroked-text"><desc>C</desc>
<path d="M11.4023 135.4696
L11.3404 135.5316
" />
<path d="M11.3404 135.5316
L11.1547 135.5935
" />
<path d="M11.1547 135.5935
L11.0309 135.5935
" />
<path d="M11.0309 135.5935
L10.8452 135.5316
" />
<path d="M10.8452 135.5316
L10.7214 135.4077
" />
<path d="M10.7214 135.4077
L10.6595 135.2839
" />
<path d="M10.6595 135.2839
L10.5976 135.0363
" />
<path d="M10.5976 135.0363
L10.5976 134.8506
" />
<path d="M10.5976 134.8506
L10.6595 134.6030
" />
<path d="M10.6595 134.6030
L10.7214 134.4792
" />
<path d="M10.7214 134.4792
L10.8452 134.3554
" />
<path d="M10.8452 134.3554
L11.0309 134.2935
" />
<path d="M11.0309 134.2935
L11.1547 134.2935
" />
<path d="M11.1547 134.2935
L11.3404 134.3554
" />
<path d="M11.3404 134.3554
L11.4023 134.4173
" />
</g><text x="11.0000" y="185.6500"
textLength="1.4972" font-size="1.7333" lengthAdjust="spacingAndGlyphs"
text-anchor="middle" opacity="0" stroke-opacity="0">D</text>
<g class="stroked-text"><desc>D</desc>
<path d="M10.6595 185.5935
L10.6595 184.2935
" />
<path d="M10.6595 184.2935
L10.9690 184.2935
" />
<path d="M10.9690 184.2935
L11.1547 184.3554
" />
<path d="M11.1547 184.3554
L11.2785 184.4792
" />
<path d="M11.2785 184.4792
L11.3404 184.6030
" />
<path d="M11.3404 184.6030
L11.4023 184.8506
" />
<path d="M11.4023 184.8506
L11.4023 185.0363
" />
<path d="M11.4023 185.0363
L11.3404 185.2839
" />
<path d="M11.3404 185.2839
L11.2785 185.4077
" />
<path d="M11.2785 185.4077
L11.1547 185.5316
" />
<path d="M11.1547 185.5316
L10.9690 185.5935
" />
<path d="M10.9690 185.5935
L10.6595 185.5935
" />
</g><path d="M287.0022 60.0000
L285.0022 60.0000
" />
<path d="M287.0022 110.0000
L285.0022 110.0000
" />
<path d="M287.0022 160.0000
L285.0022 160.0000
" />
<text x="286.0022" y="35.6500"
textLength="1.3115" font-size="1.7333" lengthAdjust="spacingAndGlyphs"
text-anchor="middle" opacity="0" stroke-opacity="0">A</text>
<g class="stroked-text"><desc>A</desc>
<path d="M285.6927 35.2220
L286.3117 35.2220
" />
<path d="M285.5689 35.5935
L286.0022 34.2935
" />
<path d="M286.0022 34.2935
L286.4355 35.5935
" />
</g><text x="286.0022" y="85.6500"
textLength="1.4972" font-size="1.7333" lengthAdjust="spacingAndGlyphs"
text-anchor="middle" opacity="0" stroke-opacity="0">B</text>
<g class="stroked-text"><desc>B</desc>
<path d="M286.0950 84.9125
L286.2807 84.9744
" />
<path d="M286.2807 84.9744
L286.3426 85.0363
" />
<path d="M286.3426 85.0363
L286.4045 85.1601
" />
<path d="M286.4045 85.1601
L286.4045 85.3458
" />
<path d="M286.4045 85.3458
L286.3426 85.4696
" />
<path d="M286.3426 85.4696
L286.2807 85.5316
" />
<path d="M286.2807 85.5316
L286.1569 85.5935
" />
<path d="M286.1569 85.5935
L285.6617 85.5935
" />
<path d="M285.6617 85.5935
L285.6617 84.2935
" />
<path d="M285.6617 84.2935
L286.0950 84.2935
" />
<path d="M286.0950 84.2935
L286.2188 84.3554
" />
<path d="M286.2188 84.3554
L286.2807 84.4173
" />
<path d="M286.2807 84.4173
L286.3426 84.5411
" />
<path d="M286.3426 84.5411
L286.3426 84.6649
" />
<path d="M286.3426 84.6649
L286.2807 84.7887
" />
<path d="M286.2807 84.7887
L286.2188 84.8506
" />
<path d="M286.2188 84.8506
L286.0950 84.9125
" />
<path d="M286.0950 84.9125
L285.6617 84.9125
" />
</g><text x="286.0022" y="135.6500"
textLength="1.4972" font-size="1.7333" lengthAdjust="spacingAndGlyphs"
text-anchor="middle" opacity="0" stroke-opacity="0">C</text>
<g class="stroked-text"><desc>C</desc>
<path d="M286.4045 135.4696
L286.3426 135.5316
" />
<path d="M286.3426 135.5316
L286.1569 135.5935
" />
<path d="M286.1569 135.5935
L286.0331 135.5935
" />
<path d="M286.0331 135.5935
L285.8474 135.5316
" />
<path d="M285.8474 135.5316
L285.7236 135.4077
" />
<path d="M285.7236 135.4077
L285.6617 135.2839
" />
<path d="M285.6617 135.2839
L285.5998 135.0363
" />
<path d="M285.5998 135.0363
L285.5998 134.8506
" />
<path d="M285.5998 134.8506
L285.6617 134.6030
" />
<path d="M285.6617 134.6030
L285.7236 134.4792
" />
<path d="M285.7236 134.4792
L285.8474 134.3554
" />
<path d="M285.8474 134.3554
L286.0331 134.2935
" />
<path d="M286.0331 134.2935
L286.1569 134.2935
" />
<path d="M286.1569 134.2935
L286.3426 134.3554
" />
<path d="M286.3426 134.3554
L286.4045 134.4173
" />
</g><text x="286.0022" y="185.6500"
textLength="1.4972" font-size="1.7333" lengthAdjust="spacingAndGlyphs"
text-anchor="middle" opacity="0" stroke-opacity="0">D</text>
<g class="stroked-text"><desc>D</desc>
<path d="M285.6617 185.5935
L285.6617 184.2935
" />
<path d="M285.6617 184.2935
L285.9712 184.2935
" />
<path d="M285.9712 184.2935
L286.1569 184.3554
" />
<path d="M286.1569 184.3554
L286.2807 184.4792
" />
<path d="M286.2807 184.4792
L286.3426 184.6030
" />
<path d="M286.3426 184.6030
L286.4045 184.8506
" />
<path d="M286.4045 184.8506
L286.4045 185.0363
" />
<path d="M286.4045 185.0363
L286.3426 185.2839
" />
<path d="M286.3426 185.2839
L286.2807 185.4077
" />
<path d="M286.2807 185.4077
L286.1569 185.5316
" />
<path d="M286.1569 185.5316
L285.9712 185.5935
" />
<path d="M285.9712 185.5935
L285.6617 185.5935
" />
</g><text x="200.0022" y="193.8572"
textLength="7.0143" font-size="2.0000" lengthAdjust="spacingAndGlyphs"
text-anchor="start" opacity="0" stroke-opacity="0">Date: </text>
<g class="stroked-text"><desc>Date: </desc>
<path d="M200.4595 193.7931
L200.4595 192.2931
" />
<path d="M200.4595 192.2931
L200.8166 192.2931
" />
<path d="M200.8166 192.2931
L201.0309 192.3645
" />
<path d="M201.0309 192.3645
L201.1738 192.5074
" />
<path d="M201.1738 192.5074
L201.2452 192.6502
" />
<path d="M201.2452 192.6502
L201.3166 192.9359
" />
<path d="M201.3166 192.9359
L201.3166 193.1502
" />
<path d="M201.3166 193.1502
L201.2452 193.4359
" />
<path d="M201.2452 193.4359
L201.1738 193.5788
" />
<path d="M201.1738 193.5788
L201.0309 193.7217
" />
<path d="M201.0309 193.7217
L200.8166 193.7931
" />
<path d="M200.8166 193.7931
L200.4595 193.7931
" />
<path d="M202.6024 193.7931
L202.6024 193.0074
" />
<path d="M202.6024 193.0074
L202.5309 192.8645
" />
<path d="M202.5309 192.8645
L202.3881 192.7931
" />
<path d="M202.3881 192.7931
L202.1024 192.7931
" />
<path d="M202.1024 192.7931
L201.9595 192.8645
" />
<path d="M202.6024 193.7217
L202.4595 193.7931
" />
<path d="M202.4595 193.7931
L202.1024 193.7931
" />
<path d="M202.1024 193.7931
L201.9595 193.7217
" />
<path d="M201.9595 193.7217
L201.8881 193.5788
" />
<path d="M201.8881 193.5788
L201.8881 193.4359
" />
<path d="M201.8881 193.4359
L201.9595 193.2931
" />
<path d="M201.9595 193.2931
L202.1024 193.2217
" />
<path d="M202.1024 193.2217
L202.4595 193.2217
" />
<path d="M202.4595 193.2217
L202.6024 193.1502
" />
<path d="M203.1023 192.7931
L203.6737 192.7931
" />
<path d="M203.3166 192.2931
L203.3166 193.5788
" />
<path d="M203.3166 193.5788
L203.3880 193.7217
" />
<path d="M203.3880 193.7217
L203.5309 193.7931
" />
<path d="M203.5309 193.7931
L203.6737 193.7931
" />
<path d="M204.7451 193.7217
L204.6023 193.7931
" />
<path d="M204.6023 193.7931
L204.3166 193.7931
" />
<path d="M204.3166 193.7931
L204.1737 193.7217
" />
<path d="M204.1737 193.7217
L204.1023 193.5788
" />
<path d="M204.1023 193.5788
L204.1023 193.0074
" />
<path d="M204.1023 193.0074
L204.1737 192.8645
" />
<path d="M204.1737 192.8645
L204.3166 192.7931
" />
<path d="M204.3166 192.7931
L204.6023 192.7931
" />
<path d="M204.6023 192.7931
L204.7451 192.8645
" />
<path d="M204.7451 192.8645
L204.8166 193.0074
" />
<path d="M204.8166 193.0074
L204.8166 193.1502
" />
<path d="M204.8166 193.1502
L204.1023 193.2931
" />
<path d="M205.4594 193.6502
L205.5308 193.7217
" />
<path d="M205.5308 193.7217
L205.4594 193.7931
" />
<path d="M205.4594 193.7931
L205.3880 193.7217
" />
<path d="M205.3880 193.7217
L205.4594 193.6502
" />
<path d="M205.4594 193.6502
L205.4594 193.7931
" />
<path d="M205.4594 192.8645
L205.5308 192.9359
" />
<path d="M205.5308 192.9359
L205.4594 193.0074
" />
<path d="M205.4594 193.0074
L205.3880 192.9359
" />
<path d="M205.3880 192.9359
L205.4594 192.8645
" />
<path d="M205.4594 192.8645
L205.4594 193.0074
" />
</g><path d="M177.0022 194.5072
L285.0022 194.5072
" />
<text x="178.0022" y="196.6572"
textLength="20.8716" font-size="2.0000" lengthAdjust="spacingAndGlyphs"
text-anchor="start" opacity="0" stroke-opacity="0">KiCad E.D.A. 9.0.6</text>
<g class="stroked-text"><desc>KiCad E.D.A. 9.0.6</desc>
<path d="M178.4595 196.5931
L178.4595 195.0931
" />
<path d="M179.3166 196.5931
L178.6738 195.7359
" />
<path d="M179.3166 195.0931
L178.4595 195.9502
" />
<path d="M179.9595 196.5931
L179.9595 195.5931
" />
<path d="M179.9595 195.0931
L179.8881 195.1645
" />
<path d="M179.8881 195.1645
L179.9595 195.2359
" />
<path d="M179.9595 195.2359
L180.0309 195.1645
" />
<path d="M180.0309 195.1645
L179.9595 195.0931
" />
<path d="M179.9595 195.0931
L179.9595 195.2359
" />
<path d="M181.5309 196.4502
L181.4595 196.5217
" />
<path d="M181.4595 196.5217
L181.2452 196.5931
" />
<path d="M181.2452 196.5931
L181.1024 196.5931
" />
<path d="M181.1024 196.5931
L180.8881 196.5217
" />
<path d="M180.8881 196.5217
L180.7452 196.3788
" />
<path d="M180.7452 196.3788
L180.6738 196.2359
" />
<path d="M180.6738 196.2359
L180.6024 195.9502
" />
<path d="M180.6024 195.9502
L180.6024 195.7359
" />
<path d="M180.6024 195.7359
L180.6738 195.4502
" />
<path d="M180.6738 195.4502
L180.7452 195.3074
" />
<path d="M180.7452 195.3074
L180.8881 195.1645
" />
<path d="M180.8881 195.1645
L181.1024 195.0931
" />
<path d="M181.1024 195.0931
L181.2452 195.0931
" />
<path d="M181.2452 195.0931
L181.4595 195.1645
" />
<path d="M181.4595 195.1645
L181.5309 195.2359
" />
<path d="M182.8167 196.5931
L182.8167 195.8074
" />
<path d="M182.8167 195.8074
L182.7452 195.6645
" />
<path d="M182.7452 195.6645
L182.6024 195.5931
" />
<path d="M182.6024 195.5931
L182.3167 195.5931
" />
<path d="M182.3167 195.5931
L182.1738 195.6645
" />
<path d="M182.8167 196.5217
L182.6738 196.5931
" />
<path d="M182.6738 196.5931
L182.3167 196.5931
" />
<path d="M182.3167 196.5931
L182.1738 196.5217
" />
<path d="M182.1738 196.5217
L182.1024 196.3788
" />
<path d="M182.1024 196.3788
L182.1024 196.2359
" />
<path d="M182.1024 196.2359
L182.1738 196.0931
" />
<path d="M182.1738 196.0931
L182.3167 196.0217
" />
<path d="M182.3167 196.0217
L182.6738 196.0217
" />
<path d="M182.6738 196.0217
L182.8167 195.9502
" />
<path d="M184.1738 196.5931
L184.1738 195.0931
" />
<path d="M184.1738 196.5217
L184.0309 196.5931
" />
<path d="M184.0309 196.5931
L183.7452 196.5931
" />
<path d="M183.7452 196.5931
L183.6023 196.5217
" />
<path d="M183.6023 196.5217
L183.5309 196.4502
" />
<path d="M183.5309 196.4502
L183.4595 196.3074
" />
<path d="M183.4595 196.3074
L183.4595 195.8788
" />
<path d="M183.4595 195.8788
L183.5309 195.7359
" />
<path d="M183.5309 195.7359
L183.6023 195.6645
" />
<path d="M183.6023 195.6645
L183.7452 195.5931
" />
<path d="M183.7452 195.5931
L184.0309 195.5931
" />
<path d="M184.0309 195.5931
L184.1738 195.6645
" />
<path d="M186.0309 195.8074
L186.5309 195.8074
" />
<path d="M186.7452 196.5931
L186.0309 196.5931
" />
<path d="M186.0309 196.5931
L186.0309 195.0931
" />
<path d="M186.0309 195.0931
L186.7452 195.0931
" />
<path d="M187.3880 196.4502
L187.4594 196.5217
" />
<path d="M187.4594 196.5217
L187.3880 196.5931
" />
<path d="M187.3880 196.5931
L187.3166 196.5217
" />
<path d="M187.3166 196.5217
L187.3880 196.4502
" />
<path d="M187.3880 196.4502
L187.3880 196.5931
" />
<path d="M188.1023 196.5931
L188.1023 195.0931
" />
<path d="M188.1023 195.0931
L188.4594 195.0931
" />
<path d="M188.4594 195.0931
L188.6737 195.1645
" />
<path d="M188.6737 195.1645
L188.8166 195.3074
" />
<path d="M188.8166 195.3074
L188.8880 195.4502
" />
<path d="M188.8880 195.4502
L188.9594 195.7359
" />
<path d="M188.9594 195.7359
L188.9594 195.9502
" />
<path d="M188.9594 195.9502
L188.8880 196.2359
" />
<path d="M188.8880 196.2359
L188.8166 196.3788
" />
<path d="M188.8166 196.3788
L188.6737 196.5217
" />
<path d="M188.6737 196.5217
L188.4594 196.5931
" />
<path d="M188.4594 196.5931
L188.1023 196.5931
" />
<path d="M189.6023 196.4502
L189.6737 196.5217
" />
<path d="M189.6737 196.5217
L189.6023 196.5931
" />
<path d="M189.6023 196.5931
L189.5309 196.5217
" />
<path d="M189.5309 196.5217
L189.6023 196.4502
" />
<path d="M189.6023 196.4502
L189.6023 196.5931
" />
<path d="M190.2452 196.1645
L190.9595 196.1645
" />
<path d="M190.1023 196.5931
L190.6023 195.0931
" />
<path d="M190.6023 195.0931
L191.1023 196.5931
" />
<path d="M191.6023 196.4502
L191.6737 196.5217
" />
<path d="M191.6737 196.5217
L191.6023 196.5931
" />
<path d="M191.6023 196.5931
L191.5309 196.5217
" />
<path d="M191.5309 196.5217
L191.6023 196.4502
" />
<path d="M191.6023 196.4502
L191.6023 196.5931
" />
<path d="M193.5309 196.5931
L193.8166 196.5931
" />
<path d="M193.8166 196.5931
L193.9595 196.5217
" />
<path d="M193.9595 196.5217
L194.0309 196.4502
" />
<path d="M194.0309 196.4502
L194.1738 196.2359
" />
<path d="M194.1738 196.2359
L194.2452 195.9502
" />
<path d="M194.2452 195.9502
L194.2452 195.3788
" />
<path d="M194.2452 195.3788
L194.1738 195.2359
" />
<path d="M194.1738 195.2359
L194.1024 195.1645
" />
<path d="M194.1024 195.1645
L193.9595 195.0931
" />
<path d="M193.9595 195.0931
L193.6738 195.0931
" />
<path d="M193.6738 195.0931
L193.5309 195.1645
" />
<path d="M193.5309 195.1645
L193.4595 195.2359
" />
<path d="M193.4595 195.2359
L193.3881 195.3788
" />
<path d="M193.3881 195.3788
L193.3881 195.7359
" />
<path d="M193.3881 195.7359
L193.4595 195.8788
" />
<path d="M193.4595 195.8788
L193.5309 195.9502
" />
<path d="M193.5309 195.9502
L193.6738 196.0217
" />
<path d="M193.6738 196.0217
L193.9595 196.0217
" />
<path d="M193.9595 196.0217
L194.1024 195.9502
" />
<path d="M194.1024 195.9502
L194.1738 195.8788
" />
<path d="M194.1738 195.8788
L194.2452 195.7359
" />
<path d="M194.8881 196.4502
L194.9595 196.5217
" />
<path d="M194.9595 196.5217
L194.8881 196.5931
" />
<path d="M194.8881 196.5931
L194.8167 196.5217
" />
<path d="M194.8167 196.5217
L194.8881 196.4502
" />
<path d="M194.8881 196.4502
L194.8881 196.5931
" />
<path d="M195.8881 195.0931
L196.0310 195.0931
" />
<path d="M196.0310 195.0931
L196.1738 195.1645
" />
<path d="M196.1738 195.1645
L196.2453 195.2359
" />
<path d="M196.2453 195.2359
L196.3167 195.3788
" />
<path d="M196.3167 195.3788
L196.3881 195.6645
" />
<path d="M196.3881 195.6645
L196.3881 196.0217
" />
<path d="M196.3881 196.0217
L196.3167 196.3074
" />
<path d="M196.3167 196.3074
L196.2453 196.4502
" />
<path d="M196.2453 196.4502
L196.1738 196.5217
" />
<path d="M196.1738 196.5217
L196.0310 196.5931
" />
<path d="M196.0310 196.5931
L195.8881 196.5931
" />
<path d="M195.8881 196.5931
L195.7453 196.5217
" />
<path d="M195.7453 196.5217
L195.6738 196.4502
" />
<path d="M195.6738 196.4502
L195.6024 196.3074
" />
<path d="M195.6024 196.3074
L195.5310 196.0217
" />
<path d="M195.5310 196.0217
L195.5310 195.6645
" />
<path d="M195.5310 195.6645
L195.6024 195.3788
" />
<path d="M195.6024 195.3788
L195.6738 195.2359
" />
<path d="M195.6738 195.2359
L195.7453 195.1645
" />
<path d="M195.7453 195.1645
L195.8881 195.0931
" />
<path d="M197.0310 196.4502
L197.1024 196.5217
" />
<path d="M197.1024 196.5217
L197.0310 196.5931
" />
<path d="M197.0310 196.5931
L196.9596 196.5217
" />
<path d="M196.9596 196.5217
L197.0310 196.4502
" />
<path d="M197.0310 196.4502
L197.0310 196.5931
" />
<path d="M198.3882 195.0931
L198.1024 195.0931
" />
<path d="M198.1024 195.0931
L197.9596 195.1645
" />
<path d="M197.9596 195.1645
L197.8882 195.2359
" />
<path d="M197.8882 195.2359
L197.7453 195.4502
" />
<path d="M197.7453 195.4502
L197.6739 195.7359
" />
<path d="M197.6739 195.7359
L197.6739 196.3074
" />
<path d="M197.6739 196.3074
L197.7453 196.4502
" />
<path d="M197.7453 196.4502
L197.8167 196.5217
" />
<path d="M197.8167 196.5217
L197.9596 196.5931
" />
<path d="M197.9596 196.5931
L198.2453 196.5931
" />
<path d="M198.2453 196.5931
L198.3882 196.5217
" />
<path d="M198.3882 196.5217
L198.4596 196.4502
" />
<path d="M198.4596 196.4502
L198.5310 196.3074
" />
<path d="M198.5310 196.3074
L198.5310 195.9502
" />
<path d="M198.5310 195.9502
L198.4596 195.8074
" />
<path d="M198.4596 195.8074
L198.3882 195.7359
" />
<path d="M198.3882 195.7359
L198.2453 195.6645
" />
<path d="M198.2453 195.6645
L197.9596 195.6645
" />
<path d="M197.9596 195.6645
L197.8167 195.7359
" />
<path d="M197.8167 195.7359
L197.7453 195.8074
" />
<path d="M197.7453 195.8074
L197.6739 195.9502
" />
</g><path d="M177.0022 191.5072
L285.0022 191.5072
" />
</g>
<g style="fill:none; 
stroke:#840000; stroke-width:0.3000; stroke-opacity:1; 
stroke-linecap:round; stroke-linejoin:round;">
<text x="263.0022" y="193.8572"
textLength="6.3858" font-size="2.0000" lengthAdjust="spacingAndGlyphs"
text-anchor="start" opacity="0" stroke-opacity="0">Rev: </text>
<g class="stroked-text"><desc>Rev: </desc>
<path d="M264.4137 193.7855
L263.9137 193.0712
" />
<path d="M263.5566 193.7855
L263.5566 192.2855
" />
<path d="M263.5566 192.2855
L264.1280 192.2855
" />
<path d="M264.1280 192.2855
L264.2709 192.3569
" />
<path d="M264.2709 192.3569
L264.3423 192.4283
" />
<path d="M264.3423 192.4283
L264.4137 192.5712
" />
<path d="M264.4137 192.5712
L264.4137 192.7855
" />
<path d="M264.4137 192.7855
L264.3423 192.9283
" />
<path d="M264.3423 192.9283
L264.2709 192.9998
" />
<path d="M264.2709 192.9998
L264.1280 193.0712
" />
<path d="M264.1280 193.0712
L263.5566 193.0712
" />
<path d="M265.6280 193.7141
L265.4852 193.7855
" />
<path d="M265.4852 193.7855
L265.1995 193.7855
" />
<path d="M265.1995 193.7855
L265.0566 193.7141
" />
<path d="M265.0566 193.7141
L264.9852 193.5712
" />
<path d="M264.9852 193.5712
L264.9852 192.9998
" />
<path d="M264.9852 192.9998
L265.0566 192.8569
" />
<path d="M265.0566 192.8569
L265.1995 192.7855
" />
<path d="M265.1995 192.7855
L265.4852 192.7855
" />
<path d="M265.4852 192.7855
L265.6280 192.8569
" />
<path d="M265.6280 192.8569
L265.6995 192.9998
" />
<path d="M265.6995 192.9998
L265.6995 193.1426
" />
<path d="M265.6995 193.1426
L264.9852 193.2855
" />
<path d="M266.1994 192.7855
L266.5566 193.7855
" />
<path d="M266.5566 193.7855
L266.9137 192.7855
" />
<path d="M267.4852 193.6426
L267.5566 193.7141
" />
<path d="M267.5566 193.7141
L267.4852 193.7855
" />
<path d="M267.4852 193.7855
L267.4138 193.7141
" />
<path d="M267.4138 193.7141
L267.4852 193.6426
" />
<path d="M267.4852 193.6426
L267.4852 193.7855
" />
<path d="M267.4852 192.8569
L267.5566 192.9283
" />
<path d="M267.5566 192.9283
L267.4852 192.9998
" />
<path d="M267.4852 192.9998
L267.4138 192.9283
" />
<path d="M267.4138 192.9283
L267.4852 192.8569
" />
<path d="M267.4852 192.8569
L267.4852 192.9998
" />
</g></g>
<g style="fill:none; 
stroke:#840000; stroke-width:0.1524; stroke-opacity:1; 
stroke-linecap:round; stroke-linejoin:round;">
<text x="178.0022" y="193.8572"
textLength="9.3716" font-size="2.0000" lengthAdjust="spacingAndGlyphs"
text-anchor="start" opacity="0" stroke-opacity="0">Size: A4</text>
<g class="stroked-text"><desc>Size: A4</desc>
<path d="M178.3881 193.7217
L178.6024 193.7931
" />
<path d="M178.6024 193.7931
L178.9595 193.7931
" />
<path d="M178.9595 193.7931
L179.1024 193.7217
" />
<path d="M179.1024 193.7217
L179.1738 193.6502
" />
<path d="M179.1738 193.6502
L179.2452 193.5074
" />
<path d="M179.2452 193.5074
L179.2452 193.3645
" />
<path d="M179.2452 193.3645
L179.1738 193.2217
" />
<path d="M179.1738 193.2217
L179.1024 193.1502
" />
<path d="M179.1024 193.1502
L178.9595 193.0788
" />
<path d="M178.9595 193.0788
L178.6738 193.0074
" />
<path d="M178.6738 193.0074
L178.5309 192.9359
" />
<path d="M178.5309 192.9359
L178.4595 192.8645
" />
<path d="M178.4595 192.8645
L178.3881 192.7217
" />
<path d="M178.3881 192.7217
L178.3881 192.5788
" />
<path d="M178.3881 192.5788
L178.4595 192.4359
" />
<path d="M178.4595 192.4359
L178.5309 192.3645
" />
<path d="M178.5309 192.3645
L178.6738 192.2931
" />
<path d="M178.6738 192.2931
L179.0309 192.2931
" />
<path d="M179.0309 192.2931
L179.2452 192.3645
" />
<path d="M179.8881 193.7931
L179.8881 192.7931
" />
<path d="M179.8881 192.2931
L179.8167 192.3645
" />
<path d="M179.8167 192.3645
L179.8881 192.4359
" />
<path d="M179.8881 192.4359
L179.9595 192.3645
" />
<path d="M179.9595 192.3645
L179.8881 192.2931
" />
<path d="M179.8881 192.2931
L179.8881 192.4359
" />
<path d="M180.4595 192.7931
L181.2453 192.7931
" />
<path d="M181.2453 192.7931
L180.4595 193.7931
" />
<path d="M180.4595 193.7931
L181.2453 193.7931
" />
<path d="M182.3881 193.7217
L182.2453 193.7931
" />
<path d="M182.2453 193.7931
L181.9596 193.7931
" />
<path d="M181.9596 193.7931
L181.8167 193.7217
" />
<path d="M181.8167 193.7217
L181.7453 193.5788
" />
<path d="M181.7453 193.5788
L181.7453 193.0074
" />
<path d="M181.7453 193.0074
L181.8167 192.8645
" />
<path d="M181.8167 192.8645
L181.9596 192.7931
" />
<path d="M181.9596 192.7931
L182.2453 192.7931
" />
<path d="M182.2453 192.7931
L182.3881 192.8645
" />
<path d="M182.3881 192.8645
L182.4596 193.0074
" />
<path d="M182.4596 193.0074
L182.4596 193.1502
" />
<path d="M182.4596 193.1502
L181.7453 193.2931
" />
<path d="M183.1024 193.6502
L183.1738 193.7217
" />
<path d="M183.1738 193.7217
L183.1024 193.7931
" />
<path d="M183.1024 193.7931
L183.0310 193.7217
" />
<path d="M183.0310 193.7217
L183.1024 193.6502
" />
<path d="M183.1024 193.6502
L183.1024 193.7931
" />
<path d="M183.1024 192.8645
L183.1738 192.9359
" />
<path d="M183.1738 192.9359
L183.1024 193.0074
" />
<path d="M183.1024 193.0074
L183.0310 192.9359
" />
<path d="M183.0310 192.9359
L183.1024 192.8645
" />
<path d="M183.1024 192.8645
L183.1024 193.0074
" />
<path d="M184.8882 193.3645
L185.6025 193.3645
" />
<path d="M184.7453 193.7931
L185.2453 192.2931
" />
<path d="M185.2453 192.2931
L185.7453 193.7931
" />
<path d="M186.8882 192.7931
L186.8882 193.7931
" />
<path d="M186.5310 192.2217
L186.1739 193.2931
" />
<path d="M186.1739 193.2931
L187.1024 193.2931
" />
</g><text x="263.0022" y="196.6572"
textLength="8.5144" font-size="2.0000" lengthAdjust="spacingAndGlyphs"
text-anchor="start" opacity="0" stroke-opacity="0">Id: 1/1</text>
<g class="stroked-text"><desc>Id: 1/1</desc>
<path d="M263.4595 196.5931
L263.4595 195.0931
" />
<path d="M264.8167 196.5931
L264.8167 195.0931
" />
<path d="M264.8167 196.5217
L264.6738 196.5931
" />
<path d="M264.6738 196.5931
L264.3881 196.5931
" />
<path d="M264.3881 196.5931
L264.2452 196.5217
" />
<path d="M264.2452 196.5217
L264.1738 196.4502
" />
<path d="M264.1738 196.4502
L264.1024 196.3074
" />
<path d="M264.1024 196.3074
L264.1024 195.8788
" />
<path d="M264.1024 195.8788
L264.1738 195.7359
" />
<path d="M264.1738 195.7359
L264.2452 195.6645
" />
<path d="M264.2452 195.6645
L264.3881 195.5931
" />
<path d="M264.3881 195.5931
L264.6738 195.5931
" />
<path d="M264.6738 195.5931
L264.8167 195.6645
" />
<path d="M265.5309 196.4502
L265.6023 196.5217
" />
<path d="M265.6023 196.5217
L265.5309 196.5931
" />
<path d="M265.5309 196.5931
L265.4595 196.5217
" />
<path d="M265.4595 196.5217
L265.5309 196.4502
" />
<path d="M265.5309 196.4502
L265.5309 196.5931
" />
<path d="M265.5309 195.6645
L265.6023 195.7359
" />
<path d="M265.6023 195.7359
L265.5309 195.8074
" />
<path d="M265.5309 195.8074
L265.4595 195.7359
" />
<path d="M265.4595 195.7359
L265.5309 195.6645
" />
<path d="M265.5309 195.6645
L265.5309 195.8074
" />
<path d="M268.1738 196.5931
L267.3167 196.5931
" />
<path d="M267.7452 196.5931
L267.7452 195.0931
" />
<path d="M267.7452 195.0931
L267.6024 195.3074
" />
<path d="M267.6024 195.3074
L267.4595 195.4502
" />
<path d="M267.4595 195.4502
L267.3167 195.5217
" />
<path d="M269.8881 195.0217
L268.6024 196.9502
" />
<path d="M271.1738 196.5931
L270.3167 196.5931
" />
<path d="M270.7452 196.5931
L270.7452 195.0931
" />
<path d="M270.7452 195.0931
L270.6024 195.3074
" />
<path d="M270.6024 195.3074
L270.4595 195.4502
" />
<path d="M270.4595 195.4502
L270.3167 195.5217
" />
</g><path d="M177.0022 187.5072
L285.0022 187.5072
" />
</g>
<g style="fill:none; 
stroke:#840000; stroke-width:0.4000; stroke-opacity:1; 
stroke-linecap:round; stroke-linejoin:round;">
<text x="178.0022" y="190.3072"
textLength="9.6572" font-size="2.6666" lengthAdjust="spacingAndGlyphs"
text-anchor="start" opacity="0" stroke-opacity="0">Title: </text>
<g class="stroked-text"><desc>Title: </desc>
<path d="M178.6938 188.2116
L179.8367 188.2116
" />
<path d="M179.0153 190.2116
L179.2653 188.2116
" />
<path d="M180.2533 190.2116
L180.4200 188.8783
" />
<path d="M180.5033 188.2116
L180.3962 188.3068
" />
<path d="M180.3962 188.3068
L180.4795 188.4021
" />
<path d="M180.4795 188.4021
L180.5867 188.3068
" />
<path d="M180.5867 188.3068
L180.5033 188.2116
" />
<path d="M180.5033 188.2116
L180.4795 188.4021
" />
<path d="M181.0867 188.8783
L181.8486 188.8783
" />
<path d="M181.4557 188.2116
L181.2415 189.9259
" />
<path d="M181.2415 189.9259
L181.3129 190.1164
" />
<path d="M181.3129 190.1164
L181.4915 190.2116
" />
<path d="M181.4915 190.2116
L181.6819 190.2116
" />
<path d="M182.6344 190.2116
L182.4558 190.1164
" />
<path d="M182.4558 190.1164
L182.3844 189.9259
" />
<path d="M182.3844 189.9259
L182.5986 188.2116
" />
<path d="M184.1700 190.1164
L183.9677 190.2116
" />
<path d="M183.9677 190.2116
L183.5867 190.2116
" />
<path d="M183.5867 190.2116
L183.4081 190.1164
" />
<path d="M183.4081 190.1164
L183.3367 189.9259
" />
<path d="M183.3367 189.9259
L183.4320 189.1640
" />
<path d="M183.4320 189.1640
L183.5510 188.9735
" />
<path d="M183.5510 188.9735
L183.7534 188.8783
" />
<path d="M183.7534 188.8783
L184.1343 188.8783
" />
<path d="M184.1343 188.8783
L184.3129 188.9735
" />
<path d="M184.3129 188.9735
L184.3843 189.1640
" />
<path d="M184.3843 189.1640
L184.3605 189.3544
" />
<path d="M184.3605 189.3544
L183.3843 189.5449
" />
<path d="M185.1343 190.0211
L185.2177 190.1164
" />
<path d="M185.2177 190.1164
L185.1105 190.2116
" />
<path d="M185.1105 190.2116
L185.0272 190.1164
" />
<path d="M185.0272 190.1164
L185.1343 190.0211
" />
<path d="M185.1343 190.0211
L185.1105 190.2116
" />
<path d="M185.2653 188.9735
L185.3486 189.0687
" />
<path d="M185.3486 189.0687
L185.2415 189.1640
" />
<path d="M185.2415 189.1640
L185.1582 189.0687
" />
<path d="M185.1582 189.0687
L185.2653 188.9735
" />
<path d="M185.2653 188.9735
L185.2415 189.1640
" />
</g></g>
<g style="fill:none; 
stroke:#840000; stroke-width:0.1524; stroke-opacity:1; 
stroke-linecap:round; stroke-linejoin:round;">
<text x="178.0022" y="186.4572"
textLength="30.2999" font-size="2.0000" lengthAdjust="spacingAndGlyphs"
text-anchor="start" opacity="0" stroke-opacity="0">File: schematics.kicad_sch</text>
<g class="stroked-text"><desc>File: schematics.kicad_sch</desc>
<path d="M178.9595 185.6074
L178.4595 185.6074
" />
<path d="M178.4595 186.3931
L178.4595 184.8931
" />
<path d="M178.4595 184.8931
L179.1738 184.8931
" />
<path d="M179.7452 186.3931
L179.7452 185.3931
" />
<path d="M179.7452 184.8931
L179.6738 184.9645
" />
<path d="M179.6738 184.9645
L179.7452 185.0359
" />
<path d="M179.7452 185.0359
L179.8166 184.9645
" />
<path d="M179.8166 184.9645
L179.7452 184.8931
" />
<path d="M179.7452 184.8931
L179.7452 185.0359
" />
<path d="M180.6738 186.3931
L180.5309 186.3217
" />
<path d="M180.5309 186.3217
L180.4595 186.1788
" />
<path d="M180.4595 186.1788
L180.4595 184.8931
" />
<path d="M181.8166 186.3217
L181.6738 186.3931
" />
<path d="M181.6738 186.3931
L181.3881 186.3931
" />
<path d="M181.3881 186.3931
L181.2452 186.3217
" />
<path d="M181.2452 186.3217
L181.1738 186.1788
" />
<path d="M181.1738 186.1788
L181.1738 185.6074
" />
<path d="M181.1738 185.6074
L181.2452 185.4645
" />
<path d="M181.2452 185.4645
L181.3881 185.3931
" />
<path d="M181.3881 185.3931
L181.6738 185.3931
" />
<path d="M181.6738 185.3931
L181.8166 185.4645
" />
<path d="M181.8166 185.4645
L181.8881 185.6074
" />
<path d="M181.8881 185.6074
L181.8881 185.7502
" />
<path d="M181.8881 185.7502
L181.1738 185.8931
" />
<path d="M182.5309 186.2502
L182.6023 186.3217
" />
<path d="M182.6023 186.3217
L182.5309 186.3931
" />
<path d="M182.5309 186.3931
L182.4595 186.3217
" />
<path d="M182.4595 186.3217
L182.5309 186.2502
" />
<path d="M182.5309 186.2502
L182.5309 186.3931
" />
<path d="M182.5309 185.4645
L182.6023 185.5359
" />
<path d="M182.6023 185.5359
L182.5309 185.6074
" />
<path d="M182.5309 185.6074
L182.4595 185.5359
" />
<path d="M182.4595 185.5359
L182.5309 185.4645
" />
<path d="M182.5309 185.4645
L182.5309 185.6074
" />
<path d="M184.3167 186.3217
L184.4595 186.3931
" />
<path d="M184.4595 186.3931
L184.7452 186.3931
" />
<path d="M184.7452 186.3931
L184.8881 186.3217
" />
<path d="M184.8881 186.3217
L184.9595 186.1788
" />
<path d="M184.9595 186.1788
L184.9595 186.1074
" />
<path d="M184.9595 186.1074
L184.8881 185.9645
" />
<path d="M184.8881 185.9645
L184.7452 185.8931
" />
<path d="M184.7452 185.8931
L184.5310 185.8931
" />
<path d="M184.5310 185.8931
L184.3881 185.8217
" />
<path d="M184.3881 185.8217
L184.3167 185.6788
" />
<path d="M184.3167 185.6788
L184.3167 185.6074
" />
<path d="M184.3167 185.6074
L184.3881 185.4645
" />
<path d="M184.3881 185.4645
L184.5310 185.3931
" />
<path d="M184.5310 185.3931
L184.7452 185.3931
" />
<path d="M184.7452 185.3931
L184.8881 185.4645
" />
<path d="M186.2453 186.3217
L186.1024 186.3931
" />
<path d="M186.1024 186.3931
L185.8167 186.3931
" />
<path d="M185.8167 186.3931
L185.6738 186.3217
" />
<path d="M185.6738 186.3217
L185.6024 186.2502
" />
<path d="M185.6024 186.2502
L185.5310 186.1074
" />
<path d="M185.5310 186.1074
L185.5310 185.6788
" />
<path d="M185.5310 185.6788
L185.6024 185.5359
" />
<path d="M185.6024 185.5359
L185.6738 185.4645
" />
<path d="M185.6738 185.4645
L185.8167 185.3931
" />
<path d="M185.8167 185.3931
L186.1024 185.3931
" />
<path d="M186.1024 185.3931
L186.2453 185.4645
" />
<path d="M186.8881 186.3931
L186.8881 184.8931
" />
<path d="M187.5310 186.3931
L187.5310 185.6074
" />
<path d="M187.5310 185.6074
L187.4595 185.4645
" />
<path d="M187.4595 185.4645
L187.3167 185.3931
" />
<path d="M187.3167 185.3931
L187.1024 185.3931
" />
<path d="M187.1024 185.3931
L186.9595 185.4645
" />
<path d="M186.9595 185.4645
L186.8881 185.5359
" />
<path d="M188.8166 186.3217
L188.6738 186.3931
" />
<path d="M188.6738 186.3931
L188.3881 186.3931
" />
<path d="M188.3881 186.3931
L188.2452 186.3217
" />
<path d="M188.2452 186.3217
L188.1738 186.1788
" />
<path d="M188.1738 186.1788
L188.1738 185.6074
" />
<path d="M188.1738 185.6074
L188.2452 185.4645
" />
<path d="M188.2452 185.4645
L188.3881 185.3931
" />
<path d="M188.3881 185.3931
L188.6738 185.3931
" />
<path d="M188.6738 185.3931
L188.8166 185.4645
" />
<path d="M188.8166 185.4645
L188.8881 185.6074
" />
<path d="M188.8881 185.6074
L188.8881 185.7502
" />
<path d="M188.8881 185.7502
L188.1738 185.8931
" />
<path d="M189.5309 186.3931
L189.5309 185.3931
" />
<path d="M189.5309 185.5359
L189.6023 185.4645
" />
<path d="M189.6023 185.4645
L189.7452 185.3931
" />
<path d="M189.7452 185.3931
L189.9595 185.3931
" />
<path d="M189.9595 185.3931
L190.1023 185.4645
" />
<path d="M190.1023 185.4645
L190.1738 185.6074
" />
<path d="M190.1738 185.6074
L190.1738 186.3931
" />
<path d="M190.1738 185.6074
L190.2452 185.4645
" />
<path d="M190.2452 185.4645
L190.3880 185.3931
" />
<path d="M190.3880 185.3931
L190.6023 185.3931
" />
<path d="M190.6023 185.3931
L190.7452 185.4645
" />
<path d="M190.7452 185.4645
L190.8166 185.6074
" />
<path d="M190.8166 185.6074
L190.8166 186.3931
" />
<path d="M192.1738 186.3931
L192.1738 185.6074
" />
<path d="M192.1738 185.6074
L192.1023 185.4645
" />
<path d="M192.1023 185.4645
L191.9595 185.3931
" />
<path d="M191.9595 185.3931
L191.6738 185.3931
" />
<path d="M191.6738 185.3931
L191.5309 185.4645
" />
<path d="M192.1738 186.3217
L192.0309 186.3931
" />
<path d="M192.0309 186.3931
L191.6738 186.3931
" />
<path d="M191.6738 186.3931
L191.5309 186.3217
" />
<path d="M191.5309 186.3217
L191.4595 186.1788
" />
<path d="M191.4595 186.1788
L191.4595 186.0359
" />
<path d="M191.4595 186.0359
L191.5309 185.8931
" />
<path d="M191.5309 185.8931
L191.6738 185.8217
" />
<path d="M191.6738 185.8217
L192.0309 185.8217
" />
<path d="M192.0309 185.8217
L192.1738 185.7502
" />
<path d="M192.6737 185.3931
L193.2451 185.3931
" />
<path d="M192.8880 184.8931
L192.8880 186.1788
" />
<path d="M192.8880 186.1788
L192.9594 186.3217
" />
<path d="M192.9594 186.3217
L193.1023 186.3931
" />
<path d="M193.1023 186.3931
L193.2451 186.3931
" />
<path d="M193.7451 186.3931
L193.7451 185.3931
" />
<path d="M193.7451 184.8931
L193.6737 184.9645
" />
<path d="M193.6737 184.9645
L193.7451 185.0359
" />
<path d="M193.7451 185.0359
L193.8165 184.9645
" />
<path d="M193.8165 184.9645
L193.7451 184.8931
" />
<path d="M193.7451 184.8931
L193.7451 185.0359
" />
<path d="M195.1023 186.3217
L194.9594 186.3931
" />
<path d="M194.9594 186.3931
L194.6737 186.3931
" />
<path d="M194.6737 186.3931
L194.5308 186.3217
" />
<path d="M194.5308 186.3217
L194.4594 186.2502
" />
<path d="M194.4594 186.2502
L194.3880 186.1074
" />
<path d="M194.3880 186.1074
L194.3880 185.6788
" />
<path d="M194.3880 185.6788
L194.4594 185.5359
" />
<path d="M194.4594 185.5359
L194.5308 185.4645
" />
<path d="M194.5308 185.4645
L194.6737 185.3931
" />
<path d="M194.6737 185.3931
L194.9594 185.3931
" />
<path d="M194.9594 185.3931
L195.1023 185.4645
" />
<path d="M195.6737 186.3217
L195.8165 186.3931
" />
<path d="M195.8165 186.3931
L196.1022 186.3931
" />
<path d="M196.1022 186.3931
L196.2451 186.3217
" />
<path d="M196.2451 186.3217
L196.3165 186.1788
" />
<path d="M196.3165 186.1788
L196.3165 186.1074
" />
<path d="M196.3165 186.1074
L196.2451 185.9645
" />
<path d="M196.2451 185.9645
L196.1022 185.8931
" />
<path d="M196.1022 185.8931
L195.8880 185.8931
" />
<path d="M195.8880 185.8931
L195.7451 185.8217
" />
<path d="M195.7451 185.8217
L195.6737 185.6788
" />
<path d="M195.6737 185.6788
L195.6737 185.6074
" />
<path d="M195.6737 185.6074
L195.7451 185.4645
" />
<path d="M195.7451 185.4645
L195.8880 185.3931
" />
<path d="M195.8880 185.3931
L196.1022 185.3931
" />
<path d="M196.1022 185.3931
L196.2451 185.4645
" />
<path d="M196.9594 186.2502
L197.0308 186.3217
" />
<path d="M197.0308 186.3217
L196.9594 186.3931
" />
<path d="M196.9594 186.3931
L196.8880 186.3217
" />
<path d="M196.8880 186.3217
L196.9594 186.2502
" />
<path d="M196.9594 186.2502
L196.9594 186.3931
" />
<path d="M197.6737 186.3931
L197.6737 184.8931
" />
<path d="M197.8166 185.8217
L198.2451 186.3931
" />
<path d="M198.2451 185.3931
L197.6737 185.9645
" />
<path d="M198.8880 186.3931
L198.8880 185.3931
" />
<path d="M198.8880 184.8931
L198.8166 184.9645
" />
<path d="M198.8166 184.9645
L198.8880 185.0359
" />
<path d="M198.8880 185.0359
L198.9594 184.9645
" />
<path d="M198.9594 184.9645
L198.8880 184.8931
" />
<path d="M198.8880 184.8931
L198.8880 185.0359
" />
<path d="M200.2452 186.3217
L200.1023 186.3931
" />
<path d="M200.1023 186.3931
L199.8166 186.3931
" />
<path d="M199.8166 186.3931
L199.6737 186.3217
" />
<path d="M199.6737 186.3217
L199.6023 186.2502
" />
<path d="M199.6023 186.2502
L199.5309 186.1074
" />
<path d="M199.5309 186.1074
L199.5309 185.6788
" />
<path d="M199.5309 185.6788
L199.6023 185.5359
" />
<path d="M199.6023 185.5359
L199.6737 185.4645
" />
<path d="M199.6737 185.4645
L199.8166 185.3931
" />
<path d="M199.8166 185.3931
L200.1023 185.3931
" />
<path d="M200.1023 185.3931
L200.2452 185.4645
" />
<path d="M201.5309 186.3931
L201.5309 185.6074
" />
<path d="M201.5309 185.6074
L201.4594 185.4645
" />
<path d="M201.4594 185.4645
L201.3166 185.3931
" />
<path d="M201.3166 185.3931
L201.0309 185.3931
" />
<path d="M201.0309 185.3931
L200.8880 185.4645
" />
<path d="M201.5309 186.3217
L201.3880 186.3931
" />
<path d="M201.3880 186.3931
L201.0309 186.3931
" />
<path d="M201.0309 186.3931
L200.8880 186.3217
" />
<path d="M200.8880 186.3217
L200.8166 186.1788
" />
<path d="M200.8166 186.1788
L200.8166 186.0359
" />
<path d="M200.8166 186.0359
L200.8880 185.8931
" />
<path d="M200.8880 185.8931
L201.0309 185.8217
" />
<path d="M201.0309 185.8217
L201.3880 185.8217
" />
<path d="M201.3880 185.8217
L201.5309 185.7502
" />
<path d="M202.8880 186.3931
L202.8880 184.8931
" />
<path d="M202.8880 186.3217
L202.7451 186.3931
" />
<path d="M202.7451 186.3931
L202.4594 186.3931
" />
<path d="M202.4594 186.3931
L202.3165 186.3217
" />
<path d="M202.3165 186.3217
L202.2451 186.2502
" />
<path d="M202.2451 186.2502
L202.1737 186.1074
" />
<path d="M202.1737 186.1074
L202.1737 185.6788
" />
<path d="M202.1737 185.6788
L202.2451 185.5359
" />
<path d="M202.2451 185.5359
L202.3165 185.4645
" />
<path d="M202.3165 185.4645
L202.4594 185.3931
" />
<path d="M202.4594 185.3931
L202.7451 185.3931
" />
<path d="M202.7451 185.3931
L202.8880 185.4645
" />
<path d="M203.2451 186.5359
L204.3879 186.5359
" />
<path d="M204.6737 186.3217
L204.8165 186.3931
" />
<path d="M204.8165 186.3931
L205.1022 186.3931
" />
<path d="M205.1022 186.3931
L205.2451 186.3217
" />
<path d="M205.2451 186.3217
L205.3165 186.1788
" />
<path d="M205.3165 186.1788
L205.3165 186.1074
" />
<path d="M205.3165 186.1074
L205.2451 185.9645
" />
<path d="M205.2451 185.9645
L205.1022 185.8931
" />
<path d="M205.1022 185.8931
L204.8880 185.8931
" />
<path d="M204.8880 185.8931
L204.7451 185.8217
" />
<path d="M204.7451 185.8217
L204.6737 185.6788
" />
<path d="M204.6737 185.6788
L204.6737 185.6074
" />
<path d="M204.6737 185.6074
L204.7451 185.4645
" />
<path d="M204.7451 185.4645
L204.8880 185.3931
" />
<path d="M204.8880 185.3931
L205.1022 185.3931
" />
<path d="M205.1022 185.3931
L205.2451 185.4645
" />
<path d="M206.6023 186.3217
L206.4594 186.3931
" />
<path d="M206.4594 186.3931
L206.1737 186.3931
" />
<path d="M206.1737 186.3931
L206.0308 186.3217
" />
<path d="M206.0308 186.3217
L205.9594 186.2502
" />
<path d="M205.9594 186.2502
L205.8880 186.1074
" />
<path d="M205.8880 186.1074
L205.8880 185.6788
" />
<path d="M205.8880 185.6788
L205.9594 185.5359
" />
<path d="M205.9594 185.5359
L206.0308 185.4645
" />
<path d="M206.0308 185.4645
L206.1737 185.3931
" />
<path d="M206.1737 185.3931
L206.4594 185.3931
" />
<path d="M206.4594 185.3931
L206.6023 185.4645
" />
<path d="M207.2451 186.3931
L207.2451 184.8931
" />
<path d="M207.8880 186.3931
L207.8880 185.6074
" />
<path d="M207.8880 185.6074
L207.8165 185.4645
" />
<path d="M207.8165 185.4645
L207.6737 185.3931
" />
<path d="M207.6737 185.3931
L207.4594 185.3931
" />
<path d="M207.4594 185.3931
L207.3165 185.4645
" />
<path d="M207.3165 185.4645
L207.2451 185.5359
" />
</g><path d="M177.0022 181.5072
L285.0022 181.5072
" />
<text x="178.0022" y="183.7572"
textLength="9.8000" font-size="2.0000" lengthAdjust="spacingAndGlyphs"
text-anchor="start" opacity="0" stroke-opacity="0">Sheet: /</text>
<g class="stroked-text"><desc>Sheet: /</desc>
<path d="M178.3881 183.6217
L178.6024 183.6931
" />
<path d="M178.6024 183.6931
L178.9595 183.6931
" />
<path d="M178.9595 183.6931
L179.1024 183.6217
" />
<path d="M179.1024 183.6217
L179.1738 183.5502
" />
<path d="M179.1738 183.5502
L179.2452 183.4074
" />
<path d="M179.2452 183.4074
L179.2452 183.2645
" />
<path d="M179.2452 183.2645
L179.1738 183.1217
" />
<path d="M179.1738 183.1217
L179.1024 183.0502
" />
<path d="M179.1024 183.0502
L178.9595 182.9788
" />
<path d="M178.9595 182.9788
L178.6738 182.9074
" />
<path d="M178.6738 182.9074
L178.5309 182.8359
" />
<path d="M178.5309 182.8359
L178.4595 182.7645
" />
<path d="M178.4595 182.7645
L178.3881 182.6217
" />
<path d="M178.3881 182.6217
L178.3881 182.4788
" />
<path d="M178.3881 182.4788
L178.4595 182.3359
" />
<path d="M178.4595 182.3359
L178.5309 182.2645
" />
<path d="M178.5309 182.2645
L178.6738 182.1931
" />
<path d="M178.6738 182.1931
L179.0309 182.1931
" />
<path d="M179.0309 182.1931
L179.2452 182.2645
" />
<path d="M179.8881 183.6931
L179.8881 182.1931
" />
<path d="M180.5310 183.6931
L180.5310 182.9074
" />
<path d="M180.5310 182.9074
L180.4595 182.7645
" />
<path d="M180.4595 182.7645
L180.3167 182.6931
" />
<path d="M180.3167 182.6931
L180.1024 182.6931
" />
<path d="M180.1024 182.6931
L179.9595 182.7645
" />
<path d="M179.9595 182.7645
L179.8881 182.8359
" />
<path d="M181.8166 183.6217
L181.6738 183.6931
" />
<path d="M181.6738 183.6931
L181.3881 183.6931
" />
<path d="M181.3881 183.6931
L181.2452 183.6217
" />
<path d="M181.2452 183.6217
L181.1738 183.4788
" />
<path d="M181.1738 183.4788
L181.1738 182.9074
" />
<path d="M181.1738 182.9074
L181.2452 182.7645
" />
<path d="M181.2452 182.7645
L181.3881 182.6931
" />
<path d="M181.3881 182.6931
L181.6738 182.6931
" />
<path d="M181.6738 182.6931
L181.8166 182.7645
" />
<path d="M181.8166 182.7645
L181.8881 182.9074
" />
<path d="M181.8881 182.9074
L181.8881 183.0502
" />
<path d="M181.8881 183.0502
L181.1738 183.1931
" />
<path d="M183.1023 183.6217
L182.9595 183.6931
" />
<path d="M182.9595 183.6931
L182.6738 183.6931
" />
<path d="M182.6738 183.6931
L182.5309 183.6217
" />
<path d="M182.5309 183.6217
L182.4595 183.4788
" />
<path d="M182.4595 183.4788
L182.4595 182.9074
" />
<path d="M182.4595 182.9074
L182.5309 182.7645
" />
<path d="M182.5309 182.7645
L182.6738 182.6931
" />
<path d="M182.6738 182.6931
L182.9595 182.6931
" />
<path d="M182.9595 182.6931
L183.1023 182.7645
" />
<path d="M183.1023 182.7645
L183.1738 182.9074
" />
<path d="M183.1738 182.9074
L183.1738 183.0502
" />
<path d="M183.1738 183.0502
L182.4595 183.1931
" />
<path d="M183.6023 182.6931
L184.1737 182.6931
" />
<path d="M183.8166 182.1931
L183.8166 183.4788
" />
<path d="M183.8166 183.4788
L183.8880 183.6217
" />
<path d="M183.8880 183.6217
L184.0309 183.6931
" />
<path d="M184.0309 183.6931
L184.1737 183.6931
" />
<path d="M184.6737 183.5502
L184.7451 183.6217
" />
<path d="M184.7451 183.6217
L184.6737 183.6931
" />
<path d="M184.6737 183.6931
L184.6023 183.6217
" />
<path d="M184.6023 183.6217
L184.6737 183.5502
" />
<path d="M184.6737 183.5502
L184.6737 183.6931
" />
<path d="M184.6737 182.7645
L184.7451 182.8359
" />
<path d="M184.7451 182.8359
L184.6737 182.9074
" />
<path d="M184.6737 182.9074
L184.6023 182.8359
" />
<path d="M184.6023 182.8359
L184.6737 182.7645
" />
<path d="M184.6737 182.7645
L184.6737 182.9074
" />
<path d="M187.6023 182.1217
L186.3166 184.0502
" />
</g></g>
<g style="fill:none; 
stroke:#840000; stroke-width:0.3000; stroke-opacity:1; 
stroke-linecap:round; stroke-linejoin:round;">
<text x="178.0022" y="180.7572"
textLength="0.9000" font-size="2.0000" lengthAdjust="spacingAndGlyphs"
text-anchor="start" opacity="0" stroke-opacity="0"></text>
<g class="stroked-text"><desc></desc>
</g></g>
<g style="fill:none; 
stroke:#840000; stroke-width:0.1524; stroke-opacity:1; 
stroke-linecap:round; stroke-linejoin:round;">
<text x="178.0022" y="177.7572"
textLength="0.4572" font-size="2.0000" lengthAdjust="spacingAndGlyphs"
text-anchor="start" opacity="0" stroke-opacity="0"></text>
<g class="stroked-text"><desc></desc>
</g><text x="178.0022" y="174.7572"
textLength="0.4572" font-size="2.0000" lengthAdjust="spacingAndGlyphs"
text-anchor="start" opacity="0" stroke-opacity="0"></text>
<g class="stroked-text"><desc></desc>
</g><text x="178.0022" y="171.7572"
textLength="0.4572" font-size="2.0000" lengthAdjust="spacingAndGlyphs"
text-anchor="start" opacity="0" stroke-opacity="0"></text>
<g class="stroked-text"><desc></desc>
</g><text x="178.0022" y="168.7572"
textLength="0.4572" font-size="2.0000" lengthAdjust="spacingAndGlyphs"
text-anchor="start" opacity="0" stroke-opacity="0"></text>
<g class="stroked-text"><desc></desc>
</g><path d="M197.0022 191.5072
L197.0022 194.5072
" />
<path d="M261.0022 191.5072
L261.0022 198.0072
" />
</g>
<g style="fill:none; 
stroke:#840000; stroke-width:0.2540; stroke-opacity:1; 
stroke-linecap:round; stroke-linejoin:round;">
<rect x="39.370000" y="62.484000" width="5.080000" height="2.032000" rx="0.000000" />
</g>
<g style="fill:none; 
stroke:#840000; stroke-width:0.1524; stroke-opacity:1; 
stroke-linecap:round; stroke-linejoin:round;">
<path d="M39.3700 63.5000
L38.1000 63.5000
" />
<path d="M44.4500 63.5000
L45.7200 63.5000
" />
</g>
<g style="fill:none; 
stroke:#006464; stroke-width:0.1524; stroke-opacity:1; 
stroke-linecap:round; stroke-linejoin:round;">
<text x="41.9099" y="57.7849"
textLength="2.6827" font-size="1.6933" lengthAdjust="spacingAndGlyphs"
text-anchor="middle" opacity="0" stroke-opacity="0">R3</text>
<g class="stroked-text"><desc>R3</desc>
<path d="M41.6982 57.7294
L41.2749 57.1247
" />
<path d="M40.9725 57.7294
L40.9725 56.4594
" />
<path d="M40.9725 56.4594
L41.4563 56.4594
" />
<path d="M41.4563 56.4594
L41.5773 56.5199
" />
<path d="M41.5773 56.5199
L41.6378 56.5804
" />
<path d="M41.6378 56.5804
L41.6982 56.7013
" />
<path d="M41.6982 56.7013
L41.6982 56.8828
" />
<path d="M41.6982 56.8828
L41.6378 57.0037
" />
<path d="M41.6378 57.0037
L41.5773 57.0642
" />
<path d="M41.5773 57.0642
L41.4563 57.1247
" />
<path d="M41.4563 57.1247
L40.9725 57.1247
" />
<path d="M42.1216 56.4594
L42.9078 56.4594
" />
<path d="M42.9078 56.4594
L42.4844 56.9432
" />
<path d="M42.4844 56.9432
L42.6659 56.9432
" />
<path d="M42.6659 56.9432
L42.7868 57.0037
" />
<path d="M42.7868 57.0037
L42.8473 57.0642
" />
<path d="M42.8473 57.0642
L42.9078 57.1851
" />
<path d="M42.9078 57.1851
L42.9078 57.4875
" />
<path d="M42.9078 57.4875
L42.8473 57.6085
" />
<path d="M42.8473 57.6085
L42.7868 57.6690
" />
<path d="M42.7868 57.6690
L42.6659 57.7294
" />
<path d="M42.6659 57.7294
L42.3030 57.7294
" />
<path d="M42.3030 57.7294
L42.1821 57.6690
" />
<path d="M42.1821 57.6690
L42.1216 57.6085
" />
</g><text x="41.9099" y="60.3249"
textLength="3.8317" font-size="1.6933" lengthAdjust="spacingAndGlyphs"
text-anchor="middle" opacity="0" stroke-opacity="0">450</text>
<g class="stroked-text"><desc>450</desc>
<path d="M40.9423 59.4228
L40.9423 60.2694
" />
<path d="M40.6399 58.9390
L40.3376 59.8461
" />
<path d="M40.3376 59.8461
L41.1237 59.8461
" />
<path d="M42.2123 58.9994
L41.6075 58.9994
" />
<path d="M41.6075 58.9994
L41.5471 59.6042
" />
<path d="M41.5471 59.6042
L41.6075 59.5437
" />
<path d="M41.6075 59.5437
L41.7285 59.4832
" />
<path d="M41.7285 59.4832
L42.0309 59.4832
" />
<path d="M42.0309 59.4832
L42.1518 59.5437
" />
<path d="M42.1518 59.5437
L42.2123 59.6042
" />
<path d="M42.2123 59.6042
L42.2728 59.7251
" />
<path d="M42.2728 59.7251
L42.2728 60.0275
" />
<path d="M42.2728 60.0275
L42.2123 60.1485
" />
<path d="M42.2123 60.1485
L42.1518 60.2090
" />
<path d="M42.1518 60.2090
L42.0309 60.2694
" />
<path d="M42.0309 60.2694
L41.7285 60.2694
" />
<path d="M41.7285 60.2694
L41.6075 60.2090
" />
<path d="M41.6075 60.2090
L41.5471 60.1485
" />
<path d="M43.0589 58.9994
L43.1799 58.9994
" />
<path d="M43.1799 58.9994
L43.3008 59.0599
" />
<path d="M43.3008 59.0599
L43.3613 59.1204
" />
<path d="M43.3613 59.1204
L43.4218 59.2413
" />
<path d="M43.4218 59.2413
L43.4823 59.4832
" />
<path d="M43.4823 59.4832
L43.4823 59.7856
" />
<path d="M43.4823 59.7856
L43.4218 60.0275
" />
<path d="M43.4218 60.0275
L43.3613 60.1485
" />
<path d="M43.3613 60.1485
L43.3008 60.2090
" />
<path d="M43.3008 60.2090
L43.1799 60.2694
" />
<path d="M43.1799 60.2694
L43.0589 60.2694
" />
<path d="M43.0589 60.2694
L42.9380 60.2090
" />
<path d="M42.9380 60.2090
L42.8775 60.1485
" />
<path d="M42.8775 60.1485
L42.8170 60.0275
" />
<path d="M42.8170 60.0275
L42.7566 59.7856
" />
<path d="M42.7566 59.7856
L42.7566 59.4832
" />
<path d="M42.7566 59.4832
L42.8170 59.2413
" />
<path d="M42.8170 59.2413
L42.8775 59.1204
" />
<path d="M42.8775 59.1204
L42.9380 59.0599
" />
<path d="M42.9380 59.0599
L43.0589 58.9994
" />
</g></g>
<g style="fill:none; 
stroke:#840000; stroke-width:0.2540; stroke-opacity:1; 
stroke-linecap:round; stroke-linejoin:round;">
<rect x="39.370000" y="44.704000" width="5.080000" height="2.032000" rx="0.000000" />
</g>
<g style="fill:none; 
stroke:#840000; stroke-width:0.1524; stroke-opacity:1; 
stroke-linecap:round; stroke-linejoin:round;">
<path d="M39.3700 45.7200
L38.1000 45.7200
" />
<path d="M44.4500 45.7200
L45.7200 45.7200
" />
</g>
<g style="fill:none; 
stroke:#006464; stroke-width:0.1524; stroke-opacity:1; 
stroke-linecap:round; stroke-linejoin:round;">
<text x="41.9099" y="40.0049"
textLength="2.6827" font-size="1.6933" lengthAdjust="spacingAndGlyphs"
text-anchor="middle" opacity="0" stroke-opacity="0">R2</text>
<g class="stroked-text"><desc>R2</desc>
<path d="M41.6982 39.9494
L41.2749 39.3447
" />
<path d="M40.9725 39.9494
L40.9725 38.6794
" />
<path d="M40.9725 38.6794
L41.4563 38.6794
" />
<path d="M41.4563 38.6794
L41.5773 38.7399
" />
<path d="M41.5773 38.7399
L41.6378 38.8004
" />
<path d="M41.6378 38.8004
L41.6982 38.9213
" />
<path d="M41.6982 38.9213
L41.6982 39.1028
" />
<path d="M41.6982 39.1028
L41.6378 39.2237
" />
<path d="M41.6378 39.2237
L41.5773 39.2842
" />
<path d="M41.5773 39.2842
L41.4563 39.3447
" />
<path d="M41.4563 39.3447
L40.9725 39.3447
" />
<path d="M42.1821 38.8004
L42.2425 38.7399
" />
<path d="M42.2425 38.7399
L42.3635 38.6794
" />
<path d="M42.3635 38.6794
L42.6659 38.6794
" />
<path d="M42.6659 38.6794
L42.7868 38.7399
" />
<path d="M42.7868 38.7399
L42.8473 38.8004
" />
<path d="M42.8473 38.8004
L42.9078 38.9213
" />
<path d="M42.9078 38.9213
L42.9078 39.0423
" />
<path d="M42.9078 39.0423
L42.8473 39.2237
" />
<path d="M42.8473 39.2237
L42.1216 39.9494
" />
<path d="M42.1216 39.9494
L42.9078 39.9494
" />
</g><text x="41.9099" y="42.5449"
textLength="3.8317" font-size="1.6933" lengthAdjust="spacingAndGlyphs"
text-anchor="middle" opacity="0" stroke-opacity="0">550</text>
<g class="stroked-text"><desc>550</desc>
<path d="M41.0028 41.2194
L40.3980 41.2194
" />
<path d="M40.3980 41.2194
L40.3376 41.8242
" />
<path d="M40.3376 41.8242
L40.3980 41.7637
" />
<path d="M40.3980 41.7637
L40.5190 41.7032
" />
<path d="M40.5190 41.7032
L40.8214 41.7032
" />
<path d="M40.8214 41.7032
L40.9423 41.7637
" />
<path d="M40.9423 41.7637
L41.0028 41.8242
" />
<path d="M41.0028 41.8242
L41.0633 41.9451
" />
<path d="M41.0633 41.9451
L41.0633 42.2475
" />
<path d="M41.0633 42.2475
L41.0028 42.3685
" />
<path d="M41.0028 42.3685
L40.9423 42.4290
" />
<path d="M40.9423 42.4290
L40.8214 42.4894
" />
<path d="M40.8214 42.4894
L40.5190 42.4894
" />
<path d="M40.5190 42.4894
L40.3980 42.4290
" />
<path d="M40.3980 42.4290
L40.3376 42.3685
" />
<path d="M42.2123 41.2194
L41.6075 41.2194
" />
<path d="M41.6075 41.2194
L41.5471 41.8242
" />
<path d="M41.5471 41.8242
L41.6075 41.7637
" />
<path d="M41.6075 41.7637
L41.7285 41.7032
" />
<path d="M41.7285 41.7032
L42.0309 41.7032
" />
<path d="M42.0309 41.7032
L42.1518 41.7637
" />
<path d="M42.1518 41.7637
L42.2123 41.8242
" />
<path d="M42.2123 41.8242
L42.2728 41.9451
" />
<path d="M42.2728 41.9451
L42.2728 42.2475
" />
<path d="M42.2728 42.2475
L42.2123 42.3685
" />
<path d="M42.2123 42.3685
L42.1518 42.4290
" />
<path d="M42.1518 42.4290
L42.0309 42.4894
" />
<path d="M42.0309 42.4894
L41.7285 42.4894
" />
<path d="M41.7285 42.4894
L41.6075 42.4290
" />
<path d="M41.6075 42.4290
L41.5471 42.3685
" />
<path d="M43.0589 41.2194
L43.1799 41.2194
" />
<path d="M43.1799 41.2194
L43.3008 41.2799
" />
<path d="M43.3008 41.2799
L43.3613 41.3404
" />
<path d="M43.3613 41.3404
L43.4218 41.4613
" />
<path d="M43.4218 41.4613
L43.4823 41.7032
" />
<path d="M43.4823 41.7032
L43.4823 42.0056
" />
<path d="M43.4823 42.0056
L43.4218 42.2475
" />
<path d="M43.4218 42.2475
L43.3613 42.3685
" />
<path d="M43.3613 42.3685
L43.3008 42.4290
" />
<path d="M43.3008 42.4290
L43.1799 42.4894
" />
<path d="M43.1799 42.4894
L43.0589 42.4894
" />
<path d="M43.0589 42.4894
L42.9380 42.4290
" />
<path d="M42.9380 42.4290
L42.8775 42.3685
" />
<path d="M42.8775 42.3685
L42.8170 42.2475
" />
<path d="M42.8170 42.2475
L42.7566 42.0056
" />
<path d="M42.7566 42.0056
L42.7566 41.7032
" />
<path d="M42.7566 41.7032
L42.8170 41.4613
" />
<path d="M42.8170 41.4613
L42.8775 41.3404
" />
<path d="M42.8775 41.3404
L42.9380 41.2799
" />
<path d="M42.9380 41.2799
L43.0589 41.2194
" />
</g></g>
<g style="fill:none; 
stroke:#840000; stroke-width:0.2540; stroke-opacity:1; 
stroke-linecap:round; stroke-linejoin:round;">
<rect x="39.370000" y="26.924000" width="5.080000" height="2.032000" rx="0.000000" />
</g>
<g style="fill:none; 
stroke:#840000; stroke-width:0.1524; stroke-opacity:1; 
stroke-linecap:round; stroke-linejoin:round;">
<path d="M39.3700 27.9400
L38.1000 27.9400
" />
<path d="M44.4500 27.9400
L45.7200 27.9400
" />
</g>
<g style="fill:none; 
stroke:#006464; stroke-width:0.1524; stroke-opacity:1; 
stroke-linecap:round; stroke-linejoin:round;">
<text x="41.9099" y="22.2249"
textLength="2.6827" font-size="1.6933" lengthAdjust="spacingAndGlyphs"
text-anchor="middle" opacity="0" stroke-opacity="0">R1</text>
<g class="stroked-text"><desc>R1</desc>
<path d="M41.6982 22.1694
L41.2749 21.5647
" />
<path d="M40.9725 22.1694
L40.9725 20.8994
" />
<path d="M40.9725 20.8994
L41.4563 20.8994
" />
<path d="M41.4563 20.8994
L41.5773 20.9599
" />
<path d="M41.5773 20.9599
L41.6378 21.0204
" />
<path d="M41.6378 21.0204
L41.6982 21.1413
" />
<path d="M41.6982 21.1413
L41.6982 21.3228
" />
<path d="M41.6982 21.3228
L41.6378 21.4437
" />
<path d="M41.6378 21.4437
L41.5773 21.5042
" />
<path d="M41.5773 21.5042
L41.4563 21.5647
" />
<path d="M41.4563 21.5647
L40.9725 21.5647
" />
<path d="M42.9078 22.1694
L42.1821 22.1694
" />
<path d="M42.5449 22.1694
L42.5449 20.8994
" />
<path d="M42.5449 20.8994
L42.4240 21.0809
" />
<path d="M42.4240 21.0809
L42.3030 21.2018
" />
<path d="M42.3030 21.2018
L42.1821 21.2623
" />
</g><text x="41.9099" y="24.7649"
textLength="3.8317" font-size="1.6933" lengthAdjust="spacingAndGlyphs"
text-anchor="middle" opacity="0" stroke-opacity="0">350</text>
<g class="stroked-text"><desc>350</desc>
<path d="M40.2771 23.4394
L41.0633 23.4394
" />
<path d="M41.0633 23.4394
L40.6399 23.9232
" />
<path d="M40.6399 23.9232
L40.8214 23.9232
" />
<path d="M40.8214 23.9232
L40.9423 23.9837
" />
<path d="M40.9423 23.9837
L41.0028 24.0442
" />
<path d="M41.0028 24.0442
L41.0633 24.1651
" />
<path d="M41.0633 24.1651
L41.0633 24.4675
" />
<path d="M41.0633 24.4675
L41.0028 24.5885
" />
<path d="M41.0028 24.5885
L40.9423 24.6490
" />
<path d="M40.9423 24.6490
L40.8214 24.7094
" />
<path d="M40.8214 24.7094
L40.4585 24.7094
" />
<path d="M40.4585 24.7094
L40.3376 24.6490
" />
<path d="M40.3376 24.6490
L40.2771 24.5885
" />
<path d="M42.2123 23.4394
L41.6075 23.4394
" />
<path d="M41.6075 23.4394
L41.5471 24.0442
" />
<path d="M41.5471 24.0442
L41.6075 23.9837
" />
<path d="M41.6075 23.9837
L41.7285 23.9232
" />
<path d="M41.7285 23.9232
L42.0309 23.9232
" />
<path d="M42.0309 23.9232
L42.1518 23.9837
" />
<path d="M42.1518 23.9837
L42.2123 24.0442
" />
<path d="M42.2123 24.0442
L42.2728 24.1651
" />
<path d="M42.2728 24.1651
L42.2728 24.4675
" />
<path d="M42.2728 24.4675
L42.2123 24.5885
" />
<path d="M42.2123 24.5885
L42.1518 24.6490
" />
<path d="M42.1518 24.6490
L42.0309 24.7094
" />
<path d="M42.0309 24.7094
L41.7285 24.7094
" />
<path d="M41.7285 24.7094
L41.6075 24.6490
" />
<path d="M41.6075 24.6490
L41.5471 24.5885
" />
<path d="M43.0589 23.4394
L43.1799 23.4394
" />
<path d="M43.1799 23.4394
L43.3008 23.4999
" />
<path d="M43.3008 23.4999
L43.3613 23.5604
" />
<path d="M43.3613 23.5604
L43.4218 23.6813
" />
<path d="M43.4218 23.6813
L43.4823 23.9232
" />
<path d="M43.4823 23.9232
L43.4823 24.2256
" />
<path d="M43.4823 24.2256
L43.4218 24.4675
" />
<path d="M43.4218 24.4675
L43.3613 24.5885
" />
<path d="M43.3613 24.5885
L43.3008 24.6490
" />
<path d="M43.3008 24.6490
L43.1799 24.7094
" />
<path d="M43.1799 24.7094
L43.0589 24.7094
" />
<path d="M43.0589 24.7094
L42.9380 24.6490
" />
<path d="M42.9380 24.6490
L42.8775 24.5885
" />
<path d="M42.8775 24.5885
L42.8170 24.4675
" />
<path d="M42.8170 24.4675
L42.7566 24.2256
" />
<path d="M42.7566 24.2256
L42.7566 23.9232
" />
<path d="M42.7566 23.9232
L42.8170 23.6813
" />
<path d="M42.8170 23.6813
L42.8775 23.5604
" />
<path d="M42.8775 23.5604
L42.9380 23.4999
" />
<path d="M42.9380 23.4999
L43.0589 23.4394
" />
</g></g>
<g style="fill:#FFFFC2; fill-opacity:1.0000; stroke:none;">
<circle cx="66.0400" cy="81.2800" r="2.5400" /> 
<path style="fill:none; 
stroke:#840000; stroke-width:0.1524; stroke-opacity:1; 
stroke-linecap:round; stroke-linejoin:round;fill:none"
d="M 65.7860,82.5500
65.7860,80.0100
" /> 
<path style="fill:none; 
stroke:#840000; stroke-width:0.1524; stroke-opacity:1; 
stroke-linecap:round; stroke-linejoin:round;fill:none"
d="M 66.2940,82.0420
66.2940,82.5500
" /> 
<path style="fill:none; 
stroke:#840000; stroke-width:0.1524; stroke-opacity:1; 
stroke-linecap:round; stroke-linejoin:round;fill:none"
d="M 66.2940,81.0260
66.2940,81.5340
" /> 
<path style="fill:none; 
stroke:#840000; stroke-width:0.1524; stroke-opacity:1; 
stroke-linecap:round; stroke-linejoin:round;fill:none"
d="M 66.2940,80.0100
66.2940,80.5180
" /> 
</g>
<g style="fill:none; 
stroke:#840000; stroke-width:0.2540; stroke-opacity:1; 
stroke-linecap:round; stroke-linejoin:round;">
<circle cx="66.0400" cy="81.2800" r="2.5400" /> 
</g>
<g style="fill:none; 
stroke:#840000; stroke-width:0.1524; stroke-opacity:1; 
stroke-linecap:round; stroke-linejoin:round;">
<g transform="rotate(-90.000000 64.1350 81.2800)">
<text x="64.1350" y="81.9150"
textLength="1.7756" font-size="1.6933" lengthAdjust="spacingAndGlyphs"
text-anchor="middle" opacity="0" stroke-opacity="0">+</text>
</g>
<g class="stroked-text"><desc>+</desc>
<path d="M64.2307 81.7638
L64.2307 80.7962
" />
<path d="M64.7145 81.2800
L63.7469 81.2800
" />
</g><path d="M63.5000 81.2800
L60.9600 81.2800
" />
<path d="M68.5800 81.2800
L71.1200 81.2800
" />
</g>
<g style="fill:none; 
stroke:#006464; stroke-width:0.1524; stroke-opacity:1; 
stroke-linecap:round; stroke-linejoin:round;">
<text x="65.9101" y="74.2949"
textLength="2.5013" font-size="1.6933" lengthAdjust="spacingAndGlyphs"
text-anchor="middle" opacity="0" stroke-opacity="0">V4</text>
<g class="stroked-text"><desc>V4</desc>
<path d="M64.8820 72.9694
L65.3053 74.2394
" />
<path d="M65.3053 74.2394
L65.7287 72.9694
" />
<path d="M66.6963 73.3928
L66.6963 74.2394
" />
<path d="M66.3939 72.9090
L66.0916 73.8161
" />
<path d="M66.0916 73.8161
L66.8777 73.8161
" />
</g><text x="65.9101" y="76.8349"
textLength="2.5013" font-size="1.6933" lengthAdjust="spacingAndGlyphs"
text-anchor="middle" opacity="0" stroke-opacity="0">4V</text>
<g class="stroked-text"><desc>4V</desc>
<path d="M65.6077 75.9328
L65.6077 76.7794
" />
<path d="M65.3053 75.4490
L65.0030 76.3561
" />
<path d="M65.0030 76.3561
L65.7891 76.3561
" />
<path d="M66.0915 75.5094
L66.5148 76.7794
" />
<path d="M66.5148 76.7794
L66.9382 75.5094
" />
</g></g>
<g style="fill:none; 
stroke:#840000; stroke-width:0.2540; stroke-opacity:1; 
stroke-linecap:round; stroke-linejoin:round;">
<rect x="39.370000" y="80.264000" width="5.080000" height="2.032000" rx="0.000000" />
</g>
<g style="fill:none; 
stroke:#840000; stroke-width:0.1524; stroke-opacity:1; 
stroke-linecap:round; stroke-linejoin:round;">
<path d="M39.3700 81.2800
L38.1000 81.2800
" />
<path d="M44.4500 81.2800
L45.7200 81.2800
" />
</g>
<g style="fill:none; 
stroke:#006464; stroke-width:0.1524; stroke-opacity:1; 
stroke-linecap:round; stroke-linejoin:round;">
<text x="41.9099" y="75.5649"
textLength="2.6827" font-size="1.6933" lengthAdjust="spacingAndGlyphs"
text-anchor="middle" opacity="0" stroke-opacity="0">R4</text>
<g class="stroked-text"><desc>R4</desc>
<path d="M41.6982 75.5094
L41.2749 74.9047
" />
<path d="M40.9725 75.5094
L40.9725 74.2394
" />
<path d="M40.9725 74.2394
L41.4563 74.2394
" />
<path d="M41.4563 74.2394
L41.5773 74.2999
" />
<path d="M41.5773 74.2999
L41.6378 74.3604
" />
<path d="M41.6378 74.3604
L41.6982 74.4813
" />
<path d="M41.6982 74.4813
L41.6982 74.6628
" />
<path d="M41.6982 74.6628
L41.6378 74.7837
" />
<path d="M41.6378 74.7837
L41.5773 74.8442
" />
<path d="M41.5773 74.8442
L41.4563 74.9047
" />
<path d="M41.4563 74.9047
L40.9725 74.9047
" />
<path d="M42.7868 74.6628
L42.7868 75.5094
" />
<path d="M42.4844 74.1790
L42.1821 75.0861
" />
<path d="M42.1821 75.0861
L42.9682 75.0861
" />
</g><text x="41.9099" y="78.1049"
textLength="3.8317" font-size="1.6933" lengthAdjust="spacingAndGlyphs"
text-anchor="middle" opacity="0" stroke-opacity="0">500</text>
<g class="stroked-text"><desc>500</desc>
<path d="M41.0028 76.7794
L40.3980 76.7794
" />
<path d="M40.3980 76.7794
L40.3376 77.3842
" />
<path d="M40.3376 77.3842
L40.3980 77.3237
" />
<path d="M40.3980 77.3237
L40.5190 77.2632
" />
<path d="M40.5190 77.2632
L40.8214 77.2632
" />
<path d="M40.8214 77.2632
L40.9423 77.3237
" />
<path d="M40.9423 77.3237
L41.0028 77.3842
" />
<path d="M41.0028 77.3842
L41.0633 77.5051
" />
<path d="M41.0633 77.5051
L41.0633 77.8075
" />
<path d="M41.0633 77.8075
L41.0028 77.9285
" />
<path d="M41.0028 77.9285
L40.9423 77.9890
" />
<path d="M40.9423 77.9890
L40.8214 78.0494
" />
<path d="M40.8214 78.0494
L40.5190 78.0494
" />
<path d="M40.5190 78.0494
L40.3980 77.9890
" />
<path d="M40.3980 77.9890
L40.3376 77.9285
" />
<path d="M41.8494 76.7794
L41.9704 76.7794
" />
<path d="M41.9704 76.7794
L42.0913 76.8399
" />
<path d="M42.0913 76.8399
L42.1518 76.9004
" />
<path d="M42.1518 76.9004
L42.2123 77.0213
" />
<path d="M42.2123 77.0213
L42.2728 77.2632
" />
<path d="M42.2728 77.2632
L42.2728 77.5656
" />
<path d="M42.2728 77.5656
L42.2123 77.8075
" />
<path d="M42.2123 77.8075
L42.1518 77.9285
" />
<path d="M42.1518 77.9285
L42.0913 77.9890
" />
<path d="M42.0913 77.9890
L41.9704 78.0494
" />
<path d="M41.9704 78.0494
L41.8494 78.0494
" />
<path d="M41.8494 78.0494
L41.7285 77.9890
" />
<path d="M41.7285 77.9890
L41.6680 77.9285
" />
<path d="M41.6680 77.9285
L41.6075 77.8075
" />
<path d="M41.6075 77.8075
L41.5471 77.5656
" />
<path d="M41.5471 77.5656
L41.5471 77.2632
" />
<path d="M41.5471 77.2632
L41.6075 77.0213
" />
<path d="M41.6075 77.0213
L41.6680 76.9004
" />
<path d="M41.6680 76.9004
L41.7285 76.8399
" />
<path d="M41.7285 76.8399
L41.8494 76.7794
" />
<path d="M43.0589 76.7794
L43.1799 76.7794
" />
<path d="M43.1799 76.7794
L43.3008 76.8399
" />
<path d="M43.3008 76.8399
L43.3613 76.9004
" />
<path d="M43.3613 76.9004
L43.4218 77.0213
" />
<path d="M43.4218 77.0213
L43.4823 77.2632
" />
<path d="M43.4823 77.2632
L43.4823 77.5656
" />
<path d="M43.4823 77.5656
L43.4218 77.8075
" />
<path d="M43.4218 77.8075
L43.3613 77.9285
" />
<path d="M43.3613 77.9285
L43.3008 77.9890
" />
<path d="M43.3008 77.9890
L43.1799 78.0494
" />
<path d="M43.1799 78.0494
L43.0589 78.0494
" />
<path d="M43.0589 78.0494
L42.9380 77.9890
" />
<path d="M42.9380 77.9890
L42.8775 77.9285
" />
<path d="M42.8775 77.9285
L42.8170 77.8075
" />
<path d="M42.8170 77.8075
L42.7566 77.5656
" />
<path d="M42.7566 77.5656
L42.7566 77.2632
" />
<path d="M42.7566 77.2632
L42.8170 77.0213
" />
<path d="M42.8170 77.0213
L42.8775 76.9004
" />
<path d="M42.8775 76.9004
L42.9380 76.8399
" />
<path d="M42.9380 76.8399
L43.0589 76.7794
" />
</g></g>
<g style="fill:none; 
stroke:#840000; stroke-width:0.2540; stroke-opacity:1; 
stroke-linecap:round; stroke-linejoin:round;">
<rect x="39.370000" y="99.314000" width="5.080000" height="2.032000" rx="0.000000" />
</g>
<g style="fill:none; 
stroke:#840000; stroke-width:0.1524; stroke-opacity:1; 
stroke-linecap:round; stroke-linejoin:round;">
<path d="M39.3700 100.3300
L38.1000 100.3300
" />
<path d="M44.4500 100.3300
L45.7200 100.3300
" />
</g>
<g style="fill:none; 
stroke:#006464; stroke-width:0.1524; stroke-opacity:1; 
stroke-linecap:round; stroke-linejoin:round;">
<text x="41.9099" y="94.6149"
textLength="2.6827" font-size="1.6933" lengthAdjust="spacingAndGlyphs"
text-anchor="middle" opacity="0" stroke-opacity="0">R5</text>
<g class="stroked-text"><desc>R5</desc>
<path d="M41.6982 94.5594
L41.2749 93.9547
" />
<path d="M40.9725 94.5594
L40.9725 93.2894
" />
<path d="M40.9725 93.2894
L41.4563 93.2894
" />
<path d="M41.4563 93.2894
L41.5773 93.3499
" />
<path d="M41.5773 93.3499
L41.6378 93.4104
" />
<path d="M41.6378 93.4104
L41.6982 93.5313
" />
<path d="M41.6982 93.5313
L41.6982 93.7128
" />
<path d="M41.6982 93.7128
L41.6378 93.8337
" />
<path d="M41.6378 93.8337
L41.5773 93.8942
" />
<path d="M41.5773 93.8942
L41.4563 93.9547
" />
<path d="M41.4563 93.9547
L40.9725 93.9547
" />
<path d="M42.8473 93.2894
L42.2425 93.2894
" />
<path d="M42.2425 93.2894
L42.1821 93.8942
" />
<path d="M42.1821 93.8942
L42.2425 93.8337
" />
<path d="M42.2425 93.8337
L42.3635 93.7732
" />
<path d="M42.3635 93.7732
L42.6659 93.7732
" />
<path d="M42.6659 93.7732
L42.7868 93.8337
" />
<path d="M42.7868 93.8337
L42.8473 93.8942
" />
<path d="M42.8473 93.8942
L42.9078 94.0151
" />
<path d="M42.9078 94.0151
L42.9078 94.3175
" />
<path d="M42.9078 94.3175
L42.8473 94.4385
" />
<path d="M42.8473 94.4385
L42.7868 94.4990
" />
<path d="M42.7868 94.4990
L42.6659 94.5594
" />
<path d="M42.6659 94.5594
L42.3635 94.5594
" />
<path d="M42.3635 94.5594
L42.2425 94.4990
" />
<path d="M42.2425 94.4990
L42.1821 94.4385
" />
</g><text x="41.9099" y="97.1549"
textLength="3.8317" font-size="1.6933" lengthAdjust="spacingAndGlyphs"
text-anchor="middle" opacity="0" stroke-opacity="0">100</text>
<g class="stroked-text"><desc>100</desc>
<path d="M41.0633 97.0994
L40.3376 97.0994
" />
<path d="M40.7004 97.0994
L40.7004 95.8294
" />
<path d="M40.7004 95.8294
L40.5795 96.0109
" />
<path d="M40.5795 96.0109
L40.4585 96.1318
" />
<path d="M40.4585 96.1318
L40.3376 96.1923
" />
<path d="M41.8494 95.8294
L41.9704 95.8294
" />
<path d="M41.9704 95.8294
L42.0913 95.8899
" />
<path d="M42.0913 95.8899
L42.1518 95.9504
" />
<path d="M42.1518 95.9504
L42.2123 96.0713
" />
<path d="M42.2123 96.0713
L42.2728 96.3132
" />
<path d="M42.2728 96.3132
L42.2728 96.6156
" />
<path d="M42.2728 96.6156
L42.2123 96.8575
" />
<path d="M42.2123 96.8575
L42.1518 96.9785
" />
<path d="M42.1518 96.9785
L42.0913 97.0390
" />
<path d="M42.0913 97.0390
L41.9704 97.0994
" />
<path d="M41.9704 97.0994
L41.8494 97.0994
" />
<path d="M41.8494 97.0994
L41.7285 97.0390
" />
<path d="M41.7285 97.0390
L41.6680 96.9785
" />
<path d="M41.6680 96.9785
L41.6075 96.8575
" />
<path d="M41.6075 96.8575
L41.5471 96.6156
" />
<path d="M41.5471 96.6156
L41.5471 96.3132
" />
<path d="M41.5471 96.3132
L41.6075 96.0713
" />
<path d="M41.6075 96.0713
L41.6680 95.9504
" />
<path d="M41.6680 95.9504
L41.7285 95.8899
" />
<path d="M41.7285 95.8899
L41.8494 95.8294
" />
<path d="M43.0589 95.8294
L43.1799 95.8294
" />
<path d="M43.1799 95.8294
L43.3008 95.8899
" />
<path d="M43.3008 95.8899
L43.3613 95.9504
" />
<path d="M43.3613 95.9504
L43.4218 96.0713
" />
<path d="M43.4218 96.0713
L43.4823 96.3132
" />
<path d="M43.4823 96.3132
L43.4823 96.6156
" />
<path d="M43.4823 96.6156
L43.4218 96.8575
" />
<path d="M43.4218 96.8575
L43.3613 96.9785
" />
<path d="M43.3613 96.9785
L43.3008 97.0390
" />
<path d="M43.3008 97.0390
L43.1799 97.0994
" />
<path d="M43.1799 97.0994
L43.0589 97.0994
" />
<path d="M43.0589 97.0994
L42.9380 97.0390
" />
<path d="M42.9380 97.0390
L42.8775 96.9785
" />
<path d="M42.8775 96.9785
L42.8170 96.8575
" />
<path d="M42.8170 96.8575
L42.7566 96.6156
" />
<path d="M42.7566 96.6156
L42.7566 96.3132
" />
<path d="M42.7566 96.3132
L42.8170 96.0713
" />
<path d="M42.8170 96.0713
L42.8775 95.9504
" />
<path d="M42.8775 95.9504
L42.9380 95.8899
" />
<path d="M42.9380 95.8899
L43.0589 95.8294
" />
</g></g>
<g style="fill:#FFFFC2; fill-opacity:1.0000; stroke:none;">
<circle cx="66.0400" cy="27.9400" r="2.5400" /> 
<path style="fill:none; 
stroke:#840000; stroke-width:0.1524; stroke-opacity:1; 
stroke-linecap:round; stroke-linejoin:round;fill:none"
d="M 65.7860,29.2100
65.7860,26.6700
" /> 
<path style="fill:none; 
stroke:#840000; stroke-width:0.1524; stroke-opacity:1; 
stroke-linecap:round; stroke-linejoin:round;fill:none"
d="M 66.2940,28.7020
66.2940,29.2100
" /> 
<path style="fill:none; 
stroke:#840000; stroke-width:0.1524; stroke-opacity:1; 
stroke-linecap:round; stroke-linejoin:round;fill:none"
d="M 66.2940,27.6860
66.2940,28.1940
" /> 
<path style="fill:none; 
stroke:#840000; stroke-width:0.1524; stroke-opacity:1; 
stroke-linecap:round; stroke-linejoin:round;fill:none"
d="M 66.2940,26.6700
66.2940,27.1780
" /> 
</g>
<g style="fill:none; 
stroke:#840000; stroke-width:0.2540; stroke-opacity:1; 
stroke-linecap:round; stroke-linejoin:round;">
<circle cx="66.0400" cy="27.9400" r="2.5400" /> 
</g>
<g style="fill:none; 
stroke:#840000; stroke-width:0.1524; stroke-opacity:1; 
stroke-linecap:round; stroke-linejoin:round;">
<g transform="rotate(-90.000000 64.1350 27.9400)">
<text x="64.1350" y="28.5750"
textLength="1.7756" font-size="1.6933" lengthAdjust="spacingAndGlyphs"
text-anchor="middle" opacity="0" stroke-opacity="0">+</text>
</g>
<g class="stroked-text"><desc>+</desc>
<path d="M64.2307 28.4238
L64.2307 27.4562
" />
<path d="M64.7145 27.9400
L63.7469 27.9400
" />
</g><path d="M63.5000 27.9400
L60.9600 27.9400
" />
<path d="M68.5800 27.9400
L71.1200 27.9400
" />
</g>
<g style="fill:none; 
stroke:#006464; stroke-width:0.1524; stroke-opacity:1; 
stroke-linecap:round; stroke-linejoin:round;">
<text x="65.9101" y="20.9549"
textLength="2.5013" font-size="1.6933" lengthAdjust="spacingAndGlyphs"
text-anchor="middle" opacity="0" stroke-opacity="0">V1</text>
<g class="stroked-text"><desc>V1</desc>
<path d="M64.8820 19.6294
L65.3053 20.8994
" />
<path d="M65.3053 20.8994
L65.7287 19.6294
" />
<path d="M66.8173 20.8994
L66.0916 20.8994
" />
<path d="M66.4544 20.8994
L66.4544 19.6294
" />
<path d="M66.4544 19.6294
L66.3335 19.8109
" />
<path d="M66.3335 19.8109
L66.2125 19.9318
" />
<path d="M66.2125 19.9318
L66.0916 19.9923
" />
</g><text x="65.9102" y="23.4949"
textLength="4.3156" font-size="1.6933" lengthAdjust="spacingAndGlyphs"
text-anchor="middle" opacity="0" stroke-opacity="0">5.5V</text>
<g class="stroked-text"><desc>5.5V</desc>
<path d="M64.7611 22.1694
L64.1563 22.1694
" />
<path d="M64.1563 22.1694
L64.0959 22.7742
" />
<path d="M64.0959 22.7742
L64.1563 22.7137
" />
<path d="M64.1563 22.7137
L64.2773 22.6532
" />
<path d="M64.2773 22.6532
L64.5797 22.6532
" />
<path d="M64.5797 22.6532
L64.7006 22.7137
" />
<path d="M64.7006 22.7137
L64.7611 22.7742
" />
<path d="M64.7611 22.7742
L64.8216 22.8951
" />
<path d="M64.8216 22.8951
L64.8216 23.1975
" />
<path d="M64.8216 23.1975
L64.7611 23.3185
" />
<path d="M64.7611 23.3185
L64.7006 23.3790
" />
<path d="M64.7006 23.3790
L64.5797 23.4394
" />
<path d="M64.5797 23.4394
L64.2773 23.4394
" />
<path d="M64.2773 23.4394
L64.1563 23.3790
" />
<path d="M64.1563 23.3790
L64.0959 23.3185
" />
<path d="M65.3658 23.3185
L65.4263 23.3790
" />
<path d="M65.4263 23.3790
L65.3658 23.4394
" />
<path d="M65.3658 23.4394
L65.3054 23.3790
" />
<path d="M65.3054 23.3790
L65.3658 23.3185
" />
<path d="M65.3658 23.3185
L65.3658 23.4394
" />
<path d="M66.5754 22.1694
L65.9706 22.1694
" />
<path d="M65.9706 22.1694
L65.9102 22.7742
" />
<path d="M65.9102 22.7742
L65.9706 22.7137
" />
<path d="M65.9706 22.7137
L66.0916 22.6532
" />
<path d="M66.0916 22.6532
L66.3940 22.6532
" />
<path d="M66.3940 22.6532
L66.5149 22.7137
" />
<path d="M66.5149 22.7137
L66.5754 22.7742
" />
<path d="M66.5754 22.7742
L66.6359 22.8951
" />
<path d="M66.6359 22.8951
L66.6359 23.1975
" />
<path d="M66.6359 23.1975
L66.5754 23.3185
" />
<path d="M66.5754 23.3185
L66.5149 23.3790
" />
<path d="M66.5149 23.3790
L66.3940 23.4394
" />
<path d="M66.3940 23.4394
L66.0916 23.4394
" />
<path d="M66.0916 23.4394
L65.9706 23.3790
" />
<path d="M65.9706 23.3790
L65.9102 23.3185
" />
<path d="M66.9987 22.1694
L67.4220 23.4394
" />
<path d="M67.4220 23.4394
L67.8454 22.1694
" />
</g></g>
<g style="fill:#FFFFC2; fill-opacity:1.0000; stroke:none;">
<circle cx="66.0400" cy="45.7200" r="2.5400" /> 
<path style="fill:none; 
stroke:#840000; stroke-width:0.1524; stroke-opacity:1; 
stroke-linecap:round; stroke-linejoin:round;fill:none"
d="M 65.7860,46.9900
65.7860,44.4500
" /> 
<path style="fill:none; 
stroke:#840000; stroke-width:0.1524; stroke-opacity:1; 
stroke-linecap:round; stroke-linejoin:round;fill:none"
d="M 66.2940,46.4820
66.2940,46.9900
" /> 
<path style="fill:none; 
stroke:#840000; stroke-width:0.1524; stroke-opacity:1; 
stroke-linecap:round; stroke-linejoin:round;fill:none"
d="M 66.2940,45.4660
66.2940,45.9740
" /> 
<path style="fill:none; 
stroke:#840000; stroke-width:0.1524; stroke-opacity:1; 
stroke-linecap:round; stroke-linejoin:round;fill:none"
d="M 66.2940,44.4500
66.2940,44.9580
" /> 
</g>
<g style="fill:none; 
stroke:#840000; stroke-width:0.2540; stroke-opacity:1; 
stroke-linecap:round; stroke-linejoin:round;">
<circle cx="66.0400" cy="45.7200" r="2.5400" /> 
</g>
<g style="fill:none; 
stroke:#840000; stroke-width:0.1524; stroke-opacity:1; 
stroke-linecap:round; stroke-linejoin:round;">
<g transform="rotate(-90.000000 64.1350 45.7200)">
<text x="64.1350" y="46.3550"
textLength="1.7756" font-size="1.6933" lengthAdjust="spacingAndGlyphs"
text-anchor="middle" opacity="0" stroke-opacity="0">+</text>
</g>
<g class="stroked-text"><desc>+</desc>
<path d="M64.2307 46.2038
L64.2307 45.2362
" />
<path d="M64.7145 45.7200
L63.7469 45.7200
" />
</g><path d="M63.5000 45.7200
L60.9600 45.7200
" />
<path d="M68.5800 45.7200
L71.1200 45.7200
" />
</g>
<g style="fill:none; 
stroke:#006464; stroke-width:0.1524; stroke-opacity:1; 
stroke-linecap:round; stroke-linejoin:round;">
<text x="65.9101" y="38.7349"
textLength="2.5013" font-size="1.6933" lengthAdjust="spacingAndGlyphs"
text-anchor="middle" opacity="0" stroke-opacity="0">V2</text>
<g class="stroked-text"><desc>V2</desc>
<path d="M64.8820 37.4094
L65.3053 38.6794
" />
<path d="M65.3053 38.6794
L65.7287 37.4094
" />
<path d="M66.0916 37.5304
L66.1520 37.4699
" />
<path d="M66.1520 37.4699
L66.2730 37.4094
" />
<path d="M66.2730 37.4094
L66.5754 37.4094
" />
<path d="M66.5754 37.4094
L66.6963 37.4699
" />
<path d="M66.6963 37.4699
L66.7568 37.5304
" />
<path d="M66.7568 37.5304
L66.8173 37.6513
" />
<path d="M66.8173 37.6513
L66.8173 37.7723
" />
<path d="M66.8173 37.7723
L66.7568 37.9537
" />
<path d="M66.7568 37.9537
L66.0311 38.6794
" />
<path d="M66.0311 38.6794
L66.8173 38.6794
" />
</g><text x="65.9101" y="41.2749"
textLength="2.5013" font-size="1.6933" lengthAdjust="spacingAndGlyphs"
text-anchor="middle" opacity="0" stroke-opacity="0">5V</text>
<g class="stroked-text"><desc>5V</desc>
<path d="M65.6682 39.9494
L65.0634 39.9494
" />
<path d="M65.0634 39.9494
L65.0030 40.5542
" />
<path d="M65.0030 40.5542
L65.0634 40.4937
" />
<path d="M65.0634 40.4937
L65.1844 40.4332
" />
<path d="M65.1844 40.4332
L65.4868 40.4332
" />
<path d="M65.4868 40.4332
L65.6077 40.4937
" />
<path d="M65.6077 40.4937
L65.6682 40.5542
" />
<path d="M65.6682 40.5542
L65.7287 40.6751
" />
<path d="M65.7287 40.6751
L65.7287 40.9775
" />
<path d="M65.7287 40.9775
L65.6682 41.0985
" />
<path d="M65.6682 41.0985
L65.6077 41.1590
" />
<path d="M65.6077 41.1590
L65.4868 41.2194
" />
<path d="M65.4868 41.2194
L65.1844 41.2194
" />
<path d="M65.1844 41.2194
L65.0634 41.1590
" />
<path d="M65.0634 41.1590
L65.0030 41.0985
" />
<path d="M66.0915 39.9494
L66.5148 41.2194
" />
<path d="M66.5148 41.2194
L66.9382 39.9494
" />
</g></g>
<g style="fill:#FFFFC2; fill-opacity:1.0000; stroke:none;">
<circle cx="66.0400" cy="63.5000" r="2.5400" /> 
<path style="fill:none; 
stroke:#840000; stroke-width:0.1524; stroke-opacity:1; 
stroke-linecap:round; stroke-linejoin:round;fill:none"
d="M 65.7860,64.7700
65.7860,62.2300
" /> 
<path style="fill:none; 
stroke:#840000; stroke-width:0.1524; stroke-opacity:1; 
stroke-linecap:round; stroke-linejoin:round;fill:none"
d="M 66.2940,64.2620
66.2940,64.7700
" /> 
<path style="fill:none; 
stroke:#840000; stroke-width:0.1524; stroke-opacity:1; 
stroke-linecap:round; stroke-linejoin:round;fill:none"
d="M 66.2940,63.2460
66.2940,63.7540
" /> 
<path style="fill:none; 
stroke:#840000; stroke-width:0.1524; stroke-opacity:1; 
stroke-linecap:round; stroke-linejoin:round;fill:none"
d="M 66.2940,62.2300
66.2940,62.7380
" /> 
</g>
<g style="fill:none; 
stroke:#840000; stroke-width:0.2540; stroke-opacity:1; 
stroke-linecap:round; stroke-linejoin:round;">
<circle cx="66.0400" cy="63.5000" r="2.5400" /> 
</g>
<g style="fill:none; 
stroke:#840000; stroke-width:0.1524; stroke-opacity:1; 
stroke-linecap:round; stroke-linejoin:round;">
<g transform="rotate(-90.000000 64.1350 63.5000)">
<text x="64.1350" y="64.1350"
textLength="1.7756" font-size="1.6933" lengthAdjust="spacingAndGlyphs"
text-anchor="middle" opacity="0" stroke-opacity="0">+</text>
</g>
<g class="stroked-text"><desc>+</desc>
<path d="M64.2307 63.9838
L64.2307 63.0162
" />
<path d="M64.7145 63.5000
L63.7469 63.5000
" />
</g><path d="M63.5000 63.5000
L60.9600 63.5000
" />
<path d="M68.5800 63.5000
L71.1200 63.5000
" />
</g>
<g style="fill:none; 
stroke:#006464; stroke-width:0.1524; stroke-opacity:1; 
stroke-linecap:round; stroke-linejoin:round;">
<text x="65.9101" y="56.5149"
textLength="2.5013" font-size="1.6933" lengthAdjust="spacingAndGlyphs"
text-anchor="middle" opacity="0" stroke-opacity="0">V3</text>
<g class="stroked-text"><desc>V3</desc>
<path d="M64.8820 55.1894
L65.3053 56.4594
" />
<path d="M65.3053 56.4594
L65.7287 55.1894
" />
<path d="M66.0311 55.1894
L66.8173 55.1894
" />
<path d="M66.8173 55.1894
L66.3939 55.6732
" />
<path d="M66.3939 55.6732
L66.5754 55.6732
" />
<path d="M66.5754 55.6732
L66.6963 55.7337
" />
<path d="M66.6963 55.7337
L66.7568 55.7942
" />
<path d="M66.7568 55.7942
L66.8173 55.9151
" />
<path d="M66.8173 55.9151
L66.8173 56.2175
" />
<path d="M66.8173 56.2175
L66.7568 56.3385
" />
<path d="M66.7568 56.3385
L66.6963 56.3990
" />
<path d="M66.6963 56.3990
L66.5754 56.4594
" />
<path d="M66.5754 56.4594
L66.2125 56.4594
" />
<path d="M66.2125 56.4594
L66.0916 56.3990
" />
<path d="M66.0916 56.3990
L66.0311 56.3385
" />
</g><text x="65.9102" y="59.0549"
textLength="4.3156" font-size="1.6933" lengthAdjust="spacingAndGlyphs"
text-anchor="middle" opacity="0" stroke-opacity="0">4.5V</text>
<g class="stroked-text"><desc>4.5V</desc>
<path d="M64.7006 58.1528
L64.7006 58.9994
" />
<path d="M64.3982 57.6690
L64.0959 58.5761
" />
<path d="M64.0959 58.5761
L64.8820 58.5761
" />
<path d="M65.3658 58.8785
L65.4263 58.9390
" />
<path d="M65.4263 58.9390
L65.3658 58.9994
" />
<path d="M65.3658 58.9994
L65.3054 58.9390
" />
<path d="M65.3054 58.9390
L65.3658 58.8785
" />
<path d="M65.3658 58.8785
L65.3658 58.9994
" />
<path d="M66.5754 57.7294
L65.9706 57.7294
" />
<path d="M65.9706 57.7294
L65.9102 58.3342
" />
<path d="M65.9102 58.3342
L65.9706 58.2737
" />
<path d="M65.9706 58.2737
L66.0916 58.2132
" />
<path d="M66.0916 58.2132
L66.3940 58.2132
" />
<path d="M66.3940 58.2132
L66.5149 58.2737
" />
<path d="M66.5149 58.2737
L66.5754 58.3342
" />
<path d="M66.5754 58.3342
L66.6359 58.4551
" />
<path d="M66.6359 58.4551
L66.6359 58.7575
" />
<path d="M66.6359 58.7575
L66.5754 58.8785
" />
<path d="M66.5754 58.8785
L66.5149 58.9390
" />
<path d="M66.5149 58.9390
L66.3940 58.9994
" />
<path d="M66.3940 58.9994
L66.0916 58.9994
" />
<path d="M66.0916 58.9994
L65.9706 58.9390
" />
<path d="M65.9706 58.9390
L65.9102 58.8785
" />
<path d="M66.9987 57.7294
L67.4220 58.9994
" />
<path d="M67.4220 58.9994
L67.8454 57.7294
" />
</g><path style="fill:none; 
stroke:#840000; stroke-width:0.1524; stroke-opacity:1; 
stroke-linecap:round; stroke-linejoin:round;fill:none"
d="M 80.0100,64.7700
81.2800,63.5000
80.0100,62.2300
Z" /> 
</g>
<g style="fill:none; 
stroke:#840000; stroke-width:0.1524; stroke-opacity:1; 
stroke-linecap:round; stroke-linejoin:round;">
<path d="M80.0100 63.5000
L80.0100 63.5000
" />
</g>
<g style="fill:none; 
stroke:#006464; stroke-width:0.1524; stroke-opacity:1; 
stroke-linecap:round; stroke-linejoin:round;">
<text x="78.0240" y="62.6109"
textLength="1.4127" font-size="1.6933" lengthAdjust="spacingAndGlyphs"
text-anchor="middle" opacity="0" stroke-opacity="0">0</text>
<g class="stroked-text"><desc>0</desc>
<path d="M77.9635 61.2854
L78.0845 61.2854
" />
<path d="M78.0845 61.2854
L78.2054 61.3459
" />
<path d="M78.2054 61.3459
L78.2659 61.4064
" />
<path d="M78.2659 61.4064
L78.3264 61.5273
" />
<path d="M78.3264 61.5273
L78.3869 61.7692
" />
<path d="M78.3869 61.7692
L78.3869 62.0716
" />
<path d="M78.3869 62.0716
L78.3264 62.3135
" />
<path d="M78.3264 62.3135
L78.2659 62.4345
" />
<path d="M78.2659 62.4345
L78.2054 62.4950
" />
<path d="M78.2054 62.4950
L78.0845 62.5554
" />
<path d="M78.0845 62.5554
L77.9635 62.5554
" />
<path d="M77.9635 62.5554
L77.8426 62.4950
" />
<path d="M77.8426 62.4950
L77.7821 62.4345
" />
<path d="M77.7821 62.4345
L77.7216 62.3135
" />
<path d="M77.7216 62.3135
L77.6612 62.0716
" />
<path d="M77.6612 62.0716
L77.6612 61.7692
" />
<path d="M77.6612 61.7692
L77.7216 61.5273
" />
<path d="M77.7216 61.5273
L77.7821 61.4064
" />
<path d="M77.7821 61.4064
L77.8426 61.3459
" />
<path d="M77.8426 61.3459
L77.9635 61.2854
" />
</g></g>
<g style="fill:none; 
stroke:#0F0F0F; stroke-width:0.1524; stroke-opacity:1; 
stroke-linecap:round; stroke-linejoin:round;">
<text x="26.6700" y="99.9807"
textLength="3.2875" font-size="1.6933" lengthAdjust="spacingAndGlyphs"
text-anchor="start" opacity="0" stroke-opacity="0">Vr5</text>
<g class="stroked-text"><desc>Vr5</desc>
<path d="M26.8911 98.5472
L27.3144 99.8172
" />
<path d="M27.3144 99.8172
L27.7378 98.5472
" />
<path d="M28.1611 99.8172
L28.1611 98.9706
" />
<path d="M28.1611 99.2125
L28.2216 99.0915
" />
<path d="M28.2216 99.0915
L28.2821 99.0310
" />
<path d="M28.2821 99.0310
L28.4030 98.9706
" />
<path d="M28.4030 98.9706
L28.5240 98.9706
" />
<path d="M29.5521 98.5472
L28.9473 98.5472
" />
<path d="M28.9473 98.5472
L28.8869 99.1520
" />
<path d="M28.8869 99.1520
L28.9473 99.0915
" />
<path d="M28.9473 99.0915
L29.0683 99.0310
" />
<path d="M29.0683 99.0310
L29.3707 99.0310
" />
<path d="M29.3707 99.0310
L29.4916 99.0915
" />
<path d="M29.4916 99.0915
L29.5521 99.1520
" />
<path d="M29.5521 99.1520
L29.6126 99.2729
" />
<path d="M29.6126 99.2729
L29.6126 99.5753
" />
<path d="M29.6126 99.5753
L29.5521 99.6963
" />
<path d="M29.5521 99.6963
L29.4916 99.7568
" />
<path d="M29.4916 99.7568
L29.3707 99.8172
" />
<path d="M29.3707 99.8172
L29.0683 99.8172
" />
<path d="M29.0683 99.8172
L28.9473 99.7568
" />
<path d="M28.9473 99.7568
L28.8869 99.6963
" />
</g></g>
<g style="fill:none; 
stroke:#009600; stroke-width:0.1524; stroke-opacity:1; 
stroke-linecap:round; stroke-linejoin:round;">
<path d="M71.1200 81.2800
L76.2000 81.2800
" />
<path d="M26.6700 63.5000
L26.6700 81.2800
" />
<path d="M26.6700 63.5000
L38.1000 63.5000
" />
<path d="M26.6700 45.7200
L26.6700 63.5000
" />
<path d="M26.6700 81.2800
L26.6700 100.3300
" />
<path d="M26.6700 100.3300
L38.1000 100.3300
" />
<path d="M26.6700 45.7200
L38.1000 45.7200
" />
<path d="M26.6700 27.9400
L38.1000 27.9400
" />
<path d="M26.6700 27.9400
L26.6700 45.7200
" />
<path d="M26.6700 81.2800
L38.1000 81.2800
" />
<path d="M76.2000 81.2800
L76.2000 100.3300
" />
<path d="M45.7200 81.2800
L60.9600 81.2800
" />
<path d="M76.2000 63.5000
L80.0100 63.5000
" />
<path d="M76.2000 63.5000
L76.2000 81.2800
" />
<path d="M45.7200 63.5000
L60.9600 63.5000
" />
<path d="M76.2000 100.3300
L45.7200 100.3300
" />
<path d="M76.2000 45.7200
L76.2000 63.5000
" />
<path d="M45.7200 27.9400
L60.9600 27.9400
" />
<path d="M71.1200 27.9400
L76.2000 27.9400
" />
<path d="M71.1200 63.5000
L76.2000 63.5000
" />
<path d="M76.2000 27.9400
L76.2000 45.7200
" />
<path d="M45.7200 45.7200
L60.9600 45.7200
" />
<path d="M71.1200 45.7200
L76.2000 45.7200
" />
</g>
<g style="fill:#009600; fill-opacity:1.0000; 
stroke:#009600; stroke-width:0.1524; stroke-opacity:1; 
stroke-linecap:round; stroke-linejoin:round;">
<circle cx="26.6700" cy="81.2800" r="0.4572" /> 
<circle cx="76.2000" cy="63.5000" r="0.4572" /> 
<circle cx="76.2000" cy="45.7200" r="0.4572" /> 
<circle cx="76.2000" cy="81.2800" r="0.4572" /> 
<circle cx="26.6700" cy="45.7200" r="0.4572" /> 
<circle cx="26.6700" cy="63.5000" r="0.4572" /> 
</g> 
</svg>
