<?xml version="1.0" standalone="no"?>
 <!DOCTYPE svg PUBLIC "-//W3C//DTD SVG 1.1//EN" 
 "http://www.w3.org/Graphics/SVG/1.1/DTD/svg11.dtd"> 
<svg
  xmlns:svg="http://www.w3.org/2000/svg"
  xmlns="http://www.w3.org/2000/svg"
  xmlns:xlink="http://www.w3.org/1999/xlink"
  version="1.1"
  width="210.0072mm" height="148.0058mm" viewBox="0.0000 0.0000 210.0072 148.0058">
<title>SVG Image created as schematics.svg date 2025/12/16 22:07:02 </title>
  <desc>Image generated by Eeschema-SVG </desc>
<g style="fill:#000000; fill-opacity:1.0000;stroke:#000000; stroke-opacity:1.0000;
stroke-linecap:round; stroke-linejoin:round;"
 transform="translate(0 0) scale(1 1)">
</g>
<g style="fill:#F5F4EF; fill-opacity:1.0000; 
stroke:#F5F4EF; stroke-width:0.0001; stroke-opacity:1; 
stroke-linecap:round; stroke-linejoin:round;">
<rect x="0.000000" y="0.000000" width="210.007200" height="148.005800" rx="0.000000" />
</g>
<g style="fill:none; 
stroke:#840000; stroke-width:0.1524; stroke-opacity:1; 
stroke-linecap:round; stroke-linejoin:round;">
<path d="M90.0072 104.0058
L198.0072 104.0058
L198.0072 136.0058
L90.0072 136.0058
L90.0072 104.0058
" />
<path d="M10.0000 10.0000
L200.0072 10.0000
L200.0072 138.0058
L10.0000 138.0058
L10.0000 10.0000
" />
<path d="M12.0000 12.0000
L198.0072 12.0000
L198.0072 136.0058
L12.0000 136.0058
L12.0000 12.0000
" />
<path d="M60.0000 12.0000
L60.0000 10.0000
" />
<path d="M110.0000 12.0000
L110.0000 10.0000
" />
<path d="M160.0000 12.0000
L160.0000 10.0000
" />
<text x="35.0000" y="11.6500"
textLength="1.4353" font-size="1.7333" lengthAdjust="spacingAndGlyphs"
text-anchor="start" opacity="0" stroke-opacity="0">1</text>
<g class="stroked-text"><desc>1</desc>
<path d="M36.0906 11.5935
L35.3478 11.5935
" />
<path d="M35.7192 11.5935
L35.7192 10.2935
" />
<path d="M35.7192 10.2935
L35.5954 10.4792
" />
<path d="M35.5954 10.4792
L35.4716 10.6030
" />
<path d="M35.4716 10.6030
L35.3478 10.6649
" />
</g><text x="85.0000" y="11.6500"
textLength="1.4353" font-size="1.7333" lengthAdjust="spacingAndGlyphs"
text-anchor="start" opacity="0" stroke-opacity="0">2</text>
<g class="stroked-text"><desc>2</desc>
<path d="M85.3478 10.4173
L85.4097 10.3554
" />
<path d="M85.4097 10.3554
L85.5335 10.2935
" />
<path d="M85.5335 10.2935
L85.8430 10.2935
" />
<path d="M85.8430 10.2935
L85.9668 10.3554
" />
<path d="M85.9668 10.3554
L86.0287 10.4173
" />
<path d="M86.0287 10.4173
L86.0906 10.5411
" />
<path d="M86.0906 10.5411
L86.0906 10.6649
" />
<path d="M86.0906 10.6649
L86.0287 10.8506
" />
<path d="M86.0287 10.8506
L85.2859 11.5935
" />
<path d="M85.2859 11.5935
L86.0906 11.5935
" />
</g><text x="135.0000" y="11.6500"
textLength="1.4353" font-size="1.7333" lengthAdjust="spacingAndGlyphs"
text-anchor="start" opacity="0" stroke-opacity="0">3</text>
<g class="stroked-text"><desc>3</desc>
<path d="M135.2859 10.2935
L136.0906 10.2935
" />
<path d="M136.0906 10.2935
L135.6573 10.7887
" />
<path d="M135.6573 10.7887
L135.8430 10.7887
" />
<path d="M135.8430 10.7887
L135.9668 10.8506
" />
<path d="M135.9668 10.8506
L136.0287 10.9125
" />
<path d="M136.0287 10.9125
L136.0906 11.0363
" />
<path d="M136.0906 11.0363
L136.0906 11.3458
" />
<path d="M136.0906 11.3458
L136.0287 11.4696
" />
<path d="M136.0287 11.4696
L135.9668 11.5316
" />
<path d="M135.9668 11.5316
L135.8430 11.5935
" />
<path d="M135.8430 11.5935
L135.4716 11.5935
" />
<path d="M135.4716 11.5935
L135.3478 11.5316
" />
<path d="M135.3478 11.5316
L135.2859 11.4696
" />
</g><text x="185.0000" y="11.6500"
textLength="1.4353" font-size="1.7333" lengthAdjust="spacingAndGlyphs"
text-anchor="start" opacity="0" stroke-opacity="0">4</text>
<g class="stroked-text"><desc>4</desc>
<path d="M185.9668 10.7268
L185.9668 11.5935
" />
<path d="M185.6573 10.2316
L185.3478 11.1601
" />
<path d="M185.3478 11.1601
L186.1525 11.1601
" />
</g><path d="M60.0000 136.0058
L60.0000 138.0058
" />
<path d="M110.0000 136.0058
L110.0000 138.0058
" />
<path d="M160.0000 136.0058
L160.0000 138.0058
" />
<text x="35.0000" y="137.6558"
textLength="1.4353" font-size="1.7333" lengthAdjust="spacingAndGlyphs"
text-anchor="start" opacity="0" stroke-opacity="0">1</text>
<g class="stroked-text"><desc>1</desc>
<path d="M36.0906 137.5993
L35.3478 137.5993
" />
<path d="M35.7192 137.5993
L35.7192 136.2993
" />
<path d="M35.7192 136.2993
L35.5954 136.4850
" />
<path d="M35.5954 136.4850
L35.4716 136.6088
" />
<path d="M35.4716 136.6088
L35.3478 136.6707
" />
</g><text x="85.0000" y="137.6558"
textLength="1.4353" font-size="1.7333" lengthAdjust="spacingAndGlyphs"
text-anchor="start" opacity="0" stroke-opacity="0">2</text>
<g class="stroked-text"><desc>2</desc>
<path d="M85.3478 136.4231
L85.4097 136.3612
" />
<path d="M85.4097 136.3612
L85.5335 136.2993
" />
<path d="M85.5335 136.2993
L85.8430 136.2993
" />
<path d="M85.8430 136.2993
L85.9668 136.3612
" />
<path d="M85.9668 136.3612
L86.0287 136.4231
" />
<path d="M86.0287 136.4231
L86.0906 136.5469
" />
<path d="M86.0906 136.5469
L86.0906 136.6707
" />
<path d="M86.0906 136.6707
L86.0287 136.8564
" />
<path d="M86.0287 136.8564
L85.2859 137.5993
" />
<path d="M85.2859 137.5993
L86.0906 137.5993
" />
</g><text x="135.0000" y="137.6558"
textLength="1.4353" font-size="1.7333" lengthAdjust="spacingAndGlyphs"
text-anchor="start" opacity="0" stroke-opacity="0">3</text>
<g class="stroked-text"><desc>3</desc>
<path d="M135.2859 136.2993
L136.0906 136.2993
" />
<path d="M136.0906 136.2993
L135.6573 136.7945
" />
<path d="M135.6573 136.7945
L135.8430 136.7945
" />
<path d="M135.8430 136.7945
L135.9668 136.8564
" />
<path d="M135.9668 136.8564
L136.0287 136.9183
" />
<path d="M136.0287 136.9183
L136.0906 137.0421
" />
<path d="M136.0906 137.0421
L136.0906 137.3516
" />
<path d="M136.0906 137.3516
L136.0287 137.4754
" />
<path d="M136.0287 137.4754
L135.9668 137.5374
" />
<path d="M135.9668 137.5374
L135.8430 137.5993
" />
<path d="M135.8430 137.5993
L135.4716 137.5993
" />
<path d="M135.4716 137.5993
L135.3478 137.5374
" />
<path d="M135.3478 137.5374
L135.2859 137.4754
" />
</g><text x="185.0000" y="137.6558"
textLength="1.4353" font-size="1.7333" lengthAdjust="spacingAndGlyphs"
text-anchor="start" opacity="0" stroke-opacity="0">4</text>
<g class="stroked-text"><desc>4</desc>
<path d="M185.9668 136.7326
L185.9668 137.5993
" />
<path d="M185.6573 136.2374
L185.3478 137.1659
" />
<path d="M185.3478 137.1659
L186.1525 137.1659
" />
</g><path d="M10.0000 60.0000
L12.0000 60.0000
" />
<path d="M10.0000 110.0000
L12.0000 110.0000
" />
<text x="11.0000" y="35.6500"
textLength="1.3115" font-size="1.7333" lengthAdjust="spacingAndGlyphs"
text-anchor="middle" opacity="0" stroke-opacity="0">A</text>
<g class="stroked-text"><desc>A</desc>
<path d="M10.6905 35.2220
L11.3095 35.2220
" />
<path d="M10.5667 35.5935
L11.0000 34.2935
" />
<path d="M11.0000 34.2935
L11.4333 35.5935
" />
</g><text x="11.0000" y="85.6500"
textLength="1.4972" font-size="1.7333" lengthAdjust="spacingAndGlyphs"
text-anchor="middle" opacity="0" stroke-opacity="0">B</text>
<g class="stroked-text"><desc>B</desc>
<path d="M11.0928 84.9125
L11.2785 84.9744
" />
<path d="M11.2785 84.9744
L11.3404 85.0363
" />
<path d="M11.3404 85.0363
L11.4023 85.1601
" />
<path d="M11.4023 85.1601
L11.4023 85.3458
" />
<path d="M11.4023 85.3458
L11.3404 85.4696
" />
<path d="M11.3404 85.4696
L11.2785 85.5316
" />
<path d="M11.2785 85.5316
L11.1547 85.5935
" />
<path d="M11.1547 85.5935
L10.6595 85.5935
" />
<path d="M10.6595 85.5935
L10.6595 84.2935
" />
<path d="M10.6595 84.2935
L11.0928 84.2935
" />
<path d="M11.0928 84.2935
L11.2166 84.3554
" />
<path d="M11.2166 84.3554
L11.2785 84.4173
" />
<path d="M11.2785 84.4173
L11.3404 84.5411
" />
<path d="M11.3404 84.5411
L11.3404 84.6649
" />
<path d="M11.3404 84.6649
L11.2785 84.7887
" />
<path d="M11.2785 84.7887
L11.2166 84.8506
" />
<path d="M11.2166 84.8506
L11.0928 84.9125
" />
<path d="M11.0928 84.9125
L10.6595 84.9125
" />
</g><text x="11.0000" y="135.6500"
textLength="1.4972" font-size="1.7333" lengthAdjust="spacingAndGlyphs"
text-anchor="middle" opacity="0" stroke-opacity="0">C</text>
<g class="stroked-text"><desc>C</desc>
<path d="M11.4023 135.4696
L11.3404 135.5316
" />
<path d="M11.3404 135.5316
L11.1547 135.5935
" />
<path d="M11.1547 135.5935
L11.0309 135.5935
" />
<path d="M11.0309 135.5935
L10.8452 135.5316
" />
<path d="M10.8452 135.5316
L10.7214 135.4077
" />
<path d="M10.7214 135.4077
L10.6595 135.2839
" />
<path d="M10.6595 135.2839
L10.5976 135.0363
" />
<path d="M10.5976 135.0363
L10.5976 134.8506
" />
<path d="M10.5976 134.8506
L10.6595 134.6030
" />
<path d="M10.6595 134.6030
L10.7214 134.4792
" />
<path d="M10.7214 134.4792
L10.8452 134.3554
" />
<path d="M10.8452 134.3554
L11.0309 134.2935
" />
<path d="M11.0309 134.2935
L11.1547 134.2935
" />
<path d="M11.1547 134.2935
L11.3404 134.3554
" />
<path d="M11.3404 134.3554
L11.4023 134.4173
" />
</g><path d="M200.0072 60.0000
L198.0072 60.0000
" />
<path d="M200.0072 110.0000
L198.0072 110.0000
" />
<text x="199.0072" y="35.6500"
textLength="1.3115" font-size="1.7333" lengthAdjust="spacingAndGlyphs"
text-anchor="middle" opacity="0" stroke-opacity="0">A</text>
<g class="stroked-text"><desc>A</desc>
<path d="M198.6977 35.2220
L199.3167 35.2220
" />
<path d="M198.5739 35.5935
L199.0072 34.2935
" />
<path d="M199.0072 34.2935
L199.4405 35.5935
" />
</g><text x="199.0072" y="85.6500"
textLength="1.4972" font-size="1.7333" lengthAdjust="spacingAndGlyphs"
text-anchor="middle" opacity="0" stroke-opacity="0">B</text>
<g class="stroked-text"><desc>B</desc>
<path d="M199.1000 84.9125
L199.2857 84.9744
" />
<path d="M199.2857 84.9744
L199.3476 85.0363
" />
<path d="M199.3476 85.0363
L199.4095 85.1601
" />
<path d="M199.4095 85.1601
L199.4095 85.3458
" />
<path d="M199.4095 85.3458
L199.3476 85.4696
" />
<path d="M199.3476 85.4696
L199.2857 85.5316
" />
<path d="M199.2857 85.5316
L199.1619 85.5935
" />
<path d="M199.1619 85.5935
L198.6667 85.5935
" />
<path d="M198.6667 85.5935
L198.6667 84.2935
" />
<path d="M198.6667 84.2935
L199.1000 84.2935
" />
<path d="M199.1000 84.2935
L199.2238 84.3554
" />
<path d="M199.2238 84.3554
L199.2857 84.4173
" />
<path d="M199.2857 84.4173
L199.3476 84.5411
" />
<path d="M199.3476 84.5411
L199.3476 84.6649
" />
<path d="M199.3476 84.6649
L199.2857 84.7887
" />
<path d="M199.2857 84.7887
L199.2238 84.8506
" />
<path d="M199.2238 84.8506
L199.1000 84.9125
" />
<path d="M199.1000 84.9125
L198.6667 84.9125
" />
</g><text x="199.0072" y="135.6500"
textLength="1.4972" font-size="1.7333" lengthAdjust="spacingAndGlyphs"
text-anchor="middle" opacity="0" stroke-opacity="0">C</text>
<g class="stroked-text"><desc>C</desc>
<path d="M199.4095 135.4696
L199.3476 135.5316
" />
<path d="M199.3476 135.5316
L199.1619 135.5935
" />
<path d="M199.1619 135.5935
L199.0381 135.5935
" />
<path d="M199.0381 135.5935
L198.8524 135.5316
" />
<path d="M198.8524 135.5316
L198.7286 135.4077
" />
<path d="M198.7286 135.4077
L198.6667 135.2839
" />
<path d="M198.6667 135.2839
L198.6048 135.0363
" />
<path d="M198.6048 135.0363
L198.6048 134.8506
" />
<path d="M198.6048 134.8506
L198.6667 134.6030
" />
<path d="M198.6667 134.6030
L198.7286 134.4792
" />
<path d="M198.7286 134.4792
L198.8524 134.3554
" />
<path d="M198.8524 134.3554
L199.0381 134.2935
" />
<path d="M199.0381 134.2935
L199.1619 134.2935
" />
<path d="M199.1619 134.2935
L199.3476 134.3554
" />
<path d="M199.3476 134.3554
L199.4095 134.4173
" />
</g><text x="113.0072" y="131.8558"
textLength="7.0143" font-size="2.0000" lengthAdjust="spacingAndGlyphs"
text-anchor="start" opacity="0" stroke-opacity="0">Date: </text>
<g class="stroked-text"><desc>Date: </desc>
<path d="M113.4645 131.7917
L113.4645 130.2917
" />
<path d="M113.4645 130.2917
L113.8216 130.2917
" />
<path d="M113.8216 130.2917
L114.0359 130.3631
" />
<path d="M114.0359 130.3631
L114.1788 130.5060
" />
<path d="M114.1788 130.5060
L114.2502 130.6488
" />
<path d="M114.2502 130.6488
L114.3216 130.9345
" />
<path d="M114.3216 130.9345
L114.3216 131.1488
" />
<path d="M114.3216 131.1488
L114.2502 131.4345
" />
<path d="M114.2502 131.4345
L114.1788 131.5774
" />
<path d="M114.1788 131.5774
L114.0359 131.7203
" />
<path d="M114.0359 131.7203
L113.8216 131.7917
" />
<path d="M113.8216 131.7917
L113.4645 131.7917
" />
<path d="M115.6074 131.7917
L115.6074 131.0060
" />
<path d="M115.6074 131.0060
L115.5359 130.8631
" />
<path d="M115.5359 130.8631
L115.3931 130.7917
" />
<path d="M115.3931 130.7917
L115.1074 130.7917
" />
<path d="M115.1074 130.7917
L114.9645 130.8631
" />
<path d="M115.6074 131.7203
L115.4645 131.7917
" />
<path d="M115.4645 131.7917
L115.1074 131.7917
" />
<path d="M115.1074 131.7917
L114.9645 131.7203
" />
<path d="M114.9645 131.7203
L114.8931 131.5774
" />
<path d="M114.8931 131.5774
L114.8931 131.4345
" />
<path d="M114.8931 131.4345
L114.9645 131.2917
" />
<path d="M114.9645 131.2917
L115.1074 131.2203
" />
<path d="M115.1074 131.2203
L115.4645 131.2203
" />
<path d="M115.4645 131.2203
L115.6074 131.1488
" />
<path d="M116.1073 130.7917
L116.6787 130.7917
" />
<path d="M116.3216 130.2917
L116.3216 131.5774
" />
<path d="M116.3216 131.5774
L116.3930 131.7203
" />
<path d="M116.3930 131.7203
L116.5359 131.7917
" />
<path d="M116.5359 131.7917
L116.6787 131.7917
" />
<path d="M117.7501 131.7203
L117.6073 131.7917
" />
<path d="M117.6073 131.7917
L117.3216 131.7917
" />
<path d="M117.3216 131.7917
L117.1787 131.7203
" />
<path d="M117.1787 131.7203
L117.1073 131.5774
" />
<path d="M117.1073 131.5774
L117.1073 131.0060
" />
<path d="M117.1073 131.0060
L117.1787 130.8631
" />
<path d="M117.1787 130.8631
L117.3216 130.7917
" />
<path d="M117.3216 130.7917
L117.6073 130.7917
" />
<path d="M117.6073 130.7917
L117.7501 130.8631
" />
<path d="M117.7501 130.8631
L117.8216 131.0060
" />
<path d="M117.8216 131.0060
L117.8216 131.1488
" />
<path d="M117.8216 131.1488
L117.1073 131.2917
" />
<path d="M118.4644 131.6488
L118.5358 131.7203
" />
<path d="M118.5358 131.7203
L118.4644 131.7917
" />
<path d="M118.4644 131.7917
L118.3930 131.7203
" />
<path d="M118.3930 131.7203
L118.4644 131.6488
" />
<path d="M118.4644 131.6488
L118.4644 131.7917
" />
<path d="M118.4644 130.8631
L118.5358 130.9345
" />
<path d="M118.5358 130.9345
L118.4644 131.0060
" />
<path d="M118.4644 131.0060
L118.3930 130.9345
" />
<path d="M118.3930 130.9345
L118.4644 130.8631
" />
<path d="M118.4644 130.8631
L118.4644 131.0060
" />
</g><path d="M90.0072 132.5058
L198.0072 132.5058
" />
<text x="91.0072" y="134.6558"
textLength="20.8716" font-size="2.0000" lengthAdjust="spacingAndGlyphs"
text-anchor="start" opacity="0" stroke-opacity="0">KiCad E.D.A. 9.0.3</text>
<g class="stroked-text"><desc>KiCad E.D.A. 9.0.3</desc>
<path d="M91.4645 134.5917
L91.4645 133.0917
" />
<path d="M92.3216 134.5917
L91.6788 133.7345
" />
<path d="M92.3216 133.0917
L91.4645 133.9488
" />
<path d="M92.9645 134.5917
L92.9645 133.5917
" />
<path d="M92.9645 133.0917
L92.8931 133.1631
" />
<path d="M92.8931 133.1631
L92.9645 133.2345
" />
<path d="M92.9645 133.2345
L93.0359 133.1631
" />
<path d="M93.0359 133.1631
L92.9645 133.0917
" />
<path d="M92.9645 133.0917
L92.9645 133.2345
" />
<path d="M94.5359 134.4488
L94.4645 134.5203
" />
<path d="M94.4645 134.5203
L94.2502 134.5917
" />
<path d="M94.2502 134.5917
L94.1074 134.5917
" />
<path d="M94.1074 134.5917
L93.8931 134.5203
" />
<path d="M93.8931 134.5203
L93.7502 134.3774
" />
<path d="M93.7502 134.3774
L93.6788 134.2345
" />
<path d="M93.6788 134.2345
L93.6074 133.9488
" />
<path d="M93.6074 133.9488
L93.6074 133.7345
" />
<path d="M93.6074 133.7345
L93.6788 133.4488
" />
<path d="M93.6788 133.4488
L93.7502 133.3060
" />
<path d="M93.7502 133.3060
L93.8931 133.1631
" />
<path d="M93.8931 133.1631
L94.1074 133.0917
" />
<path d="M94.1074 133.0917
L94.2502 133.0917
" />
<path d="M94.2502 133.0917
L94.4645 133.1631
" />
<path d="M94.4645 133.1631
L94.5359 133.2345
" />
<path d="M95.8217 134.5917
L95.8217 133.8060
" />
<path d="M95.8217 133.8060
L95.7502 133.6631
" />
<path d="M95.7502 133.6631
L95.6074 133.5917
" />
<path d="M95.6074 133.5917
L95.3217 133.5917
" />
<path d="M95.3217 133.5917
L95.1788 133.6631
" />
<path d="M95.8217 134.5203
L95.6788 134.5917
" />
<path d="M95.6788 134.5917
L95.3217 134.5917
" />
<path d="M95.3217 134.5917
L95.1788 134.5203
" />
<path d="M95.1788 134.5203
L95.1074 134.3774
" />
<path d="M95.1074 134.3774
L95.1074 134.2345
" />
<path d="M95.1074 134.2345
L95.1788 134.0917
" />
<path d="M95.1788 134.0917
L95.3217 134.0203
" />
<path d="M95.3217 134.0203
L95.6788 134.0203
" />
<path d="M95.6788 134.0203
L95.8217 133.9488
" />
<path d="M97.1788 134.5917
L97.1788 133.0917
" />
<path d="M97.1788 134.5203
L97.0359 134.5917
" />
<path d="M97.0359 134.5917
L96.7502 134.5917
" />
<path d="M96.7502 134.5917
L96.6073 134.5203
" />
<path d="M96.6073 134.5203
L96.5359 134.4488
" />
<path d="M96.5359 134.4488
L96.4645 134.3060
" />
<path d="M96.4645 134.3060
L96.4645 133.8774
" />
<path d="M96.4645 133.8774
L96.5359 133.7345
" />
<path d="M96.5359 133.7345
L96.6073 133.6631
" />
<path d="M96.6073 133.6631
L96.7502 133.5917
" />
<path d="M96.7502 133.5917
L97.0359 133.5917
" />
<path d="M97.0359 133.5917
L97.1788 133.6631
" />
<path d="M99.0359 133.8060
L99.5359 133.8060
" />
<path d="M99.7502 134.5917
L99.0359 134.5917
" />
<path d="M99.0359 134.5917
L99.0359 133.0917
" />
<path d="M99.0359 133.0917
L99.7502 133.0917
" />
<path d="M100.3930 134.4488
L100.4644 134.5203
" />
<path d="M100.4644 134.5203
L100.3930 134.5917
" />
<path d="M100.3930 134.5917
L100.3216 134.5203
" />
<path d="M100.3216 134.5203
L100.3930 134.4488
" />
<path d="M100.3930 134.4488
L100.3930 134.5917
" />
<path d="M101.1073 134.5917
L101.1073 133.0917
" />
<path d="M101.1073 133.0917
L101.4644 133.0917
" />
<path d="M101.4644 133.0917
L101.6787 133.1631
" />
<path d="M101.6787 133.1631
L101.8216 133.3060
" />
<path d="M101.8216 133.3060
L101.8930 133.4488
" />
<path d="M101.8930 133.4488
L101.9644 133.7345
" />
<path d="M101.9644 133.7345
L101.9644 133.9488
" />
<path d="M101.9644 133.9488
L101.8930 134.2345
" />
<path d="M101.8930 134.2345
L101.8216 134.3774
" />
<path d="M101.8216 134.3774
L101.6787 134.5203
" />
<path d="M101.6787 134.5203
L101.4644 134.5917
" />
<path d="M101.4644 134.5917
L101.1073 134.5917
" />
<path d="M102.6073 134.4488
L102.6787 134.5203
" />
<path d="M102.6787 134.5203
L102.6073 134.5917
" />
<path d="M102.6073 134.5917
L102.5359 134.5203
" />
<path d="M102.5359 134.5203
L102.6073 134.4488
" />
<path d="M102.6073 134.4488
L102.6073 134.5917
" />
<path d="M103.2502 134.1631
L103.9645 134.1631
" />
<path d="M103.1073 134.5917
L103.6073 133.0917
" />
<path d="M103.6073 133.0917
L104.1073 134.5917
" />
<path d="M104.6073 134.4488
L104.6787 134.5203
" />
<path d="M104.6787 134.5203
L104.6073 134.5917
" />
<path d="M104.6073 134.5917
L104.5359 134.5203
" />
<path d="M104.5359 134.5203
L104.6073 134.4488
" />
<path d="M104.6073 134.4488
L104.6073 134.5917
" />
<path d="M106.5359 134.5917
L106.8216 134.5917
" />
<path d="M106.8216 134.5917
L106.9645 134.5203
" />
<path d="M106.9645 134.5203
L107.0359 134.4488
" />
<path d="M107.0359 134.4488
L107.1788 134.2345
" />
<path d="M107.1788 134.2345
L107.2502 133.9488
" />
<path d="M107.2502 133.9488
L107.2502 133.3774
" />
<path d="M107.2502 133.3774
L107.1788 133.2345
" />
<path d="M107.1788 133.2345
L107.1074 133.1631
" />
<path d="M107.1074 133.1631
L106.9645 133.0917
" />
<path d="M106.9645 133.0917
L106.6788 133.0917
" />
<path d="M106.6788 133.0917
L106.5359 133.1631
" />
<path d="M106.5359 133.1631
L106.4645 133.2345
" />
<path d="M106.4645 133.2345
L106.3931 133.3774
" />
<path d="M106.3931 133.3774
L106.3931 133.7345
" />
<path d="M106.3931 133.7345
L106.4645 133.8774
" />
<path d="M106.4645 133.8774
L106.5359 133.9488
" />
<path d="M106.5359 133.9488
L106.6788 134.0203
" />
<path d="M106.6788 134.0203
L106.9645 134.0203
" />
<path d="M106.9645 134.0203
L107.1074 133.9488
" />
<path d="M107.1074 133.9488
L107.1788 133.8774
" />
<path d="M107.1788 133.8774
L107.2502 133.7345
" />
<path d="M107.8931 134.4488
L107.9645 134.5203
" />
<path d="M107.9645 134.5203
L107.8931 134.5917
" />
<path d="M107.8931 134.5917
L107.8217 134.5203
" />
<path d="M107.8217 134.5203
L107.8931 134.4488
" />
<path d="M107.8931 134.4488
L107.8931 134.5917
" />
<path d="M108.8931 133.0917
L109.0360 133.0917
" />
<path d="M109.0360 133.0917
L109.1788 133.1631
" />
<path d="M109.1788 133.1631
L109.2503 133.2345
" />
<path d="M109.2503 133.2345
L109.3217 133.3774
" />
<path d="M109.3217 133.3774
L109.3931 133.6631
" />
<path d="M109.3931 133.6631
L109.3931 134.0203
" />
<path d="M109.3931 134.0203
L109.3217 134.3060
" />
<path d="M109.3217 134.3060
L109.2503 134.4488
" />
<path d="M109.2503 134.4488
L109.1788 134.5203
" />
<path d="M109.1788 134.5203
L109.0360 134.5917
" />
<path d="M109.0360 134.5917
L108.8931 134.5917
" />
<path d="M108.8931 134.5917
L108.7503 134.5203
" />
<path d="M108.7503 134.5203
L108.6788 134.4488
" />
<path d="M108.6788 134.4488
L108.6074 134.3060
" />
<path d="M108.6074 134.3060
L108.5360 134.0203
" />
<path d="M108.5360 134.0203
L108.5360 133.6631
" />
<path d="M108.5360 133.6631
L108.6074 133.3774
" />
<path d="M108.6074 133.3774
L108.6788 133.2345
" />
<path d="M108.6788 133.2345
L108.7503 133.1631
" />
<path d="M108.7503 133.1631
L108.8931 133.0917
" />
<path d="M110.0360 134.4488
L110.1074 134.5203
" />
<path d="M110.1074 134.5203
L110.0360 134.5917
" />
<path d="M110.0360 134.5917
L109.9646 134.5203
" />
<path d="M109.9646 134.5203
L110.0360 134.4488
" />
<path d="M110.0360 134.4488
L110.0360 134.5917
" />
<path d="M110.6074 133.0917
L111.5360 133.0917
" />
<path d="M111.5360 133.0917
L111.0360 133.6631
" />
<path d="M111.0360 133.6631
L111.2503 133.6631
" />
<path d="M111.2503 133.6631
L111.3932 133.7345
" />
<path d="M111.3932 133.7345
L111.4646 133.8060
" />
<path d="M111.4646 133.8060
L111.5360 133.9488
" />
<path d="M111.5360 133.9488
L111.5360 134.3060
" />
<path d="M111.5360 134.3060
L111.4646 134.4488
" />
<path d="M111.4646 134.4488
L111.3932 134.5203
" />
<path d="M111.3932 134.5203
L111.2503 134.5917
" />
<path d="M111.2503 134.5917
L110.8217 134.5917
" />
<path d="M110.8217 134.5917
L110.6789 134.5203
" />
<path d="M110.6789 134.5203
L110.6074 134.4488
" />
</g><path d="M90.0072 129.5058
L198.0072 129.5058
" />
</g>
<g style="fill:none; 
stroke:#840000; stroke-width:0.3000; stroke-opacity:1; 
stroke-linecap:round; stroke-linejoin:round;">
<text x="176.0072" y="131.8558"
textLength="6.3858" font-size="2.0000" lengthAdjust="spacingAndGlyphs"
text-anchor="start" opacity="0" stroke-opacity="0">Rev: </text>
<g class="stroked-text"><desc>Rev: </desc>
<path d="M177.4187 131.7841
L176.9187 131.0698
" />
<path d="M176.5616 131.7841
L176.5616 130.2841
" />
<path d="M176.5616 130.2841
L177.1330 130.2841
" />
<path d="M177.1330 130.2841
L177.2759 130.3555
" />
<path d="M177.2759 130.3555
L177.3473 130.4269
" />
<path d="M177.3473 130.4269
L177.4187 130.5698
" />
<path d="M177.4187 130.5698
L177.4187 130.7841
" />
<path d="M177.4187 130.7841
L177.3473 130.9269
" />
<path d="M177.3473 130.9269
L177.2759 130.9984
" />
<path d="M177.2759 130.9984
L177.1330 131.0698
" />
<path d="M177.1330 131.0698
L176.5616 131.0698
" />
<path d="M178.6330 131.7127
L178.4902 131.7841
" />
<path d="M178.4902 131.7841
L178.2045 131.7841
" />
<path d="M178.2045 131.7841
L178.0616 131.7127
" />
<path d="M178.0616 131.7127
L177.9902 131.5698
" />
<path d="M177.9902 131.5698
L177.9902 130.9984
" />
<path d="M177.9902 130.9984
L178.0616 130.8555
" />
<path d="M178.0616 130.8555
L178.2045 130.7841
" />
<path d="M178.2045 130.7841
L178.4902 130.7841
" />
<path d="M178.4902 130.7841
L178.6330 130.8555
" />
<path d="M178.6330 130.8555
L178.7045 130.9984
" />
<path d="M178.7045 130.9984
L178.7045 131.1412
" />
<path d="M178.7045 131.1412
L177.9902 131.2841
" />
<path d="M179.2044 130.7841
L179.5616 131.7841
" />
<path d="M179.5616 131.7841
L179.9187 130.7841
" />
<path d="M180.4902 131.6412
L180.5616 131.7127
" />
<path d="M180.5616 131.7127
L180.4902 131.7841
" />
<path d="M180.4902 131.7841
L180.4188 131.7127
" />
<path d="M180.4188 131.7127
L180.4902 131.6412
" />
<path d="M180.4902 131.6412
L180.4902 131.7841
" />
<path d="M180.4902 130.8555
L180.5616 130.9269
" />
<path d="M180.5616 130.9269
L180.4902 130.9984
" />
<path d="M180.4902 130.9984
L180.4188 130.9269
" />
<path d="M180.4188 130.9269
L180.4902 130.8555
" />
<path d="M180.4902 130.8555
L180.4902 130.9984
" />
</g></g>
<g style="fill:none; 
stroke:#840000; stroke-width:0.1524; stroke-opacity:1; 
stroke-linecap:round; stroke-linejoin:round;">
<text x="91.0072" y="131.8558"
textLength="9.3716" font-size="2.0000" lengthAdjust="spacingAndGlyphs"
text-anchor="start" opacity="0" stroke-opacity="0">Size: A5</text>
<g class="stroked-text"><desc>Size: A5</desc>
<path d="M91.3931 131.7203
L91.6074 131.7917
" />
<path d="M91.6074 131.7917
L91.9645 131.7917
" />
<path d="M91.9645 131.7917
L92.1074 131.7203
" />
<path d="M92.1074 131.7203
L92.1788 131.6488
" />
<path d="M92.1788 131.6488
L92.2502 131.5060
" />
<path d="M92.2502 131.5060
L92.2502 131.3631
" />
<path d="M92.2502 131.3631
L92.1788 131.2203
" />
<path d="M92.1788 131.2203
L92.1074 131.1488
" />
<path d="M92.1074 131.1488
L91.9645 131.0774
" />
<path d="M91.9645 131.0774
L91.6788 131.0060
" />
<path d="M91.6788 131.0060
L91.5359 130.9345
" />
<path d="M91.5359 130.9345
L91.4645 130.8631
" />
<path d="M91.4645 130.8631
L91.3931 130.7203
" />
<path d="M91.3931 130.7203
L91.3931 130.5774
" />
<path d="M91.3931 130.5774
L91.4645 130.4345
" />
<path d="M91.4645 130.4345
L91.5359 130.3631
" />
<path d="M91.5359 130.3631
L91.6788 130.2917
" />
<path d="M91.6788 130.2917
L92.0359 130.2917
" />
<path d="M92.0359 130.2917
L92.2502 130.3631
" />
<path d="M92.8931 131.7917
L92.8931 130.7917
" />
<path d="M92.8931 130.2917
L92.8217 130.3631
" />
<path d="M92.8217 130.3631
L92.8931 130.4345
" />
<path d="M92.8931 130.4345
L92.9645 130.3631
" />
<path d="M92.9645 130.3631
L92.8931 130.2917
" />
<path d="M92.8931 130.2917
L92.8931 130.4345
" />
<path d="M93.4645 130.7917
L94.2503 130.7917
" />
<path d="M94.2503 130.7917
L93.4645 131.7917
" />
<path d="M93.4645 131.7917
L94.2503 131.7917
" />
<path d="M95.3931 131.7203
L95.2503 131.7917
" />
<path d="M95.2503 131.7917
L94.9646 131.7917
" />
<path d="M94.9646 131.7917
L94.8217 131.7203
" />
<path d="M94.8217 131.7203
L94.7503 131.5774
" />
<path d="M94.7503 131.5774
L94.7503 131.0060
" />
<path d="M94.7503 131.0060
L94.8217 130.8631
" />
<path d="M94.8217 130.8631
L94.9646 130.7917
" />
<path d="M94.9646 130.7917
L95.2503 130.7917
" />
<path d="M95.2503 130.7917
L95.3931 130.8631
" />
<path d="M95.3931 130.8631
L95.4646 131.0060
" />
<path d="M95.4646 131.0060
L95.4646 131.1488
" />
<path d="M95.4646 131.1488
L94.7503 131.2917
" />
<path d="M96.1074 131.6488
L96.1788 131.7203
" />
<path d="M96.1788 131.7203
L96.1074 131.7917
" />
<path d="M96.1074 131.7917
L96.0360 131.7203
" />
<path d="M96.0360 131.7203
L96.1074 131.6488
" />
<path d="M96.1074 131.6488
L96.1074 131.7917
" />
<path d="M96.1074 130.8631
L96.1788 130.9345
" />
<path d="M96.1788 130.9345
L96.1074 131.0060
" />
<path d="M96.1074 131.0060
L96.0360 130.9345
" />
<path d="M96.0360 130.9345
L96.1074 130.8631
" />
<path d="M96.1074 130.8631
L96.1074 131.0060
" />
<path d="M97.8932 131.3631
L98.6075 131.3631
" />
<path d="M97.7503 131.7917
L98.2503 130.2917
" />
<path d="M98.2503 130.2917
L98.7503 131.7917
" />
<path d="M99.9646 130.2917
L99.2503 130.2917
" />
<path d="M99.2503 130.2917
L99.1789 131.0060
" />
<path d="M99.1789 131.0060
L99.2503 130.9345
" />
<path d="M99.2503 130.9345
L99.3932 130.8631
" />
<path d="M99.3932 130.8631
L99.7503 130.8631
" />
<path d="M99.7503 130.8631
L99.8932 130.9345
" />
<path d="M99.8932 130.9345
L99.9646 131.0060
" />
<path d="M99.9646 131.0060
L100.0360 131.1488
" />
<path d="M100.0360 131.1488
L100.0360 131.5060
" />
<path d="M100.0360 131.5060
L99.9646 131.6488
" />
<path d="M99.9646 131.6488
L99.8932 131.7203
" />
<path d="M99.8932 131.7203
L99.7503 131.7917
" />
<path d="M99.7503 131.7917
L99.3932 131.7917
" />
<path d="M99.3932 131.7917
L99.2503 131.7203
" />
<path d="M99.2503 131.7203
L99.1789 131.6488
" />
</g><text x="176.0072" y="134.6558"
textLength="8.5144" font-size="2.0000" lengthAdjust="spacingAndGlyphs"
text-anchor="start" opacity="0" stroke-opacity="0">Id: 1/1</text>
<g class="stroked-text"><desc>Id: 1/1</desc>
<path d="M176.4645 134.5917
L176.4645 133.0917
" />
<path d="M177.8217 134.5917
L177.8217 133.0917
" />
<path d="M177.8217 134.5203
L177.6788 134.5917
" />
<path d="M177.6788 134.5917
L177.3931 134.5917
" />
<path d="M177.3931 134.5917
L177.2502 134.5203
" />
<path d="M177.2502 134.5203
L177.1788 134.4488
" />
<path d="M177.1788 134.4488
L177.1074 134.3060
" />
<path d="M177.1074 134.3060
L177.1074 133.8774
" />
<path d="M177.1074 133.8774
L177.1788 133.7345
" />
<path d="M177.1788 133.7345
L177.2502 133.6631
" />
<path d="M177.2502 133.6631
L177.3931 133.5917
" />
<path d="M177.3931 133.5917
L177.6788 133.5917
" />
<path d="M177.6788 133.5917
L177.8217 133.6631
" />
<path d="M178.5359 134.4488
L178.6073 134.5203
" />
<path d="M178.6073 134.5203
L178.5359 134.5917
" />
<path d="M178.5359 134.5917
L178.4645 134.5203
" />
<path d="M178.4645 134.5203
L178.5359 134.4488
" />
<path d="M178.5359 134.4488
L178.5359 134.5917
" />
<path d="M178.5359 133.6631
L178.6073 133.7345
" />
<path d="M178.6073 133.7345
L178.5359 133.8060
" />
<path d="M178.5359 133.8060
L178.4645 133.7345
" />
<path d="M178.4645 133.7345
L178.5359 133.6631
" />
<path d="M178.5359 133.6631
L178.5359 133.8060
" />
<path d="M181.1788 134.5917
L180.3217 134.5917
" />
<path d="M180.7502 134.5917
L180.7502 133.0917
" />
<path d="M180.7502 133.0917
L180.6074 133.3060
" />
<path d="M180.6074 133.3060
L180.4645 133.4488
" />
<path d="M180.4645 133.4488
L180.3217 133.5203
" />
<path d="M182.8931 133.0203
L181.6074 134.9488
" />
<path d="M184.1788 134.5917
L183.3217 134.5917
" />
<path d="M183.7502 134.5917
L183.7502 133.0917
" />
<path d="M183.7502 133.0917
L183.6074 133.3060
" />
<path d="M183.6074 133.3060
L183.4645 133.4488
" />
<path d="M183.4645 133.4488
L183.3217 133.5203
" />
</g><path d="M90.0072 125.5058
L198.0072 125.5058
" />
</g>
<g style="fill:none; 
stroke:#840000; stroke-width:0.4000; stroke-opacity:1; 
stroke-linecap:round; stroke-linejoin:round;">
<text x="91.0072" y="128.3058"
textLength="9.6572" font-size="2.6666" lengthAdjust="spacingAndGlyphs"
text-anchor="start" opacity="0" stroke-opacity="0">Title: </text>
<g class="stroked-text"><desc>Title: </desc>
<path d="M91.6988 126.2102
L92.8417 126.2102
" />
<path d="M92.0203 128.2102
L92.2703 126.2102
" />
<path d="M93.2583 128.2102
L93.4250 126.8769
" />
<path d="M93.5083 126.2102
L93.4012 126.3054
" />
<path d="M93.4012 126.3054
L93.4845 126.4007
" />
<path d="M93.4845 126.4007
L93.5917 126.3054
" />
<path d="M93.5917 126.3054
L93.5083 126.2102
" />
<path d="M93.5083 126.2102
L93.4845 126.4007
" />
<path d="M94.0917 126.8769
L94.8536 126.8769
" />
<path d="M94.4607 126.2102
L94.2465 127.9245
" />
<path d="M94.2465 127.9245
L94.3179 128.1150
" />
<path d="M94.3179 128.1150
L94.4965 128.2102
" />
<path d="M94.4965 128.2102
L94.6869 128.2102
" />
<path d="M95.6394 128.2102
L95.4608 128.1150
" />
<path d="M95.4608 128.1150
L95.3894 127.9245
" />
<path d="M95.3894 127.9245
L95.6036 126.2102
" />
<path d="M97.1750 128.1150
L96.9727 128.2102
" />
<path d="M96.9727 128.2102
L96.5917 128.2102
" />
<path d="M96.5917 128.2102
L96.4131 128.1150
" />
<path d="M96.4131 128.1150
L96.3417 127.9245
" />
<path d="M96.3417 127.9245
L96.4370 127.1626
" />
<path d="M96.4370 127.1626
L96.5560 126.9721
" />
<path d="M96.5560 126.9721
L96.7584 126.8769
" />
<path d="M96.7584 126.8769
L97.1393 126.8769
" />
<path d="M97.1393 126.8769
L97.3179 126.9721
" />
<path d="M97.3179 126.9721
L97.3893 127.1626
" />
<path d="M97.3893 127.1626
L97.3655 127.3530
" />
<path d="M97.3655 127.3530
L96.3893 127.5435
" />
<path d="M98.1393 128.0197
L98.2227 128.1150
" />
<path d="M98.2227 128.1150
L98.1155 128.2102
" />
<path d="M98.1155 128.2102
L98.0322 128.1150
" />
<path d="M98.0322 128.1150
L98.1393 128.0197
" />
<path d="M98.1393 128.0197
L98.1155 128.2102
" />
<path d="M98.2703 126.9721
L98.3536 127.0673
" />
<path d="M98.3536 127.0673
L98.2465 127.1626
" />
<path d="M98.2465 127.1626
L98.1632 127.0673
" />
<path d="M98.1632 127.0673
L98.2703 126.9721
" />
<path d="M98.2703 126.9721
L98.2465 127.1626
" />
</g></g>
<g style="fill:none; 
stroke:#840000; stroke-width:0.1524; stroke-opacity:1; 
stroke-linecap:round; stroke-linejoin:round;">
<text x="91.0072" y="124.4558"
textLength="30.2999" font-size="2.0000" lengthAdjust="spacingAndGlyphs"
text-anchor="start" opacity="0" stroke-opacity="0">File: schematics.kicad_sch</text>
<g class="stroked-text"><desc>File: schematics.kicad_sch</desc>
<path d="M91.9645 123.6060
L91.4645 123.6060
" />
<path d="M91.4645 124.3917
L91.4645 122.8917
" />
<path d="M91.4645 122.8917
L92.1788 122.8917
" />
<path d="M92.7502 124.3917
L92.7502 123.3917
" />
<path d="M92.7502 122.8917
L92.6788 122.9631
" />
<path d="M92.6788 122.9631
L92.7502 123.0345
" />
<path d="M92.7502 123.0345
L92.8216 122.9631
" />
<path d="M92.8216 122.9631
L92.7502 122.8917
" />
<path d="M92.7502 122.8917
L92.7502 123.0345
" />
<path d="M93.6788 124.3917
L93.5359 124.3203
" />
<path d="M93.5359 124.3203
L93.4645 124.1774
" />
<path d="M93.4645 124.1774
L93.4645 122.8917
" />
<path d="M94.8216 124.3203
L94.6788 124.3917
" />
<path d="M94.6788 124.3917
L94.3931 124.3917
" />
<path d="M94.3931 124.3917
L94.2502 124.3203
" />
<path d="M94.2502 124.3203
L94.1788 124.1774
" />
<path d="M94.1788 124.1774
L94.1788 123.6060
" />
<path d="M94.1788 123.6060
L94.2502 123.4631
" />
<path d="M94.2502 123.4631
L94.3931 123.3917
" />
<path d="M94.3931 123.3917
L94.6788 123.3917
" />
<path d="M94.6788 123.3917
L94.8216 123.4631
" />
<path d="M94.8216 123.4631
L94.8931 123.6060
" />
<path d="M94.8931 123.6060
L94.8931 123.7488
" />
<path d="M94.8931 123.7488
L94.1788 123.8917
" />
<path d="M95.5359 124.2488
L95.6073 124.3203
" />
<path d="M95.6073 124.3203
L95.5359 124.3917
" />
<path d="M95.5359 124.3917
L95.4645 124.3203
" />
<path d="M95.4645 124.3203
L95.5359 124.2488
" />
<path d="M95.5359 124.2488
L95.5359 124.3917
" />
<path d="M95.5359 123.4631
L95.6073 123.5345
" />
<path d="M95.6073 123.5345
L95.5359 123.6060
" />
<path d="M95.5359 123.6060
L95.4645 123.5345
" />
<path d="M95.4645 123.5345
L95.5359 123.4631
" />
<path d="M95.5359 123.4631
L95.5359 123.6060
" />
<path d="M97.3217 124.3203
L97.4645 124.3917
" />
<path d="M97.4645 124.3917
L97.7502 124.3917
" />
<path d="M97.7502 124.3917
L97.8931 124.3203
" />
<path d="M97.8931 124.3203
L97.9645 124.1774
" />
<path d="M97.9645 124.1774
L97.9645 124.1060
" />
<path d="M97.9645 124.1060
L97.8931 123.9631
" />
<path d="M97.8931 123.9631
L97.7502 123.8917
" />
<path d="M97.7502 123.8917
L97.5360 123.8917
" />
<path d="M97.5360 123.8917
L97.3931 123.8203
" />
<path d="M97.3931 123.8203
L97.3217 123.6774
" />
<path d="M97.3217 123.6774
L97.3217 123.6060
" />
<path d="M97.3217 123.6060
L97.3931 123.4631
" />
<path d="M97.3931 123.4631
L97.5360 123.3917
" />
<path d="M97.5360 123.3917
L97.7502 123.3917
" />
<path d="M97.7502 123.3917
L97.8931 123.4631
" />
<path d="M99.2503 124.3203
L99.1074 124.3917
" />
<path d="M99.1074 124.3917
L98.8217 124.3917
" />
<path d="M98.8217 124.3917
L98.6788 124.3203
" />
<path d="M98.6788 124.3203
L98.6074 124.2488
" />
<path d="M98.6074 124.2488
L98.5360 124.1060
" />
<path d="M98.5360 124.1060
L98.5360 123.6774
" />
<path d="M98.5360 123.6774
L98.6074 123.5345
" />
<path d="M98.6074 123.5345
L98.6788 123.4631
" />
<path d="M98.6788 123.4631
L98.8217 123.3917
" />
<path d="M98.8217 123.3917
L99.1074 123.3917
" />
<path d="M99.1074 123.3917
L99.2503 123.4631
" />
<path d="M99.8931 124.3917
L99.8931 122.8917
" />
<path d="M100.5360 124.3917
L100.5360 123.6060
" />
<path d="M100.5360 123.6060
L100.4645 123.4631
" />
<path d="M100.4645 123.4631
L100.3217 123.3917
" />
<path d="M100.3217 123.3917
L100.1074 123.3917
" />
<path d="M100.1074 123.3917
L99.9645 123.4631
" />
<path d="M99.9645 123.4631
L99.8931 123.5345
" />
<path d="M101.8216 124.3203
L101.6788 124.3917
" />
<path d="M101.6788 124.3917
L101.3931 124.3917
" />
<path d="M101.3931 124.3917
L101.2502 124.3203
" />
<path d="M101.2502 124.3203
L101.1788 124.1774
" />
<path d="M101.1788 124.1774
L101.1788 123.6060
" />
<path d="M101.1788 123.6060
L101.2502 123.4631
" />
<path d="M101.2502 123.4631
L101.3931 123.3917
" />
<path d="M101.3931 123.3917
L101.6788 123.3917
" />
<path d="M101.6788 123.3917
L101.8216 123.4631
" />
<path d="M101.8216 123.4631
L101.8931 123.6060
" />
<path d="M101.8931 123.6060
L101.8931 123.7488
" />
<path d="M101.8931 123.7488
L101.1788 123.8917
" />
<path d="M102.5359 124.3917
L102.5359 123.3917
" />
<path d="M102.5359 123.5345
L102.6073 123.4631
" />
<path d="M102.6073 123.4631
L102.7502 123.3917
" />
<path d="M102.7502 123.3917
L102.9645 123.3917
" />
<path d="M102.9645 123.3917
L103.1073 123.4631
" />
<path d="M103.1073 123.4631
L103.1788 123.6060
" />
<path d="M103.1788 123.6060
L103.1788 124.3917
" />
<path d="M103.1788 123.6060
L103.2502 123.4631
" />
<path d="M103.2502 123.4631
L103.3930 123.3917
" />
<path d="M103.3930 123.3917
L103.6073 123.3917
" />
<path d="M103.6073 123.3917
L103.7502 123.4631
" />
<path d="M103.7502 123.4631
L103.8216 123.6060
" />
<path d="M103.8216 123.6060
L103.8216 124.3917
" />
<path d="M105.1788 124.3917
L105.1788 123.6060
" />
<path d="M105.1788 123.6060
L105.1073 123.4631
" />
<path d="M105.1073 123.4631
L104.9645 123.3917
" />
<path d="M104.9645 123.3917
L104.6788 123.3917
" />
<path d="M104.6788 123.3917
L104.5359 123.4631
" />
<path d="M105.1788 124.3203
L105.0359 124.3917
" />
<path d="M105.0359 124.3917
L104.6788 124.3917
" />
<path d="M104.6788 124.3917
L104.5359 124.3203
" />
<path d="M104.5359 124.3203
L104.4645 124.1774
" />
<path d="M104.4645 124.1774
L104.4645 124.0345
" />
<path d="M104.4645 124.0345
L104.5359 123.8917
" />
<path d="M104.5359 123.8917
L104.6788 123.8203
" />
<path d="M104.6788 123.8203
L105.0359 123.8203
" />
<path d="M105.0359 123.8203
L105.1788 123.7488
" />
<path d="M105.6787 123.3917
L106.2501 123.3917
" />
<path d="M105.8930 122.8917
L105.8930 124.1774
" />
<path d="M105.8930 124.1774
L105.9644 124.3203
" />
<path d="M105.9644 124.3203
L106.1073 124.3917
" />
<path d="M106.1073 124.3917
L106.2501 124.3917
" />
<path d="M106.7501 124.3917
L106.7501 123.3917
" />
<path d="M106.7501 122.8917
L106.6787 122.9631
" />
<path d="M106.6787 122.9631
L106.7501 123.0345
" />
<path d="M106.7501 123.0345
L106.8215 122.9631
" />
<path d="M106.8215 122.9631
L106.7501 122.8917
" />
<path d="M106.7501 122.8917
L106.7501 123.0345
" />
<path d="M108.1073 124.3203
L107.9644 124.3917
" />
<path d="M107.9644 124.3917
L107.6787 124.3917
" />
<path d="M107.6787 124.3917
L107.5358 124.3203
" />
<path d="M107.5358 124.3203
L107.4644 124.2488
" />
<path d="M107.4644 124.2488
L107.3930 124.1060
" />
<path d="M107.3930 124.1060
L107.3930 123.6774
" />
<path d="M107.3930 123.6774
L107.4644 123.5345
" />
<path d="M107.4644 123.5345
L107.5358 123.4631
" />
<path d="M107.5358 123.4631
L107.6787 123.3917
" />
<path d="M107.6787 123.3917
L107.9644 123.3917
" />
<path d="M107.9644 123.3917
L108.1073 123.4631
" />
<path d="M108.6787 124.3203
L108.8215 124.3917
" />
<path d="M108.8215 124.3917
L109.1072 124.3917
" />
<path d="M109.1072 124.3917
L109.2501 124.3203
" />
<path d="M109.2501 124.3203
L109.3215 124.1774
" />
<path d="M109.3215 124.1774
L109.3215 124.1060
" />
<path d="M109.3215 124.1060
L109.2501 123.9631
" />
<path d="M109.2501 123.9631
L109.1072 123.8917
" />
<path d="M109.1072 123.8917
L108.8930 123.8917
" />
<path d="M108.8930 123.8917
L108.7501 123.8203
" />
<path d="M108.7501 123.8203
L108.6787 123.6774
" />
<path d="M108.6787 123.6774
L108.6787 123.6060
" />
<path d="M108.6787 123.6060
L108.7501 123.4631
" />
<path d="M108.7501 123.4631
L108.8930 123.3917
" />
<path d="M108.8930 123.3917
L109.1072 123.3917
" />
<path d="M109.1072 123.3917
L109.2501 123.4631
" />
<path d="M109.9644 124.2488
L110.0358 124.3203
" />
<path d="M110.0358 124.3203
L109.9644 124.3917
" />
<path d="M109.9644 124.3917
L109.8930 124.3203
" />
<path d="M109.8930 124.3203
L109.9644 124.2488
" />
<path d="M109.9644 124.2488
L109.9644 124.3917
" />
<path d="M110.6787 124.3917
L110.6787 122.8917
" />
<path d="M110.8216 123.8203
L111.2501 124.3917
" />
<path d="M111.2501 123.3917
L110.6787 123.9631
" />
<path d="M111.8930 124.3917
L111.8930 123.3917
" />
<path d="M111.8930 122.8917
L111.8216 122.9631
" />
<path d="M111.8216 122.9631
L111.8930 123.0345
" />
<path d="M111.8930 123.0345
L111.9644 122.9631
" />
<path d="M111.9644 122.9631
L111.8930 122.8917
" />
<path d="M111.8930 122.8917
L111.8930 123.0345
" />
<path d="M113.2502 124.3203
L113.1073 124.3917
" />
<path d="M113.1073 124.3917
L112.8216 124.3917
" />
<path d="M112.8216 124.3917
L112.6787 124.3203
" />
<path d="M112.6787 124.3203
L112.6073 124.2488
" />
<path d="M112.6073 124.2488
L112.5359 124.1060
" />
<path d="M112.5359 124.1060
L112.5359 123.6774
" />
<path d="M112.5359 123.6774
L112.6073 123.5345
" />
<path d="M112.6073 123.5345
L112.6787 123.4631
" />
<path d="M112.6787 123.4631
L112.8216 123.3917
" />
<path d="M112.8216 123.3917
L113.1073 123.3917
" />
<path d="M113.1073 123.3917
L113.2502 123.4631
" />
<path d="M114.5359 124.3917
L114.5359 123.6060
" />
<path d="M114.5359 123.6060
L114.4644 123.4631
" />
<path d="M114.4644 123.4631
L114.3216 123.3917
" />
<path d="M114.3216 123.3917
L114.0359 123.3917
" />
<path d="M114.0359 123.3917
L113.8930 123.4631
" />
<path d="M114.5359 124.3203
L114.3930 124.3917
" />
<path d="M114.3930 124.3917
L114.0359 124.3917
" />
<path d="M114.0359 124.3917
L113.8930 124.3203
" />
<path d="M113.8930 124.3203
L113.8216 124.1774
" />
<path d="M113.8216 124.1774
L113.8216 124.0345
" />
<path d="M113.8216 124.0345
L113.8930 123.8917
" />
<path d="M113.8930 123.8917
L114.0359 123.8203
" />
<path d="M114.0359 123.8203
L114.3930 123.8203
" />
<path d="M114.3930 123.8203
L114.5359 123.7488
" />
<path d="M115.8930 124.3917
L115.8930 122.8917
" />
<path d="M115.8930 124.3203
L115.7501 124.3917
" />
<path d="M115.7501 124.3917
L115.4644 124.3917
" />
<path d="M115.4644 124.3917
L115.3215 124.3203
" />
<path d="M115.3215 124.3203
L115.2501 124.2488
" />
<path d="M115.2501 124.2488
L115.1787 124.1060
" />
<path d="M115.1787 124.1060
L115.1787 123.6774
" />
<path d="M115.1787 123.6774
L115.2501 123.5345
" />
<path d="M115.2501 123.5345
L115.3215 123.4631
" />
<path d="M115.3215 123.4631
L115.4644 123.3917
" />
<path d="M115.4644 123.3917
L115.7501 123.3917
" />
<path d="M115.7501 123.3917
L115.8930 123.4631
" />
<path d="M116.2501 124.5345
L117.3929 124.5345
" />
<path d="M117.6787 124.3203
L117.8215 124.3917
" />
<path d="M117.8215 124.3917
L118.1072 124.3917
" />
<path d="M118.1072 124.3917
L118.2501 124.3203
" />
<path d="M118.2501 124.3203
L118.3215 124.1774
" />
<path d="M118.3215 124.1774
L118.3215 124.1060
" />
<path d="M118.3215 124.1060
L118.2501 123.9631
" />
<path d="M118.2501 123.9631
L118.1072 123.8917
" />
<path d="M118.1072 123.8917
L117.8930 123.8917
" />
<path d="M117.8930 123.8917
L117.7501 123.8203
" />
<path d="M117.7501 123.8203
L117.6787 123.6774
" />
<path d="M117.6787 123.6774
L117.6787 123.6060
" />
<path d="M117.6787 123.6060
L117.7501 123.4631
" />
<path d="M117.7501 123.4631
L117.8930 123.3917
" />
<path d="M117.8930 123.3917
L118.1072 123.3917
" />
<path d="M118.1072 123.3917
L118.2501 123.4631
" />
<path d="M119.6073 124.3203
L119.4644 124.3917
" />
<path d="M119.4644 124.3917
L119.1787 124.3917
" />
<path d="M119.1787 124.3917
L119.0358 124.3203
" />
<path d="M119.0358 124.3203
L118.9644 124.2488
" />
<path d="M118.9644 124.2488
L118.8930 124.1060
" />
<path d="M118.8930 124.1060
L118.8930 123.6774
" />
<path d="M118.8930 123.6774
L118.9644 123.5345
" />
<path d="M118.9644 123.5345
L119.0358 123.4631
" />
<path d="M119.0358 123.4631
L119.1787 123.3917
" />
<path d="M119.1787 123.3917
L119.4644 123.3917
" />
<path d="M119.4644 123.3917
L119.6073 123.4631
" />
<path d="M120.2501 124.3917
L120.2501 122.8917
" />
<path d="M120.8930 124.3917
L120.8930 123.6060
" />
<path d="M120.8930 123.6060
L120.8215 123.4631
" />
<path d="M120.8215 123.4631
L120.6787 123.3917
" />
<path d="M120.6787 123.3917
L120.4644 123.3917
" />
<path d="M120.4644 123.3917
L120.3215 123.4631
" />
<path d="M120.3215 123.4631
L120.2501 123.5345
" />
</g><path d="M90.0072 119.5058
L198.0072 119.5058
" />
<text x="91.0072" y="121.7558"
textLength="9.8000" font-size="2.0000" lengthAdjust="spacingAndGlyphs"
text-anchor="start" opacity="0" stroke-opacity="0">Sheet: /</text>
<g class="stroked-text"><desc>Sheet: /</desc>
<path d="M91.3931 121.6203
L91.6074 121.6917
" />
<path d="M91.6074 121.6917
L91.9645 121.6917
" />
<path d="M91.9645 121.6917
L92.1074 121.6203
" />
<path d="M92.1074 121.6203
L92.1788 121.5488
" />
<path d="M92.1788 121.5488
L92.2502 121.4060
" />
<path d="M92.2502 121.4060
L92.2502 121.2631
" />
<path d="M92.2502 121.2631
L92.1788 121.1203
" />
<path d="M92.1788 121.1203
L92.1074 121.0488
" />
<path d="M92.1074 121.0488
L91.9645 120.9774
" />
<path d="M91.9645 120.9774
L91.6788 120.9060
" />
<path d="M91.6788 120.9060
L91.5359 120.8345
" />
<path d="M91.5359 120.8345
L91.4645 120.7631
" />
<path d="M91.4645 120.7631
L91.3931 120.6203
" />
<path d="M91.3931 120.6203
L91.3931 120.4774
" />
<path d="M91.3931 120.4774
L91.4645 120.3345
" />
<path d="M91.4645 120.3345
L91.5359 120.2631
" />
<path d="M91.5359 120.2631
L91.6788 120.1917
" />
<path d="M91.6788 120.1917
L92.0359 120.1917
" />
<path d="M92.0359 120.1917
L92.2502 120.2631
" />
<path d="M92.8931 121.6917
L92.8931 120.1917
" />
<path d="M93.5360 121.6917
L93.5360 120.9060
" />
<path d="M93.5360 120.9060
L93.4645 120.7631
" />
<path d="M93.4645 120.7631
L93.3217 120.6917
" />
<path d="M93.3217 120.6917
L93.1074 120.6917
" />
<path d="M93.1074 120.6917
L92.9645 120.7631
" />
<path d="M92.9645 120.7631
L92.8931 120.8345
" />
<path d="M94.8216 121.6203
L94.6788 121.6917
" />
<path d="M94.6788 121.6917
L94.3931 121.6917
" />
<path d="M94.3931 121.6917
L94.2502 121.6203
" />
<path d="M94.2502 121.6203
L94.1788 121.4774
" />
<path d="M94.1788 121.4774
L94.1788 120.9060
" />
<path d="M94.1788 120.9060
L94.2502 120.7631
" />
<path d="M94.2502 120.7631
L94.3931 120.6917
" />
<path d="M94.3931 120.6917
L94.6788 120.6917
" />
<path d="M94.6788 120.6917
L94.8216 120.7631
" />
<path d="M94.8216 120.7631
L94.8931 120.9060
" />
<path d="M94.8931 120.9060
L94.8931 121.0488
" />
<path d="M94.8931 121.0488
L94.1788 121.1917
" />
<path d="M96.1073 121.6203
L95.9645 121.6917
" />
<path d="M95.9645 121.6917
L95.6788 121.6917
" />
<path d="M95.6788 121.6917
L95.5359 121.6203
" />
<path d="M95.5359 121.6203
L95.4645 121.4774
" />
<path d="M95.4645 121.4774
L95.4645 120.9060
" />
<path d="M95.4645 120.9060
L95.5359 120.7631
" />
<path d="M95.5359 120.7631
L95.6788 120.6917
" />
<path d="M95.6788 120.6917
L95.9645 120.6917
" />
<path d="M95.9645 120.6917
L96.1073 120.7631
" />
<path d="M96.1073 120.7631
L96.1788 120.9060
" />
<path d="M96.1788 120.9060
L96.1788 121.0488
" />
<path d="M96.1788 121.0488
L95.4645 121.1917
" />
<path d="M96.6073 120.6917
L97.1787 120.6917
" />
<path d="M96.8216 120.1917
L96.8216 121.4774
" />
<path d="M96.8216 121.4774
L96.8930 121.6203
" />
<path d="M96.8930 121.6203
L97.0359 121.6917
" />
<path d="M97.0359 121.6917
L97.1787 121.6917
" />
<path d="M97.6787 121.5488
L97.7501 121.6203
" />
<path d="M97.7501 121.6203
L97.6787 121.6917
" />
<path d="M97.6787 121.6917
L97.6073 121.6203
" />
<path d="M97.6073 121.6203
L97.6787 121.5488
" />
<path d="M97.6787 121.5488
L97.6787 121.6917
" />
<path d="M97.6787 120.7631
L97.7501 120.8345
" />
<path d="M97.7501 120.8345
L97.6787 120.9060
" />
<path d="M97.6787 120.9060
L97.6073 120.8345
" />
<path d="M97.6073 120.8345
L97.6787 120.7631
" />
<path d="M97.6787 120.7631
L97.6787 120.9060
" />
<path d="M100.6073 120.1203
L99.3216 122.0488
" />
</g></g>
<g style="fill:none; 
stroke:#840000; stroke-width:0.3000; stroke-opacity:1; 
stroke-linecap:round; stroke-linejoin:round;">
<text x="91.0072" y="118.7558"
textLength="0.9000" font-size="2.0000" lengthAdjust="spacingAndGlyphs"
text-anchor="start" opacity="0" stroke-opacity="0"></text>
<g class="stroked-text"><desc></desc>
</g></g>
<g style="fill:none; 
stroke:#840000; stroke-width:0.1524; stroke-opacity:1; 
stroke-linecap:round; stroke-linejoin:round;">
<text x="91.0072" y="115.7558"
textLength="0.4572" font-size="2.0000" lengthAdjust="spacingAndGlyphs"
text-anchor="start" opacity="0" stroke-opacity="0"></text>
<g class="stroked-text"><desc></desc>
</g><text x="91.0072" y="112.7558"
textLength="0.4572" font-size="2.0000" lengthAdjust="spacingAndGlyphs"
text-anchor="start" opacity="0" stroke-opacity="0"></text>
<g class="stroked-text"><desc></desc>
</g><text x="91.0072" y="109.7558"
textLength="0.4572" font-size="2.0000" lengthAdjust="spacingAndGlyphs"
text-anchor="start" opacity="0" stroke-opacity="0"></text>
<g class="stroked-text"><desc></desc>
</g><text x="91.0072" y="106.7558"
textLength="0.4572" font-size="2.0000" lengthAdjust="spacingAndGlyphs"
text-anchor="start" opacity="0" stroke-opacity="0"></text>
<g class="stroked-text"><desc></desc>
</g><path d="M110.0072 129.5058
L110.0072 132.5058
" />
<path d="M174.0072 129.5058
L174.0072 136.0058
" />
<path style="fill:none; 
stroke:#840000; stroke-width:0.1524; stroke-opacity:1; 
stroke-linecap:round; stroke-linejoin:round;fill:none"
d="M 127.0000,53.3400
128.2700,53.3400
128.9050,52.3240
129.5400,53.3400
128.9050,54.3560
128.2700,53.3400
" /> 
</g>
<g style="fill:none; 
stroke:#840000; stroke-width:0.1524; stroke-opacity:1; 
stroke-linecap:round; stroke-linejoin:round;">
<path d="M127.0000 53.3400
L127.0000 53.3400
" />
</g>
<g style="fill:none; 
stroke:#006464; stroke-width:0.1524; stroke-opacity:1; 
stroke-linecap:round; stroke-linejoin:round;">
<text x="133.4612" y="53.9749"
textLength="5.2832" font-size="1.6933" lengthAdjust="spacingAndGlyphs"
text-anchor="middle" opacity="0" stroke-opacity="0">-10V</text>
<g class="stroked-text"><desc>-10V</desc>
<path d="M131.2235 53.4356
L132.1912 53.4356
" />
<path d="M133.4612 53.9194
L132.7355 53.9194
" />
<path d="M133.0983 53.9194
L133.0983 52.6494
" />
<path d="M133.0983 52.6494
L132.9774 52.8309
" />
<path d="M132.9774 52.8309
L132.8564 52.9518
" />
<path d="M132.8564 52.9518
L132.7355 53.0123
" />
<path d="M134.2473 52.6494
L134.3683 52.6494
" />
<path d="M134.3683 52.6494
L134.4892 52.7099
" />
<path d="M134.4892 52.7099
L134.5497 52.7704
" />
<path d="M134.5497 52.7704
L134.6102 52.8913
" />
<path d="M134.6102 52.8913
L134.6707 53.1332
" />
<path d="M134.6707 53.1332
L134.6707 53.4356
" />
<path d="M134.6707 53.4356
L134.6102 53.6775
" />
<path d="M134.6102 53.6775
L134.5497 53.7985
" />
<path d="M134.5497 53.7985
L134.4892 53.8590
" />
<path d="M134.4892 53.8590
L134.3683 53.9194
" />
<path d="M134.3683 53.9194
L134.2473 53.9194
" />
<path d="M134.2473 53.9194
L134.1264 53.8590
" />
<path d="M134.1264 53.8590
L134.0659 53.7985
" />
<path d="M134.0659 53.7985
L134.0054 53.6775
" />
<path d="M134.0054 53.6775
L133.9450 53.4356
" />
<path d="M133.9450 53.4356
L133.9450 53.1332
" />
<path d="M133.9450 53.1332
L134.0054 52.8913
" />
<path d="M134.0054 52.8913
L134.0659 52.7704
" />
<path d="M134.0659 52.7704
L134.1264 52.7099
" />
<path d="M134.1264 52.7099
L134.2473 52.6494
" />
<path d="M135.0335 52.6494
L135.4568 53.9194
" />
<path d="M135.4568 53.9194
L135.8802 52.6494
" />
</g></g>
<g style="fill:#FFFFC2; fill-opacity:1.0000; stroke:none;">
<rect x="130.810000" y="44.450000" width="2.540000" height="5.080000" rx="0.000000" />
</g>
<g style="fill:none; 
stroke:#840000; stroke-width:0.2540; stroke-opacity:1; 
stroke-linecap:round; stroke-linejoin:round;">
<rect x="130.810000" y="44.450000" width="2.540000" height="5.080000" rx="0.000000" />
<path style="fill:none; 
stroke:#840000; stroke-width:0.1524; stroke-opacity:1; 
stroke-linecap:round; stroke-linejoin:round;fill:none"
d="M 131.5466,45.3898
132.4102,46.2280
" /> 
<path style="fill:none; 
stroke:#840000; stroke-width:0.1524; stroke-opacity:1; 
stroke-linecap:round; stroke-linejoin:round;fill:none"
d="M 131.5466,47.9298
132.4102,48.7680
" /> 
<path style="fill:none; 
stroke:#840000; stroke-width:0.1524; stroke-opacity:1; 
stroke-linecap:round; stroke-linejoin:round;fill:none"
d="M 131.7244,45.2120
132.5880,46.0502
" /> 
<path style="fill:none; 
stroke:#840000; stroke-width:0.1524; stroke-opacity:1; 
stroke-linecap:round; stroke-linejoin:round;fill:none"
d="M 131.7244,47.7520
132.5880,48.5902
" /> 
</g>
<g style="fill:none; 
stroke:#840000; stroke-width:0.1524; stroke-opacity:1; 
stroke-linecap:round; stroke-linejoin:round;">
<circle cx="132.0800" cy="45.7200" r="0.6350" /> 
<circle cx="132.0800" cy="48.2600" r="0.6350" /> 
<path d="M130.8100 45.7200
L127.0000 45.7200
" />
</g>
<g style="fill:none; 
stroke:#A90000; stroke-width:0.1524; stroke-opacity:1; 
stroke-linecap:round; stroke-linejoin:round;">
<text x="128.9050" y="45.4660"
textLength="1.4127" font-size="1.6933" lengthAdjust="spacingAndGlyphs"
text-anchor="middle" opacity="0" stroke-opacity="0">1</text>
<g class="stroked-text"><desc>1</desc>
<path d="M129.2679 45.3025
L128.5422 45.3025
" />
<path d="M128.9050 45.3025
L128.9050 44.0325
" />
<path d="M128.9050 44.0325
L128.7841 44.2140
" />
<path d="M128.7841 44.2140
L128.6631 44.3349
" />
<path d="M128.6631 44.3349
L128.5422 44.3954
" />
</g></g>
<g style="fill:none; 
stroke:#840000; stroke-width:0.1524; stroke-opacity:1; 
stroke-linecap:round; stroke-linejoin:round;">
<path d="M130.8100 48.2600
L127.0000 48.2600
" />
</g>
<g style="fill:none; 
stroke:#A90000; stroke-width:0.1524; stroke-opacity:1; 
stroke-linecap:round; stroke-linejoin:round;">
<text x="128.9050" y="48.0060"
textLength="1.4127" font-size="1.6933" lengthAdjust="spacingAndGlyphs"
text-anchor="middle" opacity="0" stroke-opacity="0">2</text>
<g class="stroked-text"><desc>2</desc>
<path d="M128.5422 46.6935
L128.6026 46.6330
" />
<path d="M128.6026 46.6330
L128.7236 46.5725
" />
<path d="M128.7236 46.5725
L129.0260 46.5725
" />
<path d="M129.0260 46.5725
L129.1469 46.6330
" />
<path d="M129.1469 46.6330
L129.2074 46.6935
" />
<path d="M129.2074 46.6935
L129.2679 46.8144
" />
<path d="M129.2679 46.8144
L129.2679 46.9354
" />
<path d="M129.2679 46.9354
L129.2074 47.1168
" />
<path d="M129.2074 47.1168
L128.4817 47.8425
" />
<path d="M128.4817 47.8425
L129.2679 47.8425
" />
</g></g>
<g style="fill:none; 
stroke:#006464; stroke-width:0.1524; stroke-opacity:1; 
stroke-linecap:round; stroke-linejoin:round;">
<text x="135.8197" y="46.3549"
textLength="2.3803" font-size="1.6933" lengthAdjust="spacingAndGlyphs"
text-anchor="middle" opacity="0" stroke-opacity="0">J1</text>
<g class="stroked-text"><desc>J1</desc>
<path d="M135.3964 45.0294
L135.3964 45.9366
" />
<path d="M135.3964 45.9366
L135.3359 46.1180
" />
<path d="M135.3359 46.1180
L135.2150 46.2390
" />
<path d="M135.2150 46.2390
L135.0335 46.2994
" />
<path d="M135.0335 46.2994
L134.9126 46.2994
" />
<path d="M136.6664 46.2994
L135.9407 46.2994
" />
<path d="M136.3035 46.2994
L136.3035 45.0294
" />
<path d="M136.3035 45.0294
L136.1826 45.2109
" />
<path d="M136.1826 45.2109
L136.0616 45.3318
" />
<path d="M136.0616 45.3318
L135.9407 45.3923
" />
</g><text x="136.4850" y="48.8949"
textLength="3.7108" font-size="1.6933" lengthAdjust="spacingAndGlyphs"
text-anchor="middle" opacity="0" stroke-opacity="0">10V</text>
<g class="stroked-text"><desc>10V</desc>
<path d="M135.6988 48.8394
L134.9731 48.8394
" />
<path d="M135.3359 48.8394
L135.3359 47.5694
" />
<path d="M135.3359 47.5694
L135.2150 47.7509
" />
<path d="M135.2150 47.7509
L135.0940 47.8718
" />
<path d="M135.0940 47.8718
L134.9731 47.9323
" />
<path d="M136.4849 47.5694
L136.6059 47.5694
" />
<path d="M136.6059 47.5694
L136.7268 47.6299
" />
<path d="M136.7268 47.6299
L136.7873 47.6904
" />
<path d="M136.7873 47.6904
L136.8478 47.8113
" />
<path d="M136.8478 47.8113
L136.9083 48.0532
" />
<path d="M136.9083 48.0532
L136.9083 48.3556
" />
<path d="M136.9083 48.3556
L136.8478 48.5975
" />
<path d="M136.8478 48.5975
L136.7873 48.7185
" />
<path d="M136.7873 48.7185
L136.7268 48.7790
" />
<path d="M136.7268 48.7790
L136.6059 48.8394
" />
<path d="M136.6059 48.8394
L136.4849 48.8394
" />
<path d="M136.4849 48.8394
L136.3640 48.7790
" />
<path d="M136.3640 48.7790
L136.3035 48.7185
" />
<path d="M136.3035 48.7185
L136.2430 48.5975
" />
<path d="M136.2430 48.5975
L136.1826 48.3556
" />
<path d="M136.1826 48.3556
L136.1826 48.0532
" />
<path d="M136.1826 48.0532
L136.2430 47.8113
" />
<path d="M136.2430 47.8113
L136.3035 47.6904
" />
<path d="M136.3035 47.6904
L136.3640 47.6299
" />
<path d="M136.3640 47.6299
L136.4849 47.5694
" />
<path d="M137.2711 47.5694
L137.6944 48.8394
" />
<path d="M137.6944 48.8394
L138.1178 47.5694
" />
</g><path style="fill:none; 
stroke:#840000; stroke-width:0.5080; stroke-opacity:1; 
stroke-linecap:round; stroke-linejoin:round;fill:none"
d="M 74.1680,76.9620
74.1680,72.8980
" /> 
<path style="fill:none; 
stroke:#840000; stroke-width:0.5080; stroke-opacity:1; 
stroke-linecap:round; stroke-linejoin:round;fill:none"
d="M 75.6920,76.9620
75.6920,72.8980
" /> 
</g>
<g style="fill:none; 
stroke:#840000; stroke-width:0.1524; stroke-opacity:1; 
stroke-linecap:round; stroke-linejoin:round;">
<path d="M73.9140 74.9300
L71.1200 74.9300
" />
<path d="M75.9460 74.9300
L78.7400 74.9300
" />
</g>
<g style="fill:none; 
stroke:#006464; stroke-width:0.1524; stroke-opacity:1; 
stroke-linecap:round; stroke-linejoin:round;">
<text x="74.9299" y="67.9449"
textLength="2.6827" font-size="1.6933" lengthAdjust="spacingAndGlyphs"
text-anchor="middle" opacity="0" stroke-opacity="0">C1</text>
<g class="stroked-text"><desc>C1</desc>
<path d="M74.7182 67.7685
L74.6578 67.8290
" />
<path d="M74.6578 67.8290
L74.4763 67.8894
" />
<path d="M74.4763 67.8894
L74.3554 67.8894
" />
<path d="M74.3554 67.8894
L74.1740 67.8290
" />
<path d="M74.1740 67.8290
L74.0530 67.7080
" />
<path d="M74.0530 67.7080
L73.9925 67.5870
" />
<path d="M73.9925 67.5870
L73.9321 67.3451
" />
<path d="M73.9321 67.3451
L73.9321 67.1637
" />
<path d="M73.9321 67.1637
L73.9925 66.9218
" />
<path d="M73.9925 66.9218
L74.0530 66.8009
" />
<path d="M74.0530 66.8009
L74.1740 66.6799
" />
<path d="M74.1740 66.6799
L74.3554 66.6194
" />
<path d="M74.3554 66.6194
L74.4763 66.6194
" />
<path d="M74.4763 66.6194
L74.6578 66.6799
" />
<path d="M74.6578 66.6799
L74.7182 66.7404
" />
<path d="M75.9278 67.8894
L75.2021 67.8894
" />
<path d="M75.5649 67.8894
L75.5649 66.6194
" />
<path d="M75.5649 66.6194
L75.4440 66.8009
" />
<path d="M75.4440 66.8009
L75.3230 66.9218
" />
<path d="M75.3230 66.9218
L75.2021 66.9823
" />
</g><text x="74.9299" y="70.4849"
textLength="2.5617" font-size="1.6933" lengthAdjust="spacingAndGlyphs"
text-anchor="middle" opacity="0" stroke-opacity="0">1u</text>
<g class="stroked-text"><desc>1u</desc>
<path d="M74.7183 70.4294
L73.9926 70.4294
" />
<path d="M74.3554 70.4294
L74.3554 69.1594
" />
<path d="M74.3554 69.1594
L74.2345 69.3409
" />
<path d="M74.2345 69.3409
L74.1135 69.4618
" />
<path d="M74.1135 69.4618
L73.9926 69.5223
" />
<path d="M75.8068 69.5828
L75.8068 70.4294
" />
<path d="M75.2625 69.5828
L75.2625 70.2480
" />
<path d="M75.2625 70.2480
L75.3230 70.3690
" />
<path d="M75.3230 70.3690
L75.4440 70.4294
" />
<path d="M75.4440 70.4294
L75.6254 70.4294
" />
<path d="M75.6254 70.4294
L75.7463 70.3690
" />
<path d="M75.7463 70.3690
L75.8068 70.3085
" />
</g><path style="fill:none; 
stroke:#840000; stroke-width:0.1524; stroke-opacity:1; 
stroke-linecap:round; stroke-linejoin:round;fill:none"
d="M 125.7300,50.8000
124.4600,50.8000
124.4600,52.0700
123.1900,50.8000
124.4600,49.5300
124.4600,50.8000
" /> 
</g>
<g style="fill:none; 
stroke:#840000; stroke-width:0.1524; stroke-opacity:1; 
stroke-linecap:round; stroke-linejoin:round;">
<path d="M125.7300 50.8000
L125.7300 50.8000
" />
</g>
<g style="fill:none; 
stroke:#006464; stroke-width:0.1524; stroke-opacity:1; 
stroke-linecap:round; stroke-linejoin:round;">
<text x="122.1740" y="54.7370"
textLength="5.2832" font-size="1.6933" lengthAdjust="spacingAndGlyphs"
text-anchor="middle" opacity="0" stroke-opacity="0">-10V</text>
<g class="stroked-text"><desc>-10V</desc>
<path d="M119.9363 54.1977
L120.9040 54.1977
" />
<path d="M122.1740 54.6815
L121.4483 54.6815
" />
<path d="M121.8111 54.6815
L121.8111 53.4115
" />
<path d="M121.8111 53.4115
L121.6902 53.5930
" />
<path d="M121.6902 53.5930
L121.5692 53.7139
" />
<path d="M121.5692 53.7139
L121.4483 53.7744
" />
<path d="M122.9601 53.4115
L123.0811 53.4115
" />
<path d="M123.0811 53.4115
L123.2020 53.4720
" />
<path d="M123.2020 53.4720
L123.2625 53.5325
" />
<path d="M123.2625 53.5325
L123.3230 53.6534
" />
<path d="M123.3230 53.6534
L123.3835 53.8953
" />
<path d="M123.3835 53.8953
L123.3835 54.1977
" />
<path d="M123.3835 54.1977
L123.3230 54.4396
" />
<path d="M123.3230 54.4396
L123.2625 54.5606
" />
<path d="M123.2625 54.5606
L123.2020 54.6211
" />
<path d="M123.2020 54.6211
L123.0811 54.6815
" />
<path d="M123.0811 54.6815
L122.9601 54.6815
" />
<path d="M122.9601 54.6815
L122.8392 54.6211
" />
<path d="M122.8392 54.6211
L122.7787 54.5606
" />
<path d="M122.7787 54.5606
L122.7182 54.4396
" />
<path d="M122.7182 54.4396
L122.6578 54.1977
" />
<path d="M122.6578 54.1977
L122.6578 53.8953
" />
<path d="M122.6578 53.8953
L122.7182 53.6534
" />
<path d="M122.7182 53.6534
L122.7787 53.5325
" />
<path d="M122.7787 53.5325
L122.8392 53.4720
" />
<path d="M122.8392 53.4720
L122.9601 53.4115
" />
<path d="M123.7463 53.4115
L124.1696 54.6815
" />
<path d="M124.1696 54.6815
L124.5930 53.4115
" />
</g><path style="fill:#FFFFC2; fill-opacity:1.0000; stroke:none;fill-rule:evenodd;"
d="M 67.3100,40.6400
77.4700,45.7200
67.3100,50.8000
Z" /> 
<path style="fill:none; 
stroke:#840000; stroke-width:0.2540; stroke-opacity:1; 
stroke-linecap:round; stroke-linejoin:round;fill:none"
d="M 67.3100,40.6400
77.4700,45.7200
67.3100,50.8000
Z" /> 
</g>
<g style="fill:none; 
stroke:#840000; stroke-width:0.1524; stroke-opacity:1; 
stroke-linecap:round; stroke-linejoin:round;">
<path d="M67.3100 43.1800
L64.7700 43.1800
" />
</g>
<g style="fill:none; 
stroke:#006464; stroke-width:0.1524; stroke-opacity:1; 
stroke-linecap:round; stroke-linejoin:round;">
<text x="67.4370" y="43.8150"
textLength="1.7756" font-size="1.6933" lengthAdjust="spacingAndGlyphs"
text-anchor="start" opacity="0" stroke-opacity="0">+</text>
<g class="stroked-text"><desc>+</desc>
<path d="M67.8395 43.2757
L68.8072 43.2757
" />
<path d="M68.3233 43.7595
L68.3233 42.7919
" />
</g></g>
<g style="fill:none; 
stroke:#A90000; stroke-width:0.1524; stroke-opacity:1; 
stroke-linecap:round; stroke-linejoin:round;">
<text x="66.0400" y="42.9260"
textLength="1.4127" font-size="1.6933" lengthAdjust="spacingAndGlyphs"
text-anchor="middle" opacity="0" stroke-opacity="0">3</text>
<g class="stroked-text"><desc>3</desc>
<path d="M65.6167 41.4925
L66.4029 41.4925
" />
<path d="M66.4029 41.4925
L65.9795 41.9763
" />
<path d="M65.9795 41.9763
L66.1610 41.9763
" />
<path d="M66.1610 41.9763
L66.2819 42.0368
" />
<path d="M66.2819 42.0368
L66.3424 42.0973
" />
<path d="M66.3424 42.0973
L66.4029 42.2182
" />
<path d="M66.4029 42.2182
L66.4029 42.5206
" />
<path d="M66.4029 42.5206
L66.3424 42.6416
" />
<path d="M66.3424 42.6416
L66.2819 42.7021
" />
<path d="M66.2819 42.7021
L66.1610 42.7625
" />
<path d="M66.1610 42.7625
L65.7981 42.7625
" />
<path d="M65.7981 42.7625
L65.6772 42.7021
" />
<path d="M65.6772 42.7021
L65.6167 42.6416
" />
</g></g>
<g style="fill:none; 
stroke:#840000; stroke-width:0.1524; stroke-opacity:1; 
stroke-linecap:round; stroke-linejoin:round;">
<path d="M67.3100 48.2600
L64.7700 48.2600
" />
</g>
<g style="fill:none; 
stroke:#006464; stroke-width:0.1524; stroke-opacity:1; 
stroke-linecap:round; stroke-linejoin:round;">
<text x="67.4370" y="48.8950"
textLength="1.7756" font-size="1.6933" lengthAdjust="spacingAndGlyphs"
text-anchor="start" opacity="0" stroke-opacity="0">-</text>
<g class="stroked-text"><desc>-</desc>
<path d="M67.8395 48.3557
L68.8072 48.3557
" />
</g></g>
<g style="fill:none; 
stroke:#A90000; stroke-width:0.1524; stroke-opacity:1; 
stroke-linecap:round; stroke-linejoin:round;">
<text x="66.0400" y="48.0060"
textLength="1.4127" font-size="1.6933" lengthAdjust="spacingAndGlyphs"
text-anchor="middle" opacity="0" stroke-opacity="0">2</text>
<g class="stroked-text"><desc>2</desc>
<path d="M65.6772 46.6935
L65.7376 46.6330
" />
<path d="M65.7376 46.6330
L65.8586 46.5725
" />
<path d="M65.8586 46.5725
L66.1610 46.5725
" />
<path d="M66.1610 46.5725
L66.2819 46.6330
" />
<path d="M66.2819 46.6330
L66.3424 46.6935
" />
<path d="M66.3424 46.6935
L66.4029 46.8144
" />
<path d="M66.4029 46.8144
L66.4029 46.9354
" />
<path d="M66.4029 46.9354
L66.3424 47.1168
" />
<path d="M66.3424 47.1168
L65.6167 47.8425
" />
<path d="M65.6167 47.8425
L66.4029 47.8425
" />
</g></g>
<g style="fill:none; 
stroke:#840000; stroke-width:0.1524; stroke-opacity:1; 
stroke-linecap:round; stroke-linejoin:round;">
<path d="M69.8500 41.9100
L69.8500 38.1000
" />
</g>
<g style="fill:none; 
stroke:#006464; stroke-width:0.1524; stroke-opacity:1; 
stroke-linecap:round; stroke-linejoin:round;">
<g transform="rotate(-90.000000 69.8500 42.0370)">
<text x="69.8500" y="42.6720"
textLength="2.8642" font-size="1.6933" lengthAdjust="spacingAndGlyphs"
text-anchor="end" opacity="0" stroke-opacity="0">V+</text>
</g>
<g class="stroked-text"><desc>V+</desc>
<path d="M69.1595 44.6772
L70.4295 44.2539
" />
<path d="M70.4295 44.2539
L69.1595 43.8305
" />
<path d="M69.9457 43.4072
L69.9457 42.4396
" />
<path d="M70.4295 42.9234
L69.4619 42.9234
" />
</g></g>
<g style="fill:none; 
stroke:#A90000; stroke-width:0.1524; stroke-opacity:1; 
stroke-linecap:round; stroke-linejoin:round;">
<g transform="rotate(-90.000000 69.5960 40.0050)">
<text x="69.5960" y="40.0050"
textLength="1.4127" font-size="1.6933" lengthAdjust="spacingAndGlyphs"
text-anchor="middle" opacity="0" stroke-opacity="0">7</text>
</g>
<g class="stroked-text"><desc>7</desc>
<path d="M68.1625 40.4282
L68.1625 39.5816
" />
<path d="M68.1625 39.5816
L69.4325 40.1258
" />
</g></g>
<g style="fill:none; 
stroke:#840000; stroke-width:0.1524; stroke-opacity:1; 
stroke-linecap:round; stroke-linejoin:round;">
<path d="M69.8500 49.5300
L69.8500 53.3400
" />
</g>
<g style="fill:none; 
stroke:#006464; stroke-width:0.1524; stroke-opacity:1; 
stroke-linecap:round; stroke-linejoin:round;">
<g transform="rotate(-90.000000 69.8500 49.4030)">
<text x="69.8500" y="50.0380"
textLength="2.8642" font-size="1.6933" lengthAdjust="spacingAndGlyphs"
text-anchor="start" opacity="0" stroke-opacity="0">V-</text>
</g>
<g class="stroked-text"><desc>V-</desc>
<path d="M69.1595 49.1818
L70.4295 48.7585
" />
<path d="M70.4295 48.7585
L69.1595 48.3351
" />
<path d="M69.9457 47.9118
L69.9457 46.9442
" />
</g></g>
<g style="fill:none; 
stroke:#A90000; stroke-width:0.1524; stroke-opacity:1; 
stroke-linecap:round; stroke-linejoin:round;">
<g transform="rotate(-90.000000 69.5960 51.4350)">
<text x="69.5960" y="51.4350"
textLength="1.4127" font-size="1.6933" lengthAdjust="spacingAndGlyphs"
text-anchor="middle" opacity="0" stroke-opacity="0">4</text>
</g>
<g class="stroked-text"><desc>4</desc>
<path d="M68.5859 51.1930
L69.4325 51.1930
" />
<path d="M68.1021 51.4954
L69.0092 51.7977
" />
<path d="M69.0092 51.7977
L69.0092 51.0116
" />
</g></g>
<g style="fill:none; 
stroke:#840000; stroke-width:0.1524; stroke-opacity:1; 
stroke-linecap:round; stroke-linejoin:round;">
<path d="M72.3900 48.2600
L72.3900 53.3400
" />
</g>
<g style="fill:none; 
stroke:#006464; stroke-width:0.1524; stroke-opacity:1; 
stroke-linecap:round; stroke-linejoin:round;">
<g transform="rotate(-90.000000 72.3900 48.1330)">
<text x="72.3900" y="48.3870"
textLength="2.2424" font-size="0.6773" lengthAdjust="spacingAndGlyphs"
text-anchor="start" opacity="0" stroke-opacity="0">NULL</text>
</g>
<g class="stroked-text"><desc>NULL</desc>
<path d="M72.6170 47.9118
L72.1090 47.9118
" />
<path d="M72.1090 47.9118
L72.6170 47.6215
" />
<path d="M72.6170 47.6215
L72.1090 47.6215
" />
<path d="M72.1090 47.3796
L72.5203 47.3796
" />
<path d="M72.5203 47.3796
L72.5687 47.3554
" />
<path d="M72.5687 47.3554
L72.5929 47.3312
" />
<path d="M72.5929 47.3312
L72.6170 47.2828
" />
<path d="M72.6170 47.2828
L72.6170 47.1861
" />
<path d="M72.6170 47.1861
L72.5929 47.1377
" />
<path d="M72.5929 47.1377
L72.5687 47.1135
" />
<path d="M72.5687 47.1135
L72.5203 47.0893
" />
<path d="M72.5203 47.0893
L72.1090 47.0893
" />
<path d="M72.6170 46.6055
L72.6170 46.8474
" />
<path d="M72.6170 46.8474
L72.1090 46.8474
" />
<path d="M72.6170 46.1943
L72.6170 46.4362
" />
<path d="M72.6170 46.4362
L72.1090 46.4362
" />
</g></g>
<g style="fill:none; 
stroke:#A90000; stroke-width:0.1524; stroke-opacity:1; 
stroke-linecap:round; stroke-linejoin:round;">
<g transform="rotate(-90.000000 72.1360 50.8000)">
<text x="72.1360" y="50.8000"
textLength="1.4127" font-size="1.6933" lengthAdjust="spacingAndGlyphs"
text-anchor="middle" opacity="0" stroke-opacity="0">1</text>
</g>
<g class="stroked-text"><desc>1</desc>
<path d="M71.9725 50.4370
L71.9725 51.1627
" />
<path d="M71.9725 50.7999
L70.7025 50.7999
" />
<path d="M70.7025 50.7999
L70.8840 50.9208
" />
<path d="M70.8840 50.9208
L71.0049 51.0418
" />
<path d="M71.0049 51.0418
L71.0654 51.1627
" />
</g></g>
<g style="fill:none; 
stroke:#840000; stroke-width:0.1524; stroke-opacity:1; 
stroke-linecap:round; stroke-linejoin:round;">
<path d="M74.9300 46.9900
L74.9300 53.3400
" />
</g>
<g style="fill:none; 
stroke:#006464; stroke-width:0.1524; stroke-opacity:1; 
stroke-linecap:round; stroke-linejoin:round;">
<g transform="rotate(-90.000000 74.9300 46.8630)">
<text x="74.9300" y="47.1170"
textLength="2.2424" font-size="0.6773" lengthAdjust="spacingAndGlyphs"
text-anchor="start" opacity="0" stroke-opacity="0">NULL</text>
</g>
<g class="stroked-text"><desc>NULL</desc>
<path d="M75.1570 46.6418
L74.6490 46.6418
" />
<path d="M74.6490 46.6418
L75.1570 46.3515
" />
<path d="M75.1570 46.3515
L74.6490 46.3515
" />
<path d="M74.6490 46.1096
L75.0603 46.1096
" />
<path d="M75.0603 46.1096
L75.1087 46.0854
" />
<path d="M75.1087 46.0854
L75.1329 46.0612
" />
<path d="M75.1329 46.0612
L75.1570 46.0128
" />
<path d="M75.1570 46.0128
L75.1570 45.9161
" />
<path d="M75.1570 45.9161
L75.1329 45.8677
" />
<path d="M75.1329 45.8677
L75.1087 45.8435
" />
<path d="M75.1087 45.8435
L75.0603 45.8193
" />
<path d="M75.0603 45.8193
L74.6490 45.8193
" />
<path d="M75.1570 45.3355
L75.1570 45.5774
" />
<path d="M75.1570 45.5774
L74.6490 45.5774
" />
<path d="M75.1570 44.9243
L75.1570 45.1662
" />
<path d="M75.1570 45.1662
L74.6490 45.1662
" />
</g></g>
<g style="fill:none; 
stroke:#A90000; stroke-width:0.1524; stroke-opacity:1; 
stroke-linecap:round; stroke-linejoin:round;">
<g transform="rotate(-90.000000 74.6760 50.1650)">
<text x="74.6760" y="50.1650"
textLength="1.4127" font-size="1.6933" lengthAdjust="spacingAndGlyphs"
text-anchor="middle" opacity="0" stroke-opacity="0">5</text>
</g>
<g class="stroked-text"><desc>5</desc>
<path d="M73.2425 49.8625
L73.2425 50.4673
" />
<path d="M73.2425 50.4673
L73.8473 50.5277
" />
<path d="M73.8473 50.5277
L73.7868 50.4673
" />
<path d="M73.7868 50.4673
L73.7263 50.3463
" />
<path d="M73.7263 50.3463
L73.7263 50.0439
" />
<path d="M73.7263 50.0439
L73.7868 49.9230
" />
<path d="M73.7868 49.9230
L73.8473 49.8625
" />
<path d="M73.8473 49.8625
L73.9682 49.8020
" />
<path d="M73.9682 49.8020
L74.2706 49.8020
" />
<path d="M74.2706 49.8020
L74.3916 49.8625
" />
<path d="M74.3916 49.8625
L74.4521 49.9230
" />
<path d="M74.4521 49.9230
L74.5125 50.0439
" />
<path d="M74.5125 50.0439
L74.5125 50.3463
" />
<path d="M74.5125 50.3463
L74.4521 50.4673
" />
<path d="M74.4521 50.4673
L74.3916 50.5277
" />
</g></g>
<g style="fill:none; 
stroke:#840000; stroke-width:0.1524; stroke-opacity:1; 
stroke-linecap:round; stroke-linejoin:round;">
<path d="M77.4700 45.7200
L80.0100 45.7200
" />
</g>
<g style="fill:none; 
stroke:#A90000; stroke-width:0.1524; stroke-opacity:1; 
stroke-linecap:round; stroke-linejoin:round;">
<text x="78.7400" y="45.4660"
textLength="1.4127" font-size="1.6933" lengthAdjust="spacingAndGlyphs"
text-anchor="middle" opacity="0" stroke-opacity="0">6</text>
<g class="stroked-text"><desc>6</desc>
<path d="M78.9819 44.0325
L78.7400 44.0325
" />
<path d="M78.7400 44.0325
L78.6191 44.0930
" />
<path d="M78.6191 44.0930
L78.5586 44.1535
" />
<path d="M78.5586 44.1535
L78.4376 44.3349
" />
<path d="M78.4376 44.3349
L78.3772 44.5768
" />
<path d="M78.3772 44.5768
L78.3772 45.0606
" />
<path d="M78.3772 45.0606
L78.4376 45.1816
" />
<path d="M78.4376 45.1816
L78.4981 45.2421
" />
<path d="M78.4981 45.2421
L78.6191 45.3025
" />
<path d="M78.6191 45.3025
L78.8610 45.3025
" />
<path d="M78.8610 45.3025
L78.9819 45.2421
" />
<path d="M78.9819 45.2421
L79.0424 45.1816
" />
<path d="M79.0424 45.1816
L79.1029 45.0606
" />
<path d="M79.1029 45.0606
L79.1029 44.7582
" />
<path d="M79.1029 44.7582
L79.0424 44.6373
" />
<path d="M79.0424 44.6373
L78.9819 44.5768
" />
<path d="M78.9819 44.5768
L78.8610 44.5163
" />
<path d="M78.8610 44.5163
L78.6191 44.5163
" />
<path d="M78.6191 44.5163
L78.4981 44.5768
" />
<path d="M78.4981 44.5768
L78.4376 44.6373
" />
<path d="M78.4376 44.6373
L78.3772 44.7582
" />
</g></g>
<g style="fill:none; 
stroke:#006464; stroke-width:0.1524; stroke-opacity:1; 
stroke-linecap:round; stroke-linejoin:round;">
<text x="82.5500" y="39.9348"
textLength="2.7432" font-size="1.6933" lengthAdjust="spacingAndGlyphs"
text-anchor="middle" opacity="0" stroke-opacity="0">U1</text>
<g class="stroked-text"><desc>U1</desc>
<path d="M81.5823 38.6093
L81.5823 39.6374
" />
<path d="M81.5823 39.6374
L81.6428 39.7584
" />
<path d="M81.6428 39.7584
L81.7033 39.8189
" />
<path d="M81.7033 39.8189
L81.8242 39.8793
" />
<path d="M81.8242 39.8793
L82.0661 39.8793
" />
<path d="M82.0661 39.8793
L82.1871 39.8189
" />
<path d="M82.1871 39.8189
L82.2476 39.7584
" />
<path d="M82.2476 39.7584
L82.3080 39.6374
" />
<path d="M82.3080 39.6374
L82.3080 38.6093
" />
<path d="M83.5781 39.8793
L82.8524 39.8793
" />
<path d="M83.2152 39.8793
L83.2152 38.6093
" />
<path d="M83.2152 38.6093
L83.0943 38.7908
" />
<path d="M83.0943 38.7908
L82.9733 38.9117
" />
<path d="M82.9733 38.9117
L82.8524 38.9722
" />
</g><text x="82.5500" y="42.4748"
textLength="6.3112" font-size="1.6933" lengthAdjust="spacingAndGlyphs"
text-anchor="middle" opacity="0" stroke-opacity="0">LM741</text>
<g class="stroked-text"><desc>LM741</desc>
<path d="M80.4031 42.4193
L79.7983 42.4193
" />
<path d="M79.7983 42.4193
L79.7983 41.1493
" />
<path d="M80.8264 42.4193
L80.8264 41.1493
" />
<path d="M80.8264 41.1493
L81.2498 42.0565
" />
<path d="M81.2498 42.0565
L81.6731 41.1493
" />
<path d="M81.6731 41.1493
L81.6731 42.4193
" />
<path d="M82.1569 41.1493
L83.0035 41.1493
" />
<path d="M83.0035 41.1493
L82.4593 42.4193
" />
<path d="M84.0316 41.5727
L84.0316 42.4193
" />
<path d="M83.7292 41.0889
L83.4269 41.9960
" />
<path d="M83.4269 41.9960
L84.2130 41.9960
" />
<path d="M85.3621 42.4193
L84.6364 42.4193
" />
<path d="M84.9992 42.4193
L84.9992 41.1493
" />
<path d="M84.9992 41.1493
L84.8783 41.3308
" />
<path d="M84.8783 41.3308
L84.7573 41.4517
" />
<path d="M84.7573 41.4517
L84.6364 41.5122
" />
</g><path style="fill:none; 
stroke:#840000; stroke-width:0.1524; stroke-opacity:1; 
stroke-linecap:round; stroke-linejoin:round;fill:none"
d="M 124.4600,43.1800
123.1900,43.1800
122.5550,44.1960
121.9200,43.1800
122.5550,42.1640
123.1900,43.1800
" /> 
</g>
<g style="fill:none; 
stroke:#840000; stroke-width:0.1524; stroke-opacity:1; 
stroke-linecap:round; stroke-linejoin:round;">
<path d="M124.4600 43.1800
L124.4600 43.1800
" />
</g>
<g style="fill:none; 
stroke:#006464; stroke-width:0.1524; stroke-opacity:1; 
stroke-linecap:round; stroke-linejoin:round;">
<text x="123.1900" y="40.0049"
textLength="3.7108" font-size="1.6933" lengthAdjust="spacingAndGlyphs"
text-anchor="middle" opacity="0" stroke-opacity="0">10V</text>
<g class="stroked-text"><desc>10V</desc>
<path d="M122.4038 39.9494
L121.6781 39.9494
" />
<path d="M122.0409 39.9494
L122.0409 38.6794
" />
<path d="M122.0409 38.6794
L121.9200 38.8609
" />
<path d="M121.9200 38.8609
L121.7990 38.9818
" />
<path d="M121.7990 38.9818
L121.6781 39.0423
" />
<path d="M123.1899 38.6794
L123.3109 38.6794
" />
<path d="M123.3109 38.6794
L123.4318 38.7399
" />
<path d="M123.4318 38.7399
L123.4923 38.8004
" />
<path d="M123.4923 38.8004
L123.5528 38.9213
" />
<path d="M123.5528 38.9213
L123.6133 39.1632
" />
<path d="M123.6133 39.1632
L123.6133 39.4656
" />
<path d="M123.6133 39.4656
L123.5528 39.7075
" />
<path d="M123.5528 39.7075
L123.4923 39.8285
" />
<path d="M123.4923 39.8285
L123.4318 39.8890
" />
<path d="M123.4318 39.8890
L123.3109 39.9494
" />
<path d="M123.3109 39.9494
L123.1899 39.9494
" />
<path d="M123.1899 39.9494
L123.0690 39.8890
" />
<path d="M123.0690 39.8890
L123.0085 39.8285
" />
<path d="M123.0085 39.8285
L122.9480 39.7075
" />
<path d="M122.9480 39.7075
L122.8876 39.4656
" />
<path d="M122.8876 39.4656
L122.8876 39.1632
" />
<path d="M122.8876 39.1632
L122.9480 38.9213
" />
<path d="M122.9480 38.9213
L123.0085 38.8004
" />
<path d="M123.0085 38.8004
L123.0690 38.7399
" />
<path d="M123.0690 38.7399
L123.1899 38.6794
" />
<path d="M123.9761 38.6794
L124.3994 39.9494
" />
<path d="M124.3994 39.9494
L124.8228 38.6794
" />
</g></g>
<g style="fill:none; 
stroke:#840000; stroke-width:0.2540; stroke-opacity:1; 
stroke-linecap:round; stroke-linejoin:round;">
<rect x="43.180000" y="47.244000" width="5.080000" height="2.032000" rx="0.000000" />
</g>
<g style="fill:none; 
stroke:#840000; stroke-width:0.1524; stroke-opacity:1; 
stroke-linecap:round; stroke-linejoin:round;">
<path d="M43.1800 48.2600
L41.9100 48.2600
" />
<path d="M48.2600 48.2600
L49.5300 48.2600
" />
</g>
<g style="fill:none; 
stroke:#006464; stroke-width:0.1524; stroke-opacity:1; 
stroke-linecap:round; stroke-linejoin:round;">
<text x="45.7199" y="42.5449"
textLength="2.6827" font-size="1.6933" lengthAdjust="spacingAndGlyphs"
text-anchor="middle" opacity="0" stroke-opacity="0">R1</text>
<g class="stroked-text"><desc>R1</desc>
<path d="M45.5082 42.4894
L45.0849 41.8847
" />
<path d="M44.7825 42.4894
L44.7825 41.2194
" />
<path d="M44.7825 41.2194
L45.2663 41.2194
" />
<path d="M45.2663 41.2194
L45.3873 41.2799
" />
<path d="M45.3873 41.2799
L45.4478 41.3404
" />
<path d="M45.4478 41.3404
L45.5082 41.4613
" />
<path d="M45.5082 41.4613
L45.5082 41.6428
" />
<path d="M45.5082 41.6428
L45.4478 41.7637
" />
<path d="M45.4478 41.7637
L45.3873 41.8242
" />
<path d="M45.3873 41.8242
L45.2663 41.8847
" />
<path d="M45.2663 41.8847
L44.7825 41.8847
" />
<path d="M46.7178 42.4894
L45.9921 42.4894
" />
<path d="M46.3549 42.4894
L46.3549 41.2194
" />
<path d="M46.3549 41.2194
L46.2340 41.4009
" />
<path d="M46.2340 41.4009
L46.1130 41.5218
" />
<path d="M46.1130 41.5218
L45.9921 41.5823
" />
</g><text x="45.7200" y="45.0849"
textLength="2.4408" font-size="1.6933" lengthAdjust="spacingAndGlyphs"
text-anchor="middle" opacity="0" stroke-opacity="0">1k</text>
<g class="stroked-text"><desc>1k</desc>
<path d="M45.5688 45.0294
L44.8431 45.0294
" />
<path d="M45.2059 45.0294
L45.2059 43.7594
" />
<path d="M45.2059 43.7594
L45.0850 43.9409
" />
<path d="M45.0850 43.9409
L44.9640 44.0618
" />
<path d="M44.9640 44.0618
L44.8431 44.1223
" />
<path d="M46.1130 45.0294
L46.1130 43.7594
" />
<path d="M46.2340 44.5456
L46.5968 45.0294
" />
<path d="M46.5968 44.1828
L46.1130 44.6666
" />
</g></g>
<g style="fill:none; 
stroke:#840000; stroke-width:0.1524; stroke-opacity:1; 
stroke-linecap:round; stroke-linejoin:round;">
<g transform="rotate(-90.000000 69.9408 58.5788)">
<text x="69.9408" y="59.2138"
textLength="5.2832" font-size="1.6933" lengthAdjust="spacingAndGlyphs"
text-anchor="end" opacity="0" stroke-opacity="0">-10V</text>
</g>
<g class="stroked-text"><desc>-10V</desc>
<path d="M70.0365 63.4566
L70.0365 62.4890
" />
<path d="M70.5203 61.2189
L70.5203 61.9446
" />
<path d="M70.5203 61.5818
L69.2503 61.5818
" />
<path d="M69.2503 61.5818
L69.4318 61.7027
" />
<path d="M69.4318 61.7027
L69.5527 61.8237
" />
<path d="M69.5527 61.8237
L69.6132 61.9446
" />
<path d="M69.2503 60.4328
L69.2503 60.3118
" />
<path d="M69.2503 60.3118
L69.3108 60.1909
" />
<path d="M69.3108 60.1909
L69.3713 60.1304
" />
<path d="M69.3713 60.1304
L69.4922 60.0699
" />
<path d="M69.4922 60.0699
L69.7341 60.0094
" />
<path d="M69.7341 60.0094
L70.0365 60.0094
" />
<path d="M70.0365 60.0094
L70.2784 60.0699
" />
<path d="M70.2784 60.0699
L70.3994 60.1304
" />
<path d="M70.3994 60.1304
L70.4599 60.1909
" />
<path d="M70.4599 60.1909
L70.5203 60.3118
" />
<path d="M70.5203 60.3118
L70.5203 60.4328
" />
<path d="M70.5203 60.4328
L70.4599 60.5537
" />
<path d="M70.4599 60.5537
L70.3994 60.6142
" />
<path d="M70.3994 60.6142
L70.2784 60.6747
" />
<path d="M70.2784 60.6747
L70.0365 60.7351
" />
<path d="M70.0365 60.7351
L69.7341 60.7351
" />
<path d="M69.7341 60.7351
L69.4922 60.6747
" />
<path d="M69.4922 60.6747
L69.3713 60.6142
" />
<path d="M69.3713 60.6142
L69.3108 60.5537
" />
<path d="M69.3108 60.5537
L69.2503 60.4328
" />
<path d="M69.2503 59.6466
L70.5203 59.2233
" />
<path d="M70.5203 59.2233
L69.2503 58.7999
" />
</g><path style="fill:none; 
stroke:#840000; stroke-width:0.1524; stroke-opacity:1; 
stroke-linecap:round; stroke-linejoin:round;fill:none"
d="M 69.8500,57.1500
68.5796,58.2613
68.5796,64.6754
69.8500,64.6754
71.1204,64.6754
71.1204,58.2613
Z" /> 
</g>
<g style="fill:none; 
stroke:#840000; stroke-width:0.1524; stroke-opacity:1; 
stroke-linecap:round; stroke-linejoin:round;">
<g transform="rotate(-90.000000 127.0908 57.3088)">
<text x="127.0908" y="57.9438"
textLength="5.2832" font-size="1.6933" lengthAdjust="spacingAndGlyphs"
text-anchor="end" opacity="0" stroke-opacity="0">-10V</text>
</g>
<g class="stroked-text"><desc>-10V</desc>
<path d="M127.1865 62.1866
L127.1865 61.2190
" />
<path d="M127.6703 59.9489
L127.6703 60.6746
" />
<path d="M127.6703 60.3118
L126.4003 60.3118
" />
<path d="M126.4003 60.3118
L126.5818 60.4327
" />
<path d="M126.5818 60.4327
L126.7027 60.5537
" />
<path d="M126.7027 60.5537
L126.7632 60.6746
" />
<path d="M126.4003 59.1628
L126.4003 59.0418
" />
<path d="M126.4003 59.0418
L126.4608 58.9209
" />
<path d="M126.4608 58.9209
L126.5213 58.8604
" />
<path d="M126.5213 58.8604
L126.6422 58.7999
" />
<path d="M126.6422 58.7999
L126.8841 58.7394
" />
<path d="M126.8841 58.7394
L127.1865 58.7394
" />
<path d="M127.1865 58.7394
L127.4284 58.7999
" />
<path d="M127.4284 58.7999
L127.5494 58.8604
" />
<path d="M127.5494 58.8604
L127.6099 58.9209
" />
<path d="M127.6099 58.9209
L127.6703 59.0418
" />
<path d="M127.6703 59.0418
L127.6703 59.1628
" />
<path d="M127.6703 59.1628
L127.6099 59.2837
" />
<path d="M127.6099 59.2837
L127.5494 59.3442
" />
<path d="M127.5494 59.3442
L127.4284 59.4047
" />
<path d="M127.4284 59.4047
L127.1865 59.4651
" />
<path d="M127.1865 59.4651
L126.8841 59.4651
" />
<path d="M126.8841 59.4651
L126.6422 59.4047
" />
<path d="M126.6422 59.4047
L126.5213 59.3442
" />
<path d="M126.5213 59.3442
L126.4608 59.2837
" />
<path d="M126.4608 59.2837
L126.4003 59.1628
" />
<path d="M126.4003 58.3766
L127.6703 57.9533
" />
<path d="M127.6703 57.9533
L126.4003 57.5299
" />
</g><path style="fill:none; 
stroke:#840000; stroke-width:0.1524; stroke-opacity:1; 
stroke-linecap:round; stroke-linejoin:round;fill:none"
d="M 127.0000,55.8800
125.7296,56.9913
125.7296,63.4054
127.0000,63.4054
128.2704,63.4054
128.2704,56.9913
Z" /> 
</g>
<g style="fill:none; 
stroke:#840000; stroke-width:0.1524; stroke-opacity:1; 
stroke-linecap:round; stroke-linejoin:round;">
<g transform="rotate(-90.000000 57.2408 32.8612)">
<text x="57.2408" y="33.4962"
textLength="3.7712" font-size="1.6933" lengthAdjust="spacingAndGlyphs"
text-anchor="start" opacity="0" stroke-opacity="0">Gnd</text>
</g>
<g class="stroked-text"><desc>Gnd</desc>
<path d="M56.6108 31.7933
L56.5503 31.9143
" />
<path d="M56.5503 31.9143
L56.5503 32.0957
" />
<path d="M56.5503 32.0957
L56.6108 32.2771
" />
<path d="M56.6108 32.2771
L56.7318 32.3981
" />
<path d="M56.7318 32.3981
L56.8527 32.4586
" />
<path d="M56.8527 32.4586
L57.0946 32.5190
" />
<path d="M57.0946 32.5190
L57.2760 32.5190
" />
<path d="M57.2760 32.5190
L57.5179 32.4586
" />
<path d="M57.5179 32.4586
L57.6389 32.3981
" />
<path d="M57.6389 32.3981
L57.7599 32.2771
" />
<path d="M57.7599 32.2771
L57.8203 32.0957
" />
<path d="M57.8203 32.0957
L57.8203 31.9748
" />
<path d="M57.8203 31.9748
L57.7599 31.7933
" />
<path d="M57.7599 31.7933
L57.6994 31.7329
" />
<path d="M57.6994 31.7329
L57.2760 31.7329
" />
<path d="M57.2760 31.7329
L57.2760 31.9748
" />
<path d="M56.9737 31.1886
L57.8203 31.1886
" />
<path d="M57.0946 31.1886
L57.0341 31.1281
" />
<path d="M57.0341 31.1281
L56.9737 31.0071
" />
<path d="M56.9737 31.0071
L56.9737 30.8257
" />
<path d="M56.9737 30.8257
L57.0341 30.7048
" />
<path d="M57.0341 30.7048
L57.1551 30.6443
" />
<path d="M57.1551 30.6443
L57.8203 30.6443
" />
<path d="M57.8203 29.4953
L56.5503 29.4953
" />
<path d="M57.7599 29.4953
L57.8203 29.6162
" />
<path d="M57.8203 29.6162
L57.8203 29.8581
" />
<path d="M57.8203 29.8581
L57.7599 29.9791
" />
<path d="M57.7599 29.9791
L57.6994 30.0396
" />
<path d="M57.6994 30.0396
L57.5784 30.1000
" />
<path d="M57.5784 30.1000
L57.2156 30.1000
" />
<path d="M57.2156 30.1000
L57.0946 30.0396
" />
<path d="M57.0946 30.0396
L57.0341 29.9791
" />
<path d="M57.0341 29.9791
L56.9737 29.8581
" />
<path d="M56.9737 29.8581
L56.9737 29.6162
" />
<path d="M56.9737 29.6162
L57.0341 29.4953
" />
</g><path style="fill:none; 
stroke:#840000; stroke-width:0.1524; stroke-opacity:1; 
stroke-linecap:round; stroke-linejoin:round;fill:none"
d="M 57.1500,34.2900
58.4204,33.1787
58.4204,28.2766
57.1500,28.2766
55.8796,28.2766
55.8796,33.1787
Z" /> 
</g>
<g style="fill:none; 
stroke:#840000; stroke-width:0.1524; stroke-opacity:1; 
stroke-linecap:round; stroke-linejoin:round;">
<g transform="rotate(-90.000000 69.9408 32.8612)">
<text x="69.9408" y="33.4962"
textLength="3.7108" font-size="1.6933" lengthAdjust="spacingAndGlyphs"
text-anchor="start" opacity="0" stroke-opacity="0">10V</text>
</g>
<g class="stroked-text"><desc>10V</desc>
<path d="M70.5203 31.7933
L70.5203 32.5190
" />
<path d="M70.5203 32.1562
L69.2503 32.1562
" />
<path d="M69.2503 32.1562
L69.4318 32.2771
" />
<path d="M69.4318 32.2771
L69.5527 32.3981
" />
<path d="M69.5527 32.3981
L69.6132 32.5190
" />
<path d="M69.2503 31.0072
L69.2503 30.8862
" />
<path d="M69.2503 30.8862
L69.3108 30.7653
" />
<path d="M69.3108 30.7653
L69.3713 30.7048
" />
<path d="M69.3713 30.7048
L69.4922 30.6443
" />
<path d="M69.4922 30.6443
L69.7341 30.5838
" />
<path d="M69.7341 30.5838
L70.0365 30.5838
" />
<path d="M70.0365 30.5838
L70.2784 30.6443
" />
<path d="M70.2784 30.6443
L70.3994 30.7048
" />
<path d="M70.3994 30.7048
L70.4599 30.7653
" />
<path d="M70.4599 30.7653
L70.5203 30.8862
" />
<path d="M70.5203 30.8862
L70.5203 31.0072
" />
<path d="M70.5203 31.0072
L70.4599 31.1281
" />
<path d="M70.4599 31.1281
L70.3994 31.1886
" />
<path d="M70.3994 31.1886
L70.2784 31.2491
" />
<path d="M70.2784 31.2491
L70.0365 31.3095
" />
<path d="M70.0365 31.3095
L69.7341 31.3095
" />
<path d="M69.7341 31.3095
L69.4922 31.2491
" />
<path d="M69.4922 31.2491
L69.3713 31.1886
" />
<path d="M69.3713 31.1886
L69.3108 31.1281
" />
<path d="M69.3108 31.1281
L69.2503 31.0072
" />
<path d="M69.2503 30.2210
L70.5203 29.7977
" />
<path d="M70.5203 29.7977
L69.2503 29.3743
" />
</g><path style="fill:none; 
stroke:#840000; stroke-width:0.1524; stroke-opacity:1; 
stroke-linecap:round; stroke-linejoin:round;fill:none"
d="M 69.8500,34.2900
71.1204,33.1787
71.1204,28.3370
69.8500,28.3370
68.5796,28.3370
68.5796,33.1787
Z" /> 
</g>
<g style="fill:none; 
stroke:#840000; stroke-width:0.1524; stroke-opacity:1; 
stroke-linecap:round; stroke-linejoin:round;">
<g transform="rotate(-90.000000 127.0908 36.6712)">
<text x="127.0908" y="37.3062"
textLength="3.7108" font-size="1.6933" lengthAdjust="spacingAndGlyphs"
text-anchor="start" opacity="0" stroke-opacity="0">10V</text>
</g>
<g class="stroked-text"><desc>10V</desc>
<path d="M127.6703 35.6033
L127.6703 36.3290
" />
<path d="M127.6703 35.9662
L126.4003 35.9662
" />
<path d="M126.4003 35.9662
L126.5818 36.0871
" />
<path d="M126.5818 36.0871
L126.7027 36.2081
" />
<path d="M126.7027 36.2081
L126.7632 36.3290
" />
<path d="M126.4003 34.8172
L126.4003 34.6962
" />
<path d="M126.4003 34.6962
L126.4608 34.5753
" />
<path d="M126.4608 34.5753
L126.5213 34.5148
" />
<path d="M126.5213 34.5148
L126.6422 34.4543
" />
<path d="M126.6422 34.4543
L126.8841 34.3938
" />
<path d="M126.8841 34.3938
L127.1865 34.3938
" />
<path d="M127.1865 34.3938
L127.4284 34.4543
" />
<path d="M127.4284 34.4543
L127.5494 34.5148
" />
<path d="M127.5494 34.5148
L127.6099 34.5753
" />
<path d="M127.6099 34.5753
L127.6703 34.6962
" />
<path d="M127.6703 34.6962
L127.6703 34.8172
" />
<path d="M127.6703 34.8172
L127.6099 34.9381
" />
<path d="M127.6099 34.9381
L127.5494 34.9986
" />
<path d="M127.5494 34.9986
L127.4284 35.0591
" />
<path d="M127.4284 35.0591
L127.1865 35.1195
" />
<path d="M127.1865 35.1195
L126.8841 35.1195
" />
<path d="M126.8841 35.1195
L126.6422 35.0591
" />
<path d="M126.6422 35.0591
L126.5213 34.9986
" />
<path d="M126.5213 34.9986
L126.4608 34.9381
" />
<path d="M126.4608 34.9381
L126.4003 34.8172
" />
<path d="M126.4003 34.0310
L127.6703 33.6077
" />
<path d="M127.6703 33.6077
L126.4003 33.1843
" />
</g><path style="fill:none; 
stroke:#840000; stroke-width:0.1524; stroke-opacity:1; 
stroke-linecap:round; stroke-linejoin:round;fill:none"
d="M 127.0000,38.1000
128.2704,36.9887
128.2704,32.1470
127.0000,32.1470
125.7296,32.1470
125.7296,36.9887
Z" /> 
</g>
<g style="fill:none; 
stroke:#0F0F0F; stroke-width:0.1524; stroke-opacity:1; 
stroke-linecap:round; stroke-linejoin:round;">
<text x="96.5200" y="45.3707"
textLength="4.3155" font-size="1.6933" lengthAdjust="spacingAndGlyphs"
text-anchor="start" opacity="0" stroke-opacity="0">Vout</text>
<g class="stroked-text"><desc>Vout</desc>
<path d="M96.7411 43.9372
L97.1644 45.2072
" />
<path d="M97.1644 45.2072
L97.5878 43.9372
" />
<path d="M98.1926 45.2072
L98.0716 45.1468
" />
<path d="M98.0716 45.1468
L98.0111 45.0863
" />
<path d="M98.0111 45.0863
L97.9507 44.9653
" />
<path d="M97.9507 44.9653
L97.9507 44.6025
" />
<path d="M97.9507 44.6025
L98.0111 44.4815
" />
<path d="M98.0111 44.4815
L98.0716 44.4210
" />
<path d="M98.0716 44.4210
L98.1926 44.3606
" />
<path d="M98.1926 44.3606
L98.3740 44.3606
" />
<path d="M98.3740 44.3606
L98.4949 44.4210
" />
<path d="M98.4949 44.4210
L98.5554 44.4815
" />
<path d="M98.5554 44.4815
L98.6159 44.6025
" />
<path d="M98.6159 44.6025
L98.6159 44.9653
" />
<path d="M98.6159 44.9653
L98.5554 45.0863
" />
<path d="M98.5554 45.0863
L98.4949 45.1468
" />
<path d="M98.4949 45.1468
L98.3740 45.2072
" />
<path d="M98.3740 45.2072
L98.1926 45.2072
" />
<path d="M99.7044 44.3606
L99.7044 45.2072
" />
<path d="M99.1601 44.3606
L99.1601 45.0258
" />
<path d="M99.1601 45.0258
L99.2206 45.1468
" />
<path d="M99.2206 45.1468
L99.3416 45.2072
" />
<path d="M99.3416 45.2072
L99.5230 45.2072
" />
<path d="M99.5230 45.2072
L99.6439 45.1468
" />
<path d="M99.6439 45.1468
L99.7044 45.0863
" />
<path d="M100.1277 44.3606
L100.6115 44.3606
" />
<path d="M100.3091 43.9372
L100.3091 45.0258
" />
<path d="M100.3091 45.0258
L100.3696 45.1468
" />
<path d="M100.3696 45.1468
L100.4906 45.2072
" />
<path d="M100.4906 45.2072
L100.6115 45.2072
" />
</g></g>
<g style="fill:none; 
stroke:#0F0F0F; stroke-width:0.1524; stroke-opacity:1; 
stroke-linecap:round; stroke-linejoin:round;">
<text x="30.4800" y="47.9107"
textLength="3.0456" font-size="1.6933" lengthAdjust="spacingAndGlyphs"
text-anchor="start" opacity="0" stroke-opacity="0">Vin</text>
<g class="stroked-text"><desc>Vin</desc>
<path d="M30.7011 46.4772
L31.1244 47.7472
" />
<path d="M31.1244 47.7472
L31.5478 46.4772
" />
<path d="M31.9711 47.7472
L31.9711 46.9006
" />
<path d="M31.9711 46.4772
L31.9107 46.5377
" />
<path d="M31.9107 46.5377
L31.9711 46.5982
" />
<path d="M31.9711 46.5982
L32.0316 46.5377
" />
<path d="M32.0316 46.5377
L31.9711 46.4772
" />
<path d="M31.9711 46.4772
L31.9711 46.5982
" />
<path d="M32.5759 46.9006
L32.5759 47.7472
" />
<path d="M32.5759 47.0215
L32.6364 46.9610
" />
<path d="M32.6364 46.9610
L32.7574 46.9006
" />
<path d="M32.7574 46.9006
L32.9388 46.9006
" />
<path d="M32.9388 46.9006
L33.0597 46.9610
" />
<path d="M33.0597 46.9610
L33.1202 47.0820
" />
<path d="M33.1202 47.0820
L33.1202 47.7472
" />
</g></g>
<g style="fill:none; 
stroke:#009600; stroke-width:0.1524; stroke-opacity:1; 
stroke-linecap:round; stroke-linejoin:round;">
<path d="M57.1500 43.1800
L57.1500 34.2900
" />
<path d="M58.4200 74.9300
L58.4200 48.2600
" />
<path d="M71.1200 74.9300
L58.4200 74.9300
" />
<path d="M127.0000 53.3400
L127.0000 55.8800
" />
<path d="M69.8500 53.3400
L69.8500 57.1500
" />
<path d="M127.0000 48.2600
L127.0000 50.8000
" />
<path d="M127.0000 50.8000
L127.0000 53.3400
" />
<path d="M125.7300 50.8000
L127.0000 50.8000
" />
<path d="M124.4600 43.1800
L127.0000 43.1800
" />
</g>
<g style="fill:none; 
stroke:#FF0000; stroke-width:0.1524; stroke-opacity:1; 
stroke-linecap:round; stroke-linejoin:round;">
<path d="M127.0000 38.1000
L127.0000 43.1800
" />
</g>
<g style="fill:none; 
stroke:#009600; stroke-width:0.1524; stroke-opacity:1; 
stroke-linecap:round; stroke-linejoin:round;">
<path d="M69.8500 34.2900
L69.8500 38.1000
" />
</g>
<g style="fill:none; 
stroke:#FF0000; stroke-width:0.1524; stroke-opacity:1; 
stroke-linecap:round; stroke-linejoin:round;">
<path d="M127.0000 45.7200
L127.0000 43.1800
" />
</g>
<g style="fill:none; 
stroke:#009600; stroke-width:0.1524; stroke-opacity:1; 
stroke-linecap:round; stroke-linejoin:round;">
<path d="M64.7700 43.1800
L57.1500 43.1800
" />
<path d="M90.1700 74.9300
L90.1700 45.7200
" />
<path d="M80.0100 45.7200
L90.1700 45.7200
" />
<path d="M90.1700 45.7200
L96.5200 45.7200
" />
<path d="M78.7400 74.9300
L90.1700 74.9300
" />
<path d="M58.4200 48.2600
L64.7700 48.2600
" />
<path d="M49.5300 48.2600
L58.4200 48.2600
" />
<path d="M30.4800 48.2600
L41.9100 48.2600
" />
</g>
<g style="fill:#009600; fill-opacity:1.0000; 
stroke:#009600; stroke-width:0.1524; stroke-opacity:1; 
stroke-linecap:round; stroke-linejoin:round;">
<circle cx="127.0000" cy="43.1800" r="0.4572" /> 
<circle cx="90.1700" cy="45.7200" r="0.4572" /> 
<circle cx="58.4200" cy="48.2600" r="0.4572" /> 
<circle cx="127.0000" cy="50.8000" r="0.4572" /> 
<circle cx="127.0000" cy="53.3400" r="0.4572" /> 
</g> 
</svg>
