<?xml version="1.0" standalone="no"?>
 <!DOCTYPE svg PUBLIC "-//W3C//DTD SVG 1.1//EN" 
 "http://www.w3.org/Graphics/SVG/1.1/DTD/svg11.dtd"> 
<svg
  xmlns:svg="http://www.w3.org/2000/svg"
  xmlns="http://www.w3.org/2000/svg"
  xmlns:xlink="http://www.w3.org/1999/xlink"
  version="1.1"
  width="210.0072mm" height="148.0058mm" viewBox="0.0000 0.0000 210.0072 148.0058">
<title>SVG Image created as schematics.svg date 2026/01/01 00:55:17 </title>
  <desc>Image generated by Eeschema-SVG </desc>
<g style="fill:#000000; fill-opacity:1.0000;stroke:#000000; stroke-opacity:1.0000;
stroke-linecap:round; stroke-linejoin:round;"
 transform="translate(0 0) scale(1 1)">
</g>
<g style="fill:#F5F4EF; fill-opacity:1.0000; 
stroke:#F5F4EF; stroke-width:0.0001; stroke-opacity:1; 
stroke-linecap:round; stroke-linejoin:round;">
<rect x="0.000000" y="0.000000" width="210.007200" height="148.005800" rx="0.000000" />
</g>
<g style="fill:none; 
stroke:#840000; stroke-width:0.1524; stroke-opacity:1; 
stroke-linecap:round; stroke-linejoin:round;">
<path d="M90.0072 104.0058
L198.0072 104.0058
L198.0072 136.0058
L90.0072 136.0058
L90.0072 104.0058
" />
<path d="M10.0000 10.0000
L200.0072 10.0000
L200.0072 138.0058
L10.0000 138.0058
L10.0000 10.0000
" />
<path d="M12.0000 12.0000
L198.0072 12.0000
L198.0072 136.0058
L12.0000 136.0058
L12.0000 12.0000
" />
<path d="M60.0000 12.0000
L60.0000 10.0000
" />
<path d="M110.0000 12.0000
L110.0000 10.0000
" />
<path d="M160.0000 12.0000
L160.0000 10.0000
" />
<text x="35.0000" y="11.6500"
textLength="1.4353" font-size="1.7333" lengthAdjust="spacingAndGlyphs"
text-anchor="start" opacity="0" stroke-opacity="0">1</text>
<g class="stroked-text"><desc>1</desc>
<path d="M36.0906 11.5935
L35.3478 11.5935
" />
<path d="M35.7192 11.5935
L35.7192 10.2935
" />
<path d="M35.7192 10.2935
L35.5954 10.4792
" />
<path d="M35.5954 10.4792
L35.4716 10.6030
" />
<path d="M35.4716 10.6030
L35.3478 10.6649
" />
</g><text x="85.0000" y="11.6500"
textLength="1.4353" font-size="1.7333" lengthAdjust="spacingAndGlyphs"
text-anchor="start" opacity="0" stroke-opacity="0">2</text>
<g class="stroked-text"><desc>2</desc>
<path d="M85.3478 10.4173
L85.4097 10.3554
" />
<path d="M85.4097 10.3554
L85.5335 10.2935
" />
<path d="M85.5335 10.2935
L85.8430 10.2935
" />
<path d="M85.8430 10.2935
L85.9668 10.3554
" />
<path d="M85.9668 10.3554
L86.0287 10.4173
" />
<path d="M86.0287 10.4173
L86.0906 10.5411
" />
<path d="M86.0906 10.5411
L86.0906 10.6649
" />
<path d="M86.0906 10.6649
L86.0287 10.8506
" />
<path d="M86.0287 10.8506
L85.2859 11.5935
" />
<path d="M85.2859 11.5935
L86.0906 11.5935
" />
</g><text x="135.0000" y="11.6500"
textLength="1.4353" font-size="1.7333" lengthAdjust="spacingAndGlyphs"
text-anchor="start" opacity="0" stroke-opacity="0">3</text>
<g class="stroked-text"><desc>3</desc>
<path d="M135.2859 10.2935
L136.0906 10.2935
" />
<path d="M136.0906 10.2935
L135.6573 10.7887
" />
<path d="M135.6573 10.7887
L135.8430 10.7887
" />
<path d="M135.8430 10.7887
L135.9668 10.8506
" />
<path d="M135.9668 10.8506
L136.0287 10.9125
" />
<path d="M136.0287 10.9125
L136.0906 11.0363
" />
<path d="M136.0906 11.0363
L136.0906 11.3458
" />
<path d="M136.0906 11.3458
L136.0287 11.4696
" />
<path d="M136.0287 11.4696
L135.9668 11.5316
" />
<path d="M135.9668 11.5316
L135.8430 11.5935
" />
<path d="M135.8430 11.5935
L135.4716 11.5935
" />
<path d="M135.4716 11.5935
L135.3478 11.5316
" />
<path d="M135.3478 11.5316
L135.2859 11.4696
" />
</g><text x="185.0000" y="11.6500"
textLength="1.4353" font-size="1.7333" lengthAdjust="spacingAndGlyphs"
text-anchor="start" opacity="0" stroke-opacity="0">4</text>
<g class="stroked-text"><desc>4</desc>
<path d="M185.9668 10.7268
L185.9668 11.5935
" />
<path d="M185.6573 10.2316
L185.3478 11.1601
" />
<path d="M185.3478 11.1601
L186.1525 11.1601
" />
</g><path d="M60.0000 136.0058
L60.0000 138.0058
" />
<path d="M110.0000 136.0058
L110.0000 138.0058
" />
<path d="M160.0000 136.0058
L160.0000 138.0058
" />
<text x="35.0000" y="137.6558"
textLength="1.4353" font-size="1.7333" lengthAdjust="spacingAndGlyphs"
text-anchor="start" opacity="0" stroke-opacity="0">1</text>
<g class="stroked-text"><desc>1</desc>
<path d="M36.0906 137.5993
L35.3478 137.5993
" />
<path d="M35.7192 137.5993
L35.7192 136.2993
" />
<path d="M35.7192 136.2993
L35.5954 136.4850
" />
<path d="M35.5954 136.4850
L35.4716 136.6088
" />
<path d="M35.4716 136.6088
L35.3478 136.6707
" />
</g><text x="85.0000" y="137.6558"
textLength="1.4353" font-size="1.7333" lengthAdjust="spacingAndGlyphs"
text-anchor="start" opacity="0" stroke-opacity="0">2</text>
<g class="stroked-text"><desc>2</desc>
<path d="M85.3478 136.4231
L85.4097 136.3612
" />
<path d="M85.4097 136.3612
L85.5335 136.2993
" />
<path d="M85.5335 136.2993
L85.8430 136.2993
" />
<path d="M85.8430 136.2993
L85.9668 136.3612
" />
<path d="M85.9668 136.3612
L86.0287 136.4231
" />
<path d="M86.0287 136.4231
L86.0906 136.5469
" />
<path d="M86.0906 136.5469
L86.0906 136.6707
" />
<path d="M86.0906 136.6707
L86.0287 136.8564
" />
<path d="M86.0287 136.8564
L85.2859 137.5993
" />
<path d="M85.2859 137.5993
L86.0906 137.5993
" />
</g><text x="135.0000" y="137.6558"
textLength="1.4353" font-size="1.7333" lengthAdjust="spacingAndGlyphs"
text-anchor="start" opacity="0" stroke-opacity="0">3</text>
<g class="stroked-text"><desc>3</desc>
<path d="M135.2859 136.2993
L136.0906 136.2993
" />
<path d="M136.0906 136.2993
L135.6573 136.7945
" />
<path d="M135.6573 136.7945
L135.8430 136.7945
" />
<path d="M135.8430 136.7945
L135.9668 136.8564
" />
<path d="M135.9668 136.8564
L136.0287 136.9183
" />
<path d="M136.0287 136.9183
L136.0906 137.0421
" />
<path d="M136.0906 137.0421
L136.0906 137.3516
" />
<path d="M136.0906 137.3516
L136.0287 137.4754
" />
<path d="M136.0287 137.4754
L135.9668 137.5374
" />
<path d="M135.9668 137.5374
L135.8430 137.5993
" />
<path d="M135.8430 137.5993
L135.4716 137.5993
" />
<path d="M135.4716 137.5993
L135.3478 137.5374
" />
<path d="M135.3478 137.5374
L135.2859 137.4754
" />
</g><text x="185.0000" y="137.6558"
textLength="1.4353" font-size="1.7333" lengthAdjust="spacingAndGlyphs"
text-anchor="start" opacity="0" stroke-opacity="0">4</text>
<g class="stroked-text"><desc>4</desc>
<path d="M185.9668 136.7326
L185.9668 137.5993
" />
<path d="M185.6573 136.2374
L185.3478 137.1659
" />
<path d="M185.3478 137.1659
L186.1525 137.1659
" />
</g><path d="M10.0000 60.0000
L12.0000 60.0000
" />
<path d="M10.0000 110.0000
L12.0000 110.0000
" />
<text x="11.0000" y="35.6500"
textLength="1.3115" font-size="1.7333" lengthAdjust="spacingAndGlyphs"
text-anchor="middle" opacity="0" stroke-opacity="0">A</text>
<g class="stroked-text"><desc>A</desc>
<path d="M10.6905 35.2220
L11.3095 35.2220
" />
<path d="M10.5667 35.5935
L11.0000 34.2935
" />
<path d="M11.0000 34.2935
L11.4333 35.5935
" />
</g><text x="11.0000" y="85.6500"
textLength="1.4972" font-size="1.7333" lengthAdjust="spacingAndGlyphs"
text-anchor="middle" opacity="0" stroke-opacity="0">B</text>
<g class="stroked-text"><desc>B</desc>
<path d="M11.0928 84.9125
L11.2785 84.9744
" />
<path d="M11.2785 84.9744
L11.3404 85.0363
" />
<path d="M11.3404 85.0363
L11.4023 85.1601
" />
<path d="M11.4023 85.1601
L11.4023 85.3458
" />
<path d="M11.4023 85.3458
L11.3404 85.4696
" />
<path d="M11.3404 85.4696
L11.2785 85.5316
" />
<path d="M11.2785 85.5316
L11.1547 85.5935
" />
<path d="M11.1547 85.5935
L10.6595 85.5935
" />
<path d="M10.6595 85.5935
L10.6595 84.2935
" />
<path d="M10.6595 84.2935
L11.0928 84.2935
" />
<path d="M11.0928 84.2935
L11.2166 84.3554
" />
<path d="M11.2166 84.3554
L11.2785 84.4173
" />
<path d="M11.2785 84.4173
L11.3404 84.5411
" />
<path d="M11.3404 84.5411
L11.3404 84.6649
" />
<path d="M11.3404 84.6649
L11.2785 84.7887
" />
<path d="M11.2785 84.7887
L11.2166 84.8506
" />
<path d="M11.2166 84.8506
L11.0928 84.9125
" />
<path d="M11.0928 84.9125
L10.6595 84.9125
" />
</g><text x="11.0000" y="135.6500"
textLength="1.4972" font-size="1.7333" lengthAdjust="spacingAndGlyphs"
text-anchor="middle" opacity="0" stroke-opacity="0">C</text>
<g class="stroked-text"><desc>C</desc>
<path d="M11.4023 135.4696
L11.3404 135.5316
" />
<path d="M11.3404 135.5316
L11.1547 135.5935
" />
<path d="M11.1547 135.5935
L11.0309 135.5935
" />
<path d="M11.0309 135.5935
L10.8452 135.5316
" />
<path d="M10.8452 135.5316
L10.7214 135.4077
" />
<path d="M10.7214 135.4077
L10.6595 135.2839
" />
<path d="M10.6595 135.2839
L10.5976 135.0363
" />
<path d="M10.5976 135.0363
L10.5976 134.8506
" />
<path d="M10.5976 134.8506
L10.6595 134.6030
" />
<path d="M10.6595 134.6030
L10.7214 134.4792
" />
<path d="M10.7214 134.4792
L10.8452 134.3554
" />
<path d="M10.8452 134.3554
L11.0309 134.2935
" />
<path d="M11.0309 134.2935
L11.1547 134.2935
" />
<path d="M11.1547 134.2935
L11.3404 134.3554
" />
<path d="M11.3404 134.3554
L11.4023 134.4173
" />
</g><path d="M200.0072 60.0000
L198.0072 60.0000
" />
<path d="M200.0072 110.0000
L198.0072 110.0000
" />
<text x="199.0072" y="35.6500"
textLength="1.3115" font-size="1.7333" lengthAdjust="spacingAndGlyphs"
text-anchor="middle" opacity="0" stroke-opacity="0">A</text>
<g class="stroked-text"><desc>A</desc>
<path d="M198.6977 35.2220
L199.3167 35.2220
" />
<path d="M198.5739 35.5935
L199.0072 34.2935
" />
<path d="M199.0072 34.2935
L199.4405 35.5935
" />
</g><text x="199.0072" y="85.6500"
textLength="1.4972" font-size="1.7333" lengthAdjust="spacingAndGlyphs"
text-anchor="middle" opacity="0" stroke-opacity="0">B</text>
<g class="stroked-text"><desc>B</desc>
<path d="M199.1000 84.9125
L199.2857 84.9744
" />
<path d="M199.2857 84.9744
L199.3476 85.0363
" />
<path d="M199.3476 85.0363
L199.4095 85.1601
" />
<path d="M199.4095 85.1601
L199.4095 85.3458
" />
<path d="M199.4095 85.3458
L199.3476 85.4696
" />
<path d="M199.3476 85.4696
L199.2857 85.5316
" />
<path d="M199.2857 85.5316
L199.1619 85.5935
" />
<path d="M199.1619 85.5935
L198.6667 85.5935
" />
<path d="M198.6667 85.5935
L198.6667 84.2935
" />
<path d="M198.6667 84.2935
L199.1000 84.2935
" />
<path d="M199.1000 84.2935
L199.2238 84.3554
" />
<path d="M199.2238 84.3554
L199.2857 84.4173
" />
<path d="M199.2857 84.4173
L199.3476 84.5411
" />
<path d="M199.3476 84.5411
L199.3476 84.6649
" />
<path d="M199.3476 84.6649
L199.2857 84.7887
" />
<path d="M199.2857 84.7887
L199.2238 84.8506
" />
<path d="M199.2238 84.8506
L199.1000 84.9125
" />
<path d="M199.1000 84.9125
L198.6667 84.9125
" />
</g><text x="199.0072" y="135.6500"
textLength="1.4972" font-size="1.7333" lengthAdjust="spacingAndGlyphs"
text-anchor="middle" opacity="0" stroke-opacity="0">C</text>
<g class="stroked-text"><desc>C</desc>
<path d="M199.4095 135.4696
L199.3476 135.5316
" />
<path d="M199.3476 135.5316
L199.1619 135.5935
" />
<path d="M199.1619 135.5935
L199.0381 135.5935
" />
<path d="M199.0381 135.5935
L198.8524 135.5316
" />
<path d="M198.8524 135.5316
L198.7286 135.4077
" />
<path d="M198.7286 135.4077
L198.6667 135.2839
" />
<path d="M198.6667 135.2839
L198.6048 135.0363
" />
<path d="M198.6048 135.0363
L198.6048 134.8506
" />
<path d="M198.6048 134.8506
L198.6667 134.6030
" />
<path d="M198.6667 134.6030
L198.7286 134.4792
" />
<path d="M198.7286 134.4792
L198.8524 134.3554
" />
<path d="M198.8524 134.3554
L199.0381 134.2935
" />
<path d="M199.0381 134.2935
L199.1619 134.2935
" />
<path d="M199.1619 134.2935
L199.3476 134.3554
" />
<path d="M199.3476 134.3554
L199.4095 134.4173
" />
</g><text x="113.0072" y="131.8558"
textLength="7.0143" font-size="2.0000" lengthAdjust="spacingAndGlyphs"
text-anchor="start" opacity="0" stroke-opacity="0">Date: </text>
<g class="stroked-text"><desc>Date: </desc>
<path d="M113.4645 131.7917
L113.4645 130.2917
" />
<path d="M113.4645 130.2917
L113.8216 130.2917
" />
<path d="M113.8216 130.2917
L114.0359 130.3631
" />
<path d="M114.0359 130.3631
L114.1788 130.5060
" />
<path d="M114.1788 130.5060
L114.2502 130.6488
" />
<path d="M114.2502 130.6488
L114.3216 130.9345
" />
<path d="M114.3216 130.9345
L114.3216 131.1488
" />
<path d="M114.3216 131.1488
L114.2502 131.4345
" />
<path d="M114.2502 131.4345
L114.1788 131.5774
" />
<path d="M114.1788 131.5774
L114.0359 131.7203
" />
<path d="M114.0359 131.7203
L113.8216 131.7917
" />
<path d="M113.8216 131.7917
L113.4645 131.7917
" />
<path d="M115.6074 131.7917
L115.6074 131.0060
" />
<path d="M115.6074 131.0060
L115.5359 130.8631
" />
<path d="M115.5359 130.8631
L115.3931 130.7917
" />
<path d="M115.3931 130.7917
L115.1074 130.7917
" />
<path d="M115.1074 130.7917
L114.9645 130.8631
" />
<path d="M115.6074 131.7203
L115.4645 131.7917
" />
<path d="M115.4645 131.7917
L115.1074 131.7917
" />
<path d="M115.1074 131.7917
L114.9645 131.7203
" />
<path d="M114.9645 131.7203
L114.8931 131.5774
" />
<path d="M114.8931 131.5774
L114.8931 131.4345
" />
<path d="M114.8931 131.4345
L114.9645 131.2917
" />
<path d="M114.9645 131.2917
L115.1074 131.2203
" />
<path d="M115.1074 131.2203
L115.4645 131.2203
" />
<path d="M115.4645 131.2203
L115.6074 131.1488
" />
<path d="M116.1073 130.7917
L116.6787 130.7917
" />
<path d="M116.3216 130.2917
L116.3216 131.5774
" />
<path d="M116.3216 131.5774
L116.3930 131.7203
" />
<path d="M116.3930 131.7203
L116.5359 131.7917
" />
<path d="M116.5359 131.7917
L116.6787 131.7917
" />
<path d="M117.7501 131.7203
L117.6073 131.7917
" />
<path d="M117.6073 131.7917
L117.3216 131.7917
" />
<path d="M117.3216 131.7917
L117.1787 131.7203
" />
<path d="M117.1787 131.7203
L117.1073 131.5774
" />
<path d="M117.1073 131.5774
L117.1073 131.0060
" />
<path d="M117.1073 131.0060
L117.1787 130.8631
" />
<path d="M117.1787 130.8631
L117.3216 130.7917
" />
<path d="M117.3216 130.7917
L117.6073 130.7917
" />
<path d="M117.6073 130.7917
L117.7501 130.8631
" />
<path d="M117.7501 130.8631
L117.8216 131.0060
" />
<path d="M117.8216 131.0060
L117.8216 131.1488
" />
<path d="M117.8216 131.1488
L117.1073 131.2917
" />
<path d="M118.4644 131.6488
L118.5358 131.7203
" />
<path d="M118.5358 131.7203
L118.4644 131.7917
" />
<path d="M118.4644 131.7917
L118.3930 131.7203
" />
<path d="M118.3930 131.7203
L118.4644 131.6488
" />
<path d="M118.4644 131.6488
L118.4644 131.7917
" />
<path d="M118.4644 130.8631
L118.5358 130.9345
" />
<path d="M118.5358 130.9345
L118.4644 131.0060
" />
<path d="M118.4644 131.0060
L118.3930 130.9345
" />
<path d="M118.3930 130.9345
L118.4644 130.8631
" />
<path d="M118.4644 130.8631
L118.4644 131.0060
" />
</g><path d="M90.0072 132.5058
L198.0072 132.5058
" />
<text x="91.0072" y="134.6558"
textLength="20.8716" font-size="2.0000" lengthAdjust="spacingAndGlyphs"
text-anchor="start" opacity="0" stroke-opacity="0">KiCad E.D.A. 9.0.6</text>
<g class="stroked-text"><desc>KiCad E.D.A. 9.0.6</desc>
<path d="M91.4645 134.5917
L91.4645 133.0917
" />
<path d="M92.3216 134.5917
L91.6788 133.7345
" />
<path d="M92.3216 133.0917
L91.4645 133.9488
" />
<path d="M92.9645 134.5917
L92.9645 133.5917
" />
<path d="M92.9645 133.0917
L92.8931 133.1631
" />
<path d="M92.8931 133.1631
L92.9645 133.2345
" />
<path d="M92.9645 133.2345
L93.0359 133.1631
" />
<path d="M93.0359 133.1631
L92.9645 133.0917
" />
<path d="M92.9645 133.0917
L92.9645 133.2345
" />
<path d="M94.5359 134.4488
L94.4645 134.5203
" />
<path d="M94.4645 134.5203
L94.2502 134.5917
" />
<path d="M94.2502 134.5917
L94.1074 134.5917
" />
<path d="M94.1074 134.5917
L93.8931 134.5203
" />
<path d="M93.8931 134.5203
L93.7502 134.3774
" />
<path d="M93.7502 134.3774
L93.6788 134.2345
" />
<path d="M93.6788 134.2345
L93.6074 133.9488
" />
<path d="M93.6074 133.9488
L93.6074 133.7345
" />
<path d="M93.6074 133.7345
L93.6788 133.4488
" />
<path d="M93.6788 133.4488
L93.7502 133.3060
" />
<path d="M93.7502 133.3060
L93.8931 133.1631
" />
<path d="M93.8931 133.1631
L94.1074 133.0917
" />
<path d="M94.1074 133.0917
L94.2502 133.0917
" />
<path d="M94.2502 133.0917
L94.4645 133.1631
" />
<path d="M94.4645 133.1631
L94.5359 133.2345
" />
<path d="M95.8217 134.5917
L95.8217 133.8060
" />
<path d="M95.8217 133.8060
L95.7502 133.6631
" />
<path d="M95.7502 133.6631
L95.6074 133.5917
" />
<path d="M95.6074 133.5917
L95.3217 133.5917
" />
<path d="M95.3217 133.5917
L95.1788 133.6631
" />
<path d="M95.8217 134.5203
L95.6788 134.5917
" />
<path d="M95.6788 134.5917
L95.3217 134.5917
" />
<path d="M95.3217 134.5917
L95.1788 134.5203
" />
<path d="M95.1788 134.5203
L95.1074 134.3774
" />
<path d="M95.1074 134.3774
L95.1074 134.2345
" />
<path d="M95.1074 134.2345
L95.1788 134.0917
" />
<path d="M95.1788 134.0917
L95.3217 134.0203
" />
<path d="M95.3217 134.0203
L95.6788 134.0203
" />
<path d="M95.6788 134.0203
L95.8217 133.9488
" />
<path d="M97.1788 134.5917
L97.1788 133.0917
" />
<path d="M97.1788 134.5203
L97.0359 134.5917
" />
<path d="M97.0359 134.5917
L96.7502 134.5917
" />
<path d="M96.7502 134.5917
L96.6073 134.5203
" />
<path d="M96.6073 134.5203
L96.5359 134.4488
" />
<path d="M96.5359 134.4488
L96.4645 134.3060
" />
<path d="M96.4645 134.3060
L96.4645 133.8774
" />
<path d="M96.4645 133.8774
L96.5359 133.7345
" />
<path d="M96.5359 133.7345
L96.6073 133.6631
" />
<path d="M96.6073 133.6631
L96.7502 133.5917
" />
<path d="M96.7502 133.5917
L97.0359 133.5917
" />
<path d="M97.0359 133.5917
L97.1788 133.6631
" />
<path d="M99.0359 133.8060
L99.5359 133.8060
" />
<path d="M99.7502 134.5917
L99.0359 134.5917
" />
<path d="M99.0359 134.5917
L99.0359 133.0917
" />
<path d="M99.0359 133.0917
L99.7502 133.0917
" />
<path d="M100.3930 134.4488
L100.4644 134.5203
" />
<path d="M100.4644 134.5203
L100.3930 134.5917
" />
<path d="M100.3930 134.5917
L100.3216 134.5203
" />
<path d="M100.3216 134.5203
L100.3930 134.4488
" />
<path d="M100.3930 134.4488
L100.3930 134.5917
" />
<path d="M101.1073 134.5917
L101.1073 133.0917
" />
<path d="M101.1073 133.0917
L101.4644 133.0917
" />
<path d="M101.4644 133.0917
L101.6787 133.1631
" />
<path d="M101.6787 133.1631
L101.8216 133.3060
" />
<path d="M101.8216 133.3060
L101.8930 133.4488
" />
<path d="M101.8930 133.4488
L101.9644 133.7345
" />
<path d="M101.9644 133.7345
L101.9644 133.9488
" />
<path d="M101.9644 133.9488
L101.8930 134.2345
" />
<path d="M101.8930 134.2345
L101.8216 134.3774
" />
<path d="M101.8216 134.3774
L101.6787 134.5203
" />
<path d="M101.6787 134.5203
L101.4644 134.5917
" />
<path d="M101.4644 134.5917
L101.1073 134.5917
" />
<path d="M102.6073 134.4488
L102.6787 134.5203
" />
<path d="M102.6787 134.5203
L102.6073 134.5917
" />
<path d="M102.6073 134.5917
L102.5359 134.5203
" />
<path d="M102.5359 134.5203
L102.6073 134.4488
" />
<path d="M102.6073 134.4488
L102.6073 134.5917
" />
<path d="M103.2502 134.1631
L103.9645 134.1631
" />
<path d="M103.1073 134.5917
L103.6073 133.0917
" />
<path d="M103.6073 133.0917
L104.1073 134.5917
" />
<path d="M104.6073 134.4488
L104.6787 134.5203
" />
<path d="M104.6787 134.5203
L104.6073 134.5917
" />
<path d="M104.6073 134.5917
L104.5359 134.5203
" />
<path d="M104.5359 134.5203
L104.6073 134.4488
" />
<path d="M104.6073 134.4488
L104.6073 134.5917
" />
<path d="M106.5359 134.5917
L106.8216 134.5917
" />
<path d="M106.8216 134.5917
L106.9645 134.5203
" />
<path d="M106.9645 134.5203
L107.0359 134.4488
" />
<path d="M107.0359 134.4488
L107.1788 134.2345
" />
<path d="M107.1788 134.2345
L107.2502 133.9488
" />
<path d="M107.2502 133.9488
L107.2502 133.3774
" />
<path d="M107.2502 133.3774
L107.1788 133.2345
" />
<path d="M107.1788 133.2345
L107.1074 133.1631
" />
<path d="M107.1074 133.1631
L106.9645 133.0917
" />
<path d="M106.9645 133.0917
L106.6788 133.0917
" />
<path d="M106.6788 133.0917
L106.5359 133.1631
" />
<path d="M106.5359 133.1631
L106.4645 133.2345
" />
<path d="M106.4645 133.2345
L106.3931 133.3774
" />
<path d="M106.3931 133.3774
L106.3931 133.7345
" />
<path d="M106.3931 133.7345
L106.4645 133.8774
" />
<path d="M106.4645 133.8774
L106.5359 133.9488
" />
<path d="M106.5359 133.9488
L106.6788 134.0203
" />
<path d="M106.6788 134.0203
L106.9645 134.0203
" />
<path d="M106.9645 134.0203
L107.1074 133.9488
" />
<path d="M107.1074 133.9488
L107.1788 133.8774
" />
<path d="M107.1788 133.8774
L107.2502 133.7345
" />
<path d="M107.8931 134.4488
L107.9645 134.5203
" />
<path d="M107.9645 134.5203
L107.8931 134.5917
" />
<path d="M107.8931 134.5917
L107.8217 134.5203
" />
<path d="M107.8217 134.5203
L107.8931 134.4488
" />
<path d="M107.8931 134.4488
L107.8931 134.5917
" />
<path d="M108.8931 133.0917
L109.0360 133.0917
" />
<path d="M109.0360 133.0917
L109.1788 133.1631
" />
<path d="M109.1788 133.1631
L109.2503 133.2345
" />
<path d="M109.2503 133.2345
L109.3217 133.3774
" />
<path d="M109.3217 133.3774
L109.3931 133.6631
" />
<path d="M109.3931 133.6631
L109.3931 134.0203
" />
<path d="M109.3931 134.0203
L109.3217 134.3060
" />
<path d="M109.3217 134.3060
L109.2503 134.4488
" />
<path d="M109.2503 134.4488
L109.1788 134.5203
" />
<path d="M109.1788 134.5203
L109.0360 134.5917
" />
<path d="M109.0360 134.5917
L108.8931 134.5917
" />
<path d="M108.8931 134.5917
L108.7503 134.5203
" />
<path d="M108.7503 134.5203
L108.6788 134.4488
" />
<path d="M108.6788 134.4488
L108.6074 134.3060
" />
<path d="M108.6074 134.3060
L108.5360 134.0203
" />
<path d="M108.5360 134.0203
L108.5360 133.6631
" />
<path d="M108.5360 133.6631
L108.6074 133.3774
" />
<path d="M108.6074 133.3774
L108.6788 133.2345
" />
<path d="M108.6788 133.2345
L108.7503 133.1631
" />
<path d="M108.7503 133.1631
L108.8931 133.0917
" />
<path d="M110.0360 134.4488
L110.1074 134.5203
" />
<path d="M110.1074 134.5203
L110.0360 134.5917
" />
<path d="M110.0360 134.5917
L109.9646 134.5203
" />
<path d="M109.9646 134.5203
L110.0360 134.4488
" />
<path d="M110.0360 134.4488
L110.0360 134.5917
" />
<path d="M111.3932 133.0917
L111.1074 133.0917
" />
<path d="M111.1074 133.0917
L110.9646 133.1631
" />
<path d="M110.9646 133.1631
L110.8932 133.2345
" />
<path d="M110.8932 133.2345
L110.7503 133.4488
" />
<path d="M110.7503 133.4488
L110.6789 133.7345
" />
<path d="M110.6789 133.7345
L110.6789 134.3060
" />
<path d="M110.6789 134.3060
L110.7503 134.4488
" />
<path d="M110.7503 134.4488
L110.8217 134.5203
" />
<path d="M110.8217 134.5203
L110.9646 134.5917
" />
<path d="M110.9646 134.5917
L111.2503 134.5917
" />
<path d="M111.2503 134.5917
L111.3932 134.5203
" />
<path d="M111.3932 134.5203
L111.4646 134.4488
" />
<path d="M111.4646 134.4488
L111.5360 134.3060
" />
<path d="M111.5360 134.3060
L111.5360 133.9488
" />
<path d="M111.5360 133.9488
L111.4646 133.8060
" />
<path d="M111.4646 133.8060
L111.3932 133.7345
" />
<path d="M111.3932 133.7345
L111.2503 133.6631
" />
<path d="M111.2503 133.6631
L110.9646 133.6631
" />
<path d="M110.9646 133.6631
L110.8217 133.7345
" />
<path d="M110.8217 133.7345
L110.7503 133.8060
" />
<path d="M110.7503 133.8060
L110.6789 133.9488
" />
</g><path d="M90.0072 129.5058
L198.0072 129.5058
" />
</g>
<g style="fill:none; 
stroke:#840000; stroke-width:0.3000; stroke-opacity:1; 
stroke-linecap:round; stroke-linejoin:round;">
<text x="176.0072" y="131.8558"
textLength="6.3858" font-size="2.0000" lengthAdjust="spacingAndGlyphs"
text-anchor="start" opacity="0" stroke-opacity="0">Rev: </text>
<g class="stroked-text"><desc>Rev: </desc>
<path d="M177.4187 131.7841
L176.9187 131.0698
" />
<path d="M176.5616 131.7841
L176.5616 130.2841
" />
<path d="M176.5616 130.2841
L177.1330 130.2841
" />
<path d="M177.1330 130.2841
L177.2759 130.3555
" />
<path d="M177.2759 130.3555
L177.3473 130.4269
" />
<path d="M177.3473 130.4269
L177.4187 130.5698
" />
<path d="M177.4187 130.5698
L177.4187 130.7841
" />
<path d="M177.4187 130.7841
L177.3473 130.9269
" />
<path d="M177.3473 130.9269
L177.2759 130.9984
" />
<path d="M177.2759 130.9984
L177.1330 131.0698
" />
<path d="M177.1330 131.0698
L176.5616 131.0698
" />
<path d="M178.6330 131.7127
L178.4902 131.7841
" />
<path d="M178.4902 131.7841
L178.2045 131.7841
" />
<path d="M178.2045 131.7841
L178.0616 131.7127
" />
<path d="M178.0616 131.7127
L177.9902 131.5698
" />
<path d="M177.9902 131.5698
L177.9902 130.9984
" />
<path d="M177.9902 130.9984
L178.0616 130.8555
" />
<path d="M178.0616 130.8555
L178.2045 130.7841
" />
<path d="M178.2045 130.7841
L178.4902 130.7841
" />
<path d="M178.4902 130.7841
L178.6330 130.8555
" />
<path d="M178.6330 130.8555
L178.7045 130.9984
" />
<path d="M178.7045 130.9984
L178.7045 131.1412
" />
<path d="M178.7045 131.1412
L177.9902 131.2841
" />
<path d="M179.2044 130.7841
L179.5616 131.7841
" />
<path d="M179.5616 131.7841
L179.9187 130.7841
" />
<path d="M180.4902 131.6412
L180.5616 131.7127
" />
<path d="M180.5616 131.7127
L180.4902 131.7841
" />
<path d="M180.4902 131.7841
L180.4188 131.7127
" />
<path d="M180.4188 131.7127
L180.4902 131.6412
" />
<path d="M180.4902 131.6412
L180.4902 131.7841
" />
<path d="M180.4902 130.8555
L180.5616 130.9269
" />
<path d="M180.5616 130.9269
L180.4902 130.9984
" />
<path d="M180.4902 130.9984
L180.4188 130.9269
" />
<path d="M180.4188 130.9269
L180.4902 130.8555
" />
<path d="M180.4902 130.8555
L180.4902 130.9984
" />
</g></g>
<g style="fill:none; 
stroke:#840000; stroke-width:0.1524; stroke-opacity:1; 
stroke-linecap:round; stroke-linejoin:round;">
<text x="91.0072" y="131.8558"
textLength="9.3716" font-size="2.0000" lengthAdjust="spacingAndGlyphs"
text-anchor="start" opacity="0" stroke-opacity="0">Size: A5</text>
<g class="stroked-text"><desc>Size: A5</desc>
<path d="M91.3931 131.7203
L91.6074 131.7917
" />
<path d="M91.6074 131.7917
L91.9645 131.7917
" />
<path d="M91.9645 131.7917
L92.1074 131.7203
" />
<path d="M92.1074 131.7203
L92.1788 131.6488
" />
<path d="M92.1788 131.6488
L92.2502 131.5060
" />
<path d="M92.2502 131.5060
L92.2502 131.3631
" />
<path d="M92.2502 131.3631
L92.1788 131.2203
" />
<path d="M92.1788 131.2203
L92.1074 131.1488
" />
<path d="M92.1074 131.1488
L91.9645 131.0774
" />
<path d="M91.9645 131.0774
L91.6788 131.0060
" />
<path d="M91.6788 131.0060
L91.5359 130.9345
" />
<path d="M91.5359 130.9345
L91.4645 130.8631
" />
<path d="M91.4645 130.8631
L91.3931 130.7203
" />
<path d="M91.3931 130.7203
L91.3931 130.5774
" />
<path d="M91.3931 130.5774
L91.4645 130.4345
" />
<path d="M91.4645 130.4345
L91.5359 130.3631
" />
<path d="M91.5359 130.3631
L91.6788 130.2917
" />
<path d="M91.6788 130.2917
L92.0359 130.2917
" />
<path d="M92.0359 130.2917
L92.2502 130.3631
" />
<path d="M92.8931 131.7917
L92.8931 130.7917
" />
<path d="M92.8931 130.2917
L92.8217 130.3631
" />
<path d="M92.8217 130.3631
L92.8931 130.4345
" />
<path d="M92.8931 130.4345
L92.9645 130.3631
" />
<path d="M92.9645 130.3631
L92.8931 130.2917
" />
<path d="M92.8931 130.2917
L92.8931 130.4345
" />
<path d="M93.4645 130.7917
L94.2503 130.7917
" />
<path d="M94.2503 130.7917
L93.4645 131.7917
" />
<path d="M93.4645 131.7917
L94.2503 131.7917
" />
<path d="M95.3931 131.7203
L95.2503 131.7917
" />
<path d="M95.2503 131.7917
L94.9646 131.7917
" />
<path d="M94.9646 131.7917
L94.8217 131.7203
" />
<path d="M94.8217 131.7203
L94.7503 131.5774
" />
<path d="M94.7503 131.5774
L94.7503 131.0060
" />
<path d="M94.7503 131.0060
L94.8217 130.8631
" />
<path d="M94.8217 130.8631
L94.9646 130.7917
" />
<path d="M94.9646 130.7917
L95.2503 130.7917
" />
<path d="M95.2503 130.7917
L95.3931 130.8631
" />
<path d="M95.3931 130.8631
L95.4646 131.0060
" />
<path d="M95.4646 131.0060
L95.4646 131.1488
" />
<path d="M95.4646 131.1488
L94.7503 131.2917
" />
<path d="M96.1074 131.6488
L96.1788 131.7203
" />
<path d="M96.1788 131.7203
L96.1074 131.7917
" />
<path d="M96.1074 131.7917
L96.0360 131.7203
" />
<path d="M96.0360 131.7203
L96.1074 131.6488
" />
<path d="M96.1074 131.6488
L96.1074 131.7917
" />
<path d="M96.1074 130.8631
L96.1788 130.9345
" />
<path d="M96.1788 130.9345
L96.1074 131.0060
" />
<path d="M96.1074 131.0060
L96.0360 130.9345
" />
<path d="M96.0360 130.9345
L96.1074 130.8631
" />
<path d="M96.1074 130.8631
L96.1074 131.0060
" />
<path d="M97.8932 131.3631
L98.6075 131.3631
" />
<path d="M97.7503 131.7917
L98.2503 130.2917
" />
<path d="M98.2503 130.2917
L98.7503 131.7917
" />
<path d="M99.9646 130.2917
L99.2503 130.2917
" />
<path d="M99.2503 130.2917
L99.1789 131.0060
" />
<path d="M99.1789 131.0060
L99.2503 130.9345
" />
<path d="M99.2503 130.9345
L99.3932 130.8631
" />
<path d="M99.3932 130.8631
L99.7503 130.8631
" />
<path d="M99.7503 130.8631
L99.8932 130.9345
" />
<path d="M99.8932 130.9345
L99.9646 131.0060
" />
<path d="M99.9646 131.0060
L100.0360 131.1488
" />
<path d="M100.0360 131.1488
L100.0360 131.5060
" />
<path d="M100.0360 131.5060
L99.9646 131.6488
" />
<path d="M99.9646 131.6488
L99.8932 131.7203
" />
<path d="M99.8932 131.7203
L99.7503 131.7917
" />
<path d="M99.7503 131.7917
L99.3932 131.7917
" />
<path d="M99.3932 131.7917
L99.2503 131.7203
" />
<path d="M99.2503 131.7203
L99.1789 131.6488
" />
</g><text x="176.0072" y="134.6558"
textLength="8.5144" font-size="2.0000" lengthAdjust="spacingAndGlyphs"
text-anchor="start" opacity="0" stroke-opacity="0">Id: 1/1</text>
<g class="stroked-text"><desc>Id: 1/1</desc>
<path d="M176.4645 134.5917
L176.4645 133.0917
" />
<path d="M177.8217 134.5917
L177.8217 133.0917
" />
<path d="M177.8217 134.5203
L177.6788 134.5917
" />
<path d="M177.6788 134.5917
L177.3931 134.5917
" />
<path d="M177.3931 134.5917
L177.2502 134.5203
" />
<path d="M177.2502 134.5203
L177.1788 134.4488
" />
<path d="M177.1788 134.4488
L177.1074 134.3060
" />
<path d="M177.1074 134.3060
L177.1074 133.8774
" />
<path d="M177.1074 133.8774
L177.1788 133.7345
" />
<path d="M177.1788 133.7345
L177.2502 133.6631
" />
<path d="M177.2502 133.6631
L177.3931 133.5917
" />
<path d="M177.3931 133.5917
L177.6788 133.5917
" />
<path d="M177.6788 133.5917
L177.8217 133.6631
" />
<path d="M178.5359 134.4488
L178.6073 134.5203
" />
<path d="M178.6073 134.5203
L178.5359 134.5917
" />
<path d="M178.5359 134.5917
L178.4645 134.5203
" />
<path d="M178.4645 134.5203
L178.5359 134.4488
" />
<path d="M178.5359 134.4488
L178.5359 134.5917
" />
<path d="M178.5359 133.6631
L178.6073 133.7345
" />
<path d="M178.6073 133.7345
L178.5359 133.8060
" />
<path d="M178.5359 133.8060
L178.4645 133.7345
" />
<path d="M178.4645 133.7345
L178.5359 133.6631
" />
<path d="M178.5359 133.6631
L178.5359 133.8060
" />
<path d="M181.1788 134.5917
L180.3217 134.5917
" />
<path d="M180.7502 134.5917
L180.7502 133.0917
" />
<path d="M180.7502 133.0917
L180.6074 133.3060
" />
<path d="M180.6074 133.3060
L180.4645 133.4488
" />
<path d="M180.4645 133.4488
L180.3217 133.5203
" />
<path d="M182.8931 133.0203
L181.6074 134.9488
" />
<path d="M184.1788 134.5917
L183.3217 134.5917
" />
<path d="M183.7502 134.5917
L183.7502 133.0917
" />
<path d="M183.7502 133.0917
L183.6074 133.3060
" />
<path d="M183.6074 133.3060
L183.4645 133.4488
" />
<path d="M183.4645 133.4488
L183.3217 133.5203
" />
</g><path d="M90.0072 125.5058
L198.0072 125.5058
" />
</g>
<g style="fill:none; 
stroke:#840000; stroke-width:0.4000; stroke-opacity:1; 
stroke-linecap:round; stroke-linejoin:round;">
<text x="91.0072" y="128.3058"
textLength="9.6572" font-size="2.6666" lengthAdjust="spacingAndGlyphs"
text-anchor="start" opacity="0" stroke-opacity="0">Title: </text>
<g class="stroked-text"><desc>Title: </desc>
<path d="M91.6988 126.2102
L92.8417 126.2102
" />
<path d="M92.0203 128.2102
L92.2703 126.2102
" />
<path d="M93.2583 128.2102
L93.4250 126.8769
" />
<path d="M93.5083 126.2102
L93.4012 126.3054
" />
<path d="M93.4012 126.3054
L93.4845 126.4007
" />
<path d="M93.4845 126.4007
L93.5917 126.3054
" />
<path d="M93.5917 126.3054
L93.5083 126.2102
" />
<path d="M93.5083 126.2102
L93.4845 126.4007
" />
<path d="M94.0917 126.8769
L94.8536 126.8769
" />
<path d="M94.4607 126.2102
L94.2465 127.9245
" />
<path d="M94.2465 127.9245
L94.3179 128.1150
" />
<path d="M94.3179 128.1150
L94.4965 128.2102
" />
<path d="M94.4965 128.2102
L94.6869 128.2102
" />
<path d="M95.6394 128.2102
L95.4608 128.1150
" />
<path d="M95.4608 128.1150
L95.3894 127.9245
" />
<path d="M95.3894 127.9245
L95.6036 126.2102
" />
<path d="M97.1750 128.1150
L96.9727 128.2102
" />
<path d="M96.9727 128.2102
L96.5917 128.2102
" />
<path d="M96.5917 128.2102
L96.4131 128.1150
" />
<path d="M96.4131 128.1150
L96.3417 127.9245
" />
<path d="M96.3417 127.9245
L96.4370 127.1626
" />
<path d="M96.4370 127.1626
L96.5560 126.9721
" />
<path d="M96.5560 126.9721
L96.7584 126.8769
" />
<path d="M96.7584 126.8769
L97.1393 126.8769
" />
<path d="M97.1393 126.8769
L97.3179 126.9721
" />
<path d="M97.3179 126.9721
L97.3893 127.1626
" />
<path d="M97.3893 127.1626
L97.3655 127.3530
" />
<path d="M97.3655 127.3530
L96.3893 127.5435
" />
<path d="M98.1393 128.0197
L98.2227 128.1150
" />
<path d="M98.2227 128.1150
L98.1155 128.2102
" />
<path d="M98.1155 128.2102
L98.0322 128.1150
" />
<path d="M98.0322 128.1150
L98.1393 128.0197
" />
<path d="M98.1393 128.0197
L98.1155 128.2102
" />
<path d="M98.2703 126.9721
L98.3536 127.0673
" />
<path d="M98.3536 127.0673
L98.2465 127.1626
" />
<path d="M98.2465 127.1626
L98.1632 127.0673
" />
<path d="M98.1632 127.0673
L98.2703 126.9721
" />
<path d="M98.2703 126.9721
L98.2465 127.1626
" />
</g></g>
<g style="fill:none; 
stroke:#840000; stroke-width:0.1524; stroke-opacity:1; 
stroke-linecap:round; stroke-linejoin:round;">
<text x="91.0072" y="124.4558"
textLength="30.2999" font-size="2.0000" lengthAdjust="spacingAndGlyphs"
text-anchor="start" opacity="0" stroke-opacity="0">File: schematics.kicad_sch</text>
<g class="stroked-text"><desc>File: schematics.kicad_sch</desc>
<path d="M91.9645 123.6060
L91.4645 123.6060
" />
<path d="M91.4645 124.3917
L91.4645 122.8917
" />
<path d="M91.4645 122.8917
L92.1788 122.8917
" />
<path d="M92.7502 124.3917
L92.7502 123.3917
" />
<path d="M92.7502 122.8917
L92.6788 122.9631
" />
<path d="M92.6788 122.9631
L92.7502 123.0345
" />
<path d="M92.7502 123.0345
L92.8216 122.9631
" />
<path d="M92.8216 122.9631
L92.7502 122.8917
" />
<path d="M92.7502 122.8917
L92.7502 123.0345
" />
<path d="M93.6788 124.3917
L93.5359 124.3203
" />
<path d="M93.5359 124.3203
L93.4645 124.1774
" />
<path d="M93.4645 124.1774
L93.4645 122.8917
" />
<path d="M94.8216 124.3203
L94.6788 124.3917
" />
<path d="M94.6788 124.3917
L94.3931 124.3917
" />
<path d="M94.3931 124.3917
L94.2502 124.3203
" />
<path d="M94.2502 124.3203
L94.1788 124.1774
" />
<path d="M94.1788 124.1774
L94.1788 123.6060
" />
<path d="M94.1788 123.6060
L94.2502 123.4631
" />
<path d="M94.2502 123.4631
L94.3931 123.3917
" />
<path d="M94.3931 123.3917
L94.6788 123.3917
" />
<path d="M94.6788 123.3917
L94.8216 123.4631
" />
<path d="M94.8216 123.4631
L94.8931 123.6060
" />
<path d="M94.8931 123.6060
L94.8931 123.7488
" />
<path d="M94.8931 123.7488
L94.1788 123.8917
" />
<path d="M95.5359 124.2488
L95.6073 124.3203
" />
<path d="M95.6073 124.3203
L95.5359 124.3917
" />
<path d="M95.5359 124.3917
L95.4645 124.3203
" />
<path d="M95.4645 124.3203
L95.5359 124.2488
" />
<path d="M95.5359 124.2488
L95.5359 124.3917
" />
<path d="M95.5359 123.4631
L95.6073 123.5345
" />
<path d="M95.6073 123.5345
L95.5359 123.6060
" />
<path d="M95.5359 123.6060
L95.4645 123.5345
" />
<path d="M95.4645 123.5345
L95.5359 123.4631
" />
<path d="M95.5359 123.4631
L95.5359 123.6060
" />
<path d="M97.3217 124.3203
L97.4645 124.3917
" />
<path d="M97.4645 124.3917
L97.7502 124.3917
" />
<path d="M97.7502 124.3917
L97.8931 124.3203
" />
<path d="M97.8931 124.3203
L97.9645 124.1774
" />
<path d="M97.9645 124.1774
L97.9645 124.1060
" />
<path d="M97.9645 124.1060
L97.8931 123.9631
" />
<path d="M97.8931 123.9631
L97.7502 123.8917
" />
<path d="M97.7502 123.8917
L97.5360 123.8917
" />
<path d="M97.5360 123.8917
L97.3931 123.8203
" />
<path d="M97.3931 123.8203
L97.3217 123.6774
" />
<path d="M97.3217 123.6774
L97.3217 123.6060
" />
<path d="M97.3217 123.6060
L97.3931 123.4631
" />
<path d="M97.3931 123.4631
L97.5360 123.3917
" />
<path d="M97.5360 123.3917
L97.7502 123.3917
" />
<path d="M97.7502 123.3917
L97.8931 123.4631
" />
<path d="M99.2503 124.3203
L99.1074 124.3917
" />
<path d="M99.1074 124.3917
L98.8217 124.3917
" />
<path d="M98.8217 124.3917
L98.6788 124.3203
" />
<path d="M98.6788 124.3203
L98.6074 124.2488
" />
<path d="M98.6074 124.2488
L98.5360 124.1060
" />
<path d="M98.5360 124.1060
L98.5360 123.6774
" />
<path d="M98.5360 123.6774
L98.6074 123.5345
" />
<path d="M98.6074 123.5345
L98.6788 123.4631
" />
<path d="M98.6788 123.4631
L98.8217 123.3917
" />
<path d="M98.8217 123.3917
L99.1074 123.3917
" />
<path d="M99.1074 123.3917
L99.2503 123.4631
" />
<path d="M99.8931 124.3917
L99.8931 122.8917
" />
<path d="M100.5360 124.3917
L100.5360 123.6060
" />
<path d="M100.5360 123.6060
L100.4645 123.4631
" />
<path d="M100.4645 123.4631
L100.3217 123.3917
" />
<path d="M100.3217 123.3917
L100.1074 123.3917
" />
<path d="M100.1074 123.3917
L99.9645 123.4631
" />
<path d="M99.9645 123.4631
L99.8931 123.5345
" />
<path d="M101.8216 124.3203
L101.6788 124.3917
" />
<path d="M101.6788 124.3917
L101.3931 124.3917
" />
<path d="M101.3931 124.3917
L101.2502 124.3203
" />
<path d="M101.2502 124.3203
L101.1788 124.1774
" />
<path d="M101.1788 124.1774
L101.1788 123.6060
" />
<path d="M101.1788 123.6060
L101.2502 123.4631
" />
<path d="M101.2502 123.4631
L101.3931 123.3917
" />
<path d="M101.3931 123.3917
L101.6788 123.3917
" />
<path d="M101.6788 123.3917
L101.8216 123.4631
" />
<path d="M101.8216 123.4631
L101.8931 123.6060
" />
<path d="M101.8931 123.6060
L101.8931 123.7488
" />
<path d="M101.8931 123.7488
L101.1788 123.8917
" />
<path d="M102.5359 124.3917
L102.5359 123.3917
" />
<path d="M102.5359 123.5345
L102.6073 123.4631
" />
<path d="M102.6073 123.4631
L102.7502 123.3917
" />
<path d="M102.7502 123.3917
L102.9645 123.3917
" />
<path d="M102.9645 123.3917
L103.1073 123.4631
" />
<path d="M103.1073 123.4631
L103.1788 123.6060
" />
<path d="M103.1788 123.6060
L103.1788 124.3917
" />
<path d="M103.1788 123.6060
L103.2502 123.4631
" />
<path d="M103.2502 123.4631
L103.3930 123.3917
" />
<path d="M103.3930 123.3917
L103.6073 123.3917
" />
<path d="M103.6073 123.3917
L103.7502 123.4631
" />
<path d="M103.7502 123.4631
L103.8216 123.6060
" />
<path d="M103.8216 123.6060
L103.8216 124.3917
" />
<path d="M105.1788 124.3917
L105.1788 123.6060
" />
<path d="M105.1788 123.6060
L105.1073 123.4631
" />
<path d="M105.1073 123.4631
L104.9645 123.3917
" />
<path d="M104.9645 123.3917
L104.6788 123.3917
" />
<path d="M104.6788 123.3917
L104.5359 123.4631
" />
<path d="M105.1788 124.3203
L105.0359 124.3917
" />
<path d="M105.0359 124.3917
L104.6788 124.3917
" />
<path d="M104.6788 124.3917
L104.5359 124.3203
" />
<path d="M104.5359 124.3203
L104.4645 124.1774
" />
<path d="M104.4645 124.1774
L104.4645 124.0345
" />
<path d="M104.4645 124.0345
L104.5359 123.8917
" />
<path d="M104.5359 123.8917
L104.6788 123.8203
" />
<path d="M104.6788 123.8203
L105.0359 123.8203
" />
<path d="M105.0359 123.8203
L105.1788 123.7488
" />
<path d="M105.6787 123.3917
L106.2501 123.3917
" />
<path d="M105.8930 122.8917
L105.8930 124.1774
" />
<path d="M105.8930 124.1774
L105.9644 124.3203
" />
<path d="M105.9644 124.3203
L106.1073 124.3917
" />
<path d="M106.1073 124.3917
L106.2501 124.3917
" />
<path d="M106.7501 124.3917
L106.7501 123.3917
" />
<path d="M106.7501 122.8917
L106.6787 122.9631
" />
<path d="M106.6787 122.9631
L106.7501 123.0345
" />
<path d="M106.7501 123.0345
L106.8215 122.9631
" />
<path d="M106.8215 122.9631
L106.7501 122.8917
" />
<path d="M106.7501 122.8917
L106.7501 123.0345
" />
<path d="M108.1073 124.3203
L107.9644 124.3917
" />
<path d="M107.9644 124.3917
L107.6787 124.3917
" />
<path d="M107.6787 124.3917
L107.5358 124.3203
" />
<path d="M107.5358 124.3203
L107.4644 124.2488
" />
<path d="M107.4644 124.2488
L107.3930 124.1060
" />
<path d="M107.3930 124.1060
L107.3930 123.6774
" />
<path d="M107.3930 123.6774
L107.4644 123.5345
" />
<path d="M107.4644 123.5345
L107.5358 123.4631
" />
<path d="M107.5358 123.4631
L107.6787 123.3917
" />
<path d="M107.6787 123.3917
L107.9644 123.3917
" />
<path d="M107.9644 123.3917
L108.1073 123.4631
" />
<path d="M108.6787 124.3203
L108.8215 124.3917
" />
<path d="M108.8215 124.3917
L109.1072 124.3917
" />
<path d="M109.1072 124.3917
L109.2501 124.3203
" />
<path d="M109.2501 124.3203
L109.3215 124.1774
" />
<path d="M109.3215 124.1774
L109.3215 124.1060
" />
<path d="M109.3215 124.1060
L109.2501 123.9631
" />
<path d="M109.2501 123.9631
L109.1072 123.8917
" />
<path d="M109.1072 123.8917
L108.8930 123.8917
" />
<path d="M108.8930 123.8917
L108.7501 123.8203
" />
<path d="M108.7501 123.8203
L108.6787 123.6774
" />
<path d="M108.6787 123.6774
L108.6787 123.6060
" />
<path d="M108.6787 123.6060
L108.7501 123.4631
" />
<path d="M108.7501 123.4631
L108.8930 123.3917
" />
<path d="M108.8930 123.3917
L109.1072 123.3917
" />
<path d="M109.1072 123.3917
L109.2501 123.4631
" />
<path d="M109.9644 124.2488
L110.0358 124.3203
" />
<path d="M110.0358 124.3203
L109.9644 124.3917
" />
<path d="M109.9644 124.3917
L109.8930 124.3203
" />
<path d="M109.8930 124.3203
L109.9644 124.2488
" />
<path d="M109.9644 124.2488
L109.9644 124.3917
" />
<path d="M110.6787 124.3917
L110.6787 122.8917
" />
<path d="M110.8216 123.8203
L111.2501 124.3917
" />
<path d="M111.2501 123.3917
L110.6787 123.9631
" />
<path d="M111.8930 124.3917
L111.8930 123.3917
" />
<path d="M111.8930 122.8917
L111.8216 122.9631
" />
<path d="M111.8216 122.9631
L111.8930 123.0345
" />
<path d="M111.8930 123.0345
L111.9644 122.9631
" />
<path d="M111.9644 122.9631
L111.8930 122.8917
" />
<path d="M111.8930 122.8917
L111.8930 123.0345
" />
<path d="M113.2502 124.3203
L113.1073 124.3917
" />
<path d="M113.1073 124.3917
L112.8216 124.3917
" />
<path d="M112.8216 124.3917
L112.6787 124.3203
" />
<path d="M112.6787 124.3203
L112.6073 124.2488
" />
<path d="M112.6073 124.2488
L112.5359 124.1060
" />
<path d="M112.5359 124.1060
L112.5359 123.6774
" />
<path d="M112.5359 123.6774
L112.6073 123.5345
" />
<path d="M112.6073 123.5345
L112.6787 123.4631
" />
<path d="M112.6787 123.4631
L112.8216 123.3917
" />
<path d="M112.8216 123.3917
L113.1073 123.3917
" />
<path d="M113.1073 123.3917
L113.2502 123.4631
" />
<path d="M114.5359 124.3917
L114.5359 123.6060
" />
<path d="M114.5359 123.6060
L114.4644 123.4631
" />
<path d="M114.4644 123.4631
L114.3216 123.3917
" />
<path d="M114.3216 123.3917
L114.0359 123.3917
" />
<path d="M114.0359 123.3917
L113.8930 123.4631
" />
<path d="M114.5359 124.3203
L114.3930 124.3917
" />
<path d="M114.3930 124.3917
L114.0359 124.3917
" />
<path d="M114.0359 124.3917
L113.8930 124.3203
" />
<path d="M113.8930 124.3203
L113.8216 124.1774
" />
<path d="M113.8216 124.1774
L113.8216 124.0345
" />
<path d="M113.8216 124.0345
L113.8930 123.8917
" />
<path d="M113.8930 123.8917
L114.0359 123.8203
" />
<path d="M114.0359 123.8203
L114.3930 123.8203
" />
<path d="M114.3930 123.8203
L114.5359 123.7488
" />
<path d="M115.8930 124.3917
L115.8930 122.8917
" />
<path d="M115.8930 124.3203
L115.7501 124.3917
" />
<path d="M115.7501 124.3917
L115.4644 124.3917
" />
<path d="M115.4644 124.3917
L115.3215 124.3203
" />
<path d="M115.3215 124.3203
L115.2501 124.2488
" />
<path d="M115.2501 124.2488
L115.1787 124.1060
" />
<path d="M115.1787 124.1060
L115.1787 123.6774
" />
<path d="M115.1787 123.6774
L115.2501 123.5345
" />
<path d="M115.2501 123.5345
L115.3215 123.4631
" />
<path d="M115.3215 123.4631
L115.4644 123.3917
" />
<path d="M115.4644 123.3917
L115.7501 123.3917
" />
<path d="M115.7501 123.3917
L115.8930 123.4631
" />
<path d="M116.2501 124.5345
L117.3929 124.5345
" />
<path d="M117.6787 124.3203
L117.8215 124.3917
" />
<path d="M117.8215 124.3917
L118.1072 124.3917
" />
<path d="M118.1072 124.3917
L118.2501 124.3203
" />
<path d="M118.2501 124.3203
L118.3215 124.1774
" />
<path d="M118.3215 124.1774
L118.3215 124.1060
" />
<path d="M118.3215 124.1060
L118.2501 123.9631
" />
<path d="M118.2501 123.9631
L118.1072 123.8917
" />
<path d="M118.1072 123.8917
L117.8930 123.8917
" />
<path d="M117.8930 123.8917
L117.7501 123.8203
" />
<path d="M117.7501 123.8203
L117.6787 123.6774
" />
<path d="M117.6787 123.6774
L117.6787 123.6060
" />
<path d="M117.6787 123.6060
L117.7501 123.4631
" />
<path d="M117.7501 123.4631
L117.8930 123.3917
" />
<path d="M117.8930 123.3917
L118.1072 123.3917
" />
<path d="M118.1072 123.3917
L118.2501 123.4631
" />
<path d="M119.6073 124.3203
L119.4644 124.3917
" />
<path d="M119.4644 124.3917
L119.1787 124.3917
" />
<path d="M119.1787 124.3917
L119.0358 124.3203
" />
<path d="M119.0358 124.3203
L118.9644 124.2488
" />
<path d="M118.9644 124.2488
L118.8930 124.1060
" />
<path d="M118.8930 124.1060
L118.8930 123.6774
" />
<path d="M118.8930 123.6774
L118.9644 123.5345
" />
<path d="M118.9644 123.5345
L119.0358 123.4631
" />
<path d="M119.0358 123.4631
L119.1787 123.3917
" />
<path d="M119.1787 123.3917
L119.4644 123.3917
" />
<path d="M119.4644 123.3917
L119.6073 123.4631
" />
<path d="M120.2501 124.3917
L120.2501 122.8917
" />
<path d="M120.8930 124.3917
L120.8930 123.6060
" />
<path d="M120.8930 123.6060
L120.8215 123.4631
" />
<path d="M120.8215 123.4631
L120.6787 123.3917
" />
<path d="M120.6787 123.3917
L120.4644 123.3917
" />
<path d="M120.4644 123.3917
L120.3215 123.4631
" />
<path d="M120.3215 123.4631
L120.2501 123.5345
" />
</g><path d="M90.0072 119.5058
L198.0072 119.5058
" />
<text x="91.0072" y="121.7558"
textLength="9.8000" font-size="2.0000" lengthAdjust="spacingAndGlyphs"
text-anchor="start" opacity="0" stroke-opacity="0">Sheet: /</text>
<g class="stroked-text"><desc>Sheet: /</desc>
<path d="M91.3931 121.6203
L91.6074 121.6917
" />
<path d="M91.6074 121.6917
L91.9645 121.6917
" />
<path d="M91.9645 121.6917
L92.1074 121.6203
" />
<path d="M92.1074 121.6203
L92.1788 121.5488
" />
<path d="M92.1788 121.5488
L92.2502 121.4060
" />
<path d="M92.2502 121.4060
L92.2502 121.2631
" />
<path d="M92.2502 121.2631
L92.1788 121.1203
" />
<path d="M92.1788 121.1203
L92.1074 121.0488
" />
<path d="M92.1074 121.0488
L91.9645 120.9774
" />
<path d="M91.9645 120.9774
L91.6788 120.9060
" />
<path d="M91.6788 120.9060
L91.5359 120.8345
" />
<path d="M91.5359 120.8345
L91.4645 120.7631
" />
<path d="M91.4645 120.7631
L91.3931 120.6203
" />
<path d="M91.3931 120.6203
L91.3931 120.4774
" />
<path d="M91.3931 120.4774
L91.4645 120.3345
" />
<path d="M91.4645 120.3345
L91.5359 120.2631
" />
<path d="M91.5359 120.2631
L91.6788 120.1917
" />
<path d="M91.6788 120.1917
L92.0359 120.1917
" />
<path d="M92.0359 120.1917
L92.2502 120.2631
" />
<path d="M92.8931 121.6917
L92.8931 120.1917
" />
<path d="M93.5360 121.6917
L93.5360 120.9060
" />
<path d="M93.5360 120.9060
L93.4645 120.7631
" />
<path d="M93.4645 120.7631
L93.3217 120.6917
" />
<path d="M93.3217 120.6917
L93.1074 120.6917
" />
<path d="M93.1074 120.6917
L92.9645 120.7631
" />
<path d="M92.9645 120.7631
L92.8931 120.8345
" />
<path d="M94.8216 121.6203
L94.6788 121.6917
" />
<path d="M94.6788 121.6917
L94.3931 121.6917
" />
<path d="M94.3931 121.6917
L94.2502 121.6203
" />
<path d="M94.2502 121.6203
L94.1788 121.4774
" />
<path d="M94.1788 121.4774
L94.1788 120.9060
" />
<path d="M94.1788 120.9060
L94.2502 120.7631
" />
<path d="M94.2502 120.7631
L94.3931 120.6917
" />
<path d="M94.3931 120.6917
L94.6788 120.6917
" />
<path d="M94.6788 120.6917
L94.8216 120.7631
" />
<path d="M94.8216 120.7631
L94.8931 120.9060
" />
<path d="M94.8931 120.9060
L94.8931 121.0488
" />
<path d="M94.8931 121.0488
L94.1788 121.1917
" />
<path d="M96.1073 121.6203
L95.9645 121.6917
" />
<path d="M95.9645 121.6917
L95.6788 121.6917
" />
<path d="M95.6788 121.6917
L95.5359 121.6203
" />
<path d="M95.5359 121.6203
L95.4645 121.4774
" />
<path d="M95.4645 121.4774
L95.4645 120.9060
" />
<path d="M95.4645 120.9060
L95.5359 120.7631
" />
<path d="M95.5359 120.7631
L95.6788 120.6917
" />
<path d="M95.6788 120.6917
L95.9645 120.6917
" />
<path d="M95.9645 120.6917
L96.1073 120.7631
" />
<path d="M96.1073 120.7631
L96.1788 120.9060
" />
<path d="M96.1788 120.9060
L96.1788 121.0488
" />
<path d="M96.1788 121.0488
L95.4645 121.1917
" />
<path d="M96.6073 120.6917
L97.1787 120.6917
" />
<path d="M96.8216 120.1917
L96.8216 121.4774
" />
<path d="M96.8216 121.4774
L96.8930 121.6203
" />
<path d="M96.8930 121.6203
L97.0359 121.6917
" />
<path d="M97.0359 121.6917
L97.1787 121.6917
" />
<path d="M97.6787 121.5488
L97.7501 121.6203
" />
<path d="M97.7501 121.6203
L97.6787 121.6917
" />
<path d="M97.6787 121.6917
L97.6073 121.6203
" />
<path d="M97.6073 121.6203
L97.6787 121.5488
" />
<path d="M97.6787 121.5488
L97.6787 121.6917
" />
<path d="M97.6787 120.7631
L97.7501 120.8345
" />
<path d="M97.7501 120.8345
L97.6787 120.9060
" />
<path d="M97.6787 120.9060
L97.6073 120.8345
" />
<path d="M97.6073 120.8345
L97.6787 120.7631
" />
<path d="M97.6787 120.7631
L97.6787 120.9060
" />
<path d="M100.6073 120.1203
L99.3216 122.0488
" />
</g></g>
<g style="fill:none; 
stroke:#840000; stroke-width:0.3000; stroke-opacity:1; 
stroke-linecap:round; stroke-linejoin:round;">
<text x="91.0072" y="118.7558"
textLength="0.9000" font-size="2.0000" lengthAdjust="spacingAndGlyphs"
text-anchor="start" opacity="0" stroke-opacity="0"></text>
<g class="stroked-text"><desc></desc>
</g></g>
<g style="fill:none; 
stroke:#840000; stroke-width:0.1524; stroke-opacity:1; 
stroke-linecap:round; stroke-linejoin:round;">
<text x="91.0072" y="115.7558"
textLength="0.4572" font-size="2.0000" lengthAdjust="spacingAndGlyphs"
text-anchor="start" opacity="0" stroke-opacity="0"></text>
<g class="stroked-text"><desc></desc>
</g><text x="91.0072" y="112.7558"
textLength="0.4572" font-size="2.0000" lengthAdjust="spacingAndGlyphs"
text-anchor="start" opacity="0" stroke-opacity="0"></text>
<g class="stroked-text"><desc></desc>
</g><text x="91.0072" y="109.7558"
textLength="0.4572" font-size="2.0000" lengthAdjust="spacingAndGlyphs"
text-anchor="start" opacity="0" stroke-opacity="0"></text>
<g class="stroked-text"><desc></desc>
</g><text x="91.0072" y="106.7558"
textLength="0.4572" font-size="2.0000" lengthAdjust="spacingAndGlyphs"
text-anchor="start" opacity="0" stroke-opacity="0"></text>
<g class="stroked-text"><desc></desc>
</g><path d="M110.0072 129.5058
L110.0072 132.5058
" />
<path d="M174.0072 129.5058
L174.0072 136.0058
" />
</g>
<g style="fill:none; 
stroke:#840000; stroke-width:0.2540; stroke-opacity:1; 
stroke-linecap:round; stroke-linejoin:round;">
<rect x="66.294000" y="40.640000" width="2.032000" height="5.080000" rx="0.000000" />
</g>
<g style="fill:none; 
stroke:#840000; stroke-width:0.1524; stroke-opacity:1; 
stroke-linecap:round; stroke-linejoin:round;">
<path d="M67.3100 45.7200
L67.3100 46.9900
" />
<path d="M67.3100 40.6400
L67.3100 39.3700
" />
</g>
<g style="fill:none; 
stroke:#006464; stroke-width:0.1524; stroke-opacity:1; 
stroke-linecap:round; stroke-linejoin:round;">
<text x="71.2009" y="42.5448"
textLength="2.6827" font-size="1.6933" lengthAdjust="spacingAndGlyphs"
text-anchor="middle" opacity="0" stroke-opacity="0">R3</text>
<g class="stroked-text"><desc>R3</desc>
<path d="M70.9892 42.4893
L70.5659 41.8846
" />
<path d="M70.2635 42.4893
L70.2635 41.2193
" />
<path d="M70.2635 41.2193
L70.7473 41.2193
" />
<path d="M70.7473 41.2193
L70.8683 41.2798
" />
<path d="M70.8683 41.2798
L70.9288 41.3403
" />
<path d="M70.9288 41.3403
L70.9892 41.4612
" />
<path d="M70.9892 41.4612
L70.9892 41.6427
" />
<path d="M70.9892 41.6427
L70.9288 41.7636
" />
<path d="M70.9288 41.7636
L70.8683 41.8241
" />
<path d="M70.8683 41.8241
L70.7473 41.8846
" />
<path d="M70.7473 41.8846
L70.2635 41.8846
" />
<path d="M71.4126 41.2193
L72.1988 41.2193
" />
<path d="M72.1988 41.2193
L71.7754 41.7031
" />
<path d="M71.7754 41.7031
L71.9569 41.7031
" />
<path d="M71.9569 41.7031
L72.0778 41.7636
" />
<path d="M72.0778 41.7636
L72.1383 41.8241
" />
<path d="M72.1383 41.8241
L72.1988 41.9450
" />
<path d="M72.1988 41.9450
L72.1988 42.2474
" />
<path d="M72.1988 42.2474
L72.1383 42.3684
" />
<path d="M72.1383 42.3684
L72.0778 42.4289
" />
<path d="M72.0778 42.4289
L71.9569 42.4893
" />
<path d="M71.9569 42.4893
L71.5940 42.4893
" />
<path d="M71.5940 42.4893
L71.4731 42.4289
" />
<path d="M71.4731 42.4289
L71.4126 42.3684
" />
</g><text x="71.7754" y="45.0848"
textLength="3.8317" font-size="1.6933" lengthAdjust="spacingAndGlyphs"
text-anchor="middle" opacity="0" stroke-opacity="0">100</text>
<g class="stroked-text"><desc>100</desc>
<path d="M70.9288 45.0293
L70.2031 45.0293
" />
<path d="M70.5659 45.0293
L70.5659 43.7593
" />
<path d="M70.5659 43.7593
L70.4450 43.9408
" />
<path d="M70.4450 43.9408
L70.3240 44.0617
" />
<path d="M70.3240 44.0617
L70.2031 44.1222
" />
<path d="M71.7149 43.7593
L71.8359 43.7593
" />
<path d="M71.8359 43.7593
L71.9568 43.8198
" />
<path d="M71.9568 43.8198
L72.0173 43.8803
" />
<path d="M72.0173 43.8803
L72.0778 44.0012
" />
<path d="M72.0778 44.0012
L72.1383 44.2431
" />
<path d="M72.1383 44.2431
L72.1383 44.5455
" />
<path d="M72.1383 44.5455
L72.0778 44.7874
" />
<path d="M72.0778 44.7874
L72.0173 44.9084
" />
<path d="M72.0173 44.9084
L71.9568 44.9689
" />
<path d="M71.9568 44.9689
L71.8359 45.0293
" />
<path d="M71.8359 45.0293
L71.7149 45.0293
" />
<path d="M71.7149 45.0293
L71.5940 44.9689
" />
<path d="M71.5940 44.9689
L71.5335 44.9084
" />
<path d="M71.5335 44.9084
L71.4730 44.7874
" />
<path d="M71.4730 44.7874
L71.4126 44.5455
" />
<path d="M71.4126 44.5455
L71.4126 44.2431
" />
<path d="M71.4126 44.2431
L71.4730 44.0012
" />
<path d="M71.4730 44.0012
L71.5335 43.8803
" />
<path d="M71.5335 43.8803
L71.5940 43.8198
" />
<path d="M71.5940 43.8198
L71.7149 43.7593
" />
<path d="M72.9244 43.7593
L73.0454 43.7593
" />
<path d="M73.0454 43.7593
L73.1663 43.8198
" />
<path d="M73.1663 43.8198
L73.2268 43.8803
" />
<path d="M73.2268 43.8803
L73.2873 44.0012
" />
<path d="M73.2873 44.0012
L73.3478 44.2431
" />
<path d="M73.3478 44.2431
L73.3478 44.5455
" />
<path d="M73.3478 44.5455
L73.2873 44.7874
" />
<path d="M73.2873 44.7874
L73.2268 44.9084
" />
<path d="M73.2268 44.9084
L73.1663 44.9689
" />
<path d="M73.1663 44.9689
L73.0454 45.0293
" />
<path d="M73.0454 45.0293
L72.9244 45.0293
" />
<path d="M72.9244 45.0293
L72.8035 44.9689
" />
<path d="M72.8035 44.9689
L72.7430 44.9084
" />
<path d="M72.7430 44.9084
L72.6825 44.7874
" />
<path d="M72.6825 44.7874
L72.6221 44.5455
" />
<path d="M72.6221 44.5455
L72.6221 44.2431
" />
<path d="M72.6221 44.2431
L72.6825 44.0012
" />
<path d="M72.6825 44.0012
L72.7430 43.8803
" />
<path d="M72.7430 43.8803
L72.8035 43.8198
" />
<path d="M72.8035 43.8198
L72.9244 43.7593
" />
</g></g>
<g style="fill:none; 
stroke:#840000; stroke-width:0.2540; stroke-opacity:1; 
stroke-linecap:round; stroke-linejoin:round;">
<rect x="54.610000" y="26.924000" width="5.080000" height="2.032000" rx="0.000000" />
</g>
<g style="fill:none; 
stroke:#840000; stroke-width:0.1524; stroke-opacity:1; 
stroke-linecap:round; stroke-linejoin:round;">
<path d="M54.6100 27.9400
L53.3400 27.9400
" />
<path d="M59.6900 27.9400
L60.9600 27.9400
" />
</g>
<g style="fill:none; 
stroke:#006464; stroke-width:0.1524; stroke-opacity:1; 
stroke-linecap:round; stroke-linejoin:round;">
<text x="57.1499" y="22.2249"
textLength="2.6827" font-size="1.6933" lengthAdjust="spacingAndGlyphs"
text-anchor="middle" opacity="0" stroke-opacity="0">R4</text>
<g class="stroked-text"><desc>R4</desc>
<path d="M56.9382 22.1694
L56.5149 21.5647
" />
<path d="M56.2125 22.1694
L56.2125 20.8994
" />
<path d="M56.2125 20.8994
L56.6963 20.8994
" />
<path d="M56.6963 20.8994
L56.8173 20.9599
" />
<path d="M56.8173 20.9599
L56.8778 21.0204
" />
<path d="M56.8778 21.0204
L56.9382 21.1413
" />
<path d="M56.9382 21.1413
L56.9382 21.3228
" />
<path d="M56.9382 21.3228
L56.8778 21.4437
" />
<path d="M56.8778 21.4437
L56.8173 21.5042
" />
<path d="M56.8173 21.5042
L56.6963 21.5647
" />
<path d="M56.6963 21.5647
L56.2125 21.5647
" />
<path d="M58.0268 21.3228
L58.0268 22.1694
" />
<path d="M57.7244 20.8390
L57.4221 21.7461
" />
<path d="M57.4221 21.7461
L58.2082 21.7461
" />
</g><text x="57.1499" y="24.7649"
textLength="3.8317" font-size="1.6933" lengthAdjust="spacingAndGlyphs"
text-anchor="middle" opacity="0" stroke-opacity="0">100</text>
<g class="stroked-text"><desc>100</desc>
<path d="M56.3033 24.7094
L55.5776 24.7094
" />
<path d="M55.9404 24.7094
L55.9404 23.4394
" />
<path d="M55.9404 23.4394
L55.8195 23.6209
" />
<path d="M55.8195 23.6209
L55.6985 23.7418
" />
<path d="M55.6985 23.7418
L55.5776 23.8023
" />
<path d="M57.0894 23.4394
L57.2104 23.4394
" />
<path d="M57.2104 23.4394
L57.3313 23.4999
" />
<path d="M57.3313 23.4999
L57.3918 23.5604
" />
<path d="M57.3918 23.5604
L57.4523 23.6813
" />
<path d="M57.4523 23.6813
L57.5128 23.9232
" />
<path d="M57.5128 23.9232
L57.5128 24.2256
" />
<path d="M57.5128 24.2256
L57.4523 24.4675
" />
<path d="M57.4523 24.4675
L57.3918 24.5885
" />
<path d="M57.3918 24.5885
L57.3313 24.6490
" />
<path d="M57.3313 24.6490
L57.2104 24.7094
" />
<path d="M57.2104 24.7094
L57.0894 24.7094
" />
<path d="M57.0894 24.7094
L56.9685 24.6490
" />
<path d="M56.9685 24.6490
L56.9080 24.5885
" />
<path d="M56.9080 24.5885
L56.8475 24.4675
" />
<path d="M56.8475 24.4675
L56.7871 24.2256
" />
<path d="M56.7871 24.2256
L56.7871 23.9232
" />
<path d="M56.7871 23.9232
L56.8475 23.6813
" />
<path d="M56.8475 23.6813
L56.9080 23.5604
" />
<path d="M56.9080 23.5604
L56.9685 23.4999
" />
<path d="M56.9685 23.4999
L57.0894 23.4394
" />
<path d="M58.2989 23.4394
L58.4199 23.4394
" />
<path d="M58.4199 23.4394
L58.5408 23.4999
" />
<path d="M58.5408 23.4999
L58.6013 23.5604
" />
<path d="M58.6013 23.5604
L58.6618 23.6813
" />
<path d="M58.6618 23.6813
L58.7223 23.9232
" />
<path d="M58.7223 23.9232
L58.7223 24.2256
" />
<path d="M58.7223 24.2256
L58.6618 24.4675
" />
<path d="M58.6618 24.4675
L58.6013 24.5885
" />
<path d="M58.6013 24.5885
L58.5408 24.6490
" />
<path d="M58.5408 24.6490
L58.4199 24.7094
" />
<path d="M58.4199 24.7094
L58.2989 24.7094
" />
<path d="M58.2989 24.7094
L58.1780 24.6490
" />
<path d="M58.1780 24.6490
L58.1175 24.5885
" />
<path d="M58.1175 24.5885
L58.0570 24.4675
" />
<path d="M58.0570 24.4675
L57.9966 24.2256
" />
<path d="M57.9966 24.2256
L57.9966 23.9232
" />
<path d="M57.9966 23.9232
L58.0570 23.6813
" />
<path d="M58.0570 23.6813
L58.1175 23.5604
" />
<path d="M58.1175 23.5604
L58.1780 23.4999
" />
<path d="M58.1780 23.4999
L58.2989 23.4394
" />
</g></g>
<g style="fill:#FFFFC2; fill-opacity:1.0000; stroke:none;">
<circle cx="83.8200" cy="43.1800" r="2.5400" /> 
<path style="fill:none; 
stroke:#840000; stroke-width:0.1524; stroke-opacity:1; 
stroke-linecap:round; stroke-linejoin:round;fill:none"
d="M 82.5500,42.9260
85.0900,42.9260
" /> 
<path style="fill:none; 
stroke:#840000; stroke-width:0.1524; stroke-opacity:1; 
stroke-linecap:round; stroke-linejoin:round;fill:none"
d="M 83.0580,43.4340
82.5500,43.4340
" /> 
<path style="fill:none; 
stroke:#840000; stroke-width:0.1524; stroke-opacity:1; 
stroke-linecap:round; stroke-linejoin:round;fill:none"
d="M 84.0740,43.4340
83.5660,43.4340
" /> 
<path style="fill:none; 
stroke:#840000; stroke-width:0.1524; stroke-opacity:1; 
stroke-linecap:round; stroke-linejoin:round;fill:none"
d="M 85.0900,43.4340
84.5820,43.4340
" /> 
<path style="fill:none; 
stroke:#840000; stroke-width:0.1524; stroke-opacity:1; 
stroke-linecap:round; stroke-linejoin:round;fill:none"
d="M 83.5660,41.4020
83.8200,41.9100
84.0740,41.4020
" /> 
<path style="fill:none; 
stroke:#840000; stroke-width:0.1524; stroke-opacity:1; 
stroke-linecap:round; stroke-linejoin:round;fill:none"
d="M 83.8200,41.9100
83.8200,40.8940
" /> 
</g>
<g style="fill:none; 
stroke:#840000; stroke-width:0.2540; stroke-opacity:1; 
stroke-linecap:round; stroke-linejoin:round;">
<circle cx="83.8200" cy="43.1800" r="2.5400" /> 
</g>
<g style="fill:none; 
stroke:#840000; stroke-width:0.1524; stroke-opacity:1; 
stroke-linecap:round; stroke-linejoin:round;">
<path d="M83.8200 40.6400
L83.8200 38.1000
" />
<path d="M83.8200 45.7200
L83.8200 48.2600
" />
</g>
<g style="fill:none; 
stroke:#006464; stroke-width:0.1524; stroke-opacity:1; 
stroke-linecap:round; stroke-linejoin:round;">
<text x="88.6483" y="42.5449"
textLength="2.0175" font-size="1.6933" lengthAdjust="spacingAndGlyphs"
text-anchor="middle" opacity="0" stroke-opacity="0">I1</text>
<g class="stroked-text"><desc>I1</desc>
<path d="M88.0435 42.4894
L88.0435 41.2194
" />
<path d="M89.3136 42.4894
L88.5879 42.4894
" />
<path d="M88.9507 42.4894
L88.9507 41.2194
" />
<path d="M88.9507 41.2194
L88.8298 41.4009
" />
<path d="M88.8298 41.4009
L88.7088 41.5218
" />
<path d="M88.7088 41.5218
L88.5879 41.5823
" />
</g><text x="90.4021" y="45.0849"
textLength="5.5251" font-size="1.6933" lengthAdjust="spacingAndGlyphs"
text-anchor="middle" opacity="0" stroke-opacity="0">0.02A</text>
<g class="stroked-text"><desc>0.02A</desc>
<path d="M88.2854 43.7594
L88.4064 43.7594
" />
<path d="M88.4064 43.7594
L88.5273 43.8199
" />
<path d="M88.5273 43.8199
L88.5878 43.8804
" />
<path d="M88.5878 43.8804
L88.6483 44.0013
" />
<path d="M88.6483 44.0013
L88.7088 44.2432
" />
<path d="M88.7088 44.2432
L88.7088 44.5456
" />
<path d="M88.7088 44.5456
L88.6483 44.7875
" />
<path d="M88.6483 44.7875
L88.5878 44.9085
" />
<path d="M88.5878 44.9085
L88.5273 44.9690
" />
<path d="M88.5273 44.9690
L88.4064 45.0294
" />
<path d="M88.4064 45.0294
L88.2854 45.0294
" />
<path d="M88.2854 45.0294
L88.1645 44.9690
" />
<path d="M88.1645 44.9690
L88.1040 44.9085
" />
<path d="M88.1040 44.9085
L88.0435 44.7875
" />
<path d="M88.0435 44.7875
L87.9831 44.5456
" />
<path d="M87.9831 44.5456
L87.9831 44.2432
" />
<path d="M87.9831 44.2432
L88.0435 44.0013
" />
<path d="M88.0435 44.0013
L88.1040 43.8804
" />
<path d="M88.1040 43.8804
L88.1645 43.8199
" />
<path d="M88.1645 43.8199
L88.2854 43.7594
" />
<path d="M89.2530 44.9085
L89.3135 44.9690
" />
<path d="M89.3135 44.9690
L89.2530 45.0294
" />
<path d="M89.2530 45.0294
L89.1926 44.9690
" />
<path d="M89.1926 44.9690
L89.2530 44.9085
" />
<path d="M89.2530 44.9085
L89.2530 45.0294
" />
<path d="M90.0997 43.7594
L90.2207 43.7594
" />
<path d="M90.2207 43.7594
L90.3416 43.8199
" />
<path d="M90.3416 43.8199
L90.4021 43.8804
" />
<path d="M90.4021 43.8804
L90.4626 44.0013
" />
<path d="M90.4626 44.0013
L90.5231 44.2432
" />
<path d="M90.5231 44.2432
L90.5231 44.5456
" />
<path d="M90.5231 44.5456
L90.4626 44.7875
" />
<path d="M90.4626 44.7875
L90.4021 44.9085
" />
<path d="M90.4021 44.9085
L90.3416 44.9690
" />
<path d="M90.3416 44.9690
L90.2207 45.0294
" />
<path d="M90.2207 45.0294
L90.0997 45.0294
" />
<path d="M90.0997 45.0294
L89.9788 44.9690
" />
<path d="M89.9788 44.9690
L89.9183 44.9085
" />
<path d="M89.9183 44.9085
L89.8578 44.7875
" />
<path d="M89.8578 44.7875
L89.7974 44.5456
" />
<path d="M89.7974 44.5456
L89.7974 44.2432
" />
<path d="M89.7974 44.2432
L89.8578 44.0013
" />
<path d="M89.8578 44.0013
L89.9183 43.8804
" />
<path d="M89.9183 43.8804
L89.9788 43.8199
" />
<path d="M89.9788 43.8199
L90.0997 43.7594
" />
<path d="M91.0069 43.8804
L91.0673 43.8199
" />
<path d="M91.0673 43.8199
L91.1883 43.7594
" />
<path d="M91.1883 43.7594
L91.4907 43.7594
" />
<path d="M91.4907 43.7594
L91.6116 43.8199
" />
<path d="M91.6116 43.8199
L91.6721 43.8804
" />
<path d="M91.6721 43.8804
L91.7326 44.0013
" />
<path d="M91.7326 44.0013
L91.7326 44.1223
" />
<path d="M91.7326 44.1223
L91.6721 44.3037
" />
<path d="M91.6721 44.3037
L90.9464 45.0294
" />
<path d="M90.9464 45.0294
L91.7326 45.0294
" />
<path d="M92.2164 44.6666
L92.8211 44.6666
" />
<path d="M92.0954 45.0294
L92.5187 43.7594
" />
<path d="M92.5187 43.7594
L92.9421 45.0294
" />
</g></g>
<g style="fill:none; 
stroke:#840000; stroke-width:0.2540; stroke-opacity:1; 
stroke-linecap:round; stroke-linejoin:round;">
<rect x="44.704000" y="40.640000" width="2.032000" height="5.080000" rx="0.000000" />
</g>
<g style="fill:none; 
stroke:#840000; stroke-width:0.1524; stroke-opacity:1; 
stroke-linecap:round; stroke-linejoin:round;">
<path d="M45.7200 40.6400
L45.7200 39.3700
" />
<path d="M45.7200 45.7200
L45.7200 46.9900
" />
</g>
<g style="fill:none; 
stroke:#006464; stroke-width:0.1524; stroke-opacity:1; 
stroke-linecap:round; stroke-linejoin:round;">
<text x="49.6109" y="42.5449"
textLength="2.6827" font-size="1.6933" lengthAdjust="spacingAndGlyphs"
text-anchor="middle" opacity="0" stroke-opacity="0">R2</text>
<g class="stroked-text"><desc>R2</desc>
<path d="M49.3992 42.4894
L48.9759 41.8847
" />
<path d="M48.6735 42.4894
L48.6735 41.2194
" />
<path d="M48.6735 41.2194
L49.1573 41.2194
" />
<path d="M49.1573 41.2194
L49.2783 41.2799
" />
<path d="M49.2783 41.2799
L49.3388 41.3404
" />
<path d="M49.3388 41.3404
L49.3992 41.4613
" />
<path d="M49.3992 41.4613
L49.3992 41.6428
" />
<path d="M49.3992 41.6428
L49.3388 41.7637
" />
<path d="M49.3388 41.7637
L49.2783 41.8242
" />
<path d="M49.2783 41.8242
L49.1573 41.8847
" />
<path d="M49.1573 41.8847
L48.6735 41.8847
" />
<path d="M49.8831 41.3404
L49.9435 41.2799
" />
<path d="M49.9435 41.2799
L50.0645 41.2194
" />
<path d="M50.0645 41.2194
L50.3669 41.2194
" />
<path d="M50.3669 41.2194
L50.4878 41.2799
" />
<path d="M50.4878 41.2799
L50.5483 41.3404
" />
<path d="M50.5483 41.3404
L50.6088 41.4613
" />
<path d="M50.6088 41.4613
L50.6088 41.5823
" />
<path d="M50.6088 41.5823
L50.5483 41.7637
" />
<path d="M50.5483 41.7637
L49.8226 42.4894
" />
<path d="M49.8226 42.4894
L50.6088 42.4894
" />
</g><text x="50.1854" y="45.0849"
textLength="3.8317" font-size="1.6933" lengthAdjust="spacingAndGlyphs"
text-anchor="middle" opacity="0" stroke-opacity="0">180</text>
<g class="stroked-text"><desc>180</desc>
<path d="M49.3388 45.0294
L48.6131 45.0294
" />
<path d="M48.9759 45.0294
L48.9759 43.7594
" />
<path d="M48.9759 43.7594
L48.8550 43.9409
" />
<path d="M48.8550 43.9409
L48.7340 44.0618
" />
<path d="M48.7340 44.0618
L48.6131 44.1223
" />
<path d="M50.0645 44.3037
L49.9435 44.2432
" />
<path d="M49.9435 44.2432
L49.8830 44.1828
" />
<path d="M49.8830 44.1828
L49.8226 44.0618
" />
<path d="M49.8226 44.0618
L49.8226 44.0013
" />
<path d="M49.8226 44.0013
L49.8830 43.8804
" />
<path d="M49.8830 43.8804
L49.9435 43.8199
" />
<path d="M49.9435 43.8199
L50.0645 43.7594
" />
<path d="M50.0645 43.7594
L50.3064 43.7594
" />
<path d="M50.3064 43.7594
L50.4273 43.8199
" />
<path d="M50.4273 43.8199
L50.4878 43.8804
" />
<path d="M50.4878 43.8804
L50.5483 44.0013
" />
<path d="M50.5483 44.0013
L50.5483 44.0618
" />
<path d="M50.5483 44.0618
L50.4878 44.1828
" />
<path d="M50.4878 44.1828
L50.4273 44.2432
" />
<path d="M50.4273 44.2432
L50.3064 44.3037
" />
<path d="M50.3064 44.3037
L50.0645 44.3037
" />
<path d="M50.0645 44.3037
L49.9435 44.3642
" />
<path d="M49.9435 44.3642
L49.8830 44.4247
" />
<path d="M49.8830 44.4247
L49.8226 44.5456
" />
<path d="M49.8226 44.5456
L49.8226 44.7875
" />
<path d="M49.8226 44.7875
L49.8830 44.9085
" />
<path d="M49.8830 44.9085
L49.9435 44.9690
" />
<path d="M49.9435 44.9690
L50.0645 45.0294
" />
<path d="M50.0645 45.0294
L50.3064 45.0294
" />
<path d="M50.3064 45.0294
L50.4273 44.9690
" />
<path d="M50.4273 44.9690
L50.4878 44.9085
" />
<path d="M50.4878 44.9085
L50.5483 44.7875
" />
<path d="M50.5483 44.7875
L50.5483 44.5456
" />
<path d="M50.5483 44.5456
L50.4878 44.4247
" />
<path d="M50.4878 44.4247
L50.4273 44.3642
" />
<path d="M50.4273 44.3642
L50.3064 44.3037
" />
<path d="M51.3344 43.7594
L51.4554 43.7594
" />
<path d="M51.4554 43.7594
L51.5763 43.8199
" />
<path d="M51.5763 43.8199
L51.6368 43.8804
" />
<path d="M51.6368 43.8804
L51.6973 44.0013
" />
<path d="M51.6973 44.0013
L51.7578 44.2432
" />
<path d="M51.7578 44.2432
L51.7578 44.5456
" />
<path d="M51.7578 44.5456
L51.6973 44.7875
" />
<path d="M51.6973 44.7875
L51.6368 44.9085
" />
<path d="M51.6368 44.9085
L51.5763 44.9690
" />
<path d="M51.5763 44.9690
L51.4554 45.0294
" />
<path d="M51.4554 45.0294
L51.3344 45.0294
" />
<path d="M51.3344 45.0294
L51.2135 44.9690
" />
<path d="M51.2135 44.9690
L51.1530 44.9085
" />
<path d="M51.1530 44.9085
L51.0925 44.7875
" />
<path d="M51.0925 44.7875
L51.0321 44.5456
" />
<path d="M51.0321 44.5456
L51.0321 44.2432
" />
<path d="M51.0321 44.2432
L51.0925 44.0013
" />
<path d="M51.0925 44.0013
L51.1530 43.8804
" />
<path d="M51.1530 43.8804
L51.2135 43.8199
" />
<path d="M51.2135 43.8199
L51.3344 43.7594
" />
</g><path style="fill:none; 
stroke:#840000; stroke-width:0.1524; stroke-opacity:1; 
stroke-linecap:round; stroke-linejoin:round;fill:none"
d="M 44.4500,62.2300
45.7200,63.5000
46.9900,62.2300
Z" /> 
</g>
<g style="fill:none; 
stroke:#840000; stroke-width:0.1524; stroke-opacity:1; 
stroke-linecap:round; stroke-linejoin:round;">
<path d="M45.7200 62.2300
L45.7200 62.2300
" />
</g>
<g style="fill:none; 
stroke:#006464; stroke-width:0.1524; stroke-opacity:1; 
stroke-linecap:round; stroke-linejoin:round;">
<text x="46.9900" y="61.0870"
textLength="1.4127" font-size="1.6933" lengthAdjust="spacingAndGlyphs"
text-anchor="middle" opacity="0" stroke-opacity="0">0</text>
<g class="stroked-text"><desc>0</desc>
<path d="M46.9295 59.7615
L47.0505 59.7615
" />
<path d="M47.0505 59.7615
L47.1714 59.8220
" />
<path d="M47.1714 59.8220
L47.2319 59.8825
" />
<path d="M47.2319 59.8825
L47.2924 60.0034
" />
<path d="M47.2924 60.0034
L47.3529 60.2453
" />
<path d="M47.3529 60.2453
L47.3529 60.5477
" />
<path d="M47.3529 60.5477
L47.2924 60.7896
" />
<path d="M47.2924 60.7896
L47.2319 60.9106
" />
<path d="M47.2319 60.9106
L47.1714 60.9711
" />
<path d="M47.1714 60.9711
L47.0505 61.0315
" />
<path d="M47.0505 61.0315
L46.9295 61.0315
" />
<path d="M46.9295 61.0315
L46.8086 60.9711
" />
<path d="M46.8086 60.9711
L46.7481 60.9106
" />
<path d="M46.7481 60.9106
L46.6876 60.7896
" />
<path d="M46.6876 60.7896
L46.6272 60.5477
" />
<path d="M46.6272 60.5477
L46.6272 60.2453
" />
<path d="M46.6272 60.2453
L46.6876 60.0034
" />
<path d="M46.6876 60.0034
L46.7481 59.8825
" />
<path d="M46.7481 59.8825
L46.8086 59.8220
" />
<path d="M46.8086 59.8220
L46.9295 59.7615
" />
</g></g>
<g style="fill:#FFFFC2; fill-opacity:1.0000; stroke:none;">
<circle cx="21.5900" cy="43.1800" r="2.5400" /> 
<path style="fill:none; 
stroke:#840000; stroke-width:0.1524; stroke-opacity:1; 
stroke-linecap:round; stroke-linejoin:round;fill:none"
d="M 20.3200,42.9260
22.8600,42.9260
" /> 
<path style="fill:none; 
stroke:#840000; stroke-width:0.1524; stroke-opacity:1; 
stroke-linecap:round; stroke-linejoin:round;fill:none"
d="M 20.8280,43.4340
20.3200,43.4340
" /> 
<path style="fill:none; 
stroke:#840000; stroke-width:0.1524; stroke-opacity:1; 
stroke-linecap:round; stroke-linejoin:round;fill:none"
d="M 21.8440,43.4340
21.3360,43.4340
" /> 
<path style="fill:none; 
stroke:#840000; stroke-width:0.1524; stroke-opacity:1; 
stroke-linecap:round; stroke-linejoin:round;fill:none"
d="M 22.8600,43.4340
22.3520,43.4340
" /> 
</g>
<g style="fill:none; 
stroke:#840000; stroke-width:0.2540; stroke-opacity:1; 
stroke-linecap:round; stroke-linejoin:round;">
<circle cx="21.5900" cy="43.1800" r="2.5400" /> 
</g>
<g style="fill:none; 
stroke:#840000; stroke-width:0.1524; stroke-opacity:1; 
stroke-linecap:round; stroke-linejoin:round;">
<text x="21.5900" y="41.9100"
textLength="1.7756" font-size="1.6933" lengthAdjust="spacingAndGlyphs"
text-anchor="middle" opacity="0" stroke-opacity="0">+</text>
<g class="stroked-text"><desc>+</desc>
<path d="M21.1061 41.3707
L22.0738 41.3707
" />
<path d="M21.5899 41.8545
L21.5899 40.8869
" />
</g><path d="M21.5900 40.6400
L21.5900 38.1000
" />
<path d="M21.5900 45.7200
L21.5900 48.2600
" />
</g>
<g style="fill:none; 
stroke:#006464; stroke-width:0.1524; stroke-opacity:1; 
stroke-linecap:round; stroke-linejoin:round;">
<text x="26.6602" y="42.4151"
textLength="2.5013" font-size="1.6933" lengthAdjust="spacingAndGlyphs"
text-anchor="middle" opacity="0" stroke-opacity="0">V1</text>
<g class="stroked-text"><desc>V1</desc>
<path d="M25.6321 41.0896
L26.0554 42.3596
" />
<path d="M26.0554 42.3596
L26.4788 41.0896
" />
<path d="M27.5674 42.3596
L26.8417 42.3596
" />
<path d="M27.2045 42.3596
L27.2045 41.0896
" />
<path d="M27.2045 41.0896
L27.0836 41.2711
" />
<path d="M27.0836 41.2711
L26.9626 41.3920
" />
<path d="M26.9626 41.3920
L26.8417 41.4525
" />
</g><text x="26.1159" y="44.9551"
textLength="1.4127" font-size="1.6933" lengthAdjust="spacingAndGlyphs"
text-anchor="middle" opacity="0" stroke-opacity="0">5</text>
<g class="stroked-text"><desc>5</desc>
<path d="M26.4183 43.6296
L25.8135 43.6296
" />
<path d="M25.8135 43.6296
L25.7531 44.2344
" />
<path d="M25.7531 44.2344
L25.8135 44.1739
" />
<path d="M25.8135 44.1739
L25.9345 44.1134
" />
<path d="M25.9345 44.1134
L26.2369 44.1134
" />
<path d="M26.2369 44.1134
L26.3578 44.1739
" />
<path d="M26.3578 44.1739
L26.4183 44.2344
" />
<path d="M26.4183 44.2344
L26.4788 44.3553
" />
<path d="M26.4788 44.3553
L26.4788 44.6577
" />
<path d="M26.4788 44.6577
L26.4183 44.7787
" />
<path d="M26.4183 44.7787
L26.3578 44.8392
" />
<path d="M26.3578 44.8392
L26.2369 44.8996
" />
<path d="M26.2369 44.8996
L25.9345 44.8996
" />
<path d="M25.9345 44.8996
L25.8135 44.8392
" />
<path d="M25.8135 44.8392
L25.7531 44.7787
" />
</g></g>
<g style="fill:none; 
stroke:#840000; stroke-width:0.2540; stroke-opacity:1; 
stroke-linecap:round; stroke-linejoin:round;">
<rect x="30.480000" y="26.924000" width="5.080000" height="2.032000" rx="0.000000" />
</g>
<g style="fill:none; 
stroke:#840000; stroke-width:0.1524; stroke-opacity:1; 
stroke-linecap:round; stroke-linejoin:round;">
<path d="M35.5600 27.9400
L36.8300 27.9400
" />
<path d="M30.4800 27.9400
L29.2100 27.9400
" />
</g>
<g style="fill:none; 
stroke:#006464; stroke-width:0.1524; stroke-opacity:1; 
stroke-linecap:round; stroke-linejoin:round;">
<text x="33.0200" y="22.2250"
textLength="2.6827" font-size="1.6933" lengthAdjust="spacingAndGlyphs"
text-anchor="middle" opacity="0" stroke-opacity="0">R1</text>
<g class="stroked-text"><desc>R1</desc>
<path d="M32.8083 22.1695
L32.3850 21.5648
" />
<path d="M32.0826 22.1695
L32.0826 20.8995
" />
<path d="M32.0826 20.8995
L32.5664 20.8995
" />
<path d="M32.5664 20.8995
L32.6874 20.9600
" />
<path d="M32.6874 20.9600
L32.7479 21.0205
" />
<path d="M32.7479 21.0205
L32.8083 21.1414
" />
<path d="M32.8083 21.1414
L32.8083 21.3229
" />
<path d="M32.8083 21.3229
L32.7479 21.4438
" />
<path d="M32.7479 21.4438
L32.6874 21.5043
" />
<path d="M32.6874 21.5043
L32.5664 21.5648
" />
<path d="M32.5664 21.5648
L32.0826 21.5648
" />
<path d="M34.0179 22.1695
L33.2922 22.1695
" />
<path d="M33.6550 22.1695
L33.6550 20.8995
" />
<path d="M33.6550 20.8995
L33.5341 21.0810
" />
<path d="M33.5341 21.0810
L33.4131 21.2019
" />
<path d="M33.4131 21.2019
L33.2922 21.2624
" />
</g><text x="33.0200" y="24.7650"
textLength="2.6222" font-size="1.6933" lengthAdjust="spacingAndGlyphs"
text-anchor="middle" opacity="0" stroke-opacity="0">47</text>
<g class="stroked-text"><desc>47</desc>
<path d="M32.6571 23.8629
L32.6571 24.7095
" />
<path d="M32.3547 23.3791
L32.0524 24.2862
" />
<path d="M32.0524 24.2862
L32.8385 24.2862
" />
<path d="M33.2014 23.4395
L34.0480 23.4395
" />
<path d="M34.0480 23.4395
L33.5038 24.7095
" />
</g></g>
<g style="fill:none; 
stroke:#0F0F0F; stroke-width:0.1524; stroke-opacity:1; 
stroke-linecap:round; stroke-linejoin:round;">
<text x="45.7200" y="27.5907"
textLength="2.4408" font-size="1.6933" lengthAdjust="spacingAndGlyphs"
text-anchor="start" opacity="0" stroke-opacity="0">Va</text>
<g class="stroked-text"><desc>Va</desc>
<path d="M45.9411 26.1572
L46.3644 27.4272
" />
<path d="M46.3644 27.4272
L46.7878 26.1572
" />
<path d="M47.7554 27.4272
L47.7554 26.7620
" />
<path d="M47.7554 26.7620
L47.6949 26.6410
" />
<path d="M47.6949 26.6410
L47.5740 26.5806
" />
<path d="M47.5740 26.5806
L47.3321 26.5806
" />
<path d="M47.3321 26.5806
L47.2111 26.6410
" />
<path d="M47.7554 27.3668
L47.6345 27.4272
" />
<path d="M47.6345 27.4272
L47.3321 27.4272
" />
<path d="M47.3321 27.4272
L47.2111 27.3668
" />
<path d="M47.2111 27.3668
L47.1507 27.2458
" />
<path d="M47.1507 27.2458
L47.1507 27.1248
" />
<path d="M47.1507 27.1248
L47.2111 27.0039
" />
<path d="M47.2111 27.0039
L47.3321 26.9434
" />
<path d="M47.3321 26.9434
L47.6345 26.9434
" />
<path d="M47.6345 26.9434
L47.7554 26.8829
" />
</g></g>
<g style="fill:none; 
stroke:#0F0F0F; stroke-width:0.1524; stroke-opacity:1; 
stroke-linecap:round; stroke-linejoin:round;">
<text x="67.3100" y="27.5907"
textLength="2.4408" font-size="1.6933" lengthAdjust="spacingAndGlyphs"
text-anchor="start" opacity="0" stroke-opacity="0">Vb</text>
<g class="stroked-text"><desc>Vb</desc>
<path d="M67.5311 26.1572
L67.9544 27.4272
" />
<path d="M67.9544 27.4272
L68.3778 26.1572
" />
<path d="M68.8011 27.4272
L68.8011 26.1572
" />
<path d="M68.8011 26.6410
L68.9221 26.5806
" />
<path d="M68.9221 26.5806
L69.1640 26.5806
" />
<path d="M69.1640 26.5806
L69.2849 26.6410
" />
<path d="M69.2849 26.6410
L69.3454 26.7015
" />
<path d="M69.3454 26.7015
L69.4059 26.8225
" />
<path d="M69.4059 26.8225
L69.4059 27.1853
" />
<path d="M69.4059 27.1853
L69.3454 27.3063
" />
<path d="M69.3454 27.3063
L69.2849 27.3668
" />
<path d="M69.2849 27.3668
L69.1640 27.4272
" />
<path d="M69.1640 27.4272
L68.9221 27.4272
" />
<path d="M68.9221 27.4272
L68.8011 27.3668
" />
</g></g>
<g style="fill:none; 
stroke:#009600; stroke-width:0.1524; stroke-opacity:1; 
stroke-linecap:round; stroke-linejoin:round;">
<path d="M83.8200 48.2600
L83.8200 58.4200
" />
<path d="M83.8200 38.1000
L83.8200 27.9400
" />
<path d="M67.3100 27.9400
L67.3100 39.3700
" />
<path d="M60.9600 27.9400
L67.3100 27.9400
" />
<path d="M83.8200 27.9400
L67.3100 27.9400
" />
<path d="M21.5900 27.9400
L29.2100 27.9400
" />
<path d="M45.7200 27.9400
L53.3400 27.9400
" />
<path d="M67.3100 58.4200
L45.7200 58.4200
" />
<path d="M83.8200 58.4200
L67.3100 58.4200
" />
<path d="M67.3100 46.9900
L67.3100 58.4200
" />
<path d="M36.8300 27.9400
L45.7200 27.9400
" />
<path d="M45.7200 27.9400
L45.7200 39.3700
" />
<path d="M21.5900 38.1000
L21.5900 27.9400
" />
<path d="M45.7200 46.9900
L45.7200 58.4200
" />
<path d="M21.5900 48.2600
L21.5900 58.4200
" />
<path d="M45.7200 58.4200
L45.7200 62.2300
" />
<path d="M21.5900 58.4200
L45.7200 58.4200
" />
</g>
<g style="fill:#009600; fill-opacity:1.0000; 
stroke:#009600; stroke-width:0.1524; stroke-opacity:1; 
stroke-linecap:round; stroke-linejoin:round;">
<circle cx="45.7200" cy="27.9400" r="0.4572" /> 
<circle cx="45.7200" cy="58.4200" r="0.4572" /> 
<circle cx="67.3100" cy="58.4200" r="0.4572" /> 
<circle cx="67.3100" cy="27.9400" r="0.4572" /> 
</g> 
</svg>
