<?xml version="1.0" standalone="no"?>
 <!DOCTYPE svg PUBLIC "-//W3C//DTD SVG 1.1//EN" 
 "http://www.w3.org/Graphics/SVG/1.1/DTD/svg11.dtd"> 
<svg
  xmlns:svg="http://www.w3.org/2000/svg"
  xmlns="http://www.w3.org/2000/svg"
  xmlns:xlink="http://www.w3.org/1999/xlink"
  version="1.1"
  width="297.0022mm" height="210.0072mm" viewBox="0.0000 0.0000 297.0022 210.0072">
<title>SVG Image created as Schematic.svg date 2025/12/29 00:26:14 </title>
  <desc>Image generated by Eeschema-SVG </desc>
<g style="fill:#000000; fill-opacity:1.0000;stroke:#000000; stroke-opacity:1.0000;
stroke-linecap:round; stroke-linejoin:round;"
 transform="translate(0 0) scale(1 1)">
</g>
<g style="fill:none; 
stroke:#840000; stroke-width:0.1524; stroke-opacity:1; 
stroke-linecap:round; stroke-linejoin:round;">
<path d="M177.0022 166.0072
L285.0022 166.0072
L285.0022 198.0072
L177.0022 198.0072
L177.0022 166.0072
" />
<path d="M10.0000 10.0000
L287.0022 10.0000
L287.0022 200.0072
L10.0000 200.0072
L10.0000 10.0000
" />
<path d="M12.0000 12.0000
L285.0022 12.0000
L285.0022 198.0072
L12.0000 198.0072
L12.0000 12.0000
" />
<path d="M60.0000 12.0000
L60.0000 10.0000
" />
<path d="M110.0000 12.0000
L110.0000 10.0000
" />
<path d="M160.0000 12.0000
L160.0000 10.0000
" />
<path d="M210.0000 12.0000
L210.0000 10.0000
" />
<path d="M260.0000 12.0000
L260.0000 10.0000
" />
<text x="35.0000" y="11.6500"
textLength="1.4353" font-size="1.7333" lengthAdjust="spacingAndGlyphs"
text-anchor="start" opacity="0" stroke-opacity="0">1</text>
<g class="stroked-text"><desc>1</desc>
<path d="M36.0906 11.5935
L35.3478 11.5935
" />
<path d="M35.7192 11.5935
L35.7192 10.2935
" />
<path d="M35.7192 10.2935
L35.5954 10.4792
" />
<path d="M35.5954 10.4792
L35.4716 10.6030
" />
<path d="M35.4716 10.6030
L35.3478 10.6649
" />
</g><text x="85.0000" y="11.6500"
textLength="1.4353" font-size="1.7333" lengthAdjust="spacingAndGlyphs"
text-anchor="start" opacity="0" stroke-opacity="0">2</text>
<g class="stroked-text"><desc>2</desc>
<path d="M85.3478 10.4173
L85.4097 10.3554
" />
<path d="M85.4097 10.3554
L85.5335 10.2935
" />
<path d="M85.5335 10.2935
L85.8430 10.2935
" />
<path d="M85.8430 10.2935
L85.9668 10.3554
" />
<path d="M85.9668 10.3554
L86.0287 10.4173
" />
<path d="M86.0287 10.4173
L86.0906 10.5411
" />
<path d="M86.0906 10.5411
L86.0906 10.6649
" />
<path d="M86.0906 10.6649
L86.0287 10.8506
" />
<path d="M86.0287 10.8506
L85.2859 11.5935
" />
<path d="M85.2859 11.5935
L86.0906 11.5935
" />
</g><text x="135.0000" y="11.6500"
textLength="1.4353" font-size="1.7333" lengthAdjust="spacingAndGlyphs"
text-anchor="start" opacity="0" stroke-opacity="0">3</text>
<g class="stroked-text"><desc>3</desc>
<path d="M135.2859 10.2935
L136.0906 10.2935
" />
<path d="M136.0906 10.2935
L135.6573 10.7887
" />
<path d="M135.6573 10.7887
L135.8430 10.7887
" />
<path d="M135.8430 10.7887
L135.9668 10.8506
" />
<path d="M135.9668 10.8506
L136.0287 10.9125
" />
<path d="M136.0287 10.9125
L136.0906 11.0363
" />
<path d="M136.0906 11.0363
L136.0906 11.3458
" />
<path d="M136.0906 11.3458
L136.0287 11.4696
" />
<path d="M136.0287 11.4696
L135.9668 11.5316
" />
<path d="M135.9668 11.5316
L135.8430 11.5935
" />
<path d="M135.8430 11.5935
L135.4716 11.5935
" />
<path d="M135.4716 11.5935
L135.3478 11.5316
" />
<path d="M135.3478 11.5316
L135.2859 11.4696
" />
</g><text x="185.0000" y="11.6500"
textLength="1.4353" font-size="1.7333" lengthAdjust="spacingAndGlyphs"
text-anchor="start" opacity="0" stroke-opacity="0">4</text>
<g class="stroked-text"><desc>4</desc>
<path d="M185.9668 10.7268
L185.9668 11.5935
" />
<path d="M185.6573 10.2316
L185.3478 11.1601
" />
<path d="M185.3478 11.1601
L186.1525 11.1601
" />
</g><text x="235.0000" y="11.6500"
textLength="1.4353" font-size="1.7333" lengthAdjust="spacingAndGlyphs"
text-anchor="start" opacity="0" stroke-opacity="0">5</text>
<g class="stroked-text"><desc>5</desc>
<path d="M236.0287 10.2935
L235.4097 10.2935
" />
<path d="M235.4097 10.2935
L235.3478 10.9125
" />
<path d="M235.3478 10.9125
L235.4097 10.8506
" />
<path d="M235.4097 10.8506
L235.5335 10.7887
" />
<path d="M235.5335 10.7887
L235.8430 10.7887
" />
<path d="M235.8430 10.7887
L235.9668 10.8506
" />
<path d="M235.9668 10.8506
L236.0287 10.9125
" />
<path d="M236.0287 10.9125
L236.0906 11.0363
" />
<path d="M236.0906 11.0363
L236.0906 11.3458
" />
<path d="M236.0906 11.3458
L236.0287 11.4696
" />
<path d="M236.0287 11.4696
L235.9668 11.5316
" />
<path d="M235.9668 11.5316
L235.8430 11.5935
" />
<path d="M235.8430 11.5935
L235.5335 11.5935
" />
<path d="M235.5335 11.5935
L235.4097 11.5316
" />
<path d="M235.4097 11.5316
L235.3478 11.4696
" />
</g><text x="285.0000" y="11.6500"
textLength="1.4353" font-size="1.7333" lengthAdjust="spacingAndGlyphs"
text-anchor="start" opacity="0" stroke-opacity="0">6</text>
<g class="stroked-text"><desc>6</desc>
<path d="M285.9668 10.2935
L285.7192 10.2935
" />
<path d="M285.7192 10.2935
L285.5954 10.3554
" />
<path d="M285.5954 10.3554
L285.5335 10.4173
" />
<path d="M285.5335 10.4173
L285.4097 10.6030
" />
<path d="M285.4097 10.6030
L285.3478 10.8506
" />
<path d="M285.3478 10.8506
L285.3478 11.3458
" />
<path d="M285.3478 11.3458
L285.4097 11.4696
" />
<path d="M285.4097 11.4696
L285.4716 11.5316
" />
<path d="M285.4716 11.5316
L285.5954 11.5935
" />
<path d="M285.5954 11.5935
L285.8430 11.5935
" />
<path d="M285.8430 11.5935
L285.9668 11.5316
" />
<path d="M285.9668 11.5316
L286.0287 11.4696
" />
<path d="M286.0287 11.4696
L286.0906 11.3458
" />
<path d="M286.0906 11.3458
L286.0906 11.0363
" />
<path d="M286.0906 11.0363
L286.0287 10.9125
" />
<path d="M286.0287 10.9125
L285.9668 10.8506
" />
<path d="M285.9668 10.8506
L285.8430 10.7887
" />
<path d="M285.8430 10.7887
L285.5954 10.7887
" />
<path d="M285.5954 10.7887
L285.4716 10.8506
" />
<path d="M285.4716 10.8506
L285.4097 10.9125
" />
<path d="M285.4097 10.9125
L285.3478 11.0363
" />
</g><path d="M60.0000 198.0072
L60.0000 200.0072
" />
<path d="M110.0000 198.0072
L110.0000 200.0072
" />
<path d="M160.0000 198.0072
L160.0000 200.0072
" />
<path d="M210.0000 198.0072
L210.0000 200.0072
" />
<path d="M260.0000 198.0072
L260.0000 200.0072
" />
<text x="35.0000" y="199.6572"
textLength="1.4353" font-size="1.7333" lengthAdjust="spacingAndGlyphs"
text-anchor="start" opacity="0" stroke-opacity="0">1</text>
<g class="stroked-text"><desc>1</desc>
<path d="M36.0906 199.6007
L35.3478 199.6007
" />
<path d="M35.7192 199.6007
L35.7192 198.3007
" />
<path d="M35.7192 198.3007
L35.5954 198.4864
" />
<path d="M35.5954 198.4864
L35.4716 198.6102
" />
<path d="M35.4716 198.6102
L35.3478 198.6721
" />
</g><text x="85.0000" y="199.6572"
textLength="1.4353" font-size="1.7333" lengthAdjust="spacingAndGlyphs"
text-anchor="start" opacity="0" stroke-opacity="0">2</text>
<g class="stroked-text"><desc>2</desc>
<path d="M85.3478 198.4245
L85.4097 198.3626
" />
<path d="M85.4097 198.3626
L85.5335 198.3007
" />
<path d="M85.5335 198.3007
L85.8430 198.3007
" />
<path d="M85.8430 198.3007
L85.9668 198.3626
" />
<path d="M85.9668 198.3626
L86.0287 198.4245
" />
<path d="M86.0287 198.4245
L86.0906 198.5483
" />
<path d="M86.0906 198.5483
L86.0906 198.6721
" />
<path d="M86.0906 198.6721
L86.0287 198.8578
" />
<path d="M86.0287 198.8578
L85.2859 199.6007
" />
<path d="M85.2859 199.6007
L86.0906 199.6007
" />
</g><text x="135.0000" y="199.6572"
textLength="1.4353" font-size="1.7333" lengthAdjust="spacingAndGlyphs"
text-anchor="start" opacity="0" stroke-opacity="0">3</text>
<g class="stroked-text"><desc>3</desc>
<path d="M135.2859 198.3007
L136.0906 198.3007
" />
<path d="M136.0906 198.3007
L135.6573 198.7959
" />
<path d="M135.6573 198.7959
L135.8430 198.7959
" />
<path d="M135.8430 198.7959
L135.9668 198.8578
" />
<path d="M135.9668 198.8578
L136.0287 198.9197
" />
<path d="M136.0287 198.9197
L136.0906 199.0435
" />
<path d="M136.0906 199.0435
L136.0906 199.3530
" />
<path d="M136.0906 199.3530
L136.0287 199.4768
" />
<path d="M136.0287 199.4768
L135.9668 199.5388
" />
<path d="M135.9668 199.5388
L135.8430 199.6007
" />
<path d="M135.8430 199.6007
L135.4716 199.6007
" />
<path d="M135.4716 199.6007
L135.3478 199.5388
" />
<path d="M135.3478 199.5388
L135.2859 199.4768
" />
</g><text x="185.0000" y="199.6572"
textLength="1.4353" font-size="1.7333" lengthAdjust="spacingAndGlyphs"
text-anchor="start" opacity="0" stroke-opacity="0">4</text>
<g class="stroked-text"><desc>4</desc>
<path d="M185.9668 198.7340
L185.9668 199.6007
" />
<path d="M185.6573 198.2388
L185.3478 199.1673
" />
<path d="M185.3478 199.1673
L186.1525 199.1673
" />
</g><text x="235.0000" y="199.6572"
textLength="1.4353" font-size="1.7333" lengthAdjust="spacingAndGlyphs"
text-anchor="start" opacity="0" stroke-opacity="0">5</text>
<g class="stroked-text"><desc>5</desc>
<path d="M236.0287 198.3007
L235.4097 198.3007
" />
<path d="M235.4097 198.3007
L235.3478 198.9197
" />
<path d="M235.3478 198.9197
L235.4097 198.8578
" />
<path d="M235.4097 198.8578
L235.5335 198.7959
" />
<path d="M235.5335 198.7959
L235.8430 198.7959
" />
<path d="M235.8430 198.7959
L235.9668 198.8578
" />
<path d="M235.9668 198.8578
L236.0287 198.9197
" />
<path d="M236.0287 198.9197
L236.0906 199.0435
" />
<path d="M236.0906 199.0435
L236.0906 199.3530
" />
<path d="M236.0906 199.3530
L236.0287 199.4768
" />
<path d="M236.0287 199.4768
L235.9668 199.5388
" />
<path d="M235.9668 199.5388
L235.8430 199.6007
" />
<path d="M235.8430 199.6007
L235.5335 199.6007
" />
<path d="M235.5335 199.6007
L235.4097 199.5388
" />
<path d="M235.4097 199.5388
L235.3478 199.4768
" />
</g><text x="285.0000" y="199.6572"
textLength="1.4353" font-size="1.7333" lengthAdjust="spacingAndGlyphs"
text-anchor="start" opacity="0" stroke-opacity="0">6</text>
<g class="stroked-text"><desc>6</desc>
<path d="M285.9668 198.3007
L285.7192 198.3007
" />
<path d="M285.7192 198.3007
L285.5954 198.3626
" />
<path d="M285.5954 198.3626
L285.5335 198.4245
" />
<path d="M285.5335 198.4245
L285.4097 198.6102
" />
<path d="M285.4097 198.6102
L285.3478 198.8578
" />
<path d="M285.3478 198.8578
L285.3478 199.3530
" />
<path d="M285.3478 199.3530
L285.4097 199.4768
" />
<path d="M285.4097 199.4768
L285.4716 199.5388
" />
<path d="M285.4716 199.5388
L285.5954 199.6007
" />
<path d="M285.5954 199.6007
L285.8430 199.6007
" />
<path d="M285.8430 199.6007
L285.9668 199.5388
" />
<path d="M285.9668 199.5388
L286.0287 199.4768
" />
<path d="M286.0287 199.4768
L286.0906 199.3530
" />
<path d="M286.0906 199.3530
L286.0906 199.0435
" />
<path d="M286.0906 199.0435
L286.0287 198.9197
" />
<path d="M286.0287 198.9197
L285.9668 198.8578
" />
<path d="M285.9668 198.8578
L285.8430 198.7959
" />
<path d="M285.8430 198.7959
L285.5954 198.7959
" />
<path d="M285.5954 198.7959
L285.4716 198.8578
" />
<path d="M285.4716 198.8578
L285.4097 198.9197
" />
<path d="M285.4097 198.9197
L285.3478 199.0435
" />
</g><path d="M10.0000 60.0000
L12.0000 60.0000
" />
<path d="M10.0000 110.0000
L12.0000 110.0000
" />
<path d="M10.0000 160.0000
L12.0000 160.0000
" />
<text x="11.0000" y="35.6500"
textLength="1.3115" font-size="1.7333" lengthAdjust="spacingAndGlyphs"
text-anchor="middle" opacity="0" stroke-opacity="0">A</text>
<g class="stroked-text"><desc>A</desc>
<path d="M10.6905 35.2220
L11.3095 35.2220
" />
<path d="M10.5667 35.5935
L11.0000 34.2935
" />
<path d="M11.0000 34.2935
L11.4333 35.5935
" />
</g><text x="11.0000" y="85.6500"
textLength="1.4972" font-size="1.7333" lengthAdjust="spacingAndGlyphs"
text-anchor="middle" opacity="0" stroke-opacity="0">B</text>
<g class="stroked-text"><desc>B</desc>
<path d="M11.0928 84.9125
L11.2785 84.9744
" />
<path d="M11.2785 84.9744
L11.3404 85.0363
" />
<path d="M11.3404 85.0363
L11.4023 85.1601
" />
<path d="M11.4023 85.1601
L11.4023 85.3458
" />
<path d="M11.4023 85.3458
L11.3404 85.4696
" />
<path d="M11.3404 85.4696
L11.2785 85.5316
" />
<path d="M11.2785 85.5316
L11.1547 85.5935
" />
<path d="M11.1547 85.5935
L10.6595 85.5935
" />
<path d="M10.6595 85.5935
L10.6595 84.2935
" />
<path d="M10.6595 84.2935
L11.0928 84.2935
" />
<path d="M11.0928 84.2935
L11.2166 84.3554
" />
<path d="M11.2166 84.3554
L11.2785 84.4173
" />
<path d="M11.2785 84.4173
L11.3404 84.5411
" />
<path d="M11.3404 84.5411
L11.3404 84.6649
" />
<path d="M11.3404 84.6649
L11.2785 84.7887
" />
<path d="M11.2785 84.7887
L11.2166 84.8506
" />
<path d="M11.2166 84.8506
L11.0928 84.9125
" />
<path d="M11.0928 84.9125
L10.6595 84.9125
" />
</g><text x="11.0000" y="135.6500"
textLength="1.4972" font-size="1.7333" lengthAdjust="spacingAndGlyphs"
text-anchor="middle" opacity="0" stroke-opacity="0">C</text>
<g class="stroked-text"><desc>C</desc>
<path d="M11.4023 135.4696
L11.3404 135.5316
" />
<path d="M11.3404 135.5316
L11.1547 135.5935
" />
<path d="M11.1547 135.5935
L11.0309 135.5935
" />
<path d="M11.0309 135.5935
L10.8452 135.5316
" />
<path d="M10.8452 135.5316
L10.7214 135.4077
" />
<path d="M10.7214 135.4077
L10.6595 135.2839
" />
<path d="M10.6595 135.2839
L10.5976 135.0363
" />
<path d="M10.5976 135.0363
L10.5976 134.8506
" />
<path d="M10.5976 134.8506
L10.6595 134.6030
" />
<path d="M10.6595 134.6030
L10.7214 134.4792
" />
<path d="M10.7214 134.4792
L10.8452 134.3554
" />
<path d="M10.8452 134.3554
L11.0309 134.2935
" />
<path d="M11.0309 134.2935
L11.1547 134.2935
" />
<path d="M11.1547 134.2935
L11.3404 134.3554
" />
<path d="M11.3404 134.3554
L11.4023 134.4173
" />
</g><text x="11.0000" y="185.6500"
textLength="1.4972" font-size="1.7333" lengthAdjust="spacingAndGlyphs"
text-anchor="middle" opacity="0" stroke-opacity="0">D</text>
<g class="stroked-text"><desc>D</desc>
<path d="M10.6595 185.5935
L10.6595 184.2935
" />
<path d="M10.6595 184.2935
L10.9690 184.2935
" />
<path d="M10.9690 184.2935
L11.1547 184.3554
" />
<path d="M11.1547 184.3554
L11.2785 184.4792
" />
<path d="M11.2785 184.4792
L11.3404 184.6030
" />
<path d="M11.3404 184.6030
L11.4023 184.8506
" />
<path d="M11.4023 184.8506
L11.4023 185.0363
" />
<path d="M11.4023 185.0363
L11.3404 185.2839
" />
<path d="M11.3404 185.2839
L11.2785 185.4077
" />
<path d="M11.2785 185.4077
L11.1547 185.5316
" />
<path d="M11.1547 185.5316
L10.9690 185.5935
" />
<path d="M10.9690 185.5935
L10.6595 185.5935
" />
</g><path d="M287.0022 60.0000
L285.0022 60.0000
" />
<path d="M287.0022 110.0000
L285.0022 110.0000
" />
<path d="M287.0022 160.0000
L285.0022 160.0000
" />
<text x="286.0022" y="35.6500"
textLength="1.3115" font-size="1.7333" lengthAdjust="spacingAndGlyphs"
text-anchor="middle" opacity="0" stroke-opacity="0">A</text>
<g class="stroked-text"><desc>A</desc>
<path d="M285.6927 35.2220
L286.3117 35.2220
" />
<path d="M285.5689 35.5935
L286.0022 34.2935
" />
<path d="M286.0022 34.2935
L286.4355 35.5935
" />
</g><text x="286.0022" y="85.6500"
textLength="1.4972" font-size="1.7333" lengthAdjust="spacingAndGlyphs"
text-anchor="middle" opacity="0" stroke-opacity="0">B</text>
<g class="stroked-text"><desc>B</desc>
<path d="M286.0950 84.9125
L286.2807 84.9744
" />
<path d="M286.2807 84.9744
L286.3426 85.0363
" />
<path d="M286.3426 85.0363
L286.4045 85.1601
" />
<path d="M286.4045 85.1601
L286.4045 85.3458
" />
<path d="M286.4045 85.3458
L286.3426 85.4696
" />
<path d="M286.3426 85.4696
L286.2807 85.5316
" />
<path d="M286.2807 85.5316
L286.1569 85.5935
" />
<path d="M286.1569 85.5935
L285.6617 85.5935
" />
<path d="M285.6617 85.5935
L285.6617 84.2935
" />
<path d="M285.6617 84.2935
L286.0950 84.2935
" />
<path d="M286.0950 84.2935
L286.2188 84.3554
" />
<path d="M286.2188 84.3554
L286.2807 84.4173
" />
<path d="M286.2807 84.4173
L286.3426 84.5411
" />
<path d="M286.3426 84.5411
L286.3426 84.6649
" />
<path d="M286.3426 84.6649
L286.2807 84.7887
" />
<path d="M286.2807 84.7887
L286.2188 84.8506
" />
<path d="M286.2188 84.8506
L286.0950 84.9125
" />
<path d="M286.0950 84.9125
L285.6617 84.9125
" />
</g><text x="286.0022" y="135.6500"
textLength="1.4972" font-size="1.7333" lengthAdjust="spacingAndGlyphs"
text-anchor="middle" opacity="0" stroke-opacity="0">C</text>
<g class="stroked-text"><desc>C</desc>
<path d="M286.4045 135.4696
L286.3426 135.5316
" />
<path d="M286.3426 135.5316
L286.1569 135.5935
" />
<path d="M286.1569 135.5935
L286.0331 135.5935
" />
<path d="M286.0331 135.5935
L285.8474 135.5316
" />
<path d="M285.8474 135.5316
L285.7236 135.4077
" />
<path d="M285.7236 135.4077
L285.6617 135.2839
" />
<path d="M285.6617 135.2839
L285.5998 135.0363
" />
<path d="M285.5998 135.0363
L285.5998 134.8506
" />
<path d="M285.5998 134.8506
L285.6617 134.6030
" />
<path d="M285.6617 134.6030
L285.7236 134.4792
" />
<path d="M285.7236 134.4792
L285.8474 134.3554
" />
<path d="M285.8474 134.3554
L286.0331 134.2935
" />
<path d="M286.0331 134.2935
L286.1569 134.2935
" />
<path d="M286.1569 134.2935
L286.3426 134.3554
" />
<path d="M286.3426 134.3554
L286.4045 134.4173
" />
</g><text x="286.0022" y="185.6500"
textLength="1.4972" font-size="1.7333" lengthAdjust="spacingAndGlyphs"
text-anchor="middle" opacity="0" stroke-opacity="0">D</text>
<g class="stroked-text"><desc>D</desc>
<path d="M285.6617 185.5935
L285.6617 184.2935
" />
<path d="M285.6617 184.2935
L285.9712 184.2935
" />
<path d="M285.9712 184.2935
L286.1569 184.3554
" />
<path d="M286.1569 184.3554
L286.2807 184.4792
" />
<path d="M286.2807 184.4792
L286.3426 184.6030
" />
<path d="M286.3426 184.6030
L286.4045 184.8506
" />
<path d="M286.4045 184.8506
L286.4045 185.0363
" />
<path d="M286.4045 185.0363
L286.3426 185.2839
" />
<path d="M286.3426 185.2839
L286.2807 185.4077
" />
<path d="M286.2807 185.4077
L286.1569 185.5316
" />
<path d="M286.1569 185.5316
L285.9712 185.5935
" />
<path d="M285.9712 185.5935
L285.6617 185.5935
" />
</g><text x="200.0022" y="193.8572"
textLength="7.0143" font-size="2.0000" lengthAdjust="spacingAndGlyphs"
text-anchor="start" opacity="0" stroke-opacity="0">Date: </text>
<g class="stroked-text"><desc>Date: </desc>
<path d="M200.4595 193.7931
L200.4595 192.2931
" />
<path d="M200.4595 192.2931
L200.8166 192.2931
" />
<path d="M200.8166 192.2931
L201.0309 192.3645
" />
<path d="M201.0309 192.3645
L201.1738 192.5074
" />
<path d="M201.1738 192.5074
L201.2452 192.6502
" />
<path d="M201.2452 192.6502
L201.3166 192.9359
" />
<path d="M201.3166 192.9359
L201.3166 193.1502
" />
<path d="M201.3166 193.1502
L201.2452 193.4359
" />
<path d="M201.2452 193.4359
L201.1738 193.5788
" />
<path d="M201.1738 193.5788
L201.0309 193.7217
" />
<path d="M201.0309 193.7217
L200.8166 193.7931
" />
<path d="M200.8166 193.7931
L200.4595 193.7931
" />
<path d="M202.6024 193.7931
L202.6024 193.0074
" />
<path d="M202.6024 193.0074
L202.5309 192.8645
" />
<path d="M202.5309 192.8645
L202.3881 192.7931
" />
<path d="M202.3881 192.7931
L202.1024 192.7931
" />
<path d="M202.1024 192.7931
L201.9595 192.8645
" />
<path d="M202.6024 193.7217
L202.4595 193.7931
" />
<path d="M202.4595 193.7931
L202.1024 193.7931
" />
<path d="M202.1024 193.7931
L201.9595 193.7217
" />
<path d="M201.9595 193.7217
L201.8881 193.5788
" />
<path d="M201.8881 193.5788
L201.8881 193.4359
" />
<path d="M201.8881 193.4359
L201.9595 193.2931
" />
<path d="M201.9595 193.2931
L202.1024 193.2217
" />
<path d="M202.1024 193.2217
L202.4595 193.2217
" />
<path d="M202.4595 193.2217
L202.6024 193.1502
" />
<path d="M203.1023 192.7931
L203.6737 192.7931
" />
<path d="M203.3166 192.2931
L203.3166 193.5788
" />
<path d="M203.3166 193.5788
L203.3880 193.7217
" />
<path d="M203.3880 193.7217
L203.5309 193.7931
" />
<path d="M203.5309 193.7931
L203.6737 193.7931
" />
<path d="M204.7451 193.7217
L204.6023 193.7931
" />
<path d="M204.6023 193.7931
L204.3166 193.7931
" />
<path d="M204.3166 193.7931
L204.1737 193.7217
" />
<path d="M204.1737 193.7217
L204.1023 193.5788
" />
<path d="M204.1023 193.5788
L204.1023 193.0074
" />
<path d="M204.1023 193.0074
L204.1737 192.8645
" />
<path d="M204.1737 192.8645
L204.3166 192.7931
" />
<path d="M204.3166 192.7931
L204.6023 192.7931
" />
<path d="M204.6023 192.7931
L204.7451 192.8645
" />
<path d="M204.7451 192.8645
L204.8166 193.0074
" />
<path d="M204.8166 193.0074
L204.8166 193.1502
" />
<path d="M204.8166 193.1502
L204.1023 193.2931
" />
<path d="M205.4594 193.6502
L205.5308 193.7217
" />
<path d="M205.5308 193.7217
L205.4594 193.7931
" />
<path d="M205.4594 193.7931
L205.3880 193.7217
" />
<path d="M205.3880 193.7217
L205.4594 193.6502
" />
<path d="M205.4594 193.6502
L205.4594 193.7931
" />
<path d="M205.4594 192.8645
L205.5308 192.9359
" />
<path d="M205.5308 192.9359
L205.4594 193.0074
" />
<path d="M205.4594 193.0074
L205.3880 192.9359
" />
<path d="M205.3880 192.9359
L205.4594 192.8645
" />
<path d="M205.4594 192.8645
L205.4594 193.0074
" />
</g><path d="M177.0022 194.5072
L285.0022 194.5072
" />
<text x="178.0022" y="196.6572"
textLength="20.8716" font-size="2.0000" lengthAdjust="spacingAndGlyphs"
text-anchor="start" opacity="0" stroke-opacity="0">KiCad E.D.A. 9.0.6</text>
<g class="stroked-text"><desc>KiCad E.D.A. 9.0.6</desc>
<path d="M178.4595 196.5931
L178.4595 195.0931
" />
<path d="M179.3166 196.5931
L178.6738 195.7359
" />
<path d="M179.3166 195.0931
L178.4595 195.9502
" />
<path d="M179.9595 196.5931
L179.9595 195.5931
" />
<path d="M179.9595 195.0931
L179.8881 195.1645
" />
<path d="M179.8881 195.1645
L179.9595 195.2359
" />
<path d="M179.9595 195.2359
L180.0309 195.1645
" />
<path d="M180.0309 195.1645
L179.9595 195.0931
" />
<path d="M179.9595 195.0931
L179.9595 195.2359
" />
<path d="M181.5309 196.4502
L181.4595 196.5217
" />
<path d="M181.4595 196.5217
L181.2452 196.5931
" />
<path d="M181.2452 196.5931
L181.1024 196.5931
" />
<path d="M181.1024 196.5931
L180.8881 196.5217
" />
<path d="M180.8881 196.5217
L180.7452 196.3788
" />
<path d="M180.7452 196.3788
L180.6738 196.2359
" />
<path d="M180.6738 196.2359
L180.6024 195.9502
" />
<path d="M180.6024 195.9502
L180.6024 195.7359
" />
<path d="M180.6024 195.7359
L180.6738 195.4502
" />
<path d="M180.6738 195.4502
L180.7452 195.3074
" />
<path d="M180.7452 195.3074
L180.8881 195.1645
" />
<path d="M180.8881 195.1645
L181.1024 195.0931
" />
<path d="M181.1024 195.0931
L181.2452 195.0931
" />
<path d="M181.2452 195.0931
L181.4595 195.1645
" />
<path d="M181.4595 195.1645
L181.5309 195.2359
" />
<path d="M182.8167 196.5931
L182.8167 195.8074
" />
<path d="M182.8167 195.8074
L182.7452 195.6645
" />
<path d="M182.7452 195.6645
L182.6024 195.5931
" />
<path d="M182.6024 195.5931
L182.3167 195.5931
" />
<path d="M182.3167 195.5931
L182.1738 195.6645
" />
<path d="M182.8167 196.5217
L182.6738 196.5931
" />
<path d="M182.6738 196.5931
L182.3167 196.5931
" />
<path d="M182.3167 196.5931
L182.1738 196.5217
" />
<path d="M182.1738 196.5217
L182.1024 196.3788
" />
<path d="M182.1024 196.3788
L182.1024 196.2359
" />
<path d="M182.1024 196.2359
L182.1738 196.0931
" />
<path d="M182.1738 196.0931
L182.3167 196.0217
" />
<path d="M182.3167 196.0217
L182.6738 196.0217
" />
<path d="M182.6738 196.0217
L182.8167 195.9502
" />
<path d="M184.1738 196.5931
L184.1738 195.0931
" />
<path d="M184.1738 196.5217
L184.0309 196.5931
" />
<path d="M184.0309 196.5931
L183.7452 196.5931
" />
<path d="M183.7452 196.5931
L183.6023 196.5217
" />
<path d="M183.6023 196.5217
L183.5309 196.4502
" />
<path d="M183.5309 196.4502
L183.4595 196.3074
" />
<path d="M183.4595 196.3074
L183.4595 195.8788
" />
<path d="M183.4595 195.8788
L183.5309 195.7359
" />
<path d="M183.5309 195.7359
L183.6023 195.6645
" />
<path d="M183.6023 195.6645
L183.7452 195.5931
" />
<path d="M183.7452 195.5931
L184.0309 195.5931
" />
<path d="M184.0309 195.5931
L184.1738 195.6645
" />
<path d="M186.0309 195.8074
L186.5309 195.8074
" />
<path d="M186.7452 196.5931
L186.0309 196.5931
" />
<path d="M186.0309 196.5931
L186.0309 195.0931
" />
<path d="M186.0309 195.0931
L186.7452 195.0931
" />
<path d="M187.3880 196.4502
L187.4594 196.5217
" />
<path d="M187.4594 196.5217
L187.3880 196.5931
" />
<path d="M187.3880 196.5931
L187.3166 196.5217
" />
<path d="M187.3166 196.5217
L187.3880 196.4502
" />
<path d="M187.3880 196.4502
L187.3880 196.5931
" />
<path d="M188.1023 196.5931
L188.1023 195.0931
" />
<path d="M188.1023 195.0931
L188.4594 195.0931
" />
<path d="M188.4594 195.0931
L188.6737 195.1645
" />
<path d="M188.6737 195.1645
L188.8166 195.3074
" />
<path d="M188.8166 195.3074
L188.8880 195.4502
" />
<path d="M188.8880 195.4502
L188.9594 195.7359
" />
<path d="M188.9594 195.7359
L188.9594 195.9502
" />
<path d="M188.9594 195.9502
L188.8880 196.2359
" />
<path d="M188.8880 196.2359
L188.8166 196.3788
" />
<path d="M188.8166 196.3788
L188.6737 196.5217
" />
<path d="M188.6737 196.5217
L188.4594 196.5931
" />
<path d="M188.4594 196.5931
L188.1023 196.5931
" />
<path d="M189.6023 196.4502
L189.6737 196.5217
" />
<path d="M189.6737 196.5217
L189.6023 196.5931
" />
<path d="M189.6023 196.5931
L189.5309 196.5217
" />
<path d="M189.5309 196.5217
L189.6023 196.4502
" />
<path d="M189.6023 196.4502
L189.6023 196.5931
" />
<path d="M190.2452 196.1645
L190.9595 196.1645
" />
<path d="M190.1023 196.5931
L190.6023 195.0931
" />
<path d="M190.6023 195.0931
L191.1023 196.5931
" />
<path d="M191.6023 196.4502
L191.6737 196.5217
" />
<path d="M191.6737 196.5217
L191.6023 196.5931
" />
<path d="M191.6023 196.5931
L191.5309 196.5217
" />
<path d="M191.5309 196.5217
L191.6023 196.4502
" />
<path d="M191.6023 196.4502
L191.6023 196.5931
" />
<path d="M193.5309 196.5931
L193.8166 196.5931
" />
<path d="M193.8166 196.5931
L193.9595 196.5217
" />
<path d="M193.9595 196.5217
L194.0309 196.4502
" />
<path d="M194.0309 196.4502
L194.1738 196.2359
" />
<path d="M194.1738 196.2359
L194.2452 195.9502
" />
<path d="M194.2452 195.9502
L194.2452 195.3788
" />
<path d="M194.2452 195.3788
L194.1738 195.2359
" />
<path d="M194.1738 195.2359
L194.1024 195.1645
" />
<path d="M194.1024 195.1645
L193.9595 195.0931
" />
<path d="M193.9595 195.0931
L193.6738 195.0931
" />
<path d="M193.6738 195.0931
L193.5309 195.1645
" />
<path d="M193.5309 195.1645
L193.4595 195.2359
" />
<path d="M193.4595 195.2359
L193.3881 195.3788
" />
<path d="M193.3881 195.3788
L193.3881 195.7359
" />
<path d="M193.3881 195.7359
L193.4595 195.8788
" />
<path d="M193.4595 195.8788
L193.5309 195.9502
" />
<path d="M193.5309 195.9502
L193.6738 196.0217
" />
<path d="M193.6738 196.0217
L193.9595 196.0217
" />
<path d="M193.9595 196.0217
L194.1024 195.9502
" />
<path d="M194.1024 195.9502
L194.1738 195.8788
" />
<path d="M194.1738 195.8788
L194.2452 195.7359
" />
<path d="M194.8881 196.4502
L194.9595 196.5217
" />
<path d="M194.9595 196.5217
L194.8881 196.5931
" />
<path d="M194.8881 196.5931
L194.8167 196.5217
" />
<path d="M194.8167 196.5217
L194.8881 196.4502
" />
<path d="M194.8881 196.4502
L194.8881 196.5931
" />
<path d="M195.8881 195.0931
L196.0310 195.0931
" />
<path d="M196.0310 195.0931
L196.1738 195.1645
" />
<path d="M196.1738 195.1645
L196.2453 195.2359
" />
<path d="M196.2453 195.2359
L196.3167 195.3788
" />
<path d="M196.3167 195.3788
L196.3881 195.6645
" />
<path d="M196.3881 195.6645
L196.3881 196.0217
" />
<path d="M196.3881 196.0217
L196.3167 196.3074
" />
<path d="M196.3167 196.3074
L196.2453 196.4502
" />
<path d="M196.2453 196.4502
L196.1738 196.5217
" />
<path d="M196.1738 196.5217
L196.0310 196.5931
" />
<path d="M196.0310 196.5931
L195.8881 196.5931
" />
<path d="M195.8881 196.5931
L195.7453 196.5217
" />
<path d="M195.7453 196.5217
L195.6738 196.4502
" />
<path d="M195.6738 196.4502
L195.6024 196.3074
" />
<path d="M195.6024 196.3074
L195.5310 196.0217
" />
<path d="M195.5310 196.0217
L195.5310 195.6645
" />
<path d="M195.5310 195.6645
L195.6024 195.3788
" />
<path d="M195.6024 195.3788
L195.6738 195.2359
" />
<path d="M195.6738 195.2359
L195.7453 195.1645
" />
<path d="M195.7453 195.1645
L195.8881 195.0931
" />
<path d="M197.0310 196.4502
L197.1024 196.5217
" />
<path d="M197.1024 196.5217
L197.0310 196.5931
" />
<path d="M197.0310 196.5931
L196.9596 196.5217
" />
<path d="M196.9596 196.5217
L197.0310 196.4502
" />
<path d="M197.0310 196.4502
L197.0310 196.5931
" />
<path d="M198.3882 195.0931
L198.1024 195.0931
" />
<path d="M198.1024 195.0931
L197.9596 195.1645
" />
<path d="M197.9596 195.1645
L197.8882 195.2359
" />
<path d="M197.8882 195.2359
L197.7453 195.4502
" />
<path d="M197.7453 195.4502
L197.6739 195.7359
" />
<path d="M197.6739 195.7359
L197.6739 196.3074
" />
<path d="M197.6739 196.3074
L197.7453 196.4502
" />
<path d="M197.7453 196.4502
L197.8167 196.5217
" />
<path d="M197.8167 196.5217
L197.9596 196.5931
" />
<path d="M197.9596 196.5931
L198.2453 196.5931
" />
<path d="M198.2453 196.5931
L198.3882 196.5217
" />
<path d="M198.3882 196.5217
L198.4596 196.4502
" />
<path d="M198.4596 196.4502
L198.5310 196.3074
" />
<path d="M198.5310 196.3074
L198.5310 195.9502
" />
<path d="M198.5310 195.9502
L198.4596 195.8074
" />
<path d="M198.4596 195.8074
L198.3882 195.7359
" />
<path d="M198.3882 195.7359
L198.2453 195.6645
" />
<path d="M198.2453 195.6645
L197.9596 195.6645
" />
<path d="M197.9596 195.6645
L197.8167 195.7359
" />
<path d="M197.8167 195.7359
L197.7453 195.8074
" />
<path d="M197.7453 195.8074
L197.6739 195.9502
" />
</g><path d="M177.0022 191.5072
L285.0022 191.5072
" />
</g>
<g style="fill:none; 
stroke:#840000; stroke-width:0.3000; stroke-opacity:1; 
stroke-linecap:round; stroke-linejoin:round;">
<text x="263.0022" y="193.8572"
textLength="6.3858" font-size="2.0000" lengthAdjust="spacingAndGlyphs"
text-anchor="start" opacity="0" stroke-opacity="0">Rev: </text>
<g class="stroked-text"><desc>Rev: </desc>
<path d="M264.4137 193.7855
L263.9137 193.0712
" />
<path d="M263.5566 193.7855
L263.5566 192.2855
" />
<path d="M263.5566 192.2855
L264.1280 192.2855
" />
<path d="M264.1280 192.2855
L264.2709 192.3569
" />
<path d="M264.2709 192.3569
L264.3423 192.4283
" />
<path d="M264.3423 192.4283
L264.4137 192.5712
" />
<path d="M264.4137 192.5712
L264.4137 192.7855
" />
<path d="M264.4137 192.7855
L264.3423 192.9283
" />
<path d="M264.3423 192.9283
L264.2709 192.9998
" />
<path d="M264.2709 192.9998
L264.1280 193.0712
" />
<path d="M264.1280 193.0712
L263.5566 193.0712
" />
<path d="M265.6280 193.7141
L265.4852 193.7855
" />
<path d="M265.4852 193.7855
L265.1995 193.7855
" />
<path d="M265.1995 193.7855
L265.0566 193.7141
" />
<path d="M265.0566 193.7141
L264.9852 193.5712
" />
<path d="M264.9852 193.5712
L264.9852 192.9998
" />
<path d="M264.9852 192.9998
L265.0566 192.8569
" />
<path d="M265.0566 192.8569
L265.1995 192.7855
" />
<path d="M265.1995 192.7855
L265.4852 192.7855
" />
<path d="M265.4852 192.7855
L265.6280 192.8569
" />
<path d="M265.6280 192.8569
L265.6995 192.9998
" />
<path d="M265.6995 192.9998
L265.6995 193.1426
" />
<path d="M265.6995 193.1426
L264.9852 193.2855
" />
<path d="M266.1994 192.7855
L266.5566 193.7855
" />
<path d="M266.5566 193.7855
L266.9137 192.7855
" />
<path d="M267.4852 193.6426
L267.5566 193.7141
" />
<path d="M267.5566 193.7141
L267.4852 193.7855
" />
<path d="M267.4852 193.7855
L267.4138 193.7141
" />
<path d="M267.4138 193.7141
L267.4852 193.6426
" />
<path d="M267.4852 193.6426
L267.4852 193.7855
" />
<path d="M267.4852 192.8569
L267.5566 192.9283
" />
<path d="M267.5566 192.9283
L267.4852 192.9998
" />
<path d="M267.4852 192.9998
L267.4138 192.9283
" />
<path d="M267.4138 192.9283
L267.4852 192.8569
" />
<path d="M267.4852 192.8569
L267.4852 192.9998
" />
</g></g>
<g style="fill:none; 
stroke:#840000; stroke-width:0.1524; stroke-opacity:1; 
stroke-linecap:round; stroke-linejoin:round;">
<text x="178.0022" y="193.8572"
textLength="9.3716" font-size="2.0000" lengthAdjust="spacingAndGlyphs"
text-anchor="start" opacity="0" stroke-opacity="0">Size: A4</text>
<g class="stroked-text"><desc>Size: A4</desc>
<path d="M178.3881 193.7217
L178.6024 193.7931
" />
<path d="M178.6024 193.7931
L178.9595 193.7931
" />
<path d="M178.9595 193.7931
L179.1024 193.7217
" />
<path d="M179.1024 193.7217
L179.1738 193.6502
" />
<path d="M179.1738 193.6502
L179.2452 193.5074
" />
<path d="M179.2452 193.5074
L179.2452 193.3645
" />
<path d="M179.2452 193.3645
L179.1738 193.2217
" />
<path d="M179.1738 193.2217
L179.1024 193.1502
" />
<path d="M179.1024 193.1502
L178.9595 193.0788
" />
<path d="M178.9595 193.0788
L178.6738 193.0074
" />
<path d="M178.6738 193.0074
L178.5309 192.9359
" />
<path d="M178.5309 192.9359
L178.4595 192.8645
" />
<path d="M178.4595 192.8645
L178.3881 192.7217
" />
<path d="M178.3881 192.7217
L178.3881 192.5788
" />
<path d="M178.3881 192.5788
L178.4595 192.4359
" />
<path d="M178.4595 192.4359
L178.5309 192.3645
" />
<path d="M178.5309 192.3645
L178.6738 192.2931
" />
<path d="M178.6738 192.2931
L179.0309 192.2931
" />
<path d="M179.0309 192.2931
L179.2452 192.3645
" />
<path d="M179.8881 193.7931
L179.8881 192.7931
" />
<path d="M179.8881 192.2931
L179.8167 192.3645
" />
<path d="M179.8167 192.3645
L179.8881 192.4359
" />
<path d="M179.8881 192.4359
L179.9595 192.3645
" />
<path d="M179.9595 192.3645
L179.8881 192.2931
" />
<path d="M179.8881 192.2931
L179.8881 192.4359
" />
<path d="M180.4595 192.7931
L181.2453 192.7931
" />
<path d="M181.2453 192.7931
L180.4595 193.7931
" />
<path d="M180.4595 193.7931
L181.2453 193.7931
" />
<path d="M182.3881 193.7217
L182.2453 193.7931
" />
<path d="M182.2453 193.7931
L181.9596 193.7931
" />
<path d="M181.9596 193.7931
L181.8167 193.7217
" />
<path d="M181.8167 193.7217
L181.7453 193.5788
" />
<path d="M181.7453 193.5788
L181.7453 193.0074
" />
<path d="M181.7453 193.0074
L181.8167 192.8645
" />
<path d="M181.8167 192.8645
L181.9596 192.7931
" />
<path d="M181.9596 192.7931
L182.2453 192.7931
" />
<path d="M182.2453 192.7931
L182.3881 192.8645
" />
<path d="M182.3881 192.8645
L182.4596 193.0074
" />
<path d="M182.4596 193.0074
L182.4596 193.1502
" />
<path d="M182.4596 193.1502
L181.7453 193.2931
" />
<path d="M183.1024 193.6502
L183.1738 193.7217
" />
<path d="M183.1738 193.7217
L183.1024 193.7931
" />
<path d="M183.1024 193.7931
L183.0310 193.7217
" />
<path d="M183.0310 193.7217
L183.1024 193.6502
" />
<path d="M183.1024 193.6502
L183.1024 193.7931
" />
<path d="M183.1024 192.8645
L183.1738 192.9359
" />
<path d="M183.1738 192.9359
L183.1024 193.0074
" />
<path d="M183.1024 193.0074
L183.0310 192.9359
" />
<path d="M183.0310 192.9359
L183.1024 192.8645
" />
<path d="M183.1024 192.8645
L183.1024 193.0074
" />
<path d="M184.8882 193.3645
L185.6025 193.3645
" />
<path d="M184.7453 193.7931
L185.2453 192.2931
" />
<path d="M185.2453 192.2931
L185.7453 193.7931
" />
<path d="M186.8882 192.7931
L186.8882 193.7931
" />
<path d="M186.5310 192.2217
L186.1739 193.2931
" />
<path d="M186.1739 193.2931
L187.1024 193.2931
" />
</g><text x="263.0022" y="196.6572"
textLength="8.5144" font-size="2.0000" lengthAdjust="spacingAndGlyphs"
text-anchor="start" opacity="0" stroke-opacity="0">Id: 1/1</text>
<g class="stroked-text"><desc>Id: 1/1</desc>
<path d="M263.4595 196.5931
L263.4595 195.0931
" />
<path d="M264.8167 196.5931
L264.8167 195.0931
" />
<path d="M264.8167 196.5217
L264.6738 196.5931
" />
<path d="M264.6738 196.5931
L264.3881 196.5931
" />
<path d="M264.3881 196.5931
L264.2452 196.5217
" />
<path d="M264.2452 196.5217
L264.1738 196.4502
" />
<path d="M264.1738 196.4502
L264.1024 196.3074
" />
<path d="M264.1024 196.3074
L264.1024 195.8788
" />
<path d="M264.1024 195.8788
L264.1738 195.7359
" />
<path d="M264.1738 195.7359
L264.2452 195.6645
" />
<path d="M264.2452 195.6645
L264.3881 195.5931
" />
<path d="M264.3881 195.5931
L264.6738 195.5931
" />
<path d="M264.6738 195.5931
L264.8167 195.6645
" />
<path d="M265.5309 196.4502
L265.6023 196.5217
" />
<path d="M265.6023 196.5217
L265.5309 196.5931
" />
<path d="M265.5309 196.5931
L265.4595 196.5217
" />
<path d="M265.4595 196.5217
L265.5309 196.4502
" />
<path d="M265.5309 196.4502
L265.5309 196.5931
" />
<path d="M265.5309 195.6645
L265.6023 195.7359
" />
<path d="M265.6023 195.7359
L265.5309 195.8074
" />
<path d="M265.5309 195.8074
L265.4595 195.7359
" />
<path d="M265.4595 195.7359
L265.5309 195.6645
" />
<path d="M265.5309 195.6645
L265.5309 195.8074
" />
<path d="M268.1738 196.5931
L267.3167 196.5931
" />
<path d="M267.7452 196.5931
L267.7452 195.0931
" />
<path d="M267.7452 195.0931
L267.6024 195.3074
" />
<path d="M267.6024 195.3074
L267.4595 195.4502
" />
<path d="M267.4595 195.4502
L267.3167 195.5217
" />
<path d="M269.8881 195.0217
L268.6024 196.9502
" />
<path d="M271.1738 196.5931
L270.3167 196.5931
" />
<path d="M270.7452 196.5931
L270.7452 195.0931
" />
<path d="M270.7452 195.0931
L270.6024 195.3074
" />
<path d="M270.6024 195.3074
L270.4595 195.4502
" />
<path d="M270.4595 195.4502
L270.3167 195.5217
" />
</g><path d="M177.0022 187.5072
L285.0022 187.5072
" />
</g>
<g style="fill:none; 
stroke:#840000; stroke-width:0.4000; stroke-opacity:1; 
stroke-linecap:round; stroke-linejoin:round;">
<text x="178.0022" y="190.3072"
textLength="9.6572" font-size="2.6666" lengthAdjust="spacingAndGlyphs"
text-anchor="start" opacity="0" stroke-opacity="0">Title: </text>
<g class="stroked-text"><desc>Title: </desc>
<path d="M178.6938 188.2116
L179.8367 188.2116
" />
<path d="M179.0153 190.2116
L179.2653 188.2116
" />
<path d="M180.2533 190.2116
L180.4200 188.8783
" />
<path d="M180.5033 188.2116
L180.3962 188.3068
" />
<path d="M180.3962 188.3068
L180.4795 188.4021
" />
<path d="M180.4795 188.4021
L180.5867 188.3068
" />
<path d="M180.5867 188.3068
L180.5033 188.2116
" />
<path d="M180.5033 188.2116
L180.4795 188.4021
" />
<path d="M181.0867 188.8783
L181.8486 188.8783
" />
<path d="M181.4557 188.2116
L181.2415 189.9259
" />
<path d="M181.2415 189.9259
L181.3129 190.1164
" />
<path d="M181.3129 190.1164
L181.4915 190.2116
" />
<path d="M181.4915 190.2116
L181.6819 190.2116
" />
<path d="M182.6344 190.2116
L182.4558 190.1164
" />
<path d="M182.4558 190.1164
L182.3844 189.9259
" />
<path d="M182.3844 189.9259
L182.5986 188.2116
" />
<path d="M184.1700 190.1164
L183.9677 190.2116
" />
<path d="M183.9677 190.2116
L183.5867 190.2116
" />
<path d="M183.5867 190.2116
L183.4081 190.1164
" />
<path d="M183.4081 190.1164
L183.3367 189.9259
" />
<path d="M183.3367 189.9259
L183.4320 189.1640
" />
<path d="M183.4320 189.1640
L183.5510 188.9735
" />
<path d="M183.5510 188.9735
L183.7534 188.8783
" />
<path d="M183.7534 188.8783
L184.1343 188.8783
" />
<path d="M184.1343 188.8783
L184.3129 188.9735
" />
<path d="M184.3129 188.9735
L184.3843 189.1640
" />
<path d="M184.3843 189.1640
L184.3605 189.3544
" />
<path d="M184.3605 189.3544
L183.3843 189.5449
" />
<path d="M185.1343 190.0211
L185.2177 190.1164
" />
<path d="M185.2177 190.1164
L185.1105 190.2116
" />
<path d="M185.1105 190.2116
L185.0272 190.1164
" />
<path d="M185.0272 190.1164
L185.1343 190.0211
" />
<path d="M185.1343 190.0211
L185.1105 190.2116
" />
<path d="M185.2653 188.9735
L185.3486 189.0687
" />
<path d="M185.3486 189.0687
L185.2415 189.1640
" />
<path d="M185.2415 189.1640
L185.1582 189.0687
" />
<path d="M185.1582 189.0687
L185.2653 188.9735
" />
<path d="M185.2653 188.9735
L185.2415 189.1640
" />
</g></g>
<g style="fill:none; 
stroke:#840000; stroke-width:0.1524; stroke-opacity:1; 
stroke-linecap:round; stroke-linejoin:round;">
<text x="178.0022" y="186.4572"
textLength="32.8714" font-size="2.0000" lengthAdjust="spacingAndGlyphs"
text-anchor="start" opacity="0" stroke-opacity="0">File: schematics_1.kicad_sch</text>
<g class="stroked-text"><desc>File: schematics_1.kicad_sch</desc>
<path d="M178.9595 185.6074
L178.4595 185.6074
" />
<path d="M178.4595 186.3931
L178.4595 184.8931
" />
<path d="M178.4595 184.8931
L179.1738 184.8931
" />
<path d="M179.7452 186.3931
L179.7452 185.3931
" />
<path d="M179.7452 184.8931
L179.6738 184.9645
" />
<path d="M179.6738 184.9645
L179.7452 185.0359
" />
<path d="M179.7452 185.0359
L179.8166 184.9645
" />
<path d="M179.8166 184.9645
L179.7452 184.8931
" />
<path d="M179.7452 184.8931
L179.7452 185.0359
" />
<path d="M180.6738 186.3931
L180.5309 186.3217
" />
<path d="M180.5309 186.3217
L180.4595 186.1788
" />
<path d="M180.4595 186.1788
L180.4595 184.8931
" />
<path d="M181.8166 186.3217
L181.6738 186.3931
" />
<path d="M181.6738 186.3931
L181.3881 186.3931
" />
<path d="M181.3881 186.3931
L181.2452 186.3217
" />
<path d="M181.2452 186.3217
L181.1738 186.1788
" />
<path d="M181.1738 186.1788
L181.1738 185.6074
" />
<path d="M181.1738 185.6074
L181.2452 185.4645
" />
<path d="M181.2452 185.4645
L181.3881 185.3931
" />
<path d="M181.3881 185.3931
L181.6738 185.3931
" />
<path d="M181.6738 185.3931
L181.8166 185.4645
" />
<path d="M181.8166 185.4645
L181.8881 185.6074
" />
<path d="M181.8881 185.6074
L181.8881 185.7502
" />
<path d="M181.8881 185.7502
L181.1738 185.8931
" />
<path d="M182.5309 186.2502
L182.6023 186.3217
" />
<path d="M182.6023 186.3217
L182.5309 186.3931
" />
<path d="M182.5309 186.3931
L182.4595 186.3217
" />
<path d="M182.4595 186.3217
L182.5309 186.2502
" />
<path d="M182.5309 186.2502
L182.5309 186.3931
" />
<path d="M182.5309 185.4645
L182.6023 185.5359
" />
<path d="M182.6023 185.5359
L182.5309 185.6074
" />
<path d="M182.5309 185.6074
L182.4595 185.5359
" />
<path d="M182.4595 185.5359
L182.5309 185.4645
" />
<path d="M182.5309 185.4645
L182.5309 185.6074
" />
<path d="M184.3167 186.3217
L184.4595 186.3931
" />
<path d="M184.4595 186.3931
L184.7452 186.3931
" />
<path d="M184.7452 186.3931
L184.8881 186.3217
" />
<path d="M184.8881 186.3217
L184.9595 186.1788
" />
<path d="M184.9595 186.1788
L184.9595 186.1074
" />
<path d="M184.9595 186.1074
L184.8881 185.9645
" />
<path d="M184.8881 185.9645
L184.7452 185.8931
" />
<path d="M184.7452 185.8931
L184.5310 185.8931
" />
<path d="M184.5310 185.8931
L184.3881 185.8217
" />
<path d="M184.3881 185.8217
L184.3167 185.6788
" />
<path d="M184.3167 185.6788
L184.3167 185.6074
" />
<path d="M184.3167 185.6074
L184.3881 185.4645
" />
<path d="M184.3881 185.4645
L184.5310 185.3931
" />
<path d="M184.5310 185.3931
L184.7452 185.3931
" />
<path d="M184.7452 185.3931
L184.8881 185.4645
" />
<path d="M186.2453 186.3217
L186.1024 186.3931
" />
<path d="M186.1024 186.3931
L185.8167 186.3931
" />
<path d="M185.8167 186.3931
L185.6738 186.3217
" />
<path d="M185.6738 186.3217
L185.6024 186.2502
" />
<path d="M185.6024 186.2502
L185.5310 186.1074
" />
<path d="M185.5310 186.1074
L185.5310 185.6788
" />
<path d="M185.5310 185.6788
L185.6024 185.5359
" />
<path d="M185.6024 185.5359
L185.6738 185.4645
" />
<path d="M185.6738 185.4645
L185.8167 185.3931
" />
<path d="M185.8167 185.3931
L186.1024 185.3931
" />
<path d="M186.1024 185.3931
L186.2453 185.4645
" />
<path d="M186.8881 186.3931
L186.8881 184.8931
" />
<path d="M187.5310 186.3931
L187.5310 185.6074
" />
<path d="M187.5310 185.6074
L187.4595 185.4645
" />
<path d="M187.4595 185.4645
L187.3167 185.3931
" />
<path d="M187.3167 185.3931
L187.1024 185.3931
" />
<path d="M187.1024 185.3931
L186.9595 185.4645
" />
<path d="M186.9595 185.4645
L186.8881 185.5359
" />
<path d="M188.8166 186.3217
L188.6738 186.3931
" />
<path d="M188.6738 186.3931
L188.3881 186.3931
" />
<path d="M188.3881 186.3931
L188.2452 186.3217
" />
<path d="M188.2452 186.3217
L188.1738 186.1788
" />
<path d="M188.1738 186.1788
L188.1738 185.6074
" />
<path d="M188.1738 185.6074
L188.2452 185.4645
" />
<path d="M188.2452 185.4645
L188.3881 185.3931
" />
<path d="M188.3881 185.3931
L188.6738 185.3931
" />
<path d="M188.6738 185.3931
L188.8166 185.4645
" />
<path d="M188.8166 185.4645
L188.8881 185.6074
" />
<path d="M188.8881 185.6074
L188.8881 185.7502
" />
<path d="M188.8881 185.7502
L188.1738 185.8931
" />
<path d="M189.5309 186.3931
L189.5309 185.3931
" />
<path d="M189.5309 185.5359
L189.6023 185.4645
" />
<path d="M189.6023 185.4645
L189.7452 185.3931
" />
<path d="M189.7452 185.3931
L189.9595 185.3931
" />
<path d="M189.9595 185.3931
L190.1023 185.4645
" />
<path d="M190.1023 185.4645
L190.1738 185.6074
" />
<path d="M190.1738 185.6074
L190.1738 186.3931
" />
<path d="M190.1738 185.6074
L190.2452 185.4645
" />
<path d="M190.2452 185.4645
L190.3880 185.3931
" />
<path d="M190.3880 185.3931
L190.6023 185.3931
" />
<path d="M190.6023 185.3931
L190.7452 185.4645
" />
<path d="M190.7452 185.4645
L190.8166 185.6074
" />
<path d="M190.8166 185.6074
L190.8166 186.3931
" />
<path d="M192.1738 186.3931
L192.1738 185.6074
" />
<path d="M192.1738 185.6074
L192.1023 185.4645
" />
<path d="M192.1023 185.4645
L191.9595 185.3931
" />
<path d="M191.9595 185.3931
L191.6738 185.3931
" />
<path d="M191.6738 185.3931
L191.5309 185.4645
" />
<path d="M192.1738 186.3217
L192.0309 186.3931
" />
<path d="M192.0309 186.3931
L191.6738 186.3931
" />
<path d="M191.6738 186.3931
L191.5309 186.3217
" />
<path d="M191.5309 186.3217
L191.4595 186.1788
" />
<path d="M191.4595 186.1788
L191.4595 186.0359
" />
<path d="M191.4595 186.0359
L191.5309 185.8931
" />
<path d="M191.5309 185.8931
L191.6738 185.8217
" />
<path d="M191.6738 185.8217
L192.0309 185.8217
" />
<path d="M192.0309 185.8217
L192.1738 185.7502
" />
<path d="M192.6737 185.3931
L193.2451 185.3931
" />
<path d="M192.8880 184.8931
L192.8880 186.1788
" />
<path d="M192.8880 186.1788
L192.9594 186.3217
" />
<path d="M192.9594 186.3217
L193.1023 186.3931
" />
<path d="M193.1023 186.3931
L193.2451 186.3931
" />
<path d="M193.7451 186.3931
L193.7451 185.3931
" />
<path d="M193.7451 184.8931
L193.6737 184.9645
" />
<path d="M193.6737 184.9645
L193.7451 185.0359
" />
<path d="M193.7451 185.0359
L193.8165 184.9645
" />
<path d="M193.8165 184.9645
L193.7451 184.8931
" />
<path d="M193.7451 184.8931
L193.7451 185.0359
" />
<path d="M195.1023 186.3217
L194.9594 186.3931
" />
<path d="M194.9594 186.3931
L194.6737 186.3931
" />
<path d="M194.6737 186.3931
L194.5308 186.3217
" />
<path d="M194.5308 186.3217
L194.4594 186.2502
" />
<path d="M194.4594 186.2502
L194.3880 186.1074
" />
<path d="M194.3880 186.1074
L194.3880 185.6788
" />
<path d="M194.3880 185.6788
L194.4594 185.5359
" />
<path d="M194.4594 185.5359
L194.5308 185.4645
" />
<path d="M194.5308 185.4645
L194.6737 185.3931
" />
<path d="M194.6737 185.3931
L194.9594 185.3931
" />
<path d="M194.9594 185.3931
L195.1023 185.4645
" />
<path d="M195.6737 186.3217
L195.8165 186.3931
" />
<path d="M195.8165 186.3931
L196.1022 186.3931
" />
<path d="M196.1022 186.3931
L196.2451 186.3217
" />
<path d="M196.2451 186.3217
L196.3165 186.1788
" />
<path d="M196.3165 186.1788
L196.3165 186.1074
" />
<path d="M196.3165 186.1074
L196.2451 185.9645
" />
<path d="M196.2451 185.9645
L196.1022 185.8931
" />
<path d="M196.1022 185.8931
L195.8880 185.8931
" />
<path d="M195.8880 185.8931
L195.7451 185.8217
" />
<path d="M195.7451 185.8217
L195.6737 185.6788
" />
<path d="M195.6737 185.6788
L195.6737 185.6074
" />
<path d="M195.6737 185.6074
L195.7451 185.4645
" />
<path d="M195.7451 185.4645
L195.8880 185.3931
" />
<path d="M195.8880 185.3931
L196.1022 185.3931
" />
<path d="M196.1022 185.3931
L196.2451 185.4645
" />
<path d="M196.6023 186.5359
L197.7451 186.5359
" />
<path d="M198.8880 186.3931
L198.0309 186.3931
" />
<path d="M198.4594 186.3931
L198.4594 184.8931
" />
<path d="M198.4594 184.8931
L198.3166 185.1074
" />
<path d="M198.3166 185.1074
L198.1737 185.2502
" />
<path d="M198.1737 185.2502
L198.0309 185.3217
" />
<path d="M199.5309 186.2502
L199.6023 186.3217
" />
<path d="M199.6023 186.3217
L199.5309 186.3931
" />
<path d="M199.5309 186.3931
L199.4595 186.3217
" />
<path d="M199.4595 186.3217
L199.5309 186.2502
" />
<path d="M199.5309 186.2502
L199.5309 186.3931
" />
<path d="M200.2452 186.3931
L200.2452 184.8931
" />
<path d="M200.3881 185.8217
L200.8166 186.3931
" />
<path d="M200.8166 185.3931
L200.2452 185.9645
" />
<path d="M201.4595 186.3931
L201.4595 185.3931
" />
<path d="M201.4595 184.8931
L201.3881 184.9645
" />
<path d="M201.3881 184.9645
L201.4595 185.0359
" />
<path d="M201.4595 185.0359
L201.5309 184.9645
" />
<path d="M201.5309 184.9645
L201.4595 184.8931
" />
<path d="M201.4595 184.8931
L201.4595 185.0359
" />
<path d="M202.8167 186.3217
L202.6738 186.3931
" />
<path d="M202.6738 186.3931
L202.3881 186.3931
" />
<path d="M202.3881 186.3931
L202.2452 186.3217
" />
<path d="M202.2452 186.3217
L202.1738 186.2502
" />
<path d="M202.1738 186.2502
L202.1024 186.1074
" />
<path d="M202.1024 186.1074
L202.1024 185.6788
" />
<path d="M202.1024 185.6788
L202.1738 185.5359
" />
<path d="M202.1738 185.5359
L202.2452 185.4645
" />
<path d="M202.2452 185.4645
L202.3881 185.3931
" />
<path d="M202.3881 185.3931
L202.6738 185.3931
" />
<path d="M202.6738 185.3931
L202.8167 185.4645
" />
<path d="M204.1024 186.3931
L204.1024 185.6074
" />
<path d="M204.1024 185.6074
L204.0309 185.4645
" />
<path d="M204.0309 185.4645
L203.8881 185.3931
" />
<path d="M203.8881 185.3931
L203.6024 185.3931
" />
<path d="M203.6024 185.3931
L203.4595 185.4645
" />
<path d="M204.1024 186.3217
L203.9595 186.3931
" />
<path d="M203.9595 186.3931
L203.6024 186.3931
" />
<path d="M203.6024 186.3931
L203.4595 186.3217
" />
<path d="M203.4595 186.3217
L203.3881 186.1788
" />
<path d="M203.3881 186.1788
L203.3881 186.0359
" />
<path d="M203.3881 186.0359
L203.4595 185.8931
" />
<path d="M203.4595 185.8931
L203.6024 185.8217
" />
<path d="M203.6024 185.8217
L203.9595 185.8217
" />
<path d="M203.9595 185.8217
L204.1024 185.7502
" />
<path d="M205.4595 186.3931
L205.4595 184.8931
" />
<path d="M205.4595 186.3217
L205.3166 186.3931
" />
<path d="M205.3166 186.3931
L205.0309 186.3931
" />
<path d="M205.0309 186.3931
L204.8880 186.3217
" />
<path d="M204.8880 186.3217
L204.8166 186.2502
" />
<path d="M204.8166 186.2502
L204.7452 186.1074
" />
<path d="M204.7452 186.1074
L204.7452 185.6788
" />
<path d="M204.7452 185.6788
L204.8166 185.5359
" />
<path d="M204.8166 185.5359
L204.8880 185.4645
" />
<path d="M204.8880 185.4645
L205.0309 185.3931
" />
<path d="M205.0309 185.3931
L205.3166 185.3931
" />
<path d="M205.3166 185.3931
L205.4595 185.4645
" />
<path d="M205.8166 186.5359
L206.9594 186.5359
" />
<path d="M207.2452 186.3217
L207.3880 186.3931
" />
<path d="M207.3880 186.3931
L207.6737 186.3931
" />
<path d="M207.6737 186.3931
L207.8166 186.3217
" />
<path d="M207.8166 186.3217
L207.8880 186.1788
" />
<path d="M207.8880 186.1788
L207.8880 186.1074
" />
<path d="M207.8880 186.1074
L207.8166 185.9645
" />
<path d="M207.8166 185.9645
L207.6737 185.8931
" />
<path d="M207.6737 185.8931
L207.4595 185.8931
" />
<path d="M207.4595 185.8931
L207.3166 185.8217
" />
<path d="M207.3166 185.8217
L207.2452 185.6788
" />
<path d="M207.2452 185.6788
L207.2452 185.6074
" />
<path d="M207.2452 185.6074
L207.3166 185.4645
" />
<path d="M207.3166 185.4645
L207.4595 185.3931
" />
<path d="M207.4595 185.3931
L207.6737 185.3931
" />
<path d="M207.6737 185.3931
L207.8166 185.4645
" />
<path d="M209.1738 186.3217
L209.0309 186.3931
" />
<path d="M209.0309 186.3931
L208.7452 186.3931
" />
<path d="M208.7452 186.3931
L208.6023 186.3217
" />
<path d="M208.6023 186.3217
L208.5309 186.2502
" />
<path d="M208.5309 186.2502
L208.4595 186.1074
" />
<path d="M208.4595 186.1074
L208.4595 185.6788
" />
<path d="M208.4595 185.6788
L208.5309 185.5359
" />
<path d="M208.5309 185.5359
L208.6023 185.4645
" />
<path d="M208.6023 185.4645
L208.7452 185.3931
" />
<path d="M208.7452 185.3931
L209.0309 185.3931
" />
<path d="M209.0309 185.3931
L209.1738 185.4645
" />
<path d="M209.8166 186.3931
L209.8166 184.8931
" />
<path d="M210.4595 186.3931
L210.4595 185.6074
" />
<path d="M210.4595 185.6074
L210.3880 185.4645
" />
<path d="M210.3880 185.4645
L210.2452 185.3931
" />
<path d="M210.2452 185.3931
L210.0309 185.3931
" />
<path d="M210.0309 185.3931
L209.8880 185.4645
" />
<path d="M209.8880 185.4645
L209.8166 185.5359
" />
</g><path d="M177.0022 181.5072
L285.0022 181.5072
" />
<text x="178.0022" y="183.7572"
textLength="9.8000" font-size="2.0000" lengthAdjust="spacingAndGlyphs"
text-anchor="start" opacity="0" stroke-opacity="0">Sheet: /</text>
<g class="stroked-text"><desc>Sheet: /</desc>
<path d="M178.3881 183.6217
L178.6024 183.6931
" />
<path d="M178.6024 183.6931
L178.9595 183.6931
" />
<path d="M178.9595 183.6931
L179.1024 183.6217
" />
<path d="M179.1024 183.6217
L179.1738 183.5502
" />
<path d="M179.1738 183.5502
L179.2452 183.4074
" />
<path d="M179.2452 183.4074
L179.2452 183.2645
" />
<path d="M179.2452 183.2645
L179.1738 183.1217
" />
<path d="M179.1738 183.1217
L179.1024 183.0502
" />
<path d="M179.1024 183.0502
L178.9595 182.9788
" />
<path d="M178.9595 182.9788
L178.6738 182.9074
" />
<path d="M178.6738 182.9074
L178.5309 182.8359
" />
<path d="M178.5309 182.8359
L178.4595 182.7645
" />
<path d="M178.4595 182.7645
L178.3881 182.6217
" />
<path d="M178.3881 182.6217
L178.3881 182.4788
" />
<path d="M178.3881 182.4788
L178.4595 182.3359
" />
<path d="M178.4595 182.3359
L178.5309 182.2645
" />
<path d="M178.5309 182.2645
L178.6738 182.1931
" />
<path d="M178.6738 182.1931
L179.0309 182.1931
" />
<path d="M179.0309 182.1931
L179.2452 182.2645
" />
<path d="M179.8881 183.6931
L179.8881 182.1931
" />
<path d="M180.5310 183.6931
L180.5310 182.9074
" />
<path d="M180.5310 182.9074
L180.4595 182.7645
" />
<path d="M180.4595 182.7645
L180.3167 182.6931
" />
<path d="M180.3167 182.6931
L180.1024 182.6931
" />
<path d="M180.1024 182.6931
L179.9595 182.7645
" />
<path d="M179.9595 182.7645
L179.8881 182.8359
" />
<path d="M181.8166 183.6217
L181.6738 183.6931
" />
<path d="M181.6738 183.6931
L181.3881 183.6931
" />
<path d="M181.3881 183.6931
L181.2452 183.6217
" />
<path d="M181.2452 183.6217
L181.1738 183.4788
" />
<path d="M181.1738 183.4788
L181.1738 182.9074
" />
<path d="M181.1738 182.9074
L181.2452 182.7645
" />
<path d="M181.2452 182.7645
L181.3881 182.6931
" />
<path d="M181.3881 182.6931
L181.6738 182.6931
" />
<path d="M181.6738 182.6931
L181.8166 182.7645
" />
<path d="M181.8166 182.7645
L181.8881 182.9074
" />
<path d="M181.8881 182.9074
L181.8881 183.0502
" />
<path d="M181.8881 183.0502
L181.1738 183.1931
" />
<path d="M183.1023 183.6217
L182.9595 183.6931
" />
<path d="M182.9595 183.6931
L182.6738 183.6931
" />
<path d="M182.6738 183.6931
L182.5309 183.6217
" />
<path d="M182.5309 183.6217
L182.4595 183.4788
" />
<path d="M182.4595 183.4788
L182.4595 182.9074
" />
<path d="M182.4595 182.9074
L182.5309 182.7645
" />
<path d="M182.5309 182.7645
L182.6738 182.6931
" />
<path d="M182.6738 182.6931
L182.9595 182.6931
" />
<path d="M182.9595 182.6931
L183.1023 182.7645
" />
<path d="M183.1023 182.7645
L183.1738 182.9074
" />
<path d="M183.1738 182.9074
L183.1738 183.0502
" />
<path d="M183.1738 183.0502
L182.4595 183.1931
" />
<path d="M183.6023 182.6931
L184.1737 182.6931
" />
<path d="M183.8166 182.1931
L183.8166 183.4788
" />
<path d="M183.8166 183.4788
L183.8880 183.6217
" />
<path d="M183.8880 183.6217
L184.0309 183.6931
" />
<path d="M184.0309 183.6931
L184.1737 183.6931
" />
<path d="M184.6737 183.5502
L184.7451 183.6217
" />
<path d="M184.7451 183.6217
L184.6737 183.6931
" />
<path d="M184.6737 183.6931
L184.6023 183.6217
" />
<path d="M184.6023 183.6217
L184.6737 183.5502
" />
<path d="M184.6737 183.5502
L184.6737 183.6931
" />
<path d="M184.6737 182.7645
L184.7451 182.8359
" />
<path d="M184.7451 182.8359
L184.6737 182.9074
" />
<path d="M184.6737 182.9074
L184.6023 182.8359
" />
<path d="M184.6023 182.8359
L184.6737 182.7645
" />
<path d="M184.6737 182.7645
L184.6737 182.9074
" />
<path d="M187.6023 182.1217
L186.3166 184.0502
" />
</g></g>
<g style="fill:none; 
stroke:#840000; stroke-width:0.3000; stroke-opacity:1; 
stroke-linecap:round; stroke-linejoin:round;">
<text x="178.0022" y="180.7572"
textLength="0.9000" font-size="2.0000" lengthAdjust="spacingAndGlyphs"
text-anchor="start" opacity="0" stroke-opacity="0"></text>
<g class="stroked-text"><desc></desc>
</g></g>
<g style="fill:none; 
stroke:#840000; stroke-width:0.1524; stroke-opacity:1; 
stroke-linecap:round; stroke-linejoin:round;">
<text x="178.0022" y="177.7572"
textLength="0.4572" font-size="2.0000" lengthAdjust="spacingAndGlyphs"
text-anchor="start" opacity="0" stroke-opacity="0"></text>
<g class="stroked-text"><desc></desc>
</g><text x="178.0022" y="174.7572"
textLength="0.4572" font-size="2.0000" lengthAdjust="spacingAndGlyphs"
text-anchor="start" opacity="0" stroke-opacity="0"></text>
<g class="stroked-text"><desc></desc>
</g><text x="178.0022" y="171.7572"
textLength="0.4572" font-size="2.0000" lengthAdjust="spacingAndGlyphs"
text-anchor="start" opacity="0" stroke-opacity="0"></text>
<g class="stroked-text"><desc></desc>
</g><text x="178.0022" y="168.7572"
textLength="0.4572" font-size="2.0000" lengthAdjust="spacingAndGlyphs"
text-anchor="start" opacity="0" stroke-opacity="0"></text>
<g class="stroked-text"><desc></desc>
</g><path d="M197.0022 191.5072
L197.0022 194.5072
" />
<path d="M261.0022 191.5072
L261.0022 198.0072
" />
</g>
<g style="fill:#FFFFC2; fill-opacity:1.0000; stroke:none;">
<circle cx="78.7400" cy="46.9900" r="2.5400" /> 
<path style="fill:none; 
stroke:#840000; stroke-width:0.1524; stroke-opacity:1; 
stroke-linecap:round; stroke-linejoin:round;fill:none"
d="M 77.4700,46.7360
80.0100,46.7360
" /> 
<path style="fill:none; 
stroke:#840000; stroke-width:0.1524; stroke-opacity:1; 
stroke-linecap:round; stroke-linejoin:round;fill:none"
d="M 77.9780,47.2440
77.4700,47.2440
" /> 
<path style="fill:none; 
stroke:#840000; stroke-width:0.1524; stroke-opacity:1; 
stroke-linecap:round; stroke-linejoin:round;fill:none"
d="M 78.9940,47.2440
78.4860,47.2440
" /> 
<path style="fill:none; 
stroke:#840000; stroke-width:0.1524; stroke-opacity:1; 
stroke-linecap:round; stroke-linejoin:round;fill:none"
d="M 80.0100,47.2440
79.5020,47.2440
" /> 
</g>
<g style="fill:none; 
stroke:#840000; stroke-width:0.2540; stroke-opacity:1; 
stroke-linecap:round; stroke-linejoin:round;">
<circle cx="78.7400" cy="46.9900" r="2.5400" /> 
</g>
<g style="fill:none; 
stroke:#840000; stroke-width:0.1524; stroke-opacity:1; 
stroke-linecap:round; stroke-linejoin:round;">
<text x="78.7400" y="45.7200"
textLength="1.7756" font-size="1.6933" lengthAdjust="spacingAndGlyphs"
text-anchor="middle" opacity="0" stroke-opacity="0">+</text>
<g class="stroked-text"><desc>+</desc>
<path d="M78.2561 45.1807
L79.2238 45.1807
" />
<path d="M78.7399 45.6645
L78.7399 44.6969
" />
</g><path d="M78.7400 44.4500
L78.7400 41.9100
" />
<path d="M78.7400 49.5300
L78.7400 52.0700
" />
</g>
<g style="fill:none; 
stroke:#006464; stroke-width:0.1524; stroke-opacity:1; 
stroke-linecap:round; stroke-linejoin:round;">
<text x="83.8102" y="46.2251"
textLength="2.5013" font-size="1.6933" lengthAdjust="spacingAndGlyphs"
text-anchor="middle" opacity="0" stroke-opacity="0">V2</text>
<g class="stroked-text"><desc>V2</desc>
<path d="M82.7821 44.8996
L83.2054 46.1696
" />
<path d="M83.2054 46.1696
L83.6288 44.8996
" />
<path d="M83.9917 45.0206
L84.0521 44.9601
" />
<path d="M84.0521 44.9601
L84.1731 44.8996
" />
<path d="M84.1731 44.8996
L84.4755 44.8996
" />
<path d="M84.4755 44.8996
L84.5964 44.9601
" />
<path d="M84.5964 44.9601
L84.6569 45.0206
" />
<path d="M84.6569 45.0206
L84.7174 45.1415
" />
<path d="M84.7174 45.1415
L84.7174 45.2625
" />
<path d="M84.7174 45.2625
L84.6569 45.4439
" />
<path d="M84.6569 45.4439
L83.9312 46.1696
" />
<path d="M83.9312 46.1696
L84.7174 46.1696
" />
</g><text x="83.8102" y="48.7651"
textLength="2.5013" font-size="1.6933" lengthAdjust="spacingAndGlyphs"
text-anchor="middle" opacity="0" stroke-opacity="0">9V</text>
<g class="stroked-text"><desc>9V</desc>
<path d="M83.0240 48.7096
L83.2659 48.7096
" />
<path d="M83.2659 48.7096
L83.3869 48.6492
" />
<path d="M83.3869 48.6492
L83.4473 48.5887
" />
<path d="M83.4473 48.5887
L83.5683 48.4072
" />
<path d="M83.5683 48.4072
L83.6288 48.1653
" />
<path d="M83.6288 48.1653
L83.6288 47.6815
" />
<path d="M83.6288 47.6815
L83.5683 47.5606
" />
<path d="M83.5683 47.5606
L83.5078 47.5001
" />
<path d="M83.5078 47.5001
L83.3869 47.4396
" />
<path d="M83.3869 47.4396
L83.1450 47.4396
" />
<path d="M83.1450 47.4396
L83.0240 47.5001
" />
<path d="M83.0240 47.5001
L82.9635 47.5606
" />
<path d="M82.9635 47.5606
L82.9031 47.6815
" />
<path d="M82.9031 47.6815
L82.9031 47.9839
" />
<path d="M82.9031 47.9839
L82.9635 48.1049
" />
<path d="M82.9635 48.1049
L83.0240 48.1653
" />
<path d="M83.0240 48.1653
L83.1450 48.2258
" />
<path d="M83.1450 48.2258
L83.3869 48.2258
" />
<path d="M83.3869 48.2258
L83.5078 48.1653
" />
<path d="M83.5078 48.1653
L83.5683 48.1049
" />
<path d="M83.5683 48.1049
L83.6288 47.9839
" />
<path d="M83.9916 47.4396
L84.4149 48.7096
" />
<path d="M84.4149 48.7096
L84.8383 47.4396
" />
</g></g>
<g style="fill:none; 
stroke:#840000; stroke-width:0.2540; stroke-opacity:1; 
stroke-linecap:round; stroke-linejoin:round;">
<rect x="51.054000" y="35.560000" width="2.032000" height="5.080000" rx="0.000000" />
</g>
<g style="fill:none; 
stroke:#840000; stroke-width:0.1524; stroke-opacity:1; 
stroke-linecap:round; stroke-linejoin:round;">
<path d="M52.0700 35.5600
L52.0700 34.2900
" />
<path d="M52.0700 40.6400
L52.0700 41.9100
" />
</g>
<g style="fill:none; 
stroke:#006464; stroke-width:0.1524; stroke-opacity:1; 
stroke-linecap:round; stroke-linejoin:round;">
<text x="55.9609" y="37.4649"
textLength="2.6827" font-size="1.6933" lengthAdjust="spacingAndGlyphs"
text-anchor="middle" opacity="0" stroke-opacity="0">R2</text>
<g class="stroked-text"><desc>R2</desc>
<path d="M55.7492 37.4094
L55.3259 36.8047
" />
<path d="M55.0235 37.4094
L55.0235 36.1394
" />
<path d="M55.0235 36.1394
L55.5073 36.1394
" />
<path d="M55.5073 36.1394
L55.6283 36.1999
" />
<path d="M55.6283 36.1999
L55.6888 36.2604
" />
<path d="M55.6888 36.2604
L55.7492 36.3813
" />
<path d="M55.7492 36.3813
L55.7492 36.5628
" />
<path d="M55.7492 36.5628
L55.6888 36.6837
" />
<path d="M55.6888 36.6837
L55.6283 36.7442
" />
<path d="M55.6283 36.7442
L55.5073 36.8047
" />
<path d="M55.5073 36.8047
L55.0235 36.8047
" />
<path d="M56.2331 36.2604
L56.2935 36.1999
" />
<path d="M56.2935 36.1999
L56.4145 36.1394
" />
<path d="M56.4145 36.1394
L56.7169 36.1394
" />
<path d="M56.7169 36.1394
L56.8378 36.1999
" />
<path d="M56.8378 36.1999
L56.8983 36.2604
" />
<path d="M56.8983 36.2604
L56.9588 36.3813
" />
<path d="M56.9588 36.3813
L56.9588 36.5023
" />
<path d="M56.9588 36.5023
L56.8983 36.6837
" />
<path d="M56.8983 36.6837
L56.1726 37.4094
" />
<path d="M56.1726 37.4094
L56.9588 37.4094
" />
</g><text x="56.5354" y="40.0049"
textLength="3.8317" font-size="1.6933" lengthAdjust="spacingAndGlyphs"
text-anchor="middle" opacity="0" stroke-opacity="0">100</text>
<g class="stroked-text"><desc>100</desc>
<path d="M55.6888 39.9494
L54.9631 39.9494
" />
<path d="M55.3259 39.9494
L55.3259 38.6794
" />
<path d="M55.3259 38.6794
L55.2050 38.8609
" />
<path d="M55.2050 38.8609
L55.0840 38.9818
" />
<path d="M55.0840 38.9818
L54.9631 39.0423
" />
<path d="M56.4749 38.6794
L56.5959 38.6794
" />
<path d="M56.5959 38.6794
L56.7168 38.7399
" />
<path d="M56.7168 38.7399
L56.7773 38.8004
" />
<path d="M56.7773 38.8004
L56.8378 38.9213
" />
<path d="M56.8378 38.9213
L56.8983 39.1632
" />
<path d="M56.8983 39.1632
L56.8983 39.4656
" />
<path d="M56.8983 39.4656
L56.8378 39.7075
" />
<path d="M56.8378 39.7075
L56.7773 39.8285
" />
<path d="M56.7773 39.8285
L56.7168 39.8890
" />
<path d="M56.7168 39.8890
L56.5959 39.9494
" />
<path d="M56.5959 39.9494
L56.4749 39.9494
" />
<path d="M56.4749 39.9494
L56.3540 39.8890
" />
<path d="M56.3540 39.8890
L56.2935 39.8285
" />
<path d="M56.2935 39.8285
L56.2330 39.7075
" />
<path d="M56.2330 39.7075
L56.1726 39.4656
" />
<path d="M56.1726 39.4656
L56.1726 39.1632
" />
<path d="M56.1726 39.1632
L56.2330 38.9213
" />
<path d="M56.2330 38.9213
L56.2935 38.8004
" />
<path d="M56.2935 38.8004
L56.3540 38.7399
" />
<path d="M56.3540 38.7399
L56.4749 38.6794
" />
<path d="M57.6844 38.6794
L57.8054 38.6794
" />
<path d="M57.8054 38.6794
L57.9263 38.7399
" />
<path d="M57.9263 38.7399
L57.9868 38.8004
" />
<path d="M57.9868 38.8004
L58.0473 38.9213
" />
<path d="M58.0473 38.9213
L58.1078 39.1632
" />
<path d="M58.1078 39.1632
L58.1078 39.4656
" />
<path d="M58.1078 39.4656
L58.0473 39.7075
" />
<path d="M58.0473 39.7075
L57.9868 39.8285
" />
<path d="M57.9868 39.8285
L57.9263 39.8890
" />
<path d="M57.9263 39.8890
L57.8054 39.9494
" />
<path d="M57.8054 39.9494
L57.6844 39.9494
" />
<path d="M57.6844 39.9494
L57.5635 39.8890
" />
<path d="M57.5635 39.8890
L57.5030 39.8285
" />
<path d="M57.5030 39.8285
L57.4425 39.7075
" />
<path d="M57.4425 39.7075
L57.3821 39.4656
" />
<path d="M57.3821 39.4656
L57.3821 39.1632
" />
<path d="M57.3821 39.1632
L57.4425 38.9213
" />
<path d="M57.4425 38.9213
L57.5030 38.8004
" />
<path d="M57.5030 38.8004
L57.5635 38.7399
" />
<path d="M57.5635 38.7399
L57.6844 38.6794
" />
</g></g>
<g style="fill:#FFFFC2; fill-opacity:1.0000; stroke:none;">
<circle cx="25.4000" cy="46.9900" r="2.5400" /> 
<path style="fill:none; 
stroke:#840000; stroke-width:0.1524; stroke-opacity:1; 
stroke-linecap:round; stroke-linejoin:round;fill:none"
d="M 24.1300,46.7360
26.6700,46.7360
" /> 
<path style="fill:none; 
stroke:#840000; stroke-width:0.1524; stroke-opacity:1; 
stroke-linecap:round; stroke-linejoin:round;fill:none"
d="M 24.6380,47.2440
24.1300,47.2440
" /> 
<path style="fill:none; 
stroke:#840000; stroke-width:0.1524; stroke-opacity:1; 
stroke-linecap:round; stroke-linejoin:round;fill:none"
d="M 25.6540,47.2440
25.1460,47.2440
" /> 
<path style="fill:none; 
stroke:#840000; stroke-width:0.1524; stroke-opacity:1; 
stroke-linecap:round; stroke-linejoin:round;fill:none"
d="M 26.6700,47.2440
26.1620,47.2440
" /> 
</g>
<g style="fill:none; 
stroke:#840000; stroke-width:0.2540; stroke-opacity:1; 
stroke-linecap:round; stroke-linejoin:round;">
<circle cx="25.4000" cy="46.9900" r="2.5400" /> 
</g>
<g style="fill:none; 
stroke:#840000; stroke-width:0.1524; stroke-opacity:1; 
stroke-linecap:round; stroke-linejoin:round;">
<text x="25.4000" y="45.7200"
textLength="1.7756" font-size="1.6933" lengthAdjust="spacingAndGlyphs"
text-anchor="middle" opacity="0" stroke-opacity="0">+</text>
<g class="stroked-text"><desc>+</desc>
<path d="M24.9161 45.1807
L25.8838 45.1807
" />
<path d="M25.3999 45.6645
L25.3999 44.6969
" />
</g><path d="M25.4000 44.4500
L25.4000 41.9100
" />
<path d="M25.4000 49.5300
L25.4000 52.0700
" />
</g>
<g style="fill:none; 
stroke:#006464; stroke-width:0.1524; stroke-opacity:1; 
stroke-linecap:round; stroke-linejoin:round;">
<text x="30.4702" y="46.2251"
textLength="2.5013" font-size="1.6933" lengthAdjust="spacingAndGlyphs"
text-anchor="middle" opacity="0" stroke-opacity="0">V1</text>
<g class="stroked-text"><desc>V1</desc>
<path d="M29.4421 44.8996
L29.8654 46.1696
" />
<path d="M29.8654 46.1696
L30.2888 44.8996
" />
<path d="M31.3774 46.1696
L30.6517 46.1696
" />
<path d="M31.0145 46.1696
L31.0145 44.8996
" />
<path d="M31.0145 44.8996
L30.8936 45.0811
" />
<path d="M30.8936 45.0811
L30.7726 45.2020
" />
<path d="M30.7726 45.2020
L30.6517 45.2625
" />
</g><text x="30.4702" y="48.7651"
textLength="2.5013" font-size="1.6933" lengthAdjust="spacingAndGlyphs"
text-anchor="middle" opacity="0" stroke-opacity="0">7V</text>
<g class="stroked-text"><desc>7V</desc>
<path d="M29.5026 47.4396
L30.3492 47.4396
" />
<path d="M30.3492 47.4396
L29.8050 48.7096
" />
<path d="M30.6516 47.4396
L31.0749 48.7096
" />
<path d="M31.0749 48.7096
L31.4983 47.4396
" />
</g><path style="fill:none; 
stroke:#840000; stroke-width:0.1524; stroke-opacity:1; 
stroke-linecap:round; stroke-linejoin:round;fill:none"
d="M 24.1300,68.5800
25.4000,69.8500
26.6700,68.5800
Z" /> 
</g>
<g style="fill:none; 
stroke:#840000; stroke-width:0.1524; stroke-opacity:1; 
stroke-linecap:round; stroke-linejoin:round;">
<path d="M25.4000 68.5800
L25.4000 68.5800
" />
</g>
<g style="fill:none; 
stroke:#006464; stroke-width:0.1524; stroke-opacity:1; 
stroke-linecap:round; stroke-linejoin:round;">
<text x="26.6700" y="67.9450"
textLength="1.4127" font-size="1.6933" lengthAdjust="spacingAndGlyphs"
text-anchor="middle" opacity="0" stroke-opacity="0">0</text>
<g class="stroked-text"><desc>0</desc>
<path d="M26.6095 66.6195
L26.7305 66.6195
" />
<path d="M26.7305 66.6195
L26.8514 66.6800
" />
<path d="M26.8514 66.6800
L26.9119 66.7405
" />
<path d="M26.9119 66.7405
L26.9724 66.8614
" />
<path d="M26.9724 66.8614
L27.0329 67.1033
" />
<path d="M27.0329 67.1033
L27.0329 67.4057
" />
<path d="M27.0329 67.4057
L26.9724 67.6476
" />
<path d="M26.9724 67.6476
L26.9119 67.7686
" />
<path d="M26.9119 67.7686
L26.8514 67.8291
" />
<path d="M26.8514 67.8291
L26.7305 67.8895
" />
<path d="M26.7305 67.8895
L26.6095 67.8895
" />
<path d="M26.6095 67.8895
L26.4886 67.8291
" />
<path d="M26.4886 67.8291
L26.4281 67.7686
" />
<path d="M26.4281 67.7686
L26.3676 67.6476
" />
<path d="M26.3676 67.6476
L26.3072 67.4057
" />
<path d="M26.3072 67.4057
L26.3072 67.1033
" />
<path d="M26.3072 67.1033
L26.3676 66.8614
" />
<path d="M26.3676 66.8614
L26.4281 66.7405
" />
<path d="M26.4281 66.7405
L26.4886 66.6800
" />
<path d="M26.4886 66.6800
L26.6095 66.6195
" />
</g></g>
<g style="fill:none; 
stroke:#840000; stroke-width:0.2540; stroke-opacity:1; 
stroke-linecap:round; stroke-linejoin:round;">
<rect x="62.230000" y="26.924000" width="5.080000" height="2.032000" rx="0.000000" />
</g>
<g style="fill:none; 
stroke:#840000; stroke-width:0.1524; stroke-opacity:1; 
stroke-linecap:round; stroke-linejoin:round;">
<path d="M62.2300 27.9400
L60.9600 27.9400
" />
<path d="M67.3100 27.9400
L68.5800 27.9400
" />
</g>
<g style="fill:none; 
stroke:#006464; stroke-width:0.1524; stroke-opacity:1; 
stroke-linecap:round; stroke-linejoin:round;">
<text x="64.7699" y="22.2249"
textLength="2.6827" font-size="1.6933" lengthAdjust="spacingAndGlyphs"
text-anchor="middle" opacity="0" stroke-opacity="0">R4</text>
<g class="stroked-text"><desc>R4</desc>
<path d="M64.5582 22.1694
L64.1349 21.5647
" />
<path d="M63.8325 22.1694
L63.8325 20.8994
" />
<path d="M63.8325 20.8994
L64.3163 20.8994
" />
<path d="M64.3163 20.8994
L64.4373 20.9599
" />
<path d="M64.4373 20.9599
L64.4978 21.0204
" />
<path d="M64.4978 21.0204
L64.5582 21.1413
" />
<path d="M64.5582 21.1413
L64.5582 21.3228
" />
<path d="M64.5582 21.3228
L64.4978 21.4437
" />
<path d="M64.4978 21.4437
L64.4373 21.5042
" />
<path d="M64.4373 21.5042
L64.3163 21.5647
" />
<path d="M64.3163 21.5647
L63.8325 21.5647
" />
<path d="M65.6468 21.3228
L65.6468 22.1694
" />
<path d="M65.3444 20.8390
L65.0421 21.7461
" />
<path d="M65.0421 21.7461
L65.8282 21.7461
" />
</g><text x="64.7699" y="24.7649"
textLength="3.8317" font-size="1.6933" lengthAdjust="spacingAndGlyphs"
text-anchor="middle" opacity="0" stroke-opacity="0">100</text>
<g class="stroked-text"><desc>100</desc>
<path d="M63.9233 24.7094
L63.1976 24.7094
" />
<path d="M63.5604 24.7094
L63.5604 23.4394
" />
<path d="M63.5604 23.4394
L63.4395 23.6209
" />
<path d="M63.4395 23.6209
L63.3185 23.7418
" />
<path d="M63.3185 23.7418
L63.1976 23.8023
" />
<path d="M64.7094 23.4394
L64.8304 23.4394
" />
<path d="M64.8304 23.4394
L64.9513 23.4999
" />
<path d="M64.9513 23.4999
L65.0118 23.5604
" />
<path d="M65.0118 23.5604
L65.0723 23.6813
" />
<path d="M65.0723 23.6813
L65.1328 23.9232
" />
<path d="M65.1328 23.9232
L65.1328 24.2256
" />
<path d="M65.1328 24.2256
L65.0723 24.4675
" />
<path d="M65.0723 24.4675
L65.0118 24.5885
" />
<path d="M65.0118 24.5885
L64.9513 24.6490
" />
<path d="M64.9513 24.6490
L64.8304 24.7094
" />
<path d="M64.8304 24.7094
L64.7094 24.7094
" />
<path d="M64.7094 24.7094
L64.5885 24.6490
" />
<path d="M64.5885 24.6490
L64.5280 24.5885
" />
<path d="M64.5280 24.5885
L64.4675 24.4675
" />
<path d="M64.4675 24.4675
L64.4071 24.2256
" />
<path d="M64.4071 24.2256
L64.4071 23.9232
" />
<path d="M64.4071 23.9232
L64.4675 23.6813
" />
<path d="M64.4675 23.6813
L64.5280 23.5604
" />
<path d="M64.5280 23.5604
L64.5885 23.4999
" />
<path d="M64.5885 23.4999
L64.7094 23.4394
" />
<path d="M65.9189 23.4394
L66.0399 23.4394
" />
<path d="M66.0399 23.4394
L66.1608 23.4999
" />
<path d="M66.1608 23.4999
L66.2213 23.5604
" />
<path d="M66.2213 23.5604
L66.2818 23.6813
" />
<path d="M66.2818 23.6813
L66.3423 23.9232
" />
<path d="M66.3423 23.9232
L66.3423 24.2256
" />
<path d="M66.3423 24.2256
L66.2818 24.4675
" />
<path d="M66.2818 24.4675
L66.2213 24.5885
" />
<path d="M66.2213 24.5885
L66.1608 24.6490
" />
<path d="M66.1608 24.6490
L66.0399 24.7094
" />
<path d="M66.0399 24.7094
L65.9189 24.7094
" />
<path d="M65.9189 24.7094
L65.7980 24.6490
" />
<path d="M65.7980 24.6490
L65.7375 24.5885
" />
<path d="M65.7375 24.5885
L65.6770 24.4675
" />
<path d="M65.6770 24.4675
L65.6166 24.2256
" />
<path d="M65.6166 24.2256
L65.6166 23.9232
" />
<path d="M65.6166 23.9232
L65.6770 23.6813
" />
<path d="M65.6770 23.6813
L65.7375 23.5604
" />
<path d="M65.7375 23.5604
L65.7980 23.4999
" />
<path d="M65.7980 23.4999
L65.9189 23.4394
" />
</g></g>
<g style="fill:none; 
stroke:#840000; stroke-width:0.2540; stroke-opacity:1; 
stroke-linecap:round; stroke-linejoin:round;">
<rect x="51.054000" y="50.800000" width="2.032000" height="5.080000" rx="0.000000" />
</g>
<g style="fill:none; 
stroke:#840000; stroke-width:0.1524; stroke-opacity:1; 
stroke-linecap:round; stroke-linejoin:round;">
<path d="M52.0700 50.8000
L52.0700 49.5300
" />
<path d="M52.0700 55.8800
L52.0700 57.1500
" />
</g>
<g style="fill:none; 
stroke:#006464; stroke-width:0.1524; stroke-opacity:1; 
stroke-linecap:round; stroke-linejoin:round;">
<text x="55.9609" y="52.7049"
textLength="2.6827" font-size="1.6933" lengthAdjust="spacingAndGlyphs"
text-anchor="middle" opacity="0" stroke-opacity="0">R3</text>
<g class="stroked-text"><desc>R3</desc>
<path d="M55.7492 52.6494
L55.3259 52.0447
" />
<path d="M55.0235 52.6494
L55.0235 51.3794
" />
<path d="M55.0235 51.3794
L55.5073 51.3794
" />
<path d="M55.5073 51.3794
L55.6283 51.4399
" />
<path d="M55.6283 51.4399
L55.6888 51.5004
" />
<path d="M55.6888 51.5004
L55.7492 51.6213
" />
<path d="M55.7492 51.6213
L55.7492 51.8028
" />
<path d="M55.7492 51.8028
L55.6888 51.9237
" />
<path d="M55.6888 51.9237
L55.6283 51.9842
" />
<path d="M55.6283 51.9842
L55.5073 52.0447
" />
<path d="M55.5073 52.0447
L55.0235 52.0447
" />
<path d="M56.1726 51.3794
L56.9588 51.3794
" />
<path d="M56.9588 51.3794
L56.5354 51.8632
" />
<path d="M56.5354 51.8632
L56.7169 51.8632
" />
<path d="M56.7169 51.8632
L56.8378 51.9237
" />
<path d="M56.8378 51.9237
L56.8983 51.9842
" />
<path d="M56.8983 51.9842
L56.9588 52.1051
" />
<path d="M56.9588 52.1051
L56.9588 52.4075
" />
<path d="M56.9588 52.4075
L56.8983 52.5285
" />
<path d="M56.8983 52.5285
L56.8378 52.5890
" />
<path d="M56.8378 52.5890
L56.7169 52.6494
" />
<path d="M56.7169 52.6494
L56.3540 52.6494
" />
<path d="M56.3540 52.6494
L56.2331 52.5890
" />
<path d="M56.2331 52.5890
L56.1726 52.5285
" />
</g><text x="56.5354" y="55.2449"
textLength="3.8317" font-size="1.6933" lengthAdjust="spacingAndGlyphs"
text-anchor="middle" opacity="0" stroke-opacity="0">180</text>
<g class="stroked-text"><desc>180</desc>
<path d="M55.6888 55.1894
L54.9631 55.1894
" />
<path d="M55.3259 55.1894
L55.3259 53.9194
" />
<path d="M55.3259 53.9194
L55.2050 54.1009
" />
<path d="M55.2050 54.1009
L55.0840 54.2218
" />
<path d="M55.0840 54.2218
L54.9631 54.2823
" />
<path d="M56.4145 54.4637
L56.2935 54.4032
" />
<path d="M56.2935 54.4032
L56.2330 54.3428
" />
<path d="M56.2330 54.3428
L56.1726 54.2218
" />
<path d="M56.1726 54.2218
L56.1726 54.1613
" />
<path d="M56.1726 54.1613
L56.2330 54.0404
" />
<path d="M56.2330 54.0404
L56.2935 53.9799
" />
<path d="M56.2935 53.9799
L56.4145 53.9194
" />
<path d="M56.4145 53.9194
L56.6564 53.9194
" />
<path d="M56.6564 53.9194
L56.7773 53.9799
" />
<path d="M56.7773 53.9799
L56.8378 54.0404
" />
<path d="M56.8378 54.0404
L56.8983 54.1613
" />
<path d="M56.8983 54.1613
L56.8983 54.2218
" />
<path d="M56.8983 54.2218
L56.8378 54.3428
" />
<path d="M56.8378 54.3428
L56.7773 54.4032
" />
<path d="M56.7773 54.4032
L56.6564 54.4637
" />
<path d="M56.6564 54.4637
L56.4145 54.4637
" />
<path d="M56.4145 54.4637
L56.2935 54.5242
" />
<path d="M56.2935 54.5242
L56.2330 54.5847
" />
<path d="M56.2330 54.5847
L56.1726 54.7056
" />
<path d="M56.1726 54.7056
L56.1726 54.9475
" />
<path d="M56.1726 54.9475
L56.2330 55.0685
" />
<path d="M56.2330 55.0685
L56.2935 55.1290
" />
<path d="M56.2935 55.1290
L56.4145 55.1894
" />
<path d="M56.4145 55.1894
L56.6564 55.1894
" />
<path d="M56.6564 55.1894
L56.7773 55.1290
" />
<path d="M56.7773 55.1290
L56.8378 55.0685
" />
<path d="M56.8378 55.0685
L56.8983 54.9475
" />
<path d="M56.8983 54.9475
L56.8983 54.7056
" />
<path d="M56.8983 54.7056
L56.8378 54.5847
" />
<path d="M56.8378 54.5847
L56.7773 54.5242
" />
<path d="M56.7773 54.5242
L56.6564 54.4637
" />
<path d="M57.6844 53.9194
L57.8054 53.9194
" />
<path d="M57.8054 53.9194
L57.9263 53.9799
" />
<path d="M57.9263 53.9799
L57.9868 54.0404
" />
<path d="M57.9868 54.0404
L58.0473 54.1613
" />
<path d="M58.0473 54.1613
L58.1078 54.4032
" />
<path d="M58.1078 54.4032
L58.1078 54.7056
" />
<path d="M58.1078 54.7056
L58.0473 54.9475
" />
<path d="M58.0473 54.9475
L57.9868 55.0685
" />
<path d="M57.9868 55.0685
L57.9263 55.1290
" />
<path d="M57.9263 55.1290
L57.8054 55.1894
" />
<path d="M57.8054 55.1894
L57.6844 55.1894
" />
<path d="M57.6844 55.1894
L57.5635 55.1290
" />
<path d="M57.5635 55.1290
L57.5030 55.0685
" />
<path d="M57.5030 55.0685
L57.4425 54.9475
" />
<path d="M57.4425 54.9475
L57.3821 54.7056
" />
<path d="M57.3821 54.7056
L57.3821 54.4032
" />
<path d="M57.3821 54.4032
L57.4425 54.1613
" />
<path d="M57.4425 54.1613
L57.5030 54.0404
" />
<path d="M57.5030 54.0404
L57.5635 53.9799
" />
<path d="M57.5635 53.9799
L57.6844 53.9194
" />
</g></g>
<g style="fill:none; 
stroke:#840000; stroke-width:0.2540; stroke-opacity:1; 
stroke-linecap:round; stroke-linejoin:round;">
<rect x="35.560000" y="26.924000" width="5.080000" height="2.032000" rx="0.000000" />
</g>
<g style="fill:none; 
stroke:#840000; stroke-width:0.1524; stroke-opacity:1; 
stroke-linecap:round; stroke-linejoin:round;">
<path d="M35.5600 27.9400
L34.2900 27.9400
" />
<path d="M40.6400 27.9400
L41.9100 27.9400
" />
</g>
<g style="fill:none; 
stroke:#006464; stroke-width:0.1524; stroke-opacity:1; 
stroke-linecap:round; stroke-linejoin:round;">
<text x="38.0999" y="22.2249"
textLength="2.6827" font-size="1.6933" lengthAdjust="spacingAndGlyphs"
text-anchor="middle" opacity="0" stroke-opacity="0">R1</text>
<g class="stroked-text"><desc>R1</desc>
<path d="M37.8882 22.1694
L37.4649 21.5647
" />
<path d="M37.1625 22.1694
L37.1625 20.8994
" />
<path d="M37.1625 20.8994
L37.6463 20.8994
" />
<path d="M37.6463 20.8994
L37.7673 20.9599
" />
<path d="M37.7673 20.9599
L37.8278 21.0204
" />
<path d="M37.8278 21.0204
L37.8882 21.1413
" />
<path d="M37.8882 21.1413
L37.8882 21.3228
" />
<path d="M37.8882 21.3228
L37.8278 21.4437
" />
<path d="M37.8278 21.4437
L37.7673 21.5042
" />
<path d="M37.7673 21.5042
L37.6463 21.5647
" />
<path d="M37.6463 21.5647
L37.1625 21.5647
" />
<path d="M39.0978 22.1694
L38.3721 22.1694
" />
<path d="M38.7349 22.1694
L38.7349 20.8994
" />
<path d="M38.7349 20.8994
L38.6140 21.0809
" />
<path d="M38.6140 21.0809
L38.4930 21.2018
" />
<path d="M38.4930 21.2018
L38.3721 21.2623
" />
</g><text x="38.1000" y="24.7649"
textLength="2.6222" font-size="1.6933" lengthAdjust="spacingAndGlyphs"
text-anchor="middle" opacity="0" stroke-opacity="0">47</text>
<g class="stroked-text"><desc>47</desc>
<path d="M37.7371 23.8628
L37.7371 24.7094
" />
<path d="M37.4347 23.3790
L37.1324 24.2861
" />
<path d="M37.1324 24.2861
L37.9185 24.2861
" />
<path d="M38.2814 23.4394
L39.1280 23.4394
" />
<path d="M39.1280 23.4394
L38.5838 24.7094
" />
</g></g>
<g style="fill:none; 
stroke:#0F0F0F; stroke-width:0.1524; stroke-opacity:1; 
stroke-linecap:round; stroke-linejoin:round;">
<text x="53.3400" y="47.9107"
textLength="5.4042" font-size="1.6933" lengthAdjust="spacingAndGlyphs"
text-anchor="start" opacity="0" stroke-opacity="0">I1+I2</text>
<g class="stroked-text"><desc>I1+I2</desc>
<path d="M53.7425 47.7472
L53.7425 46.4772
" />
<path d="M55.0126 47.7472
L54.2869 47.7472
" />
<path d="M54.6497 47.7472
L54.6497 46.4772
" />
<path d="M54.6497 46.4772
L54.5288 46.6587
" />
<path d="M54.5288 46.6587
L54.4078 46.7796
" />
<path d="M54.4078 46.7796
L54.2869 46.8401
" />
<path d="M55.5568 47.2634
L56.5245 47.2634
" />
<path d="M56.0406 47.7472
L56.0406 46.7796
" />
<path d="M57.1292 47.7472
L57.1292 46.4772
" />
<path d="M57.6736 46.5982
L57.7340 46.5377
" />
<path d="M57.7340 46.5377
L57.8550 46.4772
" />
<path d="M57.8550 46.4772
L58.1574 46.4772
" />
<path d="M58.1574 46.4772
L58.2783 46.5377
" />
<path d="M58.2783 46.5377
L58.3388 46.5982
" />
<path d="M58.3388 46.5982
L58.3993 46.7191
" />
<path d="M58.3993 46.7191
L58.3993 46.8401
" />
<path d="M58.3993 46.8401
L58.3388 47.0215
" />
<path d="M58.3388 47.0215
L57.6131 47.7472
" />
<path d="M57.6131 47.7472
L58.3993 47.7472
" />
</g></g>
<g style="fill:none; 
stroke:#0F0F0F; stroke-width:0.1524; stroke-opacity:1; 
stroke-linecap:round; stroke-linejoin:round;">
<text x="71.1200" y="26.3207"
textLength="2.0175" font-size="1.6933" lengthAdjust="spacingAndGlyphs"
text-anchor="start" opacity="0" stroke-opacity="0">I2</text>
<g class="stroked-text"><desc>I2</desc>
<path d="M71.5225 26.1572
L71.5225 24.8872
" />
<path d="M72.0669 25.0082
L72.1273 24.9477
" />
<path d="M72.1273 24.9477
L72.2483 24.8872
" />
<path d="M72.2483 24.8872
L72.5507 24.8872
" />
<path d="M72.5507 24.8872
L72.6716 24.9477
" />
<path d="M72.6716 24.9477
L72.7321 25.0082
" />
<path d="M72.7321 25.0082
L72.7926 25.1291
" />
<path d="M72.7926 25.1291
L72.7926 25.2501
" />
<path d="M72.7926 25.2501
L72.7321 25.4315
" />
<path d="M72.7321 25.4315
L72.0064 26.1572
" />
<path d="M72.0064 26.1572
L72.7926 26.1572
" />
</g></g>
<g style="fill:none; 
stroke:#0F0F0F; stroke-width:0.1524; stroke-opacity:1; 
stroke-linecap:round; stroke-linejoin:round;">
<text x="29.2100" y="26.3207"
textLength="2.0175" font-size="1.6933" lengthAdjust="spacingAndGlyphs"
text-anchor="start" opacity="0" stroke-opacity="0">I1</text>
<g class="stroked-text"><desc>I1</desc>
<path d="M29.6125 26.1572
L29.6125 24.8872
" />
<path d="M30.8826 26.1572
L30.1569 26.1572
" />
<path d="M30.5197 26.1572
L30.5197 24.8872
" />
<path d="M30.5197 24.8872
L30.3988 25.0687
" />
<path d="M30.3988 25.0687
L30.2778 25.1896
" />
<path d="M30.2778 25.1896
L30.1569 25.2501
" />
</g></g>
<g style="fill:none; 
stroke:#009600; stroke-width:0.1524; stroke-opacity:1; 
stroke-linecap:round; stroke-linejoin:round;">
<path d="M78.7400 63.5000
L52.0700 63.5000
" />
<path d="M78.7400 41.9100
L78.7400 27.9400
" />
<path d="M69.8500 27.9400
L78.7400 27.9400
" />
<path d="M69.8500 26.6700
L69.8500 27.9400
" />
<path d="M78.7400 52.0700
L78.7400 63.5000
" />
<path d="M68.5800 27.9400
L69.8500 27.9400
" />
<path d="M71.1200 26.6700
L69.8500 26.6700
" />
<path d="M53.3400 48.2600
L52.0700 48.2600
" />
<path d="M52.0700 41.9100
L52.0700 48.2600
" />
<path d="M52.0700 48.2600
L52.0700 49.5300
" />
<path d="M52.0700 27.9400
L52.0700 34.2900
" />
<path d="M25.4000 27.9400
L25.4000 41.9100
" />
<path d="M34.2900 27.9400
L29.2100 27.9400
" />
<path d="M29.2100 26.6700
L29.2100 27.9400
" />
<path d="M29.2100 27.9400
L25.4000 27.9400
" />
<path d="M25.4000 63.5000
L52.0700 63.5000
" />
<path d="M25.4000 52.0700
L25.4000 63.5000
" />
<path d="M25.4000 63.5000
L25.4000 68.5800
" />
<path d="M52.0700 57.1500
L52.0700 63.5000
" />
<path d="M41.9100 27.9400
L52.0700 27.9400
" />
<path d="M52.0700 27.9400
L60.9600 27.9400
" />
</g>
<g style="fill:#009600; fill-opacity:1.0000; 
stroke:#009600; stroke-width:0.1524; stroke-opacity:1; 
stroke-linecap:round; stroke-linejoin:round;">
<circle cx="52.0700" cy="27.9400" r="0.4572" /> 
<circle cx="52.0700" cy="63.5000" r="0.4572" /> 
<circle cx="25.4000" cy="63.5000" r="0.4572" /> 
<circle cx="29.2100" cy="27.9400" r="0.4572" /> 
<circle cx="52.0700" cy="48.2600" r="0.4572" /> 
<circle cx="69.8500" cy="27.9400" r="0.4572" /> 
</g> 
</svg>
