<?xml version="1.0" standalone="no"?>
 <!DOCTYPE svg PUBLIC "-//W3C//DTD SVG 1.1//EN" 
 "http://www.w3.org/Graphics/SVG/1.1/DTD/svg11.dtd"> 
<svg
  xmlns:svg="http://www.w3.org/2000/svg"
  xmlns="http://www.w3.org/2000/svg"
  xmlns:xlink="http://www.w3.org/1999/xlink"
  version="1.1"
  width="210.0072mm" height="148.0058mm" viewBox="0.0000 0.0000 210.0072 148.0058">
<title>SVG Image created as schematics.svg date 2025/11/16 23:30:08 </title>
  <desc>Image generated by Eeschema-SVG </desc>
<g style="fill:#000000; fill-opacity:1.0000;stroke:#000000; stroke-opacity:1.0000;
stroke-linecap:round; stroke-linejoin:round;"
 transform="translate(0 0) scale(1 1)">
</g>
<g style="fill:#F5F4EF; fill-opacity:1.0000; 
stroke:#F5F4EF; stroke-width:0.0001; stroke-opacity:1; 
stroke-linecap:round; stroke-linejoin:round;">
<rect x="0.000000" y="0.000000" width="210.007200" height="148.005800" rx="0.000000" />
</g>
<g style="fill:none; 
stroke:#840000; stroke-width:0.1524; stroke-opacity:1; 
stroke-linecap:round; stroke-linejoin:round;">
<path d="M90.0072 104.0058
L198.0072 104.0058
L198.0072 136.0058
L90.0072 136.0058
L90.0072 104.0058
" />
<path d="M10.0000 10.0000
L200.0072 10.0000
L200.0072 138.0058
L10.0000 138.0058
L10.0000 10.0000
" />
<path d="M12.0000 12.0000
L198.0072 12.0000
L198.0072 136.0058
L12.0000 136.0058
L12.0000 12.0000
" />
<path d="M60.0000 12.0000
L60.0000 10.0000
" />
<path d="M110.0000 12.0000
L110.0000 10.0000
" />
<path d="M160.0000 12.0000
L160.0000 10.0000
" />
<text x="35.0000" y="11.6500"
textLength="1.4353" font-size="1.7333" lengthAdjust="spacingAndGlyphs"
text-anchor="start" opacity="0" stroke-opacity="0">1</text>
<g class="stroked-text"><desc>1</desc>
<path d="M36.0906 11.5935
L35.3478 11.5935
" />
<path d="M35.7192 11.5935
L35.7192 10.2935
" />
<path d="M35.7192 10.2935
L35.5954 10.4792
" />
<path d="M35.5954 10.4792
L35.4716 10.6030
" />
<path d="M35.4716 10.6030
L35.3478 10.6649
" />
</g><text x="85.0000" y="11.6500"
textLength="1.4353" font-size="1.7333" lengthAdjust="spacingAndGlyphs"
text-anchor="start" opacity="0" stroke-opacity="0">2</text>
<g class="stroked-text"><desc>2</desc>
<path d="M85.3478 10.4173
L85.4097 10.3554
" />
<path d="M85.4097 10.3554
L85.5335 10.2935
" />
<path d="M85.5335 10.2935
L85.8430 10.2935
" />
<path d="M85.8430 10.2935
L85.9668 10.3554
" />
<path d="M85.9668 10.3554
L86.0287 10.4173
" />
<path d="M86.0287 10.4173
L86.0906 10.5411
" />
<path d="M86.0906 10.5411
L86.0906 10.6649
" />
<path d="M86.0906 10.6649
L86.0287 10.8506
" />
<path d="M86.0287 10.8506
L85.2859 11.5935
" />
<path d="M85.2859 11.5935
L86.0906 11.5935
" />
</g><text x="135.0000" y="11.6500"
textLength="1.4353" font-size="1.7333" lengthAdjust="spacingAndGlyphs"
text-anchor="start" opacity="0" stroke-opacity="0">3</text>
<g class="stroked-text"><desc>3</desc>
<path d="M135.2859 10.2935
L136.0906 10.2935
" />
<path d="M136.0906 10.2935
L135.6573 10.7887
" />
<path d="M135.6573 10.7887
L135.8430 10.7887
" />
<path d="M135.8430 10.7887
L135.9668 10.8506
" />
<path d="M135.9668 10.8506
L136.0287 10.9125
" />
<path d="M136.0287 10.9125
L136.0906 11.0363
" />
<path d="M136.0906 11.0363
L136.0906 11.3458
" />
<path d="M136.0906 11.3458
L136.0287 11.4696
" />
<path d="M136.0287 11.4696
L135.9668 11.5316
" />
<path d="M135.9668 11.5316
L135.8430 11.5935
" />
<path d="M135.8430 11.5935
L135.4716 11.5935
" />
<path d="M135.4716 11.5935
L135.3478 11.5316
" />
<path d="M135.3478 11.5316
L135.2859 11.4696
" />
</g><text x="185.0000" y="11.6500"
textLength="1.4353" font-size="1.7333" lengthAdjust="spacingAndGlyphs"
text-anchor="start" opacity="0" stroke-opacity="0">4</text>
<g class="stroked-text"><desc>4</desc>
<path d="M185.9668 10.7268
L185.9668 11.5935
" />
<path d="M185.6573 10.2316
L185.3478 11.1601
" />
<path d="M185.3478 11.1601
L186.1525 11.1601
" />
</g><path d="M60.0000 136.0058
L60.0000 138.0058
" />
<path d="M110.0000 136.0058
L110.0000 138.0058
" />
<path d="M160.0000 136.0058
L160.0000 138.0058
" />
<text x="35.0000" y="137.6558"
textLength="1.4353" font-size="1.7333" lengthAdjust="spacingAndGlyphs"
text-anchor="start" opacity="0" stroke-opacity="0">1</text>
<g class="stroked-text"><desc>1</desc>
<path d="M36.0906 137.5993
L35.3478 137.5993
" />
<path d="M35.7192 137.5993
L35.7192 136.2993
" />
<path d="M35.7192 136.2993
L35.5954 136.4850
" />
<path d="M35.5954 136.4850
L35.4716 136.6088
" />
<path d="M35.4716 136.6088
L35.3478 136.6707
" />
</g><text x="85.0000" y="137.6558"
textLength="1.4353" font-size="1.7333" lengthAdjust="spacingAndGlyphs"
text-anchor="start" opacity="0" stroke-opacity="0">2</text>
<g class="stroked-text"><desc>2</desc>
<path d="M85.3478 136.4231
L85.4097 136.3612
" />
<path d="M85.4097 136.3612
L85.5335 136.2993
" />
<path d="M85.5335 136.2993
L85.8430 136.2993
" />
<path d="M85.8430 136.2993
L85.9668 136.3612
" />
<path d="M85.9668 136.3612
L86.0287 136.4231
" />
<path d="M86.0287 136.4231
L86.0906 136.5469
" />
<path d="M86.0906 136.5469
L86.0906 136.6707
" />
<path d="M86.0906 136.6707
L86.0287 136.8564
" />
<path d="M86.0287 136.8564
L85.2859 137.5993
" />
<path d="M85.2859 137.5993
L86.0906 137.5993
" />
</g><text x="135.0000" y="137.6558"
textLength="1.4353" font-size="1.7333" lengthAdjust="spacingAndGlyphs"
text-anchor="start" opacity="0" stroke-opacity="0">3</text>
<g class="stroked-text"><desc>3</desc>
<path d="M135.2859 136.2993
L136.0906 136.2993
" />
<path d="M136.0906 136.2993
L135.6573 136.7945
" />
<path d="M135.6573 136.7945
L135.8430 136.7945
" />
<path d="M135.8430 136.7945
L135.9668 136.8564
" />
<path d="M135.9668 136.8564
L136.0287 136.9183
" />
<path d="M136.0287 136.9183
L136.0906 137.0421
" />
<path d="M136.0906 137.0421
L136.0906 137.3516
" />
<path d="M136.0906 137.3516
L136.0287 137.4754
" />
<path d="M136.0287 137.4754
L135.9668 137.5374
" />
<path d="M135.9668 137.5374
L135.8430 137.5993
" />
<path d="M135.8430 137.5993
L135.4716 137.5993
" />
<path d="M135.4716 137.5993
L135.3478 137.5374
" />
<path d="M135.3478 137.5374
L135.2859 137.4754
" />
</g><text x="185.0000" y="137.6558"
textLength="1.4353" font-size="1.7333" lengthAdjust="spacingAndGlyphs"
text-anchor="start" opacity="0" stroke-opacity="0">4</text>
<g class="stroked-text"><desc>4</desc>
<path d="M185.9668 136.7326
L185.9668 137.5993
" />
<path d="M185.6573 136.2374
L185.3478 137.1659
" />
<path d="M185.3478 137.1659
L186.1525 137.1659
" />
</g><path d="M10.0000 60.0000
L12.0000 60.0000
" />
<path d="M10.0000 110.0000
L12.0000 110.0000
" />
<text x="11.0000" y="35.6500"
textLength="1.3115" font-size="1.7333" lengthAdjust="spacingAndGlyphs"
text-anchor="middle" opacity="0" stroke-opacity="0">A</text>
<g class="stroked-text"><desc>A</desc>
<path d="M10.6905 35.2220
L11.3095 35.2220
" />
<path d="M10.5667 35.5935
L11.0000 34.2935
" />
<path d="M11.0000 34.2935
L11.4333 35.5935
" />
</g><text x="11.0000" y="85.6500"
textLength="1.4972" font-size="1.7333" lengthAdjust="spacingAndGlyphs"
text-anchor="middle" opacity="0" stroke-opacity="0">B</text>
<g class="stroked-text"><desc>B</desc>
<path d="M11.0928 84.9125
L11.2785 84.9744
" />
<path d="M11.2785 84.9744
L11.3404 85.0363
" />
<path d="M11.3404 85.0363
L11.4023 85.1601
" />
<path d="M11.4023 85.1601
L11.4023 85.3458
" />
<path d="M11.4023 85.3458
L11.3404 85.4696
" />
<path d="M11.3404 85.4696
L11.2785 85.5316
" />
<path d="M11.2785 85.5316
L11.1547 85.5935
" />
<path d="M11.1547 85.5935
L10.6595 85.5935
" />
<path d="M10.6595 85.5935
L10.6595 84.2935
" />
<path d="M10.6595 84.2935
L11.0928 84.2935
" />
<path d="M11.0928 84.2935
L11.2166 84.3554
" />
<path d="M11.2166 84.3554
L11.2785 84.4173
" />
<path d="M11.2785 84.4173
L11.3404 84.5411
" />
<path d="M11.3404 84.5411
L11.3404 84.6649
" />
<path d="M11.3404 84.6649
L11.2785 84.7887
" />
<path d="M11.2785 84.7887
L11.2166 84.8506
" />
<path d="M11.2166 84.8506
L11.0928 84.9125
" />
<path d="M11.0928 84.9125
L10.6595 84.9125
" />
</g><text x="11.0000" y="135.6500"
textLength="1.4972" font-size="1.7333" lengthAdjust="spacingAndGlyphs"
text-anchor="middle" opacity="0" stroke-opacity="0">C</text>
<g class="stroked-text"><desc>C</desc>
<path d="M11.4023 135.4696
L11.3404 135.5316
" />
<path d="M11.3404 135.5316
L11.1547 135.5935
" />
<path d="M11.1547 135.5935
L11.0309 135.5935
" />
<path d="M11.0309 135.5935
L10.8452 135.5316
" />
<path d="M10.8452 135.5316
L10.7214 135.4077
" />
<path d="M10.7214 135.4077
L10.6595 135.2839
" />
<path d="M10.6595 135.2839
L10.5976 135.0363
" />
<path d="M10.5976 135.0363
L10.5976 134.8506
" />
<path d="M10.5976 134.8506
L10.6595 134.6030
" />
<path d="M10.6595 134.6030
L10.7214 134.4792
" />
<path d="M10.7214 134.4792
L10.8452 134.3554
" />
<path d="M10.8452 134.3554
L11.0309 134.2935
" />
<path d="M11.0309 134.2935
L11.1547 134.2935
" />
<path d="M11.1547 134.2935
L11.3404 134.3554
" />
<path d="M11.3404 134.3554
L11.4023 134.4173
" />
</g><path d="M200.0072 60.0000
L198.0072 60.0000
" />
<path d="M200.0072 110.0000
L198.0072 110.0000
" />
<text x="199.0072" y="35.6500"
textLength="1.3115" font-size="1.7333" lengthAdjust="spacingAndGlyphs"
text-anchor="middle" opacity="0" stroke-opacity="0">A</text>
<g class="stroked-text"><desc>A</desc>
<path d="M198.6977 35.2220
L199.3167 35.2220
" />
<path d="M198.5739 35.5935
L199.0072 34.2935
" />
<path d="M199.0072 34.2935
L199.4405 35.5935
" />
</g><text x="199.0072" y="85.6500"
textLength="1.4972" font-size="1.7333" lengthAdjust="spacingAndGlyphs"
text-anchor="middle" opacity="0" stroke-opacity="0">B</text>
<g class="stroked-text"><desc>B</desc>
<path d="M199.1000 84.9125
L199.2857 84.9744
" />
<path d="M199.2857 84.9744
L199.3476 85.0363
" />
<path d="M199.3476 85.0363
L199.4095 85.1601
" />
<path d="M199.4095 85.1601
L199.4095 85.3458
" />
<path d="M199.4095 85.3458
L199.3476 85.4696
" />
<path d="M199.3476 85.4696
L199.2857 85.5316
" />
<path d="M199.2857 85.5316
L199.1619 85.5935
" />
<path d="M199.1619 85.5935
L198.6667 85.5935
" />
<path d="M198.6667 85.5935
L198.6667 84.2935
" />
<path d="M198.6667 84.2935
L199.1000 84.2935
" />
<path d="M199.1000 84.2935
L199.2238 84.3554
" />
<path d="M199.2238 84.3554
L199.2857 84.4173
" />
<path d="M199.2857 84.4173
L199.3476 84.5411
" />
<path d="M199.3476 84.5411
L199.3476 84.6649
" />
<path d="M199.3476 84.6649
L199.2857 84.7887
" />
<path d="M199.2857 84.7887
L199.2238 84.8506
" />
<path d="M199.2238 84.8506
L199.1000 84.9125
" />
<path d="M199.1000 84.9125
L198.6667 84.9125
" />
</g><text x="199.0072" y="135.6500"
textLength="1.4972" font-size="1.7333" lengthAdjust="spacingAndGlyphs"
text-anchor="middle" opacity="0" stroke-opacity="0">C</text>
<g class="stroked-text"><desc>C</desc>
<path d="M199.4095 135.4696
L199.3476 135.5316
" />
<path d="M199.3476 135.5316
L199.1619 135.5935
" />
<path d="M199.1619 135.5935
L199.0381 135.5935
" />
<path d="M199.0381 135.5935
L198.8524 135.5316
" />
<path d="M198.8524 135.5316
L198.7286 135.4077
" />
<path d="M198.7286 135.4077
L198.6667 135.2839
" />
<path d="M198.6667 135.2839
L198.6048 135.0363
" />
<path d="M198.6048 135.0363
L198.6048 134.8506
" />
<path d="M198.6048 134.8506
L198.6667 134.6030
" />
<path d="M198.6667 134.6030
L198.7286 134.4792
" />
<path d="M198.7286 134.4792
L198.8524 134.3554
" />
<path d="M198.8524 134.3554
L199.0381 134.2935
" />
<path d="M199.0381 134.2935
L199.1619 134.2935
" />
<path d="M199.1619 134.2935
L199.3476 134.3554
" />
<path d="M199.3476 134.3554
L199.4095 134.4173
" />
</g><text x="113.0072" y="131.8558"
textLength="7.0143" font-size="2.0000" lengthAdjust="spacingAndGlyphs"
text-anchor="start" opacity="0" stroke-opacity="0">Date: </text>
<g class="stroked-text"><desc>Date: </desc>
<path d="M113.4645 131.7917
L113.4645 130.2917
" />
<path d="M113.4645 130.2917
L113.8216 130.2917
" />
<path d="M113.8216 130.2917
L114.0359 130.3631
" />
<path d="M114.0359 130.3631
L114.1788 130.5060
" />
<path d="M114.1788 130.5060
L114.2502 130.6488
" />
<path d="M114.2502 130.6488
L114.3216 130.9345
" />
<path d="M114.3216 130.9345
L114.3216 131.1488
" />
<path d="M114.3216 131.1488
L114.2502 131.4345
" />
<path d="M114.2502 131.4345
L114.1788 131.5774
" />
<path d="M114.1788 131.5774
L114.0359 131.7203
" />
<path d="M114.0359 131.7203
L113.8216 131.7917
" />
<path d="M113.8216 131.7917
L113.4645 131.7917
" />
<path d="M115.6074 131.7917
L115.6074 131.0060
" />
<path d="M115.6074 131.0060
L115.5359 130.8631
" />
<path d="M115.5359 130.8631
L115.3931 130.7917
" />
<path d="M115.3931 130.7917
L115.1074 130.7917
" />
<path d="M115.1074 130.7917
L114.9645 130.8631
" />
<path d="M115.6074 131.7203
L115.4645 131.7917
" />
<path d="M115.4645 131.7917
L115.1074 131.7917
" />
<path d="M115.1074 131.7917
L114.9645 131.7203
" />
<path d="M114.9645 131.7203
L114.8931 131.5774
" />
<path d="M114.8931 131.5774
L114.8931 131.4345
" />
<path d="M114.8931 131.4345
L114.9645 131.2917
" />
<path d="M114.9645 131.2917
L115.1074 131.2203
" />
<path d="M115.1074 131.2203
L115.4645 131.2203
" />
<path d="M115.4645 131.2203
L115.6074 131.1488
" />
<path d="M116.1073 130.7917
L116.6787 130.7917
" />
<path d="M116.3216 130.2917
L116.3216 131.5774
" />
<path d="M116.3216 131.5774
L116.3930 131.7203
" />
<path d="M116.3930 131.7203
L116.5359 131.7917
" />
<path d="M116.5359 131.7917
L116.6787 131.7917
" />
<path d="M117.7501 131.7203
L117.6073 131.7917
" />
<path d="M117.6073 131.7917
L117.3216 131.7917
" />
<path d="M117.3216 131.7917
L117.1787 131.7203
" />
<path d="M117.1787 131.7203
L117.1073 131.5774
" />
<path d="M117.1073 131.5774
L117.1073 131.0060
" />
<path d="M117.1073 131.0060
L117.1787 130.8631
" />
<path d="M117.1787 130.8631
L117.3216 130.7917
" />
<path d="M117.3216 130.7917
L117.6073 130.7917
" />
<path d="M117.6073 130.7917
L117.7501 130.8631
" />
<path d="M117.7501 130.8631
L117.8216 131.0060
" />
<path d="M117.8216 131.0060
L117.8216 131.1488
" />
<path d="M117.8216 131.1488
L117.1073 131.2917
" />
<path d="M118.4644 131.6488
L118.5358 131.7203
" />
<path d="M118.5358 131.7203
L118.4644 131.7917
" />
<path d="M118.4644 131.7917
L118.3930 131.7203
" />
<path d="M118.3930 131.7203
L118.4644 131.6488
" />
<path d="M118.4644 131.6488
L118.4644 131.7917
" />
<path d="M118.4644 130.8631
L118.5358 130.9345
" />
<path d="M118.5358 130.9345
L118.4644 131.0060
" />
<path d="M118.4644 131.0060
L118.3930 130.9345
" />
<path d="M118.3930 130.9345
L118.4644 130.8631
" />
<path d="M118.4644 130.8631
L118.4644 131.0060
" />
</g><path d="M90.0072 132.5058
L198.0072 132.5058
" />
<text x="91.0072" y="134.6558"
textLength="20.8716" font-size="2.0000" lengthAdjust="spacingAndGlyphs"
text-anchor="start" opacity="0" stroke-opacity="0">KiCad E.D.A. 9.0.6</text>
<g class="stroked-text"><desc>KiCad E.D.A. 9.0.6</desc>
<path d="M91.4645 134.5917
L91.4645 133.0917
" />
<path d="M92.3216 134.5917
L91.6788 133.7345
" />
<path d="M92.3216 133.0917
L91.4645 133.9488
" />
<path d="M92.9645 134.5917
L92.9645 133.5917
" />
<path d="M92.9645 133.0917
L92.8931 133.1631
" />
<path d="M92.8931 133.1631
L92.9645 133.2345
" />
<path d="M92.9645 133.2345
L93.0359 133.1631
" />
<path d="M93.0359 133.1631
L92.9645 133.0917
" />
<path d="M92.9645 133.0917
L92.9645 133.2345
" />
<path d="M94.5359 134.4488
L94.4645 134.5203
" />
<path d="M94.4645 134.5203
L94.2502 134.5917
" />
<path d="M94.2502 134.5917
L94.1074 134.5917
" />
<path d="M94.1074 134.5917
L93.8931 134.5203
" />
<path d="M93.8931 134.5203
L93.7502 134.3774
" />
<path d="M93.7502 134.3774
L93.6788 134.2345
" />
<path d="M93.6788 134.2345
L93.6074 133.9488
" />
<path d="M93.6074 133.9488
L93.6074 133.7345
" />
<path d="M93.6074 133.7345
L93.6788 133.4488
" />
<path d="M93.6788 133.4488
L93.7502 133.3060
" />
<path d="M93.7502 133.3060
L93.8931 133.1631
" />
<path d="M93.8931 133.1631
L94.1074 133.0917
" />
<path d="M94.1074 133.0917
L94.2502 133.0917
" />
<path d="M94.2502 133.0917
L94.4645 133.1631
" />
<path d="M94.4645 133.1631
L94.5359 133.2345
" />
<path d="M95.8217 134.5917
L95.8217 133.8060
" />
<path d="M95.8217 133.8060
L95.7502 133.6631
" />
<path d="M95.7502 133.6631
L95.6074 133.5917
" />
<path d="M95.6074 133.5917
L95.3217 133.5917
" />
<path d="M95.3217 133.5917
L95.1788 133.6631
" />
<path d="M95.8217 134.5203
L95.6788 134.5917
" />
<path d="M95.6788 134.5917
L95.3217 134.5917
" />
<path d="M95.3217 134.5917
L95.1788 134.5203
" />
<path d="M95.1788 134.5203
L95.1074 134.3774
" />
<path d="M95.1074 134.3774
L95.1074 134.2345
" />
<path d="M95.1074 134.2345
L95.1788 134.0917
" />
<path d="M95.1788 134.0917
L95.3217 134.0203
" />
<path d="M95.3217 134.0203
L95.6788 134.0203
" />
<path d="M95.6788 134.0203
L95.8217 133.9488
" />
<path d="M97.1788 134.5917
L97.1788 133.0917
" />
<path d="M97.1788 134.5203
L97.0359 134.5917
" />
<path d="M97.0359 134.5917
L96.7502 134.5917
" />
<path d="M96.7502 134.5917
L96.6073 134.5203
" />
<path d="M96.6073 134.5203
L96.5359 134.4488
" />
<path d="M96.5359 134.4488
L96.4645 134.3060
" />
<path d="M96.4645 134.3060
L96.4645 133.8774
" />
<path d="M96.4645 133.8774
L96.5359 133.7345
" />
<path d="M96.5359 133.7345
L96.6073 133.6631
" />
<path d="M96.6073 133.6631
L96.7502 133.5917
" />
<path d="M96.7502 133.5917
L97.0359 133.5917
" />
<path d="M97.0359 133.5917
L97.1788 133.6631
" />
<path d="M99.0359 133.8060
L99.5359 133.8060
" />
<path d="M99.7502 134.5917
L99.0359 134.5917
" />
<path d="M99.0359 134.5917
L99.0359 133.0917
" />
<path d="M99.0359 133.0917
L99.7502 133.0917
" />
<path d="M100.3930 134.4488
L100.4644 134.5203
" />
<path d="M100.4644 134.5203
L100.3930 134.5917
" />
<path d="M100.3930 134.5917
L100.3216 134.5203
" />
<path d="M100.3216 134.5203
L100.3930 134.4488
" />
<path d="M100.3930 134.4488
L100.3930 134.5917
" />
<path d="M101.1073 134.5917
L101.1073 133.0917
" />
<path d="M101.1073 133.0917
L101.4644 133.0917
" />
<path d="M101.4644 133.0917
L101.6787 133.1631
" />
<path d="M101.6787 133.1631
L101.8216 133.3060
" />
<path d="M101.8216 133.3060
L101.8930 133.4488
" />
<path d="M101.8930 133.4488
L101.9644 133.7345
" />
<path d="M101.9644 133.7345
L101.9644 133.9488
" />
<path d="M101.9644 133.9488
L101.8930 134.2345
" />
<path d="M101.8930 134.2345
L101.8216 134.3774
" />
<path d="M101.8216 134.3774
L101.6787 134.5203
" />
<path d="M101.6787 134.5203
L101.4644 134.5917
" />
<path d="M101.4644 134.5917
L101.1073 134.5917
" />
<path d="M102.6073 134.4488
L102.6787 134.5203
" />
<path d="M102.6787 134.5203
L102.6073 134.5917
" />
<path d="M102.6073 134.5917
L102.5359 134.5203
" />
<path d="M102.5359 134.5203
L102.6073 134.4488
" />
<path d="M102.6073 134.4488
L102.6073 134.5917
" />
<path d="M103.2502 134.1631
L103.9645 134.1631
" />
<path d="M103.1073 134.5917
L103.6073 133.0917
" />
<path d="M103.6073 133.0917
L104.1073 134.5917
" />
<path d="M104.6073 134.4488
L104.6787 134.5203
" />
<path d="M104.6787 134.5203
L104.6073 134.5917
" />
<path d="M104.6073 134.5917
L104.5359 134.5203
" />
<path d="M104.5359 134.5203
L104.6073 134.4488
" />
<path d="M104.6073 134.4488
L104.6073 134.5917
" />
<path d="M106.5359 134.5917
L106.8216 134.5917
" />
<path d="M106.8216 134.5917
L106.9645 134.5203
" />
<path d="M106.9645 134.5203
L107.0359 134.4488
" />
<path d="M107.0359 134.4488
L107.1788 134.2345
" />
<path d="M107.1788 134.2345
L107.2502 133.9488
" />
<path d="M107.2502 133.9488
L107.2502 133.3774
" />
<path d="M107.2502 133.3774
L107.1788 133.2345
" />
<path d="M107.1788 133.2345
L107.1074 133.1631
" />
<path d="M107.1074 133.1631
L106.9645 133.0917
" />
<path d="M106.9645 133.0917
L106.6788 133.0917
" />
<path d="M106.6788 133.0917
L106.5359 133.1631
" />
<path d="M106.5359 133.1631
L106.4645 133.2345
" />
<path d="M106.4645 133.2345
L106.3931 133.3774
" />
<path d="M106.3931 133.3774
L106.3931 133.7345
" />
<path d="M106.3931 133.7345
L106.4645 133.8774
" />
<path d="M106.4645 133.8774
L106.5359 133.9488
" />
<path d="M106.5359 133.9488
L106.6788 134.0203
" />
<path d="M106.6788 134.0203
L106.9645 134.0203
" />
<path d="M106.9645 134.0203
L107.1074 133.9488
" />
<path d="M107.1074 133.9488
L107.1788 133.8774
" />
<path d="M107.1788 133.8774
L107.2502 133.7345
" />
<path d="M107.8931 134.4488
L107.9645 134.5203
" />
<path d="M107.9645 134.5203
L107.8931 134.5917
" />
<path d="M107.8931 134.5917
L107.8217 134.5203
" />
<path d="M107.8217 134.5203
L107.8931 134.4488
" />
<path d="M107.8931 134.4488
L107.8931 134.5917
" />
<path d="M108.8931 133.0917
L109.0360 133.0917
" />
<path d="M109.0360 133.0917
L109.1788 133.1631
" />
<path d="M109.1788 133.1631
L109.2503 133.2345
" />
<path d="M109.2503 133.2345
L109.3217 133.3774
" />
<path d="M109.3217 133.3774
L109.3931 133.6631
" />
<path d="M109.3931 133.6631
L109.3931 134.0203
" />
<path d="M109.3931 134.0203
L109.3217 134.3060
" />
<path d="M109.3217 134.3060
L109.2503 134.4488
" />
<path d="M109.2503 134.4488
L109.1788 134.5203
" />
<path d="M109.1788 134.5203
L109.0360 134.5917
" />
<path d="M109.0360 134.5917
L108.8931 134.5917
" />
<path d="M108.8931 134.5917
L108.7503 134.5203
" />
<path d="M108.7503 134.5203
L108.6788 134.4488
" />
<path d="M108.6788 134.4488
L108.6074 134.3060
" />
<path d="M108.6074 134.3060
L108.5360 134.0203
" />
<path d="M108.5360 134.0203
L108.5360 133.6631
" />
<path d="M108.5360 133.6631
L108.6074 133.3774
" />
<path d="M108.6074 133.3774
L108.6788 133.2345
" />
<path d="M108.6788 133.2345
L108.7503 133.1631
" />
<path d="M108.7503 133.1631
L108.8931 133.0917
" />
<path d="M110.0360 134.4488
L110.1074 134.5203
" />
<path d="M110.1074 134.5203
L110.0360 134.5917
" />
<path d="M110.0360 134.5917
L109.9646 134.5203
" />
<path d="M109.9646 134.5203
L110.0360 134.4488
" />
<path d="M110.0360 134.4488
L110.0360 134.5917
" />
<path d="M111.3932 133.0917
L111.1074 133.0917
" />
<path d="M111.1074 133.0917
L110.9646 133.1631
" />
<path d="M110.9646 133.1631
L110.8932 133.2345
" />
<path d="M110.8932 133.2345
L110.7503 133.4488
" />
<path d="M110.7503 133.4488
L110.6789 133.7345
" />
<path d="M110.6789 133.7345
L110.6789 134.3060
" />
<path d="M110.6789 134.3060
L110.7503 134.4488
" />
<path d="M110.7503 134.4488
L110.8217 134.5203
" />
<path d="M110.8217 134.5203
L110.9646 134.5917
" />
<path d="M110.9646 134.5917
L111.2503 134.5917
" />
<path d="M111.2503 134.5917
L111.3932 134.5203
" />
<path d="M111.3932 134.5203
L111.4646 134.4488
" />
<path d="M111.4646 134.4488
L111.5360 134.3060
" />
<path d="M111.5360 134.3060
L111.5360 133.9488
" />
<path d="M111.5360 133.9488
L111.4646 133.8060
" />
<path d="M111.4646 133.8060
L111.3932 133.7345
" />
<path d="M111.3932 133.7345
L111.2503 133.6631
" />
<path d="M111.2503 133.6631
L110.9646 133.6631
" />
<path d="M110.9646 133.6631
L110.8217 133.7345
" />
<path d="M110.8217 133.7345
L110.7503 133.8060
" />
<path d="M110.7503 133.8060
L110.6789 133.9488
" />
</g><path d="M90.0072 129.5058
L198.0072 129.5058
" />
</g>
<g style="fill:none; 
stroke:#840000; stroke-width:0.3000; stroke-opacity:1; 
stroke-linecap:round; stroke-linejoin:round;">
<text x="176.0072" y="131.8558"
textLength="6.3858" font-size="2.0000" lengthAdjust="spacingAndGlyphs"
text-anchor="start" opacity="0" stroke-opacity="0">Rev: </text>
<g class="stroked-text"><desc>Rev: </desc>
<path d="M177.4187 131.7841
L176.9187 131.0698
" />
<path d="M176.5616 131.7841
L176.5616 130.2841
" />
<path d="M176.5616 130.2841
L177.1330 130.2841
" />
<path d="M177.1330 130.2841
L177.2759 130.3555
" />
<path d="M177.2759 130.3555
L177.3473 130.4269
" />
<path d="M177.3473 130.4269
L177.4187 130.5698
" />
<path d="M177.4187 130.5698
L177.4187 130.7841
" />
<path d="M177.4187 130.7841
L177.3473 130.9269
" />
<path d="M177.3473 130.9269
L177.2759 130.9984
" />
<path d="M177.2759 130.9984
L177.1330 131.0698
" />
<path d="M177.1330 131.0698
L176.5616 131.0698
" />
<path d="M178.6330 131.7127
L178.4902 131.7841
" />
<path d="M178.4902 131.7841
L178.2045 131.7841
" />
<path d="M178.2045 131.7841
L178.0616 131.7127
" />
<path d="M178.0616 131.7127
L177.9902 131.5698
" />
<path d="M177.9902 131.5698
L177.9902 130.9984
" />
<path d="M177.9902 130.9984
L178.0616 130.8555
" />
<path d="M178.0616 130.8555
L178.2045 130.7841
" />
<path d="M178.2045 130.7841
L178.4902 130.7841
" />
<path d="M178.4902 130.7841
L178.6330 130.8555
" />
<path d="M178.6330 130.8555
L178.7045 130.9984
" />
<path d="M178.7045 130.9984
L178.7045 131.1412
" />
<path d="M178.7045 131.1412
L177.9902 131.2841
" />
<path d="M179.2044 130.7841
L179.5616 131.7841
" />
<path d="M179.5616 131.7841
L179.9187 130.7841
" />
<path d="M180.4902 131.6412
L180.5616 131.7127
" />
<path d="M180.5616 131.7127
L180.4902 131.7841
" />
<path d="M180.4902 131.7841
L180.4188 131.7127
" />
<path d="M180.4188 131.7127
L180.4902 131.6412
" />
<path d="M180.4902 131.6412
L180.4902 131.7841
" />
<path d="M180.4902 130.8555
L180.5616 130.9269
" />
<path d="M180.5616 130.9269
L180.4902 130.9984
" />
<path d="M180.4902 130.9984
L180.4188 130.9269
" />
<path d="M180.4188 130.9269
L180.4902 130.8555
" />
<path d="M180.4902 130.8555
L180.4902 130.9984
" />
</g></g>
<g style="fill:none; 
stroke:#840000; stroke-width:0.1524; stroke-opacity:1; 
stroke-linecap:round; stroke-linejoin:round;">
<text x="91.0072" y="131.8558"
textLength="9.3716" font-size="2.0000" lengthAdjust="spacingAndGlyphs"
text-anchor="start" opacity="0" stroke-opacity="0">Size: A5</text>
<g class="stroked-text"><desc>Size: A5</desc>
<path d="M91.3931 131.7203
L91.6074 131.7917
" />
<path d="M91.6074 131.7917
L91.9645 131.7917
" />
<path d="M91.9645 131.7917
L92.1074 131.7203
" />
<path d="M92.1074 131.7203
L92.1788 131.6488
" />
<path d="M92.1788 131.6488
L92.2502 131.5060
" />
<path d="M92.2502 131.5060
L92.2502 131.3631
" />
<path d="M92.2502 131.3631
L92.1788 131.2203
" />
<path d="M92.1788 131.2203
L92.1074 131.1488
" />
<path d="M92.1074 131.1488
L91.9645 131.0774
" />
<path d="M91.9645 131.0774
L91.6788 131.0060
" />
<path d="M91.6788 131.0060
L91.5359 130.9345
" />
<path d="M91.5359 130.9345
L91.4645 130.8631
" />
<path d="M91.4645 130.8631
L91.3931 130.7203
" />
<path d="M91.3931 130.7203
L91.3931 130.5774
" />
<path d="M91.3931 130.5774
L91.4645 130.4345
" />
<path d="M91.4645 130.4345
L91.5359 130.3631
" />
<path d="M91.5359 130.3631
L91.6788 130.2917
" />
<path d="M91.6788 130.2917
L92.0359 130.2917
" />
<path d="M92.0359 130.2917
L92.2502 130.3631
" />
<path d="M92.8931 131.7917
L92.8931 130.7917
" />
<path d="M92.8931 130.2917
L92.8217 130.3631
" />
<path d="M92.8217 130.3631
L92.8931 130.4345
" />
<path d="M92.8931 130.4345
L92.9645 130.3631
" />
<path d="M92.9645 130.3631
L92.8931 130.2917
" />
<path d="M92.8931 130.2917
L92.8931 130.4345
" />
<path d="M93.4645 130.7917
L94.2503 130.7917
" />
<path d="M94.2503 130.7917
L93.4645 131.7917
" />
<path d="M93.4645 131.7917
L94.2503 131.7917
" />
<path d="M95.3931 131.7203
L95.2503 131.7917
" />
<path d="M95.2503 131.7917
L94.9646 131.7917
" />
<path d="M94.9646 131.7917
L94.8217 131.7203
" />
<path d="M94.8217 131.7203
L94.7503 131.5774
" />
<path d="M94.7503 131.5774
L94.7503 131.0060
" />
<path d="M94.7503 131.0060
L94.8217 130.8631
" />
<path d="M94.8217 130.8631
L94.9646 130.7917
" />
<path d="M94.9646 130.7917
L95.2503 130.7917
" />
<path d="M95.2503 130.7917
L95.3931 130.8631
" />
<path d="M95.3931 130.8631
L95.4646 131.0060
" />
<path d="M95.4646 131.0060
L95.4646 131.1488
" />
<path d="M95.4646 131.1488
L94.7503 131.2917
" />
<path d="M96.1074 131.6488
L96.1788 131.7203
" />
<path d="M96.1788 131.7203
L96.1074 131.7917
" />
<path d="M96.1074 131.7917
L96.0360 131.7203
" />
<path d="M96.0360 131.7203
L96.1074 131.6488
" />
<path d="M96.1074 131.6488
L96.1074 131.7917
" />
<path d="M96.1074 130.8631
L96.1788 130.9345
" />
<path d="M96.1788 130.9345
L96.1074 131.0060
" />
<path d="M96.1074 131.0060
L96.0360 130.9345
" />
<path d="M96.0360 130.9345
L96.1074 130.8631
" />
<path d="M96.1074 130.8631
L96.1074 131.0060
" />
<path d="M97.8932 131.3631
L98.6075 131.3631
" />
<path d="M97.7503 131.7917
L98.2503 130.2917
" />
<path d="M98.2503 130.2917
L98.7503 131.7917
" />
<path d="M99.9646 130.2917
L99.2503 130.2917
" />
<path d="M99.2503 130.2917
L99.1789 131.0060
" />
<path d="M99.1789 131.0060
L99.2503 130.9345
" />
<path d="M99.2503 130.9345
L99.3932 130.8631
" />
<path d="M99.3932 130.8631
L99.7503 130.8631
" />
<path d="M99.7503 130.8631
L99.8932 130.9345
" />
<path d="M99.8932 130.9345
L99.9646 131.0060
" />
<path d="M99.9646 131.0060
L100.0360 131.1488
" />
<path d="M100.0360 131.1488
L100.0360 131.5060
" />
<path d="M100.0360 131.5060
L99.9646 131.6488
" />
<path d="M99.9646 131.6488
L99.8932 131.7203
" />
<path d="M99.8932 131.7203
L99.7503 131.7917
" />
<path d="M99.7503 131.7917
L99.3932 131.7917
" />
<path d="M99.3932 131.7917
L99.2503 131.7203
" />
<path d="M99.2503 131.7203
L99.1789 131.6488
" />
</g><text x="176.0072" y="134.6558"
textLength="8.5144" font-size="2.0000" lengthAdjust="spacingAndGlyphs"
text-anchor="start" opacity="0" stroke-opacity="0">Id: 1/1</text>
<g class="stroked-text"><desc>Id: 1/1</desc>
<path d="M176.4645 134.5917
L176.4645 133.0917
" />
<path d="M177.8217 134.5917
L177.8217 133.0917
" />
<path d="M177.8217 134.5203
L177.6788 134.5917
" />
<path d="M177.6788 134.5917
L177.3931 134.5917
" />
<path d="M177.3931 134.5917
L177.2502 134.5203
" />
<path d="M177.2502 134.5203
L177.1788 134.4488
" />
<path d="M177.1788 134.4488
L177.1074 134.3060
" />
<path d="M177.1074 134.3060
L177.1074 133.8774
" />
<path d="M177.1074 133.8774
L177.1788 133.7345
" />
<path d="M177.1788 133.7345
L177.2502 133.6631
" />
<path d="M177.2502 133.6631
L177.3931 133.5917
" />
<path d="M177.3931 133.5917
L177.6788 133.5917
" />
<path d="M177.6788 133.5917
L177.8217 133.6631
" />
<path d="M178.5359 134.4488
L178.6073 134.5203
" />
<path d="M178.6073 134.5203
L178.5359 134.5917
" />
<path d="M178.5359 134.5917
L178.4645 134.5203
" />
<path d="M178.4645 134.5203
L178.5359 134.4488
" />
<path d="M178.5359 134.4488
L178.5359 134.5917
" />
<path d="M178.5359 133.6631
L178.6073 133.7345
" />
<path d="M178.6073 133.7345
L178.5359 133.8060
" />
<path d="M178.5359 133.8060
L178.4645 133.7345
" />
<path d="M178.4645 133.7345
L178.5359 133.6631
" />
<path d="M178.5359 133.6631
L178.5359 133.8060
" />
<path d="M181.1788 134.5917
L180.3217 134.5917
" />
<path d="M180.7502 134.5917
L180.7502 133.0917
" />
<path d="M180.7502 133.0917
L180.6074 133.3060
" />
<path d="M180.6074 133.3060
L180.4645 133.4488
" />
<path d="M180.4645 133.4488
L180.3217 133.5203
" />
<path d="M182.8931 133.0203
L181.6074 134.9488
" />
<path d="M184.1788 134.5917
L183.3217 134.5917
" />
<path d="M183.7502 134.5917
L183.7502 133.0917
" />
<path d="M183.7502 133.0917
L183.6074 133.3060
" />
<path d="M183.6074 133.3060
L183.4645 133.4488
" />
<path d="M183.4645 133.4488
L183.3217 133.5203
" />
</g><path d="M90.0072 125.5058
L198.0072 125.5058
" />
</g>
<g style="fill:none; 
stroke:#840000; stroke-width:0.4000; stroke-opacity:1; 
stroke-linecap:round; stroke-linejoin:round;">
<text x="91.0072" y="128.3058"
textLength="9.6572" font-size="2.6666" lengthAdjust="spacingAndGlyphs"
text-anchor="start" opacity="0" stroke-opacity="0">Title: </text>
<g class="stroked-text"><desc>Title: </desc>
<path d="M91.6988 126.2102
L92.8417 126.2102
" />
<path d="M92.0203 128.2102
L92.2703 126.2102
" />
<path d="M93.2583 128.2102
L93.4250 126.8769
" />
<path d="M93.5083 126.2102
L93.4012 126.3054
" />
<path d="M93.4012 126.3054
L93.4845 126.4007
" />
<path d="M93.4845 126.4007
L93.5917 126.3054
" />
<path d="M93.5917 126.3054
L93.5083 126.2102
" />
<path d="M93.5083 126.2102
L93.4845 126.4007
" />
<path d="M94.0917 126.8769
L94.8536 126.8769
" />
<path d="M94.4607 126.2102
L94.2465 127.9245
" />
<path d="M94.2465 127.9245
L94.3179 128.1150
" />
<path d="M94.3179 128.1150
L94.4965 128.2102
" />
<path d="M94.4965 128.2102
L94.6869 128.2102
" />
<path d="M95.6394 128.2102
L95.4608 128.1150
" />
<path d="M95.4608 128.1150
L95.3894 127.9245
" />
<path d="M95.3894 127.9245
L95.6036 126.2102
" />
<path d="M97.1750 128.1150
L96.9727 128.2102
" />
<path d="M96.9727 128.2102
L96.5917 128.2102
" />
<path d="M96.5917 128.2102
L96.4131 128.1150
" />
<path d="M96.4131 128.1150
L96.3417 127.9245
" />
<path d="M96.3417 127.9245
L96.4370 127.1626
" />
<path d="M96.4370 127.1626
L96.5560 126.9721
" />
<path d="M96.5560 126.9721
L96.7584 126.8769
" />
<path d="M96.7584 126.8769
L97.1393 126.8769
" />
<path d="M97.1393 126.8769
L97.3179 126.9721
" />
<path d="M97.3179 126.9721
L97.3893 127.1626
" />
<path d="M97.3893 127.1626
L97.3655 127.3530
" />
<path d="M97.3655 127.3530
L96.3893 127.5435
" />
<path d="M98.1393 128.0197
L98.2227 128.1150
" />
<path d="M98.2227 128.1150
L98.1155 128.2102
" />
<path d="M98.1155 128.2102
L98.0322 128.1150
" />
<path d="M98.0322 128.1150
L98.1393 128.0197
" />
<path d="M98.1393 128.0197
L98.1155 128.2102
" />
<path d="M98.2703 126.9721
L98.3536 127.0673
" />
<path d="M98.3536 127.0673
L98.2465 127.1626
" />
<path d="M98.2465 127.1626
L98.1632 127.0673
" />
<path d="M98.1632 127.0673
L98.2703 126.9721
" />
<path d="M98.2703 126.9721
L98.2465 127.1626
" />
</g></g>
<g style="fill:none; 
stroke:#840000; stroke-width:0.1524; stroke-opacity:1; 
stroke-linecap:round; stroke-linejoin:round;">
<text x="91.0072" y="124.4558"
textLength="30.2999" font-size="2.0000" lengthAdjust="spacingAndGlyphs"
text-anchor="start" opacity="0" stroke-opacity="0">File: schematics.kicad_sch</text>
<g class="stroked-text"><desc>File: schematics.kicad_sch</desc>
<path d="M91.9645 123.6060
L91.4645 123.6060
" />
<path d="M91.4645 124.3917
L91.4645 122.8917
" />
<path d="M91.4645 122.8917
L92.1788 122.8917
" />
<path d="M92.7502 124.3917
L92.7502 123.3917
" />
<path d="M92.7502 122.8917
L92.6788 122.9631
" />
<path d="M92.6788 122.9631
L92.7502 123.0345
" />
<path d="M92.7502 123.0345
L92.8216 122.9631
" />
<path d="M92.8216 122.9631
L92.7502 122.8917
" />
<path d="M92.7502 122.8917
L92.7502 123.0345
" />
<path d="M93.6788 124.3917
L93.5359 124.3203
" />
<path d="M93.5359 124.3203
L93.4645 124.1774
" />
<path d="M93.4645 124.1774
L93.4645 122.8917
" />
<path d="M94.8216 124.3203
L94.6788 124.3917
" />
<path d="M94.6788 124.3917
L94.3931 124.3917
" />
<path d="M94.3931 124.3917
L94.2502 124.3203
" />
<path d="M94.2502 124.3203
L94.1788 124.1774
" />
<path d="M94.1788 124.1774
L94.1788 123.6060
" />
<path d="M94.1788 123.6060
L94.2502 123.4631
" />
<path d="M94.2502 123.4631
L94.3931 123.3917
" />
<path d="M94.3931 123.3917
L94.6788 123.3917
" />
<path d="M94.6788 123.3917
L94.8216 123.4631
" />
<path d="M94.8216 123.4631
L94.8931 123.6060
" />
<path d="M94.8931 123.6060
L94.8931 123.7488
" />
<path d="M94.8931 123.7488
L94.1788 123.8917
" />
<path d="M95.5359 124.2488
L95.6073 124.3203
" />
<path d="M95.6073 124.3203
L95.5359 124.3917
" />
<path d="M95.5359 124.3917
L95.4645 124.3203
" />
<path d="M95.4645 124.3203
L95.5359 124.2488
" />
<path d="M95.5359 124.2488
L95.5359 124.3917
" />
<path d="M95.5359 123.4631
L95.6073 123.5345
" />
<path d="M95.6073 123.5345
L95.5359 123.6060
" />
<path d="M95.5359 123.6060
L95.4645 123.5345
" />
<path d="M95.4645 123.5345
L95.5359 123.4631
" />
<path d="M95.5359 123.4631
L95.5359 123.6060
" />
<path d="M97.3217 124.3203
L97.4645 124.3917
" />
<path d="M97.4645 124.3917
L97.7502 124.3917
" />
<path d="M97.7502 124.3917
L97.8931 124.3203
" />
<path d="M97.8931 124.3203
L97.9645 124.1774
" />
<path d="M97.9645 124.1774
L97.9645 124.1060
" />
<path d="M97.9645 124.1060
L97.8931 123.9631
" />
<path d="M97.8931 123.9631
L97.7502 123.8917
" />
<path d="M97.7502 123.8917
L97.5360 123.8917
" />
<path d="M97.5360 123.8917
L97.3931 123.8203
" />
<path d="M97.3931 123.8203
L97.3217 123.6774
" />
<path d="M97.3217 123.6774
L97.3217 123.6060
" />
<path d="M97.3217 123.6060
L97.3931 123.4631
" />
<path d="M97.3931 123.4631
L97.5360 123.3917
" />
<path d="M97.5360 123.3917
L97.7502 123.3917
" />
<path d="M97.7502 123.3917
L97.8931 123.4631
" />
<path d="M99.2503 124.3203
L99.1074 124.3917
" />
<path d="M99.1074 124.3917
L98.8217 124.3917
" />
<path d="M98.8217 124.3917
L98.6788 124.3203
" />
<path d="M98.6788 124.3203
L98.6074 124.2488
" />
<path d="M98.6074 124.2488
L98.5360 124.1060
" />
<path d="M98.5360 124.1060
L98.5360 123.6774
" />
<path d="M98.5360 123.6774
L98.6074 123.5345
" />
<path d="M98.6074 123.5345
L98.6788 123.4631
" />
<path d="M98.6788 123.4631
L98.8217 123.3917
" />
<path d="M98.8217 123.3917
L99.1074 123.3917
" />
<path d="M99.1074 123.3917
L99.2503 123.4631
" />
<path d="M99.8931 124.3917
L99.8931 122.8917
" />
<path d="M100.5360 124.3917
L100.5360 123.6060
" />
<path d="M100.5360 123.6060
L100.4645 123.4631
" />
<path d="M100.4645 123.4631
L100.3217 123.3917
" />
<path d="M100.3217 123.3917
L100.1074 123.3917
" />
<path d="M100.1074 123.3917
L99.9645 123.4631
" />
<path d="M99.9645 123.4631
L99.8931 123.5345
" />
<path d="M101.8216 124.3203
L101.6788 124.3917
" />
<path d="M101.6788 124.3917
L101.3931 124.3917
" />
<path d="M101.3931 124.3917
L101.2502 124.3203
" />
<path d="M101.2502 124.3203
L101.1788 124.1774
" />
<path d="M101.1788 124.1774
L101.1788 123.6060
" />
<path d="M101.1788 123.6060
L101.2502 123.4631
" />
<path d="M101.2502 123.4631
L101.3931 123.3917
" />
<path d="M101.3931 123.3917
L101.6788 123.3917
" />
<path d="M101.6788 123.3917
L101.8216 123.4631
" />
<path d="M101.8216 123.4631
L101.8931 123.6060
" />
<path d="M101.8931 123.6060
L101.8931 123.7488
" />
<path d="M101.8931 123.7488
L101.1788 123.8917
" />
<path d="M102.5359 124.3917
L102.5359 123.3917
" />
<path d="M102.5359 123.5345
L102.6073 123.4631
" />
<path d="M102.6073 123.4631
L102.7502 123.3917
" />
<path d="M102.7502 123.3917
L102.9645 123.3917
" />
<path d="M102.9645 123.3917
L103.1073 123.4631
" />
<path d="M103.1073 123.4631
L103.1788 123.6060
" />
<path d="M103.1788 123.6060
L103.1788 124.3917
" />
<path d="M103.1788 123.6060
L103.2502 123.4631
" />
<path d="M103.2502 123.4631
L103.3930 123.3917
" />
<path d="M103.3930 123.3917
L103.6073 123.3917
" />
<path d="M103.6073 123.3917
L103.7502 123.4631
" />
<path d="M103.7502 123.4631
L103.8216 123.6060
" />
<path d="M103.8216 123.6060
L103.8216 124.3917
" />
<path d="M105.1788 124.3917
L105.1788 123.6060
" />
<path d="M105.1788 123.6060
L105.1073 123.4631
" />
<path d="M105.1073 123.4631
L104.9645 123.3917
" />
<path d="M104.9645 123.3917
L104.6788 123.3917
" />
<path d="M104.6788 123.3917
L104.5359 123.4631
" />
<path d="M105.1788 124.3203
L105.0359 124.3917
" />
<path d="M105.0359 124.3917
L104.6788 124.3917
" />
<path d="M104.6788 124.3917
L104.5359 124.3203
" />
<path d="M104.5359 124.3203
L104.4645 124.1774
" />
<path d="M104.4645 124.1774
L104.4645 124.0345
" />
<path d="M104.4645 124.0345
L104.5359 123.8917
" />
<path d="M104.5359 123.8917
L104.6788 123.8203
" />
<path d="M104.6788 123.8203
L105.0359 123.8203
" />
<path d="M105.0359 123.8203
L105.1788 123.7488
" />
<path d="M105.6787 123.3917
L106.2501 123.3917
" />
<path d="M105.8930 122.8917
L105.8930 124.1774
" />
<path d="M105.8930 124.1774
L105.9644 124.3203
" />
<path d="M105.9644 124.3203
L106.1073 124.3917
" />
<path d="M106.1073 124.3917
L106.2501 124.3917
" />
<path d="M106.7501 124.3917
L106.7501 123.3917
" />
<path d="M106.7501 122.8917
L106.6787 122.9631
" />
<path d="M106.6787 122.9631
L106.7501 123.0345
" />
<path d="M106.7501 123.0345
L106.8215 122.9631
" />
<path d="M106.8215 122.9631
L106.7501 122.8917
" />
<path d="M106.7501 122.8917
L106.7501 123.0345
" />
<path d="M108.1073 124.3203
L107.9644 124.3917
" />
<path d="M107.9644 124.3917
L107.6787 124.3917
" />
<path d="M107.6787 124.3917
L107.5358 124.3203
" />
<path d="M107.5358 124.3203
L107.4644 124.2488
" />
<path d="M107.4644 124.2488
L107.3930 124.1060
" />
<path d="M107.3930 124.1060
L107.3930 123.6774
" />
<path d="M107.3930 123.6774
L107.4644 123.5345
" />
<path d="M107.4644 123.5345
L107.5358 123.4631
" />
<path d="M107.5358 123.4631
L107.6787 123.3917
" />
<path d="M107.6787 123.3917
L107.9644 123.3917
" />
<path d="M107.9644 123.3917
L108.1073 123.4631
" />
<path d="M108.6787 124.3203
L108.8215 124.3917
" />
<path d="M108.8215 124.3917
L109.1072 124.3917
" />
<path d="M109.1072 124.3917
L109.2501 124.3203
" />
<path d="M109.2501 124.3203
L109.3215 124.1774
" />
<path d="M109.3215 124.1774
L109.3215 124.1060
" />
<path d="M109.3215 124.1060
L109.2501 123.9631
" />
<path d="M109.2501 123.9631
L109.1072 123.8917
" />
<path d="M109.1072 123.8917
L108.8930 123.8917
" />
<path d="M108.8930 123.8917
L108.7501 123.8203
" />
<path d="M108.7501 123.8203
L108.6787 123.6774
" />
<path d="M108.6787 123.6774
L108.6787 123.6060
" />
<path d="M108.6787 123.6060
L108.7501 123.4631
" />
<path d="M108.7501 123.4631
L108.8930 123.3917
" />
<path d="M108.8930 123.3917
L109.1072 123.3917
" />
<path d="M109.1072 123.3917
L109.2501 123.4631
" />
<path d="M109.9644 124.2488
L110.0358 124.3203
" />
<path d="M110.0358 124.3203
L109.9644 124.3917
" />
<path d="M109.9644 124.3917
L109.8930 124.3203
" />
<path d="M109.8930 124.3203
L109.9644 124.2488
" />
<path d="M109.9644 124.2488
L109.9644 124.3917
" />
<path d="M110.6787 124.3917
L110.6787 122.8917
" />
<path d="M110.8216 123.8203
L111.2501 124.3917
" />
<path d="M111.2501 123.3917
L110.6787 123.9631
" />
<path d="M111.8930 124.3917
L111.8930 123.3917
" />
<path d="M111.8930 122.8917
L111.8216 122.9631
" />
<path d="M111.8216 122.9631
L111.8930 123.0345
" />
<path d="M111.8930 123.0345
L111.9644 122.9631
" />
<path d="M111.9644 122.9631
L111.8930 122.8917
" />
<path d="M111.8930 122.8917
L111.8930 123.0345
" />
<path d="M113.2502 124.3203
L113.1073 124.3917
" />
<path d="M113.1073 124.3917
L112.8216 124.3917
" />
<path d="M112.8216 124.3917
L112.6787 124.3203
" />
<path d="M112.6787 124.3203
L112.6073 124.2488
" />
<path d="M112.6073 124.2488
L112.5359 124.1060
" />
<path d="M112.5359 124.1060
L112.5359 123.6774
" />
<path d="M112.5359 123.6774
L112.6073 123.5345
" />
<path d="M112.6073 123.5345
L112.6787 123.4631
" />
<path d="M112.6787 123.4631
L112.8216 123.3917
" />
<path d="M112.8216 123.3917
L113.1073 123.3917
" />
<path d="M113.1073 123.3917
L113.2502 123.4631
" />
<path d="M114.5359 124.3917
L114.5359 123.6060
" />
<path d="M114.5359 123.6060
L114.4644 123.4631
" />
<path d="M114.4644 123.4631
L114.3216 123.3917
" />
<path d="M114.3216 123.3917
L114.0359 123.3917
" />
<path d="M114.0359 123.3917
L113.8930 123.4631
" />
<path d="M114.5359 124.3203
L114.3930 124.3917
" />
<path d="M114.3930 124.3917
L114.0359 124.3917
" />
<path d="M114.0359 124.3917
L113.8930 124.3203
" />
<path d="M113.8930 124.3203
L113.8216 124.1774
" />
<path d="M113.8216 124.1774
L113.8216 124.0345
" />
<path d="M113.8216 124.0345
L113.8930 123.8917
" />
<path d="M113.8930 123.8917
L114.0359 123.8203
" />
<path d="M114.0359 123.8203
L114.3930 123.8203
" />
<path d="M114.3930 123.8203
L114.5359 123.7488
" />
<path d="M115.8930 124.3917
L115.8930 122.8917
" />
<path d="M115.8930 124.3203
L115.7501 124.3917
" />
<path d="M115.7501 124.3917
L115.4644 124.3917
" />
<path d="M115.4644 124.3917
L115.3215 124.3203
" />
<path d="M115.3215 124.3203
L115.2501 124.2488
" />
<path d="M115.2501 124.2488
L115.1787 124.1060
" />
<path d="M115.1787 124.1060
L115.1787 123.6774
" />
<path d="M115.1787 123.6774
L115.2501 123.5345
" />
<path d="M115.2501 123.5345
L115.3215 123.4631
" />
<path d="M115.3215 123.4631
L115.4644 123.3917
" />
<path d="M115.4644 123.3917
L115.7501 123.3917
" />
<path d="M115.7501 123.3917
L115.8930 123.4631
" />
<path d="M116.2501 124.5345
L117.3929 124.5345
" />
<path d="M117.6787 124.3203
L117.8215 124.3917
" />
<path d="M117.8215 124.3917
L118.1072 124.3917
" />
<path d="M118.1072 124.3917
L118.2501 124.3203
" />
<path d="M118.2501 124.3203
L118.3215 124.1774
" />
<path d="M118.3215 124.1774
L118.3215 124.1060
" />
<path d="M118.3215 124.1060
L118.2501 123.9631
" />
<path d="M118.2501 123.9631
L118.1072 123.8917
" />
<path d="M118.1072 123.8917
L117.8930 123.8917
" />
<path d="M117.8930 123.8917
L117.7501 123.8203
" />
<path d="M117.7501 123.8203
L117.6787 123.6774
" />
<path d="M117.6787 123.6774
L117.6787 123.6060
" />
<path d="M117.6787 123.6060
L117.7501 123.4631
" />
<path d="M117.7501 123.4631
L117.8930 123.3917
" />
<path d="M117.8930 123.3917
L118.1072 123.3917
" />
<path d="M118.1072 123.3917
L118.2501 123.4631
" />
<path d="M119.6073 124.3203
L119.4644 124.3917
" />
<path d="M119.4644 124.3917
L119.1787 124.3917
" />
<path d="M119.1787 124.3917
L119.0358 124.3203
" />
<path d="M119.0358 124.3203
L118.9644 124.2488
" />
<path d="M118.9644 124.2488
L118.8930 124.1060
" />
<path d="M118.8930 124.1060
L118.8930 123.6774
" />
<path d="M118.8930 123.6774
L118.9644 123.5345
" />
<path d="M118.9644 123.5345
L119.0358 123.4631
" />
<path d="M119.0358 123.4631
L119.1787 123.3917
" />
<path d="M119.1787 123.3917
L119.4644 123.3917
" />
<path d="M119.4644 123.3917
L119.6073 123.4631
" />
<path d="M120.2501 124.3917
L120.2501 122.8917
" />
<path d="M120.8930 124.3917
L120.8930 123.6060
" />
<path d="M120.8930 123.6060
L120.8215 123.4631
" />
<path d="M120.8215 123.4631
L120.6787 123.3917
" />
<path d="M120.6787 123.3917
L120.4644 123.3917
" />
<path d="M120.4644 123.3917
L120.3215 123.4631
" />
<path d="M120.3215 123.4631
L120.2501 123.5345
" />
</g><path d="M90.0072 119.5058
L198.0072 119.5058
" />
<text x="91.0072" y="121.7558"
textLength="9.8000" font-size="2.0000" lengthAdjust="spacingAndGlyphs"
text-anchor="start" opacity="0" stroke-opacity="0">Sheet: /</text>
<g class="stroked-text"><desc>Sheet: /</desc>
<path d="M91.3931 121.6203
L91.6074 121.6917
" />
<path d="M91.6074 121.6917
L91.9645 121.6917
" />
<path d="M91.9645 121.6917
L92.1074 121.6203
" />
<path d="M92.1074 121.6203
L92.1788 121.5488
" />
<path d="M92.1788 121.5488
L92.2502 121.4060
" />
<path d="M92.2502 121.4060
L92.2502 121.2631
" />
<path d="M92.2502 121.2631
L92.1788 121.1203
" />
<path d="M92.1788 121.1203
L92.1074 121.0488
" />
<path d="M92.1074 121.0488
L91.9645 120.9774
" />
<path d="M91.9645 120.9774
L91.6788 120.9060
" />
<path d="M91.6788 120.9060
L91.5359 120.8345
" />
<path d="M91.5359 120.8345
L91.4645 120.7631
" />
<path d="M91.4645 120.7631
L91.3931 120.6203
" />
<path d="M91.3931 120.6203
L91.3931 120.4774
" />
<path d="M91.3931 120.4774
L91.4645 120.3345
" />
<path d="M91.4645 120.3345
L91.5359 120.2631
" />
<path d="M91.5359 120.2631
L91.6788 120.1917
" />
<path d="M91.6788 120.1917
L92.0359 120.1917
" />
<path d="M92.0359 120.1917
L92.2502 120.2631
" />
<path d="M92.8931 121.6917
L92.8931 120.1917
" />
<path d="M93.5360 121.6917
L93.5360 120.9060
" />
<path d="M93.5360 120.9060
L93.4645 120.7631
" />
<path d="M93.4645 120.7631
L93.3217 120.6917
" />
<path d="M93.3217 120.6917
L93.1074 120.6917
" />
<path d="M93.1074 120.6917
L92.9645 120.7631
" />
<path d="M92.9645 120.7631
L92.8931 120.8345
" />
<path d="M94.8216 121.6203
L94.6788 121.6917
" />
<path d="M94.6788 121.6917
L94.3931 121.6917
" />
<path d="M94.3931 121.6917
L94.2502 121.6203
" />
<path d="M94.2502 121.6203
L94.1788 121.4774
" />
<path d="M94.1788 121.4774
L94.1788 120.9060
" />
<path d="M94.1788 120.9060
L94.2502 120.7631
" />
<path d="M94.2502 120.7631
L94.3931 120.6917
" />
<path d="M94.3931 120.6917
L94.6788 120.6917
" />
<path d="M94.6788 120.6917
L94.8216 120.7631
" />
<path d="M94.8216 120.7631
L94.8931 120.9060
" />
<path d="M94.8931 120.9060
L94.8931 121.0488
" />
<path d="M94.8931 121.0488
L94.1788 121.1917
" />
<path d="M96.1073 121.6203
L95.9645 121.6917
" />
<path d="M95.9645 121.6917
L95.6788 121.6917
" />
<path d="M95.6788 121.6917
L95.5359 121.6203
" />
<path d="M95.5359 121.6203
L95.4645 121.4774
" />
<path d="M95.4645 121.4774
L95.4645 120.9060
" />
<path d="M95.4645 120.9060
L95.5359 120.7631
" />
<path d="M95.5359 120.7631
L95.6788 120.6917
" />
<path d="M95.6788 120.6917
L95.9645 120.6917
" />
<path d="M95.9645 120.6917
L96.1073 120.7631
" />
<path d="M96.1073 120.7631
L96.1788 120.9060
" />
<path d="M96.1788 120.9060
L96.1788 121.0488
" />
<path d="M96.1788 121.0488
L95.4645 121.1917
" />
<path d="M96.6073 120.6917
L97.1787 120.6917
" />
<path d="M96.8216 120.1917
L96.8216 121.4774
" />
<path d="M96.8216 121.4774
L96.8930 121.6203
" />
<path d="M96.8930 121.6203
L97.0359 121.6917
" />
<path d="M97.0359 121.6917
L97.1787 121.6917
" />
<path d="M97.6787 121.5488
L97.7501 121.6203
" />
<path d="M97.7501 121.6203
L97.6787 121.6917
" />
<path d="M97.6787 121.6917
L97.6073 121.6203
" />
<path d="M97.6073 121.6203
L97.6787 121.5488
" />
<path d="M97.6787 121.5488
L97.6787 121.6917
" />
<path d="M97.6787 120.7631
L97.7501 120.8345
" />
<path d="M97.7501 120.8345
L97.6787 120.9060
" />
<path d="M97.6787 120.9060
L97.6073 120.8345
" />
<path d="M97.6073 120.8345
L97.6787 120.7631
" />
<path d="M97.6787 120.7631
L97.6787 120.9060
" />
<path d="M100.6073 120.1203
L99.3216 122.0488
" />
</g></g>
<g style="fill:none; 
stroke:#840000; stroke-width:0.3000; stroke-opacity:1; 
stroke-linecap:round; stroke-linejoin:round;">
<text x="91.0072" y="118.7558"
textLength="0.9000" font-size="2.0000" lengthAdjust="spacingAndGlyphs"
text-anchor="start" opacity="0" stroke-opacity="0"></text>
<g class="stroked-text"><desc></desc>
</g></g>
<g style="fill:none; 
stroke:#840000; stroke-width:0.1524; stroke-opacity:1; 
stroke-linecap:round; stroke-linejoin:round;">
<text x="91.0072" y="115.7558"
textLength="0.4572" font-size="2.0000" lengthAdjust="spacingAndGlyphs"
text-anchor="start" opacity="0" stroke-opacity="0"></text>
<g class="stroked-text"><desc></desc>
</g><text x="91.0072" y="112.7558"
textLength="0.4572" font-size="2.0000" lengthAdjust="spacingAndGlyphs"
text-anchor="start" opacity="0" stroke-opacity="0"></text>
<g class="stroked-text"><desc></desc>
</g><text x="91.0072" y="109.7558"
textLength="0.4572" font-size="2.0000" lengthAdjust="spacingAndGlyphs"
text-anchor="start" opacity="0" stroke-opacity="0"></text>
<g class="stroked-text"><desc></desc>
</g><text x="91.0072" y="106.7558"
textLength="0.4572" font-size="2.0000" lengthAdjust="spacingAndGlyphs"
text-anchor="start" opacity="0" stroke-opacity="0"></text>
<g class="stroked-text"><desc></desc>
</g><path d="M110.0072 129.5058
L110.0072 132.5058
" />
<path d="M174.0072 129.5058
L174.0072 136.0058
" />
<path style="fill:#FFFFC2; fill-opacity:1.0000; stroke:none;fill-rule:evenodd;"
d="M 48.2600,25.4000
58.4200,30.4800
48.2600,35.5600
Z" /> 
<path style="fill:none; 
stroke:#840000; stroke-width:0.2540; stroke-opacity:1; 
stroke-linecap:round; stroke-linejoin:round;fill:none"
d="M 48.2600,25.4000
58.4200,30.4800
48.2600,35.5600
Z" /> 
</g>
<g style="fill:none; 
stroke:#840000; stroke-width:0.1524; stroke-opacity:1; 
stroke-linecap:round; stroke-linejoin:round;">
<path d="M48.2600 27.9400
L45.7200 27.9400
" />
</g>
<g style="fill:none; 
stroke:#006464; stroke-width:0.1524; stroke-opacity:1; 
stroke-linecap:round; stroke-linejoin:round;">
<text x="48.3870" y="28.5750"
textLength="1.7756" font-size="1.6933" lengthAdjust="spacingAndGlyphs"
text-anchor="start" opacity="0" stroke-opacity="0">+</text>
<g class="stroked-text"><desc>+</desc>
<path d="M48.7895 28.0357
L49.7572 28.0357
" />
<path d="M49.2733 28.5195
L49.2733 27.5519
" />
</g></g>
<g style="fill:none; 
stroke:#A90000; stroke-width:0.1524; stroke-opacity:1; 
stroke-linecap:round; stroke-linejoin:round;">
<text x="46.9900" y="27.6860"
textLength="1.4127" font-size="1.6933" lengthAdjust="spacingAndGlyphs"
text-anchor="middle" opacity="0" stroke-opacity="0">3</text>
<g class="stroked-text"><desc>3</desc>
<path d="M46.5667 26.2525
L47.3529 26.2525
" />
<path d="M47.3529 26.2525
L46.9295 26.7363
" />
<path d="M46.9295 26.7363
L47.1110 26.7363
" />
<path d="M47.1110 26.7363
L47.2319 26.7968
" />
<path d="M47.2319 26.7968
L47.2924 26.8573
" />
<path d="M47.2924 26.8573
L47.3529 26.9782
" />
<path d="M47.3529 26.9782
L47.3529 27.2806
" />
<path d="M47.3529 27.2806
L47.2924 27.4016
" />
<path d="M47.2924 27.4016
L47.2319 27.4621
" />
<path d="M47.2319 27.4621
L47.1110 27.5225
" />
<path d="M47.1110 27.5225
L46.7481 27.5225
" />
<path d="M46.7481 27.5225
L46.6272 27.4621
" />
<path d="M46.6272 27.4621
L46.5667 27.4016
" />
</g></g>
<g style="fill:none; 
stroke:#840000; stroke-width:0.1524; stroke-opacity:1; 
stroke-linecap:round; stroke-linejoin:round;">
<path d="M48.2600 33.0200
L45.7200 33.0200
" />
</g>
<g style="fill:none; 
stroke:#006464; stroke-width:0.1524; stroke-opacity:1; 
stroke-linecap:round; stroke-linejoin:round;">
<text x="48.3870" y="33.6550"
textLength="1.7756" font-size="1.6933" lengthAdjust="spacingAndGlyphs"
text-anchor="start" opacity="0" stroke-opacity="0">-</text>
<g class="stroked-text"><desc>-</desc>
<path d="M48.7895 33.1157
L49.7572 33.1157
" />
</g></g>
<g style="fill:none; 
stroke:#A90000; stroke-width:0.1524; stroke-opacity:1; 
stroke-linecap:round; stroke-linejoin:round;">
<text x="46.9900" y="32.7660"
textLength="1.4127" font-size="1.6933" lengthAdjust="spacingAndGlyphs"
text-anchor="middle" opacity="0" stroke-opacity="0">2</text>
<g class="stroked-text"><desc>2</desc>
<path d="M46.6272 31.4535
L46.6876 31.3930
" />
<path d="M46.6876 31.3930
L46.8086 31.3325
" />
<path d="M46.8086 31.3325
L47.1110 31.3325
" />
<path d="M47.1110 31.3325
L47.2319 31.3930
" />
<path d="M47.2319 31.3930
L47.2924 31.4535
" />
<path d="M47.2924 31.4535
L47.3529 31.5744
" />
<path d="M47.3529 31.5744
L47.3529 31.6954
" />
<path d="M47.3529 31.6954
L47.2924 31.8768
" />
<path d="M47.2924 31.8768
L46.5667 32.6025
" />
<path d="M46.5667 32.6025
L47.3529 32.6025
" />
</g></g>
<g style="fill:none; 
stroke:#840000; stroke-width:0.1524; stroke-opacity:1; 
stroke-linecap:round; stroke-linejoin:round;">
<path d="M50.8000 26.6700
L50.8000 22.8600
" />
</g>
<g style="fill:none; 
stroke:#006464; stroke-width:0.1524; stroke-opacity:1; 
stroke-linecap:round; stroke-linejoin:round;">
<g transform="rotate(-90.000000 50.8000 26.7970)">
<text x="50.8000" y="27.4320"
textLength="2.8642" font-size="1.6933" lengthAdjust="spacingAndGlyphs"
text-anchor="end" opacity="0" stroke-opacity="0">V+</text>
</g>
<g class="stroked-text"><desc>V+</desc>
<path d="M50.1095 29.4372
L51.3795 29.0139
" />
<path d="M51.3795 29.0139
L50.1095 28.5905
" />
<path d="M50.8957 28.1672
L50.8957 27.1996
" />
<path d="M51.3795 27.6834
L50.4119 27.6834
" />
</g></g>
<g style="fill:none; 
stroke:#A90000; stroke-width:0.1524; stroke-opacity:1; 
stroke-linecap:round; stroke-linejoin:round;">
<g transform="rotate(-90.000000 50.5460 24.7650)">
<text x="50.5460" y="24.7650"
textLength="1.4127" font-size="1.6933" lengthAdjust="spacingAndGlyphs"
text-anchor="middle" opacity="0" stroke-opacity="0">7</text>
</g>
<g class="stroked-text"><desc>7</desc>
<path d="M49.1125 25.1882
L49.1125 24.3416
" />
<path d="M49.1125 24.3416
L50.3825 24.8858
" />
</g></g>
<g style="fill:none; 
stroke:#840000; stroke-width:0.1524; stroke-opacity:1; 
stroke-linecap:round; stroke-linejoin:round;">
<path d="M50.8000 34.2900
L50.8000 38.1000
" />
</g>
<g style="fill:none; 
stroke:#006464; stroke-width:0.1524; stroke-opacity:1; 
stroke-linecap:round; stroke-linejoin:round;">
<g transform="rotate(-90.000000 50.8000 34.1630)">
<text x="50.8000" y="34.7980"
textLength="2.8642" font-size="1.6933" lengthAdjust="spacingAndGlyphs"
text-anchor="start" opacity="0" stroke-opacity="0">V-</text>
</g>
<g class="stroked-text"><desc>V-</desc>
<path d="M50.1095 33.9418
L51.3795 33.5185
" />
<path d="M51.3795 33.5185
L50.1095 33.0951
" />
<path d="M50.8957 32.6718
L50.8957 31.7042
" />
</g></g>
<g style="fill:none; 
stroke:#A90000; stroke-width:0.1524; stroke-opacity:1; 
stroke-linecap:round; stroke-linejoin:round;">
<g transform="rotate(-90.000000 50.5460 36.1950)">
<text x="50.5460" y="36.1950"
textLength="1.4127" font-size="1.6933" lengthAdjust="spacingAndGlyphs"
text-anchor="middle" opacity="0" stroke-opacity="0">4</text>
</g>
<g class="stroked-text"><desc>4</desc>
<path d="M49.5359 35.9530
L50.3825 35.9530
" />
<path d="M49.0521 36.2554
L49.9592 36.5577
" />
<path d="M49.9592 36.5577
L49.9592 35.7716
" />
</g></g>
<g style="fill:none; 
stroke:#840000; stroke-width:0.1524; stroke-opacity:1; 
stroke-linecap:round; stroke-linejoin:round;">
<path d="M53.3400 33.0200
L53.3400 38.1000
" />
</g>
<g style="fill:none; 
stroke:#006464; stroke-width:0.1524; stroke-opacity:1; 
stroke-linecap:round; stroke-linejoin:round;">
<g transform="rotate(-90.000000 53.3400 32.8930)">
<text x="53.3400" y="33.1470"
textLength="2.2424" font-size="0.6773" lengthAdjust="spacingAndGlyphs"
text-anchor="start" opacity="0" stroke-opacity="0">NULL</text>
</g>
<g class="stroked-text"><desc>NULL</desc>
<path d="M53.5670 32.6718
L53.0590 32.6718
" />
<path d="M53.0590 32.6718
L53.5670 32.3815
" />
<path d="M53.5670 32.3815
L53.0590 32.3815
" />
<path d="M53.0590 32.1396
L53.4703 32.1396
" />
<path d="M53.4703 32.1396
L53.5187 32.1154
" />
<path d="M53.5187 32.1154
L53.5429 32.0912
" />
<path d="M53.5429 32.0912
L53.5670 32.0428
" />
<path d="M53.5670 32.0428
L53.5670 31.9461
" />
<path d="M53.5670 31.9461
L53.5429 31.8977
" />
<path d="M53.5429 31.8977
L53.5187 31.8735
" />
<path d="M53.5187 31.8735
L53.4703 31.8493
" />
<path d="M53.4703 31.8493
L53.0590 31.8493
" />
<path d="M53.5670 31.3655
L53.5670 31.6074
" />
<path d="M53.5670 31.6074
L53.0590 31.6074
" />
<path d="M53.5670 30.9543
L53.5670 31.1962
" />
<path d="M53.5670 31.1962
L53.0590 31.1962
" />
</g></g>
<g style="fill:none; 
stroke:#A90000; stroke-width:0.1524; stroke-opacity:1; 
stroke-linecap:round; stroke-linejoin:round;">
<g transform="rotate(-90.000000 53.0860 35.5600)">
<text x="53.0860" y="35.5600"
textLength="1.4127" font-size="1.6933" lengthAdjust="spacingAndGlyphs"
text-anchor="middle" opacity="0" stroke-opacity="0">1</text>
</g>
<g class="stroked-text"><desc>1</desc>
<path d="M52.9225 35.1970
L52.9225 35.9227
" />
<path d="M52.9225 35.5599
L51.6525 35.5599
" />
<path d="M51.6525 35.5599
L51.8340 35.6808
" />
<path d="M51.8340 35.6808
L51.9549 35.8018
" />
<path d="M51.9549 35.8018
L52.0154 35.9227
" />
</g></g>
<g style="fill:none; 
stroke:#840000; stroke-width:0.1524; stroke-opacity:1; 
stroke-linecap:round; stroke-linejoin:round;">
<path d="M55.8800 31.7500
L55.8800 38.1000
" />
</g>
<g style="fill:none; 
stroke:#006464; stroke-width:0.1524; stroke-opacity:1; 
stroke-linecap:round; stroke-linejoin:round;">
<g transform="rotate(-90.000000 55.8800 31.6230)">
<text x="55.8800" y="31.8770"
textLength="2.2424" font-size="0.6773" lengthAdjust="spacingAndGlyphs"
text-anchor="start" opacity="0" stroke-opacity="0">NULL</text>
</g>
<g class="stroked-text"><desc>NULL</desc>
<path d="M56.1070 31.4018
L55.5990 31.4018
" />
<path d="M55.5990 31.4018
L56.1070 31.1115
" />
<path d="M56.1070 31.1115
L55.5990 31.1115
" />
<path d="M55.5990 30.8696
L56.0103 30.8696
" />
<path d="M56.0103 30.8696
L56.0587 30.8454
" />
<path d="M56.0587 30.8454
L56.0829 30.8212
" />
<path d="M56.0829 30.8212
L56.1070 30.7728
" />
<path d="M56.1070 30.7728
L56.1070 30.6761
" />
<path d="M56.1070 30.6761
L56.0829 30.6277
" />
<path d="M56.0829 30.6277
L56.0587 30.6035
" />
<path d="M56.0587 30.6035
L56.0103 30.5793
" />
<path d="M56.0103 30.5793
L55.5990 30.5793
" />
<path d="M56.1070 30.0955
L56.1070 30.3374
" />
<path d="M56.1070 30.3374
L55.5990 30.3374
" />
<path d="M56.1070 29.6843
L56.1070 29.9262
" />
<path d="M56.1070 29.9262
L55.5990 29.9262
" />
</g></g>
<g style="fill:none; 
stroke:#A90000; stroke-width:0.1524; stroke-opacity:1; 
stroke-linecap:round; stroke-linejoin:round;">
<g transform="rotate(-90.000000 55.6260 34.9250)">
<text x="55.6260" y="34.9250"
textLength="1.4127" font-size="1.6933" lengthAdjust="spacingAndGlyphs"
text-anchor="middle" opacity="0" stroke-opacity="0">5</text>
</g>
<g class="stroked-text"><desc>5</desc>
<path d="M54.1925 34.6225
L54.1925 35.2273
" />
<path d="M54.1925 35.2273
L54.7973 35.2877
" />
<path d="M54.7973 35.2877
L54.7368 35.2273
" />
<path d="M54.7368 35.2273
L54.6763 35.1063
" />
<path d="M54.6763 35.1063
L54.6763 34.8039
" />
<path d="M54.6763 34.8039
L54.7368 34.6830
" />
<path d="M54.7368 34.6830
L54.7973 34.6225
" />
<path d="M54.7973 34.6225
L54.9182 34.5620
" />
<path d="M54.9182 34.5620
L55.2206 34.5620
" />
<path d="M55.2206 34.5620
L55.3416 34.6225
" />
<path d="M55.3416 34.6225
L55.4021 34.6830
" />
<path d="M55.4021 34.6830
L55.4625 34.8039
" />
<path d="M55.4625 34.8039
L55.4625 35.1063
" />
<path d="M55.4625 35.1063
L55.4021 35.2273
" />
<path d="M55.4021 35.2273
L55.3416 35.2877
" />
</g></g>
<g style="fill:none; 
stroke:#840000; stroke-width:0.1524; stroke-opacity:1; 
stroke-linecap:round; stroke-linejoin:round;">
<path d="M58.4200 30.4800
L60.9600 30.4800
" />
</g>
<g style="fill:none; 
stroke:#A90000; stroke-width:0.1524; stroke-opacity:1; 
stroke-linecap:round; stroke-linejoin:round;">
<text x="59.6900" y="30.2260"
textLength="1.4127" font-size="1.6933" lengthAdjust="spacingAndGlyphs"
text-anchor="middle" opacity="0" stroke-opacity="0">6</text>
<g class="stroked-text"><desc>6</desc>
<path d="M59.9319 28.7925
L59.6900 28.7925
" />
<path d="M59.6900 28.7925
L59.5691 28.8530
" />
<path d="M59.5691 28.8530
L59.5086 28.9135
" />
<path d="M59.5086 28.9135
L59.3876 29.0949
" />
<path d="M59.3876 29.0949
L59.3272 29.3368
" />
<path d="M59.3272 29.3368
L59.3272 29.8206
" />
<path d="M59.3272 29.8206
L59.3876 29.9416
" />
<path d="M59.3876 29.9416
L59.4481 30.0021
" />
<path d="M59.4481 30.0021
L59.5691 30.0625
" />
<path d="M59.5691 30.0625
L59.8110 30.0625
" />
<path d="M59.8110 30.0625
L59.9319 30.0021
" />
<path d="M59.9319 30.0021
L59.9924 29.9416
" />
<path d="M59.9924 29.9416
L60.0529 29.8206
" />
<path d="M60.0529 29.8206
L60.0529 29.5182
" />
<path d="M60.0529 29.5182
L59.9924 29.3973
" />
<path d="M59.9924 29.3973
L59.9319 29.3368
" />
<path d="M59.9319 29.3368
L59.8110 29.2763
" />
<path d="M59.8110 29.2763
L59.5691 29.2763
" />
<path d="M59.5691 29.2763
L59.4481 29.3368
" />
<path d="M59.4481 29.3368
L59.3876 29.3973
" />
<path d="M59.3876 29.3973
L59.3272 29.5182
" />
</g></g>
<g style="fill:none; 
stroke:#006464; stroke-width:0.1524; stroke-opacity:1; 
stroke-linecap:round; stroke-linejoin:round;">
<text x="53.8480" y="25.0190"
textLength="2.7432" font-size="1.6933" lengthAdjust="spacingAndGlyphs"
text-anchor="middle" opacity="0" stroke-opacity="0">U1</text>
<g class="stroked-text"><desc>U1</desc>
<path d="M52.8803 23.6935
L52.8803 24.7216
" />
<path d="M52.8803 24.7216
L52.9408 24.8426
" />
<path d="M52.9408 24.8426
L53.0013 24.9031
" />
<path d="M53.0013 24.9031
L53.1222 24.9635
" />
<path d="M53.1222 24.9635
L53.3641 24.9635
" />
<path d="M53.3641 24.9635
L53.4851 24.9031
" />
<path d="M53.4851 24.9031
L53.5456 24.8426
" />
<path d="M53.5456 24.8426
L53.6060 24.7216
" />
<path d="M53.6060 24.7216
L53.6060 23.6935
" />
<path d="M54.8761 24.9635
L54.1504 24.9635
" />
<path d="M54.5132 24.9635
L54.5132 23.6935
" />
<path d="M54.5132 23.6935
L54.3923 23.8750
" />
<path d="M54.3923 23.8750
L54.2713 23.9959
" />
<path d="M54.2713 23.9959
L54.1504 24.0564
" />
</g><text x="55.6260" y="27.0510"
textLength="6.3112" font-size="1.6933" lengthAdjust="spacingAndGlyphs"
text-anchor="middle" opacity="0" stroke-opacity="0">LM741</text>
<g class="stroked-text"><desc>LM741</desc>
<path d="M53.4791 26.9955
L52.8743 26.9955
" />
<path d="M52.8743 26.9955
L52.8743 25.7255
" />
<path d="M53.9024 26.9955
L53.9024 25.7255
" />
<path d="M53.9024 25.7255
L54.3258 26.6327
" />
<path d="M54.3258 26.6327
L54.7491 25.7255
" />
<path d="M54.7491 25.7255
L54.7491 26.9955
" />
<path d="M55.2329 25.7255
L56.0795 25.7255
" />
<path d="M56.0795 25.7255
L55.5353 26.9955
" />
<path d="M57.1076 26.1489
L57.1076 26.9955
" />
<path d="M56.8052 25.6651
L56.5029 26.5722
" />
<path d="M56.5029 26.5722
L57.2890 26.5722
" />
<path d="M58.4381 26.9955
L57.7124 26.9955
" />
<path d="M58.0752 26.9955
L58.0752 25.7255
" />
<path d="M58.0752 25.7255
L57.9543 25.9070
" />
<path d="M57.9543 25.9070
L57.8333 26.0279
" />
<path d="M57.8333 26.0279
L57.7124 26.0884
" />
</g></g>
<g style="fill:#FFFFC2; fill-opacity:1.0000; stroke:none;">
<circle cx="20.3200" cy="43.1800" r="2.5400" /> 
<path style="fill:none; 
stroke:#840000; stroke-width:0.1524; stroke-opacity:1; 
stroke-linecap:round; stroke-linejoin:round;fill:none"
d="M 19.0500,42.9260
21.5900,42.9260
" /> 
<path style="fill:none; 
stroke:#840000; stroke-width:0.1524; stroke-opacity:1; 
stroke-linecap:round; stroke-linejoin:round;fill:none"
d="M 19.5580,43.4340
19.0500,43.4340
" /> 
<path style="fill:none; 
stroke:#840000; stroke-width:0.1524; stroke-opacity:1; 
stroke-linecap:round; stroke-linejoin:round;fill:none"
d="M 20.5740,43.4340
20.0660,43.4340
" /> 
<path style="fill:none; 
stroke:#840000; stroke-width:0.1524; stroke-opacity:1; 
stroke-linecap:round; stroke-linejoin:round;fill:none"
d="M 21.5900,43.4340
21.0820,43.4340
" /> 
</g>
<g style="fill:none; 
stroke:#840000; stroke-width:0.2540; stroke-opacity:1; 
stroke-linecap:round; stroke-linejoin:round;">
<circle cx="20.3200" cy="43.1800" r="2.5400" /> 
</g>
<g style="fill:none; 
stroke:#840000; stroke-width:0.1524; stroke-opacity:1; 
stroke-linecap:round; stroke-linejoin:round;">
<text x="20.3200" y="41.9100"
textLength="1.7756" font-size="1.6933" lengthAdjust="spacingAndGlyphs"
text-anchor="middle" opacity="0" stroke-opacity="0">+</text>
<g class="stroked-text"><desc>+</desc>
<path d="M19.8361 41.3707
L20.8038 41.3707
" />
<path d="M20.3199 41.8545
L20.3199 40.8869
" />
</g><path d="M20.3200 40.6400
L20.3200 38.1000
" />
<path d="M20.3200 45.7200
L20.3200 48.2600
" />
</g>
<g style="fill:none; 
stroke:#006464; stroke-width:0.1524; stroke-opacity:1; 
stroke-linecap:round; stroke-linejoin:round;">
<text x="25.3902" y="42.4151"
textLength="2.5013" font-size="1.6933" lengthAdjust="spacingAndGlyphs"
text-anchor="middle" opacity="0" stroke-opacity="0">V1</text>
<g class="stroked-text"><desc>V1</desc>
<path d="M24.3621 41.0896
L24.7854 42.3596
" />
<path d="M24.7854 42.3596
L25.2088 41.0896
" />
<path d="M26.2974 42.3596
L25.5717 42.3596
" />
<path d="M25.9345 42.3596
L25.9345 41.0896
" />
<path d="M25.9345 41.0896
L25.8136 41.2711
" />
<path d="M25.8136 41.2711
L25.6926 41.3920
" />
<path d="M25.6926 41.3920
L25.5717 41.4525
" />
</g><text x="25.3902" y="44.9551"
textLength="2.5013" font-size="1.6933" lengthAdjust="spacingAndGlyphs"
text-anchor="middle" opacity="0" stroke-opacity="0">2V</text>
<g class="stroked-text"><desc>2V</desc>
<path d="M24.4831 43.7506
L24.5435 43.6901
" />
<path d="M24.5435 43.6901
L24.6645 43.6296
" />
<path d="M24.6645 43.6296
L24.9669 43.6296
" />
<path d="M24.9669 43.6296
L25.0878 43.6901
" />
<path d="M25.0878 43.6901
L25.1483 43.7506
" />
<path d="M25.1483 43.7506
L25.2088 43.8715
" />
<path d="M25.2088 43.8715
L25.2088 43.9925
" />
<path d="M25.2088 43.9925
L25.1483 44.1739
" />
<path d="M25.1483 44.1739
L24.4226 44.8996
" />
<path d="M24.4226 44.8996
L25.2088 44.8996
" />
<path d="M25.5716 43.6296
L25.9949 44.8996
" />
<path d="M25.9949 44.8996
L26.4183 43.6296
" />
</g></g>
<g style="fill:none; 
stroke:#840000; stroke-width:0.2540; stroke-opacity:1; 
stroke-linecap:round; stroke-linejoin:round;">
<rect x="75.184000" y="43.180000" width="2.032000" height="5.080000" rx="0.000000" />
</g>
<g style="fill:none; 
stroke:#840000; stroke-width:0.1524; stroke-opacity:1; 
stroke-linecap:round; stroke-linejoin:round;">
<path d="M76.2000 48.2600
L76.2000 49.5300
" />
<path d="M76.2000 43.1800
L76.2000 41.9100
" />
</g>
<g style="fill:none; 
stroke:#006464; stroke-width:0.1524; stroke-opacity:1; 
stroke-linecap:round; stroke-linejoin:round;">
<text x="73.4059" y="44.5769"
textLength="2.6827" font-size="1.6933" lengthAdjust="spacingAndGlyphs"
text-anchor="middle" opacity="0" stroke-opacity="0">R1</text>
<g class="stroked-text"><desc>R1</desc>
<path d="M73.1942 44.5214
L72.7709 43.9167
" />
<path d="M72.4685 44.5214
L72.4685 43.2514
" />
<path d="M72.4685 43.2514
L72.9523 43.2514
" />
<path d="M72.9523 43.2514
L73.0733 43.3119
" />
<path d="M73.0733 43.3119
L73.1338 43.3724
" />
<path d="M73.1338 43.3724
L73.1942 43.4933
" />
<path d="M73.1942 43.4933
L73.1942 43.6748
" />
<path d="M73.1942 43.6748
L73.1338 43.7957
" />
<path d="M73.1338 43.7957
L73.0733 43.8562
" />
<path d="M73.0733 43.8562
L72.9523 43.9167
" />
<path d="M72.9523 43.9167
L72.4685 43.9167
" />
<path d="M74.4038 44.5214
L73.6781 44.5214
" />
<path d="M74.0409 44.5214
L74.0409 43.2514
" />
<path d="M74.0409 43.2514
L73.9200 43.4329
" />
<path d="M73.9200 43.4329
L73.7990 43.5538
" />
<path d="M73.7990 43.5538
L73.6781 43.6143
" />
</g><text x="72.6439" y="46.3549"
textLength="4.2551" font-size="1.6933" lengthAdjust="spacingAndGlyphs"
text-anchor="middle" opacity="0" stroke-opacity="0">5.6k</text>
<g class="stroked-text"><desc>5.6k</desc>
<path d="M71.5251 45.0294
L70.9203 45.0294
" />
<path d="M70.9203 45.0294
L70.8599 45.6342
" />
<path d="M70.8599 45.6342
L70.9203 45.5737
" />
<path d="M70.9203 45.5737
L71.0413 45.5132
" />
<path d="M71.0413 45.5132
L71.3437 45.5132
" />
<path d="M71.3437 45.5132
L71.4646 45.5737
" />
<path d="M71.4646 45.5737
L71.5251 45.6342
" />
<path d="M71.5251 45.6342
L71.5856 45.7551
" />
<path d="M71.5856 45.7551
L71.5856 46.0575
" />
<path d="M71.5856 46.0575
L71.5251 46.1785
" />
<path d="M71.5251 46.1785
L71.4646 46.2390
" />
<path d="M71.4646 46.2390
L71.3437 46.2994
" />
<path d="M71.3437 46.2994
L71.0413 46.2994
" />
<path d="M71.0413 46.2994
L70.9203 46.2390
" />
<path d="M70.9203 46.2390
L70.8599 46.1785
" />
<path d="M72.1298 46.1785
L72.1903 46.2390
" />
<path d="M72.1903 46.2390
L72.1298 46.2994
" />
<path d="M72.1298 46.2994
L72.0694 46.2390
" />
<path d="M72.0694 46.2390
L72.1298 46.1785
" />
<path d="M72.1298 46.1785
L72.1298 46.2994
" />
<path d="M73.2789 45.0294
L73.0370 45.0294
" />
<path d="M73.0370 45.0294
L72.9161 45.0899
" />
<path d="M72.9161 45.0899
L72.8556 45.1504
" />
<path d="M72.8556 45.1504
L72.7346 45.3318
" />
<path d="M72.7346 45.3318
L72.6742 45.5737
" />
<path d="M72.6742 45.5737
L72.6742 46.0575
" />
<path d="M72.6742 46.0575
L72.7346 46.1785
" />
<path d="M72.7346 46.1785
L72.7951 46.2390
" />
<path d="M72.7951 46.2390
L72.9161 46.2994
" />
<path d="M72.9161 46.2994
L73.1580 46.2994
" />
<path d="M73.1580 46.2994
L73.2789 46.2390
" />
<path d="M73.2789 46.2390
L73.3394 46.1785
" />
<path d="M73.3394 46.1785
L73.3999 46.0575
" />
<path d="M73.3999 46.0575
L73.3999 45.7551
" />
<path d="M73.3999 45.7551
L73.3394 45.6342
" />
<path d="M73.3394 45.6342
L73.2789 45.5737
" />
<path d="M73.2789 45.5737
L73.1580 45.5132
" />
<path d="M73.1580 45.5132
L72.9161 45.5132
" />
<path d="M72.9161 45.5132
L72.7951 45.5737
" />
<path d="M72.7951 45.5737
L72.7346 45.6342
" />
<path d="M72.7346 45.6342
L72.6742 45.7551
" />
<path d="M73.9441 46.2994
L73.9441 45.0294
" />
<path d="M74.0651 45.8156
L74.4279 46.2994
" />
<path d="M74.4279 45.4528
L73.9441 45.9366
" />
</g></g>
<g style="fill:none; 
stroke:#840000; stroke-width:0.2540; stroke-opacity:1; 
stroke-linecap:round; stroke-linejoin:round;">
<rect x="29.210000" y="32.004000" width="5.080000" height="2.032000" rx="0.000000" />
</g>
<g style="fill:none; 
stroke:#840000; stroke-width:0.1524; stroke-opacity:1; 
stroke-linecap:round; stroke-linejoin:round;">
<path d="M34.2900 33.0200
L35.5600 33.0200
" />
<path d="M29.2100 33.0200
L27.9400 33.0200
" />
</g>
<g style="fill:none; 
stroke:#006464; stroke-width:0.1524; stroke-opacity:1; 
stroke-linecap:round; stroke-linejoin:round;">
<text x="29.9720" y="36.4490"
textLength="2.6827" font-size="1.6933" lengthAdjust="spacingAndGlyphs"
text-anchor="middle" opacity="0" stroke-opacity="0">R2</text>
<g class="stroked-text"><desc>R2</desc>
<path d="M29.7603 36.3935
L29.3370 35.7888
" />
<path d="M29.0346 36.3935
L29.0346 35.1235
" />
<path d="M29.0346 35.1235
L29.5184 35.1235
" />
<path d="M29.5184 35.1235
L29.6394 35.1840
" />
<path d="M29.6394 35.1840
L29.6999 35.2445
" />
<path d="M29.6999 35.2445
L29.7603 35.3654
" />
<path d="M29.7603 35.3654
L29.7603 35.5469
" />
<path d="M29.7603 35.5469
L29.6999 35.6678
" />
<path d="M29.6999 35.6678
L29.6394 35.7283
" />
<path d="M29.6394 35.7283
L29.5184 35.7888
" />
<path d="M29.5184 35.7888
L29.0346 35.7888
" />
<path d="M30.2442 35.2445
L30.3046 35.1840
" />
<path d="M30.3046 35.1840
L30.4256 35.1235
" />
<path d="M30.4256 35.1235
L30.7280 35.1235
" />
<path d="M30.7280 35.1235
L30.8489 35.1840
" />
<path d="M30.8489 35.1840
L30.9094 35.2445
" />
<path d="M30.9094 35.2445
L30.9699 35.3654
" />
<path d="M30.9699 35.3654
L30.9699 35.4864
" />
<path d="M30.9699 35.4864
L30.9094 35.6678
" />
<path d="M30.9094 35.6678
L30.1837 36.3935
" />
<path d="M30.1837 36.3935
L30.9699 36.3935
" />
</g><text x="29.7180" y="38.2270"
textLength="2.4408" font-size="1.6933" lengthAdjust="spacingAndGlyphs"
text-anchor="middle" opacity="0" stroke-opacity="0">1k</text>
<g class="stroked-text"><desc>1k</desc>
<path d="M29.5668 38.1715
L28.8411 38.1715
" />
<path d="M29.2039 38.1715
L29.2039 36.9015
" />
<path d="M29.2039 36.9015
L29.0830 37.0830
" />
<path d="M29.0830 37.0830
L28.9620 37.2039
" />
<path d="M28.9620 37.2039
L28.8411 37.2644
" />
<path d="M30.1110 38.1715
L30.1110 36.9015
" />
<path d="M30.2320 37.6877
L30.5948 38.1715
" />
<path d="M30.5948 37.3249
L30.1110 37.8087
" />
</g><path style="fill:none; 
stroke:#840000; stroke-width:0.1524; stroke-opacity:1; 
stroke-linecap:round; stroke-linejoin:round;fill:none"
d="M 135.8900,40.6400
134.6200,40.6400
134.6200,41.9100
133.3500,40.6400
134.6200,39.3700
134.6200,40.6400
" /> 
</g>
<g style="fill:none; 
stroke:#840000; stroke-width:0.1524; stroke-opacity:1; 
stroke-linecap:round; stroke-linejoin:round;">
<path d="M135.8900 40.6400
L135.8900 40.6400
" />
</g>
<g style="fill:none; 
stroke:#006464; stroke-width:0.1524; stroke-opacity:1; 
stroke-linecap:round; stroke-linejoin:round;">
<text x="130.1848" y="41.2749"
textLength="3.7712" font-size="1.6933" lengthAdjust="spacingAndGlyphs"
text-anchor="middle" opacity="0" stroke-opacity="0">Gnd</text>
<g class="stroked-text"><desc>Gnd</desc>
<path d="M129.3684 40.0099
L129.2474 39.9494
" />
<path d="M129.2474 39.9494
L129.0660 39.9494
" />
<path d="M129.0660 39.9494
L128.8846 40.0099
" />
<path d="M128.8846 40.0099
L128.7636 40.1309
" />
<path d="M128.7636 40.1309
L128.7031 40.2518
" />
<path d="M128.7031 40.2518
L128.6427 40.4937
" />
<path d="M128.6427 40.4937
L128.6427 40.6751
" />
<path d="M128.6427 40.6751
L128.7031 40.9170
" />
<path d="M128.7031 40.9170
L128.7636 41.0380
" />
<path d="M128.7636 41.0380
L128.8846 41.1590
" />
<path d="M128.8846 41.1590
L129.0660 41.2194
" />
<path d="M129.0660 41.2194
L129.1869 41.2194
" />
<path d="M129.1869 41.2194
L129.3684 41.1590
" />
<path d="M129.3684 41.1590
L129.4288 41.0985
" />
<path d="M129.4288 41.0985
L129.4288 40.6751
" />
<path d="M129.4288 40.6751
L129.1869 40.6751
" />
<path d="M129.9731 40.3728
L129.9731 41.2194
" />
<path d="M129.9731 40.4937
L130.0336 40.4332
" />
<path d="M130.0336 40.4332
L130.1546 40.3728
" />
<path d="M130.1546 40.3728
L130.3360 40.3728
" />
<path d="M130.3360 40.3728
L130.4569 40.4332
" />
<path d="M130.4569 40.4332
L130.5174 40.5542
" />
<path d="M130.5174 40.5542
L130.5174 41.2194
" />
<path d="M131.6664 41.2194
L131.6664 39.9494
" />
<path d="M131.6664 41.1590
L131.5455 41.2194
" />
<path d="M131.5455 41.2194
L131.3036 41.2194
" />
<path d="M131.3036 41.2194
L131.1826 41.1590
" />
<path d="M131.1826 41.1590
L131.1221 41.0985
" />
<path d="M131.1221 41.0985
L131.0617 40.9775
" />
<path d="M131.0617 40.9775
L131.0617 40.6147
" />
<path d="M131.0617 40.6147
L131.1221 40.4937
" />
<path d="M131.1221 40.4937
L131.1826 40.4332
" />
<path d="M131.1826 40.4332
L131.3036 40.3728
" />
<path d="M131.3036 40.3728
L131.5455 40.3728
" />
<path d="M131.5455 40.3728
L131.6664 40.4332
" />
</g><path style="fill:none; 
stroke:#840000; stroke-width:0.1524; stroke-opacity:1; 
stroke-linecap:round; stroke-linejoin:round;fill:none"
d="M 134.6200,33.0200
133.3500,33.0200
132.7150,34.0360
132.0800,33.0200
132.7150,32.0040
133.3500,33.0200
" /> 
</g>
<g style="fill:none; 
stroke:#840000; stroke-width:0.1524; stroke-opacity:1; 
stroke-linecap:round; stroke-linejoin:round;">
<path d="M134.6200 33.0200
L134.6200 33.0200
" />
</g>
<g style="fill:none; 
stroke:#006464; stroke-width:0.1524; stroke-opacity:1; 
stroke-linecap:round; stroke-linejoin:round;">
<text x="128.9450" y="33.6548"
textLength="3.7108" font-size="1.6933" lengthAdjust="spacingAndGlyphs"
text-anchor="middle" opacity="0" stroke-opacity="0">15V</text>
<g class="stroked-text"><desc>15V</desc>
<path d="M128.1588 33.5993
L127.4331 33.5993
" />
<path d="M127.7959 33.5993
L127.7959 32.3293
" />
<path d="M127.7959 32.3293
L127.6750 32.5108
" />
<path d="M127.6750 32.5108
L127.5540 32.6317
" />
<path d="M127.5540 32.6317
L127.4331 32.6922
" />
<path d="M129.3078 32.3293
L128.7030 32.3293
" />
<path d="M128.7030 32.3293
L128.6426 32.9341
" />
<path d="M128.6426 32.9341
L128.7030 32.8736
" />
<path d="M128.7030 32.8736
L128.8240 32.8131
" />
<path d="M128.8240 32.8131
L129.1264 32.8131
" />
<path d="M129.1264 32.8131
L129.2473 32.8736
" />
<path d="M129.2473 32.8736
L129.3078 32.9341
" />
<path d="M129.3078 32.9341
L129.3683 33.0550
" />
<path d="M129.3683 33.0550
L129.3683 33.3574
" />
<path d="M129.3683 33.3574
L129.3078 33.4784
" />
<path d="M129.3078 33.4784
L129.2473 33.5389
" />
<path d="M129.2473 33.5389
L129.1264 33.5993
" />
<path d="M129.1264 33.5993
L128.8240 33.5993
" />
<path d="M128.8240 33.5993
L128.7030 33.5389
" />
<path d="M128.7030 33.5389
L128.6426 33.4784
" />
<path d="M129.7311 32.3293
L130.1544 33.5993
" />
<path d="M130.1544 33.5993
L130.5778 32.3293
" />
</g><path style="fill:none; 
stroke:#840000; stroke-width:0.1524; stroke-opacity:1; 
stroke-linecap:round; stroke-linejoin:round;fill:none"
d="M 137.1600,43.1800
138.4300,43.1800
139.0650,42.1640
139.7000,43.1800
139.0650,44.1960
138.4300,43.1800
" /> 
</g>
<g style="fill:none; 
stroke:#840000; stroke-width:0.1524; stroke-opacity:1; 
stroke-linecap:round; stroke-linejoin:round;">
<path d="M137.1600 43.1800
L137.1600 43.1800
" />
</g>
<g style="fill:none; 
stroke:#006464; stroke-width:0.1524; stroke-opacity:1; 
stroke-linecap:round; stroke-linejoin:round;">
<text x="142.2302" y="43.8149"
textLength="2.5013" font-size="1.6933" lengthAdjust="spacingAndGlyphs"
text-anchor="middle" opacity="0" stroke-opacity="0">0V</text>
<g class="stroked-text"><desc>0V</desc>
<path d="M141.6254 42.4894
L141.7464 42.4894
" />
<path d="M141.7464 42.4894
L141.8673 42.5499
" />
<path d="M141.8673 42.5499
L141.9278 42.6104
" />
<path d="M141.9278 42.6104
L141.9883 42.7313
" />
<path d="M141.9883 42.7313
L142.0488 42.9732
" />
<path d="M142.0488 42.9732
L142.0488 43.2756
" />
<path d="M142.0488 43.2756
L141.9883 43.5175
" />
<path d="M141.9883 43.5175
L141.9278 43.6385
" />
<path d="M141.9278 43.6385
L141.8673 43.6990
" />
<path d="M141.8673 43.6990
L141.7464 43.7594
" />
<path d="M141.7464 43.7594
L141.6254 43.7594
" />
<path d="M141.6254 43.7594
L141.5045 43.6990
" />
<path d="M141.5045 43.6990
L141.4440 43.6385
" />
<path d="M141.4440 43.6385
L141.3835 43.5175
" />
<path d="M141.3835 43.5175
L141.3231 43.2756
" />
<path d="M141.3231 43.2756
L141.3231 42.9732
" />
<path d="M141.3231 42.9732
L141.3835 42.7313
" />
<path d="M141.3835 42.7313
L141.4440 42.6104
" />
<path d="M141.4440 42.6104
L141.5045 42.5499
" />
<path d="M141.5045 42.5499
L141.6254 42.4894
" />
<path d="M142.4116 42.4894
L142.8349 43.7594
" />
<path d="M142.8349 43.7594
L143.2583 42.4894
" />
</g></g>
<g style="fill:#FFFFC2; fill-opacity:1.0000; stroke:none;">
<rect x="140.970000" y="34.290000" width="2.540000" height="5.080000" rx="0.000000" />
</g>
<g style="fill:none; 
stroke:#840000; stroke-width:0.2540; stroke-opacity:1; 
stroke-linecap:round; stroke-linejoin:round;">
<rect x="140.970000" y="34.290000" width="2.540000" height="5.080000" rx="0.000000" />
<path style="fill:none; 
stroke:#840000; stroke-width:0.1524; stroke-opacity:1; 
stroke-linecap:round; stroke-linejoin:round;fill:none"
d="M 141.7066,35.2298
142.5702,36.0680
" /> 
<path style="fill:none; 
stroke:#840000; stroke-width:0.1524; stroke-opacity:1; 
stroke-linecap:round; stroke-linejoin:round;fill:none"
d="M 141.7066,37.7698
142.5702,38.6080
" /> 
<path style="fill:none; 
stroke:#840000; stroke-width:0.1524; stroke-opacity:1; 
stroke-linecap:round; stroke-linejoin:round;fill:none"
d="M 141.8844,35.0520
142.7480,35.8902
" /> 
<path style="fill:none; 
stroke:#840000; stroke-width:0.1524; stroke-opacity:1; 
stroke-linecap:round; stroke-linejoin:round;fill:none"
d="M 141.8844,37.5920
142.7480,38.4302
" /> 
</g>
<g style="fill:none; 
stroke:#840000; stroke-width:0.1524; stroke-opacity:1; 
stroke-linecap:round; stroke-linejoin:round;">
<circle cx="142.2400" cy="35.5600" r="0.6350" /> 
<circle cx="142.2400" cy="38.1000" r="0.6350" /> 
<path d="M140.9700 35.5600
L137.1600 35.5600
" />
</g>
<g style="fill:none; 
stroke:#A90000; stroke-width:0.1524; stroke-opacity:1; 
stroke-linecap:round; stroke-linejoin:round;">
<text x="139.0650" y="35.3060"
textLength="1.4127" font-size="1.6933" lengthAdjust="spacingAndGlyphs"
text-anchor="middle" opacity="0" stroke-opacity="0">1</text>
<g class="stroked-text"><desc>1</desc>
<path d="M139.4279 35.1425
L138.7022 35.1425
" />
<path d="M139.0650 35.1425
L139.0650 33.8725
" />
<path d="M139.0650 33.8725
L138.9441 34.0540
" />
<path d="M138.9441 34.0540
L138.8231 34.1749
" />
<path d="M138.8231 34.1749
L138.7022 34.2354
" />
</g></g>
<g style="fill:none; 
stroke:#840000; stroke-width:0.1524; stroke-opacity:1; 
stroke-linecap:round; stroke-linejoin:round;">
<path d="M140.9700 38.1000
L137.1600 38.1000
" />
</g>
<g style="fill:none; 
stroke:#A90000; stroke-width:0.1524; stroke-opacity:1; 
stroke-linecap:round; stroke-linejoin:round;">
<text x="139.0650" y="37.8460"
textLength="1.4127" font-size="1.6933" lengthAdjust="spacingAndGlyphs"
text-anchor="middle" opacity="0" stroke-opacity="0">2</text>
<g class="stroked-text"><desc>2</desc>
<path d="M138.7022 36.5335
L138.7626 36.4730
" />
<path d="M138.7626 36.4730
L138.8836 36.4125
" />
<path d="M138.8836 36.4125
L139.1860 36.4125
" />
<path d="M139.1860 36.4125
L139.3069 36.4730
" />
<path d="M139.3069 36.4730
L139.3674 36.5335
" />
<path d="M139.3674 36.5335
L139.4279 36.6544
" />
<path d="M139.4279 36.6544
L139.4279 36.7754
" />
<path d="M139.4279 36.7754
L139.3674 36.9568
" />
<path d="M139.3674 36.9568
L138.6417 37.6825
" />
<path d="M138.6417 37.6825
L139.4279 37.6825
" />
</g></g>
<g style="fill:none; 
stroke:#006464; stroke-width:0.1524; stroke-opacity:1; 
stroke-linecap:round; stroke-linejoin:round;">
<text x="145.9797" y="36.1949"
textLength="2.3803" font-size="1.6933" lengthAdjust="spacingAndGlyphs"
text-anchor="middle" opacity="0" stroke-opacity="0">J1</text>
<g class="stroked-text"><desc>J1</desc>
<path d="M145.5564 34.8694
L145.5564 35.7766
" />
<path d="M145.5564 35.7766
L145.4959 35.9580
" />
<path d="M145.4959 35.9580
L145.3750 36.0790
" />
<path d="M145.3750 36.0790
L145.1935 36.1394
" />
<path d="M145.1935 36.1394
L145.0726 36.1394
" />
<path d="M146.8264 36.1394
L146.1007 36.1394
" />
<path d="M146.4635 36.1394
L146.4635 34.8694
" />
<path d="M146.4635 34.8694
L146.3426 35.0509
" />
<path d="M146.3426 35.0509
L146.2216 35.1718
" />
<path d="M146.2216 35.1718
L146.1007 35.2323
" />
</g><text x="146.6450" y="38.7349"
textLength="3.7108" font-size="1.6933" lengthAdjust="spacingAndGlyphs"
text-anchor="middle" opacity="0" stroke-opacity="0">15V</text>
<g class="stroked-text"><desc>15V</desc>
<path d="M145.8588 38.6794
L145.1331 38.6794
" />
<path d="M145.4959 38.6794
L145.4959 37.4094
" />
<path d="M145.4959 37.4094
L145.3750 37.5909
" />
<path d="M145.3750 37.5909
L145.2540 37.7118
" />
<path d="M145.2540 37.7118
L145.1331 37.7723
" />
<path d="M147.0078 37.4094
L146.4030 37.4094
" />
<path d="M146.4030 37.4094
L146.3426 38.0142
" />
<path d="M146.3426 38.0142
L146.4030 37.9537
" />
<path d="M146.4030 37.9537
L146.5240 37.8932
" />
<path d="M146.5240 37.8932
L146.8264 37.8932
" />
<path d="M146.8264 37.8932
L146.9473 37.9537
" />
<path d="M146.9473 37.9537
L147.0078 38.0142
" />
<path d="M147.0078 38.0142
L147.0683 38.1351
" />
<path d="M147.0683 38.1351
L147.0683 38.4375
" />
<path d="M147.0683 38.4375
L147.0078 38.5585
" />
<path d="M147.0078 38.5585
L146.9473 38.6190
" />
<path d="M146.9473 38.6190
L146.8264 38.6794
" />
<path d="M146.8264 38.6794
L146.5240 38.6794
" />
<path d="M146.5240 38.6794
L146.4030 38.6190
" />
<path d="M146.4030 38.6190
L146.3426 38.5585
" />
<path d="M147.4311 37.4094
L147.8544 38.6794
" />
<path d="M147.8544 38.6794
L148.2778 37.4094
" />
</g></g>
<g style="fill:none; 
stroke:#840000; stroke-width:0.1524; stroke-opacity:1; 
stroke-linecap:round; stroke-linejoin:round;">
<g transform="rotate(-90.000000 137.2508 26.5112)">
<text x="137.2508" y="27.1462"
textLength="3.4690" font-size="1.6933" lengthAdjust="spacingAndGlyphs"
text-anchor="start" opacity="0" stroke-opacity="0">Vcc</text>
</g>
<g class="stroked-text"><desc>Vcc</desc>
<path d="M136.5603 26.2900
L137.8303 25.8667
" />
<path d="M137.8303 25.8667
L136.5603 25.4433
" />
<path d="M137.7699 24.4757
L137.8303 24.5966
" />
<path d="M137.8303 24.5966
L137.8303 24.8385
" />
<path d="M137.8303 24.8385
L137.7699 24.9595
" />
<path d="M137.7699 24.9595
L137.7094 25.0200
" />
<path d="M137.7094 25.0200
L137.5884 25.0804
" />
<path d="M137.5884 25.0804
L137.2256 25.0804
" />
<path d="M137.2256 25.0804
L137.1046 25.0200
" />
<path d="M137.1046 25.0200
L137.0441 24.9595
" />
<path d="M137.0441 24.9595
L136.9837 24.8385
" />
<path d="M136.9837 24.8385
L136.9837 24.5966
" />
<path d="M136.9837 24.5966
L137.0441 24.4757
" />
<path d="M137.7699 23.3871
L137.8303 23.5080
" />
<path d="M137.8303 23.5080
L137.8303 23.7499
" />
<path d="M137.8303 23.7499
L137.7699 23.8709
" />
<path d="M137.7699 23.8709
L137.7094 23.9314
" />
<path d="M137.7094 23.9314
L137.5884 23.9918
" />
<path d="M137.5884 23.9918
L137.2256 23.9918
" />
<path d="M137.2256 23.9918
L137.1046 23.9314
" />
<path d="M137.1046 23.9314
L137.0441 23.8709
" />
<path d="M137.0441 23.8709
L136.9837 23.7499
" />
<path d="M136.9837 23.7499
L136.9837 23.5080
" />
<path d="M136.9837 23.5080
L137.0441 23.3871
" />
</g><path style="fill:none; 
stroke:#840000; stroke-width:0.1524; stroke-opacity:1; 
stroke-linecap:round; stroke-linejoin:round;fill:none"
d="M 137.1600,27.9400
138.4304,26.8287
138.4304,22.2288
137.1600,22.2288
135.8896,22.2288
135.8896,26.8287
Z" /> 
</g>
<g style="fill:none; 
stroke:#840000; stroke-width:0.1524; stroke-opacity:1; 
stroke-linecap:round; stroke-linejoin:round;">
<text x="52.2288" y="48.9858"
textLength="3.7712" font-size="1.6933" lengthAdjust="spacingAndGlyphs"
text-anchor="start" opacity="0" stroke-opacity="0">Gnd</text>
<g class="stroked-text"><desc>Gnd</desc>
<path d="M53.2966 47.7208
L53.1756 47.6603
" />
<path d="M53.1756 47.6603
L52.9942 47.6603
" />
<path d="M52.9942 47.6603
L52.8128 47.7208
" />
<path d="M52.8128 47.7208
L52.6918 47.8418
" />
<path d="M52.6918 47.8418
L52.6313 47.9627
" />
<path d="M52.6313 47.9627
L52.5709 48.2046
" />
<path d="M52.5709 48.2046
L52.5709 48.3860
" />
<path d="M52.5709 48.3860
L52.6313 48.6279
" />
<path d="M52.6313 48.6279
L52.6918 48.7489
" />
<path d="M52.6918 48.7489
L52.8128 48.8699
" />
<path d="M52.8128 48.8699
L52.9942 48.9303
" />
<path d="M52.9942 48.9303
L53.1151 48.9303
" />
<path d="M53.1151 48.9303
L53.2966 48.8699
" />
<path d="M53.2966 48.8699
L53.3570 48.8094
" />
<path d="M53.3570 48.8094
L53.3570 48.3860
" />
<path d="M53.3570 48.3860
L53.1151 48.3860
" />
<path d="M53.9013 48.0837
L53.9013 48.9303
" />
<path d="M53.9013 48.2046
L53.9618 48.1441
" />
<path d="M53.9618 48.1441
L54.0828 48.0837
" />
<path d="M54.0828 48.0837
L54.2642 48.0837
" />
<path d="M54.2642 48.0837
L54.3851 48.1441
" />
<path d="M54.3851 48.1441
L54.4456 48.2651
" />
<path d="M54.4456 48.2651
L54.4456 48.9303
" />
<path d="M55.5946 48.9303
L55.5946 47.6603
" />
<path d="M55.5946 48.8699
L55.4737 48.9303
" />
<path d="M55.4737 48.9303
L55.2318 48.9303
" />
<path d="M55.2318 48.9303
L55.1108 48.8699
" />
<path d="M55.1108 48.8699
L55.0503 48.8094
" />
<path d="M55.0503 48.8094
L54.9899 48.6884
" />
<path d="M54.9899 48.6884
L54.9899 48.3256
" />
<path d="M54.9899 48.3256
L55.0503 48.2046
" />
<path d="M55.0503 48.2046
L55.1108 48.1441
" />
<path d="M55.1108 48.1441
L55.2318 48.0837
" />
<path d="M55.2318 48.0837
L55.4737 48.0837
" />
<path d="M55.4737 48.0837
L55.5946 48.1441
" />
</g><path style="fill:none; 
stroke:#840000; stroke-width:0.1524; stroke-opacity:1; 
stroke-linecap:round; stroke-linejoin:round;fill:none"
d="M 50.8000,48.2600
51.9113,49.5304
56.8134,49.5304
56.8134,48.2600
56.8134,46.9896
51.9113,46.9896
Z" /> 
</g>
<g style="fill:none; 
stroke:#840000; stroke-width:0.1524; stroke-opacity:1; 
stroke-linecap:round; stroke-linejoin:round;">
<g transform="rotate(-90.000000 137.2508 47.1488)">
<text x="137.2508" y="47.7838"
textLength="3.7712" font-size="1.6933" lengthAdjust="spacingAndGlyphs"
text-anchor="end" opacity="0" stroke-opacity="0">Gnd</text>
</g>
<g class="stroked-text"><desc>Gnd</desc>
<path d="M136.6208 49.8493
L136.5603 49.9703
" />
<path d="M136.5603 49.9703
L136.5603 50.1517
" />
<path d="M136.5603 50.1517
L136.6208 50.3331
" />
<path d="M136.6208 50.3331
L136.7418 50.4541
" />
<path d="M136.7418 50.4541
L136.8627 50.5146
" />
<path d="M136.8627 50.5146
L137.1046 50.5750
" />
<path d="M137.1046 50.5750
L137.2860 50.5750
" />
<path d="M137.2860 50.5750
L137.5279 50.5146
" />
<path d="M137.5279 50.5146
L137.6489 50.4541
" />
<path d="M137.6489 50.4541
L137.7699 50.3331
" />
<path d="M137.7699 50.3331
L137.8303 50.1517
" />
<path d="M137.8303 50.1517
L137.8303 50.0308
" />
<path d="M137.8303 50.0308
L137.7699 49.8493
" />
<path d="M137.7699 49.8493
L137.7094 49.7889
" />
<path d="M137.7094 49.7889
L137.2860 49.7889
" />
<path d="M137.2860 49.7889
L137.2860 50.0308
" />
<path d="M136.9837 49.2446
L137.8303 49.2446
" />
<path d="M137.1046 49.2446
L137.0441 49.1841
" />
<path d="M137.0441 49.1841
L136.9837 49.0631
" />
<path d="M136.9837 49.0631
L136.9837 48.8817
" />
<path d="M136.9837 48.8817
L137.0441 48.7608
" />
<path d="M137.0441 48.7608
L137.1651 48.7003
" />
<path d="M137.1651 48.7003
L137.8303 48.7003
" />
<path d="M137.8303 47.5513
L136.5603 47.5513
" />
<path d="M137.7699 47.5513
L137.8303 47.6722
" />
<path d="M137.8303 47.6722
L137.8303 47.9141
" />
<path d="M137.8303 47.9141
L137.7699 48.0351
" />
<path d="M137.7699 48.0351
L137.7094 48.0956
" />
<path d="M137.7094 48.0956
L137.5884 48.1560
" />
<path d="M137.5884 48.1560
L137.2256 48.1560
" />
<path d="M137.2256 48.1560
L137.1046 48.0956
" />
<path d="M137.1046 48.0956
L137.0441 48.0351
" />
<path d="M137.0441 48.0351
L136.9837 47.9141
" />
<path d="M136.9837 47.9141
L136.9837 47.6722
" />
<path d="M136.9837 47.6722
L137.0441 47.5513
" />
</g><path style="fill:none; 
stroke:#840000; stroke-width:0.1524; stroke-opacity:1; 
stroke-linecap:round; stroke-linejoin:round;fill:none"
d="M 137.1600,45.7200
135.8896,46.8313
135.8896,51.7334
137.1600,51.7334
138.4304,51.7334
138.4304,46.8313
Z" /> 
</g>
<g style="fill:none; 
stroke:#840000; stroke-width:0.1524; stroke-opacity:1; 
stroke-linecap:round; stroke-linejoin:round;">
<text x="52.2288" y="17.2358"
textLength="3.4690" font-size="1.6933" lengthAdjust="spacingAndGlyphs"
text-anchor="start" opacity="0" stroke-opacity="0">Vcc</text>
<g class="stroked-text"><desc>Vcc</desc>
<path d="M52.4499 15.9103
L52.8732 17.1803
" />
<path d="M52.8732 17.1803
L53.2966 15.9103
" />
<path d="M54.2642 17.1199
L54.1433 17.1803
" />
<path d="M54.1433 17.1803
L53.9014 17.1803
" />
<path d="M53.9014 17.1803
L53.7804 17.1199
" />
<path d="M53.7804 17.1199
L53.7199 17.0594
" />
<path d="M53.7199 17.0594
L53.6595 16.9384
" />
<path d="M53.6595 16.9384
L53.6595 16.5756
" />
<path d="M53.6595 16.5756
L53.7199 16.4546
" />
<path d="M53.7199 16.4546
L53.7804 16.3941
" />
<path d="M53.7804 16.3941
L53.9014 16.3337
" />
<path d="M53.9014 16.3337
L54.1433 16.3337
" />
<path d="M54.1433 16.3337
L54.2642 16.3941
" />
<path d="M55.3528 17.1199
L55.2319 17.1803
" />
<path d="M55.2319 17.1803
L54.9900 17.1803
" />
<path d="M54.9900 17.1803
L54.8690 17.1199
" />
<path d="M54.8690 17.1199
L54.8085 17.0594
" />
<path d="M54.8085 17.0594
L54.7481 16.9384
" />
<path d="M54.7481 16.9384
L54.7481 16.5756
" />
<path d="M54.7481 16.5756
L54.8085 16.4546
" />
<path d="M54.8085 16.4546
L54.8690 16.3941
" />
<path d="M54.8690 16.3941
L54.9900 16.3337
" />
<path d="M54.9900 16.3337
L55.2319 16.3337
" />
<path d="M55.2319 16.3337
L55.3528 16.3941
" />
</g><path style="fill:none; 
stroke:#840000; stroke-width:0.1524; stroke-opacity:1; 
stroke-linecap:round; stroke-linejoin:round;fill:none"
d="M 50.8000,16.5100
51.9113,17.7804
56.5112,17.7804
56.5112,16.5100
56.5112,15.2396
51.9113,15.2396
Z" /> 
</g>
<g style="fill:none; 
stroke:#0F0F0F; stroke-width:0.1524; stroke-opacity:1; 
stroke-linecap:round; stroke-linejoin:round;">
<text x="40.6400" y="32.6707"
textLength="4.6180" font-size="1.6933" lengthAdjust="spacingAndGlyphs"
text-anchor="start" opacity="0" stroke-opacity="0">Vin-</text>
<g class="stroked-text"><desc>Vin-</desc>
<path d="M40.8611 31.2372
L41.2844 32.5072
" />
<path d="M41.2844 32.5072
L41.7078 31.2372
" />
<path d="M42.1311 32.5072
L42.1311 31.6606
" />
<path d="M42.1311 31.2372
L42.0707 31.2977
" />
<path d="M42.0707 31.2977
L42.1311 31.3582
" />
<path d="M42.1311 31.3582
L42.1916 31.2977
" />
<path d="M42.1916 31.2977
L42.1311 31.2372
" />
<path d="M42.1311 31.2372
L42.1311 31.3582
" />
<path d="M42.7359 31.6606
L42.7359 32.5072
" />
<path d="M42.7359 31.7815
L42.7964 31.7210
" />
<path d="M42.7964 31.7210
L42.9174 31.6606
" />
<path d="M42.9174 31.6606
L43.0988 31.6606
" />
<path d="M43.0988 31.6606
L43.2197 31.7210
" />
<path d="M43.2197 31.7210
L43.2802 31.8420
" />
<path d="M43.2802 31.8420
L43.2802 32.5072
" />
<path d="M43.8849 32.0234
L44.8526 32.0234
" />
</g></g>
<g style="fill:none; 
stroke:#0F0F0F; stroke-width:0.1524; stroke-opacity:1; 
stroke-linecap:round; stroke-linejoin:round;">
<text x="41.9100" y="27.5907"
textLength="4.6180" font-size="1.6933" lengthAdjust="spacingAndGlyphs"
text-anchor="start" opacity="0" stroke-opacity="0">Vin+</text>
<g class="stroked-text"><desc>Vin+</desc>
<path d="M42.1311 26.1572
L42.5544 27.4272
" />
<path d="M42.5544 27.4272
L42.9778 26.1572
" />
<path d="M43.4011 27.4272
L43.4011 26.5806
" />
<path d="M43.4011 26.1572
L43.3407 26.2177
" />
<path d="M43.3407 26.2177
L43.4011 26.2782
" />
<path d="M43.4011 26.2782
L43.4616 26.2177
" />
<path d="M43.4616 26.2177
L43.4011 26.1572
" />
<path d="M43.4011 26.1572
L43.4011 26.2782
" />
<path d="M44.0059 26.5806
L44.0059 27.4272
" />
<path d="M44.0059 26.7015
L44.0664 26.6410
" />
<path d="M44.0664 26.6410
L44.1874 26.5806
" />
<path d="M44.1874 26.5806
L44.3688 26.5806
" />
<path d="M44.3688 26.5806
L44.4897 26.6410
" />
<path d="M44.4897 26.6410
L44.5502 26.7620
" />
<path d="M44.5502 26.7620
L44.5502 27.4272
" />
<path d="M45.1549 26.9434
L46.1226 26.9434
" />
<path d="M45.6387 27.4272
L45.6387 26.4596
" />
</g></g>
<g style="fill:none; 
stroke:#0F0F0F; stroke-width:0.1524; stroke-opacity:1; 
stroke-linecap:round; stroke-linejoin:round;">
<text x="76.2000" y="30.1307"
textLength="4.3155" font-size="1.6933" lengthAdjust="spacingAndGlyphs"
text-anchor="start" opacity="0" stroke-opacity="0">Vout</text>
<g class="stroked-text"><desc>Vout</desc>
<path d="M76.4211 28.6972
L76.8444 29.9672
" />
<path d="M76.8444 29.9672
L77.2678 28.6972
" />
<path d="M77.8726 29.9672
L77.7516 29.9068
" />
<path d="M77.7516 29.9068
L77.6911 29.8463
" />
<path d="M77.6911 29.8463
L77.6307 29.7253
" />
<path d="M77.6307 29.7253
L77.6307 29.3625
" />
<path d="M77.6307 29.3625
L77.6911 29.2415
" />
<path d="M77.6911 29.2415
L77.7516 29.1810
" />
<path d="M77.7516 29.1810
L77.8726 29.1206
" />
<path d="M77.8726 29.1206
L78.0540 29.1206
" />
<path d="M78.0540 29.1206
L78.1749 29.1810
" />
<path d="M78.1749 29.1810
L78.2354 29.2415
" />
<path d="M78.2354 29.2415
L78.2959 29.3625
" />
<path d="M78.2959 29.3625
L78.2959 29.7253
" />
<path d="M78.2959 29.7253
L78.2354 29.8463
" />
<path d="M78.2354 29.8463
L78.1749 29.9068
" />
<path d="M78.1749 29.9068
L78.0540 29.9672
" />
<path d="M78.0540 29.9672
L77.8726 29.9672
" />
<path d="M79.3844 29.1206
L79.3844 29.9672
" />
<path d="M78.8401 29.1206
L78.8401 29.7858
" />
<path d="M78.8401 29.7858
L78.9006 29.9068
" />
<path d="M78.9006 29.9068
L79.0216 29.9672
" />
<path d="M79.0216 29.9672
L79.2030 29.9672
" />
<path d="M79.2030 29.9672
L79.3239 29.9068
" />
<path d="M79.3239 29.9068
L79.3844 29.8463
" />
<path d="M79.8077 29.1206
L80.2915 29.1206
" />
<path d="M79.9891 28.6972
L79.9891 29.7858
" />
<path d="M79.9891 29.7858
L80.0496 29.9068
" />
<path d="M80.0496 29.9068
L80.1706 29.9672
" />
<path d="M80.1706 29.9672
L80.2915 29.9672
" />
</g></g>
<g style="fill:none; 
stroke:#009600; stroke-width:0.1524; stroke-opacity:1; 
stroke-linecap:round; stroke-linejoin:round;">
<path d="M13.9700 59.6900
L20.3200 59.6900
" />
<path d="M20.3200 33.0200
L20.3200 38.1000
" />
<path d="M38.1000 59.6900
L76.2000 59.6900
" />
<path d="M50.8000 48.2600
L50.8000 38.1000
" />
<path d="M76.2000 49.5300
L76.2000 59.6900
" />
<path d="M38.1000 59.6900
L38.1000 33.0200
" />
<path d="M13.9700 27.9400
L13.9700 59.6900
" />
<path d="M20.3200 48.2600
L20.3200 59.6900
" />
</g>
<g style="fill:none; 
stroke:#FF0000; stroke-width:0.1524; stroke-opacity:1; 
stroke-linecap:round; stroke-linejoin:round;">
<path d="M137.1600 35.5600
L137.1600 33.0200
" />
</g>
<g style="fill:none; 
stroke:#009600; stroke-width:0.1524; stroke-opacity:1; 
stroke-linecap:round; stroke-linejoin:round;">
<path d="M137.1600 40.6400
L137.1600 43.1800
" />
<path d="M35.5600 33.0200
L38.1000 33.0200
" />
<path d="M20.3200 33.0200
L27.9400 33.0200
" />
<path d="M38.1000 33.0200
L45.7200 33.0200
" />
<path d="M13.9700 27.9400
L45.7200 27.9400
" />
<path d="M137.1600 38.1000
L137.1600 40.6400
" />
<path d="M50.8000 16.5100
L50.8000 22.8600
" />
<path d="M60.9600 30.4800
L76.2000 30.4800
" />
<path d="M76.2000 30.4800
L76.2000 41.9100
" />
</g>
<g style="fill:none; 
stroke:#FF0000; stroke-width:0.1524; stroke-opacity:1; 
stroke-linecap:round; stroke-linejoin:round;">
<path d="M137.1600 27.9400
L137.1600 33.0200
" />
</g>
<g style="fill:none; 
stroke:#009600; stroke-width:0.1524; stroke-opacity:1; 
stroke-linecap:round; stroke-linejoin:round;">
<path d="M135.8900 40.6400
L137.1600 40.6400
" />
<path d="M137.1600 43.1800
L137.1600 45.7200
" />
<path d="M134.6200 33.0200
L137.1600 33.0200
" />
</g>
<g style="fill:#009600; fill-opacity:1.0000; 
stroke:#009600; stroke-width:0.1524; stroke-opacity:1; 
stroke-linecap:round; stroke-linejoin:round;">
<circle cx="137.1600" cy="40.6400" r="0.4572" /> 
<circle cx="137.1600" cy="33.0200" r="0.4572" /> 
<circle cx="137.1600" cy="43.1800" r="0.4572" /> 
<circle cx="38.1000" cy="33.0200" r="0.4572" /> 
</g> 
</svg>
