<?xml version="1.0" standalone="no"?>
 <!DOCTYPE svg PUBLIC "-//W3C//DTD SVG 1.1//EN" 
 "http://www.w3.org/Graphics/SVG/1.1/DTD/svg11.dtd"> 
<svg
  xmlns:svg="http://www.w3.org/2000/svg"
  xmlns="http://www.w3.org/2000/svg"
  xmlns:xlink="http://www.w3.org/1999/xlink"
  version="1.1"
  width="210.0072mm" height="148.0058mm" viewBox="0.0000 0.0000 210.0072 148.0058">
<title>SVG Image created as villard.svg date 2025/11/06 18:27:20 </title>
  <desc>Image generated by Eeschema-SVG </desc>
<g style="fill:#000000; fill-opacity:1.0000;stroke:#000000; stroke-opacity:1.0000;
stroke-linecap:round; stroke-linejoin:round;"
 transform="translate(0 0) scale(1 1)">
</g>
<g style="fill:#F5F4EF; fill-opacity:1.0000; 
stroke:#F5F4EF; stroke-width:0.0001; stroke-opacity:1; 
stroke-linecap:round; stroke-linejoin:round;">
<rect x="0.000000" y="0.000000" width="210.007200" height="148.005800" rx="0.000000" />
</g>
<g style="fill:none; 
stroke:#840000; stroke-width:0.1524; stroke-opacity:1; 
stroke-linecap:round; stroke-linejoin:round;">
<path d="M90.0072 104.0058
L198.0072 104.0058
L198.0072 136.0058
L90.0072 136.0058
L90.0072 104.0058
" />
<path d="M10.0000 10.0000
L200.0072 10.0000
L200.0072 138.0058
L10.0000 138.0058
L10.0000 10.0000
" />
<path d="M12.0000 12.0000
L198.0072 12.0000
L198.0072 136.0058
L12.0000 136.0058
L12.0000 12.0000
" />
<path d="M60.0000 12.0000
L60.0000 10.0000
" />
<path d="M110.0000 12.0000
L110.0000 10.0000
" />
<path d="M160.0000 12.0000
L160.0000 10.0000
" />
<text x="35.0000" y="11.6500"
textLength="1.4353" font-size="1.7333" lengthAdjust="spacingAndGlyphs"
text-anchor="start" opacity="0" stroke-opacity="0">1</text>
<g class="stroked-text"><desc>1</desc>
<path d="M36.0906 11.5935
L35.3478 11.5935
" />
<path d="M35.7192 11.5935
L35.7192 10.2935
" />
<path d="M35.7192 10.2935
L35.5954 10.4792
" />
<path d="M35.5954 10.4792
L35.4716 10.6030
" />
<path d="M35.4716 10.6030
L35.3478 10.6649
" />
</g><text x="85.0000" y="11.6500"
textLength="1.4353" font-size="1.7333" lengthAdjust="spacingAndGlyphs"
text-anchor="start" opacity="0" stroke-opacity="0">2</text>
<g class="stroked-text"><desc>2</desc>
<path d="M85.3478 10.4173
L85.4097 10.3554
" />
<path d="M85.4097 10.3554
L85.5335 10.2935
" />
<path d="M85.5335 10.2935
L85.8430 10.2935
" />
<path d="M85.8430 10.2935
L85.9668 10.3554
" />
<path d="M85.9668 10.3554
L86.0287 10.4173
" />
<path d="M86.0287 10.4173
L86.0906 10.5411
" />
<path d="M86.0906 10.5411
L86.0906 10.6649
" />
<path d="M86.0906 10.6649
L86.0287 10.8506
" />
<path d="M86.0287 10.8506
L85.2859 11.5935
" />
<path d="M85.2859 11.5935
L86.0906 11.5935
" />
</g><text x="135.0000" y="11.6500"
textLength="1.4353" font-size="1.7333" lengthAdjust="spacingAndGlyphs"
text-anchor="start" opacity="0" stroke-opacity="0">3</text>
<g class="stroked-text"><desc>3</desc>
<path d="M135.2859 10.2935
L136.0906 10.2935
" />
<path d="M136.0906 10.2935
L135.6573 10.7887
" />
<path d="M135.6573 10.7887
L135.8430 10.7887
" />
<path d="M135.8430 10.7887
L135.9668 10.8506
" />
<path d="M135.9668 10.8506
L136.0287 10.9125
" />
<path d="M136.0287 10.9125
L136.0906 11.0363
" />
<path d="M136.0906 11.0363
L136.0906 11.3458
" />
<path d="M136.0906 11.3458
L136.0287 11.4696
" />
<path d="M136.0287 11.4696
L135.9668 11.5316
" />
<path d="M135.9668 11.5316
L135.8430 11.5935
" />
<path d="M135.8430 11.5935
L135.4716 11.5935
" />
<path d="M135.4716 11.5935
L135.3478 11.5316
" />
<path d="M135.3478 11.5316
L135.2859 11.4696
" />
</g><text x="185.0000" y="11.6500"
textLength="1.4353" font-size="1.7333" lengthAdjust="spacingAndGlyphs"
text-anchor="start" opacity="0" stroke-opacity="0">4</text>
<g class="stroked-text"><desc>4</desc>
<path d="M185.9668 10.7268
L185.9668 11.5935
" />
<path d="M185.6573 10.2316
L185.3478 11.1601
" />
<path d="M185.3478 11.1601
L186.1525 11.1601
" />
</g><path d="M60.0000 136.0058
L60.0000 138.0058
" />
<path d="M110.0000 136.0058
L110.0000 138.0058
" />
<path d="M160.0000 136.0058
L160.0000 138.0058
" />
<text x="35.0000" y="137.6558"
textLength="1.4353" font-size="1.7333" lengthAdjust="spacingAndGlyphs"
text-anchor="start" opacity="0" stroke-opacity="0">1</text>
<g class="stroked-text"><desc>1</desc>
<path d="M36.0906 137.5993
L35.3478 137.5993
" />
<path d="M35.7192 137.5993
L35.7192 136.2993
" />
<path d="M35.7192 136.2993
L35.5954 136.4850
" />
<path d="M35.5954 136.4850
L35.4716 136.6088
" />
<path d="M35.4716 136.6088
L35.3478 136.6707
" />
</g><text x="85.0000" y="137.6558"
textLength="1.4353" font-size="1.7333" lengthAdjust="spacingAndGlyphs"
text-anchor="start" opacity="0" stroke-opacity="0">2</text>
<g class="stroked-text"><desc>2</desc>
<path d="M85.3478 136.4231
L85.4097 136.3612
" />
<path d="M85.4097 136.3612
L85.5335 136.2993
" />
<path d="M85.5335 136.2993
L85.8430 136.2993
" />
<path d="M85.8430 136.2993
L85.9668 136.3612
" />
<path d="M85.9668 136.3612
L86.0287 136.4231
" />
<path d="M86.0287 136.4231
L86.0906 136.5469
" />
<path d="M86.0906 136.5469
L86.0906 136.6707
" />
<path d="M86.0906 136.6707
L86.0287 136.8564
" />
<path d="M86.0287 136.8564
L85.2859 137.5993
" />
<path d="M85.2859 137.5993
L86.0906 137.5993
" />
</g><text x="135.0000" y="137.6558"
textLength="1.4353" font-size="1.7333" lengthAdjust="spacingAndGlyphs"
text-anchor="start" opacity="0" stroke-opacity="0">3</text>
<g class="stroked-text"><desc>3</desc>
<path d="M135.2859 136.2993
L136.0906 136.2993
" />
<path d="M136.0906 136.2993
L135.6573 136.7945
" />
<path d="M135.6573 136.7945
L135.8430 136.7945
" />
<path d="M135.8430 136.7945
L135.9668 136.8564
" />
<path d="M135.9668 136.8564
L136.0287 136.9183
" />
<path d="M136.0287 136.9183
L136.0906 137.0421
" />
<path d="M136.0906 137.0421
L136.0906 137.3516
" />
<path d="M136.0906 137.3516
L136.0287 137.4754
" />
<path d="M136.0287 137.4754
L135.9668 137.5374
" />
<path d="M135.9668 137.5374
L135.8430 137.5993
" />
<path d="M135.8430 137.5993
L135.4716 137.5993
" />
<path d="M135.4716 137.5993
L135.3478 137.5374
" />
<path d="M135.3478 137.5374
L135.2859 137.4754
" />
</g><text x="185.0000" y="137.6558"
textLength="1.4353" font-size="1.7333" lengthAdjust="spacingAndGlyphs"
text-anchor="start" opacity="0" stroke-opacity="0">4</text>
<g class="stroked-text"><desc>4</desc>
<path d="M185.9668 136.7326
L185.9668 137.5993
" />
<path d="M185.6573 136.2374
L185.3478 137.1659
" />
<path d="M185.3478 137.1659
L186.1525 137.1659
" />
</g><path d="M10.0000 60.0000
L12.0000 60.0000
" />
<path d="M10.0000 110.0000
L12.0000 110.0000
" />
<text x="11.0000" y="35.6500"
textLength="1.3115" font-size="1.7333" lengthAdjust="spacingAndGlyphs"
text-anchor="middle" opacity="0" stroke-opacity="0">A</text>
<g class="stroked-text"><desc>A</desc>
<path d="M10.6905 35.2220
L11.3095 35.2220
" />
<path d="M10.5667 35.5935
L11.0000 34.2935
" />
<path d="M11.0000 34.2935
L11.4333 35.5935
" />
</g><text x="11.0000" y="85.6500"
textLength="1.4972" font-size="1.7333" lengthAdjust="spacingAndGlyphs"
text-anchor="middle" opacity="0" stroke-opacity="0">B</text>
<g class="stroked-text"><desc>B</desc>
<path d="M11.0928 84.9125
L11.2785 84.9744
" />
<path d="M11.2785 84.9744
L11.3404 85.0363
" />
<path d="M11.3404 85.0363
L11.4023 85.1601
" />
<path d="M11.4023 85.1601
L11.4023 85.3458
" />
<path d="M11.4023 85.3458
L11.3404 85.4696
" />
<path d="M11.3404 85.4696
L11.2785 85.5316
" />
<path d="M11.2785 85.5316
L11.1547 85.5935
" />
<path d="M11.1547 85.5935
L10.6595 85.5935
" />
<path d="M10.6595 85.5935
L10.6595 84.2935
" />
<path d="M10.6595 84.2935
L11.0928 84.2935
" />
<path d="M11.0928 84.2935
L11.2166 84.3554
" />
<path d="M11.2166 84.3554
L11.2785 84.4173
" />
<path d="M11.2785 84.4173
L11.3404 84.5411
" />
<path d="M11.3404 84.5411
L11.3404 84.6649
" />
<path d="M11.3404 84.6649
L11.2785 84.7887
" />
<path d="M11.2785 84.7887
L11.2166 84.8506
" />
<path d="M11.2166 84.8506
L11.0928 84.9125
" />
<path d="M11.0928 84.9125
L10.6595 84.9125
" />
</g><text x="11.0000" y="135.6500"
textLength="1.4972" font-size="1.7333" lengthAdjust="spacingAndGlyphs"
text-anchor="middle" opacity="0" stroke-opacity="0">C</text>
<g class="stroked-text"><desc>C</desc>
<path d="M11.4023 135.4696
L11.3404 135.5316
" />
<path d="M11.3404 135.5316
L11.1547 135.5935
" />
<path d="M11.1547 135.5935
L11.0309 135.5935
" />
<path d="M11.0309 135.5935
L10.8452 135.5316
" />
<path d="M10.8452 135.5316
L10.7214 135.4077
" />
<path d="M10.7214 135.4077
L10.6595 135.2839
" />
<path d="M10.6595 135.2839
L10.5976 135.0363
" />
<path d="M10.5976 135.0363
L10.5976 134.8506
" />
<path d="M10.5976 134.8506
L10.6595 134.6030
" />
<path d="M10.6595 134.6030
L10.7214 134.4792
" />
<path d="M10.7214 134.4792
L10.8452 134.3554
" />
<path d="M10.8452 134.3554
L11.0309 134.2935
" />
<path d="M11.0309 134.2935
L11.1547 134.2935
" />
<path d="M11.1547 134.2935
L11.3404 134.3554
" />
<path d="M11.3404 134.3554
L11.4023 134.4173
" />
</g><path d="M200.0072 60.0000
L198.0072 60.0000
" />
<path d="M200.0072 110.0000
L198.0072 110.0000
" />
<text x="199.0072" y="35.6500"
textLength="1.3115" font-size="1.7333" lengthAdjust="spacingAndGlyphs"
text-anchor="middle" opacity="0" stroke-opacity="0">A</text>
<g class="stroked-text"><desc>A</desc>
<path d="M198.6977 35.2220
L199.3167 35.2220
" />
<path d="M198.5739 35.5935
L199.0072 34.2935
" />
<path d="M199.0072 34.2935
L199.4405 35.5935
" />
</g><text x="199.0072" y="85.6500"
textLength="1.4972" font-size="1.7333" lengthAdjust="spacingAndGlyphs"
text-anchor="middle" opacity="0" stroke-opacity="0">B</text>
<g class="stroked-text"><desc>B</desc>
<path d="M199.1000 84.9125
L199.2857 84.9744
" />
<path d="M199.2857 84.9744
L199.3476 85.0363
" />
<path d="M199.3476 85.0363
L199.4095 85.1601
" />
<path d="M199.4095 85.1601
L199.4095 85.3458
" />
<path d="M199.4095 85.3458
L199.3476 85.4696
" />
<path d="M199.3476 85.4696
L199.2857 85.5316
" />
<path d="M199.2857 85.5316
L199.1619 85.5935
" />
<path d="M199.1619 85.5935
L198.6667 85.5935
" />
<path d="M198.6667 85.5935
L198.6667 84.2935
" />
<path d="M198.6667 84.2935
L199.1000 84.2935
" />
<path d="M199.1000 84.2935
L199.2238 84.3554
" />
<path d="M199.2238 84.3554
L199.2857 84.4173
" />
<path d="M199.2857 84.4173
L199.3476 84.5411
" />
<path d="M199.3476 84.5411
L199.3476 84.6649
" />
<path d="M199.3476 84.6649
L199.2857 84.7887
" />
<path d="M199.2857 84.7887
L199.2238 84.8506
" />
<path d="M199.2238 84.8506
L199.1000 84.9125
" />
<path d="M199.1000 84.9125
L198.6667 84.9125
" />
</g><text x="199.0072" y="135.6500"
textLength="1.4972" font-size="1.7333" lengthAdjust="spacingAndGlyphs"
text-anchor="middle" opacity="0" stroke-opacity="0">C</text>
<g class="stroked-text"><desc>C</desc>
<path d="M199.4095 135.4696
L199.3476 135.5316
" />
<path d="M199.3476 135.5316
L199.1619 135.5935
" />
<path d="M199.1619 135.5935
L199.0381 135.5935
" />
<path d="M199.0381 135.5935
L198.8524 135.5316
" />
<path d="M198.8524 135.5316
L198.7286 135.4077
" />
<path d="M198.7286 135.4077
L198.6667 135.2839
" />
<path d="M198.6667 135.2839
L198.6048 135.0363
" />
<path d="M198.6048 135.0363
L198.6048 134.8506
" />
<path d="M198.6048 134.8506
L198.6667 134.6030
" />
<path d="M198.6667 134.6030
L198.7286 134.4792
" />
<path d="M198.7286 134.4792
L198.8524 134.3554
" />
<path d="M198.8524 134.3554
L199.0381 134.2935
" />
<path d="M199.0381 134.2935
L199.1619 134.2935
" />
<path d="M199.1619 134.2935
L199.3476 134.3554
" />
<path d="M199.3476 134.3554
L199.4095 134.4173
" />
</g><text x="113.0072" y="131.8558"
textLength="7.0143" font-size="2.0000" lengthAdjust="spacingAndGlyphs"
text-anchor="start" opacity="0" stroke-opacity="0">Date: </text>
<g class="stroked-text"><desc>Date: </desc>
<path d="M113.4645 131.7917
L113.4645 130.2917
" />
<path d="M113.4645 130.2917
L113.8216 130.2917
" />
<path d="M113.8216 130.2917
L114.0359 130.3631
" />
<path d="M114.0359 130.3631
L114.1788 130.5060
" />
<path d="M114.1788 130.5060
L114.2502 130.6488
" />
<path d="M114.2502 130.6488
L114.3216 130.9345
" />
<path d="M114.3216 130.9345
L114.3216 131.1488
" />
<path d="M114.3216 131.1488
L114.2502 131.4345
" />
<path d="M114.2502 131.4345
L114.1788 131.5774
" />
<path d="M114.1788 131.5774
L114.0359 131.7203
" />
<path d="M114.0359 131.7203
L113.8216 131.7917
" />
<path d="M113.8216 131.7917
L113.4645 131.7917
" />
<path d="M115.6074 131.7917
L115.6074 131.0060
" />
<path d="M115.6074 131.0060
L115.5359 130.8631
" />
<path d="M115.5359 130.8631
L115.3931 130.7917
" />
<path d="M115.3931 130.7917
L115.1074 130.7917
" />
<path d="M115.1074 130.7917
L114.9645 130.8631
" />
<path d="M115.6074 131.7203
L115.4645 131.7917
" />
<path d="M115.4645 131.7917
L115.1074 131.7917
" />
<path d="M115.1074 131.7917
L114.9645 131.7203
" />
<path d="M114.9645 131.7203
L114.8931 131.5774
" />
<path d="M114.8931 131.5774
L114.8931 131.4345
" />
<path d="M114.8931 131.4345
L114.9645 131.2917
" />
<path d="M114.9645 131.2917
L115.1074 131.2203
" />
<path d="M115.1074 131.2203
L115.4645 131.2203
" />
<path d="M115.4645 131.2203
L115.6074 131.1488
" />
<path d="M116.1073 130.7917
L116.6787 130.7917
" />
<path d="M116.3216 130.2917
L116.3216 131.5774
" />
<path d="M116.3216 131.5774
L116.3930 131.7203
" />
<path d="M116.3930 131.7203
L116.5359 131.7917
" />
<path d="M116.5359 131.7917
L116.6787 131.7917
" />
<path d="M117.7501 131.7203
L117.6073 131.7917
" />
<path d="M117.6073 131.7917
L117.3216 131.7917
" />
<path d="M117.3216 131.7917
L117.1787 131.7203
" />
<path d="M117.1787 131.7203
L117.1073 131.5774
" />
<path d="M117.1073 131.5774
L117.1073 131.0060
" />
<path d="M117.1073 131.0060
L117.1787 130.8631
" />
<path d="M117.1787 130.8631
L117.3216 130.7917
" />
<path d="M117.3216 130.7917
L117.6073 130.7917
" />
<path d="M117.6073 130.7917
L117.7501 130.8631
" />
<path d="M117.7501 130.8631
L117.8216 131.0060
" />
<path d="M117.8216 131.0060
L117.8216 131.1488
" />
<path d="M117.8216 131.1488
L117.1073 131.2917
" />
<path d="M118.4644 131.6488
L118.5358 131.7203
" />
<path d="M118.5358 131.7203
L118.4644 131.7917
" />
<path d="M118.4644 131.7917
L118.3930 131.7203
" />
<path d="M118.3930 131.7203
L118.4644 131.6488
" />
<path d="M118.4644 131.6488
L118.4644 131.7917
" />
<path d="M118.4644 130.8631
L118.5358 130.9345
" />
<path d="M118.5358 130.9345
L118.4644 131.0060
" />
<path d="M118.4644 131.0060
L118.3930 130.9345
" />
<path d="M118.3930 130.9345
L118.4644 130.8631
" />
<path d="M118.4644 130.8631
L118.4644 131.0060
" />
</g><path d="M90.0072 132.5058
L198.0072 132.5058
" />
<text x="91.0072" y="134.6558"
textLength="20.8716" font-size="2.0000" lengthAdjust="spacingAndGlyphs"
text-anchor="start" opacity="0" stroke-opacity="0">KiCad E.D.A. 9.0.6</text>
<g class="stroked-text"><desc>KiCad E.D.A. 9.0.6</desc>
<path d="M91.4645 134.5917
L91.4645 133.0917
" />
<path d="M92.3216 134.5917
L91.6788 133.7345
" />
<path d="M92.3216 133.0917
L91.4645 133.9488
" />
<path d="M92.9645 134.5917
L92.9645 133.5917
" />
<path d="M92.9645 133.0917
L92.8931 133.1631
" />
<path d="M92.8931 133.1631
L92.9645 133.2345
" />
<path d="M92.9645 133.2345
L93.0359 133.1631
" />
<path d="M93.0359 133.1631
L92.9645 133.0917
" />
<path d="M92.9645 133.0917
L92.9645 133.2345
" />
<path d="M94.5359 134.4488
L94.4645 134.5203
" />
<path d="M94.4645 134.5203
L94.2502 134.5917
" />
<path d="M94.2502 134.5917
L94.1074 134.5917
" />
<path d="M94.1074 134.5917
L93.8931 134.5203
" />
<path d="M93.8931 134.5203
L93.7502 134.3774
" />
<path d="M93.7502 134.3774
L93.6788 134.2345
" />
<path d="M93.6788 134.2345
L93.6074 133.9488
" />
<path d="M93.6074 133.9488
L93.6074 133.7345
" />
<path d="M93.6074 133.7345
L93.6788 133.4488
" />
<path d="M93.6788 133.4488
L93.7502 133.3060
" />
<path d="M93.7502 133.3060
L93.8931 133.1631
" />
<path d="M93.8931 133.1631
L94.1074 133.0917
" />
<path d="M94.1074 133.0917
L94.2502 133.0917
" />
<path d="M94.2502 133.0917
L94.4645 133.1631
" />
<path d="M94.4645 133.1631
L94.5359 133.2345
" />
<path d="M95.8217 134.5917
L95.8217 133.8060
" />
<path d="M95.8217 133.8060
L95.7502 133.6631
" />
<path d="M95.7502 133.6631
L95.6074 133.5917
" />
<path d="M95.6074 133.5917
L95.3217 133.5917
" />
<path d="M95.3217 133.5917
L95.1788 133.6631
" />
<path d="M95.8217 134.5203
L95.6788 134.5917
" />
<path d="M95.6788 134.5917
L95.3217 134.5917
" />
<path d="M95.3217 134.5917
L95.1788 134.5203
" />
<path d="M95.1788 134.5203
L95.1074 134.3774
" />
<path d="M95.1074 134.3774
L95.1074 134.2345
" />
<path d="M95.1074 134.2345
L95.1788 134.0917
" />
<path d="M95.1788 134.0917
L95.3217 134.0203
" />
<path d="M95.3217 134.0203
L95.6788 134.0203
" />
<path d="M95.6788 134.0203
L95.8217 133.9488
" />
<path d="M97.1788 134.5917
L97.1788 133.0917
" />
<path d="M97.1788 134.5203
L97.0359 134.5917
" />
<path d="M97.0359 134.5917
L96.7502 134.5917
" />
<path d="M96.7502 134.5917
L96.6073 134.5203
" />
<path d="M96.6073 134.5203
L96.5359 134.4488
" />
<path d="M96.5359 134.4488
L96.4645 134.3060
" />
<path d="M96.4645 134.3060
L96.4645 133.8774
" />
<path d="M96.4645 133.8774
L96.5359 133.7345
" />
<path d="M96.5359 133.7345
L96.6073 133.6631
" />
<path d="M96.6073 133.6631
L96.7502 133.5917
" />
<path d="M96.7502 133.5917
L97.0359 133.5917
" />
<path d="M97.0359 133.5917
L97.1788 133.6631
" />
<path d="M99.0359 133.8060
L99.5359 133.8060
" />
<path d="M99.7502 134.5917
L99.0359 134.5917
" />
<path d="M99.0359 134.5917
L99.0359 133.0917
" />
<path d="M99.0359 133.0917
L99.7502 133.0917
" />
<path d="M100.3930 134.4488
L100.4644 134.5203
" />
<path d="M100.4644 134.5203
L100.3930 134.5917
" />
<path d="M100.3930 134.5917
L100.3216 134.5203
" />
<path d="M100.3216 134.5203
L100.3930 134.4488
" />
<path d="M100.3930 134.4488
L100.3930 134.5917
" />
<path d="M101.1073 134.5917
L101.1073 133.0917
" />
<path d="M101.1073 133.0917
L101.4644 133.0917
" />
<path d="M101.4644 133.0917
L101.6787 133.1631
" />
<path d="M101.6787 133.1631
L101.8216 133.3060
" />
<path d="M101.8216 133.3060
L101.8930 133.4488
" />
<path d="M101.8930 133.4488
L101.9644 133.7345
" />
<path d="M101.9644 133.7345
L101.9644 133.9488
" />
<path d="M101.9644 133.9488
L101.8930 134.2345
" />
<path d="M101.8930 134.2345
L101.8216 134.3774
" />
<path d="M101.8216 134.3774
L101.6787 134.5203
" />
<path d="M101.6787 134.5203
L101.4644 134.5917
" />
<path d="M101.4644 134.5917
L101.1073 134.5917
" />
<path d="M102.6073 134.4488
L102.6787 134.5203
" />
<path d="M102.6787 134.5203
L102.6073 134.5917
" />
<path d="M102.6073 134.5917
L102.5359 134.5203
" />
<path d="M102.5359 134.5203
L102.6073 134.4488
" />
<path d="M102.6073 134.4488
L102.6073 134.5917
" />
<path d="M103.2502 134.1631
L103.9645 134.1631
" />
<path d="M103.1073 134.5917
L103.6073 133.0917
" />
<path d="M103.6073 133.0917
L104.1073 134.5917
" />
<path d="M104.6073 134.4488
L104.6787 134.5203
" />
<path d="M104.6787 134.5203
L104.6073 134.5917
" />
<path d="M104.6073 134.5917
L104.5359 134.5203
" />
<path d="M104.5359 134.5203
L104.6073 134.4488
" />
<path d="M104.6073 134.4488
L104.6073 134.5917
" />
<path d="M106.5359 134.5917
L106.8216 134.5917
" />
<path d="M106.8216 134.5917
L106.9645 134.5203
" />
<path d="M106.9645 134.5203
L107.0359 134.4488
" />
<path d="M107.0359 134.4488
L107.1788 134.2345
" />
<path d="M107.1788 134.2345
L107.2502 133.9488
" />
<path d="M107.2502 133.9488
L107.2502 133.3774
" />
<path d="M107.2502 133.3774
L107.1788 133.2345
" />
<path d="M107.1788 133.2345
L107.1074 133.1631
" />
<path d="M107.1074 133.1631
L106.9645 133.0917
" />
<path d="M106.9645 133.0917
L106.6788 133.0917
" />
<path d="M106.6788 133.0917
L106.5359 133.1631
" />
<path d="M106.5359 133.1631
L106.4645 133.2345
" />
<path d="M106.4645 133.2345
L106.3931 133.3774
" />
<path d="M106.3931 133.3774
L106.3931 133.7345
" />
<path d="M106.3931 133.7345
L106.4645 133.8774
" />
<path d="M106.4645 133.8774
L106.5359 133.9488
" />
<path d="M106.5359 133.9488
L106.6788 134.0203
" />
<path d="M106.6788 134.0203
L106.9645 134.0203
" />
<path d="M106.9645 134.0203
L107.1074 133.9488
" />
<path d="M107.1074 133.9488
L107.1788 133.8774
" />
<path d="M107.1788 133.8774
L107.2502 133.7345
" />
<path d="M107.8931 134.4488
L107.9645 134.5203
" />
<path d="M107.9645 134.5203
L107.8931 134.5917
" />
<path d="M107.8931 134.5917
L107.8217 134.5203
" />
<path d="M107.8217 134.5203
L107.8931 134.4488
" />
<path d="M107.8931 134.4488
L107.8931 134.5917
" />
<path d="M108.8931 133.0917
L109.0360 133.0917
" />
<path d="M109.0360 133.0917
L109.1788 133.1631
" />
<path d="M109.1788 133.1631
L109.2503 133.2345
" />
<path d="M109.2503 133.2345
L109.3217 133.3774
" />
<path d="M109.3217 133.3774
L109.3931 133.6631
" />
<path d="M109.3931 133.6631
L109.3931 134.0203
" />
<path d="M109.3931 134.0203
L109.3217 134.3060
" />
<path d="M109.3217 134.3060
L109.2503 134.4488
" />
<path d="M109.2503 134.4488
L109.1788 134.5203
" />
<path d="M109.1788 134.5203
L109.0360 134.5917
" />
<path d="M109.0360 134.5917
L108.8931 134.5917
" />
<path d="M108.8931 134.5917
L108.7503 134.5203
" />
<path d="M108.7503 134.5203
L108.6788 134.4488
" />
<path d="M108.6788 134.4488
L108.6074 134.3060
" />
<path d="M108.6074 134.3060
L108.5360 134.0203
" />
<path d="M108.5360 134.0203
L108.5360 133.6631
" />
<path d="M108.5360 133.6631
L108.6074 133.3774
" />
<path d="M108.6074 133.3774
L108.6788 133.2345
" />
<path d="M108.6788 133.2345
L108.7503 133.1631
" />
<path d="M108.7503 133.1631
L108.8931 133.0917
" />
<path d="M110.0360 134.4488
L110.1074 134.5203
" />
<path d="M110.1074 134.5203
L110.0360 134.5917
" />
<path d="M110.0360 134.5917
L109.9646 134.5203
" />
<path d="M109.9646 134.5203
L110.0360 134.4488
" />
<path d="M110.0360 134.4488
L110.0360 134.5917
" />
<path d="M111.3932 133.0917
L111.1074 133.0917
" />
<path d="M111.1074 133.0917
L110.9646 133.1631
" />
<path d="M110.9646 133.1631
L110.8932 133.2345
" />
<path d="M110.8932 133.2345
L110.7503 133.4488
" />
<path d="M110.7503 133.4488
L110.6789 133.7345
" />
<path d="M110.6789 133.7345
L110.6789 134.3060
" />
<path d="M110.6789 134.3060
L110.7503 134.4488
" />
<path d="M110.7503 134.4488
L110.8217 134.5203
" />
<path d="M110.8217 134.5203
L110.9646 134.5917
" />
<path d="M110.9646 134.5917
L111.2503 134.5917
" />
<path d="M111.2503 134.5917
L111.3932 134.5203
" />
<path d="M111.3932 134.5203
L111.4646 134.4488
" />
<path d="M111.4646 134.4488
L111.5360 134.3060
" />
<path d="M111.5360 134.3060
L111.5360 133.9488
" />
<path d="M111.5360 133.9488
L111.4646 133.8060
" />
<path d="M111.4646 133.8060
L111.3932 133.7345
" />
<path d="M111.3932 133.7345
L111.2503 133.6631
" />
<path d="M111.2503 133.6631
L110.9646 133.6631
" />
<path d="M110.9646 133.6631
L110.8217 133.7345
" />
<path d="M110.8217 133.7345
L110.7503 133.8060
" />
<path d="M110.7503 133.8060
L110.6789 133.9488
" />
</g><path d="M90.0072 129.5058
L198.0072 129.5058
" />
</g>
<g style="fill:none; 
stroke:#840000; stroke-width:0.3000; stroke-opacity:1; 
stroke-linecap:round; stroke-linejoin:round;">
<text x="176.0072" y="131.8558"
textLength="6.3858" font-size="2.0000" lengthAdjust="spacingAndGlyphs"
text-anchor="start" opacity="0" stroke-opacity="0">Rev: </text>
<g class="stroked-text"><desc>Rev: </desc>
<path d="M177.4187 131.7841
L176.9187 131.0698
" />
<path d="M176.5616 131.7841
L176.5616 130.2841
" />
<path d="M176.5616 130.2841
L177.1330 130.2841
" />
<path d="M177.1330 130.2841
L177.2759 130.3555
" />
<path d="M177.2759 130.3555
L177.3473 130.4269
" />
<path d="M177.3473 130.4269
L177.4187 130.5698
" />
<path d="M177.4187 130.5698
L177.4187 130.7841
" />
<path d="M177.4187 130.7841
L177.3473 130.9269
" />
<path d="M177.3473 130.9269
L177.2759 130.9984
" />
<path d="M177.2759 130.9984
L177.1330 131.0698
" />
<path d="M177.1330 131.0698
L176.5616 131.0698
" />
<path d="M178.6330 131.7127
L178.4902 131.7841
" />
<path d="M178.4902 131.7841
L178.2045 131.7841
" />
<path d="M178.2045 131.7841
L178.0616 131.7127
" />
<path d="M178.0616 131.7127
L177.9902 131.5698
" />
<path d="M177.9902 131.5698
L177.9902 130.9984
" />
<path d="M177.9902 130.9984
L178.0616 130.8555
" />
<path d="M178.0616 130.8555
L178.2045 130.7841
" />
<path d="M178.2045 130.7841
L178.4902 130.7841
" />
<path d="M178.4902 130.7841
L178.6330 130.8555
" />
<path d="M178.6330 130.8555
L178.7045 130.9984
" />
<path d="M178.7045 130.9984
L178.7045 131.1412
" />
<path d="M178.7045 131.1412
L177.9902 131.2841
" />
<path d="M179.2044 130.7841
L179.5616 131.7841
" />
<path d="M179.5616 131.7841
L179.9187 130.7841
" />
<path d="M180.4902 131.6412
L180.5616 131.7127
" />
<path d="M180.5616 131.7127
L180.4902 131.7841
" />
<path d="M180.4902 131.7841
L180.4188 131.7127
" />
<path d="M180.4188 131.7127
L180.4902 131.6412
" />
<path d="M180.4902 131.6412
L180.4902 131.7841
" />
<path d="M180.4902 130.8555
L180.5616 130.9269
" />
<path d="M180.5616 130.9269
L180.4902 130.9984
" />
<path d="M180.4902 130.9984
L180.4188 130.9269
" />
<path d="M180.4188 130.9269
L180.4902 130.8555
" />
<path d="M180.4902 130.8555
L180.4902 130.9984
" />
</g></g>
<g style="fill:none; 
stroke:#840000; stroke-width:0.1524; stroke-opacity:1; 
stroke-linecap:round; stroke-linejoin:round;">
<text x="91.0072" y="131.8558"
textLength="9.3716" font-size="2.0000" lengthAdjust="spacingAndGlyphs"
text-anchor="start" opacity="0" stroke-opacity="0">Size: A5</text>
<g class="stroked-text"><desc>Size: A5</desc>
<path d="M91.3931 131.7203
L91.6074 131.7917
" />
<path d="M91.6074 131.7917
L91.9645 131.7917
" />
<path d="M91.9645 131.7917
L92.1074 131.7203
" />
<path d="M92.1074 131.7203
L92.1788 131.6488
" />
<path d="M92.1788 131.6488
L92.2502 131.5060
" />
<path d="M92.2502 131.5060
L92.2502 131.3631
" />
<path d="M92.2502 131.3631
L92.1788 131.2203
" />
<path d="M92.1788 131.2203
L92.1074 131.1488
" />
<path d="M92.1074 131.1488
L91.9645 131.0774
" />
<path d="M91.9645 131.0774
L91.6788 131.0060
" />
<path d="M91.6788 131.0060
L91.5359 130.9345
" />
<path d="M91.5359 130.9345
L91.4645 130.8631
" />
<path d="M91.4645 130.8631
L91.3931 130.7203
" />
<path d="M91.3931 130.7203
L91.3931 130.5774
" />
<path d="M91.3931 130.5774
L91.4645 130.4345
" />
<path d="M91.4645 130.4345
L91.5359 130.3631
" />
<path d="M91.5359 130.3631
L91.6788 130.2917
" />
<path d="M91.6788 130.2917
L92.0359 130.2917
" />
<path d="M92.0359 130.2917
L92.2502 130.3631
" />
<path d="M92.8931 131.7917
L92.8931 130.7917
" />
<path d="M92.8931 130.2917
L92.8217 130.3631
" />
<path d="M92.8217 130.3631
L92.8931 130.4345
" />
<path d="M92.8931 130.4345
L92.9645 130.3631
" />
<path d="M92.9645 130.3631
L92.8931 130.2917
" />
<path d="M92.8931 130.2917
L92.8931 130.4345
" />
<path d="M93.4645 130.7917
L94.2503 130.7917
" />
<path d="M94.2503 130.7917
L93.4645 131.7917
" />
<path d="M93.4645 131.7917
L94.2503 131.7917
" />
<path d="M95.3931 131.7203
L95.2503 131.7917
" />
<path d="M95.2503 131.7917
L94.9646 131.7917
" />
<path d="M94.9646 131.7917
L94.8217 131.7203
" />
<path d="M94.8217 131.7203
L94.7503 131.5774
" />
<path d="M94.7503 131.5774
L94.7503 131.0060
" />
<path d="M94.7503 131.0060
L94.8217 130.8631
" />
<path d="M94.8217 130.8631
L94.9646 130.7917
" />
<path d="M94.9646 130.7917
L95.2503 130.7917
" />
<path d="M95.2503 130.7917
L95.3931 130.8631
" />
<path d="M95.3931 130.8631
L95.4646 131.0060
" />
<path d="M95.4646 131.0060
L95.4646 131.1488
" />
<path d="M95.4646 131.1488
L94.7503 131.2917
" />
<path d="M96.1074 131.6488
L96.1788 131.7203
" />
<path d="M96.1788 131.7203
L96.1074 131.7917
" />
<path d="M96.1074 131.7917
L96.0360 131.7203
" />
<path d="M96.0360 131.7203
L96.1074 131.6488
" />
<path d="M96.1074 131.6488
L96.1074 131.7917
" />
<path d="M96.1074 130.8631
L96.1788 130.9345
" />
<path d="M96.1788 130.9345
L96.1074 131.0060
" />
<path d="M96.1074 131.0060
L96.0360 130.9345
" />
<path d="M96.0360 130.9345
L96.1074 130.8631
" />
<path d="M96.1074 130.8631
L96.1074 131.0060
" />
<path d="M97.8932 131.3631
L98.6075 131.3631
" />
<path d="M97.7503 131.7917
L98.2503 130.2917
" />
<path d="M98.2503 130.2917
L98.7503 131.7917
" />
<path d="M99.9646 130.2917
L99.2503 130.2917
" />
<path d="M99.2503 130.2917
L99.1789 131.0060
" />
<path d="M99.1789 131.0060
L99.2503 130.9345
" />
<path d="M99.2503 130.9345
L99.3932 130.8631
" />
<path d="M99.3932 130.8631
L99.7503 130.8631
" />
<path d="M99.7503 130.8631
L99.8932 130.9345
" />
<path d="M99.8932 130.9345
L99.9646 131.0060
" />
<path d="M99.9646 131.0060
L100.0360 131.1488
" />
<path d="M100.0360 131.1488
L100.0360 131.5060
" />
<path d="M100.0360 131.5060
L99.9646 131.6488
" />
<path d="M99.9646 131.6488
L99.8932 131.7203
" />
<path d="M99.8932 131.7203
L99.7503 131.7917
" />
<path d="M99.7503 131.7917
L99.3932 131.7917
" />
<path d="M99.3932 131.7917
L99.2503 131.7203
" />
<path d="M99.2503 131.7203
L99.1789 131.6488
" />
</g><text x="176.0072" y="134.6558"
textLength="8.5144" font-size="2.0000" lengthAdjust="spacingAndGlyphs"
text-anchor="start" opacity="0" stroke-opacity="0">Id: 1/1</text>
<g class="stroked-text"><desc>Id: 1/1</desc>
<path d="M176.4645 134.5917
L176.4645 133.0917
" />
<path d="M177.8217 134.5917
L177.8217 133.0917
" />
<path d="M177.8217 134.5203
L177.6788 134.5917
" />
<path d="M177.6788 134.5917
L177.3931 134.5917
" />
<path d="M177.3931 134.5917
L177.2502 134.5203
" />
<path d="M177.2502 134.5203
L177.1788 134.4488
" />
<path d="M177.1788 134.4488
L177.1074 134.3060
" />
<path d="M177.1074 134.3060
L177.1074 133.8774
" />
<path d="M177.1074 133.8774
L177.1788 133.7345
" />
<path d="M177.1788 133.7345
L177.2502 133.6631
" />
<path d="M177.2502 133.6631
L177.3931 133.5917
" />
<path d="M177.3931 133.5917
L177.6788 133.5917
" />
<path d="M177.6788 133.5917
L177.8217 133.6631
" />
<path d="M178.5359 134.4488
L178.6073 134.5203
" />
<path d="M178.6073 134.5203
L178.5359 134.5917
" />
<path d="M178.5359 134.5917
L178.4645 134.5203
" />
<path d="M178.4645 134.5203
L178.5359 134.4488
" />
<path d="M178.5359 134.4488
L178.5359 134.5917
" />
<path d="M178.5359 133.6631
L178.6073 133.7345
" />
<path d="M178.6073 133.7345
L178.5359 133.8060
" />
<path d="M178.5359 133.8060
L178.4645 133.7345
" />
<path d="M178.4645 133.7345
L178.5359 133.6631
" />
<path d="M178.5359 133.6631
L178.5359 133.8060
" />
<path d="M181.1788 134.5917
L180.3217 134.5917
" />
<path d="M180.7502 134.5917
L180.7502 133.0917
" />
<path d="M180.7502 133.0917
L180.6074 133.3060
" />
<path d="M180.6074 133.3060
L180.4645 133.4488
" />
<path d="M180.4645 133.4488
L180.3217 133.5203
" />
<path d="M182.8931 133.0203
L181.6074 134.9488
" />
<path d="M184.1788 134.5917
L183.3217 134.5917
" />
<path d="M183.7502 134.5917
L183.7502 133.0917
" />
<path d="M183.7502 133.0917
L183.6074 133.3060
" />
<path d="M183.6074 133.3060
L183.4645 133.4488
" />
<path d="M183.4645 133.4488
L183.3217 133.5203
" />
</g><path d="M90.0072 125.5058
L198.0072 125.5058
" />
</g>
<g style="fill:none; 
stroke:#840000; stroke-width:0.4000; stroke-opacity:1; 
stroke-linecap:round; stroke-linejoin:round;">
<text x="91.0072" y="128.3058"
textLength="9.6572" font-size="2.6666" lengthAdjust="spacingAndGlyphs"
text-anchor="start" opacity="0" stroke-opacity="0">Title: </text>
<g class="stroked-text"><desc>Title: </desc>
<path d="M91.6988 126.2102
L92.8417 126.2102
" />
<path d="M92.0203 128.2102
L92.2703 126.2102
" />
<path d="M93.2583 128.2102
L93.4250 126.8769
" />
<path d="M93.5083 126.2102
L93.4012 126.3054
" />
<path d="M93.4012 126.3054
L93.4845 126.4007
" />
<path d="M93.4845 126.4007
L93.5917 126.3054
" />
<path d="M93.5917 126.3054
L93.5083 126.2102
" />
<path d="M93.5083 126.2102
L93.4845 126.4007
" />
<path d="M94.0917 126.8769
L94.8536 126.8769
" />
<path d="M94.4607 126.2102
L94.2465 127.9245
" />
<path d="M94.2465 127.9245
L94.3179 128.1150
" />
<path d="M94.3179 128.1150
L94.4965 128.2102
" />
<path d="M94.4965 128.2102
L94.6869 128.2102
" />
<path d="M95.6394 128.2102
L95.4608 128.1150
" />
<path d="M95.4608 128.1150
L95.3894 127.9245
" />
<path d="M95.3894 127.9245
L95.6036 126.2102
" />
<path d="M97.1750 128.1150
L96.9727 128.2102
" />
<path d="M96.9727 128.2102
L96.5917 128.2102
" />
<path d="M96.5917 128.2102
L96.4131 128.1150
" />
<path d="M96.4131 128.1150
L96.3417 127.9245
" />
<path d="M96.3417 127.9245
L96.4370 127.1626
" />
<path d="M96.4370 127.1626
L96.5560 126.9721
" />
<path d="M96.5560 126.9721
L96.7584 126.8769
" />
<path d="M96.7584 126.8769
L97.1393 126.8769
" />
<path d="M97.1393 126.8769
L97.3179 126.9721
" />
<path d="M97.3179 126.9721
L97.3893 127.1626
" />
<path d="M97.3893 127.1626
L97.3655 127.3530
" />
<path d="M97.3655 127.3530
L96.3893 127.5435
" />
<path d="M98.1393 128.0197
L98.2227 128.1150
" />
<path d="M98.2227 128.1150
L98.1155 128.2102
" />
<path d="M98.1155 128.2102
L98.0322 128.1150
" />
<path d="M98.0322 128.1150
L98.1393 128.0197
" />
<path d="M98.1393 128.0197
L98.1155 128.2102
" />
<path d="M98.2703 126.9721
L98.3536 127.0673
" />
<path d="M98.3536 127.0673
L98.2465 127.1626
" />
<path d="M98.2465 127.1626
L98.1632 127.0673
" />
<path d="M98.1632 127.0673
L98.2703 126.9721
" />
<path d="M98.2703 126.9721
L98.2465 127.1626
" />
</g></g>
<g style="fill:none; 
stroke:#840000; stroke-width:0.1524; stroke-opacity:1; 
stroke-linecap:round; stroke-linejoin:round;">
<text x="91.0072" y="124.4558"
textLength="24.8000" font-size="2.0000" lengthAdjust="spacingAndGlyphs"
text-anchor="start" opacity="0" stroke-opacity="0">File: villard.kicad_sch</text>
<g class="stroked-text"><desc>File: villard.kicad_sch</desc>
<path d="M91.9645 123.6060
L91.4645 123.6060
" />
<path d="M91.4645 124.3917
L91.4645 122.8917
" />
<path d="M91.4645 122.8917
L92.1788 122.8917
" />
<path d="M92.7502 124.3917
L92.7502 123.3917
" />
<path d="M92.7502 122.8917
L92.6788 122.9631
" />
<path d="M92.6788 122.9631
L92.7502 123.0345
" />
<path d="M92.7502 123.0345
L92.8216 122.9631
" />
<path d="M92.8216 122.9631
L92.7502 122.8917
" />
<path d="M92.7502 122.8917
L92.7502 123.0345
" />
<path d="M93.6788 124.3917
L93.5359 124.3203
" />
<path d="M93.5359 124.3203
L93.4645 124.1774
" />
<path d="M93.4645 124.1774
L93.4645 122.8917
" />
<path d="M94.8216 124.3203
L94.6788 124.3917
" />
<path d="M94.6788 124.3917
L94.3931 124.3917
" />
<path d="M94.3931 124.3917
L94.2502 124.3203
" />
<path d="M94.2502 124.3203
L94.1788 124.1774
" />
<path d="M94.1788 124.1774
L94.1788 123.6060
" />
<path d="M94.1788 123.6060
L94.2502 123.4631
" />
<path d="M94.2502 123.4631
L94.3931 123.3917
" />
<path d="M94.3931 123.3917
L94.6788 123.3917
" />
<path d="M94.6788 123.3917
L94.8216 123.4631
" />
<path d="M94.8216 123.4631
L94.8931 123.6060
" />
<path d="M94.8931 123.6060
L94.8931 123.7488
" />
<path d="M94.8931 123.7488
L94.1788 123.8917
" />
<path d="M95.5359 124.2488
L95.6073 124.3203
" />
<path d="M95.6073 124.3203
L95.5359 124.3917
" />
<path d="M95.5359 124.3917
L95.4645 124.3203
" />
<path d="M95.4645 124.3203
L95.5359 124.2488
" />
<path d="M95.5359 124.2488
L95.5359 124.3917
" />
<path d="M95.5359 123.4631
L95.6073 123.5345
" />
<path d="M95.6073 123.5345
L95.5359 123.6060
" />
<path d="M95.5359 123.6060
L95.4645 123.5345
" />
<path d="M95.4645 123.5345
L95.5359 123.4631
" />
<path d="M95.5359 123.4631
L95.5359 123.6060
" />
<path d="M97.2502 123.3917
L97.6074 124.3917
" />
<path d="M97.6074 124.3917
L97.9645 123.3917
" />
<path d="M98.5360 124.3917
L98.5360 123.3917
" />
<path d="M98.5360 122.8917
L98.4646 122.9631
" />
<path d="M98.4646 122.9631
L98.5360 123.0345
" />
<path d="M98.5360 123.0345
L98.6074 122.9631
" />
<path d="M98.6074 122.9631
L98.5360 122.8917
" />
<path d="M98.5360 122.8917
L98.5360 123.0345
" />
<path d="M99.4646 124.3917
L99.3217 124.3203
" />
<path d="M99.3217 124.3203
L99.2503 124.1774
" />
<path d="M99.2503 124.1774
L99.2503 122.8917
" />
<path d="M100.2503 124.3917
L100.1074 124.3203
" />
<path d="M100.1074 124.3203
L100.0360 124.1774
" />
<path d="M100.0360 124.1774
L100.0360 122.8917
" />
<path d="M101.4646 124.3917
L101.4646 123.6060
" />
<path d="M101.4646 123.6060
L101.3931 123.4631
" />
<path d="M101.3931 123.4631
L101.2503 123.3917
" />
<path d="M101.2503 123.3917
L100.9646 123.3917
" />
<path d="M100.9646 123.3917
L100.8217 123.4631
" />
<path d="M101.4646 124.3203
L101.3217 124.3917
" />
<path d="M101.3217 124.3917
L100.9646 124.3917
" />
<path d="M100.9646 124.3917
L100.8217 124.3203
" />
<path d="M100.8217 124.3203
L100.7503 124.1774
" />
<path d="M100.7503 124.1774
L100.7503 124.0345
" />
<path d="M100.7503 124.0345
L100.8217 123.8917
" />
<path d="M100.8217 123.8917
L100.9646 123.8203
" />
<path d="M100.9646 123.8203
L101.3217 123.8203
" />
<path d="M101.3217 123.8203
L101.4646 123.7488
" />
<path d="M102.1788 124.3917
L102.1788 123.3917
" />
<path d="M102.1788 123.6774
L102.2502 123.5345
" />
<path d="M102.2502 123.5345
L102.3217 123.4631
" />
<path d="M102.3217 123.4631
L102.4645 123.3917
" />
<path d="M102.4645 123.3917
L102.6074 123.3917
" />
<path d="M103.7503 124.3917
L103.7503 122.8917
" />
<path d="M103.7503 124.3203
L103.6074 124.3917
" />
<path d="M103.6074 124.3917
L103.3217 124.3917
" />
<path d="M103.3217 124.3917
L103.1788 124.3203
" />
<path d="M103.1788 124.3203
L103.1074 124.2488
" />
<path d="M103.1074 124.2488
L103.0360 124.1060
" />
<path d="M103.0360 124.1060
L103.0360 123.6774
" />
<path d="M103.0360 123.6774
L103.1074 123.5345
" />
<path d="M103.1074 123.5345
L103.1788 123.4631
" />
<path d="M103.1788 123.4631
L103.3217 123.3917
" />
<path d="M103.3217 123.3917
L103.6074 123.3917
" />
<path d="M103.6074 123.3917
L103.7503 123.4631
" />
<path d="M104.4645 124.2488
L104.5359 124.3203
" />
<path d="M104.5359 124.3203
L104.4645 124.3917
" />
<path d="M104.4645 124.3917
L104.3931 124.3203
" />
<path d="M104.3931 124.3203
L104.4645 124.2488
" />
<path d="M104.4645 124.2488
L104.4645 124.3917
" />
<path d="M105.1788 124.3917
L105.1788 122.8917
" />
<path d="M105.3217 123.8203
L105.7502 124.3917
" />
<path d="M105.7502 123.3917
L105.1788 123.9631
" />
<path d="M106.3931 124.3917
L106.3931 123.3917
" />
<path d="M106.3931 122.8917
L106.3217 122.9631
" />
<path d="M106.3217 122.9631
L106.3931 123.0345
" />
<path d="M106.3931 123.0345
L106.4645 122.9631
" />
<path d="M106.4645 122.9631
L106.3931 122.8917
" />
<path d="M106.3931 122.8917
L106.3931 123.0345
" />
<path d="M107.7503 124.3203
L107.6074 124.3917
" />
<path d="M107.6074 124.3917
L107.3217 124.3917
" />
<path d="M107.3217 124.3917
L107.1788 124.3203
" />
<path d="M107.1788 124.3203
L107.1074 124.2488
" />
<path d="M107.1074 124.2488
L107.0360 124.1060
" />
<path d="M107.0360 124.1060
L107.0360 123.6774
" />
<path d="M107.0360 123.6774
L107.1074 123.5345
" />
<path d="M107.1074 123.5345
L107.1788 123.4631
" />
<path d="M107.1788 123.4631
L107.3217 123.3917
" />
<path d="M107.3217 123.3917
L107.6074 123.3917
" />
<path d="M107.6074 123.3917
L107.7503 123.4631
" />
<path d="M109.0360 124.3917
L109.0360 123.6060
" />
<path d="M109.0360 123.6060
L108.9645 123.4631
" />
<path d="M108.9645 123.4631
L108.8217 123.3917
" />
<path d="M108.8217 123.3917
L108.5360 123.3917
" />
<path d="M108.5360 123.3917
L108.3931 123.4631
" />
<path d="M109.0360 124.3203
L108.8931 124.3917
" />
<path d="M108.8931 124.3917
L108.5360 124.3917
" />
<path d="M108.5360 124.3917
L108.3931 124.3203
" />
<path d="M108.3931 124.3203
L108.3217 124.1774
" />
<path d="M108.3217 124.1774
L108.3217 124.0345
" />
<path d="M108.3217 124.0345
L108.3931 123.8917
" />
<path d="M108.3931 123.8917
L108.5360 123.8203
" />
<path d="M108.5360 123.8203
L108.8931 123.8203
" />
<path d="M108.8931 123.8203
L109.0360 123.7488
" />
<path d="M110.3931 124.3917
L110.3931 122.8917
" />
<path d="M110.3931 124.3203
L110.2502 124.3917
" />
<path d="M110.2502 124.3917
L109.9645 124.3917
" />
<path d="M109.9645 124.3917
L109.8216 124.3203
" />
<path d="M109.8216 124.3203
L109.7502 124.2488
" />
<path d="M109.7502 124.2488
L109.6788 124.1060
" />
<path d="M109.6788 124.1060
L109.6788 123.6774
" />
<path d="M109.6788 123.6774
L109.7502 123.5345
" />
<path d="M109.7502 123.5345
L109.8216 123.4631
" />
<path d="M109.8216 123.4631
L109.9645 123.3917
" />
<path d="M109.9645 123.3917
L110.2502 123.3917
" />
<path d="M110.2502 123.3917
L110.3931 123.4631
" />
<path d="M110.7502 124.5345
L111.8930 124.5345
" />
<path d="M112.1788 124.3203
L112.3216 124.3917
" />
<path d="M112.3216 124.3917
L112.6073 124.3917
" />
<path d="M112.6073 124.3917
L112.7502 124.3203
" />
<path d="M112.7502 124.3203
L112.8216 124.1774
" />
<path d="M112.8216 124.1774
L112.8216 124.1060
" />
<path d="M112.8216 124.1060
L112.7502 123.9631
" />
<path d="M112.7502 123.9631
L112.6073 123.8917
" />
<path d="M112.6073 123.8917
L112.3931 123.8917
" />
<path d="M112.3931 123.8917
L112.2502 123.8203
" />
<path d="M112.2502 123.8203
L112.1788 123.6774
" />
<path d="M112.1788 123.6774
L112.1788 123.6060
" />
<path d="M112.1788 123.6060
L112.2502 123.4631
" />
<path d="M112.2502 123.4631
L112.3931 123.3917
" />
<path d="M112.3931 123.3917
L112.6073 123.3917
" />
<path d="M112.6073 123.3917
L112.7502 123.4631
" />
<path d="M114.1074 124.3203
L113.9645 124.3917
" />
<path d="M113.9645 124.3917
L113.6788 124.3917
" />
<path d="M113.6788 124.3917
L113.5359 124.3203
" />
<path d="M113.5359 124.3203
L113.4645 124.2488
" />
<path d="M113.4645 124.2488
L113.3931 124.1060
" />
<path d="M113.3931 124.1060
L113.3931 123.6774
" />
<path d="M113.3931 123.6774
L113.4645 123.5345
" />
<path d="M113.4645 123.5345
L113.5359 123.4631
" />
<path d="M113.5359 123.4631
L113.6788 123.3917
" />
<path d="M113.6788 123.3917
L113.9645 123.3917
" />
<path d="M113.9645 123.3917
L114.1074 123.4631
" />
<path d="M114.7502 124.3917
L114.7502 122.8917
" />
<path d="M115.3931 124.3917
L115.3931 123.6060
" />
<path d="M115.3931 123.6060
L115.3216 123.4631
" />
<path d="M115.3216 123.4631
L115.1788 123.3917
" />
<path d="M115.1788 123.3917
L114.9645 123.3917
" />
<path d="M114.9645 123.3917
L114.8216 123.4631
" />
<path d="M114.8216 123.4631
L114.7502 123.5345
" />
</g><path d="M90.0072 119.5058
L198.0072 119.5058
" />
<text x="91.0072" y="121.7558"
textLength="9.8000" font-size="2.0000" lengthAdjust="spacingAndGlyphs"
text-anchor="start" opacity="0" stroke-opacity="0">Sheet: /</text>
<g class="stroked-text"><desc>Sheet: /</desc>
<path d="M91.3931 121.6203
L91.6074 121.6917
" />
<path d="M91.6074 121.6917
L91.9645 121.6917
" />
<path d="M91.9645 121.6917
L92.1074 121.6203
" />
<path d="M92.1074 121.6203
L92.1788 121.5488
" />
<path d="M92.1788 121.5488
L92.2502 121.4060
" />
<path d="M92.2502 121.4060
L92.2502 121.2631
" />
<path d="M92.2502 121.2631
L92.1788 121.1203
" />
<path d="M92.1788 121.1203
L92.1074 121.0488
" />
<path d="M92.1074 121.0488
L91.9645 120.9774
" />
<path d="M91.9645 120.9774
L91.6788 120.9060
" />
<path d="M91.6788 120.9060
L91.5359 120.8345
" />
<path d="M91.5359 120.8345
L91.4645 120.7631
" />
<path d="M91.4645 120.7631
L91.3931 120.6203
" />
<path d="M91.3931 120.6203
L91.3931 120.4774
" />
<path d="M91.3931 120.4774
L91.4645 120.3345
" />
<path d="M91.4645 120.3345
L91.5359 120.2631
" />
<path d="M91.5359 120.2631
L91.6788 120.1917
" />
<path d="M91.6788 120.1917
L92.0359 120.1917
" />
<path d="M92.0359 120.1917
L92.2502 120.2631
" />
<path d="M92.8931 121.6917
L92.8931 120.1917
" />
<path d="M93.5360 121.6917
L93.5360 120.9060
" />
<path d="M93.5360 120.9060
L93.4645 120.7631
" />
<path d="M93.4645 120.7631
L93.3217 120.6917
" />
<path d="M93.3217 120.6917
L93.1074 120.6917
" />
<path d="M93.1074 120.6917
L92.9645 120.7631
" />
<path d="M92.9645 120.7631
L92.8931 120.8345
" />
<path d="M94.8216 121.6203
L94.6788 121.6917
" />
<path d="M94.6788 121.6917
L94.3931 121.6917
" />
<path d="M94.3931 121.6917
L94.2502 121.6203
" />
<path d="M94.2502 121.6203
L94.1788 121.4774
" />
<path d="M94.1788 121.4774
L94.1788 120.9060
" />
<path d="M94.1788 120.9060
L94.2502 120.7631
" />
<path d="M94.2502 120.7631
L94.3931 120.6917
" />
<path d="M94.3931 120.6917
L94.6788 120.6917
" />
<path d="M94.6788 120.6917
L94.8216 120.7631
" />
<path d="M94.8216 120.7631
L94.8931 120.9060
" />
<path d="M94.8931 120.9060
L94.8931 121.0488
" />
<path d="M94.8931 121.0488
L94.1788 121.1917
" />
<path d="M96.1073 121.6203
L95.9645 121.6917
" />
<path d="M95.9645 121.6917
L95.6788 121.6917
" />
<path d="M95.6788 121.6917
L95.5359 121.6203
" />
<path d="M95.5359 121.6203
L95.4645 121.4774
" />
<path d="M95.4645 121.4774
L95.4645 120.9060
" />
<path d="M95.4645 120.9060
L95.5359 120.7631
" />
<path d="M95.5359 120.7631
L95.6788 120.6917
" />
<path d="M95.6788 120.6917
L95.9645 120.6917
" />
<path d="M95.9645 120.6917
L96.1073 120.7631
" />
<path d="M96.1073 120.7631
L96.1788 120.9060
" />
<path d="M96.1788 120.9060
L96.1788 121.0488
" />
<path d="M96.1788 121.0488
L95.4645 121.1917
" />
<path d="M96.6073 120.6917
L97.1787 120.6917
" />
<path d="M96.8216 120.1917
L96.8216 121.4774
" />
<path d="M96.8216 121.4774
L96.8930 121.6203
" />
<path d="M96.8930 121.6203
L97.0359 121.6917
" />
<path d="M97.0359 121.6917
L97.1787 121.6917
" />
<path d="M97.6787 121.5488
L97.7501 121.6203
" />
<path d="M97.7501 121.6203
L97.6787 121.6917
" />
<path d="M97.6787 121.6917
L97.6073 121.6203
" />
<path d="M97.6073 121.6203
L97.6787 121.5488
" />
<path d="M97.6787 121.5488
L97.6787 121.6917
" />
<path d="M97.6787 120.7631
L97.7501 120.8345
" />
<path d="M97.7501 120.8345
L97.6787 120.9060
" />
<path d="M97.6787 120.9060
L97.6073 120.8345
" />
<path d="M97.6073 120.8345
L97.6787 120.7631
" />
<path d="M97.6787 120.7631
L97.6787 120.9060
" />
<path d="M100.6073 120.1203
L99.3216 122.0488
" />
</g></g>
<g style="fill:none; 
stroke:#840000; stroke-width:0.3000; stroke-opacity:1; 
stroke-linecap:round; stroke-linejoin:round;">
<text x="91.0072" y="118.7558"
textLength="0.9000" font-size="2.0000" lengthAdjust="spacingAndGlyphs"
text-anchor="start" opacity="0" stroke-opacity="0"></text>
<g class="stroked-text"><desc></desc>
</g></g>
<g style="fill:none; 
stroke:#840000; stroke-width:0.1524; stroke-opacity:1; 
stroke-linecap:round; stroke-linejoin:round;">
<text x="91.0072" y="115.7558"
textLength="0.4572" font-size="2.0000" lengthAdjust="spacingAndGlyphs"
text-anchor="start" opacity="0" stroke-opacity="0"></text>
<g class="stroked-text"><desc></desc>
</g><text x="91.0072" y="112.7558"
textLength="0.4572" font-size="2.0000" lengthAdjust="spacingAndGlyphs"
text-anchor="start" opacity="0" stroke-opacity="0"></text>
<g class="stroked-text"><desc></desc>
</g><text x="91.0072" y="109.7558"
textLength="0.4572" font-size="2.0000" lengthAdjust="spacingAndGlyphs"
text-anchor="start" opacity="0" stroke-opacity="0"></text>
<g class="stroked-text"><desc></desc>
</g><text x="91.0072" y="106.7558"
textLength="0.4572" font-size="2.0000" lengthAdjust="spacingAndGlyphs"
text-anchor="start" opacity="0" stroke-opacity="0"></text>
<g class="stroked-text"><desc></desc>
</g><path d="M110.0072 129.5058
L110.0072 132.5058
" />
<path d="M174.0072 129.5058
L174.0072 136.0058
" />
<path style="fill:none; 
stroke:#840000; stroke-width:0.1524; stroke-opacity:1; 
stroke-linecap:round; stroke-linejoin:round;fill:none"
d="M 20.3200,66.0400
20.3200,67.3100
21.5900,67.3100
20.3200,68.5800
19.0500,67.3100
20.3200,67.3100
" /> 
</g>
<g style="fill:none; 
stroke:#840000; stroke-width:0.1524; stroke-opacity:1; 
stroke-linecap:round; stroke-linejoin:round;">
<path d="M20.3200 66.0400
L20.3200 66.0400
" />
</g>
<g style="fill:none; 
stroke:#006464; stroke-width:0.1524; stroke-opacity:1; 
stroke-linecap:round; stroke-linejoin:round;">
<text x="20.3200" y="71.7550"
textLength="4.0737" font-size="1.6933" lengthAdjust="spacingAndGlyphs"
text-anchor="middle" opacity="0" stroke-opacity="0">GND</text>
<g class="stroked-text"><desc>GND</desc>
<path d="M19.3524 70.4900
L19.2314 70.4295
" />
<path d="M19.2314 70.4295
L19.0500 70.4295
" />
<path d="M19.0500 70.4295
L18.8686 70.4900
" />
<path d="M18.8686 70.4900
L18.7476 70.6110
" />
<path d="M18.7476 70.6110
L18.6871 70.7319
" />
<path d="M18.6871 70.7319
L18.6267 70.9738
" />
<path d="M18.6267 70.9738
L18.6267 71.1552
" />
<path d="M18.6267 71.1552
L18.6871 71.3971
" />
<path d="M18.6871 71.3971
L18.7476 71.5181
" />
<path d="M18.7476 71.5181
L18.8686 71.6391
" />
<path d="M18.8686 71.6391
L19.0500 71.6995
" />
<path d="M19.0500 71.6995
L19.1709 71.6995
" />
<path d="M19.1709 71.6995
L19.3524 71.6391
" />
<path d="M19.3524 71.6391
L19.4128 71.5786
" />
<path d="M19.4128 71.5786
L19.4128 71.1552
" />
<path d="M19.4128 71.1552
L19.1709 71.1552
" />
<path d="M19.9571 71.6995
L19.9571 70.4295
" />
<path d="M19.9571 70.4295
L20.6828 71.6995
" />
<path d="M20.6828 71.6995
L20.6828 70.4295
" />
<path d="M21.2876 71.6995
L21.2876 70.4295
" />
<path d="M21.2876 70.4295
L21.5900 70.4295
" />
<path d="M21.5900 70.4295
L21.7714 70.4900
" />
<path d="M21.7714 70.4900
L21.8924 70.6110
" />
<path d="M21.8924 70.6110
L21.9529 70.7319
" />
<path d="M21.9529 70.7319
L22.0133 70.9738
" />
<path d="M22.0133 70.9738
L22.0133 71.1552
" />
<path d="M22.0133 71.1552
L21.9529 71.3971
" />
<path d="M21.9529 71.3971
L21.8924 71.5181
" />
<path d="M21.8924 71.5181
L21.7714 71.6391
" />
<path d="M21.7714 71.6391
L21.5900 71.6995
" />
<path d="M21.5900 71.6995
L21.2876 71.6995
" />
</g></g>
<g style="fill:#FFFFC2; fill-opacity:1.0000; stroke:none;">
<circle cx="20.3200" cy="41.9100" r="2.5400" /> 
</g>
<g style="fill:none; 
stroke:#840000; stroke-width:0.1524; stroke-opacity:1; 
stroke-linecap:round; stroke-linejoin:round;">
<path d="M20.3200 41.9100 A0.6350 0.6350 0.0 0 0 19.0500 41.9100" />
<path d="M20.3200 41.9099 A0.6350 0.6350 0.0 0 0 21.5900 41.9099" />
</g>
<g style="fill:none; 
stroke:#840000; stroke-width:0.2540; stroke-opacity:1; 
stroke-linecap:round; stroke-linejoin:round;">
<circle cx="20.3200" cy="41.9100" r="2.5400" /> 
</g>
<g style="fill:none; 
stroke:#840000; stroke-width:0.1524; stroke-opacity:1; 
stroke-linecap:round; stroke-linejoin:round;">
<text x="20.3200" y="40.6400"
textLength="1.7756" font-size="1.6933" lengthAdjust="spacingAndGlyphs"
text-anchor="middle" opacity="0" stroke-opacity="0">+</text>
<g class="stroked-text"><desc>+</desc>
<path d="M19.8361 40.1007
L20.8038 40.1007
" />
<path d="M20.3199 40.5845
L20.3199 39.6169
" />
</g><path d="M20.3200 39.3700
L20.3200 36.8300
" />
<path d="M20.3200 44.4500
L20.3200 46.9900
" />
</g>
<g style="fill:none; 
stroke:#006464; stroke-width:0.1524; stroke-opacity:1; 
stroke-linecap:round; stroke-linejoin:round;">
<text x="25.3902" y="39.8751"
textLength="2.5013" font-size="1.6933" lengthAdjust="spacingAndGlyphs"
text-anchor="middle" opacity="0" stroke-opacity="0">V1</text>
<g class="stroked-text"><desc>V1</desc>
<path d="M24.3621 38.5496
L24.7854 39.8196
" />
<path d="M24.7854 39.8196
L25.2088 38.5496
" />
<path d="M26.2974 39.8196
L25.5717 39.8196
" />
<path d="M25.9345 39.8196
L25.9345 38.5496
" />
<path d="M25.9345 38.5496
L25.8136 38.7311
" />
<path d="M25.8136 38.7311
L25.6926 38.8520
" />
<path d="M25.6926 38.8520
L25.5717 38.9125
" />
</g><text x="26.3579" y="42.4151"
textLength="4.4366" font-size="1.6933" lengthAdjust="spacingAndGlyphs"
text-anchor="middle" opacity="0" stroke-opacity="0">VSIN</text>
<g class="stroked-text"><desc>VSIN</desc>
<path d="M24.3621 41.0896
L24.7854 42.3596
" />
<path d="M24.7854 42.3596
L25.2088 41.0896
" />
<path d="M25.5717 42.2992
L25.7531 42.3596
" />
<path d="M25.7531 42.3596
L26.0555 42.3596
" />
<path d="M26.0555 42.3596
L26.1764 42.2992
" />
<path d="M26.1764 42.2992
L26.2369 42.2387
" />
<path d="M26.2369 42.2387
L26.2974 42.1177
" />
<path d="M26.2974 42.1177
L26.2974 41.9968
" />
<path d="M26.2974 41.9968
L26.2369 41.8758
" />
<path d="M26.2369 41.8758
L26.1764 41.8153
" />
<path d="M26.1764 41.8153
L26.0555 41.7549
" />
<path d="M26.0555 41.7549
L25.8136 41.6944
" />
<path d="M25.8136 41.6944
L25.6926 41.6339
" />
<path d="M25.6926 41.6339
L25.6321 41.5734
" />
<path d="M25.6321 41.5734
L25.5717 41.4525
" />
<path d="M25.5717 41.4525
L25.5717 41.3315
" />
<path d="M25.5717 41.3315
L25.6321 41.2106
" />
<path d="M25.6321 41.2106
L25.6926 41.1501
" />
<path d="M25.6926 41.1501
L25.8136 41.0896
" />
<path d="M25.8136 41.0896
L26.1159 41.0896
" />
<path d="M26.1159 41.0896
L26.2974 41.1501
" />
<path d="M26.8416 42.3596
L26.8416 41.0896
" />
<path d="M27.4464 42.3596
L27.4464 41.0896
" />
<path d="M27.4464 41.0896
L28.1721 42.3596
" />
<path d="M28.1721 42.3596
L28.1721 41.0896
" />
</g></g>
<g style="fill:none; 
stroke:#840084; stroke-width:0.1524; stroke-opacity:1; 
stroke-linecap:round; stroke-linejoin:round;">
<text x="36.6991" y="44.9551"
textLength="25.1191" font-size="1.6933" lengthAdjust="spacingAndGlyphs"
text-anchor="middle" opacity="0" stroke-opacity="0">dc=0 ampl=5 f=1k ac=1</text>
<g class="stroked-text"><desc>dc=0 ampl=5 f=1k ac=1</desc>
<path d="M25.0878 44.8996
L25.0878 43.6296
" />
<path d="M25.0878 44.8392
L24.9669 44.8996
" />
<path d="M24.9669 44.8996
L24.7250 44.8996
" />
<path d="M24.7250 44.8996
L24.6040 44.8392
" />
<path d="M24.6040 44.8392
L24.5435 44.7787
" />
<path d="M24.5435 44.7787
L24.4831 44.6577
" />
<path d="M24.4831 44.6577
L24.4831 44.2949
" />
<path d="M24.4831 44.2949
L24.5435 44.1739
" />
<path d="M24.5435 44.1739
L24.6040 44.1134
" />
<path d="M24.6040 44.1134
L24.7250 44.0530
" />
<path d="M24.7250 44.0530
L24.9669 44.0530
" />
<path d="M24.9669 44.0530
L25.0878 44.1134
" />
<path d="M26.2368 44.8392
L26.1159 44.8996
" />
<path d="M26.1159 44.8996
L25.8740 44.8996
" />
<path d="M25.8740 44.8996
L25.7530 44.8392
" />
<path d="M25.7530 44.8392
L25.6925 44.7787
" />
<path d="M25.6925 44.7787
L25.6321 44.6577
" />
<path d="M25.6321 44.6577
L25.6321 44.2949
" />
<path d="M25.6321 44.2949
L25.6925 44.1739
" />
<path d="M25.6925 44.1739
L25.7530 44.1134
" />
<path d="M25.7530 44.1134
L25.8740 44.0530
" />
<path d="M25.8740 44.0530
L26.1159 44.0530
" />
<path d="M26.1159 44.0530
L26.2368 44.1134
" />
<path d="M26.7811 44.2344
L27.7488 44.2344
" />
<path d="M27.7488 44.5972
L26.7811 44.5972
" />
<path d="M28.5954 43.6296
L28.7164 43.6296
" />
<path d="M28.7164 43.6296
L28.8373 43.6901
" />
<path d="M28.8373 43.6901
L28.8978 43.7506
" />
<path d="M28.8978 43.7506
L28.9583 43.8715
" />
<path d="M28.9583 43.8715
L29.0188 44.1134
" />
<path d="M29.0188 44.1134
L29.0188 44.4158
" />
<path d="M29.0188 44.4158
L28.9583 44.6577
" />
<path d="M28.9583 44.6577
L28.8978 44.7787
" />
<path d="M28.8978 44.7787
L28.8373 44.8392
" />
<path d="M28.8373 44.8392
L28.7164 44.8996
" />
<path d="M28.7164 44.8996
L28.5954 44.8996
" />
<path d="M28.5954 44.8996
L28.4745 44.8392
" />
<path d="M28.4745 44.8392
L28.4140 44.7787
" />
<path d="M28.4140 44.7787
L28.3535 44.6577
" />
<path d="M28.3535 44.6577
L28.2931 44.4158
" />
<path d="M28.2931 44.4158
L28.2931 44.1134
" />
<path d="M28.2931 44.1134
L28.3535 43.8715
" />
<path d="M28.3535 43.8715
L28.4140 43.7506
" />
<path d="M28.4140 43.7506
L28.4745 43.6901
" />
<path d="M28.4745 43.6901
L28.5954 43.6296
" />
<path d="M31.0749 44.8996
L31.0749 44.2344
" />
<path d="M31.0749 44.2344
L31.0144 44.1134
" />
<path d="M31.0144 44.1134
L30.8935 44.0530
" />
<path d="M30.8935 44.0530
L30.6516 44.0530
" />
<path d="M30.6516 44.0530
L30.5306 44.1134
" />
<path d="M31.0749 44.8392
L30.9540 44.8996
" />
<path d="M30.9540 44.8996
L30.6516 44.8996
" />
<path d="M30.6516 44.8996
L30.5306 44.8392
" />
<path d="M30.5306 44.8392
L30.4702 44.7182
" />
<path d="M30.4702 44.7182
L30.4702 44.5972
" />
<path d="M30.4702 44.5972
L30.5306 44.4763
" />
<path d="M30.5306 44.4763
L30.6516 44.4158
" />
<path d="M30.6516 44.4158
L30.9540 44.4158
" />
<path d="M30.9540 44.4158
L31.0749 44.3553
" />
<path d="M31.6796 44.8996
L31.6796 44.0530
" />
<path d="M31.6796 44.1739
L31.7401 44.1134
" />
<path d="M31.7401 44.1134
L31.8611 44.0530
" />
<path d="M31.8611 44.0530
L32.0425 44.0530
" />
<path d="M32.0425 44.0530
L32.1634 44.1134
" />
<path d="M32.1634 44.1134
L32.2239 44.2344
" />
<path d="M32.2239 44.2344
L32.2239 44.8996
" />
<path d="M32.2239 44.2344
L32.2844 44.1134
" />
<path d="M32.2844 44.1134
L32.4053 44.0530
" />
<path d="M32.4053 44.0530
L32.5868 44.0530
" />
<path d="M32.5868 44.0530
L32.7077 44.1134
" />
<path d="M32.7077 44.1134
L32.7682 44.2344
" />
<path d="M32.7682 44.2344
L32.7682 44.8996
" />
<path d="M33.3729 44.0530
L33.3729 45.3230
" />
<path d="M33.3729 44.1134
L33.4939 44.0530
" />
<path d="M33.4939 44.0530
L33.7358 44.0530
" />
<path d="M33.7358 44.0530
L33.8567 44.1134
" />
<path d="M33.8567 44.1134
L33.9172 44.1739
" />
<path d="M33.9172 44.1739
L33.9777 44.2949
" />
<path d="M33.9777 44.2949
L33.9777 44.6577
" />
<path d="M33.9777 44.6577
L33.9172 44.7787
" />
<path d="M33.9172 44.7787
L33.8567 44.8392
" />
<path d="M33.8567 44.8392
L33.7358 44.8996
" />
<path d="M33.7358 44.8996
L33.4939 44.8996
" />
<path d="M33.4939 44.8996
L33.3729 44.8392
" />
<path d="M34.7034 44.8996
L34.5824 44.8392
" />
<path d="M34.5824 44.8392
L34.5219 44.7182
" />
<path d="M34.5219 44.7182
L34.5219 43.6296
" />
<path d="M35.1871 44.2344
L36.1548 44.2344
" />
<path d="M36.1548 44.5972
L35.1871 44.5972
" />
<path d="M37.3643 43.6296
L36.7595 43.6296
" />
<path d="M36.7595 43.6296
L36.6991 44.2344
" />
<path d="M36.6991 44.2344
L36.7595 44.1739
" />
<path d="M36.7595 44.1739
L36.8805 44.1134
" />
<path d="M36.8805 44.1134
L37.1829 44.1134
" />
<path d="M37.1829 44.1134
L37.3038 44.1739
" />
<path d="M37.3038 44.1739
L37.3643 44.2344
" />
<path d="M37.3643 44.2344
L37.4248 44.3553
" />
<path d="M37.4248 44.3553
L37.4248 44.6577
" />
<path d="M37.4248 44.6577
L37.3643 44.7787
" />
<path d="M37.3643 44.7787
L37.3038 44.8392
" />
<path d="M37.3038 44.8392
L37.1829 44.8996
" />
<path d="M37.1829 44.8996
L36.8805 44.8996
" />
<path d="M36.8805 44.8996
L36.7595 44.8392
" />
<path d="M36.7595 44.8392
L36.6991 44.7787
" />
<path d="M38.7552 44.0530
L39.2390 44.0530
" />
<path d="M38.9366 44.8996
L38.9366 43.8111
" />
<path d="M38.9366 43.8111
L38.9971 43.6901
" />
<path d="M38.9971 43.6901
L39.1181 43.6296
" />
<path d="M39.1181 43.6296
L39.2390 43.6296
" />
<path d="M39.6623 44.2344
L40.6300 44.2344
" />
<path d="M40.6300 44.5972
L39.6623 44.5972
" />
<path d="M41.9000 44.8996
L41.1743 44.8996
" />
<path d="M41.5371 44.8996
L41.5371 43.6296
" />
<path d="M41.5371 43.6296
L41.4162 43.8111
" />
<path d="M41.4162 43.8111
L41.2952 43.9320
" />
<path d="M41.2952 43.9320
L41.1743 43.9925
" />
<path d="M42.4442 44.8996
L42.4442 43.6296
" />
<path d="M42.5652 44.4158
L42.9280 44.8996
" />
<path d="M42.9280 44.0530
L42.4442 44.5368
" />
<path d="M44.9842 44.8996
L44.9842 44.2344
" />
<path d="M44.9842 44.2344
L44.9237 44.1134
" />
<path d="M44.9237 44.1134
L44.8028 44.0530
" />
<path d="M44.8028 44.0530
L44.5609 44.0530
" />
<path d="M44.5609 44.0530
L44.4399 44.1134
" />
<path d="M44.9842 44.8392
L44.8633 44.8996
" />
<path d="M44.8633 44.8996
L44.5609 44.8996
" />
<path d="M44.5609 44.8996
L44.4399 44.8392
" />
<path d="M44.4399 44.8392
L44.3795 44.7182
" />
<path d="M44.3795 44.7182
L44.3795 44.5972
" />
<path d="M44.3795 44.5972
L44.4399 44.4763
" />
<path d="M44.4399 44.4763
L44.5609 44.4158
" />
<path d="M44.5609 44.4158
L44.8633 44.4158
" />
<path d="M44.8633 44.4158
L44.9842 44.3553
" />
<path d="M46.1332 44.8392
L46.0123 44.8996
" />
<path d="M46.0123 44.8996
L45.7704 44.8996
" />
<path d="M45.7704 44.8996
L45.6494 44.8392
" />
<path d="M45.6494 44.8392
L45.5889 44.7787
" />
<path d="M45.5889 44.7787
L45.5285 44.6577
" />
<path d="M45.5285 44.6577
L45.5285 44.2949
" />
<path d="M45.5285 44.2949
L45.5889 44.1739
" />
<path d="M45.5889 44.1739
L45.6494 44.1134
" />
<path d="M45.6494 44.1134
L45.7704 44.0530
" />
<path d="M45.7704 44.0530
L46.0123 44.0530
" />
<path d="M46.0123 44.0530
L46.1332 44.1134
" />
<path d="M46.6775 44.2344
L47.6452 44.2344
" />
<path d="M47.6452 44.5972
L46.6775 44.5972
" />
<path d="M48.9152 44.8996
L48.1895 44.8996
" />
<path d="M48.5523 44.8996
L48.5523 43.6296
" />
<path d="M48.5523 43.6296
L48.4314 43.8111
" />
<path d="M48.4314 43.8111
L48.3104 43.9320
" />
<path d="M48.3104 43.9320
L48.1895 43.9925
" />
</g><path style="fill:none; 
stroke:#840000; stroke-width:0.5080; stroke-opacity:1; 
stroke-linecap:round; stroke-linejoin:round;fill:none"
d="M 43.6880,26.1620
43.6880,22.0980
" /> 
<path style="fill:none; 
stroke:#840000; stroke-width:0.5080; stroke-opacity:1; 
stroke-linecap:round; stroke-linejoin:round;fill:none"
d="M 45.2120,26.1620
45.2120,22.0980
" /> 
</g>
<g style="fill:none; 
stroke:#840000; stroke-width:0.1524; stroke-opacity:1; 
stroke-linecap:round; stroke-linejoin:round;">
<path d="M43.4340 24.1300
L40.6400 24.1300
" />
<path d="M45.4660 24.1300
L48.2600 24.1300
" />
</g>
<g style="fill:none; 
stroke:#006464; stroke-width:0.1524; stroke-opacity:1; 
stroke-linecap:round; stroke-linejoin:round;">
<text x="44.4499" y="17.1449"
textLength="2.6827" font-size="1.6933" lengthAdjust="spacingAndGlyphs"
text-anchor="middle" opacity="0" stroke-opacity="0">C1</text>
<g class="stroked-text"><desc>C1</desc>
<path d="M44.2382 16.9685
L44.1778 17.0290
" />
<path d="M44.1778 17.0290
L43.9963 17.0894
" />
<path d="M43.9963 17.0894
L43.8754 17.0894
" />
<path d="M43.8754 17.0894
L43.6940 17.0290
" />
<path d="M43.6940 17.0290
L43.5730 16.9080
" />
<path d="M43.5730 16.9080
L43.5125 16.7870
" />
<path d="M43.5125 16.7870
L43.4521 16.5451
" />
<path d="M43.4521 16.5451
L43.4521 16.3637
" />
<path d="M43.4521 16.3637
L43.5125 16.1218
" />
<path d="M43.5125 16.1218
L43.5730 16.0009
" />
<path d="M43.5730 16.0009
L43.6940 15.8799
" />
<path d="M43.6940 15.8799
L43.8754 15.8194
" />
<path d="M43.8754 15.8194
L43.9963 15.8194
" />
<path d="M43.9963 15.8194
L44.1778 15.8799
" />
<path d="M44.1778 15.8799
L44.2382 15.9404
" />
<path d="M45.4478 17.0894
L44.7221 17.0894
" />
<path d="M45.0849 17.0894
L45.0849 15.8194
" />
<path d="M45.0849 15.8194
L44.9640 16.0009
" />
<path d="M44.9640 16.0009
L44.8430 16.1218
" />
<path d="M44.8430 16.1218
L44.7221 16.1823
" />
</g><text x="44.4499" y="19.6849"
textLength="2.5617" font-size="1.6933" lengthAdjust="spacingAndGlyphs"
text-anchor="middle" opacity="0" stroke-opacity="0">1u</text>
<g class="stroked-text"><desc>1u</desc>
<path d="M44.2383 19.6294
L43.5126 19.6294
" />
<path d="M43.8754 19.6294
L43.8754 18.3594
" />
<path d="M43.8754 18.3594
L43.7545 18.5409
" />
<path d="M43.7545 18.5409
L43.6335 18.6618
" />
<path d="M43.6335 18.6618
L43.5126 18.7223
" />
<path d="M45.3268 18.7828
L45.3268 19.6294
" />
<path d="M44.7825 18.7828
L44.7825 19.4480
" />
<path d="M44.7825 19.4480
L44.8430 19.5690
" />
<path d="M44.8430 19.5690
L44.9640 19.6294
" />
<path d="M44.9640 19.6294
L45.1454 19.6294
" />
<path d="M45.1454 19.6294
L45.2663 19.5690
" />
<path d="M45.2663 19.5690
L45.3268 19.5085
" />
</g></g>
<g style="fill:none; 
stroke:#840000; stroke-width:0.2540; stroke-opacity:1; 
stroke-linecap:round; stroke-linejoin:round;">
<rect x="75.184000" y="40.640000" width="2.032000" height="5.080000" rx="0.000000" />
</g>
<g style="fill:none; 
stroke:#840000; stroke-width:0.1524; stroke-opacity:1; 
stroke-linecap:round; stroke-linejoin:round;">
<path d="M76.2000 40.6400
L76.2000 39.3700
" />
<path d="M76.2000 45.7200
L76.2000 46.9900
" />
</g>
<g style="fill:none; 
stroke:#006464; stroke-width:0.1524; stroke-opacity:1; 
stroke-linecap:round; stroke-linejoin:round;">
<text x="80.0909" y="42.5449"
textLength="2.6827" font-size="1.6933" lengthAdjust="spacingAndGlyphs"
text-anchor="middle" opacity="0" stroke-opacity="0">R1</text>
<g class="stroked-text"><desc>R1</desc>
<path d="M79.8792 42.4894
L79.4559 41.8847
" />
<path d="M79.1535 42.4894
L79.1535 41.2194
" />
<path d="M79.1535 41.2194
L79.6373 41.2194
" />
<path d="M79.6373 41.2194
L79.7583 41.2799
" />
<path d="M79.7583 41.2799
L79.8188 41.3404
" />
<path d="M79.8188 41.3404
L79.8792 41.4613
" />
<path d="M79.8792 41.4613
L79.8792 41.6428
" />
<path d="M79.8792 41.6428
L79.8188 41.7637
" />
<path d="M79.8188 41.7637
L79.7583 41.8242
" />
<path d="M79.7583 41.8242
L79.6373 41.8847
" />
<path d="M79.6373 41.8847
L79.1535 41.8847
" />
<path d="M81.0888 42.4894
L80.3631 42.4894
" />
<path d="M80.7259 42.4894
L80.7259 41.2194
" />
<path d="M80.7259 41.2194
L80.6050 41.4009
" />
<path d="M80.6050 41.4009
L80.4840 41.5218
" />
<path d="M80.4840 41.5218
L80.3631 41.5823
" />
</g><text x="80.8771" y="45.0849"
textLength="4.2551" font-size="1.6933" lengthAdjust="spacingAndGlyphs"
text-anchor="middle" opacity="0" stroke-opacity="0">4.7k</text>
<g class="stroked-text"><desc>4.7k</desc>
<path d="M79.6978 44.1828
L79.6978 45.0294
" />
<path d="M79.3954 43.6990
L79.0931 44.6061
" />
<path d="M79.0931 44.6061
L79.8792 44.6061
" />
<path d="M80.3630 44.9085
L80.4235 44.9690
" />
<path d="M80.4235 44.9690
L80.3630 45.0294
" />
<path d="M80.3630 45.0294
L80.3026 44.9690
" />
<path d="M80.3026 44.9690
L80.3630 44.9085
" />
<path d="M80.3630 44.9085
L80.3630 45.0294
" />
<path d="M80.8469 43.7594
L81.6935 43.7594
" />
<path d="M81.6935 43.7594
L81.1493 45.0294
" />
<path d="M82.1773 45.0294
L82.1773 43.7594
" />
<path d="M82.2983 44.5456
L82.6611 45.0294
" />
<path d="M82.6611 44.1828
L82.1773 44.6666
" />
</g><path style="fill:none; 
stroke:#840000; stroke-width:0.2540; stroke-opacity:1; 
stroke-linecap:round; stroke-linejoin:round;fill:none"
d="M 57.1500,41.9100
54.6100,41.9100
" /> 
<path style="fill:none; 
stroke:#840000; stroke-width:0.2540; stroke-opacity:1; 
stroke-linecap:round; stroke-linejoin:round;fill:none"
d="M 57.1500,44.4500
54.6100,44.4500
55.8800,41.9100
Z" /> 
<path style="fill:none; 
stroke:#840000; stroke-width:0.1524; stroke-opacity:1; 
stroke-linecap:round; stroke-linejoin:round;fill:none"
d="M 55.8800,44.4500
55.8800,41.9100
" /> 
</g>
<g style="fill:none; 
stroke:#840000; stroke-width:0.1524; stroke-opacity:1; 
stroke-linecap:round; stroke-linejoin:round;">
<path d="M55.8800 41.9100
L55.8800 39.3700
" />
<path d="M55.8800 44.4500
L55.8800 46.9900
" />
</g>
<g style="fill:none; 
stroke:#006464; stroke-width:0.1524; stroke-opacity:1; 
stroke-linecap:round; stroke-linejoin:round;">
<text x="59.7709" y="42.5449"
textLength="2.6827" font-size="1.6933" lengthAdjust="spacingAndGlyphs"
text-anchor="middle" opacity="0" stroke-opacity="0">D1</text>
<g class="stroked-text"><desc>D1</desc>
<path d="M58.8335 42.4894
L58.8335 41.2194
" />
<path d="M58.8335 41.2194
L59.1359 41.2194
" />
<path d="M59.1359 41.2194
L59.3173 41.2799
" />
<path d="M59.3173 41.2799
L59.4383 41.4009
" />
<path d="M59.4383 41.4009
L59.4988 41.5218
" />
<path d="M59.4988 41.5218
L59.5592 41.7637
" />
<path d="M59.5592 41.7637
L59.5592 41.9451
" />
<path d="M59.5592 41.9451
L59.4988 42.1870
" />
<path d="M59.4988 42.1870
L59.4383 42.3080
" />
<path d="M59.4383 42.3080
L59.3173 42.4290
" />
<path d="M59.3173 42.4290
L59.1359 42.4894
" />
<path d="M59.1359 42.4894
L58.8335 42.4894
" />
<path d="M60.7688 42.4894
L60.0431 42.4894
" />
<path d="M60.4059 42.4894
L60.4059 41.2194
" />
<path d="M60.4059 41.2194
L60.2850 41.4009
" />
<path d="M60.2850 41.4009
L60.1640 41.5218
" />
<path d="M60.1640 41.5218
L60.0431 41.5823
" />
</g><text x="62.2202" y="45.0849"
textLength="7.5812" font-size="1.6933" lengthAdjust="spacingAndGlyphs"
text-anchor="middle" opacity="0" stroke-opacity="0">1N4001</text>
<g class="stroked-text"><desc>1N4001</desc>
<path d="M59.4988 45.0294
L58.7731 45.0294
" />
<path d="M59.1359 45.0294
L59.1359 43.7594
" />
<path d="M59.1359 43.7594
L59.0150 43.9409
" />
<path d="M59.0150 43.9409
L58.8940 44.0618
" />
<path d="M58.8940 44.0618
L58.7731 44.1223
" />
<path d="M60.0430 45.0294
L60.0430 43.7594
" />
<path d="M60.0430 43.7594
L60.7687 45.0294
" />
<path d="M60.7687 45.0294
L60.7687 43.7594
" />
<path d="M61.9178 44.1828
L61.9178 45.0294
" />
<path d="M61.6154 43.6990
L61.3131 44.6061
" />
<path d="M61.3131 44.6061
L62.0992 44.6061
" />
<path d="M62.8249 43.7594
L62.9459 43.7594
" />
<path d="M62.9459 43.7594
L63.0668 43.8199
" />
<path d="M63.0668 43.8199
L63.1273 43.8804
" />
<path d="M63.1273 43.8804
L63.1878 44.0013
" />
<path d="M63.1878 44.0013
L63.2483 44.2432
" />
<path d="M63.2483 44.2432
L63.2483 44.5456
" />
<path d="M63.2483 44.5456
L63.1878 44.7875
" />
<path d="M63.1878 44.7875
L63.1273 44.9085
" />
<path d="M63.1273 44.9085
L63.0668 44.9690
" />
<path d="M63.0668 44.9690
L62.9459 45.0294
" />
<path d="M62.9459 45.0294
L62.8249 45.0294
" />
<path d="M62.8249 45.0294
L62.7040 44.9690
" />
<path d="M62.7040 44.9690
L62.6435 44.9085
" />
<path d="M62.6435 44.9085
L62.5830 44.7875
" />
<path d="M62.5830 44.7875
L62.5226 44.5456
" />
<path d="M62.5226 44.5456
L62.5226 44.2432
" />
<path d="M62.5226 44.2432
L62.5830 44.0013
" />
<path d="M62.5830 44.0013
L62.6435 43.8804
" />
<path d="M62.6435 43.8804
L62.7040 43.8199
" />
<path d="M62.7040 43.8199
L62.8249 43.7594
" />
<path d="M64.0344 43.7594
L64.1554 43.7594
" />
<path d="M64.1554 43.7594
L64.2763 43.8199
" />
<path d="M64.2763 43.8199
L64.3368 43.8804
" />
<path d="M64.3368 43.8804
L64.3973 44.0013
" />
<path d="M64.3973 44.0013
L64.4578 44.2432
" />
<path d="M64.4578 44.2432
L64.4578 44.5456
" />
<path d="M64.4578 44.5456
L64.3973 44.7875
" />
<path d="M64.3973 44.7875
L64.3368 44.9085
" />
<path d="M64.3368 44.9085
L64.2763 44.9690
" />
<path d="M64.2763 44.9690
L64.1554 45.0294
" />
<path d="M64.1554 45.0294
L64.0344 45.0294
" />
<path d="M64.0344 45.0294
L63.9135 44.9690
" />
<path d="M63.9135 44.9690
L63.8530 44.9085
" />
<path d="M63.8530 44.9085
L63.7925 44.7875
" />
<path d="M63.7925 44.7875
L63.7321 44.5456
" />
<path d="M63.7321 44.5456
L63.7321 44.2432
" />
<path d="M63.7321 44.2432
L63.7925 44.0013
" />
<path d="M63.7925 44.0013
L63.8530 43.8804
" />
<path d="M63.8530 43.8804
L63.9135 43.8199
" />
<path d="M63.9135 43.8199
L64.0344 43.7594
" />
<path d="M65.6673 45.0294
L64.9416 45.0294
" />
<path d="M65.3044 45.0294
L65.3044 43.7594
" />
<path d="M65.3044 43.7594
L65.1835 43.9409
" />
<path d="M65.1835 43.9409
L65.0625 44.0618
" />
<path d="M65.0625 44.0618
L64.9416 44.1223
" />
</g></g>
<g style="fill:none; 
stroke:#0F0F0F; stroke-width:0.1524; stroke-opacity:1; 
stroke-linecap:round; stroke-linejoin:round;">
<text x="76.2000" y="23.7807"
textLength="4.3155" font-size="1.6933" lengthAdjust="spacingAndGlyphs"
text-anchor="start" opacity="0" stroke-opacity="0">Vout</text>
<g class="stroked-text"><desc>Vout</desc>
<path d="M76.4211 22.3472
L76.8444 23.6172
" />
<path d="M76.8444 23.6172
L77.2678 22.3472
" />
<path d="M77.8726 23.6172
L77.7516 23.5568
" />
<path d="M77.7516 23.5568
L77.6911 23.4963
" />
<path d="M77.6911 23.4963
L77.6307 23.3753
" />
<path d="M77.6307 23.3753
L77.6307 23.0125
" />
<path d="M77.6307 23.0125
L77.6911 22.8915
" />
<path d="M77.6911 22.8915
L77.7516 22.8310
" />
<path d="M77.7516 22.8310
L77.8726 22.7706
" />
<path d="M77.8726 22.7706
L78.0540 22.7706
" />
<path d="M78.0540 22.7706
L78.1749 22.8310
" />
<path d="M78.1749 22.8310
L78.2354 22.8915
" />
<path d="M78.2354 22.8915
L78.2959 23.0125
" />
<path d="M78.2959 23.0125
L78.2959 23.3753
" />
<path d="M78.2959 23.3753
L78.2354 23.4963
" />
<path d="M78.2354 23.4963
L78.1749 23.5568
" />
<path d="M78.1749 23.5568
L78.0540 23.6172
" />
<path d="M78.0540 23.6172
L77.8726 23.6172
" />
<path d="M79.3844 22.7706
L79.3844 23.6172
" />
<path d="M78.8401 22.7706
L78.8401 23.4358
" />
<path d="M78.8401 23.4358
L78.9006 23.5568
" />
<path d="M78.9006 23.5568
L79.0216 23.6172
" />
<path d="M79.0216 23.6172
L79.2030 23.6172
" />
<path d="M79.2030 23.6172
L79.3239 23.5568
" />
<path d="M79.3239 23.5568
L79.3844 23.4963
" />
<path d="M79.8077 22.7706
L80.2915 22.7706
" />
<path d="M79.9891 22.3472
L79.9891 23.4358
" />
<path d="M79.9891 23.4358
L80.0496 23.5568
" />
<path d="M80.0496 23.5568
L80.1706 23.6172
" />
<path d="M80.1706 23.6172
L80.2915 23.6172
" />
</g></g>
<g style="fill:none; 
stroke:#009600; stroke-width:0.1524; stroke-opacity:1; 
stroke-linecap:round; stroke-linejoin:round;">
<path d="M20.3200 66.0400
L20.3200 63.5000
" />
<path d="M76.2000 46.9900
L76.2000 63.5000
" />
<path d="M55.8800 63.5000
L76.2000 63.5000
" />
<path d="M20.3200 36.8300
L20.3200 24.1300
" />
<path d="M20.3200 24.1300
L40.6400 24.1300
" />
<path d="M55.8800 24.1300
L55.8800 39.3700
" />
<path d="M48.2600 24.1300
L55.8800 24.1300
" />
<path d="M76.2000 39.3700
L76.2000 24.1300
" />
<path d="M55.8800 24.1300
L76.2000 24.1300
" />
<path d="M55.8800 46.9900
L55.8800 63.5000
" />
<path d="M20.3200 63.5000
L55.8800 63.5000
" />
<path d="M20.3200 63.5000
L20.3200 46.9900
" />
</g>
<g style="fill:none; 
stroke:#0000C2; stroke-width:0.1524; stroke-opacity:1; 
stroke-linecap:round; stroke-linejoin:round;">
<text x="54.1020" y="22.2290"
textLength="15.0201" font-size="1.6933" lengthAdjust="spacingAndGlyphs"
text-anchor="middle" opacity="0" stroke-opacity="0">.ic V(/VC1)=0V</text>
<g class="stroked-text"><desc>.ic V(/VC1)=0V</desc>
<path d="M46.9959 22.0526
L47.0564 22.1131
" />
<path d="M47.0564 22.1131
L46.9959 22.1735
" />
<path d="M46.9959 22.1735
L46.9355 22.1131
" />
<path d="M46.9355 22.1131
L46.9959 22.0526
" />
<path d="M46.9959 22.0526
L46.9959 22.1735
" />
<path d="M47.6007 22.1735
L47.6007 21.3269
" />
<path d="M47.6007 20.9035
L47.5403 20.9640
" />
<path d="M47.5403 20.9640
L47.6007 21.0245
" />
<path d="M47.6007 21.0245
L47.6612 20.9640
" />
<path d="M47.6612 20.9640
L47.6007 20.9035
" />
<path d="M47.6007 20.9035
L47.6007 21.0245
" />
<path d="M48.7498 22.1131
L48.6289 22.1735
" />
<path d="M48.6289 22.1735
L48.3870 22.1735
" />
<path d="M48.3870 22.1735
L48.2660 22.1131
" />
<path d="M48.2660 22.1131
L48.2055 22.0526
" />
<path d="M48.2055 22.0526
L48.1451 21.9316
" />
<path d="M48.1451 21.9316
L48.1451 21.5688
" />
<path d="M48.1451 21.5688
L48.2055 21.4478
" />
<path d="M48.2055 21.4478
L48.2660 21.3873
" />
<path d="M48.2660 21.3873
L48.3870 21.3269
" />
<path d="M48.3870 21.3269
L48.6289 21.3269
" />
<path d="M48.6289 21.3269
L48.7498 21.3873
" />
<path d="M50.0803 20.9035
L50.5036 22.1735
" />
<path d="M50.5036 22.1735
L50.9270 20.9035
" />
<path d="M51.7132 22.6573
L51.6527 22.5969
" />
<path d="M51.6527 22.5969
L51.5318 22.4154
" />
<path d="M51.5318 22.4154
L51.4713 22.2945
" />
<path d="M51.4713 22.2945
L51.4108 22.1131
" />
<path d="M51.4108 22.1131
L51.3503 21.8107
" />
<path d="M51.3503 21.8107
L51.3503 21.5688
" />
<path d="M51.3503 21.5688
L51.4108 21.2664
" />
<path d="M51.4108 21.2664
L51.4713 21.0850
" />
<path d="M51.4713 21.0850
L51.5318 20.9640
" />
<path d="M51.5318 20.9640
L51.6527 20.7826
" />
<path d="M51.6527 20.7826
L51.7132 20.7221
" />
<path d="M53.1042 20.8431
L52.0156 22.4759
" />
<path d="M53.3461 20.9035
L53.7694 22.1735
" />
<path d="M53.7694 22.1735
L54.1928 20.9035
" />
<path d="M55.3418 22.0526
L55.2814 22.1131
" />
<path d="M55.2814 22.1131
L55.0999 22.1735
" />
<path d="M55.0999 22.1735
L54.9790 22.1735
" />
<path d="M54.9790 22.1735
L54.7976 22.1131
" />
<path d="M54.7976 22.1131
L54.6766 21.9921
" />
<path d="M54.6766 21.9921
L54.6161 21.8711
" />
<path d="M54.6161 21.8711
L54.5557 21.6292
" />
<path d="M54.5557 21.6292
L54.5557 21.4478
" />
<path d="M54.5557 21.4478
L54.6161 21.2059
" />
<path d="M54.6161 21.2059
L54.6766 21.0850
" />
<path d="M54.6766 21.0850
L54.7976 20.9640
" />
<path d="M54.7976 20.9640
L54.9790 20.9035
" />
<path d="M54.9790 20.9035
L55.0999 20.9035
" />
<path d="M55.0999 20.9035
L55.2814 20.9640
" />
<path d="M55.2814 20.9640
L55.3418 21.0245
" />
<path d="M56.5514 22.1735
L55.8257 22.1735
" />
<path d="M56.1885 22.1735
L56.1885 20.9035
" />
<path d="M56.1885 20.9035
L56.0676 21.0850
" />
<path d="M56.0676 21.0850
L55.9466 21.2059
" />
<path d="M55.9466 21.2059
L55.8257 21.2664
" />
<path d="M56.9747 22.6573
L57.0352 22.5969
" />
<path d="M57.0352 22.5969
L57.1561 22.4154
" />
<path d="M57.1561 22.4154
L57.2166 22.2945
" />
<path d="M57.2166 22.2945
L57.2771 22.1131
" />
<path d="M57.2771 22.1131
L57.3375 21.8107
" />
<path d="M57.3375 21.8107
L57.3375 21.5688
" />
<path d="M57.3375 21.5688
L57.2771 21.2664
" />
<path d="M57.2771 21.2664
L57.2166 21.0850
" />
<path d="M57.2166 21.0850
L57.1561 20.9640
" />
<path d="M57.1561 20.9640
L57.0352 20.7826
" />
<path d="M57.0352 20.7826
L56.9747 20.7221
" />
<path d="M57.9423 21.5083
L58.9100 21.5083
" />
<path d="M58.9100 21.8711
L57.9423 21.8711
" />
<path d="M59.7566 20.9035
L59.8776 20.9035
" />
<path d="M59.8776 20.9035
L59.9985 20.9640
" />
<path d="M59.9985 20.9640
L60.0590 21.0245
" />
<path d="M60.0590 21.0245
L60.1195 21.1454
" />
<path d="M60.1195 21.1454
L60.1800 21.3873
" />
<path d="M60.1800 21.3873
L60.1800 21.6897
" />
<path d="M60.1800 21.6897
L60.1195 21.9316
" />
<path d="M60.1195 21.9316
L60.0590 22.0526
" />
<path d="M60.0590 22.0526
L59.9985 22.1131
" />
<path d="M59.9985 22.1131
L59.8776 22.1735
" />
<path d="M59.8776 22.1735
L59.7566 22.1735
" />
<path d="M59.7566 22.1735
L59.6357 22.1131
" />
<path d="M59.6357 22.1131
L59.5752 22.0526
" />
<path d="M59.5752 22.0526
L59.5147 21.9316
" />
<path d="M59.5147 21.9316
L59.4543 21.6897
" />
<path d="M59.4543 21.6897
L59.4543 21.3873
" />
<path d="M59.4543 21.3873
L59.5147 21.1454
" />
<path d="M59.5147 21.1454
L59.5752 21.0245
" />
<path d="M59.5752 21.0245
L59.6357 20.9640
" />
<path d="M59.6357 20.9640
L59.7566 20.9035
" />
<path d="M60.5428 20.9035
L60.9661 22.1735
" />
<path d="M60.9661 22.1735
L61.3895 20.9035
" />
</g></g>
<g style="fill:none; 
stroke:#0000C2; stroke-width:0.1524; stroke-opacity:1; 
stroke-linecap:round; stroke-linejoin:round;">
<text x="183.3880" y="131.9570"
textLength="3.2270" font-size="1.6933" lengthAdjust="spacingAndGlyphs"
text-anchor="middle" opacity="0" stroke-opacity="0">1.0</text>
<g class="stroked-text"><desc>1.0</desc>
<path d="M182.8437 131.9015
L182.1180 131.9015
" />
<path d="M182.4808 131.9015
L182.4808 130.6315
" />
<path d="M182.4808 130.6315
L182.3599 130.8130
" />
<path d="M182.3599 130.8130
L182.2389 130.9339
" />
<path d="M182.2389 130.9339
L182.1180 130.9944
" />
<path d="M183.3879 131.7806
L183.4484 131.8411
" />
<path d="M183.4484 131.8411
L183.3879 131.9015
" />
<path d="M183.3879 131.9015
L183.3275 131.8411
" />
<path d="M183.3275 131.8411
L183.3879 131.7806
" />
<path d="M183.3879 131.7806
L183.3879 131.9015
" />
<path d="M184.2346 130.6315
L184.3556 130.6315
" />
<path d="M184.3556 130.6315
L184.4765 130.6920
" />
<path d="M184.4765 130.6920
L184.5370 130.7525
" />
<path d="M184.5370 130.7525
L184.5975 130.8734
" />
<path d="M184.5975 130.8734
L184.6580 131.1153
" />
<path d="M184.6580 131.1153
L184.6580 131.4177
" />
<path d="M184.6580 131.4177
L184.5975 131.6596
" />
<path d="M184.5975 131.6596
L184.5370 131.7806
" />
<path d="M184.5370 131.7806
L184.4765 131.8411
" />
<path d="M184.4765 131.8411
L184.3556 131.9015
" />
<path d="M184.3556 131.9015
L184.2346 131.9015
" />
<path d="M184.2346 131.9015
L184.1137 131.8411
" />
<path d="M184.1137 131.8411
L184.0532 131.7806
" />
<path d="M184.0532 131.7806
L183.9927 131.6596
" />
<path d="M183.9927 131.6596
L183.9323 131.4177
" />
<path d="M183.9323 131.4177
L183.9323 131.1153
" />
<path d="M183.9323 131.1153
L183.9927 130.8734
" />
<path d="M183.9927 130.8734
L184.0532 130.7525
" />
<path d="M184.0532 130.7525
L184.1137 130.6920
" />
<path d="M184.1137 130.6920
L184.2346 130.6315
" />
</g></g>
<g style="fill:none; 
stroke:#0000C2; stroke-width:0.1524; stroke-opacity:1; 
stroke-linecap:round; stroke-linejoin:round;">
<text x="110.9980" y="128.1470"
textLength="22.5185" font-size="1.6933" lengthAdjust="spacingAndGlyphs"
text-anchor="middle" opacity="0" stroke-opacity="0">Villard Voltage Doubler</text>
<g class="stroked-text"><desc>Villard Voltage Doubler</desc>
<path d="M99.9613 126.8215
L100.3846 128.0915
" />
<path d="M100.3846 128.0915
L100.8080 126.8215
" />
<path d="M101.2313 128.0915
L101.2313 127.2449
" />
<path d="M101.2313 126.8215
L101.1709 126.8820
" />
<path d="M101.1709 126.8820
L101.2313 126.9425
" />
<path d="M101.2313 126.9425
L101.2918 126.8820
" />
<path d="M101.2918 126.8820
L101.2313 126.8215
" />
<path d="M101.2313 126.8215
L101.2313 126.9425
" />
<path d="M102.0176 128.0915
L101.8966 128.0311
" />
<path d="M101.8966 128.0311
L101.8361 127.9101
" />
<path d="M101.8361 127.9101
L101.8361 126.8215
" />
<path d="M102.6828 128.0915
L102.5618 128.0311
" />
<path d="M102.5618 128.0311
L102.5013 127.9101
" />
<path d="M102.5013 127.9101
L102.5013 126.8215
" />
<path d="M103.7108 128.0915
L103.7108 127.4263
" />
<path d="M103.7108 127.4263
L103.6503 127.3053
" />
<path d="M103.6503 127.3053
L103.5294 127.2449
" />
<path d="M103.5294 127.2449
L103.2875 127.2449
" />
<path d="M103.2875 127.2449
L103.1665 127.3053
" />
<path d="M103.7108 128.0311
L103.5899 128.0915
" />
<path d="M103.5899 128.0915
L103.2875 128.0915
" />
<path d="M103.2875 128.0915
L103.1665 128.0311
" />
<path d="M103.1665 128.0311
L103.1061 127.9101
" />
<path d="M103.1061 127.9101
L103.1061 127.7891
" />
<path d="M103.1061 127.7891
L103.1665 127.6682
" />
<path d="M103.1665 127.6682
L103.2875 127.6077
" />
<path d="M103.2875 127.6077
L103.5899 127.6077
" />
<path d="M103.5899 127.6077
L103.7108 127.5472
" />
<path d="M104.3155 128.0915
L104.3155 127.2449
" />
<path d="M104.3155 127.4868
L104.3760 127.3658
" />
<path d="M104.3760 127.3658
L104.4365 127.3053
" />
<path d="M104.4365 127.3053
L104.5574 127.2449
" />
<path d="M104.5574 127.2449
L104.6784 127.2449
" />
<path d="M105.6460 128.0915
L105.6460 126.8215
" />
<path d="M105.6460 128.0311
L105.5251 128.0915
" />
<path d="M105.5251 128.0915
L105.2832 128.0915
" />
<path d="M105.2832 128.0915
L105.1622 128.0311
" />
<path d="M105.1622 128.0311
L105.1017 127.9706
" />
<path d="M105.1017 127.9706
L105.0413 127.8496
" />
<path d="M105.0413 127.8496
L105.0413 127.4868
" />
<path d="M105.0413 127.4868
L105.1017 127.3658
" />
<path d="M105.1017 127.3658
L105.1622 127.3053
" />
<path d="M105.1622 127.3053
L105.2832 127.2449
" />
<path d="M105.2832 127.2449
L105.5251 127.2449
" />
<path d="M105.5251 127.2449
L105.6460 127.3053
" />
<path d="M107.0369 126.8215
L107.4602 128.0915
" />
<path d="M107.4602 128.0915
L107.8836 126.8215
" />
<path d="M108.4884 128.0915
L108.3674 128.0311
" />
<path d="M108.3674 128.0311
L108.3069 127.9706
" />
<path d="M108.3069 127.9706
L108.2465 127.8496
" />
<path d="M108.2465 127.8496
L108.2465 127.4868
" />
<path d="M108.2465 127.4868
L108.3069 127.3658
" />
<path d="M108.3069 127.3658
L108.3674 127.3053
" />
<path d="M108.3674 127.3053
L108.4884 127.2449
" />
<path d="M108.4884 127.2449
L108.6698 127.2449
" />
<path d="M108.6698 127.2449
L108.7907 127.3053
" />
<path d="M108.7907 127.3053
L108.8512 127.3658
" />
<path d="M108.8512 127.3658
L108.9117 127.4868
" />
<path d="M108.9117 127.4868
L108.9117 127.8496
" />
<path d="M108.9117 127.8496
L108.8512 127.9706
" />
<path d="M108.8512 127.9706
L108.7907 128.0311
" />
<path d="M108.7907 128.0311
L108.6698 128.0915
" />
<path d="M108.6698 128.0915
L108.4884 128.0915
" />
<path d="M109.6374 128.0915
L109.5164 128.0311
" />
<path d="M109.5164 128.0311
L109.4559 127.9101
" />
<path d="M109.4559 127.9101
L109.4559 126.8215
" />
<path d="M109.9397 127.2449
L110.4235 127.2449
" />
<path d="M110.1211 126.8215
L110.1211 127.9101
" />
<path d="M110.1211 127.9101
L110.1816 128.0311
" />
<path d="M110.1816 128.0311
L110.3026 128.0915
" />
<path d="M110.3026 128.0915
L110.4235 128.0915
" />
<path d="M111.3911 128.0915
L111.3911 127.4263
" />
<path d="M111.3911 127.4263
L111.3306 127.3053
" />
<path d="M111.3306 127.3053
L111.2097 127.2449
" />
<path d="M111.2097 127.2449
L110.9678 127.2449
" />
<path d="M110.9678 127.2449
L110.8468 127.3053
" />
<path d="M111.3911 128.0311
L111.2702 128.0915
" />
<path d="M111.2702 128.0915
L110.9678 128.0915
" />
<path d="M110.9678 128.0915
L110.8468 128.0311
" />
<path d="M110.8468 128.0311
L110.7864 127.9101
" />
<path d="M110.7864 127.9101
L110.7864 127.7891
" />
<path d="M110.7864 127.7891
L110.8468 127.6682
" />
<path d="M110.8468 127.6682
L110.9678 127.6077
" />
<path d="M110.9678 127.6077
L111.2702 127.6077
" />
<path d="M111.2702 127.6077
L111.3911 127.5472
" />
<path d="M112.5401 127.2449
L112.5401 128.2730
" />
<path d="M112.5401 128.2730
L112.4796 128.3939
" />
<path d="M112.4796 128.3939
L112.4192 128.4544
" />
<path d="M112.4192 128.4544
L112.2982 128.5149
" />
<path d="M112.2982 128.5149
L112.1168 128.5149
" />
<path d="M112.1168 128.5149
L111.9958 128.4544
" />
<path d="M112.5401 128.0311
L112.4192 128.0915
" />
<path d="M112.4192 128.0915
L112.1773 128.0915
" />
<path d="M112.1773 128.0915
L112.0563 128.0311
" />
<path d="M112.0563 128.0311
L111.9958 127.9706
" />
<path d="M111.9958 127.9706
L111.9354 127.8496
" />
<path d="M111.9354 127.8496
L111.9354 127.4868
" />
<path d="M111.9354 127.4868
L111.9958 127.3658
" />
<path d="M111.9958 127.3658
L112.0563 127.3053
" />
<path d="M112.0563 127.3053
L112.1773 127.2449
" />
<path d="M112.1773 127.2449
L112.4192 127.2449
" />
<path d="M112.4192 127.2449
L112.5401 127.3053
" />
<path d="M113.6286 128.0311
L113.5077 128.0915
" />
<path d="M113.5077 128.0915
L113.2658 128.0915
" />
<path d="M113.2658 128.0915
L113.1448 128.0311
" />
<path d="M113.1448 128.0311
L113.0844 127.9101
" />
<path d="M113.0844 127.9101
L113.0844 127.4263
" />
<path d="M113.0844 127.4263
L113.1448 127.3053
" />
<path d="M113.1448 127.3053
L113.2658 127.2449
" />
<path d="M113.2658 127.2449
L113.5077 127.2449
" />
<path d="M113.5077 127.2449
L113.6286 127.3053
" />
<path d="M113.6286 127.3053
L113.6891 127.4263
" />
<path d="M113.6891 127.4263
L113.6891 127.5472
" />
<path d="M113.6891 127.5472
L113.0844 127.6682
" />
<path d="M115.2010 128.0915
L115.2010 126.8215
" />
<path d="M115.2010 126.8215
L115.5034 126.8215
" />
<path d="M115.5034 126.8215
L115.6848 126.8820
" />
<path d="M115.6848 126.8820
L115.8058 127.0030
" />
<path d="M115.8058 127.0030
L115.8663 127.1239
" />
<path d="M115.8663 127.1239
L115.9267 127.3658
" />
<path d="M115.9267 127.3658
L115.9267 127.5472
" />
<path d="M115.9267 127.5472
L115.8663 127.7891
" />
<path d="M115.8663 127.7891
L115.8058 127.9101
" />
<path d="M115.8058 127.9101
L115.6848 128.0311
" />
<path d="M115.6848 128.0311
L115.5034 128.0915
" />
<path d="M115.5034 128.0915
L115.2010 128.0915
" />
<path d="M116.6525 128.0915
L116.5315 128.0311
" />
<path d="M116.5315 128.0311
L116.4710 127.9706
" />
<path d="M116.4710 127.9706
L116.4106 127.8496
" />
<path d="M116.4106 127.8496
L116.4106 127.4868
" />
<path d="M116.4106 127.4868
L116.4710 127.3658
" />
<path d="M116.4710 127.3658
L116.5315 127.3053
" />
<path d="M116.5315 127.3053
L116.6525 127.2449
" />
<path d="M116.6525 127.2449
L116.8339 127.2449
" />
<path d="M116.8339 127.2449
L116.9548 127.3053
" />
<path d="M116.9548 127.3053
L117.0153 127.3658
" />
<path d="M117.0153 127.3658
L117.0758 127.4868
" />
<path d="M117.0758 127.4868
L117.0758 127.8496
" />
<path d="M117.0758 127.8496
L117.0153 127.9706
" />
<path d="M117.0153 127.9706
L116.9548 128.0311
" />
<path d="M116.9548 128.0311
L116.8339 128.0915
" />
<path d="M116.8339 128.0915
L116.6525 128.0915
" />
<path d="M118.1643 127.2449
L118.1643 128.0915
" />
<path d="M117.6200 127.2449
L117.6200 127.9101
" />
<path d="M117.6200 127.9101
L117.6805 128.0311
" />
<path d="M117.6805 128.0311
L117.8015 128.0915
" />
<path d="M117.8015 128.0915
L117.9829 128.0915
" />
<path d="M117.9829 128.0915
L118.1038 128.0311
" />
<path d="M118.1038 128.0311
L118.1643 127.9706
" />
<path d="M118.7690 128.0915
L118.7690 126.8215
" />
<path d="M118.7690 127.3053
L118.8900 127.2449
" />
<path d="M118.8900 127.2449
L119.1319 127.2449
" />
<path d="M119.1319 127.2449
L119.2528 127.3053
" />
<path d="M119.2528 127.3053
L119.3133 127.3658
" />
<path d="M119.3133 127.3658
L119.3738 127.4868
" />
<path d="M119.3738 127.4868
L119.3738 127.8496
" />
<path d="M119.3738 127.8496
L119.3133 127.9706
" />
<path d="M119.3133 127.9706
L119.2528 128.0311
" />
<path d="M119.2528 128.0311
L119.1319 128.0915
" />
<path d="M119.1319 128.0915
L118.8900 128.0915
" />
<path d="M118.8900 128.0915
L118.7690 128.0311
" />
<path d="M120.0995 128.0915
L119.9785 128.0311
" />
<path d="M119.9785 128.0311
L119.9180 127.9101
" />
<path d="M119.9180 127.9101
L119.9180 126.8215
" />
<path d="M121.0670 128.0311
L120.9461 128.0915
" />
<path d="M120.9461 128.0915
L120.7042 128.0915
" />
<path d="M120.7042 128.0915
L120.5832 128.0311
" />
<path d="M120.5832 128.0311
L120.5228 127.9101
" />
<path d="M120.5228 127.9101
L120.5228 127.4263
" />
<path d="M120.5228 127.4263
L120.5832 127.3053
" />
<path d="M120.5832 127.3053
L120.7042 127.2449
" />
<path d="M120.7042 127.2449
L120.9461 127.2449
" />
<path d="M120.9461 127.2449
L121.0670 127.3053
" />
<path d="M121.0670 127.3053
L121.1275 127.4263
" />
<path d="M121.1275 127.4263
L121.1275 127.5472
" />
<path d="M121.1275 127.5472
L120.5228 127.6682
" />
<path d="M121.6718 128.0915
L121.6718 127.2449
" />
<path d="M121.6718 127.4868
L121.7323 127.3658
" />
<path d="M121.7323 127.3658
L121.7928 127.3053
" />
<path d="M121.7928 127.3053
L121.9137 127.2449
" />
<path d="M121.9137 127.2449
L122.0347 127.2449
" />
</g></g>
<g style="fill:none; 
stroke:#0000C2; stroke-width:0.1524; stroke-opacity:1; 
stroke-linecap:round; stroke-linejoin:round;">
<text x="125.7300" y="131.9570"
textLength="13.0240" font-size="1.6933" lengthAdjust="spacingAndGlyphs"
text-anchor="middle" opacity="0" stroke-opacity="0">2025-11-05</text>
<g class="stroked-text"><desc>2025-11-05</desc>
<path d="M119.5615 130.7525
L119.6219 130.6920
" />
<path d="M119.6219 130.6920
L119.7429 130.6315
" />
<path d="M119.7429 130.6315
L120.0453 130.6315
" />
<path d="M120.0453 130.6315
L120.1662 130.6920
" />
<path d="M120.1662 130.6920
L120.2267 130.7525
" />
<path d="M120.2267 130.7525
L120.2872 130.8734
" />
<path d="M120.2872 130.8734
L120.2872 130.9944
" />
<path d="M120.2872 130.9944
L120.2267 131.1758
" />
<path d="M120.2267 131.1758
L119.5010 131.9015
" />
<path d="M119.5010 131.9015
L120.2872 131.9015
" />
<path d="M121.0733 130.6315
L121.1943 130.6315
" />
<path d="M121.1943 130.6315
L121.3152 130.6920
" />
<path d="M121.3152 130.6920
L121.3757 130.7525
" />
<path d="M121.3757 130.7525
L121.4362 130.8734
" />
<path d="M121.4362 130.8734
L121.4967 131.1153
" />
<path d="M121.4967 131.1153
L121.4967 131.4177
" />
<path d="M121.4967 131.4177
L121.4362 131.6596
" />
<path d="M121.4362 131.6596
L121.3757 131.7806
" />
<path d="M121.3757 131.7806
L121.3152 131.8411
" />
<path d="M121.3152 131.8411
L121.1943 131.9015
" />
<path d="M121.1943 131.9015
L121.0733 131.9015
" />
<path d="M121.0733 131.9015
L120.9524 131.8411
" />
<path d="M120.9524 131.8411
L120.8919 131.7806
" />
<path d="M120.8919 131.7806
L120.8314 131.6596
" />
<path d="M120.8314 131.6596
L120.7710 131.4177
" />
<path d="M120.7710 131.4177
L120.7710 131.1153
" />
<path d="M120.7710 131.1153
L120.8314 130.8734
" />
<path d="M120.8314 130.8734
L120.8919 130.7525
" />
<path d="M120.8919 130.7525
L120.9524 130.6920
" />
<path d="M120.9524 130.6920
L121.0733 130.6315
" />
<path d="M121.9805 130.7525
L122.0409 130.6920
" />
<path d="M122.0409 130.6920
L122.1619 130.6315
" />
<path d="M122.1619 130.6315
L122.4643 130.6315
" />
<path d="M122.4643 130.6315
L122.5852 130.6920
" />
<path d="M122.5852 130.6920
L122.6457 130.7525
" />
<path d="M122.6457 130.7525
L122.7062 130.8734
" />
<path d="M122.7062 130.8734
L122.7062 130.9944
" />
<path d="M122.7062 130.9944
L122.6457 131.1758
" />
<path d="M122.6457 131.1758
L121.9200 131.9015
" />
<path d="M121.9200 131.9015
L122.7062 131.9015
" />
<path d="M123.8552 130.6315
L123.2504 130.6315
" />
<path d="M123.2504 130.6315
L123.1900 131.2363
" />
<path d="M123.1900 131.2363
L123.2504 131.1758
" />
<path d="M123.2504 131.1758
L123.3714 131.1153
" />
<path d="M123.3714 131.1153
L123.6738 131.1153
" />
<path d="M123.6738 131.1153
L123.7947 131.1758
" />
<path d="M123.7947 131.1758
L123.8552 131.2363
" />
<path d="M123.8552 131.2363
L123.9157 131.3572
" />
<path d="M123.9157 131.3572
L123.9157 131.6596
" />
<path d="M123.9157 131.6596
L123.8552 131.7806
" />
<path d="M123.8552 131.7806
L123.7947 131.8411
" />
<path d="M123.7947 131.8411
L123.6738 131.9015
" />
<path d="M123.6738 131.9015
L123.3714 131.9015
" />
<path d="M123.3714 131.9015
L123.2504 131.8411
" />
<path d="M123.2504 131.8411
L123.1900 131.7806
" />
<path d="M124.4599 131.4177
L125.4276 131.4177
" />
<path d="M126.6976 131.9015
L125.9719 131.9015
" />
<path d="M126.3347 131.9015
L126.3347 130.6315
" />
<path d="M126.3347 130.6315
L126.2138 130.8130
" />
<path d="M126.2138 130.8130
L126.0928 130.9339
" />
<path d="M126.0928 130.9339
L125.9719 130.9944
" />
<path d="M127.9071 131.9015
L127.1814 131.9015
" />
<path d="M127.5442 131.9015
L127.5442 130.6315
" />
<path d="M127.5442 130.6315
L127.4233 130.8130
" />
<path d="M127.4233 130.8130
L127.3023 130.9339
" />
<path d="M127.3023 130.9339
L127.1814 130.9944
" />
<path d="M128.4513 131.4177
L129.4190 131.4177
" />
<path d="M130.2656 130.6315
L130.3866 130.6315
" />
<path d="M130.3866 130.6315
L130.5075 130.6920
" />
<path d="M130.5075 130.6920
L130.5680 130.7525
" />
<path d="M130.5680 130.7525
L130.6285 130.8734
" />
<path d="M130.6285 130.8734
L130.6890 131.1153
" />
<path d="M130.6890 131.1153
L130.6890 131.4177
" />
<path d="M130.6890 131.4177
L130.6285 131.6596
" />
<path d="M130.6285 131.6596
L130.5680 131.7806
" />
<path d="M130.5680 131.7806
L130.5075 131.8411
" />
<path d="M130.5075 131.8411
L130.3866 131.9015
" />
<path d="M130.3866 131.9015
L130.2656 131.9015
" />
<path d="M130.2656 131.9015
L130.1447 131.8411
" />
<path d="M130.1447 131.8411
L130.0842 131.7806
" />
<path d="M130.0842 131.7806
L130.0237 131.6596
" />
<path d="M130.0237 131.6596
L129.9633 131.4177
" />
<path d="M129.9633 131.4177
L129.9633 131.1153
" />
<path d="M129.9633 131.1153
L130.0237 130.8734
" />
<path d="M130.0237 130.8734
L130.0842 130.7525
" />
<path d="M130.0842 130.7525
L130.1447 130.6920
" />
<path d="M130.1447 130.6920
L130.2656 130.6315
" />
<path d="M131.8380 130.6315
L131.2332 130.6315
" />
<path d="M131.2332 130.6315
L131.1728 131.2363
" />
<path d="M131.1728 131.2363
L131.2332 131.1758
" />
<path d="M131.2332 131.1758
L131.3542 131.1153
" />
<path d="M131.3542 131.1153
L131.6566 131.1153
" />
<path d="M131.6566 131.1153
L131.7775 131.1758
" />
<path d="M131.7775 131.1758
L131.8380 131.2363
" />
<path d="M131.8380 131.2363
L131.8985 131.3572
" />
<path d="M131.8985 131.3572
L131.8985 131.6596
" />
<path d="M131.8985 131.6596
L131.8380 131.7806
" />
<path d="M131.8380 131.7806
L131.7775 131.8411
" />
<path d="M131.7775 131.8411
L131.6566 131.9015
" />
<path d="M131.6566 131.9015
L131.3542 131.9015
" />
<path d="M131.3542 131.9015
L131.2332 131.8411
" />
<path d="M131.2332 131.8411
L131.1728 131.7806
" />
</g></g>
<g style="fill:#009600; fill-opacity:1.0000; 
stroke:#009600; stroke-width:0.1524; stroke-opacity:1; 
stroke-linecap:round; stroke-linejoin:round;">
<circle cx="20.3200" cy="63.5000" r="0.4572" /> 
<circle cx="55.8800" cy="63.5000" r="0.4572" /> 
<circle cx="55.8800" cy="24.1300" r="0.4572" /> 
</g> 
</svg>
