<?xml version="1.0" standalone="no"?>
 <!DOCTYPE svg PUBLIC "-//W3C//DTD SVG 1.1//EN" 
 "http://www.w3.org/Graphics/SVG/1.1/DTD/svg11.dtd"> 
<svg
  xmlns:svg="http://www.w3.org/2000/svg"
  xmlns="http://www.w3.org/2000/svg"
  xmlns:xlink="http://www.w3.org/1999/xlink"
  version="1.1"
  width="210.0072mm" height="148.0058mm" viewBox="0.0000 0.0000 210.0072 148.0058">
<title>SVG Image created as schematics_1.svg date 2025/12/29 01:38:50 </title>
  <desc>Image generated by Eeschema-SVG </desc>
<g style="fill:#000000; fill-opacity:1.0000;stroke:#000000; stroke-opacity:1.0000;
stroke-linecap:round; stroke-linejoin:round;"
 transform="translate(0 0) scale(1 1)">
</g>
<g style="fill:#F5F4EF; fill-opacity:1.0000; 
stroke:#F5F4EF; stroke-width:0.0001; stroke-opacity:1; 
stroke-linecap:round; stroke-linejoin:round;">
<rect x="0.000000" y="0.000000" width="210.007200" height="148.005800" rx="0.000000" />
</g>
<g style="fill:none; 
stroke:#840000; stroke-width:0.1524; stroke-opacity:1; 
stroke-linecap:round; stroke-linejoin:round;">
<path d="M90.0072 104.0058
L198.0072 104.0058
L198.0072 136.0058
L90.0072 136.0058
L90.0072 104.0058
" />
<path d="M10.0000 10.0000
L200.0072 10.0000
L200.0072 138.0058
L10.0000 138.0058
L10.0000 10.0000
" />
<path d="M12.0000 12.0000
L198.0072 12.0000
L198.0072 136.0058
L12.0000 136.0058
L12.0000 12.0000
" />
<path d="M60.0000 12.0000
L60.0000 10.0000
" />
<path d="M110.0000 12.0000
L110.0000 10.0000
" />
<path d="M160.0000 12.0000
L160.0000 10.0000
" />
<text x="35.0000" y="11.6500"
textLength="1.4353" font-size="1.7333" lengthAdjust="spacingAndGlyphs"
text-anchor="start" opacity="0" stroke-opacity="0">1</text>
<g class="stroked-text"><desc>1</desc>
<path d="M36.0906 11.5935
L35.3478 11.5935
" />
<path d="M35.7192 11.5935
L35.7192 10.2935
" />
<path d="M35.7192 10.2935
L35.5954 10.4792
" />
<path d="M35.5954 10.4792
L35.4716 10.6030
" />
<path d="M35.4716 10.6030
L35.3478 10.6649
" />
</g><text x="85.0000" y="11.6500"
textLength="1.4353" font-size="1.7333" lengthAdjust="spacingAndGlyphs"
text-anchor="start" opacity="0" stroke-opacity="0">2</text>
<g class="stroked-text"><desc>2</desc>
<path d="M85.3478 10.4173
L85.4097 10.3554
" />
<path d="M85.4097 10.3554
L85.5335 10.2935
" />
<path d="M85.5335 10.2935
L85.8430 10.2935
" />
<path d="M85.8430 10.2935
L85.9668 10.3554
" />
<path d="M85.9668 10.3554
L86.0287 10.4173
" />
<path d="M86.0287 10.4173
L86.0906 10.5411
" />
<path d="M86.0906 10.5411
L86.0906 10.6649
" />
<path d="M86.0906 10.6649
L86.0287 10.8506
" />
<path d="M86.0287 10.8506
L85.2859 11.5935
" />
<path d="M85.2859 11.5935
L86.0906 11.5935
" />
</g><text x="135.0000" y="11.6500"
textLength="1.4353" font-size="1.7333" lengthAdjust="spacingAndGlyphs"
text-anchor="start" opacity="0" stroke-opacity="0">3</text>
<g class="stroked-text"><desc>3</desc>
<path d="M135.2859 10.2935
L136.0906 10.2935
" />
<path d="M136.0906 10.2935
L135.6573 10.7887
" />
<path d="M135.6573 10.7887
L135.8430 10.7887
" />
<path d="M135.8430 10.7887
L135.9668 10.8506
" />
<path d="M135.9668 10.8506
L136.0287 10.9125
" />
<path d="M136.0287 10.9125
L136.0906 11.0363
" />
<path d="M136.0906 11.0363
L136.0906 11.3458
" />
<path d="M136.0906 11.3458
L136.0287 11.4696
" />
<path d="M136.0287 11.4696
L135.9668 11.5316
" />
<path d="M135.9668 11.5316
L135.8430 11.5935
" />
<path d="M135.8430 11.5935
L135.4716 11.5935
" />
<path d="M135.4716 11.5935
L135.3478 11.5316
" />
<path d="M135.3478 11.5316
L135.2859 11.4696
" />
</g><text x="185.0000" y="11.6500"
textLength="1.4353" font-size="1.7333" lengthAdjust="spacingAndGlyphs"
text-anchor="start" opacity="0" stroke-opacity="0">4</text>
<g class="stroked-text"><desc>4</desc>
<path d="M185.9668 10.7268
L185.9668 11.5935
" />
<path d="M185.6573 10.2316
L185.3478 11.1601
" />
<path d="M185.3478 11.1601
L186.1525 11.1601
" />
</g><path d="M60.0000 136.0058
L60.0000 138.0058
" />
<path d="M110.0000 136.0058
L110.0000 138.0058
" />
<path d="M160.0000 136.0058
L160.0000 138.0058
" />
<text x="35.0000" y="137.6558"
textLength="1.4353" font-size="1.7333" lengthAdjust="spacingAndGlyphs"
text-anchor="start" opacity="0" stroke-opacity="0">1</text>
<g class="stroked-text"><desc>1</desc>
<path d="M36.0906 137.5993
L35.3478 137.5993
" />
<path d="M35.7192 137.5993
L35.7192 136.2993
" />
<path d="M35.7192 136.2993
L35.5954 136.4850
" />
<path d="M35.5954 136.4850
L35.4716 136.6088
" />
<path d="M35.4716 136.6088
L35.3478 136.6707
" />
</g><text x="85.0000" y="137.6558"
textLength="1.4353" font-size="1.7333" lengthAdjust="spacingAndGlyphs"
text-anchor="start" opacity="0" stroke-opacity="0">2</text>
<g class="stroked-text"><desc>2</desc>
<path d="M85.3478 136.4231
L85.4097 136.3612
" />
<path d="M85.4097 136.3612
L85.5335 136.2993
" />
<path d="M85.5335 136.2993
L85.8430 136.2993
" />
<path d="M85.8430 136.2993
L85.9668 136.3612
" />
<path d="M85.9668 136.3612
L86.0287 136.4231
" />
<path d="M86.0287 136.4231
L86.0906 136.5469
" />
<path d="M86.0906 136.5469
L86.0906 136.6707
" />
<path d="M86.0906 136.6707
L86.0287 136.8564
" />
<path d="M86.0287 136.8564
L85.2859 137.5993
" />
<path d="M85.2859 137.5993
L86.0906 137.5993
" />
</g><text x="135.0000" y="137.6558"
textLength="1.4353" font-size="1.7333" lengthAdjust="spacingAndGlyphs"
text-anchor="start" opacity="0" stroke-opacity="0">3</text>
<g class="stroked-text"><desc>3</desc>
<path d="M135.2859 136.2993
L136.0906 136.2993
" />
<path d="M136.0906 136.2993
L135.6573 136.7945
" />
<path d="M135.6573 136.7945
L135.8430 136.7945
" />
<path d="M135.8430 136.7945
L135.9668 136.8564
" />
<path d="M135.9668 136.8564
L136.0287 136.9183
" />
<path d="M136.0287 136.9183
L136.0906 137.0421
" />
<path d="M136.0906 137.0421
L136.0906 137.3516
" />
<path d="M136.0906 137.3516
L136.0287 137.4754
" />
<path d="M136.0287 137.4754
L135.9668 137.5374
" />
<path d="M135.9668 137.5374
L135.8430 137.5993
" />
<path d="M135.8430 137.5993
L135.4716 137.5993
" />
<path d="M135.4716 137.5993
L135.3478 137.5374
" />
<path d="M135.3478 137.5374
L135.2859 137.4754
" />
</g><text x="185.0000" y="137.6558"
textLength="1.4353" font-size="1.7333" lengthAdjust="spacingAndGlyphs"
text-anchor="start" opacity="0" stroke-opacity="0">4</text>
<g class="stroked-text"><desc>4</desc>
<path d="M185.9668 136.7326
L185.9668 137.5993
" />
<path d="M185.6573 136.2374
L185.3478 137.1659
" />
<path d="M185.3478 137.1659
L186.1525 137.1659
" />
</g><path d="M10.0000 60.0000
L12.0000 60.0000
" />
<path d="M10.0000 110.0000
L12.0000 110.0000
" />
<text x="11.0000" y="35.6500"
textLength="1.3115" font-size="1.7333" lengthAdjust="spacingAndGlyphs"
text-anchor="middle" opacity="0" stroke-opacity="0">A</text>
<g class="stroked-text"><desc>A</desc>
<path d="M10.6905 35.2220
L11.3095 35.2220
" />
<path d="M10.5667 35.5935
L11.0000 34.2935
" />
<path d="M11.0000 34.2935
L11.4333 35.5935
" />
</g><text x="11.0000" y="85.6500"
textLength="1.4972" font-size="1.7333" lengthAdjust="spacingAndGlyphs"
text-anchor="middle" opacity="0" stroke-opacity="0">B</text>
<g class="stroked-text"><desc>B</desc>
<path d="M11.0928 84.9125
L11.2785 84.9744
" />
<path d="M11.2785 84.9744
L11.3404 85.0363
" />
<path d="M11.3404 85.0363
L11.4023 85.1601
" />
<path d="M11.4023 85.1601
L11.4023 85.3458
" />
<path d="M11.4023 85.3458
L11.3404 85.4696
" />
<path d="M11.3404 85.4696
L11.2785 85.5316
" />
<path d="M11.2785 85.5316
L11.1547 85.5935
" />
<path d="M11.1547 85.5935
L10.6595 85.5935
" />
<path d="M10.6595 85.5935
L10.6595 84.2935
" />
<path d="M10.6595 84.2935
L11.0928 84.2935
" />
<path d="M11.0928 84.2935
L11.2166 84.3554
" />
<path d="M11.2166 84.3554
L11.2785 84.4173
" />
<path d="M11.2785 84.4173
L11.3404 84.5411
" />
<path d="M11.3404 84.5411
L11.3404 84.6649
" />
<path d="M11.3404 84.6649
L11.2785 84.7887
" />
<path d="M11.2785 84.7887
L11.2166 84.8506
" />
<path d="M11.2166 84.8506
L11.0928 84.9125
" />
<path d="M11.0928 84.9125
L10.6595 84.9125
" />
</g><text x="11.0000" y="135.6500"
textLength="1.4972" font-size="1.7333" lengthAdjust="spacingAndGlyphs"
text-anchor="middle" opacity="0" stroke-opacity="0">C</text>
<g class="stroked-text"><desc>C</desc>
<path d="M11.4023 135.4696
L11.3404 135.5316
" />
<path d="M11.3404 135.5316
L11.1547 135.5935
" />
<path d="M11.1547 135.5935
L11.0309 135.5935
" />
<path d="M11.0309 135.5935
L10.8452 135.5316
" />
<path d="M10.8452 135.5316
L10.7214 135.4077
" />
<path d="M10.7214 135.4077
L10.6595 135.2839
" />
<path d="M10.6595 135.2839
L10.5976 135.0363
" />
<path d="M10.5976 135.0363
L10.5976 134.8506
" />
<path d="M10.5976 134.8506
L10.6595 134.6030
" />
<path d="M10.6595 134.6030
L10.7214 134.4792
" />
<path d="M10.7214 134.4792
L10.8452 134.3554
" />
<path d="M10.8452 134.3554
L11.0309 134.2935
" />
<path d="M11.0309 134.2935
L11.1547 134.2935
" />
<path d="M11.1547 134.2935
L11.3404 134.3554
" />
<path d="M11.3404 134.3554
L11.4023 134.4173
" />
</g><path d="M200.0072 60.0000
L198.0072 60.0000
" />
<path d="M200.0072 110.0000
L198.0072 110.0000
" />
<text x="199.0072" y="35.6500"
textLength="1.3115" font-size="1.7333" lengthAdjust="spacingAndGlyphs"
text-anchor="middle" opacity="0" stroke-opacity="0">A</text>
<g class="stroked-text"><desc>A</desc>
<path d="M198.6977 35.2220
L199.3167 35.2220
" />
<path d="M198.5739 35.5935
L199.0072 34.2935
" />
<path d="M199.0072 34.2935
L199.4405 35.5935
" />
</g><text x="199.0072" y="85.6500"
textLength="1.4972" font-size="1.7333" lengthAdjust="spacingAndGlyphs"
text-anchor="middle" opacity="0" stroke-opacity="0">B</text>
<g class="stroked-text"><desc>B</desc>
<path d="M199.1000 84.9125
L199.2857 84.9744
" />
<path d="M199.2857 84.9744
L199.3476 85.0363
" />
<path d="M199.3476 85.0363
L199.4095 85.1601
" />
<path d="M199.4095 85.1601
L199.4095 85.3458
" />
<path d="M199.4095 85.3458
L199.3476 85.4696
" />
<path d="M199.3476 85.4696
L199.2857 85.5316
" />
<path d="M199.2857 85.5316
L199.1619 85.5935
" />
<path d="M199.1619 85.5935
L198.6667 85.5935
" />
<path d="M198.6667 85.5935
L198.6667 84.2935
" />
<path d="M198.6667 84.2935
L199.1000 84.2935
" />
<path d="M199.1000 84.2935
L199.2238 84.3554
" />
<path d="M199.2238 84.3554
L199.2857 84.4173
" />
<path d="M199.2857 84.4173
L199.3476 84.5411
" />
<path d="M199.3476 84.5411
L199.3476 84.6649
" />
<path d="M199.3476 84.6649
L199.2857 84.7887
" />
<path d="M199.2857 84.7887
L199.2238 84.8506
" />
<path d="M199.2238 84.8506
L199.1000 84.9125
" />
<path d="M199.1000 84.9125
L198.6667 84.9125
" />
</g><text x="199.0072" y="135.6500"
textLength="1.4972" font-size="1.7333" lengthAdjust="spacingAndGlyphs"
text-anchor="middle" opacity="0" stroke-opacity="0">C</text>
<g class="stroked-text"><desc>C</desc>
<path d="M199.4095 135.4696
L199.3476 135.5316
" />
<path d="M199.3476 135.5316
L199.1619 135.5935
" />
<path d="M199.1619 135.5935
L199.0381 135.5935
" />
<path d="M199.0381 135.5935
L198.8524 135.5316
" />
<path d="M198.8524 135.5316
L198.7286 135.4077
" />
<path d="M198.7286 135.4077
L198.6667 135.2839
" />
<path d="M198.6667 135.2839
L198.6048 135.0363
" />
<path d="M198.6048 135.0363
L198.6048 134.8506
" />
<path d="M198.6048 134.8506
L198.6667 134.6030
" />
<path d="M198.6667 134.6030
L198.7286 134.4792
" />
<path d="M198.7286 134.4792
L198.8524 134.3554
" />
<path d="M198.8524 134.3554
L199.0381 134.2935
" />
<path d="M199.0381 134.2935
L199.1619 134.2935
" />
<path d="M199.1619 134.2935
L199.3476 134.3554
" />
<path d="M199.3476 134.3554
L199.4095 134.4173
" />
</g><text x="113.0072" y="131.8558"
textLength="7.0143" font-size="2.0000" lengthAdjust="spacingAndGlyphs"
text-anchor="start" opacity="0" stroke-opacity="0">Date: </text>
<g class="stroked-text"><desc>Date: </desc>
<path d="M113.4645 131.7917
L113.4645 130.2917
" />
<path d="M113.4645 130.2917
L113.8216 130.2917
" />
<path d="M113.8216 130.2917
L114.0359 130.3631
" />
<path d="M114.0359 130.3631
L114.1788 130.5060
" />
<path d="M114.1788 130.5060
L114.2502 130.6488
" />
<path d="M114.2502 130.6488
L114.3216 130.9345
" />
<path d="M114.3216 130.9345
L114.3216 131.1488
" />
<path d="M114.3216 131.1488
L114.2502 131.4345
" />
<path d="M114.2502 131.4345
L114.1788 131.5774
" />
<path d="M114.1788 131.5774
L114.0359 131.7203
" />
<path d="M114.0359 131.7203
L113.8216 131.7917
" />
<path d="M113.8216 131.7917
L113.4645 131.7917
" />
<path d="M115.6074 131.7917
L115.6074 131.0060
" />
<path d="M115.6074 131.0060
L115.5359 130.8631
" />
<path d="M115.5359 130.8631
L115.3931 130.7917
" />
<path d="M115.3931 130.7917
L115.1074 130.7917
" />
<path d="M115.1074 130.7917
L114.9645 130.8631
" />
<path d="M115.6074 131.7203
L115.4645 131.7917
" />
<path d="M115.4645 131.7917
L115.1074 131.7917
" />
<path d="M115.1074 131.7917
L114.9645 131.7203
" />
<path d="M114.9645 131.7203
L114.8931 131.5774
" />
<path d="M114.8931 131.5774
L114.8931 131.4345
" />
<path d="M114.8931 131.4345
L114.9645 131.2917
" />
<path d="M114.9645 131.2917
L115.1074 131.2203
" />
<path d="M115.1074 131.2203
L115.4645 131.2203
" />
<path d="M115.4645 131.2203
L115.6074 131.1488
" />
<path d="M116.1073 130.7917
L116.6787 130.7917
" />
<path d="M116.3216 130.2917
L116.3216 131.5774
" />
<path d="M116.3216 131.5774
L116.3930 131.7203
" />
<path d="M116.3930 131.7203
L116.5359 131.7917
" />
<path d="M116.5359 131.7917
L116.6787 131.7917
" />
<path d="M117.7501 131.7203
L117.6073 131.7917
" />
<path d="M117.6073 131.7917
L117.3216 131.7917
" />
<path d="M117.3216 131.7917
L117.1787 131.7203
" />
<path d="M117.1787 131.7203
L117.1073 131.5774
" />
<path d="M117.1073 131.5774
L117.1073 131.0060
" />
<path d="M117.1073 131.0060
L117.1787 130.8631
" />
<path d="M117.1787 130.8631
L117.3216 130.7917
" />
<path d="M117.3216 130.7917
L117.6073 130.7917
" />
<path d="M117.6073 130.7917
L117.7501 130.8631
" />
<path d="M117.7501 130.8631
L117.8216 131.0060
" />
<path d="M117.8216 131.0060
L117.8216 131.1488
" />
<path d="M117.8216 131.1488
L117.1073 131.2917
" />
<path d="M118.4644 131.6488
L118.5358 131.7203
" />
<path d="M118.5358 131.7203
L118.4644 131.7917
" />
<path d="M118.4644 131.7917
L118.3930 131.7203
" />
<path d="M118.3930 131.7203
L118.4644 131.6488
" />
<path d="M118.4644 131.6488
L118.4644 131.7917
" />
<path d="M118.4644 130.8631
L118.5358 130.9345
" />
<path d="M118.5358 130.9345
L118.4644 131.0060
" />
<path d="M118.4644 131.0060
L118.3930 130.9345
" />
<path d="M118.3930 130.9345
L118.4644 130.8631
" />
<path d="M118.4644 130.8631
L118.4644 131.0060
" />
</g><path d="M90.0072 132.5058
L198.0072 132.5058
" />
<text x="91.0072" y="134.6558"
textLength="20.8716" font-size="2.0000" lengthAdjust="spacingAndGlyphs"
text-anchor="start" opacity="0" stroke-opacity="0">KiCad E.D.A. 9.0.6</text>
<g class="stroked-text"><desc>KiCad E.D.A. 9.0.6</desc>
<path d="M91.4645 134.5917
L91.4645 133.0917
" />
<path d="M92.3216 134.5917
L91.6788 133.7345
" />
<path d="M92.3216 133.0917
L91.4645 133.9488
" />
<path d="M92.9645 134.5917
L92.9645 133.5917
" />
<path d="M92.9645 133.0917
L92.8931 133.1631
" />
<path d="M92.8931 133.1631
L92.9645 133.2345
" />
<path d="M92.9645 133.2345
L93.0359 133.1631
" />
<path d="M93.0359 133.1631
L92.9645 133.0917
" />
<path d="M92.9645 133.0917
L92.9645 133.2345
" />
<path d="M94.5359 134.4488
L94.4645 134.5203
" />
<path d="M94.4645 134.5203
L94.2502 134.5917
" />
<path d="M94.2502 134.5917
L94.1074 134.5917
" />
<path d="M94.1074 134.5917
L93.8931 134.5203
" />
<path d="M93.8931 134.5203
L93.7502 134.3774
" />
<path d="M93.7502 134.3774
L93.6788 134.2345
" />
<path d="M93.6788 134.2345
L93.6074 133.9488
" />
<path d="M93.6074 133.9488
L93.6074 133.7345
" />
<path d="M93.6074 133.7345
L93.6788 133.4488
" />
<path d="M93.6788 133.4488
L93.7502 133.3060
" />
<path d="M93.7502 133.3060
L93.8931 133.1631
" />
<path d="M93.8931 133.1631
L94.1074 133.0917
" />
<path d="M94.1074 133.0917
L94.2502 133.0917
" />
<path d="M94.2502 133.0917
L94.4645 133.1631
" />
<path d="M94.4645 133.1631
L94.5359 133.2345
" />
<path d="M95.8217 134.5917
L95.8217 133.8060
" />
<path d="M95.8217 133.8060
L95.7502 133.6631
" />
<path d="M95.7502 133.6631
L95.6074 133.5917
" />
<path d="M95.6074 133.5917
L95.3217 133.5917
" />
<path d="M95.3217 133.5917
L95.1788 133.6631
" />
<path d="M95.8217 134.5203
L95.6788 134.5917
" />
<path d="M95.6788 134.5917
L95.3217 134.5917
" />
<path d="M95.3217 134.5917
L95.1788 134.5203
" />
<path d="M95.1788 134.5203
L95.1074 134.3774
" />
<path d="M95.1074 134.3774
L95.1074 134.2345
" />
<path d="M95.1074 134.2345
L95.1788 134.0917
" />
<path d="M95.1788 134.0917
L95.3217 134.0203
" />
<path d="M95.3217 134.0203
L95.6788 134.0203
" />
<path d="M95.6788 134.0203
L95.8217 133.9488
" />
<path d="M97.1788 134.5917
L97.1788 133.0917
" />
<path d="M97.1788 134.5203
L97.0359 134.5917
" />
<path d="M97.0359 134.5917
L96.7502 134.5917
" />
<path d="M96.7502 134.5917
L96.6073 134.5203
" />
<path d="M96.6073 134.5203
L96.5359 134.4488
" />
<path d="M96.5359 134.4488
L96.4645 134.3060
" />
<path d="M96.4645 134.3060
L96.4645 133.8774
" />
<path d="M96.4645 133.8774
L96.5359 133.7345
" />
<path d="M96.5359 133.7345
L96.6073 133.6631
" />
<path d="M96.6073 133.6631
L96.7502 133.5917
" />
<path d="M96.7502 133.5917
L97.0359 133.5917
" />
<path d="M97.0359 133.5917
L97.1788 133.6631
" />
<path d="M99.0359 133.8060
L99.5359 133.8060
" />
<path d="M99.7502 134.5917
L99.0359 134.5917
" />
<path d="M99.0359 134.5917
L99.0359 133.0917
" />
<path d="M99.0359 133.0917
L99.7502 133.0917
" />
<path d="M100.3930 134.4488
L100.4644 134.5203
" />
<path d="M100.4644 134.5203
L100.3930 134.5917
" />
<path d="M100.3930 134.5917
L100.3216 134.5203
" />
<path d="M100.3216 134.5203
L100.3930 134.4488
" />
<path d="M100.3930 134.4488
L100.3930 134.5917
" />
<path d="M101.1073 134.5917
L101.1073 133.0917
" />
<path d="M101.1073 133.0917
L101.4644 133.0917
" />
<path d="M101.4644 133.0917
L101.6787 133.1631
" />
<path d="M101.6787 133.1631
L101.8216 133.3060
" />
<path d="M101.8216 133.3060
L101.8930 133.4488
" />
<path d="M101.8930 133.4488
L101.9644 133.7345
" />
<path d="M101.9644 133.7345
L101.9644 133.9488
" />
<path d="M101.9644 133.9488
L101.8930 134.2345
" />
<path d="M101.8930 134.2345
L101.8216 134.3774
" />
<path d="M101.8216 134.3774
L101.6787 134.5203
" />
<path d="M101.6787 134.5203
L101.4644 134.5917
" />
<path d="M101.4644 134.5917
L101.1073 134.5917
" />
<path d="M102.6073 134.4488
L102.6787 134.5203
" />
<path d="M102.6787 134.5203
L102.6073 134.5917
" />
<path d="M102.6073 134.5917
L102.5359 134.5203
" />
<path d="M102.5359 134.5203
L102.6073 134.4488
" />
<path d="M102.6073 134.4488
L102.6073 134.5917
" />
<path d="M103.2502 134.1631
L103.9645 134.1631
" />
<path d="M103.1073 134.5917
L103.6073 133.0917
" />
<path d="M103.6073 133.0917
L104.1073 134.5917
" />
<path d="M104.6073 134.4488
L104.6787 134.5203
" />
<path d="M104.6787 134.5203
L104.6073 134.5917
" />
<path d="M104.6073 134.5917
L104.5359 134.5203
" />
<path d="M104.5359 134.5203
L104.6073 134.4488
" />
<path d="M104.6073 134.4488
L104.6073 134.5917
" />
<path d="M106.5359 134.5917
L106.8216 134.5917
" />
<path d="M106.8216 134.5917
L106.9645 134.5203
" />
<path d="M106.9645 134.5203
L107.0359 134.4488
" />
<path d="M107.0359 134.4488
L107.1788 134.2345
" />
<path d="M107.1788 134.2345
L107.2502 133.9488
" />
<path d="M107.2502 133.9488
L107.2502 133.3774
" />
<path d="M107.2502 133.3774
L107.1788 133.2345
" />
<path d="M107.1788 133.2345
L107.1074 133.1631
" />
<path d="M107.1074 133.1631
L106.9645 133.0917
" />
<path d="M106.9645 133.0917
L106.6788 133.0917
" />
<path d="M106.6788 133.0917
L106.5359 133.1631
" />
<path d="M106.5359 133.1631
L106.4645 133.2345
" />
<path d="M106.4645 133.2345
L106.3931 133.3774
" />
<path d="M106.3931 133.3774
L106.3931 133.7345
" />
<path d="M106.3931 133.7345
L106.4645 133.8774
" />
<path d="M106.4645 133.8774
L106.5359 133.9488
" />
<path d="M106.5359 133.9488
L106.6788 134.0203
" />
<path d="M106.6788 134.0203
L106.9645 134.0203
" />
<path d="M106.9645 134.0203
L107.1074 133.9488
" />
<path d="M107.1074 133.9488
L107.1788 133.8774
" />
<path d="M107.1788 133.8774
L107.2502 133.7345
" />
<path d="M107.8931 134.4488
L107.9645 134.5203
" />
<path d="M107.9645 134.5203
L107.8931 134.5917
" />
<path d="M107.8931 134.5917
L107.8217 134.5203
" />
<path d="M107.8217 134.5203
L107.8931 134.4488
" />
<path d="M107.8931 134.4488
L107.8931 134.5917
" />
<path d="M108.8931 133.0917
L109.0360 133.0917
" />
<path d="M109.0360 133.0917
L109.1788 133.1631
" />
<path d="M109.1788 133.1631
L109.2503 133.2345
" />
<path d="M109.2503 133.2345
L109.3217 133.3774
" />
<path d="M109.3217 133.3774
L109.3931 133.6631
" />
<path d="M109.3931 133.6631
L109.3931 134.0203
" />
<path d="M109.3931 134.0203
L109.3217 134.3060
" />
<path d="M109.3217 134.3060
L109.2503 134.4488
" />
<path d="M109.2503 134.4488
L109.1788 134.5203
" />
<path d="M109.1788 134.5203
L109.0360 134.5917
" />
<path d="M109.0360 134.5917
L108.8931 134.5917
" />
<path d="M108.8931 134.5917
L108.7503 134.5203
" />
<path d="M108.7503 134.5203
L108.6788 134.4488
" />
<path d="M108.6788 134.4488
L108.6074 134.3060
" />
<path d="M108.6074 134.3060
L108.5360 134.0203
" />
<path d="M108.5360 134.0203
L108.5360 133.6631
" />
<path d="M108.5360 133.6631
L108.6074 133.3774
" />
<path d="M108.6074 133.3774
L108.6788 133.2345
" />
<path d="M108.6788 133.2345
L108.7503 133.1631
" />
<path d="M108.7503 133.1631
L108.8931 133.0917
" />
<path d="M110.0360 134.4488
L110.1074 134.5203
" />
<path d="M110.1074 134.5203
L110.0360 134.5917
" />
<path d="M110.0360 134.5917
L109.9646 134.5203
" />
<path d="M109.9646 134.5203
L110.0360 134.4488
" />
<path d="M110.0360 134.4488
L110.0360 134.5917
" />
<path d="M111.3932 133.0917
L111.1074 133.0917
" />
<path d="M111.1074 133.0917
L110.9646 133.1631
" />
<path d="M110.9646 133.1631
L110.8932 133.2345
" />
<path d="M110.8932 133.2345
L110.7503 133.4488
" />
<path d="M110.7503 133.4488
L110.6789 133.7345
" />
<path d="M110.6789 133.7345
L110.6789 134.3060
" />
<path d="M110.6789 134.3060
L110.7503 134.4488
" />
<path d="M110.7503 134.4488
L110.8217 134.5203
" />
<path d="M110.8217 134.5203
L110.9646 134.5917
" />
<path d="M110.9646 134.5917
L111.2503 134.5917
" />
<path d="M111.2503 134.5917
L111.3932 134.5203
" />
<path d="M111.3932 134.5203
L111.4646 134.4488
" />
<path d="M111.4646 134.4488
L111.5360 134.3060
" />
<path d="M111.5360 134.3060
L111.5360 133.9488
" />
<path d="M111.5360 133.9488
L111.4646 133.8060
" />
<path d="M111.4646 133.8060
L111.3932 133.7345
" />
<path d="M111.3932 133.7345
L111.2503 133.6631
" />
<path d="M111.2503 133.6631
L110.9646 133.6631
" />
<path d="M110.9646 133.6631
L110.8217 133.7345
" />
<path d="M110.8217 133.7345
L110.7503 133.8060
" />
<path d="M110.7503 133.8060
L110.6789 133.9488
" />
</g><path d="M90.0072 129.5058
L198.0072 129.5058
" />
</g>
<g style="fill:none; 
stroke:#840000; stroke-width:0.3000; stroke-opacity:1; 
stroke-linecap:round; stroke-linejoin:round;">
<text x="176.0072" y="131.8558"
textLength="6.3858" font-size="2.0000" lengthAdjust="spacingAndGlyphs"
text-anchor="start" opacity="0" stroke-opacity="0">Rev: </text>
<g class="stroked-text"><desc>Rev: </desc>
<path d="M177.4187 131.7841
L176.9187 131.0698
" />
<path d="M176.5616 131.7841
L176.5616 130.2841
" />
<path d="M176.5616 130.2841
L177.1330 130.2841
" />
<path d="M177.1330 130.2841
L177.2759 130.3555
" />
<path d="M177.2759 130.3555
L177.3473 130.4269
" />
<path d="M177.3473 130.4269
L177.4187 130.5698
" />
<path d="M177.4187 130.5698
L177.4187 130.7841
" />
<path d="M177.4187 130.7841
L177.3473 130.9269
" />
<path d="M177.3473 130.9269
L177.2759 130.9984
" />
<path d="M177.2759 130.9984
L177.1330 131.0698
" />
<path d="M177.1330 131.0698
L176.5616 131.0698
" />
<path d="M178.6330 131.7127
L178.4902 131.7841
" />
<path d="M178.4902 131.7841
L178.2045 131.7841
" />
<path d="M178.2045 131.7841
L178.0616 131.7127
" />
<path d="M178.0616 131.7127
L177.9902 131.5698
" />
<path d="M177.9902 131.5698
L177.9902 130.9984
" />
<path d="M177.9902 130.9984
L178.0616 130.8555
" />
<path d="M178.0616 130.8555
L178.2045 130.7841
" />
<path d="M178.2045 130.7841
L178.4902 130.7841
" />
<path d="M178.4902 130.7841
L178.6330 130.8555
" />
<path d="M178.6330 130.8555
L178.7045 130.9984
" />
<path d="M178.7045 130.9984
L178.7045 131.1412
" />
<path d="M178.7045 131.1412
L177.9902 131.2841
" />
<path d="M179.2044 130.7841
L179.5616 131.7841
" />
<path d="M179.5616 131.7841
L179.9187 130.7841
" />
<path d="M180.4902 131.6412
L180.5616 131.7127
" />
<path d="M180.5616 131.7127
L180.4902 131.7841
" />
<path d="M180.4902 131.7841
L180.4188 131.7127
" />
<path d="M180.4188 131.7127
L180.4902 131.6412
" />
<path d="M180.4902 131.6412
L180.4902 131.7841
" />
<path d="M180.4902 130.8555
L180.5616 130.9269
" />
<path d="M180.5616 130.9269
L180.4902 130.9984
" />
<path d="M180.4902 130.9984
L180.4188 130.9269
" />
<path d="M180.4188 130.9269
L180.4902 130.8555
" />
<path d="M180.4902 130.8555
L180.4902 130.9984
" />
</g></g>
<g style="fill:none; 
stroke:#840000; stroke-width:0.1524; stroke-opacity:1; 
stroke-linecap:round; stroke-linejoin:round;">
<text x="91.0072" y="131.8558"
textLength="9.3716" font-size="2.0000" lengthAdjust="spacingAndGlyphs"
text-anchor="start" opacity="0" stroke-opacity="0">Size: A5</text>
<g class="stroked-text"><desc>Size: A5</desc>
<path d="M91.3931 131.7203
L91.6074 131.7917
" />
<path d="M91.6074 131.7917
L91.9645 131.7917
" />
<path d="M91.9645 131.7917
L92.1074 131.7203
" />
<path d="M92.1074 131.7203
L92.1788 131.6488
" />
<path d="M92.1788 131.6488
L92.2502 131.5060
" />
<path d="M92.2502 131.5060
L92.2502 131.3631
" />
<path d="M92.2502 131.3631
L92.1788 131.2203
" />
<path d="M92.1788 131.2203
L92.1074 131.1488
" />
<path d="M92.1074 131.1488
L91.9645 131.0774
" />
<path d="M91.9645 131.0774
L91.6788 131.0060
" />
<path d="M91.6788 131.0060
L91.5359 130.9345
" />
<path d="M91.5359 130.9345
L91.4645 130.8631
" />
<path d="M91.4645 130.8631
L91.3931 130.7203
" />
<path d="M91.3931 130.7203
L91.3931 130.5774
" />
<path d="M91.3931 130.5774
L91.4645 130.4345
" />
<path d="M91.4645 130.4345
L91.5359 130.3631
" />
<path d="M91.5359 130.3631
L91.6788 130.2917
" />
<path d="M91.6788 130.2917
L92.0359 130.2917
" />
<path d="M92.0359 130.2917
L92.2502 130.3631
" />
<path d="M92.8931 131.7917
L92.8931 130.7917
" />
<path d="M92.8931 130.2917
L92.8217 130.3631
" />
<path d="M92.8217 130.3631
L92.8931 130.4345
" />
<path d="M92.8931 130.4345
L92.9645 130.3631
" />
<path d="M92.9645 130.3631
L92.8931 130.2917
" />
<path d="M92.8931 130.2917
L92.8931 130.4345
" />
<path d="M93.4645 130.7917
L94.2503 130.7917
" />
<path d="M94.2503 130.7917
L93.4645 131.7917
" />
<path d="M93.4645 131.7917
L94.2503 131.7917
" />
<path d="M95.3931 131.7203
L95.2503 131.7917
" />
<path d="M95.2503 131.7917
L94.9646 131.7917
" />
<path d="M94.9646 131.7917
L94.8217 131.7203
" />
<path d="M94.8217 131.7203
L94.7503 131.5774
" />
<path d="M94.7503 131.5774
L94.7503 131.0060
" />
<path d="M94.7503 131.0060
L94.8217 130.8631
" />
<path d="M94.8217 130.8631
L94.9646 130.7917
" />
<path d="M94.9646 130.7917
L95.2503 130.7917
" />
<path d="M95.2503 130.7917
L95.3931 130.8631
" />
<path d="M95.3931 130.8631
L95.4646 131.0060
" />
<path d="M95.4646 131.0060
L95.4646 131.1488
" />
<path d="M95.4646 131.1488
L94.7503 131.2917
" />
<path d="M96.1074 131.6488
L96.1788 131.7203
" />
<path d="M96.1788 131.7203
L96.1074 131.7917
" />
<path d="M96.1074 131.7917
L96.0360 131.7203
" />
<path d="M96.0360 131.7203
L96.1074 131.6488
" />
<path d="M96.1074 131.6488
L96.1074 131.7917
" />
<path d="M96.1074 130.8631
L96.1788 130.9345
" />
<path d="M96.1788 130.9345
L96.1074 131.0060
" />
<path d="M96.1074 131.0060
L96.0360 130.9345
" />
<path d="M96.0360 130.9345
L96.1074 130.8631
" />
<path d="M96.1074 130.8631
L96.1074 131.0060
" />
<path d="M97.8932 131.3631
L98.6075 131.3631
" />
<path d="M97.7503 131.7917
L98.2503 130.2917
" />
<path d="M98.2503 130.2917
L98.7503 131.7917
" />
<path d="M99.9646 130.2917
L99.2503 130.2917
" />
<path d="M99.2503 130.2917
L99.1789 131.0060
" />
<path d="M99.1789 131.0060
L99.2503 130.9345
" />
<path d="M99.2503 130.9345
L99.3932 130.8631
" />
<path d="M99.3932 130.8631
L99.7503 130.8631
" />
<path d="M99.7503 130.8631
L99.8932 130.9345
" />
<path d="M99.8932 130.9345
L99.9646 131.0060
" />
<path d="M99.9646 131.0060
L100.0360 131.1488
" />
<path d="M100.0360 131.1488
L100.0360 131.5060
" />
<path d="M100.0360 131.5060
L99.9646 131.6488
" />
<path d="M99.9646 131.6488
L99.8932 131.7203
" />
<path d="M99.8932 131.7203
L99.7503 131.7917
" />
<path d="M99.7503 131.7917
L99.3932 131.7917
" />
<path d="M99.3932 131.7917
L99.2503 131.7203
" />
<path d="M99.2503 131.7203
L99.1789 131.6488
" />
</g><text x="176.0072" y="134.6558"
textLength="8.5144" font-size="2.0000" lengthAdjust="spacingAndGlyphs"
text-anchor="start" opacity="0" stroke-opacity="0">Id: 1/1</text>
<g class="stroked-text"><desc>Id: 1/1</desc>
<path d="M176.4645 134.5917
L176.4645 133.0917
" />
<path d="M177.8217 134.5917
L177.8217 133.0917
" />
<path d="M177.8217 134.5203
L177.6788 134.5917
" />
<path d="M177.6788 134.5917
L177.3931 134.5917
" />
<path d="M177.3931 134.5917
L177.2502 134.5203
" />
<path d="M177.2502 134.5203
L177.1788 134.4488
" />
<path d="M177.1788 134.4488
L177.1074 134.3060
" />
<path d="M177.1074 134.3060
L177.1074 133.8774
" />
<path d="M177.1074 133.8774
L177.1788 133.7345
" />
<path d="M177.1788 133.7345
L177.2502 133.6631
" />
<path d="M177.2502 133.6631
L177.3931 133.5917
" />
<path d="M177.3931 133.5917
L177.6788 133.5917
" />
<path d="M177.6788 133.5917
L177.8217 133.6631
" />
<path d="M178.5359 134.4488
L178.6073 134.5203
" />
<path d="M178.6073 134.5203
L178.5359 134.5917
" />
<path d="M178.5359 134.5917
L178.4645 134.5203
" />
<path d="M178.4645 134.5203
L178.5359 134.4488
" />
<path d="M178.5359 134.4488
L178.5359 134.5917
" />
<path d="M178.5359 133.6631
L178.6073 133.7345
" />
<path d="M178.6073 133.7345
L178.5359 133.8060
" />
<path d="M178.5359 133.8060
L178.4645 133.7345
" />
<path d="M178.4645 133.7345
L178.5359 133.6631
" />
<path d="M178.5359 133.6631
L178.5359 133.8060
" />
<path d="M181.1788 134.5917
L180.3217 134.5917
" />
<path d="M180.7502 134.5917
L180.7502 133.0917
" />
<path d="M180.7502 133.0917
L180.6074 133.3060
" />
<path d="M180.6074 133.3060
L180.4645 133.4488
" />
<path d="M180.4645 133.4488
L180.3217 133.5203
" />
<path d="M182.8931 133.0203
L181.6074 134.9488
" />
<path d="M184.1788 134.5917
L183.3217 134.5917
" />
<path d="M183.7502 134.5917
L183.7502 133.0917
" />
<path d="M183.7502 133.0917
L183.6074 133.3060
" />
<path d="M183.6074 133.3060
L183.4645 133.4488
" />
<path d="M183.4645 133.4488
L183.3217 133.5203
" />
</g><path d="M90.0072 125.5058
L198.0072 125.5058
" />
</g>
<g style="fill:none; 
stroke:#840000; stroke-width:0.4000; stroke-opacity:1; 
stroke-linecap:round; stroke-linejoin:round;">
<text x="91.0072" y="128.3058"
textLength="9.6572" font-size="2.6666" lengthAdjust="spacingAndGlyphs"
text-anchor="start" opacity="0" stroke-opacity="0">Title: </text>
<g class="stroked-text"><desc>Title: </desc>
<path d="M91.6988 126.2102
L92.8417 126.2102
" />
<path d="M92.0203 128.2102
L92.2703 126.2102
" />
<path d="M93.2583 128.2102
L93.4250 126.8769
" />
<path d="M93.5083 126.2102
L93.4012 126.3054
" />
<path d="M93.4012 126.3054
L93.4845 126.4007
" />
<path d="M93.4845 126.4007
L93.5917 126.3054
" />
<path d="M93.5917 126.3054
L93.5083 126.2102
" />
<path d="M93.5083 126.2102
L93.4845 126.4007
" />
<path d="M94.0917 126.8769
L94.8536 126.8769
" />
<path d="M94.4607 126.2102
L94.2465 127.9245
" />
<path d="M94.2465 127.9245
L94.3179 128.1150
" />
<path d="M94.3179 128.1150
L94.4965 128.2102
" />
<path d="M94.4965 128.2102
L94.6869 128.2102
" />
<path d="M95.6394 128.2102
L95.4608 128.1150
" />
<path d="M95.4608 128.1150
L95.3894 127.9245
" />
<path d="M95.3894 127.9245
L95.6036 126.2102
" />
<path d="M97.1750 128.1150
L96.9727 128.2102
" />
<path d="M96.9727 128.2102
L96.5917 128.2102
" />
<path d="M96.5917 128.2102
L96.4131 128.1150
" />
<path d="M96.4131 128.1150
L96.3417 127.9245
" />
<path d="M96.3417 127.9245
L96.4370 127.1626
" />
<path d="M96.4370 127.1626
L96.5560 126.9721
" />
<path d="M96.5560 126.9721
L96.7584 126.8769
" />
<path d="M96.7584 126.8769
L97.1393 126.8769
" />
<path d="M97.1393 126.8769
L97.3179 126.9721
" />
<path d="M97.3179 126.9721
L97.3893 127.1626
" />
<path d="M97.3893 127.1626
L97.3655 127.3530
" />
<path d="M97.3655 127.3530
L96.3893 127.5435
" />
<path d="M98.1393 128.0197
L98.2227 128.1150
" />
<path d="M98.2227 128.1150
L98.1155 128.2102
" />
<path d="M98.1155 128.2102
L98.0322 128.1150
" />
<path d="M98.0322 128.1150
L98.1393 128.0197
" />
<path d="M98.1393 128.0197
L98.1155 128.2102
" />
<path d="M98.2703 126.9721
L98.3536 127.0673
" />
<path d="M98.3536 127.0673
L98.2465 127.1626
" />
<path d="M98.2465 127.1626
L98.1632 127.0673
" />
<path d="M98.1632 127.0673
L98.2703 126.9721
" />
<path d="M98.2703 126.9721
L98.2465 127.1626
" />
</g></g>
<g style="fill:none; 
stroke:#840000; stroke-width:0.1524; stroke-opacity:1; 
stroke-linecap:round; stroke-linejoin:round;">
<text x="91.0072" y="124.4558"
textLength="32.8714" font-size="2.0000" lengthAdjust="spacingAndGlyphs"
text-anchor="start" opacity="0" stroke-opacity="0">File: schematics_1.kicad_sch</text>
<g class="stroked-text"><desc>File: schematics_1.kicad_sch</desc>
<path d="M91.9645 123.6060
L91.4645 123.6060
" />
<path d="M91.4645 124.3917
L91.4645 122.8917
" />
<path d="M91.4645 122.8917
L92.1788 122.8917
" />
<path d="M92.7502 124.3917
L92.7502 123.3917
" />
<path d="M92.7502 122.8917
L92.6788 122.9631
" />
<path d="M92.6788 122.9631
L92.7502 123.0345
" />
<path d="M92.7502 123.0345
L92.8216 122.9631
" />
<path d="M92.8216 122.9631
L92.7502 122.8917
" />
<path d="M92.7502 122.8917
L92.7502 123.0345
" />
<path d="M93.6788 124.3917
L93.5359 124.3203
" />
<path d="M93.5359 124.3203
L93.4645 124.1774
" />
<path d="M93.4645 124.1774
L93.4645 122.8917
" />
<path d="M94.8216 124.3203
L94.6788 124.3917
" />
<path d="M94.6788 124.3917
L94.3931 124.3917
" />
<path d="M94.3931 124.3917
L94.2502 124.3203
" />
<path d="M94.2502 124.3203
L94.1788 124.1774
" />
<path d="M94.1788 124.1774
L94.1788 123.6060
" />
<path d="M94.1788 123.6060
L94.2502 123.4631
" />
<path d="M94.2502 123.4631
L94.3931 123.3917
" />
<path d="M94.3931 123.3917
L94.6788 123.3917
" />
<path d="M94.6788 123.3917
L94.8216 123.4631
" />
<path d="M94.8216 123.4631
L94.8931 123.6060
" />
<path d="M94.8931 123.6060
L94.8931 123.7488
" />
<path d="M94.8931 123.7488
L94.1788 123.8917
" />
<path d="M95.5359 124.2488
L95.6073 124.3203
" />
<path d="M95.6073 124.3203
L95.5359 124.3917
" />
<path d="M95.5359 124.3917
L95.4645 124.3203
" />
<path d="M95.4645 124.3203
L95.5359 124.2488
" />
<path d="M95.5359 124.2488
L95.5359 124.3917
" />
<path d="M95.5359 123.4631
L95.6073 123.5345
" />
<path d="M95.6073 123.5345
L95.5359 123.6060
" />
<path d="M95.5359 123.6060
L95.4645 123.5345
" />
<path d="M95.4645 123.5345
L95.5359 123.4631
" />
<path d="M95.5359 123.4631
L95.5359 123.6060
" />
<path d="M97.3217 124.3203
L97.4645 124.3917
" />
<path d="M97.4645 124.3917
L97.7502 124.3917
" />
<path d="M97.7502 124.3917
L97.8931 124.3203
" />
<path d="M97.8931 124.3203
L97.9645 124.1774
" />
<path d="M97.9645 124.1774
L97.9645 124.1060
" />
<path d="M97.9645 124.1060
L97.8931 123.9631
" />
<path d="M97.8931 123.9631
L97.7502 123.8917
" />
<path d="M97.7502 123.8917
L97.5360 123.8917
" />
<path d="M97.5360 123.8917
L97.3931 123.8203
" />
<path d="M97.3931 123.8203
L97.3217 123.6774
" />
<path d="M97.3217 123.6774
L97.3217 123.6060
" />
<path d="M97.3217 123.6060
L97.3931 123.4631
" />
<path d="M97.3931 123.4631
L97.5360 123.3917
" />
<path d="M97.5360 123.3917
L97.7502 123.3917
" />
<path d="M97.7502 123.3917
L97.8931 123.4631
" />
<path d="M99.2503 124.3203
L99.1074 124.3917
" />
<path d="M99.1074 124.3917
L98.8217 124.3917
" />
<path d="M98.8217 124.3917
L98.6788 124.3203
" />
<path d="M98.6788 124.3203
L98.6074 124.2488
" />
<path d="M98.6074 124.2488
L98.5360 124.1060
" />
<path d="M98.5360 124.1060
L98.5360 123.6774
" />
<path d="M98.5360 123.6774
L98.6074 123.5345
" />
<path d="M98.6074 123.5345
L98.6788 123.4631
" />
<path d="M98.6788 123.4631
L98.8217 123.3917
" />
<path d="M98.8217 123.3917
L99.1074 123.3917
" />
<path d="M99.1074 123.3917
L99.2503 123.4631
" />
<path d="M99.8931 124.3917
L99.8931 122.8917
" />
<path d="M100.5360 124.3917
L100.5360 123.6060
" />
<path d="M100.5360 123.6060
L100.4645 123.4631
" />
<path d="M100.4645 123.4631
L100.3217 123.3917
" />
<path d="M100.3217 123.3917
L100.1074 123.3917
" />
<path d="M100.1074 123.3917
L99.9645 123.4631
" />
<path d="M99.9645 123.4631
L99.8931 123.5345
" />
<path d="M101.8216 124.3203
L101.6788 124.3917
" />
<path d="M101.6788 124.3917
L101.3931 124.3917
" />
<path d="M101.3931 124.3917
L101.2502 124.3203
" />
<path d="M101.2502 124.3203
L101.1788 124.1774
" />
<path d="M101.1788 124.1774
L101.1788 123.6060
" />
<path d="M101.1788 123.6060
L101.2502 123.4631
" />
<path d="M101.2502 123.4631
L101.3931 123.3917
" />
<path d="M101.3931 123.3917
L101.6788 123.3917
" />
<path d="M101.6788 123.3917
L101.8216 123.4631
" />
<path d="M101.8216 123.4631
L101.8931 123.6060
" />
<path d="M101.8931 123.6060
L101.8931 123.7488
" />
<path d="M101.8931 123.7488
L101.1788 123.8917
" />
<path d="M102.5359 124.3917
L102.5359 123.3917
" />
<path d="M102.5359 123.5345
L102.6073 123.4631
" />
<path d="M102.6073 123.4631
L102.7502 123.3917
" />
<path d="M102.7502 123.3917
L102.9645 123.3917
" />
<path d="M102.9645 123.3917
L103.1073 123.4631
" />
<path d="M103.1073 123.4631
L103.1788 123.6060
" />
<path d="M103.1788 123.6060
L103.1788 124.3917
" />
<path d="M103.1788 123.6060
L103.2502 123.4631
" />
<path d="M103.2502 123.4631
L103.3930 123.3917
" />
<path d="M103.3930 123.3917
L103.6073 123.3917
" />
<path d="M103.6073 123.3917
L103.7502 123.4631
" />
<path d="M103.7502 123.4631
L103.8216 123.6060
" />
<path d="M103.8216 123.6060
L103.8216 124.3917
" />
<path d="M105.1788 124.3917
L105.1788 123.6060
" />
<path d="M105.1788 123.6060
L105.1073 123.4631
" />
<path d="M105.1073 123.4631
L104.9645 123.3917
" />
<path d="M104.9645 123.3917
L104.6788 123.3917
" />
<path d="M104.6788 123.3917
L104.5359 123.4631
" />
<path d="M105.1788 124.3203
L105.0359 124.3917
" />
<path d="M105.0359 124.3917
L104.6788 124.3917
" />
<path d="M104.6788 124.3917
L104.5359 124.3203
" />
<path d="M104.5359 124.3203
L104.4645 124.1774
" />
<path d="M104.4645 124.1774
L104.4645 124.0345
" />
<path d="M104.4645 124.0345
L104.5359 123.8917
" />
<path d="M104.5359 123.8917
L104.6788 123.8203
" />
<path d="M104.6788 123.8203
L105.0359 123.8203
" />
<path d="M105.0359 123.8203
L105.1788 123.7488
" />
<path d="M105.6787 123.3917
L106.2501 123.3917
" />
<path d="M105.8930 122.8917
L105.8930 124.1774
" />
<path d="M105.8930 124.1774
L105.9644 124.3203
" />
<path d="M105.9644 124.3203
L106.1073 124.3917
" />
<path d="M106.1073 124.3917
L106.2501 124.3917
" />
<path d="M106.7501 124.3917
L106.7501 123.3917
" />
<path d="M106.7501 122.8917
L106.6787 122.9631
" />
<path d="M106.6787 122.9631
L106.7501 123.0345
" />
<path d="M106.7501 123.0345
L106.8215 122.9631
" />
<path d="M106.8215 122.9631
L106.7501 122.8917
" />
<path d="M106.7501 122.8917
L106.7501 123.0345
" />
<path d="M108.1073 124.3203
L107.9644 124.3917
" />
<path d="M107.9644 124.3917
L107.6787 124.3917
" />
<path d="M107.6787 124.3917
L107.5358 124.3203
" />
<path d="M107.5358 124.3203
L107.4644 124.2488
" />
<path d="M107.4644 124.2488
L107.3930 124.1060
" />
<path d="M107.3930 124.1060
L107.3930 123.6774
" />
<path d="M107.3930 123.6774
L107.4644 123.5345
" />
<path d="M107.4644 123.5345
L107.5358 123.4631
" />
<path d="M107.5358 123.4631
L107.6787 123.3917
" />
<path d="M107.6787 123.3917
L107.9644 123.3917
" />
<path d="M107.9644 123.3917
L108.1073 123.4631
" />
<path d="M108.6787 124.3203
L108.8215 124.3917
" />
<path d="M108.8215 124.3917
L109.1072 124.3917
" />
<path d="M109.1072 124.3917
L109.2501 124.3203
" />
<path d="M109.2501 124.3203
L109.3215 124.1774
" />
<path d="M109.3215 124.1774
L109.3215 124.1060
" />
<path d="M109.3215 124.1060
L109.2501 123.9631
" />
<path d="M109.2501 123.9631
L109.1072 123.8917
" />
<path d="M109.1072 123.8917
L108.8930 123.8917
" />
<path d="M108.8930 123.8917
L108.7501 123.8203
" />
<path d="M108.7501 123.8203
L108.6787 123.6774
" />
<path d="M108.6787 123.6774
L108.6787 123.6060
" />
<path d="M108.6787 123.6060
L108.7501 123.4631
" />
<path d="M108.7501 123.4631
L108.8930 123.3917
" />
<path d="M108.8930 123.3917
L109.1072 123.3917
" />
<path d="M109.1072 123.3917
L109.2501 123.4631
" />
<path d="M109.6073 124.5345
L110.7501 124.5345
" />
<path d="M111.8930 124.3917
L111.0359 124.3917
" />
<path d="M111.4644 124.3917
L111.4644 122.8917
" />
<path d="M111.4644 122.8917
L111.3216 123.1060
" />
<path d="M111.3216 123.1060
L111.1787 123.2488
" />
<path d="M111.1787 123.2488
L111.0359 123.3203
" />
<path d="M112.5359 124.2488
L112.6073 124.3203
" />
<path d="M112.6073 124.3203
L112.5359 124.3917
" />
<path d="M112.5359 124.3917
L112.4645 124.3203
" />
<path d="M112.4645 124.3203
L112.5359 124.2488
" />
<path d="M112.5359 124.2488
L112.5359 124.3917
" />
<path d="M113.2502 124.3917
L113.2502 122.8917
" />
<path d="M113.3931 123.8203
L113.8216 124.3917
" />
<path d="M113.8216 123.3917
L113.2502 123.9631
" />
<path d="M114.4645 124.3917
L114.4645 123.3917
" />
<path d="M114.4645 122.8917
L114.3931 122.9631
" />
<path d="M114.3931 122.9631
L114.4645 123.0345
" />
<path d="M114.4645 123.0345
L114.5359 122.9631
" />
<path d="M114.5359 122.9631
L114.4645 122.8917
" />
<path d="M114.4645 122.8917
L114.4645 123.0345
" />
<path d="M115.8217 124.3203
L115.6788 124.3917
" />
<path d="M115.6788 124.3917
L115.3931 124.3917
" />
<path d="M115.3931 124.3917
L115.2502 124.3203
" />
<path d="M115.2502 124.3203
L115.1788 124.2488
" />
<path d="M115.1788 124.2488
L115.1074 124.1060
" />
<path d="M115.1074 124.1060
L115.1074 123.6774
" />
<path d="M115.1074 123.6774
L115.1788 123.5345
" />
<path d="M115.1788 123.5345
L115.2502 123.4631
" />
<path d="M115.2502 123.4631
L115.3931 123.3917
" />
<path d="M115.3931 123.3917
L115.6788 123.3917
" />
<path d="M115.6788 123.3917
L115.8217 123.4631
" />
<path d="M117.1074 124.3917
L117.1074 123.6060
" />
<path d="M117.1074 123.6060
L117.0359 123.4631
" />
<path d="M117.0359 123.4631
L116.8931 123.3917
" />
<path d="M116.8931 123.3917
L116.6074 123.3917
" />
<path d="M116.6074 123.3917
L116.4645 123.4631
" />
<path d="M117.1074 124.3203
L116.9645 124.3917
" />
<path d="M116.9645 124.3917
L116.6074 124.3917
" />
<path d="M116.6074 124.3917
L116.4645 124.3203
" />
<path d="M116.4645 124.3203
L116.3931 124.1774
" />
<path d="M116.3931 124.1774
L116.3931 124.0345
" />
<path d="M116.3931 124.0345
L116.4645 123.8917
" />
<path d="M116.4645 123.8917
L116.6074 123.8203
" />
<path d="M116.6074 123.8203
L116.9645 123.8203
" />
<path d="M116.9645 123.8203
L117.1074 123.7488
" />
<path d="M118.4645 124.3917
L118.4645 122.8917
" />
<path d="M118.4645 124.3203
L118.3216 124.3917
" />
<path d="M118.3216 124.3917
L118.0359 124.3917
" />
<path d="M118.0359 124.3917
L117.8930 124.3203
" />
<path d="M117.8930 124.3203
L117.8216 124.2488
" />
<path d="M117.8216 124.2488
L117.7502 124.1060
" />
<path d="M117.7502 124.1060
L117.7502 123.6774
" />
<path d="M117.7502 123.6774
L117.8216 123.5345
" />
<path d="M117.8216 123.5345
L117.8930 123.4631
" />
<path d="M117.8930 123.4631
L118.0359 123.3917
" />
<path d="M118.0359 123.3917
L118.3216 123.3917
" />
<path d="M118.3216 123.3917
L118.4645 123.4631
" />
<path d="M118.8216 124.5345
L119.9644 124.5345
" />
<path d="M120.2502 124.3203
L120.3930 124.3917
" />
<path d="M120.3930 124.3917
L120.6787 124.3917
" />
<path d="M120.6787 124.3917
L120.8216 124.3203
" />
<path d="M120.8216 124.3203
L120.8930 124.1774
" />
<path d="M120.8930 124.1774
L120.8930 124.1060
" />
<path d="M120.8930 124.1060
L120.8216 123.9631
" />
<path d="M120.8216 123.9631
L120.6787 123.8917
" />
<path d="M120.6787 123.8917
L120.4645 123.8917
" />
<path d="M120.4645 123.8917
L120.3216 123.8203
" />
<path d="M120.3216 123.8203
L120.2502 123.6774
" />
<path d="M120.2502 123.6774
L120.2502 123.6060
" />
<path d="M120.2502 123.6060
L120.3216 123.4631
" />
<path d="M120.3216 123.4631
L120.4645 123.3917
" />
<path d="M120.4645 123.3917
L120.6787 123.3917
" />
<path d="M120.6787 123.3917
L120.8216 123.4631
" />
<path d="M122.1788 124.3203
L122.0359 124.3917
" />
<path d="M122.0359 124.3917
L121.7502 124.3917
" />
<path d="M121.7502 124.3917
L121.6073 124.3203
" />
<path d="M121.6073 124.3203
L121.5359 124.2488
" />
<path d="M121.5359 124.2488
L121.4645 124.1060
" />
<path d="M121.4645 124.1060
L121.4645 123.6774
" />
<path d="M121.4645 123.6774
L121.5359 123.5345
" />
<path d="M121.5359 123.5345
L121.6073 123.4631
" />
<path d="M121.6073 123.4631
L121.7502 123.3917
" />
<path d="M121.7502 123.3917
L122.0359 123.3917
" />
<path d="M122.0359 123.3917
L122.1788 123.4631
" />
<path d="M122.8216 124.3917
L122.8216 122.8917
" />
<path d="M123.4645 124.3917
L123.4645 123.6060
" />
<path d="M123.4645 123.6060
L123.3930 123.4631
" />
<path d="M123.3930 123.4631
L123.2502 123.3917
" />
<path d="M123.2502 123.3917
L123.0359 123.3917
" />
<path d="M123.0359 123.3917
L122.8930 123.4631
" />
<path d="M122.8930 123.4631
L122.8216 123.5345
" />
</g><path d="M90.0072 119.5058
L198.0072 119.5058
" />
<text x="91.0072" y="121.7558"
textLength="9.8000" font-size="2.0000" lengthAdjust="spacingAndGlyphs"
text-anchor="start" opacity="0" stroke-opacity="0">Sheet: /</text>
<g class="stroked-text"><desc>Sheet: /</desc>
<path d="M91.3931 121.6203
L91.6074 121.6917
" />
<path d="M91.6074 121.6917
L91.9645 121.6917
" />
<path d="M91.9645 121.6917
L92.1074 121.6203
" />
<path d="M92.1074 121.6203
L92.1788 121.5488
" />
<path d="M92.1788 121.5488
L92.2502 121.4060
" />
<path d="M92.2502 121.4060
L92.2502 121.2631
" />
<path d="M92.2502 121.2631
L92.1788 121.1203
" />
<path d="M92.1788 121.1203
L92.1074 121.0488
" />
<path d="M92.1074 121.0488
L91.9645 120.9774
" />
<path d="M91.9645 120.9774
L91.6788 120.9060
" />
<path d="M91.6788 120.9060
L91.5359 120.8345
" />
<path d="M91.5359 120.8345
L91.4645 120.7631
" />
<path d="M91.4645 120.7631
L91.3931 120.6203
" />
<path d="M91.3931 120.6203
L91.3931 120.4774
" />
<path d="M91.3931 120.4774
L91.4645 120.3345
" />
<path d="M91.4645 120.3345
L91.5359 120.2631
" />
<path d="M91.5359 120.2631
L91.6788 120.1917
" />
<path d="M91.6788 120.1917
L92.0359 120.1917
" />
<path d="M92.0359 120.1917
L92.2502 120.2631
" />
<path d="M92.8931 121.6917
L92.8931 120.1917
" />
<path d="M93.5360 121.6917
L93.5360 120.9060
" />
<path d="M93.5360 120.9060
L93.4645 120.7631
" />
<path d="M93.4645 120.7631
L93.3217 120.6917
" />
<path d="M93.3217 120.6917
L93.1074 120.6917
" />
<path d="M93.1074 120.6917
L92.9645 120.7631
" />
<path d="M92.9645 120.7631
L92.8931 120.8345
" />
<path d="M94.8216 121.6203
L94.6788 121.6917
" />
<path d="M94.6788 121.6917
L94.3931 121.6917
" />
<path d="M94.3931 121.6917
L94.2502 121.6203
" />
<path d="M94.2502 121.6203
L94.1788 121.4774
" />
<path d="M94.1788 121.4774
L94.1788 120.9060
" />
<path d="M94.1788 120.9060
L94.2502 120.7631
" />
<path d="M94.2502 120.7631
L94.3931 120.6917
" />
<path d="M94.3931 120.6917
L94.6788 120.6917
" />
<path d="M94.6788 120.6917
L94.8216 120.7631
" />
<path d="M94.8216 120.7631
L94.8931 120.9060
" />
<path d="M94.8931 120.9060
L94.8931 121.0488
" />
<path d="M94.8931 121.0488
L94.1788 121.1917
" />
<path d="M96.1073 121.6203
L95.9645 121.6917
" />
<path d="M95.9645 121.6917
L95.6788 121.6917
" />
<path d="M95.6788 121.6917
L95.5359 121.6203
" />
<path d="M95.5359 121.6203
L95.4645 121.4774
" />
<path d="M95.4645 121.4774
L95.4645 120.9060
" />
<path d="M95.4645 120.9060
L95.5359 120.7631
" />
<path d="M95.5359 120.7631
L95.6788 120.6917
" />
<path d="M95.6788 120.6917
L95.9645 120.6917
" />
<path d="M95.9645 120.6917
L96.1073 120.7631
" />
<path d="M96.1073 120.7631
L96.1788 120.9060
" />
<path d="M96.1788 120.9060
L96.1788 121.0488
" />
<path d="M96.1788 121.0488
L95.4645 121.1917
" />
<path d="M96.6073 120.6917
L97.1787 120.6917
" />
<path d="M96.8216 120.1917
L96.8216 121.4774
" />
<path d="M96.8216 121.4774
L96.8930 121.6203
" />
<path d="M96.8930 121.6203
L97.0359 121.6917
" />
<path d="M97.0359 121.6917
L97.1787 121.6917
" />
<path d="M97.6787 121.5488
L97.7501 121.6203
" />
<path d="M97.7501 121.6203
L97.6787 121.6917
" />
<path d="M97.6787 121.6917
L97.6073 121.6203
" />
<path d="M97.6073 121.6203
L97.6787 121.5488
" />
<path d="M97.6787 121.5488
L97.6787 121.6917
" />
<path d="M97.6787 120.7631
L97.7501 120.8345
" />
<path d="M97.7501 120.8345
L97.6787 120.9060
" />
<path d="M97.6787 120.9060
L97.6073 120.8345
" />
<path d="M97.6073 120.8345
L97.6787 120.7631
" />
<path d="M97.6787 120.7631
L97.6787 120.9060
" />
<path d="M100.6073 120.1203
L99.3216 122.0488
" />
</g></g>
<g style="fill:none; 
stroke:#840000; stroke-width:0.3000; stroke-opacity:1; 
stroke-linecap:round; stroke-linejoin:round;">
<text x="91.0072" y="118.7558"
textLength="0.9000" font-size="2.0000" lengthAdjust="spacingAndGlyphs"
text-anchor="start" opacity="0" stroke-opacity="0"></text>
<g class="stroked-text"><desc></desc>
</g></g>
<g style="fill:none; 
stroke:#840000; stroke-width:0.1524; stroke-opacity:1; 
stroke-linecap:round; stroke-linejoin:round;">
<text x="91.0072" y="115.7558"
textLength="0.4572" font-size="2.0000" lengthAdjust="spacingAndGlyphs"
text-anchor="start" opacity="0" stroke-opacity="0"></text>
<g class="stroked-text"><desc></desc>
</g><text x="91.0072" y="112.7558"
textLength="0.4572" font-size="2.0000" lengthAdjust="spacingAndGlyphs"
text-anchor="start" opacity="0" stroke-opacity="0"></text>
<g class="stroked-text"><desc></desc>
</g><text x="91.0072" y="109.7558"
textLength="0.4572" font-size="2.0000" lengthAdjust="spacingAndGlyphs"
text-anchor="start" opacity="0" stroke-opacity="0"></text>
<g class="stroked-text"><desc></desc>
</g><text x="91.0072" y="106.7558"
textLength="0.4572" font-size="2.0000" lengthAdjust="spacingAndGlyphs"
text-anchor="start" opacity="0" stroke-opacity="0"></text>
<g class="stroked-text"><desc></desc>
</g><path d="M110.0072 129.5058
L110.0072 132.5058
" />
<path d="M174.0072 129.5058
L174.0072 136.0058
" />
<path style="fill:none; 
stroke:#840000; stroke-width:0.1524; stroke-opacity:1; 
stroke-linecap:round; stroke-linejoin:round;fill:none"
d="M 24.1300,68.5800
25.4000,69.8500
26.6700,68.5800
Z" /> 
</g>
<g style="fill:none; 
stroke:#840000; stroke-width:0.1524; stroke-opacity:1; 
stroke-linecap:round; stroke-linejoin:round;">
<path d="M25.4000 68.5800
L25.4000 68.5800
" />
</g>
<g style="fill:none; 
stroke:#006464; stroke-width:0.1524; stroke-opacity:1; 
stroke-linecap:round; stroke-linejoin:round;">
<text x="26.6700" y="67.9450"
textLength="1.4127" font-size="1.6933" lengthAdjust="spacingAndGlyphs"
text-anchor="middle" opacity="0" stroke-opacity="0">0</text>
<g class="stroked-text"><desc>0</desc>
<path d="M26.6095 66.6195
L26.7305 66.6195
" />
<path d="M26.7305 66.6195
L26.8514 66.6800
" />
<path d="M26.8514 66.6800
L26.9119 66.7405
" />
<path d="M26.9119 66.7405
L26.9724 66.8614
" />
<path d="M26.9724 66.8614
L27.0329 67.1033
" />
<path d="M27.0329 67.1033
L27.0329 67.4057
" />
<path d="M27.0329 67.4057
L26.9724 67.6476
" />
<path d="M26.9724 67.6476
L26.9119 67.7686
" />
<path d="M26.9119 67.7686
L26.8514 67.8291
" />
<path d="M26.8514 67.8291
L26.7305 67.8895
" />
<path d="M26.7305 67.8895
L26.6095 67.8895
" />
<path d="M26.6095 67.8895
L26.4886 67.8291
" />
<path d="M26.4886 67.8291
L26.4281 67.7686
" />
<path d="M26.4281 67.7686
L26.3676 67.6476
" />
<path d="M26.3676 67.6476
L26.3072 67.4057
" />
<path d="M26.3072 67.4057
L26.3072 67.1033
" />
<path d="M26.3072 67.1033
L26.3676 66.8614
" />
<path d="M26.3676 66.8614
L26.4281 66.7405
" />
<path d="M26.4281 66.7405
L26.4886 66.6800
" />
<path d="M26.4886 66.6800
L26.6095 66.6195
" />
</g></g>
<g style="fill:none; 
stroke:#840000; stroke-width:0.2540; stroke-opacity:1; 
stroke-linecap:round; stroke-linejoin:round;">
<rect x="51.054000" y="35.560000" width="2.032000" height="5.080000" rx="0.000000" />
</g>
<g style="fill:none; 
stroke:#840000; stroke-width:0.1524; stroke-opacity:1; 
stroke-linecap:round; stroke-linejoin:round;">
<path d="M52.0700 35.5600
L52.0700 34.2900
" />
<path d="M52.0700 40.6400
L52.0700 41.9100
" />
</g>
<g style="fill:none; 
stroke:#006464; stroke-width:0.1524; stroke-opacity:1; 
stroke-linecap:round; stroke-linejoin:round;">
<text x="55.9609" y="37.4649"
textLength="2.6827" font-size="1.6933" lengthAdjust="spacingAndGlyphs"
text-anchor="middle" opacity="0" stroke-opacity="0">R2</text>
<g class="stroked-text"><desc>R2</desc>
<path d="M55.7492 37.4094
L55.3259 36.8047
" />
<path d="M55.0235 37.4094
L55.0235 36.1394
" />
<path d="M55.0235 36.1394
L55.5073 36.1394
" />
<path d="M55.5073 36.1394
L55.6283 36.1999
" />
<path d="M55.6283 36.1999
L55.6888 36.2604
" />
<path d="M55.6888 36.2604
L55.7492 36.3813
" />
<path d="M55.7492 36.3813
L55.7492 36.5628
" />
<path d="M55.7492 36.5628
L55.6888 36.6837
" />
<path d="M55.6888 36.6837
L55.6283 36.7442
" />
<path d="M55.6283 36.7442
L55.5073 36.8047
" />
<path d="M55.5073 36.8047
L55.0235 36.8047
" />
<path d="M56.2331 36.2604
L56.2935 36.1999
" />
<path d="M56.2935 36.1999
L56.4145 36.1394
" />
<path d="M56.4145 36.1394
L56.7169 36.1394
" />
<path d="M56.7169 36.1394
L56.8378 36.1999
" />
<path d="M56.8378 36.1999
L56.8983 36.2604
" />
<path d="M56.8983 36.2604
L56.9588 36.3813
" />
<path d="M56.9588 36.3813
L56.9588 36.5023
" />
<path d="M56.9588 36.5023
L56.8983 36.6837
" />
<path d="M56.8983 36.6837
L56.1726 37.4094
" />
<path d="M56.1726 37.4094
L56.9588 37.4094
" />
</g><text x="56.5354" y="40.0049"
textLength="3.8317" font-size="1.6933" lengthAdjust="spacingAndGlyphs"
text-anchor="middle" opacity="0" stroke-opacity="0">100</text>
<g class="stroked-text"><desc>100</desc>
<path d="M55.6888 39.9494
L54.9631 39.9494
" />
<path d="M55.3259 39.9494
L55.3259 38.6794
" />
<path d="M55.3259 38.6794
L55.2050 38.8609
" />
<path d="M55.2050 38.8609
L55.0840 38.9818
" />
<path d="M55.0840 38.9818
L54.9631 39.0423
" />
<path d="M56.4749 38.6794
L56.5959 38.6794
" />
<path d="M56.5959 38.6794
L56.7168 38.7399
" />
<path d="M56.7168 38.7399
L56.7773 38.8004
" />
<path d="M56.7773 38.8004
L56.8378 38.9213
" />
<path d="M56.8378 38.9213
L56.8983 39.1632
" />
<path d="M56.8983 39.1632
L56.8983 39.4656
" />
<path d="M56.8983 39.4656
L56.8378 39.7075
" />
<path d="M56.8378 39.7075
L56.7773 39.8285
" />
<path d="M56.7773 39.8285
L56.7168 39.8890
" />
<path d="M56.7168 39.8890
L56.5959 39.9494
" />
<path d="M56.5959 39.9494
L56.4749 39.9494
" />
<path d="M56.4749 39.9494
L56.3540 39.8890
" />
<path d="M56.3540 39.8890
L56.2935 39.8285
" />
<path d="M56.2935 39.8285
L56.2330 39.7075
" />
<path d="M56.2330 39.7075
L56.1726 39.4656
" />
<path d="M56.1726 39.4656
L56.1726 39.1632
" />
<path d="M56.1726 39.1632
L56.2330 38.9213
" />
<path d="M56.2330 38.9213
L56.2935 38.8004
" />
<path d="M56.2935 38.8004
L56.3540 38.7399
" />
<path d="M56.3540 38.7399
L56.4749 38.6794
" />
<path d="M57.6844 38.6794
L57.8054 38.6794
" />
<path d="M57.8054 38.6794
L57.9263 38.7399
" />
<path d="M57.9263 38.7399
L57.9868 38.8004
" />
<path d="M57.9868 38.8004
L58.0473 38.9213
" />
<path d="M58.0473 38.9213
L58.1078 39.1632
" />
<path d="M58.1078 39.1632
L58.1078 39.4656
" />
<path d="M58.1078 39.4656
L58.0473 39.7075
" />
<path d="M58.0473 39.7075
L57.9868 39.8285
" />
<path d="M57.9868 39.8285
L57.9263 39.8890
" />
<path d="M57.9263 39.8890
L57.8054 39.9494
" />
<path d="M57.8054 39.9494
L57.6844 39.9494
" />
<path d="M57.6844 39.9494
L57.5635 39.8890
" />
<path d="M57.5635 39.8890
L57.5030 39.8285
" />
<path d="M57.5030 39.8285
L57.4425 39.7075
" />
<path d="M57.4425 39.7075
L57.3821 39.4656
" />
<path d="M57.3821 39.4656
L57.3821 39.1632
" />
<path d="M57.3821 39.1632
L57.4425 38.9213
" />
<path d="M57.4425 38.9213
L57.5030 38.8004
" />
<path d="M57.5030 38.8004
L57.5635 38.7399
" />
<path d="M57.5635 38.7399
L57.6844 38.6794
" />
</g></g>
<g style="fill:none; 
stroke:#840000; stroke-width:0.2540; stroke-opacity:1; 
stroke-linecap:round; stroke-linejoin:round;">
<rect x="35.560000" y="26.924000" width="5.080000" height="2.032000" rx="0.000000" />
</g>
<g style="fill:none; 
stroke:#840000; stroke-width:0.1524; stroke-opacity:1; 
stroke-linecap:round; stroke-linejoin:round;">
<path d="M35.5600 27.9400
L34.2900 27.9400
" />
<path d="M40.6400 27.9400
L41.9100 27.9400
" />
</g>
<g style="fill:none; 
stroke:#006464; stroke-width:0.1524; stroke-opacity:1; 
stroke-linecap:round; stroke-linejoin:round;">
<text x="38.0999" y="22.2249"
textLength="2.6827" font-size="1.6933" lengthAdjust="spacingAndGlyphs"
text-anchor="middle" opacity="0" stroke-opacity="0">R1</text>
<g class="stroked-text"><desc>R1</desc>
<path d="M37.8882 22.1694
L37.4649 21.5647
" />
<path d="M37.1625 22.1694
L37.1625 20.8994
" />
<path d="M37.1625 20.8994
L37.6463 20.8994
" />
<path d="M37.6463 20.8994
L37.7673 20.9599
" />
<path d="M37.7673 20.9599
L37.8278 21.0204
" />
<path d="M37.8278 21.0204
L37.8882 21.1413
" />
<path d="M37.8882 21.1413
L37.8882 21.3228
" />
<path d="M37.8882 21.3228
L37.8278 21.4437
" />
<path d="M37.8278 21.4437
L37.7673 21.5042
" />
<path d="M37.7673 21.5042
L37.6463 21.5647
" />
<path d="M37.6463 21.5647
L37.1625 21.5647
" />
<path d="M39.0978 22.1694
L38.3721 22.1694
" />
<path d="M38.7349 22.1694
L38.7349 20.8994
" />
<path d="M38.7349 20.8994
L38.6140 21.0809
" />
<path d="M38.6140 21.0809
L38.4930 21.2018
" />
<path d="M38.4930 21.2018
L38.3721 21.2623
" />
</g><text x="38.1000" y="24.7649"
textLength="2.6222" font-size="1.6933" lengthAdjust="spacingAndGlyphs"
text-anchor="middle" opacity="0" stroke-opacity="0">47</text>
<g class="stroked-text"><desc>47</desc>
<path d="M37.7371 23.8628
L37.7371 24.7094
" />
<path d="M37.4347 23.3790
L37.1324 24.2861
" />
<path d="M37.1324 24.2861
L37.9185 24.2861
" />
<path d="M38.2814 23.4394
L39.1280 23.4394
" />
<path d="M39.1280 23.4394
L38.5838 24.7094
" />
</g></g>
<g style="fill:#FFFFC2; fill-opacity:1.0000; stroke:none;">
<circle cx="78.7400" cy="46.9900" r="2.5400" /> 
<path style="fill:none; 
stroke:#840000; stroke-width:0.1524; stroke-opacity:1; 
stroke-linecap:round; stroke-linejoin:round;fill:none"
d="M 77.4700,46.7360
80.0100,46.7360
" /> 
<path style="fill:none; 
stroke:#840000; stroke-width:0.1524; stroke-opacity:1; 
stroke-linecap:round; stroke-linejoin:round;fill:none"
d="M 77.9780,47.2440
77.4700,47.2440
" /> 
<path style="fill:none; 
stroke:#840000; stroke-width:0.1524; stroke-opacity:1; 
stroke-linecap:round; stroke-linejoin:round;fill:none"
d="M 78.9940,47.2440
78.4860,47.2440
" /> 
<path style="fill:none; 
stroke:#840000; stroke-width:0.1524; stroke-opacity:1; 
stroke-linecap:round; stroke-linejoin:round;fill:none"
d="M 80.0100,47.2440
79.5020,47.2440
" /> 
</g>
<g style="fill:none; 
stroke:#840000; stroke-width:0.2540; stroke-opacity:1; 
stroke-linecap:round; stroke-linejoin:round;">
<circle cx="78.7400" cy="46.9900" r="2.5400" /> 
</g>
<g style="fill:none; 
stroke:#840000; stroke-width:0.1524; stroke-opacity:1; 
stroke-linecap:round; stroke-linejoin:round;">
<text x="78.7400" y="45.7200"
textLength="1.7756" font-size="1.6933" lengthAdjust="spacingAndGlyphs"
text-anchor="middle" opacity="0" stroke-opacity="0">+</text>
<g class="stroked-text"><desc>+</desc>
<path d="M78.2561 45.1807
L79.2238 45.1807
" />
<path d="M78.7399 45.6645
L78.7399 44.6969
" />
</g><path d="M78.7400 44.4500
L78.7400 41.9100
" />
<path d="M78.7400 49.5300
L78.7400 52.0700
" />
</g>
<g style="fill:none; 
stroke:#006464; stroke-width:0.1524; stroke-opacity:1; 
stroke-linecap:round; stroke-linejoin:round;">
<text x="83.8102" y="46.2251"
textLength="2.5013" font-size="1.6933" lengthAdjust="spacingAndGlyphs"
text-anchor="middle" opacity="0" stroke-opacity="0">V2</text>
<g class="stroked-text"><desc>V2</desc>
<path d="M82.7821 44.8996
L83.2054 46.1696
" />
<path d="M83.2054 46.1696
L83.6288 44.8996
" />
<path d="M83.9917 45.0206
L84.0521 44.9601
" />
<path d="M84.0521 44.9601
L84.1731 44.8996
" />
<path d="M84.1731 44.8996
L84.4755 44.8996
" />
<path d="M84.4755 44.8996
L84.5964 44.9601
" />
<path d="M84.5964 44.9601
L84.6569 45.0206
" />
<path d="M84.6569 45.0206
L84.7174 45.1415
" />
<path d="M84.7174 45.1415
L84.7174 45.2625
" />
<path d="M84.7174 45.2625
L84.6569 45.4439
" />
<path d="M84.6569 45.4439
L83.9312 46.1696
" />
<path d="M83.9312 46.1696
L84.7174 46.1696
" />
</g><text x="83.8102" y="48.7651"
textLength="2.5013" font-size="1.6933" lengthAdjust="spacingAndGlyphs"
text-anchor="middle" opacity="0" stroke-opacity="0">9V</text>
<g class="stroked-text"><desc>9V</desc>
<path d="M83.0240 48.7096
L83.2659 48.7096
" />
<path d="M83.2659 48.7096
L83.3869 48.6492
" />
<path d="M83.3869 48.6492
L83.4473 48.5887
" />
<path d="M83.4473 48.5887
L83.5683 48.4072
" />
<path d="M83.5683 48.4072
L83.6288 48.1653
" />
<path d="M83.6288 48.1653
L83.6288 47.6815
" />
<path d="M83.6288 47.6815
L83.5683 47.5606
" />
<path d="M83.5683 47.5606
L83.5078 47.5001
" />
<path d="M83.5078 47.5001
L83.3869 47.4396
" />
<path d="M83.3869 47.4396
L83.1450 47.4396
" />
<path d="M83.1450 47.4396
L83.0240 47.5001
" />
<path d="M83.0240 47.5001
L82.9635 47.5606
" />
<path d="M82.9635 47.5606
L82.9031 47.6815
" />
<path d="M82.9031 47.6815
L82.9031 47.9839
" />
<path d="M82.9031 47.9839
L82.9635 48.1049
" />
<path d="M82.9635 48.1049
L83.0240 48.1653
" />
<path d="M83.0240 48.1653
L83.1450 48.2258
" />
<path d="M83.1450 48.2258
L83.3869 48.2258
" />
<path d="M83.3869 48.2258
L83.5078 48.1653
" />
<path d="M83.5078 48.1653
L83.5683 48.1049
" />
<path d="M83.5683 48.1049
L83.6288 47.9839
" />
<path d="M83.9916 47.4396
L84.4149 48.7096
" />
<path d="M84.4149 48.7096
L84.8383 47.4396
" />
</g></g>
<g style="fill:none; 
stroke:#840000; stroke-width:0.2540; stroke-opacity:1; 
stroke-linecap:round; stroke-linejoin:round;">
<rect x="62.230000" y="26.924000" width="5.080000" height="2.032000" rx="0.000000" />
</g>
<g style="fill:none; 
stroke:#840000; stroke-width:0.1524; stroke-opacity:1; 
stroke-linecap:round; stroke-linejoin:round;">
<path d="M62.2300 27.9400
L60.9600 27.9400
" />
<path d="M67.3100 27.9400
L68.5800 27.9400
" />
</g>
<g style="fill:none; 
stroke:#006464; stroke-width:0.1524; stroke-opacity:1; 
stroke-linecap:round; stroke-linejoin:round;">
<text x="64.7699" y="22.2249"
textLength="2.6827" font-size="1.6933" lengthAdjust="spacingAndGlyphs"
text-anchor="middle" opacity="0" stroke-opacity="0">R4</text>
<g class="stroked-text"><desc>R4</desc>
<path d="M64.5582 22.1694
L64.1349 21.5647
" />
<path d="M63.8325 22.1694
L63.8325 20.8994
" />
<path d="M63.8325 20.8994
L64.3163 20.8994
" />
<path d="M64.3163 20.8994
L64.4373 20.9599
" />
<path d="M64.4373 20.9599
L64.4978 21.0204
" />
<path d="M64.4978 21.0204
L64.5582 21.1413
" />
<path d="M64.5582 21.1413
L64.5582 21.3228
" />
<path d="M64.5582 21.3228
L64.4978 21.4437
" />
<path d="M64.4978 21.4437
L64.4373 21.5042
" />
<path d="M64.4373 21.5042
L64.3163 21.5647
" />
<path d="M64.3163 21.5647
L63.8325 21.5647
" />
<path d="M65.6468 21.3228
L65.6468 22.1694
" />
<path d="M65.3444 20.8390
L65.0421 21.7461
" />
<path d="M65.0421 21.7461
L65.8282 21.7461
" />
</g><text x="64.7699" y="24.7649"
textLength="3.8317" font-size="1.6933" lengthAdjust="spacingAndGlyphs"
text-anchor="middle" opacity="0" stroke-opacity="0">100</text>
<g class="stroked-text"><desc>100</desc>
<path d="M63.9233 24.7094
L63.1976 24.7094
" />
<path d="M63.5604 24.7094
L63.5604 23.4394
" />
<path d="M63.5604 23.4394
L63.4395 23.6209
" />
<path d="M63.4395 23.6209
L63.3185 23.7418
" />
<path d="M63.3185 23.7418
L63.1976 23.8023
" />
<path d="M64.7094 23.4394
L64.8304 23.4394
" />
<path d="M64.8304 23.4394
L64.9513 23.4999
" />
<path d="M64.9513 23.4999
L65.0118 23.5604
" />
<path d="M65.0118 23.5604
L65.0723 23.6813
" />
<path d="M65.0723 23.6813
L65.1328 23.9232
" />
<path d="M65.1328 23.9232
L65.1328 24.2256
" />
<path d="M65.1328 24.2256
L65.0723 24.4675
" />
<path d="M65.0723 24.4675
L65.0118 24.5885
" />
<path d="M65.0118 24.5885
L64.9513 24.6490
" />
<path d="M64.9513 24.6490
L64.8304 24.7094
" />
<path d="M64.8304 24.7094
L64.7094 24.7094
" />
<path d="M64.7094 24.7094
L64.5885 24.6490
" />
<path d="M64.5885 24.6490
L64.5280 24.5885
" />
<path d="M64.5280 24.5885
L64.4675 24.4675
" />
<path d="M64.4675 24.4675
L64.4071 24.2256
" />
<path d="M64.4071 24.2256
L64.4071 23.9232
" />
<path d="M64.4071 23.9232
L64.4675 23.6813
" />
<path d="M64.4675 23.6813
L64.5280 23.5604
" />
<path d="M64.5280 23.5604
L64.5885 23.4999
" />
<path d="M64.5885 23.4999
L64.7094 23.4394
" />
<path d="M65.9189 23.4394
L66.0399 23.4394
" />
<path d="M66.0399 23.4394
L66.1608 23.4999
" />
<path d="M66.1608 23.4999
L66.2213 23.5604
" />
<path d="M66.2213 23.5604
L66.2818 23.6813
" />
<path d="M66.2818 23.6813
L66.3423 23.9232
" />
<path d="M66.3423 23.9232
L66.3423 24.2256
" />
<path d="M66.3423 24.2256
L66.2818 24.4675
" />
<path d="M66.2818 24.4675
L66.2213 24.5885
" />
<path d="M66.2213 24.5885
L66.1608 24.6490
" />
<path d="M66.1608 24.6490
L66.0399 24.7094
" />
<path d="M66.0399 24.7094
L65.9189 24.7094
" />
<path d="M65.9189 24.7094
L65.7980 24.6490
" />
<path d="M65.7980 24.6490
L65.7375 24.5885
" />
<path d="M65.7375 24.5885
L65.6770 24.4675
" />
<path d="M65.6770 24.4675
L65.6166 24.2256
" />
<path d="M65.6166 24.2256
L65.6166 23.9232
" />
<path d="M65.6166 23.9232
L65.6770 23.6813
" />
<path d="M65.6770 23.6813
L65.7375 23.5604
" />
<path d="M65.7375 23.5604
L65.7980 23.4999
" />
<path d="M65.7980 23.4999
L65.9189 23.4394
" />
</g></g>
<g style="fill:none; 
stroke:#840000; stroke-width:0.2540; stroke-opacity:1; 
stroke-linecap:round; stroke-linejoin:round;">
<rect x="51.054000" y="50.800000" width="2.032000" height="5.080000" rx="0.000000" />
</g>
<g style="fill:none; 
stroke:#840000; stroke-width:0.1524; stroke-opacity:1; 
stroke-linecap:round; stroke-linejoin:round;">
<path d="M52.0700 50.8000
L52.0700 49.5300
" />
<path d="M52.0700 55.8800
L52.0700 57.1500
" />
</g>
<g style="fill:none; 
stroke:#006464; stroke-width:0.1524; stroke-opacity:1; 
stroke-linecap:round; stroke-linejoin:round;">
<text x="55.9609" y="52.7049"
textLength="2.6827" font-size="1.6933" lengthAdjust="spacingAndGlyphs"
text-anchor="middle" opacity="0" stroke-opacity="0">R3</text>
<g class="stroked-text"><desc>R3</desc>
<path d="M55.7492 52.6494
L55.3259 52.0447
" />
<path d="M55.0235 52.6494
L55.0235 51.3794
" />
<path d="M55.0235 51.3794
L55.5073 51.3794
" />
<path d="M55.5073 51.3794
L55.6283 51.4399
" />
<path d="M55.6283 51.4399
L55.6888 51.5004
" />
<path d="M55.6888 51.5004
L55.7492 51.6213
" />
<path d="M55.7492 51.6213
L55.7492 51.8028
" />
<path d="M55.7492 51.8028
L55.6888 51.9237
" />
<path d="M55.6888 51.9237
L55.6283 51.9842
" />
<path d="M55.6283 51.9842
L55.5073 52.0447
" />
<path d="M55.5073 52.0447
L55.0235 52.0447
" />
<path d="M56.1726 51.3794
L56.9588 51.3794
" />
<path d="M56.9588 51.3794
L56.5354 51.8632
" />
<path d="M56.5354 51.8632
L56.7169 51.8632
" />
<path d="M56.7169 51.8632
L56.8378 51.9237
" />
<path d="M56.8378 51.9237
L56.8983 51.9842
" />
<path d="M56.8983 51.9842
L56.9588 52.1051
" />
<path d="M56.9588 52.1051
L56.9588 52.4075
" />
<path d="M56.9588 52.4075
L56.8983 52.5285
" />
<path d="M56.8983 52.5285
L56.8378 52.5890
" />
<path d="M56.8378 52.5890
L56.7169 52.6494
" />
<path d="M56.7169 52.6494
L56.3540 52.6494
" />
<path d="M56.3540 52.6494
L56.2331 52.5890
" />
<path d="M56.2331 52.5890
L56.1726 52.5285
" />
</g><text x="56.5354" y="55.2449"
textLength="3.8317" font-size="1.6933" lengthAdjust="spacingAndGlyphs"
text-anchor="middle" opacity="0" stroke-opacity="0">180</text>
<g class="stroked-text"><desc>180</desc>
<path d="M55.6888 55.1894
L54.9631 55.1894
" />
<path d="M55.3259 55.1894
L55.3259 53.9194
" />
<path d="M55.3259 53.9194
L55.2050 54.1009
" />
<path d="M55.2050 54.1009
L55.0840 54.2218
" />
<path d="M55.0840 54.2218
L54.9631 54.2823
" />
<path d="M56.4145 54.4637
L56.2935 54.4032
" />
<path d="M56.2935 54.4032
L56.2330 54.3428
" />
<path d="M56.2330 54.3428
L56.1726 54.2218
" />
<path d="M56.1726 54.2218
L56.1726 54.1613
" />
<path d="M56.1726 54.1613
L56.2330 54.0404
" />
<path d="M56.2330 54.0404
L56.2935 53.9799
" />
<path d="M56.2935 53.9799
L56.4145 53.9194
" />
<path d="M56.4145 53.9194
L56.6564 53.9194
" />
<path d="M56.6564 53.9194
L56.7773 53.9799
" />
<path d="M56.7773 53.9799
L56.8378 54.0404
" />
<path d="M56.8378 54.0404
L56.8983 54.1613
" />
<path d="M56.8983 54.1613
L56.8983 54.2218
" />
<path d="M56.8983 54.2218
L56.8378 54.3428
" />
<path d="M56.8378 54.3428
L56.7773 54.4032
" />
<path d="M56.7773 54.4032
L56.6564 54.4637
" />
<path d="M56.6564 54.4637
L56.4145 54.4637
" />
<path d="M56.4145 54.4637
L56.2935 54.5242
" />
<path d="M56.2935 54.5242
L56.2330 54.5847
" />
<path d="M56.2330 54.5847
L56.1726 54.7056
" />
<path d="M56.1726 54.7056
L56.1726 54.9475
" />
<path d="M56.1726 54.9475
L56.2330 55.0685
" />
<path d="M56.2330 55.0685
L56.2935 55.1290
" />
<path d="M56.2935 55.1290
L56.4145 55.1894
" />
<path d="M56.4145 55.1894
L56.6564 55.1894
" />
<path d="M56.6564 55.1894
L56.7773 55.1290
" />
<path d="M56.7773 55.1290
L56.8378 55.0685
" />
<path d="M56.8378 55.0685
L56.8983 54.9475
" />
<path d="M56.8983 54.9475
L56.8983 54.7056
" />
<path d="M56.8983 54.7056
L56.8378 54.5847
" />
<path d="M56.8378 54.5847
L56.7773 54.5242
" />
<path d="M56.7773 54.5242
L56.6564 54.4637
" />
<path d="M57.6844 53.9194
L57.8054 53.9194
" />
<path d="M57.8054 53.9194
L57.9263 53.9799
" />
<path d="M57.9263 53.9799
L57.9868 54.0404
" />
<path d="M57.9868 54.0404
L58.0473 54.1613
" />
<path d="M58.0473 54.1613
L58.1078 54.4032
" />
<path d="M58.1078 54.4032
L58.1078 54.7056
" />
<path d="M58.1078 54.7056
L58.0473 54.9475
" />
<path d="M58.0473 54.9475
L57.9868 55.0685
" />
<path d="M57.9868 55.0685
L57.9263 55.1290
" />
<path d="M57.9263 55.1290
L57.8054 55.1894
" />
<path d="M57.8054 55.1894
L57.6844 55.1894
" />
<path d="M57.6844 55.1894
L57.5635 55.1290
" />
<path d="M57.5635 55.1290
L57.5030 55.0685
" />
<path d="M57.5030 55.0685
L57.4425 54.9475
" />
<path d="M57.4425 54.9475
L57.3821 54.7056
" />
<path d="M57.3821 54.7056
L57.3821 54.4032
" />
<path d="M57.3821 54.4032
L57.4425 54.1613
" />
<path d="M57.4425 54.1613
L57.5030 54.0404
" />
<path d="M57.5030 54.0404
L57.5635 53.9799
" />
<path d="M57.5635 53.9799
L57.6844 53.9194
" />
</g></g>
<g style="fill:#FFFFC2; fill-opacity:1.0000; stroke:none;">
<circle cx="25.4000" cy="46.9900" r="2.5400" /> 
<path style="fill:none; 
stroke:#840000; stroke-width:0.1524; stroke-opacity:1; 
stroke-linecap:round; stroke-linejoin:round;fill:none"
d="M 24.1300,46.7360
26.6700,46.7360
" /> 
<path style="fill:none; 
stroke:#840000; stroke-width:0.1524; stroke-opacity:1; 
stroke-linecap:round; stroke-linejoin:round;fill:none"
d="M 24.6380,47.2440
24.1300,47.2440
" /> 
<path style="fill:none; 
stroke:#840000; stroke-width:0.1524; stroke-opacity:1; 
stroke-linecap:round; stroke-linejoin:round;fill:none"
d="M 25.6540,47.2440
25.1460,47.2440
" /> 
<path style="fill:none; 
stroke:#840000; stroke-width:0.1524; stroke-opacity:1; 
stroke-linecap:round; stroke-linejoin:round;fill:none"
d="M 26.6700,47.2440
26.1620,47.2440
" /> 
</g>
<g style="fill:none; 
stroke:#840000; stroke-width:0.2540; stroke-opacity:1; 
stroke-linecap:round; stroke-linejoin:round;">
<circle cx="25.4000" cy="46.9900" r="2.5400" /> 
</g>
<g style="fill:none; 
stroke:#840000; stroke-width:0.1524; stroke-opacity:1; 
stroke-linecap:round; stroke-linejoin:round;">
<text x="25.4000" y="45.7200"
textLength="1.7756" font-size="1.6933" lengthAdjust="spacingAndGlyphs"
text-anchor="middle" opacity="0" stroke-opacity="0">+</text>
<g class="stroked-text"><desc>+</desc>
<path d="M24.9161 45.1807
L25.8838 45.1807
" />
<path d="M25.3999 45.6645
L25.3999 44.6969
" />
</g><path d="M25.4000 44.4500
L25.4000 41.9100
" />
<path d="M25.4000 49.5300
L25.4000 52.0700
" />
</g>
<g style="fill:none; 
stroke:#006464; stroke-width:0.1524; stroke-opacity:1; 
stroke-linecap:round; stroke-linejoin:round;">
<text x="30.4702" y="46.2251"
textLength="2.5013" font-size="1.6933" lengthAdjust="spacingAndGlyphs"
text-anchor="middle" opacity="0" stroke-opacity="0">V1</text>
<g class="stroked-text"><desc>V1</desc>
<path d="M29.4421 44.8996
L29.8654 46.1696
" />
<path d="M29.8654 46.1696
L30.2888 44.8996
" />
<path d="M31.3774 46.1696
L30.6517 46.1696
" />
<path d="M31.0145 46.1696
L31.0145 44.8996
" />
<path d="M31.0145 44.8996
L30.8936 45.0811
" />
<path d="M30.8936 45.0811
L30.7726 45.2020
" />
<path d="M30.7726 45.2020
L30.6517 45.2625
" />
</g><text x="30.4702" y="48.7651"
textLength="2.5013" font-size="1.6933" lengthAdjust="spacingAndGlyphs"
text-anchor="middle" opacity="0" stroke-opacity="0">7V</text>
<g class="stroked-text"><desc>7V</desc>
<path d="M29.5026 47.4396
L30.3492 47.4396
" />
<path d="M30.3492 47.4396
L29.8050 48.7096
" />
<path d="M30.6516 47.4396
L31.0749 48.7096
" />
<path d="M31.0749 48.7096
L31.4983 47.4396
" />
</g></g>
<g style="fill:none; 
stroke:#0F0F0F; stroke-width:0.1524; stroke-opacity:1; 
stroke-linecap:round; stroke-linejoin:round;">
<text x="71.1200" y="26.3207"
textLength="2.0175" font-size="1.6933" lengthAdjust="spacingAndGlyphs"
text-anchor="start" opacity="0" stroke-opacity="0">I2</text>
<g class="stroked-text"><desc>I2</desc>
<path d="M71.5225 26.1572
L71.5225 24.8872
" />
<path d="M72.0669 25.0082
L72.1273 24.9477
" />
<path d="M72.1273 24.9477
L72.2483 24.8872
" />
<path d="M72.2483 24.8872
L72.5507 24.8872
" />
<path d="M72.5507 24.8872
L72.6716 24.9477
" />
<path d="M72.6716 24.9477
L72.7321 25.0082
" />
<path d="M72.7321 25.0082
L72.7926 25.1291
" />
<path d="M72.7926 25.1291
L72.7926 25.2501
" />
<path d="M72.7926 25.2501
L72.7321 25.4315
" />
<path d="M72.7321 25.4315
L72.0064 26.1572
" />
<path d="M72.0064 26.1572
L72.7926 26.1572
" />
</g></g>
<g style="fill:none; 
stroke:#0F0F0F; stroke-width:0.1524; stroke-opacity:1; 
stroke-linecap:round; stroke-linejoin:round;">
<text x="29.2100" y="26.3207"
textLength="2.0175" font-size="1.6933" lengthAdjust="spacingAndGlyphs"
text-anchor="start" opacity="0" stroke-opacity="0">I1</text>
<g class="stroked-text"><desc>I1</desc>
<path d="M29.6125 26.1572
L29.6125 24.8872
" />
<path d="M30.8826 26.1572
L30.1569 26.1572
" />
<path d="M30.5197 26.1572
L30.5197 24.8872
" />
<path d="M30.5197 24.8872
L30.3988 25.0687
" />
<path d="M30.3988 25.0687
L30.2778 25.1896
" />
<path d="M30.2778 25.1896
L30.1569 25.2501
" />
</g></g>
<g style="fill:none; 
stroke:#0F0F0F; stroke-width:0.1524; stroke-opacity:1; 
stroke-linecap:round; stroke-linejoin:round;">
<text x="53.3400" y="47.9107"
textLength="5.4042" font-size="1.6933" lengthAdjust="spacingAndGlyphs"
text-anchor="start" opacity="0" stroke-opacity="0">I1+I2</text>
<g class="stroked-text"><desc>I1+I2</desc>
<path d="M53.7425 47.7472
L53.7425 46.4772
" />
<path d="M55.0126 47.7472
L54.2869 47.7472
" />
<path d="M54.6497 47.7472
L54.6497 46.4772
" />
<path d="M54.6497 46.4772
L54.5288 46.6587
" />
<path d="M54.5288 46.6587
L54.4078 46.7796
" />
<path d="M54.4078 46.7796
L54.2869 46.8401
" />
<path d="M55.5568 47.2634
L56.5245 47.2634
" />
<path d="M56.0406 47.7472
L56.0406 46.7796
" />
<path d="M57.1292 47.7472
L57.1292 46.4772
" />
<path d="M57.6736 46.5982
L57.7340 46.5377
" />
<path d="M57.7340 46.5377
L57.8550 46.4772
" />
<path d="M57.8550 46.4772
L58.1574 46.4772
" />
<path d="M58.1574 46.4772
L58.2783 46.5377
" />
<path d="M58.2783 46.5377
L58.3388 46.5982
" />
<path d="M58.3388 46.5982
L58.3993 46.7191
" />
<path d="M58.3993 46.7191
L58.3993 46.8401
" />
<path d="M58.3993 46.8401
L58.3388 47.0215
" />
<path d="M58.3388 47.0215
L57.6131 47.7472
" />
<path d="M57.6131 47.7472
L58.3993 47.7472
" />
</g></g>
<g style="fill:none; 
stroke:#009600; stroke-width:0.1524; stroke-opacity:1; 
stroke-linecap:round; stroke-linejoin:round;">
<path d="M78.7400 52.0700
L78.7400 63.5000
" />
<path d="M78.7400 63.5000
L52.0700 63.5000
" />
<path d="M53.3400 48.2600
L52.0700 48.2600
" />
<path d="M71.1200 26.6700
L69.8500 26.6700
" />
<path d="M78.7400 41.9100
L78.7400 27.9400
" />
<path d="M25.4000 52.0700
L25.4000 63.5000
" />
<path d="M69.8500 27.9400
L78.7400 27.9400
" />
<path d="M52.0700 27.9400
L52.0700 34.2900
" />
<path d="M52.0700 41.9100
L52.0700 48.2600
" />
<path d="M52.0700 57.1500
L52.0700 63.5000
" />
<path d="M29.2100 27.9400
L25.4000 27.9400
" />
<path d="M41.9100 27.9400
L52.0700 27.9400
" />
<path d="M34.2900 27.9400
L29.2100 27.9400
" />
<path d="M29.2100 26.6700
L29.2100 27.9400
" />
<path d="M25.4000 27.9400
L25.4000 41.9100
" />
<path d="M68.5800 27.9400
L69.8500 27.9400
" />
<path d="M52.0700 27.9400
L60.9600 27.9400
" />
<path d="M69.8500 26.6700
L69.8500 27.9400
" />
<path d="M25.4000 63.5000
L25.4000 68.5800
" />
<path d="M25.4000 63.5000
L52.0700 63.5000
" />
<path d="M52.0700 48.2600
L52.0700 49.5300
" />
</g>
<g style="fill:#009600; fill-opacity:1.0000; 
stroke:#009600; stroke-width:0.1524; stroke-opacity:1; 
stroke-linecap:round; stroke-linejoin:round;">
<circle cx="52.0700" cy="63.5000" r="0.4572" /> 
<circle cx="52.0700" cy="27.9400" r="0.4572" /> 
<circle cx="29.2100" cy="27.9400" r="0.4572" /> 
<circle cx="52.0700" cy="48.2600" r="0.4572" /> 
<circle cx="69.8500" cy="27.9400" r="0.4572" /> 
<circle cx="25.4000" cy="63.5000" r="0.4572" /> 
</g> 
</svg>
